# Blender 4.3.2
# www.blender.org
mtllib mystreets_pylon.mtl
o Cylinder
v 0.000000 -0.500000 -0.300000
v -0.000000 0.500000 -0.039804
v 0.058527 -0.500000 -0.294236
v 0.007765 0.500000 -0.039039
v 0.114805 -0.500000 -0.277164
v 0.015232 0.500000 -0.036774
v 0.166671 -0.500000 -0.249441
v 0.022114 0.500000 -0.033095
v 0.212132 -0.500000 -0.212132
v 0.028145 0.500000 -0.028145
v 0.249441 -0.500000 -0.166671
v 0.033095 0.500000 -0.022114
v 0.277164 -0.500000 -0.114805
v 0.036774 0.500000 -0.015232
v 0.294236 -0.500000 -0.058527
v 0.039039 0.500000 -0.007765
v 0.300000 -0.500000 0.000000
v 0.039804 0.500000 0.000000
v 0.294236 -0.500000 0.058527
v 0.039039 0.500000 0.007765
v 0.277164 -0.500000 0.114805
v 0.036774 0.500000 0.015232
v 0.249441 -0.500000 0.166671
v 0.033095 0.500000 0.022114
v 0.212132 -0.500000 0.212132
v 0.028145 0.500000 0.028145
v 0.166671 -0.500000 0.249441
v 0.022114 0.500000 0.033095
v 0.114805 -0.500000 0.277164
v 0.015232 0.500000 0.036774
v 0.058527 -0.500000 0.294236
v 0.007765 0.500000 0.039039
v 0.000000 -0.500000 0.300000
v -0.000000 0.500000 0.039804
v -0.058527 -0.500000 0.294236
v -0.007765 0.500000 0.039039
v -0.114805 -0.500000 0.277164
v -0.015232 0.500000 0.036774
v -0.166671 -0.500000 0.249441
v -0.022114 0.500000 0.033095
v -0.212132 -0.500000 0.212132
v -0.028145 0.500000 0.028145
v -0.249441 -0.500000 0.166671
v -0.033095 0.500000 0.022114
v -0.277164 -0.500000 0.114805
v -0.036774 0.500000 0.015232
v -0.294236 -0.500000 0.058527
v -0.039039 0.500000 0.007765
v -0.300000 -0.500000 0.000000
v -0.039804 0.500000 0.000000
v -0.294236 -0.500000 -0.058527
v -0.039039 0.500000 -0.007765
v -0.277164 -0.500000 -0.114805
v -0.036774 0.500000 -0.015232
v -0.249441 -0.500000 -0.166671
v -0.033095 0.500000 -0.022114
v -0.212132 -0.500000 -0.212132
v -0.028145 0.500000 -0.028145
v -0.166671 -0.500000 -0.249441
v -0.022114 0.500000 -0.033095
v -0.114805 -0.500000 -0.277164
v -0.015232 0.500000 -0.036774
v -0.058527 -0.500000 -0.294236
v -0.007765 0.500000 -0.039039
v 0.055059 -0.499295 -0.276801
v -0.000000 -0.499295 -0.282224
v 0.108002 -0.499295 -0.260741
v 0.156795 -0.499295 -0.234660
v 0.199562 -0.499295 -0.199562
v 0.234660 -0.499295 -0.156795
v 0.260741 -0.499295 -0.108002
v 0.276801 -0.499295 -0.055059
v 0.282224 -0.499295 0.000000
v 0.276801 -0.499295 0.055059
v 0.260741 -0.499295 0.108002
v 0.234660 -0.499295 0.156795
v 0.199562 -0.499295 0.199562
v 0.156795 -0.499295 0.234660
v 0.108002 -0.499295 0.260741
v 0.055059 -0.499295 0.276801
v -0.000000 -0.499295 0.282224
v -0.055059 -0.499295 0.276801
v -0.108002 -0.499295 0.260741
v -0.156795 -0.499295 0.234660
v -0.199562 -0.499295 0.199562
v -0.234660 -0.499295 0.156795
v -0.260741 -0.499295 0.108002
v -0.276801 -0.499295 0.055059
v -0.282224 -0.499295 0.000000
v -0.276801 -0.499295 -0.055059
v -0.260741 -0.499295 -0.108002
v -0.234660 -0.499295 -0.156795
v -0.199562 -0.499295 -0.199562
v -0.156795 -0.499295 -0.234660
v -0.108002 -0.499295 -0.260741
v -0.055059 -0.499295 -0.276801
vn 0.0949 0.2507 -0.9634
vn 0.2810 0.2507 -0.9264
vn 0.4563 0.2507 -0.8538
vn 0.6141 0.2507 -0.7483
vn 0.7483 0.2507 -0.6141
vn 0.8538 0.2507 -0.4563
vn 0.9264 0.2507 -0.2810
vn 0.9634 0.2507 -0.0949
vn 0.9634 0.2507 0.0949
vn 0.9264 0.2507 0.2810
vn 0.8538 0.2507 0.4563
vn 0.7483 0.2507 0.6141
vn 0.6141 0.2507 0.7483
vn 0.4563 0.2507 0.8538
vn 0.2810 0.2507 0.9264
vn 0.0949 0.2507 0.9634
vn -0.0949 0.2507 0.9634
vn -0.2810 0.2507 0.9264
vn -0.4563 0.2507 0.8538
vn -0.6141 0.2507 0.7483
vn -0.7483 0.2507 0.6141
vn -0.8538 0.2507 0.4563
vn -0.9264 0.2507 0.2810
vn -0.9634 0.2507 0.0949
vn -0.9634 0.2507 -0.0949
vn -0.9264 0.2507 -0.2810
vn -0.8538 0.2507 -0.4563
vn -0.7483 0.2507 -0.6141
vn -0.6141 0.2507 -0.7483
vn -0.4563 0.2507 -0.8538
vn -0.9302 -0.2347 0.2822
vn -0.2810 0.2507 -0.9264
vn -0.0949 0.2507 -0.9634
vn -0.0953 -0.2347 -0.9674
vn 0.9674 -0.2347 0.0953
vn -0.4582 -0.2347 0.8573
vn -0.7514 -0.2347 -0.6167
vn 0.7514 -0.2347 -0.6167
vn 0.4582 -0.2347 0.8573
vn -0.9674 -0.2347 0.0953
vn 0.0953 -0.2347 -0.9674
vn 0.9302 -0.2347 0.2822
vn -0.6167 -0.2347 0.7514
vn -0.6167 -0.2347 -0.7514
vn 0.8573 -0.2347 -0.4582
vn 0.2822 -0.2347 0.9302
vn -0.9674 -0.2347 -0.0953
vn 0.2822 -0.2347 -0.9302
vn 0.8573 -0.2347 0.4582
vn -0.7514 -0.2347 0.6167
vn -0.4582 -0.2347 -0.8573
vn 0.9302 -0.2347 -0.2822
vn -0.0953 -0.2347 0.9674
vn 0.0953 -0.2347 0.9674
vn -0.9302 -0.2347 -0.2822
vn 0.4582 -0.2347 -0.8573
vn 0.7514 -0.2347 0.6167
vn -0.8573 -0.2347 0.4582
vn -0.2822 -0.2347 -0.9302
vn 0.9674 -0.2347 -0.0953
vn -0.2822 -0.2347 0.9302
vn -0.8573 -0.2347 -0.4582
vn 0.6167 -0.2347 -0.7514
vn 0.6167 -0.2347 0.7514
vt 0.793902 0.290420
vt 0.928372 0.034400
vt 0.931430 0.035884
vt 0.816952 0.301603
vt 0.934653 0.037126
vt 0.841240 0.310961
vt 0.937916 0.038077
vt 0.865835 0.318135
vt 0.941094 0.038703
vt 0.889789 0.322850
vt 0.944065 0.038978
vt 0.912184 0.324924
vt 0.946715 0.038892
vt 0.932157 0.324277
vt 0.948942 0.038449
vt 0.948942 0.320935
vt 0.022141 0.968951
vt 0.031352 0.766854
vt 0.034682 0.766180
vt 0.047242 0.963871
vt 0.038111 0.765765
vt 0.073082 0.960743
vt 0.041506 0.765625
vt 0.098670 0.959687
vt 0.044737 0.765765
vt 0.123021 0.960743
vt 0.047679 0.766180
vt 0.145200 0.963871
vt 0.050221 0.766854
vt 0.164355 0.968951
vt 0.027799 0.986415
vt 0.116821 0.772067
vt 0.119263 0.771093
vt 0.046205 0.979071
vt 0.122134 0.770327
vt 0.067847 0.973300
vt 0.125325 0.769800
vt 0.091895 0.969325
vt 0.128712 0.769531
vt 0.117424 0.967299
vt 0.132166 0.769531
vt 0.143454 0.967299
vt 0.135553 0.769800
vt 0.168983 0.969325
vt 0.138744 0.770327
vt 0.193031 0.973300
vt 0.141615 0.771093
vt 0.214673 0.979071
vt 0.144057 0.772067
vt 0.233079 0.986415
vt -0.000000 1.000000
vt 0.114134 0.797903
vt 0.116676 0.797229
vt 0.019155 0.994921
vt 0.119618 0.796814
vt 0.041334 0.991793
vt 0.122849 0.796674
vt 0.065685 0.990737
vt 0.126244 0.796814
vt 0.091273 0.991793
vt 0.129673 0.797229
vt 0.117113 0.994921
vt 0.133003 0.797903
vt 0.142214 1.000000
vt 0.730402 0.236731
vt 0.919947 0.027277
vt 0.921300 0.029100
vt 0.740605 0.250472
vt 0.923208 0.030942
vt 0.754981 0.264354
vt 0.669131 0.686345
vt 0.671751 0.686129
vt 0.671751 0.969049
vt 0.653172 0.970578
vt 0.925596 0.032731
vt 0.772977 0.277842
vt 0.644213 0.676487
vt 0.645712 0.678145
vt 0.487120 0.912436
vt 0.476496 0.900680
vt 0.791872 0.703760
vt 0.795174 0.702747
vt 0.889053 0.973038
vt 0.865642 0.980216
vt 0.938785 0.368343
vt 0.941944 0.369593
vt 0.848066 0.639884
vt 0.825663 0.631021
vt 0.653177 0.682805
vt 0.656337 0.684055
vt 0.562458 0.954346
vt 0.540056 0.945483
vt 0.803750 0.698484
vt 0.805799 0.696837
vt 0.964391 0.931127
vt 0.949862 0.942809
vt 0.954738 0.371883
vt 0.957359 0.371667
vt 0.957359 0.654586
vt 0.938779 0.656116
vt 0.666161 0.686235
vt 0.632115 0.969800
vt 0.202342 0.765625
vt 0.205729 0.765910
vt 0.236875 0.962949
vt 0.212858 0.960929
vt 0.788555 0.704496
vt 0.842122 0.985434
vt 0.935889 0.366904
vt 0.805131 0.620814
vt 0.650282 0.681366
vt 0.519523 0.935276
vt 0.801230 0.700058
vt 0.931988 0.953968
vt 0.951768 0.371773
vt 0.917722 0.655337
vt 0.662956 0.685804
vt 0.609389 0.966742
vt 0.198888 0.765625
vt 0.188371 0.960929
vt 0.785350 0.704927
vt 0.819396 0.988491
vt 0.933368 0.365330
vt 0.787256 0.609655
vt 0.647761 0.679792
vt 0.501649 0.924117
vt 0.798334 0.701497
vt 0.911455 0.964175
vt 0.945246 0.370606
vt 0.948563 0.371342
vt 0.894997 0.652280
vt 0.871477 0.647062
vt 0.659639 0.685068
vt 0.585869 0.961524
vt 0.195501 0.765910
vt 0.164355 0.962949
vt 0.782380 0.705037
vt 0.798339 0.989270
vt 0.931319 0.363683
vt 0.772728 0.597973
vt 0.807298 0.695179
vt 0.975016 0.919372
vt 0.779760 0.704821
vt 0.779760 0.987741
s 0
f 1/1/1 2/2/1 4/3/1 3/4/1
f 3/4/2 4/3/2 6/5/2 5/6/2
f 5/6/3 6/5/3 8/7/3 7/8/3
f 7/8/4 8/7/4 10/9/4 9/10/4
f 9/10/5 10/9/5 12/11/5 11/12/5
f 11/12/6 12/11/6 14/13/6 13/14/6
f 13/14/7 14/13/7 16/15/7 15/16/7
f 15/17/8 16/18/8 18/19/8 17/20/8
f 17/20/9 18/19/9 20/21/9 19/22/9
f 19/22/10 20/21/10 22/23/10 21/24/10
f 21/24/11 22/23/11 24/25/11 23/26/11
f 23/26/12 24/25/12 26/27/12 25/28/12
f 25/28/13 26/27/13 28/29/13 27/30/13
f 27/31/14 28/32/14 30/33/14 29/34/14
f 29/34/15 30/33/15 32/35/15 31/36/15
f 31/36/16 32/35/16 34/37/16 33/38/16
f 33/38/17 34/37/17 36/39/17 35/40/17
f 35/40/18 36/39/18 38/41/18 37/42/18
f 37/42/19 38/41/19 40/43/19 39/44/19
f 39/44/20 40/43/20 42/45/20 41/46/20
f 41/46/21 42/45/21 44/47/21 43/48/21
f 43/48/22 44/47/22 46/49/22 45/50/22
f 45/51/23 46/52/23 48/53/23 47/54/23
f 47/54/24 48/53/24 50/55/24 49/56/24
f 49/56/25 50/55/25 52/57/25 51/58/25
f 51/58/26 52/57/26 54/59/26 53/60/26
f 53/60/27 54/59/27 56/61/27 55/62/27
f 55/62/28 56/61/28 58/63/28 57/64/28
f 57/65/29 58/66/29 60/67/29 59/68/29
f 59/68/30 60/67/30 62/69/30 61/70/30
f 16/71/31 14/72/31 71/73/31 72/74/31
f 61/70/32 62/69/32 64/75/32 63/76/32
f 63/76/33 64/75/33 2/2/33 1/1/33
f 34/77/34 32/78/34 80/79/34 81/80/34
f 52/81/35 50/82/35 89/83/35 90/84/35
f 8/85/36 6/86/36 67/87/36 68/88/36
f 26/89/37 24/90/37 76/91/37 77/92/37
f 44/93/38 42/94/38 85/95/38 86/96/38
f 62/97/39 60/98/39 94/99/39 95/100/39
f 18/101/40 16/71/40 72/74/40 73/102/40
f 36/103/41 34/104/41 81/105/41 82/106/41
f 54/107/42 52/81/42 90/84/42 91/108/42
f 10/109/43 8/85/43 68/88/43 69/110/43
f 28/111/44 26/89/44 77/92/44 78/112/44
f 46/113/45 44/93/45 86/96/45 87/114/45
f 64/115/46 62/97/46 95/100/46 96/116/46
f 20/117/47 18/101/47 73/102/47 74/118/47
f 38/119/48 36/103/48 82/106/48 83/120/48
f 56/121/49 54/107/49 91/108/49 92/122/49
f 12/123/50 10/109/50 69/110/50 70/124/50
f 30/125/51 28/111/51 78/112/51 79/126/51
f 48/127/52 46/113/52 87/114/52 88/128/52
f 4/129/53 2/130/53 66/131/53 65/132/53
f 2/130/54 64/115/54 96/116/54 66/131/54
f 22/133/55 20/117/55 74/118/55 75/134/55
f 40/135/56 38/119/56 83/120/56 84/136/56
f 58/137/57 56/121/57 92/122/57 93/138/57
f 14/139/58 12/123/58 70/124/58 71/140/58
f 32/78/59 30/125/59 79/126/59 80/79/59
f 50/82/60 48/127/60 88/128/60 89/83/60
f 6/86/61 4/129/61 65/132/61 67/87/61
f 24/90/62 22/133/62 75/134/62 76/91/62
f 42/94/63 40/141/63 84/142/63 85/95/63
f 60/143/64 58/137/64 93/138/64 94/144/64
o Cube
v -0.304706 -0.494085 0.400000
v -0.400000 -0.494085 0.304706
v -0.323297 -0.494085 0.398169
v -0.341173 -0.494085 0.392746
v -0.357648 -0.494085 0.383940
v -0.372089 -0.494085 0.372089
v -0.383940 -0.494085 0.357648
v -0.392746 -0.494085 0.341173
v -0.398169 -0.494085 0.323297
v -0.400000 -0.454085 0.304706
v -0.304706 -0.454085 0.400000
v -0.398169 -0.454085 0.323297
v -0.392746 -0.454085 0.341173
v -0.383940 -0.454085 0.357648
v -0.372089 -0.454085 0.372089
v -0.357648 -0.454085 0.383940
v -0.341173 -0.454085 0.392746
v -0.323297 -0.454085 0.398169
v -0.400000 -0.494085 -0.304706
v -0.304706 -0.494085 -0.400000
v -0.398169 -0.494085 -0.323297
v -0.392746 -0.494085 -0.341173
v -0.383940 -0.494085 -0.357648
v -0.372089 -0.494085 -0.372089
v -0.357648 -0.494085 -0.383940
v -0.341173 -0.494085 -0.392746
v -0.323297 -0.494085 -0.398169
v -0.304706 -0.454085 -0.400000
v -0.400000 -0.454085 -0.304706
v -0.323297 -0.454085 -0.398169
v -0.341173 -0.454085 -0.392746
v -0.357648 -0.454085 -0.383940
v -0.372089 -0.454085 -0.372089
v -0.383940 -0.454085 -0.357648
v -0.392746 -0.454085 -0.341173
v -0.398169 -0.454085 -0.323297
v 0.400000 -0.494085 0.304706
v 0.304706 -0.494085 0.400000
v 0.398169 -0.494085 0.323297
v 0.392746 -0.494085 0.341173
v 0.383940 -0.494085 0.357648
v 0.372089 -0.494085 0.372089
v 0.357648 -0.494085 0.383940
v 0.341173 -0.494085 0.392746
v 0.323297 -0.494085 0.398169
v 0.304706 -0.454085 0.400000
v 0.400000 -0.454085 0.304706
v 0.323297 -0.454085 0.398169
v 0.341173 -0.454085 0.392746
v 0.357648 -0.454085 0.383940
v 0.372089 -0.454085 0.372089
v 0.383940 -0.454085 0.357648
v 0.392746 -0.454085 0.341173
v 0.398169 -0.454085 0.323297
v 0.304706 -0.494085 -0.400000
v 0.400000 -0.494085 -0.304706
v 0.323297 -0.494085 -0.398169
v 0.341173 -0.494085 -0.392746
v 0.357648 -0.494085 -0.383940
v 0.372089 -0.494085 -0.372089
v 0.383940 -0.494085 -0.357648
v 0.392746 -0.494085 -0.341173
v 0.398169 -0.494085 -0.323297
v 0.400000 -0.454085 -0.304706
v 0.304706 -0.454085 -0.400000
v 0.398169 -0.454085 -0.323297
v 0.392746 -0.454085 -0.341173
v 0.383940 -0.454085 -0.357648
v 0.372089 -0.454085 -0.372089
v 0.357648 -0.454085 -0.383940
v 0.341173 -0.454085 -0.392746
v 0.323297 -0.454085 -0.398169
vn -0.0000 -0.0000 1.0000
vn 1.0000 -0.0000 -0.0000
vn -0.0000 1.0000 -0.0000
vn -1.0000 -0.0000 -0.0000
vn -0.0000 -0.0000 -1.0000
vn -0.0980 -0.0000 0.9952
vn -0.2903 -0.0000 0.9569
vn -0.4714 -0.0000 0.8819
vn -0.6344 -0.0000 0.7730
vn -0.7730 -0.0000 0.6344
vn -0.8819 -0.0000 0.4714
vn -0.9569 -0.0000 0.2903
vn -0.9952 -0.0000 0.0980
vn -0.0980 -0.0000 -0.9952
vn -0.2903 -0.0000 -0.9569
vn -0.4714 -0.0000 -0.8819
vn -0.6344 -0.0000 -0.7730
vn -0.7730 -0.0000 -0.6344
vn -0.8819 -0.0000 -0.4714
vn -0.9569 -0.0000 -0.2903
vn -0.9952 -0.0000 -0.0980
vn 0.9952 -0.0000 -0.0980
vn 0.9569 -0.0000 -0.2903
vn 0.8819 -0.0000 -0.4714
vn 0.7730 -0.0000 -0.6344
vn 0.6344 -0.0000 -0.7730
vn 0.4714 -0.0000 -0.8819
vn 0.2903 -0.0000 -0.9569
vn 0.0980 -0.0000 -0.9952
vn 0.0980 -0.0000 0.9952
vn 0.2903 -0.0000 0.9569
vn 0.4714 -0.0000 0.8819
vn 0.6344 -0.0000 0.7730
vn 0.7730 -0.0000 0.6344
vn 0.8819 -0.0000 0.4714
vn 0.9569 -0.0000 0.2903
vn 0.9952 -0.0000 0.0980
vn -0.0000 -1.0000 -0.0000
vt 0.060537 0.300714
vt 0.060537 0.035156
vt 0.262162 0.035156
vt 0.262162 0.300714
vt 0.059776 0.300647
vt 0.059776 0.035089
vt 0.261400 0.035089
vt 0.261400 0.300647
vt 0.261269 0.035156
vt 0.267440 0.035764
vt 0.273374 0.037564
vt 0.278843 0.040487
vt 0.283637 0.044421
vt 0.287571 0.049215
vt 0.290494 0.054684
vt 0.292294 0.060618
vt 0.292902 0.066789
vt 0.292902 0.269082
vt 0.292294 0.275253
vt 0.290494 0.281187
vt 0.287571 0.286656
vt 0.283637 0.291449
vt 0.278843 0.295383
vt 0.273374 0.298306
vt 0.267440 0.300107
vt 0.261269 0.300714
vt 0.058976 0.300714
vt 0.052805 0.300107
vt 0.046871 0.298306
vt 0.041402 0.295383
vt 0.036609 0.291449
vt 0.032675 0.286656
vt 0.029752 0.281187
vt 0.027952 0.275253
vt 0.027344 0.269082
vt 0.027344 0.066789
vt 0.027952 0.060618
vt 0.029752 0.054684
vt 0.032675 0.049215
vt 0.036609 0.044421
vt 0.041402 0.040487
vt 0.046871 0.037564
vt 0.052805 0.035764
vt 0.058976 0.035156
vt 0.058732 0.300581
vt 0.058732 0.035022
vt 0.255022 0.035022
vt 0.255022 0.300581
vt 0.062362 0.304487
vt 0.062362 0.038929
vt 0.258652 0.038929
vt 0.258652 0.304487
vt 0.268362 0.035156
vt 0.268362 0.300714
vt 0.274423 0.035156
vt 0.274423 0.300714
vt 0.280111 0.035156
vt 0.280111 0.300714
vt 0.285208 0.035156
vt 0.285208 0.300714
vt 0.289518 0.035156
vt 0.289518 0.300714
vt 0.042969 0.300581
vt 0.042969 0.035022
vt 0.047569 0.035022
vt 0.047569 0.300581
vt 0.052891 0.035022
vt 0.052891 0.300581
vt 0.056521 0.304487
vt 0.056521 0.038929
vt 0.051198 0.304487
vt 0.051198 0.038929
vt 0.046599 0.304487
vt 0.046599 0.038929
vt 0.283943 0.035022
vt 0.283943 0.300581
vt 0.278966 0.300581
vt 0.278966 0.035022
vt 0.273364 0.300581
vt 0.273364 0.035022
vt 0.267350 0.300581
vt 0.267350 0.035022
vt 0.261157 0.300581
vt 0.261157 0.035022
vt 0.053674 0.300647
vt 0.053674 0.035089
vt 0.047906 0.300647
vt 0.047906 0.035089
vt 0.042692 0.300647
vt 0.042692 0.035089
vt 0.287573 0.038929
vt 0.287573 0.304487
vt 0.282596 0.304487
vt 0.282596 0.038929
vt 0.276994 0.304487
vt 0.276994 0.038929
vt 0.270980 0.304487
vt 0.270980 0.038929
vt 0.264787 0.304487
vt 0.264787 0.038929
vt 0.054436 0.300714
vt 0.054436 0.035156
vt 0.048667 0.300714
vt 0.048667 0.035156
vt 0.043454 0.300714
vt 0.043454 0.035156
vt 0.038996 0.300714
vt 0.038996 0.035156
vt 0.284447 0.035089
vt 0.284447 0.300647
vt 0.279349 0.300647
vt 0.279349 0.035089
vt 0.273661 0.300647
vt 0.273661 0.035089
vt 0.267601 0.300647
vt 0.267601 0.035089
vt 0.031858 0.060551
vt 0.033658 0.054617
vt 0.036581 0.049148
vt 0.040515 0.044354
vt 0.045309 0.040420
vt 0.050777 0.037497
vt 0.056711 0.035697
vt 0.062883 0.035089
vt 0.265175 0.035089
vt 0.271347 0.035697
vt 0.277281 0.037497
vt 0.282750 0.040420
vt 0.287543 0.044354
vt 0.291477 0.049148
vt 0.294400 0.054617
vt 0.296200 0.060551
vt 0.296808 0.066722
vt 0.296808 0.269015
vt 0.296200 0.275186
vt 0.294400 0.281120
vt 0.291477 0.286589
vt 0.287543 0.291382
vt 0.282750 0.295316
vt 0.277281 0.298240
vt 0.271347 0.300040
vt 0.265175 0.300647
vt 0.062883 0.300647
vt 0.056711 0.300040
vt 0.050777 0.298240
vt 0.045309 0.295316
vt 0.040515 0.291382
vt 0.036581 0.286589
vt 0.033658 0.281120
vt 0.031858 0.275186
vt 0.031250 0.269015
vt 0.031250 0.066722
s 0
f 134/145/65 142/146/65 107/147/65 97/148/65
f 152/149/66 160/150/66 143/151/66 133/152/66
f 160/153/67 162/154/67 163/155/67 164/156/67 165/157/67 166/158/67 167/159/67 168/160/67 161/161/67 124/162/67 126/163/67 127/164/67 128/165/67 129/166/67 130/167/67 131/168/67 132/169/67 125/170/67 106/171/67 108/172/67 109/173/67 110/174/67 111/175/67 112/176/67 113/177/67 114/178/67 107/179/67 142/180/67 144/181/67 145/182/67 146/183/67 147/184/67 148/185/67 149/186/67 150/187/67 143/188/67
f 98/189/68 106/190/68 125/191/68 115/192/68
f 116/193/69 124/194/69 161/195/69 151/196/69
f 97/148/70 107/147/70 114/197/70 99/198/70
f 99/198/71 114/197/71 113/199/71 100/200/71
f 100/200/72 113/199/72 112/201/72 101/202/72
f 101/202/73 112/201/73 111/203/73 102/204/73
f 102/204/74 111/203/74 110/205/74 103/206/74
f 103/207/75 110/208/75 109/209/75 104/210/75
f 104/210/76 109/209/76 108/211/76 105/212/76
f 105/212/77 108/211/77 106/190/77 98/189/77
f 124/194/78 116/193/78 123/213/78 126/214/78
f 126/214/79 123/213/79 122/215/79 127/216/79
f 127/216/80 122/215/80 121/217/80 128/218/80
f 128/219/81 121/220/81 120/221/81 129/222/81
f 129/222/82 120/221/82 119/223/82 130/224/82
f 130/224/83 119/223/83 118/225/83 131/226/83
f 131/226/84 118/225/84 117/227/84 132/228/84
f 132/228/85 117/227/85 115/192/85 125/191/85
f 160/150/86 152/149/86 159/229/86 162/230/86
f 162/230/87 159/229/87 158/231/87 163/232/87
f 163/232/88 158/231/88 157/233/88 164/234/88
f 164/235/89 157/236/89 156/237/89 165/238/89
f 165/238/90 156/237/90 155/239/90 166/240/90
f 166/240/91 155/239/91 154/241/91 167/242/91
f 167/242/92 154/241/92 153/243/92 168/244/92
f 168/244/93 153/243/93 151/196/93 161/195/93
f 142/146/94 134/145/94 141/245/94 144/246/94
f 144/246/95 141/245/95 140/247/95 145/248/95
f 145/248/96 140/247/96 139/249/96 146/250/96
f 146/250/97 139/249/97 138/251/97 147/252/97
f 147/253/98 138/254/98 137/255/98 148/256/98
f 148/256/99 137/255/99 136/257/99 149/258/99
f 149/258/100 136/257/100 135/259/100 150/260/100
f 150/260/101 135/259/101 133/152/101 143/151/101
f 99/261/102 100/262/102 101/263/102 102/264/102 103/265/102 104/266/102 105/267/102 98/268/102 115/269/102 117/270/102 118/271/102 119/272/102 120/273/102 121/274/102 122/275/102 123/276/102 116/277/102 151/278/102 153/279/102 154/280/102 155/281/102 156/282/102 157/283/102 158/284/102 159/285/102 152/286/102 133/287/102 135/288/102 136/289/102 137/290/102 138/291/102 139/292/102 140/293/102 141/294/102 134/295/102 97/296/102
