# Blender 4.3.2
# www.blender.org
mtllib mystreets_lightpost_allless1.mtl
o Cylinder
v 0.003300 -0.002232 0.101428
v 0.498200 -0.002232 0.101428
v 0.003300 0.017277 0.099506
v 0.498200 0.017277 0.099507
v 0.003300 0.036036 0.093816
v 0.498200 0.036036 0.093816
v 0.003300 0.053325 0.084575
v 0.498200 0.053325 0.084575
v 0.003300 0.068478 0.072139
v 0.498200 0.068478 0.072139
v 0.003300 0.080915 0.056985
v 0.498200 0.080915 0.056985
v 0.003300 0.090156 0.039696
v 0.498200 0.090156 0.039696
v 0.003300 0.095846 0.020937
v 0.498200 0.095846 0.020937
v 0.003300 0.097768 0.001428
v 0.498200 0.097768 0.001428
v 0.003300 0.095846 -0.018081
v 0.498200 0.095846 -0.018081
v 0.003300 0.090156 -0.036840
v 0.498200 0.090156 -0.036840
v 0.003300 0.080915 -0.054129
v 0.498200 0.080915 -0.054129
v 0.003300 0.068478 -0.069283
v 0.498200 0.068478 -0.069283
v 0.003300 0.053325 -0.081719
v 0.498200 0.053325 -0.081719
v 0.003300 0.036036 -0.090960
v 0.498200 0.036036 -0.090960
v 0.003300 0.017277 -0.096651
v 0.498200 0.017277 -0.096651
v 0.003300 -0.002232 -0.098572
v 0.498200 -0.002232 -0.098572
v 0.003300 -0.021741 -0.096651
v 0.498200 -0.021741 -0.096651
v 0.003300 -0.040501 -0.090960
v 0.498200 -0.040501 -0.090960
v 0.003300 -0.057789 -0.081719
v 0.498200 -0.057789 -0.081719
v 0.003300 -0.072943 -0.069283
v 0.498200 -0.072943 -0.069283
v 0.003300 -0.085379 -0.054129
v 0.498200 -0.085379 -0.054129
v 0.003300 -0.094620 -0.036840
v 0.498200 -0.094620 -0.036840
v 0.003300 -0.100311 -0.018081
v 0.498200 -0.100311 -0.018081
v 0.003300 -0.102232 0.001428
v 0.498200 -0.102232 0.001428
v 0.003300 -0.100311 0.020937
v 0.498200 -0.100311 0.020937
v 0.003300 -0.094620 0.039696
v 0.498200 -0.094620 0.039696
v 0.003300 -0.085379 0.056985
v 0.498200 -0.085379 0.056985
v 0.003300 -0.072943 0.072139
v 0.498200 -0.072943 0.072139
v 0.003300 -0.057789 0.084575
v 0.498200 -0.057789 0.084575
v 0.003300 -0.040501 0.093816
v 0.498200 -0.040501 0.093816
v 0.003300 -0.021741 0.099506
v 0.498200 -0.021741 0.099507
vn -0.0000 0.0980 0.9952
vn -0.0000 0.2903 0.9569
vn -0.0000 0.4714 0.8819
vn -0.0000 0.6344 0.7730
vn -0.0000 0.7730 0.6344
vn -0.0000 0.8819 0.4714
vn -0.0000 0.9569 0.2903
vn -0.0000 0.9952 0.0980
vn -0.0000 0.9952 -0.0980
vn -0.0000 0.9569 -0.2903
vn -0.0000 0.8819 -0.4714
vn -0.0000 0.7730 -0.6344
vn -0.0000 0.6344 -0.7730
vn -0.0000 0.4714 -0.8819
vn -0.0000 0.2903 -0.9569
vn -0.0000 0.0980 -0.9952
vn -0.0000 -0.0980 -0.9952
vn -0.0000 -0.2903 -0.9569
vn -0.0000 -0.4714 -0.8819
vn -0.0000 -0.6344 -0.7730
vn -0.0000 -0.7730 -0.6344
vn -0.0000 -0.8819 -0.4714
vn -0.0000 -0.9569 -0.2903
vn -0.0000 -0.9952 -0.0980
vn -0.0000 -0.9952 0.0980
vn -0.0000 -0.9569 0.2903
vn -0.0000 -0.8819 0.4714
vn -0.0000 -0.7730 0.6344
vn -0.0000 -0.6344 0.7730
vn -0.0000 -0.4714 0.8819
vn 1.0000 -0.0000 -0.0000
vn -0.0000 -0.2903 0.9569
vn -0.0000 -0.0980 0.9952
vn -1.0000 -0.0000 -0.0000
vt 0.414214 0.415212
vt 0.414214 -0.000000
vt 0.443061 0.000000
vt 0.443061 0.415212
vt 0.476982 0.000000
vt 0.476982 0.415212
vt 0.514673 0.000000
vt 0.514673 0.415212
vt 0.554686 0.000000
vt 0.554686 0.415212
vt 0.595482 0.000000
vt 0.595482 0.415212
vt 0.635495 0.000000
vt 0.635495 0.415212
vt 0.673186 0.000000
vt 0.673186 0.415212
vt 0.707107 0.000000
vt 0.707107 0.415212
vt 0.735954 0.000000
vt 0.735954 0.415212
vt 0.735954 0.415212
vt 0.735954 0.000000
vt 0.769875 0.000000
vt 0.769875 0.415212
vt 0.807566 0.000000
vt 0.807566 0.415212
vt 0.847579 0.000000
vt 0.847579 0.415212
vt 0.888375 0.000000
vt 0.888375 0.415212
vt 0.928388 0.000000
vt 0.928388 0.415212
vt 0.966079 0.000000
vt 0.966079 0.415212
vt 1.000000 0.000000
vt 1.000000 0.415212
vt 0.707107 0.830424
vt 0.707107 0.415212
vt 0.735954 0.415212
vt 0.735954 0.830424
vt 0.769875 0.415212
vt 0.769875 0.830424
vt 0.807566 0.415212
vt 0.807566 0.830424
vt 0.847579 0.415212
vt 0.847579 0.830424
vt 0.888375 0.415212
vt 0.888375 0.830424
vt 0.928388 0.415212
vt 0.928388 0.830424
vt 0.966079 0.415212
vt 0.966079 0.830424
vt 1.000000 0.415212
vt 1.000000 0.830424
vt 0.414214 0.830424
vt 0.414214 0.415212
vt 0.443061 0.415212
vt 0.443061 0.830424
vt 0.476982 0.415212
vt 0.476982 0.830424
vt 0.514673 0.415212
vt 0.514673 0.830424
vt 0.554686 0.415212
vt 0.554686 0.830424
vt 0.595482 0.415212
vt 0.595482 0.830424
vt 0.635495 0.415212
vt 0.635495 0.830424
vt 0.367977 0.753343
vt 0.339130 0.782191
vt 0.305209 0.804856
vt 0.267518 0.820468
vt 0.227505 0.828427
vt 0.186709 0.828427
vt 0.146696 0.820468
vt 0.109005 0.804856
vt 0.075084 0.782191
vt 0.046236 0.753343
vt 0.023571 0.719422
vt 0.007959 0.681731
vt 0.000000 0.641719
vt -0.000000 0.600922
vt 0.007959 0.560909
vt 0.023571 0.523218
vt 0.046236 0.489297
vt 0.075084 0.460450
vt 0.109005 0.437785
vt 0.146696 0.422172
vt 0.186708 0.414214
vt 0.227505 0.414213
vt 0.267518 0.422172
vt 0.305209 0.437785
vt 0.339130 0.460450
vt 0.367977 0.489297
vt 0.390642 0.523218
vt 0.406254 0.560909
vt 0.414213 0.600922
vt 0.414213 0.641718
vt 0.406255 0.681731
vt 0.390642 0.719422
vt 0.673186 0.415212
vt 0.673186 0.830424
vt 0.707107 0.415212
vt 0.046236 0.339130
vt 0.023571 0.305209
vt 0.007959 0.267518
vt 0.000000 0.227505
vt 0.000000 0.186709
vt 0.007959 0.146696
vt 0.023571 0.109005
vt 0.046236 0.075084
vt 0.075084 0.046236
vt 0.109005 0.023571
vt 0.146696 0.007959
vt 0.186709 0.000000
vt 0.227505 0.000000
vt 0.267518 0.007959
vt 0.305209 0.023571
vt 0.339130 0.046236
vt 0.367977 0.075084
vt 0.390642 0.109005
vt 0.406255 0.146696
vt 0.414214 0.186709
vt 0.414214 0.227505
vt 0.406255 0.267518
vt 0.390642 0.305209
vt 0.367977 0.339130
vt 0.339130 0.367977
vt 0.305209 0.390642
vt 0.267518 0.406255
vt 0.227505 0.414214
vt 0.186709 0.414214
vt 0.146696 0.406255
vt 0.109005 0.390642
vt 0.075084 0.367977
s 0
f 1/1/1 2/2/1 4/3/1 3/4/1
f 3/4/2 4/3/2 6/5/2 5/6/2
f 5/6/3 6/5/3 8/7/3 7/8/3
f 7/8/4 8/7/4 10/9/4 9/10/4
f 9/10/5 10/9/5 12/11/5 11/12/5
f 11/12/6 12/11/6 14/13/6 13/14/6
f 13/14/7 14/13/7 16/15/7 15/16/7
f 15/16/8 16/15/8 18/17/8 17/18/8
f 17/18/9 18/17/9 20/19/9 19/20/9
f 19/21/10 20/22/10 22/23/10 21/24/10
f 21/24/11 22/23/11 24/25/11 23/26/11
f 23/26/12 24/25/12 26/27/12 25/28/12
f 25/28/13 26/27/13 28/29/13 27/30/13
f 27/30/14 28/29/14 30/31/14 29/32/14
f 29/32/15 30/31/15 32/33/15 31/34/15
f 31/34/16 32/33/16 34/35/16 33/36/16
f 33/37/17 34/38/17 36/39/17 35/40/17
f 35/40/18 36/39/18 38/41/18 37/42/18
f 37/42/19 38/41/19 40/43/19 39/44/19
f 39/44/20 40/43/20 42/45/20 41/46/20
f 41/46/21 42/45/21 44/47/21 43/48/21
f 43/48/22 44/47/22 46/49/22 45/50/22
f 45/50/23 46/49/23 48/51/23 47/52/23
f 47/52/24 48/51/24 50/53/24 49/54/24
f 49/55/25 50/56/25 52/57/25 51/58/25
f 51/58/26 52/57/26 54/59/26 53/60/26
f 53/60/27 54/59/27 56/61/27 55/62/27
f 55/62/28 56/61/28 58/63/28 57/64/28
f 57/64/29 58/63/29 60/65/29 59/66/29
f 59/66/30 60/65/30 62/67/30 61/68/30
f 4/69/31 2/70/31 64/71/31 62/72/31 60/73/31 58/74/31 56/75/31 54/76/31 52/77/31 50/78/31 48/79/31 46/80/31 44/81/31 42/82/31 40/83/31 38/84/31 36/85/31 34/86/31 32/87/31 30/88/31 28/89/31 26/90/31 24/91/31 22/92/31 20/93/31 18/94/31 16/95/31 14/96/31 12/97/31 10/98/31 8/99/31 6/100/31
f 61/68/32 62/67/32 64/101/32 63/102/32
f 63/102/33 64/101/33 2/103/33 1/37/33
f 1/104/34 3/105/34 5/106/34 7/107/34 9/108/34 11/109/34 13/110/34 15/111/34 17/112/34 19/113/34 21/114/34 23/115/34 25/116/34 27/117/34 29/118/34 31/119/34 33/120/34 35/121/34 37/122/34 39/123/34 41/124/34 43/125/34 45/126/34 47/127/34 49/128/34 51/129/34 53/130/34 55/131/34 57/132/34 59/133/34 61/134/34 63/135/34
o Cylinder.001
v -0.094549 -0.002232 -0.498572
v -0.094550 -0.002232 0.494178
v -0.092628 0.017277 -0.498572
v -0.092628 0.017277 0.494178
v -0.086937 0.036036 -0.498572
v -0.086937 0.036036 0.494178
v -0.077696 0.053325 -0.498572
v -0.077696 0.053325 0.494178
v -0.065260 0.068478 -0.498572
v -0.065260 0.068478 0.494178
v -0.050106 0.080915 -0.498572
v -0.050107 0.080915 0.494178
v -0.032818 0.090156 -0.498572
v -0.032818 0.090156 0.494178
v -0.014058 0.095846 -0.498572
v -0.014059 0.095846 0.494178
v 0.005451 0.097768 -0.498572
v 0.005450 0.097768 0.494178
v 0.024960 0.095846 -0.498572
v 0.024960 0.095846 0.494178
v 0.043719 0.090156 -0.498572
v 0.043719 0.090156 0.494178
v 0.061008 0.080915 -0.498572
v 0.061008 0.080915 0.494178
v 0.076161 0.068478 -0.498572
v 0.076161 0.068478 0.494178
v 0.088598 0.053325 -0.498572
v 0.088597 0.053325 0.494178
v 0.097838 0.036036 -0.498572
v 0.097838 0.036036 0.494178
v 0.103529 0.017277 -0.498572
v 0.103529 0.017277 0.494178
v 0.105451 -0.002232 -0.498572
v 0.105450 -0.002232 0.494178
v 0.103529 -0.021741 -0.498572
v 0.103529 -0.021741 0.494178
v 0.097838 -0.040501 -0.498572
v 0.097838 -0.040501 0.494178
v 0.088597 -0.057789 -0.498572
v 0.088597 -0.057789 0.494178
v 0.076161 -0.072943 -0.498572
v 0.076161 -0.072943 0.494178
v 0.061008 -0.085379 -0.498572
v 0.061007 -0.085379 0.494178
v 0.043719 -0.094620 -0.498572
v 0.043719 -0.094620 0.494178
v 0.024960 -0.100311 -0.498572
v 0.024959 -0.100311 0.494178
v 0.005451 -0.102232 -0.498572
v 0.005450 -0.102232 0.494178
v -0.014059 -0.100311 -0.498572
v -0.014059 -0.100311 0.494178
v -0.032818 -0.094620 -0.498572
v -0.032818 -0.094620 0.494178
v -0.050106 -0.085379 -0.498572
v -0.050107 -0.085379 0.494178
v -0.065260 -0.072943 -0.498572
v -0.065260 -0.072943 0.494178
v -0.077696 -0.057789 -0.498572
v -0.077697 -0.057789 0.494178
v -0.086937 -0.040501 -0.498572
v -0.086937 -0.040501 0.494178
v -0.092628 -0.021741 -0.498572
v -0.092628 -0.021741 0.494178
vn -0.9952 0.0980 -0.0000
vn -0.9569 0.2903 -0.0000
vn -0.8819 0.4714 -0.0000
vn -0.7730 0.6344 -0.0000
vn -0.6344 0.7730 -0.0000
vn -0.4714 0.8819 -0.0000
vn -0.2903 0.9569 -0.0000
vn -0.0980 0.9952 -0.0000
vn 0.0980 0.9952 -0.0000
vn 0.2903 0.9569 -0.0000
vn 0.4714 0.8819 -0.0000
vn 0.6344 0.7730 -0.0000
vn 0.7730 0.6344 -0.0000
vn 0.8819 0.4714 -0.0000
vn 0.9569 0.2903 -0.0000
vn 0.9952 0.0980 -0.0000
vn 0.9952 -0.0980 -0.0000
vn 0.9569 -0.2903 -0.0000
vn 0.8819 -0.4714 -0.0000
vn 0.7730 -0.6344 -0.0000
vn 0.6344 -0.7730 -0.0000
vn 0.4714 -0.8819 -0.0000
vn 0.2903 -0.9569 -0.0000
vn 0.0980 -0.9952 -0.0000
vn -0.0980 -0.9952 -0.0000
vn -0.2903 -0.9569 -0.0000
vn -0.4714 -0.8819 -0.0000
vn -0.6344 -0.7730 -0.0000
vn -0.7730 -0.6344 -0.0000
vn -0.8819 -0.4714 -0.0000
vn -0.0000 -0.0000 1.0000
vn -0.9569 -0.2903 -0.0000
vn -0.9952 -0.0980 -0.0000
vn -0.0000 -0.0000 -1.0000
vt 0.414214 0.415212
vt 0.414214 -0.000000
vt 0.443061 0.000000
vt 0.443061 0.415212
vt 0.476982 0.000000
vt 0.476982 0.415212
vt 0.514673 0.000000
vt 0.514673 0.415212
vt 0.554686 0.000000
vt 0.554686 0.415212
vt 0.595482 0.000000
vt 0.595482 0.415212
vt 0.635495 0.000000
vt 0.635495 0.415212
vt 0.673186 0.000000
vt 0.673186 0.415212
vt 0.707107 0.000000
vt 0.707107 0.415212
vt 0.735954 0.000000
vt 0.735954 0.415212
vt 0.735954 0.415212
vt 0.735954 0.000000
vt 0.769875 0.000000
vt 0.769875 0.415212
vt 0.807566 0.000000
vt 0.807566 0.415212
vt 0.847579 0.000000
vt 0.847579 0.415212
vt 0.888375 0.000000
vt 0.888375 0.415212
vt 0.928388 0.000000
vt 0.928388 0.415212
vt 0.966079 0.000000
vt 0.966079 0.415212
vt 1.000000 0.000000
vt 1.000000 0.415212
vt 0.707107 0.830424
vt 0.707107 0.415212
vt 0.735954 0.415212
vt 0.735954 0.830424
vt 0.769875 0.415212
vt 0.769875 0.830424
vt 0.807566 0.415212
vt 0.807566 0.830424
vt 0.847579 0.415212
vt 0.847579 0.830424
vt 0.888375 0.415212
vt 0.888375 0.830424
vt 0.928388 0.415212
vt 0.928388 0.830424
vt 0.966079 0.415212
vt 0.966079 0.830424
vt 1.000000 0.415212
vt 1.000000 0.830424
vt 0.414214 0.830424
vt 0.414214 0.415212
vt 0.443061 0.415212
vt 0.443061 0.830424
vt 0.476982 0.415212
vt 0.476982 0.830424
vt 0.514673 0.415212
vt 0.514673 0.830424
vt 0.554686 0.415212
vt 0.554686 0.830424
vt 0.595482 0.415212
vt 0.595482 0.830424
vt 0.635495 0.415212
vt 0.635495 0.830424
vt 0.367977 0.753343
vt 0.339130 0.782191
vt 0.305209 0.804856
vt 0.267518 0.820468
vt 0.227505 0.828427
vt 0.186709 0.828427
vt 0.146696 0.820468
vt 0.109005 0.804856
vt 0.075084 0.782191
vt 0.046236 0.753343
vt 0.023571 0.719422
vt 0.007959 0.681731
vt 0.000000 0.641719
vt -0.000000 0.600922
vt 0.007959 0.560909
vt 0.023571 0.523218
vt 0.046236 0.489297
vt 0.075084 0.460450
vt 0.109005 0.437785
vt 0.146696 0.422172
vt 0.186708 0.414214
vt 0.227505 0.414213
vt 0.267518 0.422172
vt 0.305209 0.437785
vt 0.339130 0.460450
vt 0.367977 0.489297
vt 0.390642 0.523218
vt 0.406254 0.560909
vt 0.414213 0.600922
vt 0.414213 0.641718
vt 0.406255 0.681731
vt 0.390642 0.719422
vt 0.673186 0.415212
vt 0.673186 0.830424
vt 0.707107 0.415212
vt 0.046236 0.339130
vt 0.023571 0.305209
vt 0.007959 0.267518
vt 0.000000 0.227505
vt 0.000000 0.186709
vt 0.007959 0.146696
vt 0.023571 0.109005
vt 0.046236 0.075084
vt 0.075084 0.046236
vt 0.109005 0.023571
vt 0.146696 0.007959
vt 0.186709 0.000000
vt 0.227505 0.000000
vt 0.267518 0.007959
vt 0.305209 0.023571
vt 0.339130 0.046236
vt 0.367977 0.075084
vt 0.390642 0.109005
vt 0.406255 0.146696
vt 0.414214 0.186709
vt 0.414214 0.227505
vt 0.406255 0.267518
vt 0.390642 0.305209
vt 0.367977 0.339130
vt 0.339130 0.367977
vt 0.305209 0.390642
vt 0.267518 0.406255
vt 0.227505 0.414214
vt 0.186709 0.414214
vt 0.146696 0.406255
vt 0.109005 0.390642
vt 0.075084 0.367977
s 0
f 65/136/35 66/137/35 68/138/35 67/139/35
f 67/139/36 68/138/36 70/140/36 69/141/36
f 69/141/37 70/140/37 72/142/37 71/143/37
f 71/143/38 72/142/38 74/144/38 73/145/38
f 73/145/39 74/144/39 76/146/39 75/147/39
f 75/147/40 76/146/40 78/148/40 77/149/40
f 77/149/41 78/148/41 80/150/41 79/151/41
f 79/151/42 80/150/42 82/152/42 81/153/42
f 81/153/43 82/152/43 84/154/43 83/155/43
f 83/156/44 84/157/44 86/158/44 85/159/44
f 85/159/45 86/158/45 88/160/45 87/161/45
f 87/161/46 88/160/46 90/162/46 89/163/46
f 89/163/47 90/162/47 92/164/47 91/165/47
f 91/165/48 92/164/48 94/166/48 93/167/48
f 93/167/49 94/166/49 96/168/49 95/169/49
f 95/169/50 96/168/50 98/170/50 97/171/50
f 97/172/51 98/173/51 100/174/51 99/175/51
f 99/175/52 100/174/52 102/176/52 101/177/52
f 101/177/53 102/176/53 104/178/53 103/179/53
f 103/179/54 104/178/54 106/180/54 105/181/54
f 105/181/55 106/180/55 108/182/55 107/183/55
f 107/183/56 108/182/56 110/184/56 109/185/56
f 109/185/57 110/184/57 112/186/57 111/187/57
f 111/187/58 112/186/58 114/188/58 113/189/58
f 113/190/59 114/191/59 116/192/59 115/193/59
f 115/193/60 116/192/60 118/194/60 117/195/60
f 117/195/61 118/194/61 120/196/61 119/197/61
f 119/197/62 120/196/62 122/198/62 121/199/62
f 121/199/63 122/198/63 124/200/63 123/201/63
f 123/201/64 124/200/64 126/202/64 125/203/64
f 68/204/65 66/205/65 128/206/65 126/207/65 124/208/65 122/209/65 120/210/65 118/211/65 116/212/65 114/213/65 112/214/65 110/215/65 108/216/65 106/217/65 104/218/65 102/219/65 100/220/65 98/221/65 96/222/65 94/223/65 92/224/65 90/225/65 88/226/65 86/227/65 84/228/65 82/229/65 80/230/65 78/231/65 76/232/65 74/233/65 72/234/65 70/235/65
f 125/203/66 126/202/66 128/236/66 127/237/66
f 127/237/67 128/236/67 66/238/67 65/172/67
f 65/239/68 67/240/68 69/241/68 71/242/68 73/243/68 75/244/68 77/245/68 79/246/68 81/247/68 83/248/68 85/249/68 87/250/68 89/251/68 91/252/68 93/253/68 95/254/68 97/255/68 99/256/68 101/257/68 103/258/68 105/259/68 107/260/68 109/261/68 111/262/68 113/263/68 115/264/68 117/265/68 119/266/68 121/267/68 123/268/68 125/269/68 127/270/68
o Cylinder.002
v -0.094549 -0.502232 0.001428
v -0.094550 0.490517 0.001428
v -0.092628 -0.502232 -0.018081
v -0.092628 0.490517 -0.018081
v -0.086937 -0.502232 -0.036840
v -0.086937 0.490517 -0.036840
v -0.077696 -0.502232 -0.054129
v -0.077696 0.490517 -0.054129
v -0.065260 -0.502232 -0.069283
v -0.065260 0.490517 -0.069283
v -0.050106 -0.502232 -0.081719
v -0.050107 0.490517 -0.081719
v -0.032818 -0.502232 -0.090960
v -0.032818 0.490517 -0.090960
v -0.014058 -0.502232 -0.096650
v -0.014059 0.490517 -0.096650
v 0.005451 -0.502232 -0.098572
v 0.005450 0.490517 -0.098572
v 0.024960 -0.502232 -0.096650
v 0.024959 0.490517 -0.096650
v 0.043719 -0.502232 -0.090960
v 0.043719 0.490517 -0.090960
v 0.061008 -0.502232 -0.081719
v 0.061007 0.490517 -0.081719
v 0.076161 -0.502232 -0.069283
v 0.076161 0.490517 -0.069283
v 0.088598 -0.502232 -0.054129
v 0.088597 0.490517 -0.054129
v 0.097839 -0.502232 -0.036840
v 0.097838 0.490517 -0.036840
v 0.103529 -0.502232 -0.018081
v 0.103529 0.490517 -0.018081
v 0.105451 -0.502232 0.001428
v 0.105450 0.490517 0.001428
v 0.103529 -0.502232 0.020937
v 0.103529 0.490517 0.020937
v 0.097839 -0.502232 0.039696
v 0.097838 0.490517 0.039696
v 0.088598 -0.502232 0.056985
v 0.088597 0.490517 0.056985
v 0.076161 -0.502232 0.072139
v 0.076161 0.490517 0.072139
v 0.061008 -0.502232 0.084575
v 0.061007 0.490517 0.084575
v 0.043719 -0.502232 0.093816
v 0.043719 0.490517 0.093816
v 0.024960 -0.502232 0.099507
v 0.024960 0.490517 0.099507
v 0.005451 -0.502232 0.101428
v 0.005450 0.490517 0.101428
v -0.014058 -0.502232 0.099507
v -0.014059 0.490517 0.099507
v -0.032818 -0.502232 0.093816
v -0.032818 0.490517 0.093816
v -0.050106 -0.502232 0.084575
v -0.050107 0.490517 0.084575
v -0.065260 -0.502232 0.072139
v -0.065260 0.490517 0.072139
v -0.077696 -0.502232 0.056985
v -0.077696 0.490517 0.056985
v -0.086937 -0.502232 0.039696
v -0.086937 0.490517 0.039696
v -0.092628 -0.502232 0.020937
v -0.092628 0.490517 0.020937
vn -0.9952 -0.0000 -0.0980
vn -0.9569 -0.0000 -0.2903
vn -0.8819 -0.0000 -0.4714
vn -0.7730 -0.0000 -0.6344
vn -0.6344 -0.0000 -0.7730
vn -0.4714 -0.0000 -0.8819
vn -0.2903 -0.0000 -0.9569
vn -0.0980 -0.0000 -0.9952
vn 0.0980 -0.0000 -0.9952
vn 0.2903 -0.0000 -0.9569
vn 0.4714 -0.0000 -0.8819
vn 0.6344 -0.0000 -0.7730
vn 0.7730 -0.0000 -0.6344
vn 0.8819 -0.0000 -0.4714
vn 0.9569 -0.0000 -0.2903
vn 0.9952 -0.0000 -0.0980
vn 0.9952 -0.0000 0.0980
vn 0.9569 -0.0000 0.2903
vn 0.8819 -0.0000 0.4714
vn 0.7730 -0.0000 0.6344
vn 0.6344 -0.0000 0.7730
vn 0.4714 -0.0000 0.8819
vn 0.2903 -0.0000 0.9569
vn 0.0980 -0.0000 0.9952
vn -0.0980 -0.0000 0.9952
vn -0.2903 -0.0000 0.9569
vn -0.4714 -0.0000 0.8819
vn -0.6344 -0.0000 0.7730
vn -0.7730 -0.0000 0.6344
vn -0.8819 -0.0000 0.4714
vn -0.0000 1.0000 -0.0000
vn -0.9569 -0.0000 0.2903
vn -0.9952 -0.0000 0.0980
vn -0.0000 -1.0000 -0.0000
vt 0.414214 0.415212
vt 0.414214 -0.000000
vt 0.443061 0.000000
vt 0.443061 0.415212
vt 0.476982 0.000000
vt 0.476982 0.415212
vt 0.514673 0.000000
vt 0.514673 0.415212
vt 0.554686 0.000000
vt 0.554686 0.415212
vt 0.595482 0.000000
vt 0.595482 0.415212
vt 0.635495 0.000000
vt 0.635495 0.415212
vt 0.673186 0.000000
vt 0.673186 0.415212
vt 0.707107 0.000000
vt 0.707107 0.415212
vt 0.735954 0.000000
vt 0.735954 0.415212
vt 0.735954 0.415212
vt 0.735954 0.000000
vt 0.769875 0.000000
vt 0.769875 0.415212
vt 0.807566 0.000000
vt 0.807566 0.415212
vt 0.847579 0.000000
vt 0.847579 0.415212
vt 0.888375 0.000000
vt 0.888375 0.415212
vt 0.928388 0.000000
vt 0.928388 0.415212
vt 0.966079 0.000000
vt 0.966079 0.415212
vt 1.000000 0.000000
vt 1.000000 0.415212
vt 0.707107 0.830424
vt 0.707107 0.415212
vt 0.735954 0.415212
vt 0.735954 0.830424
vt 0.769875 0.415212
vt 0.769875 0.830424
vt 0.807566 0.415212
vt 0.807566 0.830424
vt 0.847579 0.415212
vt 0.847579 0.830424
vt 0.888375 0.415212
vt 0.888375 0.830424
vt 0.928388 0.415212
vt 0.928388 0.830424
vt 0.966079 0.415212
vt 0.966079 0.830424
vt 1.000000 0.415212
vt 1.000000 0.830424
vt 0.414214 0.830424
vt 0.414214 0.415212
vt 0.443061 0.415212
vt 0.443061 0.830424
vt 0.476982 0.415212
vt 0.476982 0.830424
vt 0.514673 0.415212
vt 0.514673 0.830424
vt 0.554686 0.415212
vt 0.554686 0.830424
vt 0.595482 0.415212
vt 0.595482 0.830424
vt 0.635495 0.415212
vt 0.635495 0.830424
vt 0.367977 0.753343
vt 0.339130 0.782191
vt 0.305209 0.804856
vt 0.267518 0.820468
vt 0.227505 0.828427
vt 0.186709 0.828427
vt 0.146696 0.820468
vt 0.109005 0.804856
vt 0.075084 0.782191
vt 0.046236 0.753343
vt 0.023571 0.719422
vt 0.007959 0.681731
vt 0.000000 0.641719
vt -0.000000 0.600922
vt 0.007959 0.560909
vt 0.023571 0.523218
vt 0.046236 0.489297
vt 0.075084 0.460450
vt 0.109005 0.437785
vt 0.146696 0.422172
vt 0.186708 0.414214
vt 0.227505 0.414213
vt 0.267518 0.422172
vt 0.305209 0.437785
vt 0.339130 0.460450
vt 0.367977 0.489297
vt 0.390642 0.523218
vt 0.406254 0.560909
vt 0.414213 0.600922
vt 0.414213 0.641718
vt 0.406255 0.681731
vt 0.390642 0.719422
vt 0.673186 0.415212
vt 0.673186 0.830424
vt 0.707107 0.415212
vt 0.046236 0.339130
vt 0.023571 0.305209
vt 0.007959 0.267518
vt 0.000000 0.227505
vt 0.000000 0.186709
vt 0.007959 0.146696
vt 0.023571 0.109005
vt 0.046236 0.075084
vt 0.075084 0.046236
vt 0.109005 0.023571
vt 0.146696 0.007959
vt 0.186709 0.000000
vt 0.227505 0.000000
vt 0.267518 0.007959
vt 0.305209 0.023571
vt 0.339130 0.046236
vt 0.367977 0.075084
vt 0.390642 0.109005
vt 0.406255 0.146696
vt 0.414214 0.186709
vt 0.414214 0.227505
vt 0.406255 0.267518
vt 0.390642 0.305209
vt 0.367977 0.339130
vt 0.339130 0.367977
vt 0.305209 0.390642
vt 0.267518 0.406255
vt 0.227505 0.414214
vt 0.186709 0.414214
vt 0.146696 0.406255
vt 0.109005 0.390642
vt 0.075084 0.367977
s 0
f 129/271/69 130/272/69 132/273/69 131/274/69
f 131/274/70 132/273/70 134/275/70 133/276/70
f 133/276/71 134/275/71 136/277/71 135/278/71
f 135/278/72 136/277/72 138/279/72 137/280/72
f 137/280/73 138/279/73 140/281/73 139/282/73
f 139/282/74 140/281/74 142/283/74 141/284/74
f 141/284/75 142/283/75 144/285/75 143/286/75
f 143/286/76 144/285/76 146/287/76 145/288/76
f 145/288/77 146/287/77 148/289/77 147/290/77
f 147/291/78 148/292/78 150/293/78 149/294/78
f 149/294/79 150/293/79 152/295/79 151/296/79
f 151/296/80 152/295/80 154/297/80 153/298/80
f 153/298/81 154/297/81 156/299/81 155/300/81
f 155/300/82 156/299/82 158/301/82 157/302/82
f 157/302/83 158/301/83 160/303/83 159/304/83
f 159/304/84 160/303/84 162/305/84 161/306/84
f 161/307/85 162/308/85 164/309/85 163/310/85
f 163/310/86 164/309/86 166/311/86 165/312/86
f 165/312/87 166/311/87 168/313/87 167/314/87
f 167/314/88 168/313/88 170/315/88 169/316/88
f 169/316/89 170/315/89 172/317/89 171/318/89
f 171/318/90 172/317/90 174/319/90 173/320/90
f 173/320/91 174/319/91 176/321/91 175/322/91
f 175/322/92 176/321/92 178/323/92 177/324/92
f 177/325/93 178/326/93 180/327/93 179/328/93
f 179/328/94 180/327/94 182/329/94 181/330/94
f 181/330/95 182/329/95 184/331/95 183/332/95
f 183/332/96 184/331/96 186/333/96 185/334/96
f 185/334/97 186/333/97 188/335/97 187/336/97
f 187/336/98 188/335/98 190/337/98 189/338/98
f 132/339/99 130/340/99 192/341/99 190/342/99 188/343/99 186/344/99 184/345/99 182/346/99 180/347/99 178/348/99 176/349/99 174/350/99 172/351/99 170/352/99 168/353/99 166/354/99 164/355/99 162/356/99 160/357/99 158/358/99 156/359/99 154/360/99 152/361/99 150/362/99 148/363/99 146/364/99 144/365/99 142/366/99 140/367/99 138/368/99 136/369/99 134/370/99
f 189/338/100 190/337/100 192/371/100 191/372/100
f 191/372/101 192/371/101 130/373/101 129/307/101
f 129/374/102 131/375/102 133/376/102 135/377/102 137/378/102 139/379/102 141/380/102 143/381/102 145/382/102 147/383/102 149/384/102 151/385/102 153/386/102 155/387/102 157/388/102 159/389/102 161/390/102 163/391/102 165/392/102 167/393/102 169/394/102 171/395/102 173/396/102 175/397/102 177/398/102 179/399/102 181/400/102 183/401/102 185/402/102 187/403/102 189/404/102 191/405/102
