# Blender 4.3.2
# www.blender.org
mtllib mystreets_lantern.mtl
o Cylinder
v -0.004052 -0.138611 0.091576
v -0.004052 -0.339419 0.091576
v -0.021437 -0.138611 0.089864
v -0.021437 -0.339419 0.089864
v -0.038155 -0.138611 0.084793
v -0.038155 -0.339419 0.084793
v -0.053561 -0.138611 0.076558
v -0.053561 -0.339419 0.076558
v -0.067065 -0.138611 0.065475
v -0.067065 -0.339419 0.065475
v -0.078148 -0.138611 0.051971
v -0.078148 -0.339419 0.051971
v -0.086383 -0.138611 0.036565
v -0.086383 -0.339419 0.036565
v -0.091454 -0.138611 0.019848
v -0.091454 -0.339419 0.019848
v -0.093166 -0.138611 0.002462
v -0.093166 -0.339419 0.002462
v -0.091454 -0.138611 -0.014923
v -0.091454 -0.339419 -0.014923
v -0.086383 -0.138611 -0.031640
v -0.086383 -0.339419 -0.031640
v -0.078148 -0.138611 -0.047046
v -0.078148 -0.339419 -0.047046
v -0.067065 -0.138611 -0.060550
v -0.067065 -0.339419 -0.060550
v -0.053561 -0.138611 -0.071633
v -0.053561 -0.339419 -0.071633
v -0.038155 -0.138611 -0.079868
v -0.038155 -0.339419 -0.079868
v -0.021437 -0.138611 -0.084939
v -0.021437 -0.339419 -0.084939
v -0.004052 -0.138611 -0.086651
v -0.004052 -0.339419 -0.086651
v 0.013333 -0.138611 -0.084939
v 0.013333 -0.339419 -0.084939
v 0.030050 -0.138611 -0.079868
v 0.030050 -0.339419 -0.079868
v 0.045457 -0.138611 -0.071633
v 0.045457 -0.339419 -0.071633
v 0.058961 -0.138611 -0.060550
v 0.058961 -0.339419 -0.060550
v 0.070043 -0.138611 -0.047046
v 0.070043 -0.339419 -0.047046
v 0.078278 -0.138611 -0.031640
v 0.078278 -0.339419 -0.031640
v 0.083349 -0.138611 -0.014923
v 0.083349 -0.339419 -0.014923
v 0.085061 -0.138611 0.002462
v 0.085061 -0.339419 0.002462
v 0.083349 -0.138611 0.019848
v 0.083349 -0.339419 0.019848
v 0.078278 -0.138611 0.036565
v 0.078278 -0.339419 0.036565
v 0.070043 -0.138611 0.051971
v 0.070043 -0.339419 0.051971
v 0.058961 -0.138611 0.065475
v 0.058961 -0.339419 0.065475
v 0.045457 -0.138611 0.076558
v 0.045457 -0.339419 0.076558
v 0.030050 -0.138611 0.084793
v 0.030050 -0.339419 0.084793
v 0.013333 -0.138611 0.089864
v 0.013333 -0.339419 0.089864
v -0.027654 -0.351963 0.121116
v -0.004052 -0.351963 0.123441
v -0.050349 -0.351963 0.114232
v -0.071264 -0.351963 0.103052
v -0.089597 -0.351963 0.088007
v -0.104642 -0.351963 0.069674
v -0.115822 -0.351963 0.048759
v -0.122706 -0.351963 0.026064
v -0.125031 -0.351963 0.002462
v -0.122706 -0.351963 -0.021139
v -0.115822 -0.351963 -0.043834
v -0.104642 -0.351963 -0.064750
v -0.089597 -0.351963 -0.083082
v -0.071264 -0.351963 -0.098127
v -0.050349 -0.351963 -0.109307
v -0.027654 -0.351963 -0.116191
v -0.004052 -0.351963 -0.118516
v 0.019549 -0.351963 -0.116191
v 0.042244 -0.351963 -0.109307
v 0.063160 -0.351963 -0.098127
v 0.081492 -0.351963 -0.083082
v 0.096538 -0.351963 -0.064750
v 0.107717 -0.351963 -0.043834
v 0.114601 -0.351963 -0.021139
v 0.116926 -0.351963 0.002462
v 0.114601 -0.351963 0.026064
v 0.107717 -0.351963 0.048759
v 0.096538 -0.351963 0.069674
v 0.081492 -0.351963 0.088007
v 0.063160 -0.351963 0.103052
v 0.042244 -0.351963 0.114232
v 0.019549 -0.351963 0.121116
v -0.031997 -0.414687 0.142951
v -0.004052 -0.414687 0.145704
v -0.058868 -0.414687 0.134800
v -0.083633 -0.414687 0.121563
v -0.105339 -0.414687 0.103749
v -0.123153 -0.414687 0.082043
v -0.136390 -0.414687 0.057278
v -0.144541 -0.414687 0.030407
v -0.147294 -0.414687 0.002462
v -0.144541 -0.414687 -0.025483
v -0.136390 -0.414687 -0.052354
v -0.123153 -0.414687 -0.077118
v -0.105339 -0.414687 -0.098824
v -0.083633 -0.414687 -0.116638
v -0.058868 -0.414687 -0.129875
v -0.031997 -0.414687 -0.138026
v -0.004052 -0.414687 -0.140779
v 0.023893 -0.414687 -0.138026
v 0.050764 -0.414687 -0.129875
v 0.075528 -0.414687 -0.116638
v 0.097235 -0.414687 -0.098824
v 0.115048 -0.414687 -0.077118
v 0.128285 -0.414687 -0.052354
v 0.136437 -0.414687 -0.025483
v 0.139189 -0.414687 0.002462
v 0.136437 -0.414687 0.030407
v 0.128285 -0.414687 0.057278
v 0.115048 -0.414687 0.082043
v 0.097235 -0.414687 0.103749
v 0.075528 -0.414687 0.121563
v 0.050764 -0.414687 0.134800
v 0.023893 -0.414687 0.142951
v -0.031997 -0.497481 0.142951
v -0.004052 -0.497481 0.145704
v -0.058868 -0.497481 0.134800
v -0.083633 -0.497481 0.121563
v -0.105339 -0.497481 0.103749
v -0.123153 -0.497481 0.082043
v -0.136390 -0.497481 0.057278
v -0.144541 -0.497481 0.030407
v -0.147294 -0.497481 0.002462
v -0.144541 -0.497481 -0.025483
v -0.136390 -0.497481 -0.052354
v -0.123153 -0.497481 -0.077118
v -0.105339 -0.497481 -0.098824
v -0.083633 -0.497481 -0.116638
v -0.058868 -0.497481 -0.129875
v -0.031997 -0.497481 -0.138026
v -0.004052 -0.497481 -0.140779
v 0.023893 -0.497481 -0.138026
v 0.050764 -0.497481 -0.129875
v 0.075528 -0.497481 -0.116638
v 0.097235 -0.497481 -0.098824
v 0.115048 -0.497481 -0.077118
v 0.128285 -0.497481 -0.052354
v 0.136437 -0.497481 -0.025483
v 0.139189 -0.497481 0.002462
v 0.136437 -0.497481 0.030407
v 0.128285 -0.497481 0.057278
v 0.115048 -0.497481 0.082043
v 0.097235 -0.497481 0.103749
v 0.075528 -0.497481 0.121563
v 0.050764 -0.497481 0.134800
v 0.023893 -0.497481 0.142951
v -0.004052 -0.128576 0.199487
v -0.042490 -0.128576 0.195701
v -0.079450 -0.128576 0.184489
v -0.113513 -0.128576 0.166282
v -0.143369 -0.128576 0.141780
v -0.167872 -0.128576 0.111923
v -0.186079 -0.128576 0.077860
v -0.197291 -0.128576 0.040900
v -0.201077 -0.128576 0.002462
v -0.197291 -0.128576 -0.035975
v -0.186079 -0.128576 -0.072935
v -0.167872 -0.128576 -0.106998
v -0.143369 -0.128576 -0.136855
v -0.113513 -0.128576 -0.161357
v -0.079450 -0.128576 -0.179564
v -0.042490 -0.128576 -0.190776
v -0.004052 -0.128576 -0.194562
v 0.034385 -0.128576 -0.190776
v 0.071346 -0.128576 -0.179564
v 0.105409 -0.128576 -0.161357
v 0.135265 -0.128576 -0.136855
v 0.159767 -0.128576 -0.106998
v 0.177974 -0.128576 -0.072935
v 0.189186 -0.128576 -0.035975
v 0.192972 -0.128576 0.002462
v 0.189186 -0.128576 0.040900
v 0.177974 -0.128576 0.077860
v 0.159767 -0.128576 0.111923
v 0.135265 -0.128576 0.141780
v 0.105409 -0.128576 0.166282
v 0.071346 -0.128576 0.184489
v 0.034385 -0.128576 0.195701
v -0.004052 -0.068361 0.080382
v -0.019254 -0.068361 0.078885
v -0.033871 -0.068361 0.074451
v -0.047342 -0.068361 0.067250
v -0.059150 -0.068361 0.057560
v -0.068840 -0.068361 0.045752
v -0.076041 -0.068361 0.032281
v -0.080475 -0.068361 0.017664
v -0.081972 -0.068361 0.002462
v -0.080475 -0.068361 -0.012739
v -0.076041 -0.068361 -0.027356
v -0.068840 -0.068361 -0.040828
v -0.059150 -0.068361 -0.052635
v -0.047342 -0.068361 -0.062326
v -0.033871 -0.068361 -0.069526
v -0.019254 -0.068361 -0.073960
v -0.004052 -0.068361 -0.075457
v 0.011149 -0.068361 -0.073960
v 0.025766 -0.068361 -0.069526
v 0.039238 -0.068361 -0.062326
v 0.051045 -0.068361 -0.052635
v 0.060736 -0.068361 -0.040828
v 0.067936 -0.068361 -0.027356
v 0.072370 -0.068361 -0.012739
v 0.073868 -0.068361 0.002462
v 0.072370 -0.068361 0.017664
v 0.067936 -0.068361 0.032281
v 0.060736 -0.068361 0.045752
v 0.051045 -0.068361 0.057560
v 0.039238 -0.068361 0.067250
v 0.025766 -0.068361 0.074451
v 0.011149 -0.068361 0.078885
v -0.004052 -0.048290 0.080382
v -0.019254 -0.048290 0.078885
v -0.033871 -0.048290 0.074451
v -0.047342 -0.048290 0.067250
v -0.059150 -0.048290 0.057560
v -0.068840 -0.048290 0.045752
v -0.076041 -0.048290 0.032281
v -0.080475 -0.048290 0.017664
v -0.081972 -0.048290 0.002462
v -0.080475 -0.048290 -0.012739
v -0.076041 -0.048290 -0.027356
v -0.068840 -0.048290 -0.040828
v -0.059150 -0.048290 -0.052635
v -0.047342 -0.048290 -0.062326
v -0.033871 -0.048290 -0.069526
v -0.019254 -0.048290 -0.073960
v -0.004052 -0.048290 -0.075457
v 0.011149 -0.048290 -0.073960
v 0.025766 -0.048290 -0.069526
v 0.039238 -0.048290 -0.062326
v 0.051045 -0.048290 -0.052635
v 0.060736 -0.048290 -0.040828
v 0.067936 -0.048290 -0.027356
v 0.072370 -0.048290 -0.012739
v 0.073868 -0.048290 0.002462
v 0.072370 -0.048290 0.017664
v 0.067936 -0.048290 0.032281
v 0.060736 -0.048290 0.045752
v 0.051045 -0.048290 0.057560
v 0.039238 -0.048290 0.067250
v 0.025766 -0.048290 0.074451
v 0.011149 -0.048290 0.078885
v -0.004052 -0.025710 0.022164
v -0.007896 -0.025710 0.021785
v -0.011592 -0.025710 0.020664
v -0.014998 -0.025710 0.018844
v -0.017983 -0.025710 0.016394
v -0.020434 -0.025710 0.013408
v -0.022254 -0.025710 0.010002
v -0.023375 -0.025710 0.006306
v -0.023754 -0.025710 0.002462
v -0.023375 -0.025710 -0.001381
v -0.022254 -0.025710 -0.005077
v -0.020434 -0.025710 -0.008483
v -0.017983 -0.025710 -0.011469
v -0.014998 -0.025710 -0.013919
v -0.011592 -0.025710 -0.015739
v -0.007896 -0.025710 -0.016861
v -0.004052 -0.025710 -0.017239
v -0.000209 -0.025710 -0.016861
v 0.003487 -0.025710 -0.015739
v 0.006893 -0.025710 -0.013919
v 0.009879 -0.025710 -0.011469
v 0.012329 -0.025710 -0.008483
v 0.014150 -0.025710 -0.005077
v 0.015271 -0.025710 -0.001381
v 0.015649 -0.025710 0.002462
v 0.015271 -0.025710 0.006306
v 0.014150 -0.025710 0.010002
v 0.012329 -0.025710 0.013408
v 0.009879 -0.025710 0.016394
v 0.006893 -0.025710 0.018844
v 0.003487 -0.025710 0.020664
v -0.000209 -0.025710 0.021785
vn -0.0980 -0.0000 0.9952
vn -0.2903 -0.0000 0.9569
vn -0.4714 -0.0000 0.8819
vn -0.6344 -0.0000 0.7730
vn -0.7730 -0.0000 0.6344
vn -0.8819 -0.0000 0.4714
vn -0.9569 -0.0000 0.2903
vn -0.9952 -0.0000 0.0980
vn -0.9952 -0.0000 -0.0980
vn -0.9569 -0.0000 -0.2903
vn -0.8819 -0.0000 -0.4714
vn -0.7730 -0.0000 -0.6344
vn -0.6344 -0.0000 -0.7730
vn -0.4714 -0.0000 -0.8819
vn -0.2903 -0.0000 -0.9569
vn -0.0980 -0.0000 -0.9952
vn 0.0980 -0.0000 -0.9952
vn 0.2903 -0.0000 -0.9569
vn 0.4714 -0.0000 -0.8819
vn 0.6344 -0.0000 -0.7730
vn 0.7730 -0.0000 -0.6344
vn 0.8819 -0.0000 -0.4714
vn 0.9569 -0.0000 -0.2903
vn 0.9952 -0.0000 -0.0980
vn 0.9952 -0.0000 0.0980
vn 0.9569 -0.0000 0.2903
vn 0.8819 -0.0000 0.4714
vn 0.7730 -0.0000 0.6344
vn 0.6344 -0.0000 0.7730
vn 0.4714 -0.0000 0.8819
vn -0.2844 0.9299 0.2334
vn 0.2903 -0.0000 0.9569
vn 0.0980 -0.0000 0.9952
vn -0.0590 -0.9957 0.0719
vn -0.5982 0.3331 -0.7289
vn -0.1734 0.9299 -0.3244
vn 0.3520 0.9299 -0.1068
vn -0.0361 0.9299 0.3661
vn 0.0361 0.9299 0.3661
vn -0.3520 0.9299 -0.1068
vn 0.1734 0.9299 -0.3244
vn 0.2844 0.9299 0.2334
vn -0.3244 0.9299 0.1734
vn -0.1068 0.9299 -0.3520
vn 0.3661 0.9299 -0.0361
vn -0.1068 0.9299 0.3520
vn -0.3244 0.9299 -0.1734
vn 0.2334 0.9299 -0.2844
vn 0.2334 0.9299 0.2844
vn -0.3520 0.9299 0.1068
vn -0.0361 0.9299 -0.3661
vn 0.3661 0.9299 0.0361
vn -0.1734 0.9299 0.3244
vn -0.2844 0.9299 -0.2334
vn 0.2844 0.9299 -0.2334
vn 0.1734 0.9299 0.3244
vn -0.3661 0.9299 0.0361
vn 0.0361 0.9299 -0.3661
vn 0.3520 0.9299 0.1068
vn -0.2334 0.9299 0.2844
vn -0.2334 0.9299 -0.2844
vn 0.3244 0.9299 -0.1734
vn 0.1068 0.9299 0.3520
vn -0.3661 0.9299 -0.0361
vn 0.1068 0.9299 -0.3520
vn 0.3244 0.9299 0.1734
vn 0.8316 0.3331 0.4445
vn -0.4445 0.3331 -0.8316
vn -0.0924 0.3331 0.9384
vn 0.7289 0.3331 0.5982
vn -0.2737 0.3331 -0.9023
vn -0.2737 0.3331 0.9023
vn 0.5982 0.3331 0.7289
vn -0.0924 0.3331 -0.9384
vn -0.4445 0.3331 0.8316
vn 0.4445 0.3331 0.8316
vn 0.0924 0.3331 -0.9384
vn -0.5982 0.3331 0.7289
vn 0.2737 0.3331 0.9023
vn 0.2737 0.3331 -0.9023
vn -0.7289 0.3331 0.5982
vn 0.0924 0.3331 0.9384
vn 0.4445 0.3331 -0.8316
vn -0.8316 0.3331 0.4445
vn 0.5982 0.3331 -0.7289
vn -0.9023 0.3331 0.2737
vn 0.7289 0.3331 -0.5982
vn -0.9384 0.3331 0.0924
vn 0.8316 0.3331 -0.4445
vn -0.9384 0.3331 -0.0924
vn 0.9023 0.3331 -0.2737
vn -0.9023 0.3331 -0.2737
vn 0.9384 0.3331 -0.0924
vn -0.8316 0.3331 -0.4445
vn 0.9384 0.3331 0.0924
vn -0.7289 0.3331 -0.5982
vn 0.9023 0.3331 0.2737
vn -0.0000 -1.0000 -0.0000
vn -0.2873 0.8916 0.3501
vn -0.0590 -0.9957 -0.0719
vn 0.0821 -0.9957 -0.0439
vn 0.0270 -0.9957 0.0890
vn -0.0926 -0.9957 -0.0091
vn 0.0270 -0.9957 -0.0890
vn 0.0821 -0.9957 0.0439
vn -0.0719 -0.9957 0.0590
vn -0.0439 -0.9957 -0.0821
vn 0.0890 -0.9957 -0.0270
vn -0.0091 -0.9957 0.0926
vn 0.0091 -0.9957 0.0926
vn -0.0890 -0.9957 -0.0270
vn 0.0439 -0.9957 -0.0821
vn 0.0719 -0.9957 0.0590
vn -0.0821 -0.9957 0.0439
vn -0.0270 -0.9957 -0.0890
vn 0.0926 -0.9957 -0.0091
vn -0.0270 -0.9957 0.0890
vn -0.0821 -0.9957 -0.0439
vn 0.0590 -0.9957 -0.0719
vn 0.0590 -0.9957 0.0719
vn -0.0890 -0.9957 0.0270
vn -0.0091 -0.9957 -0.0926
vn 0.0926 -0.9957 0.0091
vn -0.0439 -0.9957 0.0821
vn -0.0719 -0.9957 -0.0590
vn 0.0719 -0.9957 -0.0590
vn 0.0439 -0.9957 0.0821
vn -0.0926 -0.9957 0.0091
vn 0.0091 -0.9957 -0.0926
vn 0.0890 -0.9957 0.0270
vn 0.1315 0.8916 0.4334
vn 0.1315 0.8916 -0.4334
vn -0.3501 0.8916 0.2873
vn 0.0444 0.8916 0.4507
vn 0.2135 0.8916 -0.3994
vn -0.3994 0.8916 0.2135
vn 0.2873 0.8916 -0.3501
vn -0.4334 0.8916 0.1315
vn 0.3501 0.8916 -0.2873
vn -0.4507 0.8916 0.0444
vn 0.3994 0.8916 -0.2135
vn -0.4507 0.8916 -0.0444
vn 0.4334 0.8916 -0.1315
vn -0.4334 0.8916 -0.1315
vn 0.4507 0.8916 -0.0444
vn -0.3994 0.8916 -0.2135
vn 0.4507 0.8916 0.0444
vn -0.3501 0.8916 -0.2873
vn 0.4334 0.8916 0.1315
vn -0.2873 0.8916 -0.3501
vn 0.3994 0.8916 0.2135
vn -0.2135 0.8916 -0.3994
vn -0.0444 0.8916 0.4507
vn 0.3501 0.8916 0.2873
vn -0.1315 0.8916 -0.4334
vn -0.1315 0.8916 0.4334
vn 0.2873 0.8916 0.3501
vn -0.0444 0.8916 -0.4507
vn -0.2135 0.8916 0.3994
vn 0.2135 0.8916 0.3994
vn 0.0444 0.8916 -0.4507
vn -0.3475 0.9317 -0.1054
vn -0.0000 1.0000 -0.0000
vn 0.3614 0.9317 -0.0356
vn -0.3203 0.9317 -0.1712
vn 0.3614 0.9317 0.0356
vn -0.2807 0.9317 -0.2304
vn 0.3475 0.9317 0.1054
vn -0.2304 0.9317 -0.2807
vn 0.3203 0.9317 0.1712
vn -0.1712 0.9317 -0.3203
vn -0.0356 0.9317 0.3614
vn 0.2807 0.9317 0.2304
vn -0.1054 0.9317 -0.3475
vn -0.1054 0.9317 0.3475
vn 0.2304 0.9317 0.2807
vn -0.0356 0.9317 -0.3614
vn -0.1712 0.9317 0.3203
vn 0.1712 0.9317 0.3203
vn 0.0356 0.9317 -0.3614
vn -0.2304 0.9317 0.2807
vn 0.1054 0.9317 0.3475
vn 0.1054 0.9317 -0.3475
vn -0.2807 0.9317 0.2304
vn 0.0356 0.9317 0.3614
vn 0.1712 0.9317 -0.3203
vn -0.3203 0.9317 0.1712
vn 0.2304 0.9317 -0.2807
vn -0.3475 0.9317 0.1054
vn 0.2807 0.9317 -0.2304
vn -0.3614 0.9317 0.0356
vn 0.3203 0.9317 -0.1712
vn -0.3614 0.9317 -0.0356
vn 0.3475 0.9317 -0.1054
vt 0.867919 0.971760
vt 0.867919 0.758816
vt 0.886158 0.758498
vt 0.886158 0.971442
vt 0.904754 0.758498
vt 0.904754 0.971442
vt 0.922993 0.758816
vt 0.922993 0.971760
vt 0.940174 0.759438
vt 0.940174 0.972382
vt 0.955637 0.760342
vt 0.955637 0.973286
vt 0.968786 0.761492
vt 0.968786 0.974436
vt 0.836761 0.977383
vt 0.836761 0.764439
vt 0.849910 0.763289
vt 0.849910 0.976233
vt 0.865373 0.762385
vt 0.865373 0.975329
vt 0.882554 0.761763
vt 0.882554 0.974706
vt 0.900793 0.761445
vt 0.900793 0.974389
vt 0.919389 0.761445
vt 0.919389 0.974389
vt 0.937628 0.761763
vt 0.937628 0.974706
vt 0.954809 0.762385
vt 0.954809 0.975329
vt 0.970272 0.763289
vt 0.970272 0.976233
vt 0.840216 0.981858
vt 0.840216 0.768914
vt 0.853366 0.767764
vt 0.853366 0.980708
vt 0.868828 0.766860
vt 0.868828 0.979804
vt 0.886009 0.766237
vt 0.886009 0.979181
vt 0.904248 0.765920
vt 0.904248 0.978864
vt 0.922845 0.765920
vt 0.922845 0.978864
vt 0.941084 0.766237
vt 0.941084 0.979181
vt 0.958265 0.766860
vt 0.958265 0.979804
vt 0.973727 0.767764
vt 0.973727 0.980708
vt 0.840216 0.976857
vt 0.840216 0.763913
vt 0.853366 0.762763
vt 0.853366 0.975707
vt 0.868828 0.761859
vt 0.868828 0.974803
vt 0.886009 0.761237
vt 0.886009 0.974181
vt 0.904248 0.760919
vt 0.904248 0.973863
vt 0.922845 0.760919
vt 0.922845 0.973863
vt 0.941084 0.761237
vt 0.941084 0.974181
vt 0.958265 0.761859
vt 0.958265 0.974803
vt 0.973727 0.762763
vt 0.973727 0.975707
vt 0.454838 0.404124
vt 0.451210 0.422363
vt 0.417452 0.419038
vt 0.422378 0.394277
vt 0.835276 0.973286
vt 0.835276 0.760342
vt 0.850738 0.759438
vt 0.850738 0.972382
vt 0.135396 0.268907
vt 0.148546 0.282056
vt 0.075671 0.370854
vt 0.046598 0.341781
vt 0.575750 0.618302
vt 0.574704 0.641619
vt 0.506268 0.634149
vt 0.507506 0.606542
vt 0.590334 0.347999
vt 0.573153 0.340883
vt 0.583000 0.308423
vt 0.606324 0.318084
vt 0.618946 0.491842
vt 0.629278 0.476379
vt 0.659193 0.492370
vt 0.645167 0.513361
vt 0.461954 0.476379
vt 0.472286 0.491842
vt 0.446065 0.513361
vt 0.432039 0.492370
vt 0.485435 0.504991
vt 0.463916 0.531212
vt 0.518079 0.340883
vt 0.500898 0.347999
vt 0.484908 0.318084
vt 0.508232 0.308423
vt 0.640022 0.422363
vt 0.636394 0.404124
vt 0.668854 0.394277
vt 0.673779 0.419038
vt 0.536318 0.526068
vt 0.554914 0.526068
vt 0.558239 0.559825
vt 0.532993 0.559825
vt 0.461954 0.386943
vt 0.432039 0.370953
vt 0.605796 0.358331
vt 0.627315 0.332110
vt 0.605796 0.504991
vt 0.627315 0.531212
vt 0.454838 0.459199
vt 0.422377 0.469045
vt 0.536318 0.337255
vt 0.532993 0.303498
vt 0.640022 0.440960
vt 0.673779 0.444284
vt 0.518079 0.522440
vt 0.508232 0.554900
vt 0.472286 0.371481
vt 0.446065 0.349962
vt 0.618946 0.371481
vt 0.645167 0.349962
vt 0.590334 0.515323
vt 0.606324 0.545238
vt 0.451210 0.440959
vt 0.417452 0.444284
vt 0.554914 0.337255
vt 0.558239 0.303498
vt 0.636394 0.459199
vt 0.668854 0.469045
vt 0.500898 0.515323
vt 0.484908 0.545238
vt 0.485435 0.358331
vt 0.463916 0.332110
vt 0.629278 0.386943
vt 0.659193 0.370953
vt 0.573153 0.522440
vt 0.583000 0.554900
vt 0.665211 0.701553
vt 0.665973 0.729177
vt 0.578178 0.728420
vt 0.577415 0.700796
vt 0.733765 0.645255
vt 0.733548 0.670500
vt 0.664953 0.672232
vt 0.665211 0.642341
vt 0.577158 0.597322
vt 0.509173 0.581701
vt 0.676878 0.388928
vt 0.676234 0.364171
vt 0.744670 0.356702
vt 0.745432 0.386014
vt 0.734409 0.620498
vt 0.665973 0.613029
vt 0.879248 0.179771
vt 0.880656 0.197635
vt 0.812671 0.215370
vt 0.811004 0.194218
vt 0.677095 0.414173
vt 0.745690 0.415905
vt 0.735456 0.597182
vt 0.667212 0.585422
vt 0.878202 0.158769
vt 0.809765 0.169352
vt 0.676878 0.438936
vt 0.745432 0.445225
vt 0.736863 0.576202
vt 0.668879 0.560581
vt 0.877557 0.135439
vt 0.809003 0.141728
vt 0.676234 0.462267
vt 0.744670 0.472850
vt 0.675187 0.340855
vt 0.673779 0.319875
vt 0.741764 0.304254
vt 0.743431 0.329095
vt 0.877340 0.110675
vt 0.808745 0.112407
vt 0.675187 0.483268
vt 0.743431 0.497715
vt 0.877557 0.085430
vt 0.809003 0.082516
vt 0.673779 0.501133
vt 0.741764 0.518867
vt 0.878202 0.060674
vt 0.809765 0.053204
vt 0.575750 0.760715
vt 0.577158 0.778580
vt 0.509173 0.796315
vt 0.507506 0.775163
vt 0.879248 0.037357
vt 0.811004 0.025597
vt 0.574704 0.739714
vt 0.506268 0.750297
vt 0.880656 0.016377
vt 0.812671 0.000756
vt 0.574060 0.716384
vt 0.505505 0.722673
vt 0.735456 0.739595
vt 0.736863 0.757460
vt 0.668879 0.775195
vt 0.667212 0.754043
vt 0.573842 0.691620
vt 0.505247 0.693352
vt 0.734409 0.718594
vt 0.574060 0.666375
vt 0.505505 0.663461
vt 0.733765 0.695264
vt 0.524938 0.297666
vt 0.497321 0.286227
vt 0.472467 0.269620
vt 0.451330 0.248483
vt 0.434723 0.223629
vt 0.423284 0.196012
vt 0.417452 0.166695
vt 0.417452 0.136803
vt 0.423284 0.107485
vt 0.434723 0.079869
vt 0.451330 0.055015
vt 0.472467 0.033878
vt 0.497321 0.017271
vt 0.524938 0.005832
vt 0.554255 0.000000
vt 0.584147 0.000000
vt 0.613465 0.005832
vt 0.641081 0.017271
vt 0.665935 0.033878
vt 0.687072 0.055015
vt 0.703679 0.079869
vt 0.715118 0.107485
vt 0.720950 0.136803
vt 0.720950 0.166695
vt 0.715118 0.196012
vt 0.703679 0.223629
vt 0.687072 0.248483
vt 0.665935 0.269620
vt 0.641081 0.286227
vt 0.613465 0.297666
vt 0.584147 0.303498
vt 0.554255 0.303498
vt 0.417710 0.662705
vt 0.418473 0.633393
vt 0.577158 0.671475
vt 0.419711 0.605786
vt 0.577415 0.641585
vt 0.421378 0.580945
vt 0.832465 0.355945
vt 0.833228 0.385257
vt 0.578178 0.612273
vt 0.511204 0.560581
vt 0.423409 0.559825
vt 0.833485 0.415148
vt 0.579417 0.584666
vt 0.723209 0.193461
vt 0.721970 0.168595
vt 0.833228 0.444469
vt 0.581084 0.559825
vt 0.721207 0.140971
vt 0.832465 0.472093
vt 0.829559 0.303498
vt 0.831226 0.328338
vt 0.720950 0.111650
vt 0.831226 0.496959
vt 0.721207 0.081760
vt 0.829559 0.518111
vt 0.721970 0.052448
vt 0.421378 0.795558
vt 0.419711 0.774406
vt 0.723209 0.024841
vt 0.418473 0.749540
vt 0.724876 -0.000000
vt 0.417710 0.721916
vt 0.581084 0.774438
vt 0.579417 0.753286
vt 0.417452 0.692595
vt 0.023755 0.527310
vt 0.046598 0.493123
vt 0.144607 0.573557
vt 0.135573 0.587077
vt 0.282056 0.268907
vt 0.292388 0.253444
vt 0.393697 0.307595
vt 0.370854 0.341781
vt 0.253444 0.125064
vt 0.236263 0.117948
vt 0.269609 0.008021
vt 0.307595 0.023755
vt 0.117948 0.181189
vt 0.114320 0.199428
vt -0.000000 0.188168
vt 0.008021 0.147843
vt 0.218024 0.303132
vt 0.236263 0.299504
vt 0.269609 0.409431
vt 0.229284 0.417452
vt 0.299504 0.181189
vt 0.292388 0.164008
vt 0.393697 0.109857
vt 0.409431 0.147843
vt 0.164008 0.125064
vt 0.148546 0.135396
vt 0.075671 0.046598
vt 0.109857 0.023755
vt 0.164008 0.292388
vt 0.109857 0.393697
vt 0.299505 0.236263
vt 0.409431 0.269609
vt 0.218024 0.114320
vt 0.229284 -0.000000
vt 0.114320 0.218024
vt 0.117948 0.236263
vt 0.008021 0.269609
vt -0.000000 0.229284
vt 0.253444 0.292388
vt 0.307595 0.393697
vt 0.282056 0.148546
vt 0.370854 0.075671
vt 0.135396 0.148546
vt 0.046598 0.075671
vt 0.181189 0.299504
vt 0.147843 0.409431
vt 0.303132 0.218024
vt 0.417452 0.229284
vt 0.199428 0.114320
vt 0.188168 -0.000000
vt 0.125064 0.253444
vt 0.023755 0.307595
vt 0.268907 0.282056
vt 0.341781 0.370854
vt 0.268907 0.135396
vt 0.341781 0.046598
vt 0.125064 0.164008
vt 0.023755 0.109857
vt 0.199428 0.303132
vt 0.188168 0.417452
vt 0.303132 0.199428
vt 0.417452 0.188168
vt 0.181189 0.117948
vt 0.147843 0.008021
vt 0.882791 0.116744
vt 0.881884 0.105238
vt 0.903168 0.105422
vt 0.904075 0.116928
vt 0.023755 0.725047
vt 0.008021 0.687062
vt 0.129351 0.650257
vt 0.135573 0.665280
vt 0.417452 0.646736
vt 0.409431 0.687062
vt 0.288102 0.650257
vt 0.291274 0.634309
vt 0.075671 0.464050
vt 0.156105 0.562060
vt 0.000000 0.646736
vt 0.126178 0.634309
vt 0.393697 0.725047
vt 0.281879 0.665279
vt 0.109857 0.441208
vt 0.169625 0.553026
vt 0.370854 0.759234
vt 0.272845 0.678800
vt 0.147843 0.425474
vt 0.184648 0.546803
vt 0.341781 0.788307
vt 0.261347 0.690297
vt 0.188168 0.417452
vt 0.200596 0.543631
vt 0.307595 0.811149
vt 0.247827 0.699331
vt 0.229284 0.417452
vt 0.216856 0.543631
vt 0.269609 0.826883
vt 0.232804 0.705554
vt 0.269609 0.425474
vt 0.232804 0.546803
vt 0.229284 0.834905
vt 0.216856 0.708726
vt 0.307595 0.441208
vt 0.247827 0.553026
vt 0.188168 0.834905
vt 0.200596 0.708726
vt 0.341781 0.464050
vt 0.261347 0.562059
vt 0.147843 0.826883
vt 0.184648 0.705554
vt 0.370854 0.493123
vt 0.272845 0.573557
vt 0.109857 0.811149
vt 0.169625 0.699331
vt 0.393697 0.527309
vt 0.281879 0.587077
vt 0.000000 0.605621
vt 0.126178 0.618048
vt 0.075671 0.788307
vt 0.156105 0.690297
vt 0.409431 0.565295
vt 0.288102 0.602100
vt 0.008021 0.565295
vt 0.129351 0.602100
vt 0.046598 0.759234
vt 0.144607 0.678800
vt 0.417452 0.605621
vt 0.291274 0.618048
vt 0.043447 0.844300
vt 0.058469 0.838077
vt 0.076460 0.897383
vt 0.072661 0.898956
vt 0.915469 0.368166
vt 0.916142 0.353149
vt 0.937426 0.353332
vt 0.936752 0.368350
vt 0.881211 0.091712
vt 0.902494 0.091895
vt 0.917049 0.339636
vt 0.938333 0.339819
vt 0.880796 0.076685
vt 0.902079 0.076868
vt 0.942822 0.153132
vt 0.941916 0.141626
vt 0.963199 0.141809
vt 0.964106 0.153315
vt 0.880656 0.060735
vt 0.901939 0.060919
vt 0.941242 0.128099
vt 0.962525 0.128283
vt 0.880796 0.044475
vt 0.902079 0.044659
vt 0.940827 0.113072
vt 0.962110 0.113256
vt 0.881211 0.028530
vt 0.902494 0.028714
vt 0.940687 0.097123
vt 0.961970 0.097306
vt 0.881884 0.013513
vt 0.903168 0.013696
vt 0.940827 0.080863
vt 0.962110 0.081046
vt 0.882791 0.000000
vt 0.904075 0.000183
vt 0.963551 0.181845
vt 0.963966 0.197790
vt 0.942682 0.197974
vt 0.942267 0.182029
vt 0.941242 0.064918
vt 0.962525 0.065101
vt 0.917049 0.456380
vt 0.916142 0.444874
vt 0.937426 0.445058
vt 0.938333 0.456564
vt 0.964106 0.214050
vt 0.942822 0.214234
vt 0.941916 0.049900
vt 0.963199 0.050084
vt 0.915469 0.431348
vt 0.936752 0.431531
vt 0.963966 0.230000
vt 0.942682 0.230184
vt 0.942822 0.036387
vt 0.964106 0.036571
vt 0.915054 0.416321
vt 0.936337 0.416504
vt 0.963551 0.245027
vt 0.942267 0.245210
vt 0.961971 0.153315
vt 0.962877 0.166828
vt 0.941594 0.167011
vt 0.940687 0.153499
vt 0.914914 0.400371
vt 0.936197 0.400554
vt 0.962877 0.258553
vt 0.941594 0.258737
vt 0.915054 0.384111
vt 0.936337 0.384295
vt 0.961971 0.270060
vt 0.940687 0.270243
vt 0.066336 0.930757
vt 0.064051 0.927339
vt 0.062478 0.923540
vt 0.061676 0.919508
vt 0.061676 0.915397
vt 0.062478 0.911364
vt 0.064051 0.907566
vt 0.066336 0.904147
vt 0.069243 0.901240
vt 0.080492 0.896581
vt 0.084603 0.896581
vt 0.088636 0.897383
vt 0.092434 0.898956
vt 0.095853 0.901240
vt 0.098760 0.904147
vt 0.101044 0.907566
vt 0.102617 0.911364
vt 0.103419 0.915397
vt 0.103419 0.919508
vt 0.102617 0.923540
vt 0.101044 0.927339
vt 0.098760 0.930757
vt 0.095853 0.933665
vt 0.092434 0.935949
vt 0.088636 0.937522
vt 0.084603 0.938324
vt 0.080492 0.938324
vt 0.076460 0.937522
vt 0.072661 0.935949
vt 0.069243 0.933665
vt 0.146667 0.970073
vt 0.135169 0.981571
vt 0.074417 0.834905
vt 0.121649 0.990605
vt 0.090678 0.834905
vt 0.106626 0.996828
vt 0.106626 0.838077
vt 0.090678 1.000000
vt 0.121649 0.844300
vt 0.018429 0.970073
vt 0.009395 0.956553
vt 0.074418 1.000000
vt 0.135169 0.853333
vt 0.003172 0.941531
vt 0.058469 0.996828
vt 0.146667 0.864831
vt 0.000000 0.925583
vt 0.043447 0.990605
vt 0.155701 0.878351
vt 0.000000 0.909322
vt 0.029927 0.981571
vt 0.161923 0.893374
vt 0.003172 0.893374
vt 0.165095 0.909322
vt 0.009395 0.878351
vt 0.165095 0.925583
vt 0.018429 0.864831
vt 0.161923 0.941531
vt 0.029927 0.853333
vt 0.155701 0.956553
s 0
f 1/1/1 3/4/1 4/3/1 2/2/1
f 3/4/2 5/6/2 6/5/2 4/3/2
f 5/6/3 7/8/3 8/7/3 6/5/3
f 7/8/4 9/10/4 10/9/4 8/7/4
f 9/10/5 11/12/5 12/11/5 10/9/5
f 11/12/6 13/14/6 14/13/6 12/11/6
f 13/15/7 15/18/7 16/17/7 14/16/7
f 15/18/8 17/20/8 18/19/8 16/17/8
f 17/20/9 19/22/9 20/21/9 18/19/9
f 19/22/10 21/24/10 22/23/10 20/21/10
f 21/24/11 23/26/11 24/25/11 22/23/11
f 23/26/12 25/28/12 26/27/12 24/25/12
f 25/28/13 27/30/13 28/29/13 26/27/13
f 27/30/14 29/32/14 30/31/14 28/29/14
f 29/33/15 31/36/15 32/35/15 30/34/15
f 31/36/16 33/38/16 34/37/16 32/35/16
f 33/38/17 35/40/17 36/39/17 34/37/17
f 35/40/18 37/42/18 38/41/18 36/39/18
f 37/42/19 39/44/19 40/43/19 38/41/19
f 39/44/20 41/46/20 42/45/20 40/43/20
f 41/46/21 43/48/21 44/47/21 42/45/21
f 43/48/22 45/50/22 46/49/22 44/47/22
f 45/51/23 47/54/23 48/53/23 46/52/23
f 47/54/24 49/56/24 50/55/24 48/53/24
f 49/56/25 51/58/25 52/57/25 50/55/25
f 51/58/26 53/60/26 54/59/26 52/57/26
f 53/60/27 55/62/27 56/61/27 54/59/27
f 55/62/28 57/64/28 58/63/28 56/61/28
f 57/64/29 59/66/29 60/65/29 58/63/29
f 59/66/30 61/68/30 62/67/30 60/65/30
f 12/69/31 70/72/31 69/71/31 10/70/31
f 61/73/32 63/76/32 64/75/32 62/74/32
f 63/76/33 1/1/33 2/2/33 64/75/33
f 7/77/34 164/80/34 165/79/34 9/78/34
f 78/81/35 110/84/35 109/83/35 77/82/35
f 30/85/36 79/88/36 78/87/36 28/86/36
f 48/89/37 88/92/37 87/91/37 46/90/37
f 4/93/38 65/96/38 66/95/38 2/94/38
f 2/94/39 66/95/39 96/98/39 64/97/39
f 22/99/40 75/102/40 74/101/40 20/100/40
f 40/103/41 84/106/41 83/105/41 38/104/41
f 58/107/42 93/110/42 92/109/42 56/108/42
f 14/111/43 71/112/43 70/72/43 12/69/43
f 32/113/44 80/114/44 79/88/44 30/85/44
f 50/115/45 89/116/45 88/92/45 48/89/45
f 6/117/46 67/118/46 65/96/46 4/93/46
f 24/119/47 76/120/47 75/102/47 22/99/47
f 42/121/48 85/122/48 84/106/48 40/103/48
f 60/123/49 94/124/49 93/110/49 58/107/49
f 16/125/50 72/126/50 71/112/50 14/111/50
f 34/127/51 81/128/51 80/114/51 32/113/51
f 52/129/52 90/130/52 89/116/52 50/115/52
f 8/131/53 68/132/53 67/118/53 6/117/53
f 26/133/54 77/134/54 76/120/54 24/119/54
f 44/135/55 86/136/55 85/122/55 42/121/55
f 62/137/56 95/138/56 94/124/56 60/123/56
f 18/139/57 73/140/57 72/126/57 16/125/57
f 36/141/58 82/142/58 81/128/58 34/127/58
f 54/143/59 91/144/59 90/130/59 52/129/59
f 10/70/60 69/71/60 68/132/60 8/131/60
f 28/86/61 78/87/61 77/134/61 26/133/61
f 46/90/62 87/91/62 86/136/62 44/135/62
f 64/97/63 96/98/63 95/138/63 62/137/63
f 20/100/64 74/101/64 73/140/64 18/139/64
f 38/104/65 83/105/65 82/142/65 36/141/65
f 56/108/66 92/109/66 91/144/66 54/143/66
f 122/145/25 154/148/25 153/147/25 121/146/25
f 92/149/67 124/152/67 123/151/67 91/150/67
f 79/153/68 111/154/68 110/84/68 78/81/68
f 65/155/69 97/158/69 98/157/69 66/156/69
f 93/159/70 125/160/70 124/152/70 92/149/70
f 80/161/71 112/164/71 111/163/71 79/162/71
f 67/165/72 99/166/72 97/158/72 65/155/72
f 94/167/73 126/168/73 125/160/73 93/159/73
f 81/169/74 113/170/74 112/164/74 80/161/74
f 68/171/75 100/172/75 99/166/75 67/165/75
f 95/173/76 127/174/76 126/168/76 94/167/76
f 82/175/77 114/176/77 113/170/77 81/169/77
f 69/177/78 101/178/78 100/172/78 68/171/78
f 96/179/79 128/182/79 127/181/79 95/180/79
f 83/183/80 115/184/80 114/176/80 82/175/80
f 70/185/81 102/186/81 101/178/81 69/177/81
f 66/156/82 98/157/82 128/182/82 96/179/82
f 84/187/83 116/188/83 115/184/83 83/183/83
f 71/189/84 103/190/84 102/186/84 70/185/84
f 85/191/85 117/192/85 116/188/85 84/187/85
f 72/193/86 104/196/86 103/195/86 71/194/86
f 86/197/87 118/198/87 117/192/87 85/191/87
f 73/199/88 105/200/88 104/196/88 72/193/88
f 87/201/89 119/202/89 118/198/89 86/197/89
f 74/203/90 106/204/90 105/200/90 73/199/90
f 88/205/91 120/208/91 119/207/91 87/206/91
f 75/209/92 107/210/92 106/204/92 74/203/92
f 89/211/93 121/146/93 120/208/93 88/205/93
f 76/212/94 108/213/94 107/210/94 75/209/94
f 90/214/95 122/145/95 121/146/95 89/211/95
f 77/82/96 109/83/96 108/213/96 76/212/96
f 91/150/97 123/151/97 122/145/97 90/214/97
f 129/215/98 131/246/98 132/245/98 133/244/98 134/243/98 135/242/98 136/241/98 137/240/98 138/239/98 139/238/98 140/237/98 141/236/98 142/235/98 143/234/98 144/233/98 145/232/98 146/231/98 147/230/98 148/229/98 149/228/98 150/227/98 151/226/98 152/225/98 153/224/98 154/223/98 155/222/98 156/221/98 157/220/98 158/219/98 159/218/98 160/217/98 130/216/98
f 109/83/12 141/248/12 140/247/12 108/213/12
f 123/151/26 155/249/26 154/148/26 122/145/26
f 110/84/13 142/250/13 141/248/13 109/83/13
f 124/152/27 156/251/27 155/249/27 123/151/27
f 111/154/14 143/252/14 142/250/14 110/84/14
f 97/158/1 129/254/1 130/253/1 98/157/1
f 125/160/28 157/255/28 156/251/28 124/152/28
f 112/256/15 144/257/15 143/252/15 111/154/15
f 99/166/2 131/258/2 129/254/2 97/158/2
f 126/168/29 158/259/29 157/255/29 125/160/29
f 113/170/16 145/261/16 144/260/16 112/164/16
f 100/172/3 132/262/3 131/258/3 99/166/3
f 127/174/30 159/263/30 158/259/30 126/168/30
f 114/176/17 146/264/17 145/261/17 113/170/17
f 101/178/4 133/265/4 132/262/4 100/172/4
f 128/182/32 160/267/32 159/266/32 127/181/32
f 115/184/18 147/268/18 146/264/18 114/176/18
f 102/186/5 134/269/5 133/265/5 101/178/5
f 98/157/33 130/253/33 160/267/33 128/182/33
f 116/188/19 148/270/19 147/268/19 115/184/19
f 103/190/6 135/271/6 134/269/6 102/186/6
f 117/192/20 149/272/20 148/270/20 116/188/20
f 104/196/7 136/274/7 135/273/7 103/195/7
f 118/198/21 150/275/21 149/272/21 117/192/21
f 105/200/8 137/276/8 136/274/8 104/196/8
f 119/202/22 151/277/22 150/275/22 118/198/22
f 106/204/9 138/278/9 137/276/9 105/200/9
f 120/208/23 152/280/23 151/279/23 119/207/23
f 107/210/10 139/281/10 138/278/10 106/204/10
f 121/146/24 153/147/24 152/280/24 120/208/24
f 108/213/11 140/247/11 139/281/11 107/210/11
f 164/282/99 196/285/99 197/284/99 165/283/99
f 25/286/100 173/289/100 174/288/100 27/287/100
f 43/290/101 182/293/101 183/292/101 45/291/101
f 61/294/102 191/297/102 192/296/102 63/295/102
f 17/298/103 169/301/103 170/300/103 19/299/103
f 35/302/104 178/305/104 179/304/104 37/303/104
f 53/306/105 187/309/105 188/308/105 55/307/105
f 9/78/106 165/79/106 166/311/106 11/310/106
f 27/287/107 174/288/107 175/313/107 29/312/107
f 45/291/108 183/292/108 184/315/108 47/314/108
f 1/316/109 161/319/109 162/318/109 3/317/109
f 63/295/110 192/296/110 161/319/110 1/316/110
f 19/299/111 170/300/111 171/321/111 21/320/111
f 37/303/112 179/304/112 180/323/112 39/322/112
f 55/307/113 188/308/113 189/325/113 57/324/113
f 11/310/114 166/311/114 167/327/114 13/326/114
f 29/312/115 175/313/115 176/329/115 31/328/115
f 47/314/116 184/315/116 185/331/116 49/330/116
f 3/317/117 162/318/117 163/333/117 5/332/117
f 21/320/118 171/321/118 172/335/118 23/334/118
f 39/322/119 180/323/119 181/337/119 41/336/119
f 57/324/120 189/325/120 190/339/120 59/338/120
f 13/326/121 167/327/121 168/341/121 15/340/121
f 31/328/122 176/329/122 177/343/122 33/342/122
f 49/330/123 185/331/123 186/345/123 51/344/123
f 5/332/124 163/333/124 164/80/124 7/77/124
f 23/334/125 172/335/125 173/289/125 25/286/125
f 41/336/126 181/337/126 182/293/126 43/290/126
f 59/338/127 190/339/127 191/297/127 61/294/127
f 15/340/128 168/341/128 169/301/128 17/298/128
f 33/342/129 177/343/129 178/305/129 35/302/129
f 51/344/130 186/345/130 187/309/130 53/306/130
f 199/346/7 231/349/7 232/348/7 200/347/7
f 191/350/131 223/353/131 224/352/131 192/351/131
f 178/354/132 210/357/132 211/356/132 179/355/132
f 165/283/133 197/284/133 198/359/133 166/358/133
f 192/351/134 224/352/134 193/361/134 161/360/134
f 179/355/135 211/356/135 212/363/135 180/362/135
f 166/358/136 198/359/136 199/365/136 167/364/136
f 180/362/137 212/363/137 213/367/137 181/366/137
f 167/364/138 199/365/138 200/369/138 168/368/138
f 181/366/139 213/367/139 214/371/139 182/370/139
f 168/368/140 200/369/140 201/373/140 169/372/140
f 182/370/141 214/371/141 215/375/141 183/374/141
f 169/372/142 201/373/142 202/377/142 170/376/142
f 183/374/143 215/375/143 216/379/143 184/378/143
f 170/376/144 202/377/144 203/381/144 171/380/144
f 184/378/145 216/379/145 217/383/145 185/382/145
f 171/380/146 203/381/146 204/385/146 172/384/146
f 185/382/147 217/383/147 218/387/147 186/386/147
f 172/384/148 204/385/148 205/389/148 173/388/148
f 186/386/149 218/387/149 219/391/149 187/390/149
f 173/388/150 205/389/150 206/393/150 174/392/150
f 187/390/151 219/391/151 220/395/151 188/394/151
f 174/392/152 206/393/152 207/397/152 175/396/152
f 161/360/153 193/361/153 194/399/153 162/398/153
f 188/394/154 220/395/154 221/401/154 189/400/154
f 175/396/155 207/397/155 208/403/155 176/402/155
f 162/398/156 194/399/156 195/405/156 163/404/156
f 189/400/157 221/401/157 222/407/157 190/406/157
f 176/402/158 208/403/158 209/409/158 177/408/158
f 163/404/159 195/405/159 196/285/159 164/282/159
f 190/406/160 222/407/160 223/353/160 191/350/160
f 177/408/161 209/409/161 210/357/161 178/354/161
f 234/410/162 266/413/162 267/412/162 235/411/162
f 213/414/21 245/417/21 246/416/21 214/415/21
f 200/347/8 232/348/8 233/419/8 201/418/8
f 214/415/22 246/416/22 247/421/22 215/420/22
f 201/418/9 233/419/9 234/423/9 202/422/9
f 215/424/23 247/427/23 248/426/23 216/425/23
f 202/422/10 234/423/10 235/429/10 203/428/10
f 216/425/24 248/426/24 249/431/24 217/430/24
f 203/428/11 235/429/11 236/433/11 204/432/11
f 217/430/25 249/431/25 250/435/25 218/434/25
f 204/432/12 236/433/12 237/437/12 205/436/12
f 218/434/26 250/435/26 251/439/26 219/438/26
f 205/436/13 237/437/13 238/441/13 206/440/13
f 219/438/27 251/439/27 252/443/27 220/442/27
f 206/440/14 238/441/14 239/445/14 207/444/14
f 193/446/1 225/449/1 226/448/1 194/447/1
f 220/442/28 252/443/28 253/451/28 221/450/28
f 207/452/15 239/455/15 240/454/15 208/453/15
f 194/447/2 226/448/2 227/457/2 195/456/2
f 221/450/29 253/451/29 254/459/29 222/458/29
f 208/453/16 240/454/16 241/461/16 209/460/16
f 195/456/3 227/457/3 228/463/3 196/462/3
f 222/458/30 254/459/30 255/465/30 223/464/30
f 209/460/17 241/461/17 242/467/17 210/466/17
f 196/462/4 228/463/4 229/469/4 197/468/4
f 223/470/32 255/473/32 256/472/32 224/471/32
f 210/466/18 242/467/18 243/475/18 211/474/18
f 197/468/5 229/469/5 230/477/5 198/476/5
f 224/471/33 256/472/33 225/449/33 193/446/33
f 211/474/19 243/475/19 244/479/19 212/478/19
f 198/476/6 230/477/6 231/481/6 199/480/6
f 212/478/20 244/479/20 245/417/20 213/414/20
f 257/482/163 288/511/163 287/510/163 286/509/163 285/508/163 284/507/163 283/506/163 282/505/163 281/504/163 280/503/163 279/502/163 278/501/163 277/500/163 276/499/163 275/498/163 274/497/163 273/496/163 272/495/163 271/494/163 270/493/163 269/492/163 268/491/163 267/412/163 266/413/163 265/490/163 264/489/163 263/488/163 262/487/163 261/486/163 260/485/163 259/484/163 258/483/163
f 248/512/164 280/503/164 281/504/164 249/513/164
f 235/411/165 267/412/165 268/491/165 236/514/165
f 249/513/166 281/504/166 282/505/166 250/515/166
f 236/514/167 268/491/167 269/492/167 237/516/167
f 250/515/168 282/505/168 283/506/168 251/517/168
f 237/516/169 269/492/169 270/493/169 238/518/169
f 251/517/170 283/506/170 284/507/170 252/519/170
f 238/518/171 270/493/171 271/494/171 239/520/171
f 225/521/172 257/482/172 258/483/172 226/522/172
f 252/519/173 284/507/173 285/508/173 253/523/173
f 239/520/174 271/494/174 272/495/174 240/524/174
f 226/522/175 258/483/175 259/484/175 227/525/175
f 253/523/176 285/508/176 286/509/176 254/526/176
f 240/524/177 272/495/177 273/496/177 241/527/177
f 227/525/178 259/484/178 260/485/178 228/528/178
f 254/526/179 286/509/179 287/510/179 255/529/179
f 241/527/180 273/496/180 274/497/180 242/530/180
f 228/528/181 260/485/181 261/486/181 229/531/181
f 255/529/182 287/510/182 288/511/182 256/532/182
f 242/530/183 274/497/183 275/498/183 243/533/183
f 229/531/184 261/486/184 262/487/184 230/534/184
f 256/532/185 288/511/185 257/482/185 225/521/185
f 243/533/186 275/498/186 276/499/186 244/535/186
f 230/534/187 262/487/187 263/488/187 231/536/187
f 244/535/188 276/499/188 277/500/188 245/537/188
f 231/536/189 263/488/189 264/489/189 232/538/189
f 245/537/190 277/500/190 278/501/190 246/539/190
f 232/538/191 264/489/191 265/490/191 233/540/191
f 246/539/192 278/501/192 279/502/192 247/541/192
f 233/540/193 265/490/193 266/413/193 234/410/193
f 247/541/194 279/502/194 280/503/194 248/512/194
