# Blender 4.3.2
# www.blender.org
mtllib mystreets_lightpost_base.mtl
o Cylinder.002
v 0.000002 -0.489645 -0.099982
v 0.000002 0.503104 -0.099982
v 0.019511 -0.489645 -0.098061
v 0.019511 0.503104 -0.098061
v 0.038270 -0.489645 -0.092370
v 0.038270 0.503104 -0.092370
v 0.055559 -0.489645 -0.083129
v 0.055559 0.503104 -0.083129
v 0.070713 -0.489645 -0.070693
v 0.070713 0.503104 -0.070693
v 0.083149 -0.489645 -0.055539
v 0.083149 0.503104 -0.055539
v 0.092390 -0.489645 -0.038250
v 0.092390 0.503104 -0.038251
v 0.098081 -0.489645 -0.019491
v 0.098081 0.503104 -0.019491
v 0.100002 -0.489645 0.000018
v 0.100002 0.503104 0.000018
v 0.098081 -0.489645 0.019527
v 0.098081 0.503104 0.019527
v 0.092390 -0.489645 0.038286
v 0.092390 0.503104 0.038286
v 0.083149 -0.489645 0.055575
v 0.083149 0.503104 0.055575
v 0.070713 -0.489645 0.070729
v 0.070713 0.503104 0.070729
v 0.055559 -0.489645 0.083165
v 0.055559 0.503104 0.083165
v 0.038270 -0.489645 0.092406
v 0.038270 0.503104 0.092406
v 0.019511 -0.489645 0.098096
v 0.019511 0.503104 0.098096
v 0.000002 -0.489645 0.100018
v 0.000002 0.503104 0.100018
v -0.019507 -0.489645 0.098096
v -0.019507 0.503104 0.098096
v -0.038266 -0.489645 0.092406
v -0.038266 0.503104 0.092406
v -0.055555 -0.489645 0.083165
v -0.055555 0.503104 0.083165
v -0.070709 -0.489645 0.070729
v -0.070709 0.503104 0.070729
v -0.083145 -0.489645 0.055575
v -0.083145 0.503104 0.055575
v -0.092386 -0.489645 0.038286
v -0.092386 0.503104 0.038286
v -0.098077 -0.489645 0.019527
v -0.098076 0.503104 0.019527
v -0.099998 -0.489645 0.000018
v -0.099998 0.503104 0.000018
v -0.098077 -0.489645 -0.019491
v -0.098076 0.503104 -0.019491
v -0.092386 -0.489645 -0.038250
v -0.092386 0.503104 -0.038251
v -0.083145 -0.489645 -0.055539
v -0.083145 0.503104 -0.055539
v -0.070709 -0.489645 -0.070693
v -0.070709 0.503104 -0.070693
v -0.055555 -0.489645 -0.083129
v -0.055555 0.503104 -0.083129
v -0.038266 -0.489645 -0.092370
v -0.038266 0.503104 -0.092370
v -0.019507 -0.489645 -0.098061
v -0.019507 0.503104 -0.098061
vn 0.0980 -0.0000 -0.9952
vn 0.2903 -0.0000 -0.9569
vn 0.4714 -0.0000 -0.8819
vn 0.6344 -0.0000 -0.7730
vn 0.7730 -0.0000 -0.6344
vn 0.8819 -0.0000 -0.4714
vn 0.9569 -0.0000 -0.2903
vn 0.9952 -0.0000 -0.0980
vn 0.9952 -0.0000 0.0980
vn 0.9569 -0.0000 0.2903
vn 0.8819 -0.0000 0.4714
vn 0.7730 -0.0000 0.6344
vn 0.6344 -0.0000 0.7730
vn 0.4714 -0.0000 0.8819
vn 0.2903 -0.0000 0.9569
vn 0.0980 -0.0000 0.9952
vn -0.0980 -0.0000 0.9952
vn -0.2903 -0.0000 0.9569
vn -0.4714 -0.0000 0.8819
vn -0.6344 -0.0000 0.7730
vn -0.7730 -0.0000 0.6344
vn -0.8819 -0.0000 0.4714
vn -0.9569 -0.0000 0.2903
vn -0.9952 -0.0000 0.0980
vn -0.9952 -0.0000 -0.0980
vn -0.9569 -0.0000 -0.2903
vn -0.8819 -0.0000 -0.4714
vn -0.7730 -0.0000 -0.6344
vn -0.6344 -0.0000 -0.7730
vn -0.4714 -0.0000 -0.8819
vn -0.0000 1.0000 -0.0000
vn -0.2903 -0.0000 -0.9569
vn -0.0980 -0.0000 -0.9952
vn -0.0000 -1.0000 -0.0000
vt 0.414214 0.415212
vt 0.414214 -0.000000
vt 0.443061 0.000000
vt 0.443061 0.415212
vt 0.476982 0.000000
vt 0.476982 0.415212
vt 0.514673 0.000000
vt 0.514673 0.415212
vt 0.554686 0.000000
vt 0.554686 0.415212
vt 0.595482 0.000000
vt 0.595482 0.415212
vt 0.635495 0.000000
vt 0.635495 0.415212
vt 0.673186 0.000000
vt 0.673186 0.415212
vt 0.707107 0.000000
vt 0.707107 0.415212
vt 0.735954 0.000000
vt 0.735954 0.415212
vt 0.735954 0.415212
vt 0.735954 0.000000
vt 0.769875 0.000000
vt 0.769875 0.415212
vt 0.807566 0.000000
vt 0.807566 0.415212
vt 0.847579 0.000000
vt 0.847579 0.415212
vt 0.888375 0.000000
vt 0.888375 0.415212
vt 0.928388 0.000000
vt 0.928388 0.415212
vt 0.966079 0.000000
vt 0.966079 0.415212
vt 1.000000 0.000000
vt 1.000000 0.415212
vt 0.707107 0.830424
vt 0.707107 0.415212
vt 0.735954 0.415212
vt 0.735954 0.830424
vt 0.769875 0.415212
vt 0.769875 0.830424
vt 0.807566 0.415212
vt 0.807566 0.830424
vt 0.847579 0.415212
vt 0.847579 0.830424
vt 0.888375 0.415212
vt 0.888375 0.830424
vt 0.928388 0.415212
vt 0.928388 0.830424
vt 0.966079 0.415212
vt 0.966079 0.830424
vt 1.000000 0.415212
vt 1.000000 0.830424
vt 0.414214 0.830424
vt 0.414214 0.415212
vt 0.443061 0.415212
vt 0.443061 0.830424
vt 0.476982 0.415212
vt 0.476982 0.830424
vt 0.514673 0.415212
vt 0.514673 0.830424
vt 0.554686 0.415212
vt 0.554686 0.830424
vt 0.595482 0.415212
vt 0.595482 0.830424
vt 0.635495 0.415212
vt 0.635495 0.830424
vt 0.367977 0.753343
vt 0.339130 0.782191
vt 0.305209 0.804856
vt 0.267518 0.820468
vt 0.227505 0.828427
vt 0.186709 0.828427
vt 0.146696 0.820468
vt 0.109005 0.804856
vt 0.075084 0.782191
vt 0.046236 0.753343
vt 0.023571 0.719422
vt 0.007959 0.681731
vt 0.000000 0.641719
vt -0.000000 0.600922
vt 0.007959 0.560909
vt 0.023571 0.523218
vt 0.046236 0.489297
vt 0.075084 0.460450
vt 0.109005 0.437785
vt 0.146696 0.422172
vt 0.186708 0.414214
vt 0.227505 0.414213
vt 0.267518 0.422172
vt 0.305209 0.437785
vt 0.339130 0.460450
vt 0.367977 0.489297
vt 0.390642 0.523218
vt 0.406254 0.560909
vt 0.414213 0.600922
vt 0.414213 0.641718
vt 0.406255 0.681731
vt 0.390642 0.719422
vt 0.673186 0.415212
vt 0.673186 0.830424
vt 0.707107 0.415212
vt 0.046236 0.339130
vt 0.023571 0.305209
vt 0.007959 0.267518
vt 0.000000 0.227505
vt 0.000000 0.186709
vt 0.007959 0.146696
vt 0.023571 0.109005
vt 0.046236 0.075084
vt 0.075084 0.046236
vt 0.109005 0.023571
vt 0.146696 0.007959
vt 0.186709 0.000000
vt 0.227505 0.000000
vt 0.267518 0.007959
vt 0.305209 0.023571
vt 0.339130 0.046236
vt 0.367977 0.075084
vt 0.390642 0.109005
vt 0.406255 0.146696
vt 0.414214 0.186709
vt 0.414214 0.227505
vt 0.406255 0.267518
vt 0.390642 0.305209
vt 0.367977 0.339130
vt 0.339130 0.367977
vt 0.305209 0.390642
vt 0.267518 0.406255
vt 0.227505 0.414214
vt 0.186709 0.414214
vt 0.146696 0.406255
vt 0.109005 0.390642
vt 0.075084 0.367977
s 0
f 1/1/1 2/2/1 4/3/1 3/4/1
f 3/4/2 4/3/2 6/5/2 5/6/2
f 5/6/3 6/5/3 8/7/3 7/8/3
f 7/8/4 8/7/4 10/9/4 9/10/4
f 9/10/5 10/9/5 12/11/5 11/12/5
f 11/12/6 12/11/6 14/13/6 13/14/6
f 13/14/7 14/13/7 16/15/7 15/16/7
f 15/16/8 16/15/8 18/17/8 17/18/8
f 17/18/9 18/17/9 20/19/9 19/20/9
f 19/21/10 20/22/10 22/23/10 21/24/10
f 21/24/11 22/23/11 24/25/11 23/26/11
f 23/26/12 24/25/12 26/27/12 25/28/12
f 25/28/13 26/27/13 28/29/13 27/30/13
f 27/30/14 28/29/14 30/31/14 29/32/14
f 29/32/15 30/31/15 32/33/15 31/34/15
f 31/34/16 32/33/16 34/35/16 33/36/16
f 33/37/17 34/38/17 36/39/17 35/40/17
f 35/40/18 36/39/18 38/41/18 37/42/18
f 37/42/19 38/41/19 40/43/19 39/44/19
f 39/44/20 40/43/20 42/45/20 41/46/20
f 41/46/21 42/45/21 44/47/21 43/48/21
f 43/48/22 44/47/22 46/49/22 45/50/22
f 45/50/23 46/49/23 48/51/23 47/52/23
f 47/52/24 48/51/24 50/53/24 49/54/24
f 49/55/25 50/56/25 52/57/25 51/58/25
f 51/58/26 52/57/26 54/59/26 53/60/26
f 53/60/27 54/59/27 56/61/27 55/62/27
f 55/62/28 56/61/28 58/63/28 57/64/28
f 57/64/29 58/63/29 60/65/29 59/66/29
f 59/66/30 60/65/30 62/67/30 61/68/30
f 4/69/31 2/70/31 64/71/31 62/72/31 60/73/31 58/74/31 56/75/31 54/76/31 52/77/31 50/78/31 48/79/31 46/80/31 44/81/31 42/82/31 40/83/31 38/84/31 36/85/31 34/86/31 32/87/31 30/88/31 28/89/31 26/90/31 24/91/31 22/92/31 20/93/31 18/94/31 16/95/31 14/96/31 12/97/31 10/98/31 8/99/31 6/100/31
f 61/68/32 62/67/32 64/101/32 63/102/32
f 63/102/33 64/101/33 2/103/33 1/37/33
f 1/104/34 3/105/34 5/106/34 7/107/34 9/108/34 11/109/34 13/110/34 15/111/34 17/112/34 19/113/34 21/114/34 23/115/34 25/116/34 27/117/34 29/118/34 31/119/34 33/120/34 35/121/34 37/122/34 39/123/34 41/124/34 43/125/34 45/126/34 47/127/34 49/128/34 51/129/34 53/130/34 55/131/34 57/132/34 59/133/34 61/134/34 63/135/34
o Cylinder.001
v 0.000002 -0.269307 -0.160156
v 0.000002 -0.296314 -0.215263
v 0.000002 -0.376299 -0.268253
v 0.000002 -0.506187 -0.317089
v 0.031250 -0.269307 -0.157078
v 0.042001 -0.296314 -0.211127
v 0.052339 -0.376299 -0.263099
v 0.061867 -0.506187 -0.310996
v 0.061298 -0.269307 -0.147963
v 0.082387 -0.296314 -0.198876
v 0.102665 -0.376299 -0.247833
v 0.121354 -0.506187 -0.292951
v 0.088990 -0.269307 -0.133162
v 0.119606 -0.296314 -0.178982
v 0.149046 -0.376299 -0.223042
v 0.176177 -0.506187 -0.263647
v 0.113262 -0.269307 -0.113242
v 0.152229 -0.296314 -0.152209
v 0.189699 -0.376299 -0.189679
v 0.224231 -0.506187 -0.224211
v 0.133181 -0.269307 -0.088970
v 0.179002 -0.296314 -0.119586
v 0.223062 -0.376299 -0.149026
v 0.263667 -0.506187 -0.176157
v 0.147983 -0.269307 -0.061278
v 0.198896 -0.296314 -0.082367
v 0.247852 -0.376299 -0.102645
v 0.292971 -0.506187 -0.121334
v 0.157098 -0.269307 -0.031231
v 0.211147 -0.296314 -0.041982
v 0.263119 -0.376299 -0.052319
v 0.311016 -0.506187 -0.061847
v 0.160175 -0.269307 0.000018
v 0.215283 -0.296314 0.000018
v 0.268273 -0.376299 0.000018
v 0.317109 -0.506187 0.000018
v 0.157098 -0.269307 0.031266
v 0.211147 -0.296314 0.042017
v 0.263119 -0.376299 0.052355
v 0.311016 -0.506187 0.061883
v 0.147983 -0.269307 0.061313
v 0.198896 -0.296314 0.082402
v 0.247852 -0.376299 0.102681
v 0.292971 -0.506187 0.121370
v 0.133181 -0.269307 0.089005
v 0.179002 -0.296314 0.119621
v 0.223062 -0.376299 0.149061
v 0.263667 -0.506187 0.176193
v 0.113262 -0.269307 0.113277
v 0.152229 -0.296314 0.152244
v 0.189699 -0.376299 0.189714
v 0.224231 -0.506187 0.224247
v 0.088990 -0.269307 0.133197
v 0.119606 -0.296314 0.179017
v 0.149046 -0.376299 0.223077
v 0.176177 -0.506187 0.263683
v 0.061298 -0.269306 0.147998
v 0.082387 -0.296314 0.198911
v 0.102665 -0.376299 0.247868
v 0.121354 -0.506187 0.292987
v 0.031250 -0.269306 0.157113
v 0.042001 -0.296314 0.211162
v 0.052339 -0.376299 0.263134
v 0.061867 -0.506187 0.311032
v 0.000002 -0.269306 0.160191
v 0.000002 -0.296314 0.215299
v 0.000002 -0.376299 0.268289
v 0.000002 -0.506187 0.317125
v -0.031246 -0.269306 0.157113
v -0.041997 -0.296314 0.211162
v -0.052335 -0.376299 0.263134
v -0.061863 -0.506187 0.311032
v -0.061293 -0.269306 0.147998
v -0.082382 -0.296314 0.198911
v -0.102661 -0.376299 0.247868
v -0.121350 -0.506187 0.292987
v -0.088985 -0.269306 0.133197
v -0.119602 -0.296314 0.179017
v -0.149041 -0.376299 0.223077
v -0.176173 -0.506187 0.263683
v -0.113257 -0.269306 0.113277
v -0.152224 -0.296314 0.152244
v -0.189694 -0.376299 0.189714
v -0.224227 -0.506187 0.224247
v -0.133177 -0.269306 0.089005
v -0.178997 -0.296314 0.119621
v -0.223057 -0.376299 0.149061
v -0.263663 -0.506187 0.176193
v -0.147978 -0.269306 0.061313
v -0.198892 -0.296314 0.082402
v -0.247848 -0.376299 0.102681
v -0.292967 -0.506187 0.121370
v -0.157093 -0.269306 0.031266
v -0.211142 -0.296314 0.042017
v -0.263114 -0.376299 0.052355
v -0.311012 -0.506187 0.061883
v -0.160171 -0.269306 0.000018
v -0.215279 -0.296314 0.000018
v -0.268269 -0.376299 0.000018
v -0.317105 -0.506187 0.000018
v -0.157093 -0.269306 -0.031231
v -0.211142 -0.296314 -0.041982
v -0.263114 -0.376299 -0.052319
v -0.311012 -0.506187 -0.061846
v -0.147978 -0.269306 -0.061278
v -0.198892 -0.296314 -0.082367
v -0.247848 -0.376299 -0.102645
v -0.292967 -0.506187 -0.121334
v -0.133177 -0.269307 -0.088970
v -0.178997 -0.296314 -0.119586
v -0.223057 -0.376299 -0.149026
v -0.263663 -0.506187 -0.176157
v -0.113257 -0.269307 -0.113242
v -0.152224 -0.296314 -0.152209
v -0.189694 -0.376299 -0.189679
v -0.224227 -0.506187 -0.224211
v -0.088985 -0.269307 -0.133162
v -0.119602 -0.296314 -0.178982
v -0.149041 -0.376299 -0.223042
v -0.176173 -0.506187 -0.263647
v -0.061293 -0.269307 -0.147963
v -0.082382 -0.296314 -0.198876
v -0.102661 -0.376299 -0.247833
v -0.121350 -0.506187 -0.292951
v -0.031246 -0.269307 -0.157078
v -0.041997 -0.296314 -0.211127
v -0.052335 -0.376299 -0.263099
v -0.061863 -0.506187 -0.310996
vn 0.0918 0.3504 -0.9321
vn 0.0818 0.5504 -0.8309
vn 0.0433 0.8971 -0.4397
vn 0.2719 0.3504 -0.8963
vn 0.2424 0.5504 -0.7989
vn 0.1282 0.8971 -0.4228
vn 0.4415 0.3504 -0.8260
vn 0.3936 0.5504 -0.7363
vn 0.2083 0.8971 -0.3896
vn 0.5942 0.3504 -0.7240
vn 0.5296 0.5504 -0.6454
vn 0.2803 0.8971 -0.3415
vn 0.7240 0.3504 -0.5942
vn 0.6454 0.5504 -0.5296
vn 0.3415 0.8971 -0.2803
vn 0.8260 0.3504 -0.4415
vn 0.7363 0.5504 -0.3936
vn 0.3896 0.8971 -0.2083
vn 0.8963 0.3504 -0.2719
vn 0.7989 0.5504 -0.2424
vn 0.4228 0.8971 -0.1282
vn 0.9321 0.3504 -0.0918
vn 0.8309 0.5504 -0.0818
vn 0.4397 0.8971 -0.0433
vn 0.9321 0.3504 0.0918
vn 0.8309 0.5504 0.0818
vn 0.4397 0.8971 0.0433
vn 0.8963 0.3504 0.2719
vn 0.7989 0.5504 0.2424
vn 0.4228 0.8971 0.1282
vn 0.8260 0.3504 0.4415
vn 0.7363 0.5504 0.3936
vn 0.3896 0.8971 0.2083
vn 0.7240 0.3504 0.5942
vn 0.6454 0.5504 0.5296
vn 0.3415 0.8971 0.2803
vn 0.5942 0.3504 0.7240
vn 0.5296 0.5504 0.6454
vn 0.2803 0.8971 0.3415
vn 0.4415 0.3504 0.8260
vn 0.3936 0.5504 0.7363
vn 0.2083 0.8971 0.3896
vn 0.2719 0.3504 0.8963
vn 0.2424 0.5504 0.7989
vn 0.1282 0.8971 0.4228
vn 0.0918 0.3504 0.9321
vn 0.0818 0.5504 0.8309
vn 0.0433 0.8971 0.4397
vn -0.0918 0.3504 0.9321
vn -0.0818 0.5504 0.8309
vn -0.0433 0.8971 0.4397
vn -0.2719 0.3504 0.8963
vn -0.2424 0.5504 0.7989
vn -0.1282 0.8971 0.4228
vn -0.4415 0.3504 0.8260
vn -0.3936 0.5504 0.7363
vn -0.2083 0.8971 0.3896
vn -0.5942 0.3504 0.7240
vn -0.5296 0.5504 0.6454
vn -0.2803 0.8971 0.3415
vn -0.7240 0.3504 0.5942
vn -0.6454 0.5504 0.5296
vn -0.3415 0.8971 0.2803
vn -0.8260 0.3504 0.4415
vn -0.7363 0.5504 0.3936
vn -0.3896 0.8971 0.2083
vn -0.8963 0.3504 0.2719
vn -0.7989 0.5504 0.2424
vn -0.4228 0.8971 0.1282
vn -0.9321 0.3504 0.0918
vn -0.8309 0.5504 0.0818
vn -0.4397 0.8971 0.0433
vn -0.9321 0.3504 -0.0918
vn -0.8309 0.5504 -0.0818
vn -0.4397 0.8971 -0.0433
vn -0.8963 0.3504 -0.2719
vn -0.7989 0.5504 -0.2424
vn -0.4228 0.8971 -0.1282
vn -0.8260 0.3504 -0.4415
vn -0.7363 0.5504 -0.3936
vn -0.3896 0.8971 -0.2083
vn -0.7240 0.3504 -0.5942
vn -0.6454 0.5504 -0.5296
vn -0.3415 0.8971 -0.2803
vn -0.5942 0.3504 -0.7240
vn -0.5296 0.5504 -0.6454
vn -0.2803 0.8971 -0.3415
vn -0.4415 0.3504 -0.8260
vn -0.3936 0.5504 -0.7363
vn -0.2083 0.8971 -0.3896
vn -0.2719 0.3504 -0.8963
vn -0.2424 0.5504 -0.7989
vn -0.1282 0.8971 -0.4228
vn -0.0918 0.3504 -0.9321
vn -0.0818 0.5504 -0.8309
vn -0.0433 0.8971 -0.4397
vn -0.0000 1.0000 -0.0000
vn -0.0000 -1.0000 -0.0000
vt 0.322352 0.715900
vt 0.301686 0.736566
vt 0.287121 0.718817
vt 0.304604 0.701334
vt 0.271316 0.699560
vt 0.285346 0.685530
vt 0.254880 0.679532
vt 0.265318 0.669093
vt 0.338589 0.691599
vt 0.318341 0.680776
vt 0.296369 0.669032
vt 0.273520 0.656819
vt 0.349774 0.664598
vt 0.327802 0.657933
vt 0.303962 0.650701
vt 0.279169 0.643180
vt 0.355475 0.635933
vt 0.332626 0.633683
vt 0.307833 0.631241
vt 0.282049 0.628701
vt 0.355475 0.606707
vt 0.332626 0.608958
vt 0.307833 0.611400
vt 0.282049 0.613939
vt 0.349774 0.578042
vt 0.327802 0.584707
vt 0.303962 0.591939
vt 0.279169 0.599460
vt 0.338589 0.551041
vt 0.318341 0.561865
vt 0.296369 0.573608
vt 0.273520 0.585822
vt 0.322352 0.526741
vt 0.304604 0.541306
vt 0.285346 0.557111
vt 0.265318 0.573547
vt 0.301686 0.506074
vt 0.287121 0.523823
vt 0.271316 0.543081
vt 0.254880 0.563109
vt 0.277385 0.489837
vt 0.266562 0.510086
vt 0.254818 0.532058
vt 0.242605 0.554907
vt 0.250384 0.478653
vt 0.243719 0.500624
vt 0.236487 0.524465
vt 0.228967 0.549258
vt 0.221720 0.472951
vt 0.219469 0.495801
vt 0.217027 0.520594
vt 0.214488 0.546378
vt 0.192493 0.472951
vt 0.194744 0.495801
vt 0.197186 0.520594
vt 0.199726 0.546378
vt 0.163829 0.478653
vt 0.170494 0.500624
vt 0.177726 0.524465
vt 0.185247 0.549258
vt 0.136827 0.489837
vt 0.147651 0.510086
vt 0.159395 0.532058
vt 0.171608 0.554907
vt 0.112527 0.506075
vt 0.127093 0.523823
vt 0.142897 0.543081
vt 0.159334 0.563109
vt 0.091861 0.526740
vt 0.109609 0.541306
vt 0.128868 0.557111
vt 0.148895 0.573547
vt 0.075624 0.551041
vt 0.095873 0.561864
vt 0.117844 0.573609
vt 0.140694 0.585822
vt 0.064439 0.578043
vt 0.086411 0.584707
vt 0.110251 0.591940
vt 0.135044 0.599460
vt 0.058738 0.606707
vt 0.081587 0.608958
vt 0.106380 0.611400
vt 0.132165 0.613939
vt 0.058738 0.635933
vt 0.081587 0.633683
vt 0.106380 0.631241
vt 0.132164 0.628701
vt 0.064439 0.664598
vt 0.086411 0.657933
vt 0.110251 0.650701
vt 0.135045 0.643180
vt 0.075624 0.691599
vt 0.095873 0.680776
vt 0.117844 0.669032
vt 0.140694 0.656819
vt 0.091861 0.715900
vt 0.109609 0.701334
vt 0.128868 0.685529
vt 0.148895 0.669093
vt 0.112527 0.736566
vt 0.127093 0.718818
vt 0.142897 0.699559
vt 0.159334 0.679532
vt 0.136827 0.752803
vt 0.147651 0.732554
vt 0.159395 0.710583
vt 0.171608 0.687733
vt 0.163829 0.763987
vt 0.170494 0.742016
vt 0.177726 0.718176
vt 0.185247 0.693383
vt 0.192493 0.769689
vt 0.194744 0.746840
vt 0.197186 0.722047
vt 0.199726 0.696262
vt 0.221720 0.769689
vt 0.219469 0.746840
vt 0.217027 0.722047
vt 0.214488 0.696263
vt 0.250384 0.763987
vt 0.243719 0.742016
vt 0.236488 0.718176
vt 0.228967 0.693382
vt 0.277386 0.752803
vt 0.266562 0.732554
vt 0.254818 0.710583
vt 0.242605 0.687733
s 0
f 72/136/35 68/137/35 67/138/35 71/139/35
f 71/139/36 67/138/36 66/140/36 70/141/36
f 70/141/37 66/140/37 65/142/37 69/143/37
f 76/144/38 72/136/38 71/139/38 75/145/38
f 75/145/39 71/139/39 70/141/39 74/146/39
f 74/146/40 70/141/40 69/143/40 73/147/40
f 80/148/41 76/144/41 75/145/41 79/149/41
f 79/149/42 75/145/42 74/146/42 78/150/42
f 78/150/43 74/146/43 73/147/43 77/151/43
f 84/152/44 80/148/44 79/149/44 83/153/44
f 83/153/45 79/149/45 78/150/45 82/154/45
f 82/154/46 78/150/46 77/151/46 81/155/46
f 88/156/47 84/152/47 83/153/47 87/157/47
f 87/157/48 83/153/48 82/154/48 86/158/48
f 86/158/49 82/154/49 81/155/49 85/159/49
f 92/160/50 88/156/50 87/157/50 91/161/50
f 91/161/51 87/157/51 86/158/51 90/162/51
f 90/162/52 86/158/52 85/159/52 89/163/52
f 96/164/53 92/160/53 91/161/53 95/165/53
f 95/165/54 91/161/54 90/162/54 94/166/54
f 94/166/55 90/162/55 89/163/55 93/167/55
f 100/168/56 96/164/56 95/165/56 99/169/56
f 99/169/57 95/165/57 94/166/57 98/170/57
f 98/170/58 94/166/58 93/167/58 97/171/58
f 104/172/59 100/168/59 99/169/59 103/173/59
f 103/173/60 99/169/60 98/170/60 102/174/60
f 102/174/61 98/170/61 97/171/61 101/175/61
f 108/176/62 104/172/62 103/173/62 107/177/62
f 107/177/63 103/173/63 102/174/63 106/178/63
f 106/178/64 102/174/64 101/175/64 105/179/64
f 112/180/65 108/176/65 107/177/65 111/181/65
f 111/181/66 107/177/66 106/178/66 110/182/66
f 110/182/67 106/178/67 105/179/67 109/183/67
f 116/184/68 112/180/68 111/181/68 115/185/68
f 115/185/69 111/181/69 110/182/69 114/186/69
f 114/186/70 110/182/70 109/183/70 113/187/70
f 120/188/71 116/184/71 115/185/71 119/189/71
f 119/189/72 115/185/72 114/186/72 118/190/72
f 118/190/73 114/186/73 113/187/73 117/191/73
f 124/192/74 120/188/74 119/189/74 123/193/74
f 123/193/75 119/189/75 118/190/75 122/194/75
f 122/194/76 118/190/76 117/191/76 121/195/76
f 128/196/77 124/192/77 123/193/77 127/197/77
f 127/197/78 123/193/78 122/194/78 126/198/78
f 126/198/79 122/194/79 121/195/79 125/199/79
f 132/200/80 128/196/80 127/197/80 131/201/80
f 131/201/81 127/197/81 126/198/81 130/202/81
f 130/202/82 126/198/82 125/199/82 129/203/82
f 136/204/83 132/200/83 131/201/83 135/205/83
f 135/205/84 131/201/84 130/202/84 134/206/84
f 134/206/85 130/202/85 129/203/85 133/207/85
f 140/208/86 136/204/86 135/205/86 139/209/86
f 139/209/87 135/205/87 134/206/87 138/210/87
f 138/210/88 134/206/88 133/207/88 137/211/88
f 144/212/89 140/208/89 139/209/89 143/213/89
f 143/213/90 139/209/90 138/210/90 142/214/90
f 142/214/91 138/210/91 137/211/91 141/215/91
f 148/216/92 144/212/92 143/213/92 147/217/92
f 147/217/93 143/213/93 142/214/93 146/218/93
f 146/218/94 142/214/94 141/215/94 145/219/94
f 152/220/95 148/216/95 147/217/95 151/221/95
f 151/221/96 147/217/96 146/218/96 150/222/96
f 150/222/97 146/218/97 145/219/97 149/223/97
f 156/224/98 152/220/98 151/221/98 155/225/98
f 155/225/99 151/221/99 150/222/99 154/226/99
f 154/226/100 150/222/100 149/223/100 153/227/100
f 160/228/101 156/224/101 155/225/101 159/229/101
f 159/229/102 155/225/102 154/226/102 158/230/102
f 158/230/103 154/226/103 153/227/103 157/231/103
f 164/232/104 160/228/104 159/229/104 163/233/104
f 163/233/105 159/229/105 158/230/105 162/234/105
f 162/234/106 158/230/106 157/231/106 161/235/106
f 168/236/107 164/232/107 163/233/107 167/237/107
f 167/237/108 163/233/108 162/234/108 166/238/108
f 166/238/109 162/234/109 161/235/109 165/239/109
f 172/240/110 168/236/110 167/237/110 171/241/110
f 171/241/111 167/237/111 166/238/111 170/242/111
f 170/242/112 166/238/112 165/239/112 169/243/112
f 176/244/113 172/240/113 171/241/113 175/245/113
f 175/245/114 171/241/114 170/242/114 174/246/114
f 174/246/115 170/242/115 169/243/115 173/247/115
f 180/248/116 176/244/116 175/245/116 179/249/116
f 179/249/117 175/245/117 174/246/117 178/250/117
f 178/250/118 174/246/118 173/247/118 177/251/118
f 184/252/119 180/248/119 179/249/119 183/253/119
f 183/253/120 179/249/120 178/250/120 182/254/120
f 182/254/121 178/250/121 177/251/121 181/255/121
f 188/256/122 184/252/122 183/253/122 187/257/122
f 187/257/123 183/253/123 182/254/123 186/258/123
f 186/258/124 182/254/124 181/255/124 185/259/124
f 192/260/125 188/256/125 187/257/125 191/261/125
f 191/261/126 187/257/126 186/258/126 190/262/126
f 190/262/127 186/258/127 185/259/127 189/263/127
f 68/137/128 192/260/128 191/261/128 67/138/128
f 67/138/129 191/261/129 190/262/129 66/140/129
f 66/140/130 190/262/130 189/263/130 65/142/130
f 69/143/131 65/142/131 189/263/131 185/259/131 181/255/131 177/251/131 173/247/131 169/243/131 165/239/131 161/235/131 157/231/131 153/227/131 149/223/131 145/219/131 141/215/131 137/211/131 133/207/131 129/203/131 125/199/131 121/195/131 117/191/131 113/187/131 109/183/131 105/179/131 101/175/131 97/171/131 93/167/131 89/163/131 85/159/131 81/155/131 77/151/131 73/147/131
f 68/137/132 72/136/132 76/144/132 80/148/132 84/152/132 88/156/132 92/160/132 96/164/132 100/168/132 104/172/132 108/176/132 112/180/132 116/184/132 120/188/132 124/192/132 128/196/132 132/200/132 136/204/132 140/208/132 144/212/132 148/216/132 152/220/132 156/224/132 160/228/132 164/232/132 168/236/132 172/240/132 176/244/132 180/248/132 184/252/132 188/256/132 192/260/132
