# Blender 4.3.2
# www.blender.org
mtllib mystreets_truss.mtl
o Cube
v 0.500000 0.500773 -0.500773
v 0.500000 0.399007 -0.500773
v 0.500000 0.500773 -0.399007
v 0.500000 0.399007 -0.399007
v -0.500000 0.500773 -0.500773
v -0.500000 0.399007 -0.500773
v -0.500000 0.500773 -0.399007
v -0.500000 0.399007 -0.399007
vn -0.0000 1.0000 -0.0000
vn -0.0000 -0.0000 1.0000
vn -1.0000 -0.0000 -0.0000
vn -0.0000 -1.0000 -0.0000
vn 1.0000 -0.0000 -0.0000
vn -0.0000 -0.0000 -1.0000
vt 0.333333 0.000000
vt 0.333333 0.111111
vt 0.222222 0.111111
vt 0.222222 0.000000
vt 0.333333 0.222222
vt 0.222222 0.222222
vt 0.222222 0.111111
vt 0.333333 0.111111
vt 0.333333 0.333333
vt 0.222222 0.333333
vt 0.222222 0.222222
vt 0.111111 0.333333
vt 0.111111 0.444444
vt -0.000000 0.444444
vt 0.000000 0.333333
vt 0.222222 0.444444
vt 0.111111 0.444444
vt 0.111111 0.333333
vt 0.222222 0.333333
vt 0.333333 0.444444
vt 0.222222 0.444444
vt 0.222222 0.333333
vt 0.333333 0.333333
s 0
usemtl Material
f 1/1/1 5/2/1 7/3/1 3/4/1
f 4/5/2 3/6/2 7/7/2 8/8/2
f 8/9/3 7/10/3 5/11/3 6/5/3
f 6/12/4 2/13/4 4/14/4 8/15/4
f 2/16/5 1/17/5 3/18/5 4/19/5
f 6/20/6 5/21/6 1/22/6 2/23/6
o Cube.005
v 0.396317 0.401041 -0.500773
v 0.500890 0.401041 -0.500773
v 0.396317 0.401041 -0.401814
v 0.500890 0.401041 -0.401814
v 0.396317 -0.401041 -0.500773
v 0.500889 -0.401041 -0.500773
v 0.396317 -0.401041 -0.401814
v 0.500889 -0.401041 -0.401814
vn -1.0000 -0.0000 -0.0000
vn -0.0000 -0.0000 1.0000
vn -0.0000 -1.0000 -0.0000
vn 1.0000 -0.0000 -0.0000
vn -0.0000 1.0000 -0.0000
vn -0.0000 -0.0000 -1.0000
vt 0.666667 0.000000
vt 0.666667 0.111111
vt 0.555556 0.111111
vt 0.555556 0.000000
vt 0.666667 0.222222
vt 0.555556 0.222222
vt 0.555556 0.111111
vt 0.666667 0.111111
vt 0.666667 0.333333
vt 0.555556 0.333333
vt 0.555556 0.222222
vt 0.666667 0.333333
vt 0.666667 0.444444
vt 0.555556 0.444444
vt 0.555556 0.333333
vt 0.666667 0.555556
vt 0.555556 0.555556
vt 0.666667 0.666667
vt 0.555556 0.666667
s 0
usemtl Material
f 9/24/7 13/25/7 15/26/7 11/27/7
f 12/28/8 11/29/8 15/30/8 16/31/8
f 16/32/9 15/33/9 13/34/9 14/28/9
f 14/35/10 10/36/10 12/37/10 16/38/10
f 10/39/11 9/40/11 11/37/11 12/36/11
f 14/41/12 13/42/12 9/40/12 10/39/12
o Cube.009
v -0.498083 0.500773 0.403848
v -0.399124 0.500773 0.403848
v -0.498083 0.399007 0.403848
v -0.399124 0.399007 0.403848
v -0.498083 0.500773 -0.401041
v -0.399124 0.500773 -0.401041
v -0.498083 0.399007 -0.401041
v -0.399124 0.399007 -0.401041
vn -1.0000 -0.0000 -0.0000
vn -0.0000 -1.0000 -0.0000
vn -0.0000 -0.0000 -1.0000
vn 1.0000 -0.0000 -0.0000
vn -0.0000 -0.0000 1.0000
vn -0.0000 1.0000 -0.0000
vt 0.666667 0.777778
vt 0.666667 0.888889
vt 0.555556 0.888889
vt 0.555556 0.777778
vt 0.777778 0.888889
vt 0.777778 0.777778
vt 0.888889 0.111111
vt 0.777778 0.111111
vt 0.777778 0.000000
vt 0.888889 0.000000
vt 0.888889 0.111111
vt 0.888889 0.222222
vt 0.777778 0.222222
vt 0.777778 0.111111
vt 0.888889 0.333333
vt 0.777778 0.333333
vt 0.777778 0.222222
vt 0.888889 0.222222
vt 0.888889 0.444444
vt 0.777778 0.444444
vt 0.777778 0.333333
vt 0.888889 0.333333
s 0
usemtl Material
f 17/43/13 21/44/13 23/45/13 19/46/13
f 20/47/14 19/44/14 23/43/14 24/48/14
f 24/49/15 23/50/15 21/51/15 22/52/15
f 22/53/16 18/54/16 20/55/16 24/56/16
f 18/57/17 17/58/17 19/59/17 20/60/17
f 22/61/18 21/62/18 17/63/18 18/64/18
o Cube.001
v 0.500000 -0.400176 -0.500773
v 0.500000 -0.501942 -0.500773
v 0.500000 -0.400176 -0.399007
v 0.500000 -0.501942 -0.399007
v -0.500000 -0.400176 -0.500773
v -0.500000 -0.501942 -0.500773
v -0.500000 -0.400176 -0.399007
v -0.500000 -0.501942 -0.399007
vn -0.0000 1.0000 -0.0000
vn -0.0000 -0.0000 1.0000
vn -1.0000 -0.0000 -0.0000
vn -0.0000 -1.0000 -0.0000
vn 1.0000 -0.0000 -0.0000
vn -0.0000 -0.0000 -1.0000
vt 0.333333 0.000000
vt 0.333333 0.111111
vt 0.222222 0.111111
vt 0.222222 0.000000
vt 0.333333 0.222222
vt 0.222222 0.222222
vt 0.222222 0.111111
vt 0.333333 0.111111
vt 0.333333 0.333333
vt 0.222222 0.333333
vt 0.222222 0.222222
vt 0.111111 0.333333
vt 0.111111 0.444444
vt -0.000000 0.444444
vt 0.000000 0.333333
vt 0.222222 0.444444
vt 0.111111 0.444444
vt 0.111111 0.333333
vt 0.222222 0.333333
vt 0.333333 0.444444
vt 0.222222 0.444444
vt 0.222222 0.333333
vt 0.333333 0.333333
s 0
usemtl Material
f 25/65/19 29/66/19 31/67/19 27/68/19
f 28/69/20 27/70/20 31/71/20 32/72/20
f 32/73/21 31/74/21 29/75/21 30/69/21
f 30/76/22 26/77/22 28/78/22 32/79/22
f 26/80/23 25/81/23 27/82/23 28/83/23
f 30/84/24 29/85/24 25/86/24 26/87/24
o Cube.002
v 0.500000 -0.400176 0.400176
v 0.500000 -0.501942 0.400176
v 0.500000 -0.400176 0.501942
v 0.500000 -0.501942 0.501942
v -0.500000 -0.400176 0.400176
v -0.500000 -0.501942 0.400176
v -0.500000 -0.400176 0.501942
v -0.500000 -0.501942 0.501942
vn -0.0000 1.0000 -0.0000
vn -0.0000 -0.0000 1.0000
vn -1.0000 -0.0000 -0.0000
vn -0.0000 -1.0000 -0.0000
vn 1.0000 -0.0000 -0.0000
vn -0.0000 -0.0000 -1.0000
vt 0.333333 0.000000
vt 0.333333 0.111111
vt 0.222222 0.111111
vt 0.222222 0.000000
vt 0.333333 0.222222
vt 0.222222 0.222222
vt 0.222222 0.111111
vt 0.333333 0.111111
vt 0.333333 0.333333
vt 0.222222 0.333333
vt 0.222222 0.222222
vt 0.111111 0.333333
vt 0.111111 0.444444
vt -0.000000 0.444444
vt 0.000000 0.333333
vt 0.222222 0.444444
vt 0.111111 0.444444
vt 0.111111 0.333333
vt 0.222222 0.333333
vt 0.333333 0.444444
vt 0.222222 0.444444
vt 0.222222 0.333333
vt 0.333333 0.333333
s 0
usemtl Material
f 33/88/25 37/89/25 39/90/25 35/91/25
f 36/92/26 35/93/26 39/94/26 40/95/26
f 40/96/27 39/97/27 37/98/27 38/92/27
f 38/99/28 34/100/28 36/101/28 40/102/28
f 34/103/29 33/104/29 35/105/29 36/106/29
f 38/107/30 37/108/30 33/109/30 34/110/30
o Cube.003
v 0.500000 0.500773 0.400176
v 0.500000 0.399007 0.400176
v 0.500000 0.500773 0.501942
v 0.500000 0.399007 0.501942
v -0.500000 0.500773 0.400176
v -0.500000 0.399007 0.400176
v -0.500000 0.500773 0.501942
v -0.500000 0.399007 0.501942
vn -0.0000 1.0000 -0.0000
vn -0.0000 -0.0000 1.0000
vn -1.0000 -0.0000 -0.0000
vn -0.0000 -1.0000 -0.0000
vn 1.0000 -0.0000 -0.0000
vn -0.0000 -0.0000 -1.0000
vt 0.333333 0.000000
vt 0.333333 0.111111
vt 0.222222 0.111111
vt 0.222222 0.000000
vt 0.333333 0.222222
vt 0.222222 0.222222
vt 0.222222 0.111111
vt 0.333333 0.111111
vt 0.333333 0.333333
vt 0.222222 0.333333
vt 0.222222 0.222222
vt 0.111111 0.333333
vt 0.111111 0.444444
vt -0.000000 0.444444
vt 0.000000 0.333333
vt 0.222222 0.444444
vt 0.111111 0.444444
vt 0.111111 0.333333
vt 0.222222 0.333333
vt 0.333333 0.444444
vt 0.222222 0.444444
vt 0.222222 0.333333
vt 0.333333 0.333333
s 0
usemtl Material
f 41/111/31 45/112/31 47/113/31 43/114/31
f 44/115/32 43/116/32 47/117/32 48/118/32
f 48/119/33 47/120/33 45/121/33 46/115/33
f 46/122/34 42/123/34 44/124/34 48/125/34
f 42/126/35 41/127/35 43/128/35 44/129/35
f 46/130/36 45/131/36 41/132/36 42/133/36
o Cube.004
v -0.498083 -0.400176 0.403848
v -0.399124 -0.400177 0.403848
v -0.498083 -0.501942 0.403848
v -0.399124 -0.501942 0.403848
v -0.498083 -0.400176 -0.401041
v -0.399124 -0.400176 -0.401041
v -0.498083 -0.501942 -0.401041
v -0.399124 -0.501942 -0.401041
vn -1.0000 -0.0000 -0.0000
vn -0.0000 -1.0000 -0.0000
vn -0.0000 -0.0000 -1.0000
vn 1.0000 -0.0000 -0.0000
vn -0.0000 -0.0000 1.0000
vn -0.0000 1.0000 -0.0000
vt 0.666667 0.777778
vt 0.666667 0.888889
vt 0.555556 0.888889
vt 0.555556 0.777778
vt 0.777778 0.888889
vt 0.777778 0.777778
vt 0.888889 0.111111
vt 0.777778 0.111111
vt 0.777778 0.000000
vt 0.888889 0.000000
vt 0.888889 0.111111
vt 0.888889 0.222222
vt 0.777778 0.222222
vt 0.777778 0.111111
vt 0.888889 0.333333
vt 0.777778 0.333333
vt 0.777778 0.222222
vt 0.888889 0.222222
vt 0.888889 0.444444
vt 0.777778 0.444444
vt 0.777778 0.333333
vt 0.888889 0.333333
s 0
usemtl Material
f 49/134/37 53/135/37 55/136/37 51/137/37
f 52/138/38 51/135/38 55/134/38 56/139/38
f 56/140/39 55/141/39 53/142/39 54/143/39
f 54/144/40 50/145/40 52/146/40 56/147/40
f 50/148/41 49/149/41 51/150/41 52/151/41
f 54/152/42 53/153/42 49/154/42 50/155/42
o Cube.006
v 0.402866 -0.400176 0.403848
v 0.501825 -0.400177 0.403848
v 0.402866 -0.501942 0.403848
v 0.501825 -0.501942 0.403848
v 0.402866 -0.400176 -0.401041
v 0.501825 -0.400176 -0.401041
v 0.402866 -0.501942 -0.401041
v 0.501825 -0.501942 -0.401041
vn -1.0000 -0.0000 -0.0000
vn -0.0000 -1.0000 -0.0000
vn -0.0000 -0.0000 -1.0000
vn 1.0000 -0.0000 -0.0000
vn -0.0000 -0.0000 1.0000
vn -0.0000 1.0000 -0.0000
vt 0.666667 0.777778
vt 0.666667 0.888889
vt 0.555556 0.888889
vt 0.555556 0.777778
vt 0.777778 0.888889
vt 0.777778 0.777778
vt 0.888889 0.111111
vt 0.777778 0.111111
vt 0.777778 0.000000
vt 0.888889 0.000000
vt 0.888889 0.111111
vt 0.888889 0.222222
vt 0.777778 0.222222
vt 0.777778 0.111111
vt 0.888889 0.333333
vt 0.777778 0.333333
vt 0.777778 0.222222
vt 0.888889 0.222222
vt 0.888889 0.444444
vt 0.777778 0.444444
vt 0.777778 0.333333
vt 0.888889 0.333333
s 0
usemtl Material
f 57/156/43 61/157/43 63/158/43 59/159/43
f 60/160/44 59/157/44 63/156/44 64/161/44
f 64/162/45 63/163/45 61/164/45 62/165/45
f 62/166/46 58/167/46 60/168/46 64/169/46
f 58/170/47 57/171/47 59/172/47 60/173/47
f 62/174/48 61/175/48 57/176/48 58/177/48
o Cube.007
v 0.402866 0.500773 0.403848
v 0.501825 0.500773 0.403848
v 0.402866 0.399007 0.403848
v 0.501825 0.399007 0.403848
v 0.402866 0.500773 -0.401041
v 0.501825 0.500773 -0.401041
v 0.402866 0.399007 -0.401041
v 0.501825 0.399007 -0.401041
vn -1.0000 -0.0000 -0.0000
vn -0.0000 -1.0000 -0.0000
vn -0.0000 -0.0000 -1.0000
vn 1.0000 -0.0000 -0.0000
vn -0.0000 -0.0000 1.0000
vn -0.0000 1.0000 -0.0000
vt 0.666667 0.777778
vt 0.666667 0.888889
vt 0.555556 0.888889
vt 0.555556 0.777778
vt 0.777778 0.888889
vt 0.777778 0.777778
vt 0.888889 0.111111
vt 0.777778 0.111111
vt 0.777778 0.000000
vt 0.888889 0.000000
vt 0.888889 0.111111
vt 0.888889 0.222222
vt 0.777778 0.222222
vt 0.777778 0.111111
vt 0.888889 0.333333
vt 0.777778 0.333333
vt 0.777778 0.222222
vt 0.888889 0.222222
vt 0.888889 0.444444
vt 0.777778 0.444444
vt 0.777778 0.333333
vt 0.888889 0.333333
s 0
usemtl Material
f 65/178/49 69/179/49 71/180/49 67/181/49
f 68/182/50 67/179/50 71/178/50 72/183/50
f 72/184/51 71/185/51 69/186/51 70/187/51
f 70/188/52 66/189/52 68/190/52 72/191/52
f 66/192/53 65/193/53 67/194/53 68/195/53
f 70/196/54 69/197/54 65/198/54 66/199/54
o Cube.008
v -0.499019 0.401041 -0.500773
v -0.394446 0.401041 -0.500773
v -0.499019 0.401041 -0.401814
v -0.394446 0.401041 -0.401814
v -0.499019 -0.401041 -0.500773
v -0.394446 -0.401041 -0.500773
v -0.499019 -0.401041 -0.401814
v -0.394446 -0.401041 -0.401814
vn -1.0000 -0.0000 -0.0000
vn -0.0000 -0.0000 1.0000
vn -0.0000 -1.0000 -0.0000
vn 1.0000 -0.0000 -0.0000
vn -0.0000 1.0000 -0.0000
vn -0.0000 -0.0000 -1.0000
vt 0.666667 0.000000
vt 0.666667 0.111111
vt 0.555556 0.111111
vt 0.555556 0.000000
vt 0.666667 0.222222
vt 0.555556 0.222222
vt 0.555556 0.111111
vt 0.666667 0.111111
vt 0.666667 0.333333
vt 0.555556 0.333333
vt 0.555556 0.222222
vt 0.666667 0.333333
vt 0.666667 0.444444
vt 0.555556 0.444444
vt 0.555556 0.333333
vt 0.666667 0.555556
vt 0.555556 0.555556
vt 0.666667 0.666667
vt 0.555556 0.666667
s 0
usemtl Material
f 73/200/55 77/201/55 79/202/55 75/203/55
f 76/204/56 75/205/56 79/206/56 80/207/56
f 80/208/57 79/209/57 77/210/57 78/204/57
f 78/211/58 74/212/58 76/213/58 80/214/58
f 74/215/59 73/216/59 75/213/59 76/212/59
f 78/217/60 77/218/60 73/216/60 74/215/60
o Cube.010
v -0.499019 0.401041 0.405790
v -0.394446 0.401041 0.405790
v -0.499019 0.401041 0.504749
v -0.394446 0.401041 0.504749
v -0.499019 -0.401041 0.405790
v -0.394446 -0.401041 0.405790
v -0.499019 -0.401041 0.504749
v -0.394446 -0.401041 0.504749
vn -1.0000 -0.0000 -0.0000
vn -0.0000 -0.0000 1.0000
vn -0.0000 -1.0000 -0.0000
vn 1.0000 -0.0000 -0.0000
vn -0.0000 1.0000 -0.0000
vn -0.0000 -0.0000 -1.0000
vt 0.666667 0.000000
vt 0.666667 0.111111
vt 0.555556 0.111111
vt 0.555556 0.000000
vt 0.666667 0.222222
vt 0.555556 0.222222
vt 0.555556 0.111111
vt 0.666667 0.111111
vt 0.666667 0.333333
vt 0.555556 0.333333
vt 0.555556 0.222222
vt 0.666667 0.333333
vt 0.666667 0.444444
vt 0.555556 0.444444
vt 0.555556 0.333333
vt 0.666667 0.555556
vt 0.555556 0.555556
vt 0.666667 0.666667
vt 0.555556 0.666667
s 0
usemtl Material
f 81/219/61 85/220/61 87/221/61 83/222/61
f 84/223/62 83/224/62 87/225/62 88/226/62
f 88/227/63 87/228/63 85/229/63 86/223/63
f 86/230/64 82/231/64 84/232/64 88/233/64
f 82/234/65 81/235/65 83/232/65 84/231/65
f 86/236/66 85/237/66 81/235/66 82/234/66
o Cube.011
v 0.396317 0.401041 0.405790
v 0.500890 0.401041 0.405790
v 0.396317 0.401041 0.504749
v 0.500890 0.401041 0.504749
v 0.396317 -0.401041 0.405790
v 0.500889 -0.401041 0.405790
v 0.396317 -0.401041 0.504749
v 0.500889 -0.401041 0.504749
vn -1.0000 -0.0000 -0.0000
vn -0.0000 -0.0000 1.0000
vn -0.0000 -1.0000 -0.0000
vn 1.0000 -0.0000 -0.0000
vn -0.0000 1.0000 -0.0000
vn -0.0000 -0.0000 -1.0000
vt 0.666667 0.000000
vt 0.666667 0.111111
vt 0.555556 0.111111
vt 0.555556 0.000000
vt 0.666667 0.222222
vt 0.555556 0.222222
vt 0.555556 0.111111
vt 0.666667 0.111111
vt 0.666667 0.333333
vt 0.555556 0.333333
vt 0.555556 0.222222
vt 0.666667 0.333333
vt 0.666667 0.444444
vt 0.555556 0.444444
vt 0.555556 0.333333
vt 0.666667 0.555556
vt 0.555556 0.555556
vt 0.666667 0.666667
vt 0.555556 0.666667
s 0
usemtl Material
f 89/238/67 93/239/67 95/240/67 91/241/67
f 92/242/68 91/243/68 95/244/68 96/245/68
f 96/246/69 95/247/69 93/248/69 94/242/69
f 94/249/70 90/250/70 92/251/70 96/252/70
f 90/253/71 89/254/71 91/251/71 92/250/71
f 94/255/72 93/256/72 89/254/72 90/253/72
o Cube.012
v 0.441104 0.478319 0.409729
v 0.443911 0.424267 0.409729
v 0.411245 0.478319 0.453621
v 0.414052 0.424267 0.453621
v -0.423178 0.478319 -0.451746
v -0.420371 0.424267 -0.451746
v -0.453036 0.478319 -0.407854
v -0.450230 0.424267 -0.407854
vn -0.0000 1.0000 -0.0000
vn -0.7055 -0.0366 0.7078
vn -0.8261 -0.0429 -0.5619
vn -0.0000 -1.0000 -0.0000
vn 0.8261 0.0429 0.5619
vn 0.7055 0.0366 -0.7078
vt 0.333333 0.000000
vt 0.333333 0.111111
vt 0.222222 0.111111
vt 0.222222 0.000000
vt 0.333333 0.222222
vt 0.222222 0.222222
vt 0.222222 0.111111
vt 0.333333 0.111111
vt 0.333333 0.333333
vt 0.222222 0.333333
vt 0.222222 0.222222
vt 0.111111 0.333333
vt 0.111111 0.444444
vt -0.000000 0.444444
vt 0.000000 0.333333
vt 0.222222 0.444444
vt 0.111111 0.444444
vt 0.111111 0.333333
vt 0.222222 0.333333
vt 0.333333 0.444444
vt 0.222222 0.444444
vt 0.222222 0.333333
vt 0.333333 0.333333
s 0
usemtl Material
f 97/257/73 101/258/73 103/259/73 99/260/73
f 100/261/74 99/262/74 103/263/74 104/264/74
f 104/265/75 103/266/75 101/267/75 102/261/75
f 102/268/76 98/269/76 100/270/76 104/271/76
f 98/272/77 97/273/77 99/274/77 100/275/77
f 102/276/78 101/277/78 97/278/78 98/279/78
o Cube.013
v 0.441104 -0.425258 0.409729
v 0.443911 -0.479310 0.409729
v 0.411245 -0.425258 0.453621
v 0.414052 -0.479310 0.453621
v -0.423178 -0.425258 -0.451746
v -0.420371 -0.479310 -0.451746
v -0.453036 -0.425258 -0.407854
v -0.450230 -0.479310 -0.407854
vn -0.0000 1.0000 -0.0000
vn -0.7055 -0.0366 0.7078
vn -0.8261 -0.0429 -0.5619
vn -0.0000 -1.0000 -0.0000
vn 0.8261 0.0429 0.5619
vn 0.7055 0.0366 -0.7078
vt 0.333333 0.000000
vt 0.333333 0.111111
vt 0.222222 0.111111
vt 0.222222 0.000000
vt 0.333333 0.222222
vt 0.222222 0.222222
vt 0.222222 0.111111
vt 0.333333 0.111111
vt 0.333333 0.333333
vt 0.222222 0.333333
vt 0.222222 0.222222
vt 0.111111 0.333333
vt 0.111111 0.444444
vt -0.000000 0.444444
vt 0.000000 0.333333
vt 0.222222 0.444444
vt 0.111111 0.444444
vt 0.111111 0.333333
vt 0.222222 0.333333
vt 0.333333 0.444444
vt 0.222222 0.444444
vt 0.222222 0.333333
vt 0.333333 0.333333
s 0
usemtl Material
f 105/280/79 109/281/79 111/282/79 107/283/79
f 108/284/80 107/285/80 111/286/80 112/287/80
f 112/288/81 111/289/81 109/290/81 110/284/81
f 110/291/82 106/292/82 108/293/82 112/294/82
f 106/295/83 105/296/83 107/297/83 108/298/83
f 110/299/84 109/300/84 105/301/84 106/302/84
o Cube.014
v 0.476097 -0.447124 0.409729
v 0.422045 -0.449930 0.409729
v 0.476097 -0.417265 0.453621
v 0.422045 -0.420072 0.453621
v 0.476097 0.417158 -0.451746
v 0.422045 0.414351 -0.451746
v 0.476097 0.447017 -0.407854
v 0.422045 0.444210 -0.407854
vn 1.0000 -0.0000 -0.0000
vn -0.0366 0.7055 0.7078
vn -0.0429 0.8261 -0.5619
vn -1.0000 -0.0000 -0.0000
vn 0.0429 -0.8261 0.5619
vn 0.0366 -0.7055 -0.7078
vt 0.333333 0.000000
vt 0.333333 0.111111
vt 0.222222 0.111111
vt 0.222222 0.000000
vt 0.333333 0.222222
vt 0.222222 0.222222
vt 0.222222 0.111111
vt 0.333333 0.111111
vt 0.333333 0.333333
vt 0.222222 0.333333
vt 0.222222 0.222222
vt 0.111111 0.333333
vt 0.111111 0.444444
vt -0.000000 0.444444
vt 0.000000 0.333333
vt 0.222222 0.444444
vt 0.111111 0.444444
vt 0.111111 0.333333
vt 0.222222 0.333333
vt 0.333333 0.444444
vt 0.222222 0.444444
vt 0.222222 0.333333
vt 0.333333 0.333333
s 0
usemtl Material
f 113/303/85 117/304/85 119/305/85 115/306/85
f 116/307/86 115/308/86 119/309/86 120/310/86
f 120/311/87 119/312/87 117/313/87 118/307/87
f 118/314/88 114/315/88 116/316/88 120/317/88
f 114/318/89 113/319/89 115/320/89 116/321/89
f 118/322/90 117/323/90 113/324/90 114/325/90
o Cube.015
v -0.417797 -0.447124 0.409729
v -0.471849 -0.449930 0.409729
v -0.417797 -0.417265 0.453621
v -0.471849 -0.420072 0.453621
v -0.417797 0.417158 -0.451746
v -0.471849 0.414351 -0.451746
v -0.417797 0.447017 -0.407854
v -0.471849 0.444210 -0.407854
vn 1.0000 -0.0000 -0.0000
vn -0.0366 0.7055 0.7078
vn -0.0429 0.8261 -0.5619
vn -1.0000 -0.0000 -0.0000
vn 0.0429 -0.8261 0.5619
vn 0.0366 -0.7055 -0.7078
vt 0.333333 0.000000
vt 0.333333 0.111111
vt 0.222222 0.111111
vt 0.222222 0.000000
vt 0.333333 0.222222
vt 0.222222 0.222222
vt 0.222222 0.111111
vt 0.333333 0.111111
vt 0.333333 0.333333
vt 0.222222 0.333333
vt 0.222222 0.222222
vt 0.111111 0.333333
vt 0.111111 0.444444
vt -0.000000 0.444444
vt 0.000000 0.333333
vt 0.222222 0.444444
vt 0.111111 0.444444
vt 0.111111 0.333333
vt 0.222222 0.333333
vt 0.333333 0.444444
vt 0.222222 0.444444
vt 0.222222 0.333333
vt 0.333333 0.333333
s 0
usemtl Material
f 121/326/91 125/327/91 127/328/91 123/329/91
f 124/330/92 123/331/92 127/332/92 128/333/92
f 128/334/93 127/335/93 125/336/93 126/330/93
f 126/337/94 122/338/94 124/339/94 128/340/94
f 122/341/95 121/342/95 123/343/95 124/344/95
f 126/345/96 125/346/96 121/347/96 122/348/96
o Cube.016
v 0.410691 -0.440000 0.429479
v 0.410691 -0.442806 0.483531
v 0.454583 -0.410141 0.429479
v 0.454583 -0.412948 0.483531
v -0.450784 0.424282 0.429479
v -0.450784 0.421475 0.483531
v -0.406892 0.454141 0.429479
v -0.406892 0.451334 0.483531
vn -0.0000 -0.0000 -1.0000
vn 0.7078 0.7055 0.0366
vn -0.5619 0.8261 0.0429
vn -0.0000 -0.0000 1.0000
vn 0.5619 -0.8261 -0.0429
vn -0.7078 -0.7055 -0.0366
vt 0.333333 0.000000
vt 0.333333 0.111111
vt 0.222222 0.111111
vt 0.222222 0.000000
vt 0.333333 0.222222
vt 0.222222 0.222222
vt 0.222222 0.111111
vt 0.333333 0.111111
vt 0.333333 0.333333
vt 0.222222 0.333333
vt 0.222222 0.222222
vt 0.111111 0.333333
vt 0.111111 0.444444
vt -0.000000 0.444444
vt 0.000000 0.333333
vt 0.222222 0.444444
vt 0.111111 0.444444
vt 0.111111 0.333333
vt 0.222222 0.333333
vt 0.333333 0.444444
vt 0.222222 0.444444
vt 0.222222 0.333333
vt 0.333333 0.333333
s 0
usemtl Material
f 129/349/97 133/350/97 135/351/97 131/352/97
f 132/353/98 131/354/98 135/355/98 136/356/98
f 136/357/99 135/358/99 133/359/99 134/353/99
f 134/360/100 130/361/100 132/362/100 136/363/100
f 130/364/101 129/365/101 131/366/101 132/367/101
f 134/368/102 133/369/102 129/370/102 130/371/102
o Cube.017
v 0.410691 -0.440000 -0.479890
v 0.410691 -0.442806 -0.425838
v 0.454583 -0.410141 -0.479890
v 0.454583 -0.412948 -0.425838
v -0.450784 0.424282 -0.479890
v -0.450784 0.421475 -0.425838
v -0.406892 0.454141 -0.479890
v -0.406892 0.451334 -0.425838
vn -0.0000 -0.0000 -1.0000
vn 0.7078 0.7055 0.0366
vn -0.5619 0.8261 0.0429
vn -0.0000 -0.0000 1.0000
vn 0.5619 -0.8261 -0.0429
vn -0.7078 -0.7055 -0.0366
vt 0.333333 0.000000
vt 0.333333 0.111111
vt 0.222222 0.111111
vt 0.222222 0.000000
vt 0.333333 0.222222
vt 0.222222 0.222222
vt 0.222222 0.111111
vt 0.333333 0.111111
vt 0.333333 0.333333
vt 0.222222 0.333333
vt 0.222222 0.222222
vt 0.111111 0.333333
vt 0.111111 0.444444
vt -0.000000 0.444444
vt 0.000000 0.333333
vt 0.222222 0.444444
vt 0.111111 0.444444
vt 0.111111 0.333333
vt 0.222222 0.333333
vt 0.333333 0.444444
vt 0.222222 0.444444
vt 0.222222 0.333333
vt 0.333333 0.333333
s 0
usemtl Material
f 137/372/103 141/373/103 143/374/103 139/375/103
f 140/376/104 139/377/104 143/378/104 144/379/104
f 144/380/105 143/381/105 141/382/105 142/376/105
f 142/383/106 138/384/106 140/385/106 144/386/106
f 138/387/107 137/388/107 139/389/107 140/390/107
f 142/391/108 141/392/108 137/393/108 138/394/108
o Cube.018
v -0.443911 -0.482116 0.406922
v -0.446718 -0.428065 0.406922
v -0.414052 -0.482116 0.450814
v -0.416859 -0.428065 0.450814
v 0.420371 -0.482117 -0.454553
v 0.417564 -0.428065 -0.454553
v 0.450229 -0.482117 -0.410661
v 0.447423 -0.428065 -0.410661
vn -0.0000 -1.0000 -0.0000
vn 0.7055 0.0366 0.7078
vn 0.8261 0.0429 -0.5619
vn -0.0000 1.0000 -0.0000
vn -0.8261 -0.0429 0.5619
vn -0.7055 -0.0366 -0.7078
vt 0.333333 0.000000
vt 0.333333 0.111111
vt 0.222222 0.111111
vt 0.222222 0.000000
vt 0.333333 0.222222
vt 0.222222 0.222222
vt 0.222222 0.111111
vt 0.333333 0.111111
vt 0.333333 0.333333
vt 0.222222 0.333333
vt 0.222222 0.222222
vt 0.111111 0.333333
vt 0.111111 0.444444
vt -0.000000 0.444444
vt 0.000000 0.333333
vt 0.222222 0.444444
vt 0.111111 0.444444
vt 0.111111 0.333333
vt 0.222222 0.333333
vt 0.333333 0.444444
vt 0.222222 0.444444
vt 0.222222 0.333333
vt 0.333333 0.333333
s 0
usemtl Material
f 145/395/109 149/396/109 151/397/109 147/398/109
f 148/399/110 147/400/110 151/401/110 152/402/110
f 152/403/111 151/404/111 149/405/111 150/399/111
f 150/406/112 146/407/112 148/408/112 152/409/112
f 146/410/113 145/411/113 147/412/113 148/413/113
f 150/414/114 149/415/114 145/416/114 146/417/114
o Cube.019
v -0.443911 0.421640 0.406922
v -0.446718 0.475691 0.406922
v -0.414052 0.421640 0.450814
v -0.416859 0.475691 0.450814
v 0.420371 0.421639 -0.454553
v 0.417564 0.475691 -0.454553
v 0.450229 0.421639 -0.410661
v 0.447423 0.475691 -0.410661
vn -0.0000 -1.0000 -0.0000
vn 0.7055 0.0366 0.7078
vn 0.8261 0.0429 -0.5619
vn -0.0000 1.0000 -0.0000
vn -0.8261 -0.0429 0.5619
vn -0.7055 -0.0366 -0.7078
vt 0.333333 0.000000
vt 0.333333 0.111111
vt 0.222222 0.111111
vt 0.222222 0.000000
vt 0.333333 0.222222
vt 0.222222 0.222222
vt 0.222222 0.111111
vt 0.333333 0.111111
vt 0.333333 0.333333
vt 0.222222 0.333333
vt 0.222222 0.222222
vt 0.111111 0.333333
vt 0.111111 0.444444
vt -0.000000 0.444444
vt 0.000000 0.333333
vt 0.222222 0.444444
vt 0.111111 0.444444
vt 0.111111 0.333333
vt 0.222222 0.333333
vt 0.333333 0.444444
vt 0.222222 0.444444
vt 0.222222 0.333333
vt 0.333333 0.333333
s 0
usemtl Material
f 153/418/115 157/419/115 159/420/115 155/421/115
f 156/422/116 155/423/116 159/424/116 160/425/116
f 160/426/117 159/427/117 157/428/117 158/422/117
f 158/429/118 154/430/118 156/431/118 160/432/118
f 154/433/119 153/434/119 155/435/119 156/436/119
f 158/437/120 157/438/120 153/439/120 154/440/120
o Cube.020
v -0.474655 -0.438704 -0.405753
v -0.420604 -0.441510 -0.405753
v -0.474655 -0.408845 -0.449645
v -0.420604 -0.411651 -0.449645
v -0.474655 0.425578 0.455722
v -0.420604 0.422772 0.455722
v -0.474655 0.455437 0.411830
v -0.420604 0.452630 0.411830
vn -1.0000 -0.0000 -0.0000
vn 0.0366 0.7055 -0.7078
vn 0.0429 0.8261 0.5619
vn 1.0000 -0.0000 -0.0000
vn -0.0429 -0.8261 -0.5619
vn -0.0366 -0.7055 0.7078
vt 0.333333 0.000000
vt 0.333333 0.111111
vt 0.222222 0.111111
vt 0.222222 0.000000
vt 0.333333 0.222222
vt 0.222222 0.222222
vt 0.222222 0.111111
vt 0.333333 0.111111
vt 0.333333 0.333333
vt 0.222222 0.333333
vt 0.222222 0.222222
vt 0.111111 0.333333
vt 0.111111 0.444444
vt -0.000000 0.444444
vt 0.000000 0.333333
vt 0.222222 0.444444
vt 0.111111 0.444444
vt 0.111111 0.333333
vt 0.222222 0.333333
vt 0.333333 0.444444
vt 0.222222 0.444444
vt 0.222222 0.333333
vt 0.333333 0.333333
s 0
usemtl Material
f 161/441/121 165/442/121 167/443/121 163/444/121
f 164/445/122 163/446/122 167/447/122 168/448/122
f 168/449/123 167/450/123 165/451/123 166/445/123
f 166/452/124 162/453/124 164/454/124 168/455/124
f 162/456/125 161/457/125 163/458/125 164/459/125
f 166/460/126 165/461/126 161/462/126 162/463/126
o Cube.021
v 0.417874 -0.438704 -0.405753
v 0.471926 -0.441510 -0.405753
v 0.417874 -0.408845 -0.449645
v 0.471926 -0.411651 -0.449645
v 0.417874 0.425578 0.455722
v 0.471926 0.422772 0.455722
v 0.417874 0.455437 0.411830
v 0.471926 0.452630 0.411830
vn -1.0000 -0.0000 -0.0000
vn 0.0366 0.7055 -0.7078
vn 0.0429 0.8261 0.5619
vn 1.0000 -0.0000 -0.0000
vn -0.0429 -0.8261 -0.5619
vn -0.0366 -0.7055 0.7078
vt 0.333333 0.000000
vt 0.333333 0.111111
vt 0.222222 0.111111
vt 0.222222 0.000000
vt 0.333333 0.222222
vt 0.222222 0.222222
vt 0.222222 0.111111
vt 0.333333 0.111111
vt 0.333333 0.333333
vt 0.222222 0.333333
vt 0.222222 0.222222
vt 0.111111 0.333333
vt 0.111111 0.444444
vt -0.000000 0.444444
vt 0.000000 0.333333
vt 0.222222 0.444444
vt 0.111111 0.444444
vt 0.111111 0.333333
vt 0.222222 0.333333
vt 0.333333 0.444444
vt 0.222222 0.444444
vt 0.222222 0.333333
vt 0.333333 0.333333
s 0
usemtl Material
f 169/464/127 173/465/127 175/466/127 171/467/127
f 172/468/128 171/469/128 175/470/128 176/471/128
f 176/472/129 175/473/129 173/474/129 174/468/129
f 174/475/130 170/476/130 172/477/130 176/478/130
f 170/479/131 169/480/131 171/481/131 172/482/131
f 174/483/132 173/484/132 169/485/132 170/486/132
o Cube.022
v -0.407597 -0.437193 -0.428645
v -0.407597 -0.440000 -0.482697
v -0.451490 -0.407334 -0.428645
v -0.451490 -0.410141 -0.482697
v 0.453878 0.427089 -0.428645
v 0.453878 0.424282 -0.482697
v 0.409985 0.456948 -0.428645
v 0.409985 0.454141 -0.482697
vn -0.0000 -0.0000 1.0000
vn -0.7078 0.7055 -0.0366
vn 0.5619 0.8261 -0.0429
vn -0.0000 -0.0000 -1.0000
vn -0.5619 -0.8261 0.0429
vn 0.7078 -0.7055 0.0366
vt 0.333333 0.000000
vt 0.333333 0.111111
vt 0.222222 0.111111
vt 0.222222 0.000000
vt 0.333333 0.222222
vt 0.222222 0.222222
vt 0.222222 0.111111
vt 0.333333 0.111111
vt 0.333333 0.333333
vt 0.222222 0.333333
vt 0.222222 0.222222
vt 0.111111 0.333333
vt 0.111111 0.444444
vt -0.000000 0.444444
vt 0.000000 0.333333
vt 0.222222 0.444444
vt 0.111111 0.444444
vt 0.111111 0.333333
vt 0.222222 0.333333
vt 0.333333 0.444444
vt 0.222222 0.444444
vt 0.222222 0.333333
vt 0.333333 0.333333
s 0
usemtl Material
f 177/487/133 181/488/133 183/489/133 179/490/133
f 180/491/134 179/492/134 183/493/134 184/494/134
f 184/495/135 183/496/135 181/497/135 182/491/135
f 182/498/136 178/499/136 180/500/136 184/501/136
f 178/502/137 177/503/137 179/504/137 180/505/137
f 182/506/138 181/507/138 177/508/138 178/509/138
o Cube.023
v -0.407597 -0.437193 0.477918
v -0.407597 -0.440000 0.423866
v -0.451490 -0.407334 0.477918
v -0.451490 -0.410141 0.423866
v 0.453878 0.427089 0.477917
v 0.453878 0.424282 0.423866
v 0.409985 0.456948 0.477918
v 0.409985 0.454141 0.423866
vn -0.0000 -0.0000 1.0000
vn -0.7078 0.7055 -0.0366
vn 0.5619 0.8261 -0.0429
vn -0.0000 -0.0000 -1.0000
vn -0.5619 -0.8261 0.0429
vn 0.7078 -0.7055 0.0366
vt 0.333333 0.000000
vt 0.333333 0.111111
vt 0.222222 0.111111
vt 0.222222 0.000000
vt 0.333333 0.222222
vt 0.222222 0.222222
vt 0.222222 0.111111
vt 0.333333 0.111111
vt 0.333333 0.333333
vt 0.222222 0.333333
vt 0.222222 0.222222
vt 0.111111 0.333333
vt 0.111111 0.444444
vt -0.000000 0.444444
vt 0.000000 0.333333
vt 0.222222 0.444444
vt 0.111111 0.444444
vt 0.111111 0.333333
vt 0.222222 0.333333
vt 0.333333 0.444444
vt 0.222222 0.444444
vt 0.222222 0.333333
vt 0.333333 0.333333
s 0
usemtl Material
f 185/510/139 189/511/139 191/512/139 187/513/139
f 188/514/140 187/515/140 191/516/140 192/517/140
f 192/518/141 191/519/141 189/520/141 190/514/141
f 190/521/142 186/522/142 188/523/142 192/524/142
f 186/525/143 185/526/143 187/527/143 188/528/143
f 190/529/144 189/530/144 185/531/144 186/532/144
