# Blender 4.3.2
# www.blender.org
mtllib mystreets_lightpost_corner.mtl
o Cylinder
v -0.100145 0.003362 0.000184
v -0.100145 0.003362 0.495084
v -0.098223 0.022871 0.000184
v -0.098223 0.022871 0.495084
v -0.092533 0.041630 0.000184
v -0.092533 0.041630 0.495084
v -0.083292 0.058919 0.000184
v -0.083292 0.058919 0.495084
v -0.070855 0.074072 0.000184
v -0.070855 0.074072 0.495084
v -0.055702 0.086508 0.000184
v -0.055702 0.086508 0.495084
v -0.038413 0.095749 0.000184
v -0.038413 0.095749 0.495084
v -0.019654 0.101440 0.000184
v -0.019654 0.101440 0.495084
v -0.000145 0.103362 0.000184
v -0.000145 0.103362 0.495084
v 0.019364 0.101440 0.000184
v 0.019364 0.101440 0.495084
v 0.038124 0.095749 0.000184
v 0.038124 0.095749 0.495084
v 0.055412 0.086508 0.000184
v 0.055412 0.086508 0.495084
v 0.070566 0.074072 0.000184
v 0.070566 0.074072 0.495084
v 0.083002 0.058919 0.000184
v 0.083002 0.058919 0.495084
v 0.092243 0.041630 0.000184
v 0.092243 0.041630 0.495084
v 0.097934 0.022871 0.000184
v 0.097934 0.022871 0.495084
v 0.099855 0.003362 0.000184
v 0.099855 0.003361 0.495084
v 0.097934 -0.016148 0.000184
v 0.097934 -0.016148 0.495084
v 0.092243 -0.034907 0.000184
v 0.092243 -0.034907 0.495084
v 0.083002 -0.052196 0.000184
v 0.083002 -0.052196 0.495084
v 0.070566 -0.067349 0.000184
v 0.070566 -0.067349 0.495084
v 0.055412 -0.079785 0.000184
v 0.055412 -0.079785 0.495084
v 0.038124 -0.089026 0.000184
v 0.038124 -0.089026 0.495084
v 0.019364 -0.094717 0.000184
v 0.019364 -0.094717 0.495084
v -0.000145 -0.096638 0.000184
v -0.000145 -0.096639 0.495084
v -0.019654 -0.094717 0.000184
v -0.019654 -0.094717 0.495084
v -0.038413 -0.089026 0.000184
v -0.038413 -0.089026 0.495084
v -0.055702 -0.079785 0.000184
v -0.055702 -0.079785 0.495084
v -0.070855 -0.067349 0.000184
v -0.070855 -0.067349 0.495084
v -0.083292 -0.052195 0.000184
v -0.083292 -0.052196 0.495084
v -0.092533 -0.034907 0.000184
v -0.092533 -0.034907 0.495084
v -0.098223 -0.016148 0.000184
v -0.098223 -0.016148 0.495084
vn -0.9952 0.0980 -0.0000
vn -0.9569 0.2903 -0.0000
vn -0.8819 0.4714 -0.0000
vn -0.7730 0.6344 -0.0000
vn -0.6344 0.7730 -0.0000
vn -0.4714 0.8819 -0.0000
vn -0.2903 0.9569 -0.0000
vn -0.0980 0.9952 -0.0000
vn 0.0980 0.9952 -0.0000
vn 0.2903 0.9569 -0.0000
vn 0.4714 0.8819 -0.0000
vn 0.6344 0.7730 -0.0000
vn 0.7730 0.6344 -0.0000
vn 0.8819 0.4714 -0.0000
vn 0.9569 0.2903 -0.0000
vn 0.9952 0.0980 -0.0000
vn 0.9952 -0.0980 -0.0000
vn 0.9569 -0.2903 -0.0000
vn 0.8819 -0.4714 -0.0000
vn 0.7730 -0.6344 -0.0000
vn 0.6344 -0.7730 -0.0000
vn 0.4714 -0.8819 -0.0000
vn 0.2903 -0.9569 -0.0000
vn 0.0980 -0.9952 -0.0000
vn -0.0980 -0.9952 -0.0000
vn -0.2903 -0.9569 -0.0000
vn -0.4714 -0.8819 -0.0000
vn -0.6344 -0.7730 -0.0000
vn -0.7730 -0.6344 -0.0000
vn -0.8819 -0.4714 -0.0000
vn -0.0000 -0.0000 1.0000
vn -0.9569 -0.2903 -0.0000
vn -0.9952 -0.0980 -0.0000
vn -0.0000 -0.0000 -1.0000
vt 0.414214 0.415212
vt 0.414214 -0.000000
vt 0.443061 0.000000
vt 0.443061 0.415212
vt 0.476982 0.000000
vt 0.476982 0.415212
vt 0.514673 0.000000
vt 0.514673 0.415212
vt 0.554686 0.000000
vt 0.554686 0.415212
vt 0.595482 0.000000
vt 0.595482 0.415212
vt 0.635495 0.000000
vt 0.635495 0.415212
vt 0.673186 0.000000
vt 0.673186 0.415212
vt 0.707107 0.000000
vt 0.707107 0.415212
vt 0.735954 0.000000
vt 0.735954 0.415212
vt 0.735954 0.415212
vt 0.735954 0.000000
vt 0.769875 0.000000
vt 0.769875 0.415212
vt 0.807566 0.000000
vt 0.807566 0.415212
vt 0.847579 0.000000
vt 0.847579 0.415212
vt 0.888375 0.000000
vt 0.888375 0.415212
vt 0.928388 0.000000
vt 0.928388 0.415212
vt 0.966079 0.000000
vt 0.966079 0.415212
vt 1.000000 0.000000
vt 1.000000 0.415212
vt 0.707107 0.830424
vt 0.707107 0.415212
vt 0.735954 0.415212
vt 0.735954 0.830424
vt 0.769875 0.415212
vt 0.769875 0.830424
vt 0.807566 0.415212
vt 0.807566 0.830424
vt 0.847579 0.415212
vt 0.847579 0.830424
vt 0.888375 0.415212
vt 0.888375 0.830424
vt 0.928388 0.415212
vt 0.928388 0.830424
vt 0.966079 0.415212
vt 0.966079 0.830424
vt 1.000000 0.415212
vt 1.000000 0.830424
vt 0.414214 0.830424
vt 0.414214 0.415212
vt 0.443061 0.415212
vt 0.443061 0.830424
vt 0.476982 0.415212
vt 0.476982 0.830424
vt 0.514673 0.415212
vt 0.514673 0.830424
vt 0.554686 0.415212
vt 0.554686 0.830424
vt 0.595482 0.415212
vt 0.595482 0.830424
vt 0.635495 0.415212
vt 0.635495 0.830424
vt 0.367977 0.753343
vt 0.339130 0.782191
vt 0.305209 0.804856
vt 0.267518 0.820468
vt 0.227505 0.828427
vt 0.186709 0.828427
vt 0.146696 0.820468
vt 0.109005 0.804856
vt 0.075084 0.782191
vt 0.046236 0.753343
vt 0.023571 0.719422
vt 0.007959 0.681731
vt 0.000000 0.641719
vt -0.000000 0.600922
vt 0.007959 0.560909
vt 0.023571 0.523218
vt 0.046236 0.489297
vt 0.075084 0.460450
vt 0.109005 0.437785
vt 0.146696 0.422172
vt 0.186708 0.414214
vt 0.227505 0.414213
vt 0.267518 0.422172
vt 0.305209 0.437785
vt 0.339130 0.460450
vt 0.367977 0.489297
vt 0.390642 0.523218
vt 0.406254 0.560909
vt 0.414213 0.600922
vt 0.414213 0.641718
vt 0.406255 0.681731
vt 0.390642 0.719422
vt 0.673186 0.415212
vt 0.673186 0.830424
vt 0.707107 0.415212
vt 0.046236 0.339130
vt 0.023571 0.305209
vt 0.007959 0.267518
vt 0.000000 0.227505
vt 0.000000 0.186709
vt 0.007959 0.146696
vt 0.023571 0.109005
vt 0.046236 0.075084
vt 0.075084 0.046236
vt 0.109005 0.023571
vt 0.146696 0.007959
vt 0.186709 0.000000
vt 0.227505 0.000000
vt 0.267518 0.007959
vt 0.305209 0.023571
vt 0.339130 0.046236
vt 0.367977 0.075084
vt 0.390642 0.109005
vt 0.406255 0.146696
vt 0.414214 0.186709
vt 0.414214 0.227505
vt 0.406255 0.267518
vt 0.390642 0.305209
vt 0.367977 0.339130
vt 0.339130 0.367977
vt 0.305209 0.390642
vt 0.267518 0.406255
vt 0.227505 0.414214
vt 0.186709 0.414214
vt 0.146696 0.406255
vt 0.109005 0.390642
vt 0.075084 0.367977
s 0
f 1/1/1 2/2/1 4/3/1 3/4/1
f 3/4/2 4/3/2 6/5/2 5/6/2
f 5/6/3 6/5/3 8/7/3 7/8/3
f 7/8/4 8/7/4 10/9/4 9/10/4
f 9/10/5 10/9/5 12/11/5 11/12/5
f 11/12/6 12/11/6 14/13/6 13/14/6
f 13/14/7 14/13/7 16/15/7 15/16/7
f 15/16/8 16/15/8 18/17/8 17/18/8
f 17/18/9 18/17/9 20/19/9 19/20/9
f 19/21/10 20/22/10 22/23/10 21/24/10
f 21/24/11 22/23/11 24/25/11 23/26/11
f 23/26/12 24/25/12 26/27/12 25/28/12
f 25/28/13 26/27/13 28/29/13 27/30/13
f 27/30/14 28/29/14 30/31/14 29/32/14
f 29/32/15 30/31/15 32/33/15 31/34/15
f 31/34/16 32/33/16 34/35/16 33/36/16
f 33/37/17 34/38/17 36/39/17 35/40/17
f 35/40/18 36/39/18 38/41/18 37/42/18
f 37/42/19 38/41/19 40/43/19 39/44/19
f 39/44/20 40/43/20 42/45/20 41/46/20
f 41/46/21 42/45/21 44/47/21 43/48/21
f 43/48/22 44/47/22 46/49/22 45/50/22
f 45/50/23 46/49/23 48/51/23 47/52/23
f 47/52/24 48/51/24 50/53/24 49/54/24
f 49/55/25 50/56/25 52/57/25 51/58/25
f 51/58/26 52/57/26 54/59/26 53/60/26
f 53/60/27 54/59/27 56/61/27 55/62/27
f 55/62/28 56/61/28 58/63/28 57/64/28
f 57/64/29 58/63/29 60/65/29 59/66/29
f 59/66/30 60/65/30 62/67/30 61/68/30
f 4/69/31 2/70/31 64/71/31 62/72/31 60/73/31 58/74/31 56/75/31 54/76/31 52/77/31 50/78/31 48/79/31 46/80/31 44/81/31 42/82/31 40/83/31 38/84/31 36/85/31 34/86/31 32/87/31 30/88/31 28/89/31 26/90/31 24/91/31 22/92/31 20/93/31 18/94/31 16/95/31 14/96/31 12/97/31 10/98/31 8/99/31 6/100/31
f 61/68/32 62/67/32 64/101/32 63/102/32
f 63/102/33 64/101/33 2/103/33 1/37/33
f 1/104/34 3/105/34 5/106/34 7/107/34 9/108/34 11/109/34 13/110/34 15/111/34 17/112/34 19/113/34 21/114/34 23/115/34 25/116/34 27/117/34 29/118/34 31/119/34 33/120/34 35/121/34 37/122/34 39/123/34 41/124/34 43/125/34 45/126/34 47/127/34 49/128/34 51/129/34 53/130/34 55/131/34 57/132/34 59/133/34 61/134/34 63/135/34
o Cylinder.001
v -0.002828 0.003362 -0.097666
v -0.492894 0.003362 -0.097666
v -0.002828 0.022871 -0.095744
v -0.492894 0.022871 -0.095744
v -0.002828 0.041630 -0.090054
v -0.492894 0.041630 -0.090054
v -0.002828 0.058919 -0.080813
v -0.492894 0.058919 -0.080813
v -0.002828 0.074072 -0.068376
v -0.492894 0.074072 -0.068376
v -0.002828 0.086508 -0.053223
v -0.492894 0.086509 -0.053223
v -0.002828 0.095749 -0.035934
v -0.492894 0.095749 -0.035934
v -0.002828 0.101440 -0.017175
v -0.492894 0.101440 -0.017175
v -0.002828 0.103362 0.002334
v -0.492894 0.103362 0.002334
v -0.002828 0.101440 0.021843
v -0.492894 0.101440 0.021843
v -0.002828 0.095749 0.040603
v -0.492894 0.095749 0.040603
v -0.002828 0.086508 0.057891
v -0.492894 0.086509 0.057891
v -0.002828 0.074072 0.073045
v -0.492894 0.074072 0.073045
v -0.002828 0.058919 0.085481
v -0.492894 0.058919 0.085481
v -0.002828 0.041630 0.094722
v -0.492894 0.041630 0.094722
v -0.002828 0.022871 0.100413
v -0.492894 0.022871 0.100413
v -0.002828 0.003362 0.102334
v -0.492894 0.003362 0.102334
v -0.002828 -0.016148 0.100413
v -0.492894 -0.016147 0.100413
v -0.002828 -0.034907 0.094722
v -0.492894 -0.034907 0.094722
v -0.002828 -0.052196 0.085481
v -0.492894 -0.052195 0.085481
v -0.002828 -0.067349 0.073045
v -0.492894 -0.067349 0.073045
v -0.002828 -0.079785 0.057891
v -0.492894 -0.079785 0.057891
v -0.002828 -0.089026 0.040603
v -0.492894 -0.089026 0.040603
v -0.002828 -0.094717 0.021843
v -0.492894 -0.094717 0.021843
v -0.002828 -0.096638 0.002334
v -0.492894 -0.096638 0.002334
v -0.002828 -0.094717 -0.017175
v -0.492894 -0.094717 -0.017175
v -0.002828 -0.089026 -0.035934
v -0.492894 -0.089026 -0.035934
v -0.002828 -0.079785 -0.053223
v -0.492894 -0.079785 -0.053223
v -0.002828 -0.067349 -0.068376
v -0.492894 -0.067349 -0.068376
v -0.002828 -0.052196 -0.080813
v -0.492894 -0.052195 -0.080813
v -0.002828 -0.034907 -0.090054
v -0.492894 -0.034907 -0.090054
v -0.002828 -0.016148 -0.095744
v -0.492894 -0.016147 -0.095744
vn -0.0000 0.0980 -0.9952
vn -0.0000 0.2903 -0.9569
vn -0.0000 0.4714 -0.8819
vn -0.0000 0.6344 -0.7730
vn -0.0000 0.7730 -0.6344
vn -0.0000 0.8819 -0.4714
vn -0.0000 0.9569 -0.2903
vn -0.0000 0.9952 -0.0980
vn -0.0000 0.9952 0.0980
vn -0.0000 0.9569 0.2903
vn -0.0000 0.8819 0.4714
vn -0.0000 0.7730 0.6344
vn -0.0000 0.6344 0.7730
vn -0.0000 0.4714 0.8819
vn -0.0000 0.2903 0.9569
vn -0.0000 0.0980 0.9952
vn -0.0000 -0.0980 0.9952
vn -0.0000 -0.2903 0.9569
vn -0.0000 -0.4714 0.8819
vn -0.0000 -0.6344 0.7730
vn -0.0000 -0.7730 0.6344
vn -0.0000 -0.8819 0.4714
vn -0.0000 -0.9569 0.2903
vn -0.0000 -0.9952 0.0980
vn -0.0000 -0.9952 -0.0980
vn -0.0000 -0.9569 -0.2903
vn -0.0000 -0.8819 -0.4714
vn -0.0000 -0.7730 -0.6344
vn -0.0000 -0.6344 -0.7730
vn -0.0000 -0.4714 -0.8819
vn -1.0000 -0.0000 -0.0000
vn -0.0000 -0.2903 -0.9569
vn -0.0000 -0.0980 -0.9952
vn 1.0000 -0.0000 -0.0000
vt 0.414214 0.415212
vt 0.414214 -0.000000
vt 0.443061 0.000000
vt 0.443061 0.415212
vt 0.476982 0.000000
vt 0.476982 0.415212
vt 0.514673 0.000000
vt 0.514673 0.415212
vt 0.554686 0.000000
vt 0.554686 0.415212
vt 0.595482 0.000000
vt 0.595482 0.415212
vt 0.635495 0.000000
vt 0.635495 0.415212
vt 0.673186 0.000000
vt 0.673186 0.415212
vt 0.707107 0.000000
vt 0.707107 0.415212
vt 0.735954 0.000000
vt 0.735954 0.415212
vt 0.735954 0.415212
vt 0.735954 0.000000
vt 0.769875 0.000000
vt 0.769875 0.415212
vt 0.807566 0.000000
vt 0.807566 0.415212
vt 0.847579 0.000000
vt 0.847579 0.415212
vt 0.888375 0.000000
vt 0.888375 0.415212
vt 0.928388 0.000000
vt 0.928388 0.415212
vt 0.966079 0.000000
vt 0.966079 0.415212
vt 1.000000 0.000000
vt 1.000000 0.415212
vt 0.707107 0.830424
vt 0.707107 0.415212
vt 0.735954 0.415212
vt 0.735954 0.830424
vt 0.769875 0.415212
vt 0.769875 0.830424
vt 0.807566 0.415212
vt 0.807566 0.830424
vt 0.847579 0.415212
vt 0.847579 0.830424
vt 0.888375 0.415212
vt 0.888375 0.830424
vt 0.928388 0.415212
vt 0.928388 0.830424
vt 0.966079 0.415212
vt 0.966079 0.830424
vt 1.000000 0.415212
vt 1.000000 0.830424
vt 0.414214 0.830424
vt 0.414214 0.415212
vt 0.443061 0.415212
vt 0.443061 0.830424
vt 0.476982 0.415212
vt 0.476982 0.830424
vt 0.514673 0.415212
vt 0.514673 0.830424
vt 0.554686 0.415212
vt 0.554686 0.830424
vt 0.595482 0.415212
vt 0.595482 0.830424
vt 0.635495 0.415212
vt 0.635495 0.830424
vt 0.367977 0.753343
vt 0.339130 0.782191
vt 0.305209 0.804856
vt 0.267518 0.820468
vt 0.227505 0.828427
vt 0.186709 0.828427
vt 0.146696 0.820468
vt 0.109005 0.804856
vt 0.075084 0.782191
vt 0.046236 0.753343
vt 0.023571 0.719422
vt 0.007959 0.681731
vt 0.000000 0.641719
vt -0.000000 0.600922
vt 0.007959 0.560909
vt 0.023571 0.523218
vt 0.046236 0.489297
vt 0.075084 0.460450
vt 0.109005 0.437785
vt 0.146696 0.422172
vt 0.186708 0.414214
vt 0.227505 0.414213
vt 0.267518 0.422172
vt 0.305209 0.437785
vt 0.339130 0.460450
vt 0.367977 0.489297
vt 0.390642 0.523218
vt 0.406254 0.560909
vt 0.414213 0.600922
vt 0.414213 0.641718
vt 0.406255 0.681731
vt 0.390642 0.719422
vt 0.673186 0.415212
vt 0.673186 0.830424
vt 0.707107 0.415212
vt 0.046236 0.339130
vt 0.023571 0.305209
vt 0.007959 0.267518
vt 0.000000 0.227505
vt 0.000000 0.186709
vt 0.007959 0.146696
vt 0.023571 0.109005
vt 0.046236 0.075084
vt 0.075084 0.046236
vt 0.109005 0.023571
vt 0.146696 0.007959
vt 0.186709 0.000000
vt 0.227505 0.000000
vt 0.267518 0.007959
vt 0.305209 0.023571
vt 0.339130 0.046236
vt 0.367977 0.075084
vt 0.390642 0.109005
vt 0.406255 0.146696
vt 0.414214 0.186709
vt 0.414214 0.227505
vt 0.406255 0.267518
vt 0.390642 0.305209
vt 0.367977 0.339130
vt 0.339130 0.367977
vt 0.305209 0.390642
vt 0.267518 0.406255
vt 0.227505 0.414214
vt 0.186709 0.414214
vt 0.146696 0.406255
vt 0.109005 0.390642
vt 0.075084 0.367977
s 0
f 65/136/35 66/137/35 68/138/35 67/139/35
f 67/139/36 68/138/36 70/140/36 69/141/36
f 69/141/37 70/140/37 72/142/37 71/143/37
f 71/143/38 72/142/38 74/144/38 73/145/38
f 73/145/39 74/144/39 76/146/39 75/147/39
f 75/147/40 76/146/40 78/148/40 77/149/40
f 77/149/41 78/148/41 80/150/41 79/151/41
f 79/151/42 80/150/42 82/152/42 81/153/42
f 81/153/43 82/152/43 84/154/43 83/155/43
f 83/156/44 84/157/44 86/158/44 85/159/44
f 85/159/45 86/158/45 88/160/45 87/161/45
f 87/161/46 88/160/46 90/162/46 89/163/46
f 89/163/47 90/162/47 92/164/47 91/165/47
f 91/165/48 92/164/48 94/166/48 93/167/48
f 93/167/49 94/166/49 96/168/49 95/169/49
f 95/169/50 96/168/50 98/170/50 97/171/50
f 97/172/51 98/173/51 100/174/51 99/175/51
f 99/175/52 100/174/52 102/176/52 101/177/52
f 101/177/53 102/176/53 104/178/53 103/179/53
f 103/179/54 104/178/54 106/180/54 105/181/54
f 105/181/55 106/180/55 108/182/55 107/183/55
f 107/183/56 108/182/56 110/184/56 109/185/56
f 109/185/57 110/184/57 112/186/57 111/187/57
f 111/187/58 112/186/58 114/188/58 113/189/58
f 113/190/59 114/191/59 116/192/59 115/193/59
f 115/193/60 116/192/60 118/194/60 117/195/60
f 117/195/61 118/194/61 120/196/61 119/197/61
f 119/197/62 120/196/62 122/198/62 121/199/62
f 121/199/63 122/198/63 124/200/63 123/201/63
f 123/201/64 124/200/64 126/202/64 125/203/64
f 68/204/65 66/205/65 128/206/65 126/207/65 124/208/65 122/209/65 120/210/65 118/211/65 116/212/65 114/213/65 112/214/65 110/215/65 108/216/65 106/217/65 104/218/65 102/219/65 100/220/65 98/221/65 96/222/65 94/223/65 92/224/65 90/225/65 88/226/65 86/227/65 84/228/65 82/229/65 80/230/65 78/231/65 76/232/65 74/233/65 72/234/65 70/235/65
f 125/203/66 126/202/66 128/236/66 127/237/66
f 127/237/67 128/236/67 66/238/67 65/172/67
f 65/239/68 67/240/68 69/241/68 71/242/68 73/243/68 75/244/68 77/245/68 79/246/68 81/247/68 83/248/68 85/249/68 87/250/68 89/251/68 91/252/68 93/253/68 95/254/68 97/255/68 99/256/68 101/257/68 103/258/68 105/259/68 107/260/68 109/261/68 111/262/68 113/263/68 115/264/68 117/265/68 119/266/68 121/267/68 123/268/68 125/269/68 127/270/68
o Cylinder.002
v -0.000145 -0.496638 -0.097666
v -0.000145 0.003095 -0.097666
v 0.019364 -0.496638 -0.095744
v 0.019364 0.003095 -0.095744
v 0.038124 -0.496638 -0.090054
v 0.038124 0.003095 -0.090054
v 0.055412 -0.496638 -0.080813
v 0.055412 0.003095 -0.080813
v 0.070566 -0.496638 -0.068376
v 0.070566 0.003095 -0.068376
v 0.083002 -0.496638 -0.053223
v 0.083002 0.003095 -0.053223
v 0.092243 -0.496638 -0.035934
v 0.092243 0.003095 -0.035934
v 0.097934 -0.496638 -0.017175
v 0.097934 0.003095 -0.017175
v 0.099855 -0.496638 0.002334
v 0.099855 0.003095 0.002334
v 0.097934 -0.496638 0.021843
v 0.097934 0.003095 0.021843
v 0.092243 -0.496638 0.040603
v 0.092243 0.003095 0.040603
v 0.083002 -0.496638 0.057891
v 0.083002 0.003095 0.057891
v 0.070566 -0.496638 0.073045
v 0.070566 0.003095 0.073045
v 0.055412 -0.496638 0.085481
v 0.055412 0.003095 0.085481
v 0.038124 -0.496638 0.094722
v 0.038124 0.003095 0.094722
v 0.019364 -0.496638 0.100413
v 0.019364 0.003095 0.100413
v -0.000145 -0.496638 0.102334
v -0.000145 0.003095 0.102334
v -0.019654 -0.496638 0.100413
v -0.019654 0.003095 0.100413
v -0.038413 -0.496638 0.094722
v -0.038413 0.003095 0.094722
v -0.055702 -0.496638 0.085481
v -0.055702 0.003095 0.085481
v -0.070855 -0.496638 0.073045
v -0.070855 0.003095 0.073045
v -0.083292 -0.496638 0.057891
v -0.083291 0.003095 0.057891
v -0.092533 -0.496638 0.040603
v -0.092532 0.003095 0.040603
v -0.098223 -0.496638 0.021843
v -0.098223 0.003095 0.021843
v -0.100145 -0.496638 0.002334
v -0.100145 0.003095 0.002334
v -0.098223 -0.496638 -0.017175
v -0.098223 0.003095 -0.017175
v -0.092533 -0.496638 -0.035934
v -0.092532 0.003095 -0.035934
v -0.083292 -0.496638 -0.053223
v -0.083291 0.003095 -0.053223
v -0.070855 -0.496638 -0.068376
v -0.070855 0.003095 -0.068376
v -0.055702 -0.496638 -0.080813
v -0.055702 0.003095 -0.080813
v -0.038413 -0.496638 -0.090054
v -0.038413 0.003095 -0.090054
v -0.019654 -0.496638 -0.095744
v -0.019654 0.003095 -0.095744
vn 0.0980 -0.0000 -0.9952
vn 0.2903 -0.0000 -0.9569
vn 0.4714 -0.0000 -0.8819
vn 0.6344 -0.0000 -0.7730
vn 0.7730 -0.0000 -0.6344
vn 0.8819 -0.0000 -0.4714
vn 0.9569 -0.0000 -0.2903
vn 0.9952 -0.0000 -0.0980
vn 0.9952 -0.0000 0.0980
vn 0.9569 -0.0000 0.2903
vn 0.8819 -0.0000 0.4714
vn 0.7730 -0.0000 0.6344
vn 0.6344 -0.0000 0.7730
vn 0.4714 -0.0000 0.8819
vn 0.2903 -0.0000 0.9569
vn 0.0980 -0.0000 0.9952
vn -0.0980 -0.0000 0.9952
vn -0.2903 -0.0000 0.9569
vn -0.4714 -0.0000 0.8819
vn -0.6344 -0.0000 0.7730
vn -0.7730 -0.0000 0.6344
vn -0.8819 -0.0000 0.4714
vn -0.9569 -0.0000 0.2903
vn -0.9952 -0.0000 0.0980
vn -0.9952 -0.0000 -0.0980
vn -0.9569 -0.0000 -0.2903
vn -0.8819 -0.0000 -0.4714
vn -0.7730 -0.0000 -0.6344
vn -0.6344 -0.0000 -0.7730
vn -0.4714 -0.0000 -0.8819
vn -0.0000 1.0000 -0.0000
vn -0.2903 -0.0000 -0.9569
vn -0.0980 -0.0000 -0.9952
vn -0.0000 -1.0000 -0.0000
vt 0.414214 0.415212
vt 0.414214 -0.000000
vt 0.443061 0.000000
vt 0.443061 0.415212
vt 0.476982 0.000000
vt 0.476982 0.415212
vt 0.514673 0.000000
vt 0.514673 0.415212
vt 0.554686 0.000000
vt 0.554686 0.415212
vt 0.595482 0.000000
vt 0.595482 0.415212
vt 0.635495 0.000000
vt 0.635495 0.415212
vt 0.673186 0.000000
vt 0.673186 0.415212
vt 0.707107 0.000000
vt 0.707107 0.415212
vt 0.735954 0.000000
vt 0.735954 0.415212
vt 0.735954 0.415212
vt 0.735954 0.000000
vt 0.769875 0.000000
vt 0.769875 0.415212
vt 0.807566 0.000000
vt 0.807566 0.415212
vt 0.847579 0.000000
vt 0.847579 0.415212
vt 0.888375 0.000000
vt 0.888375 0.415212
vt 0.928388 0.000000
vt 0.928388 0.415212
vt 0.966079 0.000000
vt 0.966079 0.415212
vt 1.000000 0.000000
vt 1.000000 0.415212
vt 0.707107 0.830424
vt 0.707107 0.415212
vt 0.735954 0.415212
vt 0.735954 0.830424
vt 0.769875 0.415212
vt 0.769875 0.830424
vt 0.807566 0.415212
vt 0.807566 0.830424
vt 0.847579 0.415212
vt 0.847579 0.830424
vt 0.888375 0.415212
vt 0.888375 0.830424
vt 0.928388 0.415212
vt 0.928388 0.830424
vt 0.966079 0.415212
vt 0.966079 0.830424
vt 1.000000 0.415212
vt 1.000000 0.830424
vt 0.414214 0.830424
vt 0.414214 0.415212
vt 0.443061 0.415212
vt 0.443061 0.830424
vt 0.476982 0.415212
vt 0.476982 0.830424
vt 0.514673 0.415212
vt 0.514673 0.830424
vt 0.554686 0.415212
vt 0.554686 0.830424
vt 0.595482 0.415212
vt 0.595482 0.830424
vt 0.635495 0.415212
vt 0.635495 0.830424
vt 0.367977 0.753343
vt 0.339130 0.782191
vt 0.305209 0.804856
vt 0.267518 0.820468
vt 0.227505 0.828427
vt 0.186709 0.828427
vt 0.146696 0.820468
vt 0.109005 0.804856
vt 0.075084 0.782191
vt 0.046236 0.753343
vt 0.023571 0.719422
vt 0.007959 0.681731
vt 0.000000 0.641719
vt -0.000000 0.600922
vt 0.007959 0.560909
vt 0.023571 0.523218
vt 0.046236 0.489297
vt 0.075084 0.460450
vt 0.109005 0.437785
vt 0.146696 0.422172
vt 0.186708 0.414214
vt 0.227505 0.414213
vt 0.267518 0.422172
vt 0.305209 0.437785
vt 0.339130 0.460450
vt 0.367977 0.489297
vt 0.390642 0.523218
vt 0.406254 0.560909
vt 0.414213 0.600922
vt 0.414213 0.641718
vt 0.406255 0.681731
vt 0.390642 0.719422
vt 0.673186 0.415212
vt 0.673186 0.830424
vt 0.707107 0.415212
vt 0.046236 0.339130
vt 0.023571 0.305209
vt 0.007959 0.267518
vt 0.000000 0.227505
vt 0.000000 0.186709
vt 0.007959 0.146696
vt 0.023571 0.109005
vt 0.046236 0.075084
vt 0.075084 0.046236
vt 0.109005 0.023571
vt 0.146696 0.007959
vt 0.186709 0.000000
vt 0.227505 0.000000
vt 0.267518 0.007959
vt 0.305209 0.023571
vt 0.339130 0.046236
vt 0.367977 0.075084
vt 0.390642 0.109005
vt 0.406255 0.146696
vt 0.414214 0.186709
vt 0.414214 0.227505
vt 0.406255 0.267518
vt 0.390642 0.305209
vt 0.367977 0.339130
vt 0.339130 0.367977
vt 0.305209 0.390642
vt 0.267518 0.406255
vt 0.227505 0.414214
vt 0.186709 0.414214
vt 0.146696 0.406255
vt 0.109005 0.390642
vt 0.075084 0.367977
s 0
f 129/271/69 130/272/69 132/273/69 131/274/69
f 131/274/70 132/273/70 134/275/70 133/276/70
f 133/276/71 134/275/71 136/277/71 135/278/71
f 135/278/72 136/277/72 138/279/72 137/280/72
f 137/280/73 138/279/73 140/281/73 139/282/73
f 139/282/74 140/281/74 142/283/74 141/284/74
f 141/284/75 142/283/75 144/285/75 143/286/75
f 143/286/76 144/285/76 146/287/76 145/288/76
f 145/288/77 146/287/77 148/289/77 147/290/77
f 147/291/78 148/292/78 150/293/78 149/294/78
f 149/294/79 150/293/79 152/295/79 151/296/79
f 151/296/80 152/295/80 154/297/80 153/298/80
f 153/298/81 154/297/81 156/299/81 155/300/81
f 155/300/82 156/299/82 158/301/82 157/302/82
f 157/302/83 158/301/83 160/303/83 159/304/83
f 159/304/84 160/303/84 162/305/84 161/306/84
f 161/307/85 162/308/85 164/309/85 163/310/85
f 163/310/86 164/309/86 166/311/86 165/312/86
f 165/312/87 166/311/87 168/313/87 167/314/87
f 167/314/88 168/313/88 170/315/88 169/316/88
f 169/316/89 170/315/89 172/317/89 171/318/89
f 171/318/90 172/317/90 174/319/90 173/320/90
f 173/320/91 174/319/91 176/321/91 175/322/91
f 175/322/92 176/321/92 178/323/92 177/324/92
f 177/325/93 178/326/93 180/327/93 179/328/93
f 179/328/94 180/327/94 182/329/94 181/330/94
f 181/330/95 182/329/95 184/331/95 183/332/95
f 183/332/96 184/331/96 186/333/96 185/334/96
f 185/334/97 186/333/97 188/335/97 187/336/97
f 187/336/98 188/335/98 190/337/98 189/338/98
f 132/339/99 130/340/99 192/341/99 190/342/99 188/343/99 186/344/99 184/345/99 182/346/99 180/347/99 178/348/99 176/349/99 174/350/99 172/351/99 170/352/99 168/353/99 166/354/99 164/355/99 162/356/99 160/357/99 158/358/99 156/359/99 154/360/99 152/361/99 150/362/99 148/363/99 146/364/99 144/365/99 142/366/99 140/367/99 138/368/99 136/369/99 134/370/99
f 189/338/100 190/337/100 192/371/100 191/372/100
f 191/372/101 192/371/101 130/373/101 129/307/101
f 129/374/102 131/375/102 133/376/102 135/377/102 137/378/102 139/379/102 141/380/102 143/381/102 145/382/102 147/383/102 149/384/102 151/385/102 153/386/102 155/387/102 157/388/102 159/389/102 161/390/102 163/391/102 165/392/102 167/393/102 169/394/102 171/395/102 173/396/102 175/397/102 177/398/102 179/399/102 181/400/102 183/401/102 185/402/102 187/403/102 189/404/102 191/405/102
o Sphere
v 0.000000 0.083147 -0.055557
v 0.000000 0.055557 -0.083147
v 0.000000 0.019509 -0.098079
v 0.000000 0.000000 -0.100000
v 0.000000 -0.019509 -0.098079
v 0.000000 -0.055557 -0.083147
v 0.003806 0.098079 -0.019134
v 0.007466 0.092388 -0.037533
v 0.010839 0.083147 -0.054490
v 0.013795 0.070711 -0.069352
v 0.016221 0.055557 -0.081549
v 0.018024 0.038268 -0.090613
v 0.019134 0.019509 -0.096194
v 0.019509 0.000000 -0.098079
v 0.019134 -0.019509 -0.096194
v 0.018024 -0.038268 -0.090613
v 0.016221 -0.055557 -0.081549
v 0.013795 -0.070711 -0.069352
v 0.010839 -0.083147 -0.054490
v 0.007466 -0.092388 -0.037533
v 0.003806 -0.098079 -0.019134
v 0.007466 0.098079 -0.018024
v 0.014645 0.092388 -0.035355
v 0.021261 0.083147 -0.051328
v 0.027060 0.070711 -0.065328
v 0.031819 0.055557 -0.076818
v 0.035355 0.038268 -0.085355
v 0.037533 0.019509 -0.090613
v 0.038268 0.000000 -0.092388
v 0.037533 -0.019509 -0.090613
v 0.035355 -0.038268 -0.085355
v 0.031819 -0.055557 -0.076818
v 0.027060 -0.070711 -0.065328
v 0.021261 -0.083147 -0.051328
v 0.014645 -0.092388 -0.035355
v 0.007466 -0.098079 -0.018024
v 0.010839 0.098079 -0.016221
v 0.021261 0.092388 -0.031819
v 0.030866 0.083147 -0.046194
v 0.039285 0.070711 -0.058794
v 0.046194 0.055557 -0.069134
v 0.051328 0.038268 -0.076818
v 0.054490 0.019509 -0.081549
v 0.055557 0.000000 -0.083147
v 0.054490 -0.019509 -0.081549
v 0.051328 -0.038268 -0.076818
v 0.046194 -0.055557 -0.069134
v 0.039285 -0.070711 -0.058794
v 0.030866 -0.083147 -0.046194
v 0.021261 -0.092388 -0.031819
v 0.010839 -0.098079 -0.016221
v 0.013795 0.098079 -0.013795
v 0.027060 0.092388 -0.027060
v 0.039285 0.083147 -0.039285
v 0.050000 0.070711 -0.050000
v 0.058794 0.055557 -0.058794
v 0.065328 0.038268 -0.065328
v 0.069352 0.019509 -0.069352
v 0.070711 0.000000 -0.070711
v 0.069352 -0.019509 -0.069352
v 0.065328 -0.038268 -0.065328
v 0.058794 -0.055557 -0.058794
v 0.050000 -0.070711 -0.050000
v 0.039285 -0.083147 -0.039285
v 0.027060 -0.092388 -0.027060
v 0.013795 -0.098079 -0.013795
v 0.016221 0.098079 -0.010839
v 0.031819 0.092388 -0.021261
v 0.046194 0.083147 -0.030866
v 0.058794 0.070711 -0.039285
v 0.069134 0.055557 -0.046194
v 0.076818 0.038268 -0.051328
v 0.081549 0.019509 -0.054490
v 0.083147 0.000000 -0.055557
v 0.081549 -0.019509 -0.054490
v 0.076818 -0.038268 -0.051328
v 0.069134 -0.055557 -0.046194
v 0.058794 -0.070711 -0.039285
v 0.046194 -0.083147 -0.030866
v 0.031819 -0.092388 -0.021261
v 0.016221 -0.098079 -0.010839
v 0.000000 0.100000 0.000000
v 0.018024 0.098079 -0.007466
v 0.035355 0.092388 -0.014645
v 0.051328 0.083147 -0.021261
v 0.065328 0.070711 -0.027060
v 0.076818 0.055557 -0.031819
v 0.085355 0.038268 -0.035355
v 0.090613 0.019509 -0.037533
v 0.092388 0.000000 -0.038268
v 0.090613 -0.019509 -0.037533
v 0.085355 -0.038268 -0.035355
v 0.076818 -0.055557 -0.031819
v 0.065328 -0.070711 -0.027060
v 0.051328 -0.083147 -0.021261
v 0.035355 -0.092388 -0.014645
v 0.018024 -0.098079 -0.007466
v 0.019134 0.098079 -0.003806
v 0.037533 0.092388 -0.007466
v 0.054490 0.083147 -0.010839
v 0.069352 0.070711 -0.013795
v 0.081549 0.055557 -0.016221
v 0.090613 0.038268 -0.018024
v 0.096194 0.019509 -0.019134
v 0.098079 0.000000 -0.019509
v 0.096194 -0.019509 -0.019134
v 0.090613 -0.038268 -0.018024
v 0.081549 -0.055557 -0.016221
v 0.069352 -0.070711 -0.013795
v 0.054490 -0.083147 -0.010839
v 0.037533 -0.092388 -0.007466
v 0.019134 -0.098079 -0.003806
v 0.019509 0.098079 0.000000
v 0.038268 0.092388 0.000000
v 0.055557 0.083147 0.000000
v 0.070711 0.070711 -0.000000
v 0.083147 0.055557 0.000000
v 0.092388 0.038268 -0.000000
v 0.098079 0.019509 0.000000
v 0.100000 0.000000 0.000000
v 0.098079 -0.019509 0.000000
v 0.092388 -0.038268 -0.000000
v 0.083147 -0.055557 0.000000
v 0.070711 -0.070711 -0.000000
v 0.055557 -0.083147 0.000000
v 0.038268 -0.092388 0.000000
v 0.019509 -0.098079 0.000000
v 0.019134 0.098079 0.003806
v 0.037533 0.092388 0.007466
v 0.054490 0.083147 0.010839
v 0.069352 0.070711 0.013795
v 0.081549 0.055557 0.016221
v 0.090613 0.038268 0.018024
v 0.096194 0.019509 0.019134
v 0.098078 0.000000 0.019509
v 0.096194 -0.019509 0.019134
v 0.090613 -0.038268 0.018024
v 0.081549 -0.055557 0.016221
v 0.069352 -0.070711 0.013795
v 0.054490 -0.083147 0.010839
v 0.037533 -0.092388 0.007466
v 0.019134 -0.098079 0.003806
v 0.018024 0.098079 0.007466
v 0.035355 0.092388 0.014645
v 0.051328 0.083147 0.021261
v 0.065328 0.070711 0.027060
v 0.076818 0.055557 0.031819
v 0.085355 0.038268 0.035355
v 0.090613 0.019509 0.037533
v 0.092388 0.000000 0.038268
v 0.090613 -0.019509 0.037533
v 0.085355 -0.038268 0.035355
v 0.076818 -0.055557 0.031819
v 0.065328 -0.070711 0.027060
v 0.051328 -0.083147 0.021261
v 0.035355 -0.092388 0.014645
v 0.018024 -0.098079 0.007466
v 0.016221 0.098079 0.010839
v 0.031819 0.092388 0.021261
v 0.046194 0.083147 0.030866
v 0.058794 0.070711 0.039285
v 0.069134 0.055557 0.046194
v 0.076818 0.038268 0.051328
v 0.081549 0.019509 0.054490
v 0.083147 0.000000 0.055557
v 0.081549 -0.019509 0.054490
v 0.076818 -0.038268 0.051328
v 0.069134 -0.055557 0.046194
v 0.058794 -0.070711 0.039285
v 0.046194 -0.083147 0.030866
v 0.031819 -0.092388 0.021261
v 0.016221 -0.098079 0.010839
v 0.013795 0.098079 0.013795
v 0.027060 0.092388 0.027060
v 0.039285 0.083147 0.039285
v 0.050000 0.070711 0.050000
v 0.058794 0.055557 0.058794
v 0.065328 0.038268 0.065328
v 0.069352 0.019509 0.069352
v 0.070711 0.000000 0.070711
v 0.069352 -0.019509 0.069352
v 0.065328 -0.038268 0.065328
v 0.058794 -0.055557 0.058794
v 0.050000 -0.070711 0.050000
v 0.039285 -0.083147 0.039285
v 0.027060 -0.092388 0.027060
v 0.013795 -0.098079 0.013795
v 0.010839 0.098079 0.016221
v 0.021261 0.092388 0.031819
v 0.030866 0.083147 0.046194
v 0.039285 0.070711 0.058794
v 0.046194 0.055557 0.069134
v 0.051328 0.038268 0.076818
v 0.054489 0.019509 0.081549
v 0.055557 0.000000 0.083147
v 0.054489 -0.019509 0.081549
v 0.051328 -0.038268 0.076818
v 0.046194 -0.055557 0.069134
v 0.039285 -0.070711 0.058794
v 0.030866 -0.083147 0.046194
v 0.021261 -0.092388 0.031819
v 0.010839 -0.098079 0.016221
v 0.007466 0.098079 0.018024
v 0.014645 0.092388 0.035355
v 0.021261 0.083147 0.051328
v 0.027060 0.070711 0.065328
v 0.031819 0.055557 0.076818
v 0.035355 0.038268 0.085355
v 0.037533 0.019509 0.090613
v 0.038268 0.000000 0.092388
v 0.037533 -0.019509 0.090613
v 0.035355 -0.038268 0.085355
v 0.031819 -0.055557 0.076818
v 0.027060 -0.070711 0.065328
v 0.021261 -0.083147 0.051328
v 0.014645 -0.092388 0.035355
v 0.007466 -0.098079 0.018024
v 0.003806 0.098079 0.019134
v 0.007466 0.092388 0.037533
v 0.010839 0.083147 0.054489
v 0.013795 0.070711 0.069352
v 0.016221 0.055557 0.081549
v 0.018024 0.038268 0.090613
v 0.019134 0.019509 0.096194
v 0.019509 0.000000 0.098078
v 0.019134 -0.019509 0.096194
v 0.018024 -0.038268 0.090613
v 0.016221 -0.055557 0.081549
v 0.013795 -0.070711 0.069352
v 0.010839 -0.083147 0.054489
v 0.007466 -0.092388 0.037533
v 0.003806 -0.098079 0.019134
v -0.000000 0.098079 0.019509
v -0.000000 0.092388 0.038268
v -0.000000 0.083147 0.055557
v -0.000000 0.070711 0.070711
v -0.000000 0.055557 0.083147
v 0.000000 0.038268 0.092388
v -0.000000 0.019509 0.098078
v -0.000000 0.000000 0.100000
v -0.000000 -0.019509 0.098078
v 0.000000 -0.038268 0.092388
v -0.000000 -0.055557 0.083147
v -0.000000 -0.070711 0.070711
v -0.000000 -0.083147 0.055557
v -0.000000 -0.092388 0.038268
v -0.000000 -0.098079 0.019509
v -0.003806 0.098079 0.019134
v -0.007466 0.092388 0.037533
v -0.010839 0.083147 0.054489
v -0.013795 0.070711 0.069352
v -0.016221 0.055557 0.081549
v -0.018024 0.038268 0.090613
v -0.019134 0.019509 0.096194
v -0.019509 0.000000 0.098078
v -0.019134 -0.019509 0.096194
v -0.018024 -0.038268 0.090613
v -0.016221 -0.055557 0.081549
v -0.013795 -0.070711 0.069352
v -0.010839 -0.083147 0.054489
v -0.007466 -0.092388 0.037533
v -0.003806 -0.098079 0.019134
v -0.007466 0.098079 0.018024
v -0.014645 0.092388 0.035355
v -0.021261 0.083147 0.051328
v -0.027060 0.070711 0.065328
v -0.031819 0.055557 0.076818
v -0.035355 0.038268 0.085355
v -0.037533 0.019509 0.090613
v -0.038268 0.000000 0.092388
v -0.037533 -0.019509 0.090613
v -0.035355 -0.038268 0.085355
v -0.031819 -0.055557 0.076818
v -0.027060 -0.070711 0.065328
v -0.021261 -0.083147 0.051328
v -0.014645 -0.092388 0.035355
v -0.007466 -0.098079 0.018024
v -0.010839 0.098079 0.016221
v -0.021261 0.092388 0.031819
v -0.030866 0.083147 0.046194
v -0.039285 0.070711 0.058794
v -0.046194 0.055557 0.069134
v -0.051328 0.038268 0.076818
v -0.054490 0.019509 0.081549
v -0.055557 0.000000 0.083147
v -0.054490 -0.019509 0.081549
v -0.051328 -0.038268 0.076818
v -0.046194 -0.055557 0.069134
v -0.039285 -0.070711 0.058794
v -0.030866 -0.083147 0.046194
v -0.021261 -0.092388 0.031819
v -0.010839 -0.098079 0.016221
v -0.013795 0.098079 0.013795
v -0.027060 0.092388 0.027060
v -0.039285 0.083147 0.039285
v -0.050000 0.070711 0.050000
v -0.058794 0.055557 0.058794
v -0.065328 0.038268 0.065328
v -0.069352 0.019509 0.069352
v -0.070711 0.000000 0.070711
v -0.069352 -0.019509 0.069352
v -0.065328 -0.038268 0.065328
v -0.058794 -0.055557 0.058794
v -0.050000 -0.070711 0.050000
v -0.039285 -0.083147 0.039285
v -0.027060 -0.092388 0.027060
v -0.013795 -0.098079 0.013795
v 0.000000 -0.100000 0.000000
v -0.016221 0.098079 0.010839
v -0.031819 0.092388 0.021261
v -0.046194 0.083147 0.030866
v -0.058794 0.070711 0.039285
v -0.069134 0.055557 0.046194
v -0.076818 0.038268 0.051328
v -0.081549 0.019509 0.054489
v -0.083147 0.000000 0.055557
v -0.081549 -0.019509 0.054489
v -0.076818 -0.038268 0.051328
v -0.069134 -0.055557 0.046194
v -0.058794 -0.070711 0.039285
v -0.046194 -0.083147 0.030866
v -0.031819 -0.092388 0.021261
v -0.016221 -0.098079 0.010839
v -0.018024 0.098079 0.007466
v -0.035355 0.092388 0.014645
v -0.051328 0.083147 0.021261
v -0.065328 0.070711 0.027060
v -0.076818 0.055557 0.031819
v -0.085355 0.038268 0.035355
v -0.090613 0.019509 0.037533
v -0.092388 0.000000 0.038268
v -0.090613 -0.019509 0.037533
v -0.085355 -0.038268 0.035355
v -0.076818 -0.055557 0.031819
v -0.065328 -0.070711 0.027060
v -0.051328 -0.083147 0.021261
v -0.035355 -0.092388 0.014645
v -0.018024 -0.098079 0.007466
v -0.019134 0.098079 0.003806
v -0.037533 0.092388 0.007466
v -0.054489 0.083147 0.010839
v -0.069352 0.070711 0.013795
v -0.081549 0.055557 0.016221
v -0.090613 0.038268 0.018024
v -0.096194 0.019509 0.019134
v -0.098078 0.000000 0.019509
v -0.096194 -0.019509 0.019134
v -0.090613 -0.038268 0.018024
v -0.081549 -0.055557 0.016221
v -0.069352 -0.070711 0.013795
v -0.054489 -0.083147 0.010839
v -0.037533 -0.092388 0.007466
v -0.019134 -0.098079 0.003806
v -0.019509 0.098079 -0.000000
v -0.038268 0.092388 -0.000000
v -0.055557 0.083147 -0.000000
v -0.070711 0.070711 -0.000000
v -0.083147 0.055557 -0.000000
v -0.092388 0.038268 -0.000000
v -0.098078 0.019509 -0.000000
v -0.100000 0.000000 -0.000000
v -0.098078 -0.019509 -0.000000
v -0.092388 -0.038268 -0.000000
v -0.083147 -0.055557 -0.000000
v -0.070711 -0.070711 -0.000000
v -0.055557 -0.083147 -0.000000
v -0.038268 -0.092388 -0.000000
v -0.019509 -0.098079 -0.000000
v -0.019134 0.098079 -0.003806
v -0.037533 0.092388 -0.007466
v -0.054489 0.083147 -0.010839
v -0.069352 0.070711 -0.013795
v -0.081549 0.055557 -0.016221
v -0.090613 0.038268 -0.018024
v -0.096194 0.019509 -0.019134
v -0.098078 0.000000 -0.019509
v -0.096194 -0.019509 -0.019134
v -0.090613 -0.038268 -0.018024
v -0.081549 -0.055557 -0.016221
v -0.069352 -0.070711 -0.013795
v -0.054489 -0.083147 -0.010839
v -0.037533 -0.092388 -0.007466
v -0.019134 -0.098079 -0.003806
v -0.018024 0.098079 -0.007466
v -0.035355 0.092388 -0.014645
v -0.051328 0.083147 -0.021261
v -0.065328 0.070711 -0.027060
v -0.076818 0.055557 -0.031819
v -0.085355 0.038268 -0.035355
v -0.090613 0.019509 -0.037533
v -0.092388 0.000000 -0.038268
v -0.090613 -0.019509 -0.037533
v -0.085355 -0.038268 -0.035355
v -0.076818 -0.055557 -0.031819
v -0.065328 -0.070711 -0.027060
v -0.051328 -0.083147 -0.021261
v -0.035355 -0.092388 -0.014645
v -0.018024 -0.098079 -0.007466
v -0.016221 0.098079 -0.010839
v -0.031819 0.092388 -0.021261
v -0.046194 0.083147 -0.030866
v -0.058794 0.070711 -0.039285
v -0.069134 0.055557 -0.046194
v -0.076818 0.038268 -0.051328
v -0.081549 0.019509 -0.054490
v -0.083147 0.000000 -0.055557
v -0.081549 -0.019509 -0.054490
v -0.076818 -0.038268 -0.051328
v -0.069134 -0.055557 -0.046194
v -0.058794 -0.070711 -0.039285
v -0.046194 -0.083147 -0.030866
v -0.031819 -0.092388 -0.021261
v -0.016221 -0.098079 -0.010839
v -0.013795 0.098079 -0.013795
v -0.027060 0.092388 -0.027060
v -0.039285 0.083147 -0.039285
v -0.050000 0.070711 -0.050000
v -0.058794 0.055557 -0.058794
v -0.065328 0.038268 -0.065328
v -0.069352 0.019509 -0.069352
v -0.070711 0.000000 -0.070711
v -0.069352 -0.019509 -0.069352
v -0.065328 -0.038268 -0.065328
v -0.058794 -0.055557 -0.058794
v -0.050000 -0.070711 -0.050000
v -0.039285 -0.083147 -0.039285
v -0.027060 -0.092388 -0.027060
v -0.013795 -0.098079 -0.013795
v -0.010839 0.098079 -0.016221
v -0.021261 0.092388 -0.031819
v -0.030866 0.083147 -0.046194
v -0.039285 0.070711 -0.058794
v -0.046194 0.055557 -0.069134
v -0.051328 0.038268 -0.076818
v -0.054489 0.019509 -0.081549
v -0.055557 0.000000 -0.083147
v -0.054489 -0.019509 -0.081549
v -0.051328 -0.038268 -0.076818
v -0.046194 -0.055557 -0.069134
v -0.039285 -0.070711 -0.058794
v -0.030866 -0.083147 -0.046194
v -0.021261 -0.092388 -0.031819
v -0.010839 -0.098079 -0.016221
v -0.007466 0.098079 -0.018024
v -0.014645 0.092388 -0.035355
v -0.021261 0.083147 -0.051328
v -0.027060 0.070711 -0.065328
v -0.031819 0.055557 -0.076818
v -0.035355 0.038268 -0.085355
v -0.037533 0.019509 -0.090613
v -0.038268 0.000000 -0.092388
v -0.037533 -0.019509 -0.090613
v -0.035355 -0.038268 -0.085355
v -0.031819 -0.055557 -0.076818
v -0.027060 -0.070711 -0.065328
v -0.021261 -0.083147 -0.051328
v -0.014645 -0.092388 -0.035355
v -0.007466 -0.098079 -0.018024
v -0.003806 0.098079 -0.019134
v -0.007466 0.092388 -0.037533
v -0.010839 0.083147 -0.054489
v -0.013795 0.070711 -0.069352
v -0.016221 0.055557 -0.081549
v -0.018024 0.038268 -0.090613
v -0.019134 0.019509 -0.096194
v -0.019509 0.000000 -0.098078
v -0.019134 -0.019509 -0.096194
v -0.018024 -0.038268 -0.090613
v -0.016221 -0.055557 -0.081549
v -0.013795 -0.070711 -0.069352
v -0.010839 -0.083147 -0.054489
v -0.007466 -0.092388 -0.037533
v -0.003806 -0.098079 -0.019134
v 0.000000 0.098079 -0.019509
v 0.000000 0.092388 -0.038268
v 0.000000 0.070711 -0.070711
v 0.000000 0.038268 -0.092388
v 0.000000 -0.038268 -0.092388
v 0.000000 -0.070711 -0.070711
v 0.000000 -0.083147 -0.055557
v 0.000000 -0.092388 -0.038268
v 0.000000 -0.098079 -0.019509
vn 0.0975 0.0975 -0.9904
vn 0.0097 0.9951 -0.0980
vn 0.0097 -0.9951 -0.0980
vn 0.0975 -0.0975 -0.9904
vn 0.0286 0.9565 -0.2902
vn 0.0938 -0.2890 -0.9527
vn 0.0464 0.8810 -0.4709
vn 0.0865 -0.4696 -0.8786
vn 0.0624 0.7715 -0.6332
vn 0.0759 -0.6326 -0.7708
vn 0.0759 0.6326 -0.7708
vn 0.0624 -0.7715 -0.6332
vn 0.0865 0.4696 -0.8786
vn 0.0464 -0.8810 -0.4709
vn 0.0938 0.2890 -0.9527
vn 0.0286 -0.9565 -0.2902
vn 0.1374 -0.8810 -0.4528
vn 0.2779 0.2890 -0.9161
vn 0.0846 -0.9565 -0.2790
vn 0.2889 0.0976 -0.9524
vn 0.0286 0.9951 -0.0942
vn 0.0286 -0.9951 -0.0942
vn 0.2889 -0.0976 -0.9524
vn 0.0846 0.9565 -0.2790
vn 0.2779 -0.2890 -0.9161
vn 0.1374 0.8810 -0.4528
vn 0.2563 -0.4696 -0.8448
vn 0.1847 0.7715 -0.6088
vn 0.2248 -0.6326 -0.7412
vn 0.2248 0.6326 -0.7412
vn 0.1847 -0.7715 -0.6088
vn 0.2563 0.4696 -0.8448
vn 0.4162 -0.4696 -0.7786
vn 0.2999 0.7715 -0.5611
vn 0.3651 -0.6326 -0.6831
vn 0.3651 0.6326 -0.6831
vn 0.2999 -0.7715 -0.5611
vn 0.4162 0.4696 -0.7786
vn 0.2230 -0.8810 -0.4173
vn 0.4513 0.2890 -0.8443
vn 0.1374 -0.9565 -0.2571
vn 0.4691 0.0975 -0.8777
vn 0.0464 0.9951 -0.0869
vn 0.0464 -0.9951 -0.0869
vn 0.4691 -0.0975 -0.8777
vn 0.1374 0.9565 -0.2571
vn 0.4513 -0.2890 -0.8443
vn 0.2230 0.8810 -0.4173
vn 0.1850 -0.9565 -0.2254
vn 0.6314 0.0975 -0.7693
vn 0.0625 0.9951 -0.0761
vn 0.0625 -0.9951 -0.0761
vn 0.6314 -0.0975 -0.7693
vn 0.1850 0.9565 -0.2254
vn 0.6073 -0.2890 -0.7400
vn 0.3002 0.8810 -0.3658
vn 0.5601 -0.4696 -0.6825
vn 0.4036 0.7715 -0.4918
vn 0.4913 -0.6326 -0.5987
vn 0.4913 0.6326 -0.5987
vn 0.4036 -0.7715 -0.4918
vn 0.5601 0.4696 -0.6825
vn 0.3002 -0.8810 -0.3658
vn 0.6073 0.2890 -0.7400
vn 0.4918 0.7715 -0.4036
vn 0.5987 -0.6326 -0.4913
vn 0.5987 0.6326 -0.4913
vn 0.4918 -0.7715 -0.4036
vn 0.6825 0.4696 -0.5601
vn 0.3658 -0.8810 -0.3002
vn 0.7400 0.2890 -0.6073
vn 0.2254 -0.9565 -0.1850
vn 0.7693 0.0975 -0.6314
vn 0.0761 0.9951 -0.0625
vn 0.0761 -0.9951 -0.0625
vn 0.7693 -0.0975 -0.6314
vn 0.2254 0.9565 -0.1850
vn 0.7400 -0.2890 -0.6073
vn 0.3658 0.8810 -0.3002
vn 0.6825 -0.4696 -0.5601
vn 0.8777 0.0975 -0.4691
vn 0.0869 0.9951 -0.0464
vn 0.0869 -0.9951 -0.0464
vn 0.8777 -0.0975 -0.4691
vn 0.2571 0.9565 -0.1374
vn 0.8443 -0.2890 -0.4513
vn 0.4173 0.8810 -0.2230
vn 0.7786 -0.4696 -0.4162
vn 0.5611 0.7715 -0.2999
vn 0.6831 -0.6326 -0.3651
vn 0.6831 0.6326 -0.3651
vn 0.5611 -0.7715 -0.2999
vn 0.7786 0.4696 -0.4162
vn 0.4173 -0.8810 -0.2230
vn 0.8443 0.2890 -0.4513
vn 0.2571 -0.9565 -0.1374
vn 0.7412 -0.6326 -0.2248
vn 0.7412 0.6326 -0.2248
vn 0.6088 -0.7715 -0.1847
vn 0.8448 0.4696 -0.2563
vn 0.4528 -0.8810 -0.1374
vn 0.9161 0.2890 -0.2779
vn 0.2790 -0.9565 -0.0846
vn 0.9524 0.0975 -0.2889
vn 0.0942 0.9951 -0.0286
vn 0.0942 -0.9951 -0.0286
vn 0.9524 -0.0975 -0.2889
vn 0.2790 0.9565 -0.0846
vn 0.9161 -0.2890 -0.2779
vn 0.4528 0.8810 -0.1374
vn 0.8448 -0.4696 -0.2563
vn 0.6088 0.7715 -0.1847
vn 0.0980 0.9951 -0.0097
vn 0.0980 -0.9951 -0.0097
vn 0.9904 -0.0975 -0.0975
vn 0.2902 0.9565 -0.0286
vn 0.9527 -0.2890 -0.0938
vn 0.4709 0.8810 -0.0464
vn 0.8786 -0.4696 -0.0865
vn 0.6332 0.7715 -0.0624
vn 0.7708 -0.6326 -0.0759
vn 0.7708 0.6326 -0.0759
vn 0.6332 -0.7715 -0.0624
vn 0.8786 0.4696 -0.0865
vn 0.4709 -0.8810 -0.0464
vn 0.9527 0.2890 -0.0938
vn 0.2902 -0.9565 -0.0286
vn 0.9904 0.0975 -0.0975
vn 0.7708 0.6326 0.0759
vn 0.6332 -0.7715 0.0624
vn 0.8786 0.4696 0.0865
vn 0.4709 -0.8810 0.0464
vn 0.9527 0.2890 0.0938
vn 0.2902 -0.9565 0.0286
vn 0.9904 0.0975 0.0976
vn 0.0980 0.9951 0.0097
vn 0.0980 -0.9951 0.0097
vn 0.9904 -0.0975 0.0976
vn 0.2902 0.9565 0.0286
vn 0.9527 -0.2890 0.0938
vn 0.4709 0.8810 0.0464
vn 0.8786 -0.4696 0.0865
vn 0.6332 0.7715 0.0624
vn 0.7708 -0.6326 0.0759
vn 0.9524 -0.0975 0.2889
vn 0.2790 0.9565 0.0846
vn 0.9161 -0.2890 0.2779
vn 0.4528 0.8810 0.1374
vn 0.8448 -0.4696 0.2563
vn 0.6088 0.7715 0.1847
vn 0.7412 -0.6326 0.2248
vn 0.7412 0.6326 0.2248
vn 0.6088 -0.7715 0.1847
vn 0.8448 0.4696 0.2563
vn 0.4528 -0.8810 0.1374
vn 0.9161 0.2890 0.2779
vn 0.2790 -0.9565 0.0846
vn 0.9524 0.0975 0.2889
vn 0.0942 0.9951 0.0286
vn 0.0942 -0.9951 0.0286
vn 0.5611 -0.7715 0.2999
vn 0.7786 0.4696 0.4162
vn 0.4173 -0.8810 0.2230
vn 0.8443 0.2890 0.4513
vn 0.2571 -0.9565 0.1374
vn 0.8777 0.0975 0.4691
vn 0.0869 0.9951 0.0464
vn 0.0869 -0.9951 0.0464
vn 0.8777 -0.0975 0.4691
vn 0.2571 0.9565 0.1374
vn 0.8443 -0.2890 0.4513
vn 0.4173 0.8810 0.2230
vn 0.7786 -0.4696 0.4162
vn 0.5611 0.7715 0.2999
vn 0.6831 -0.6326 0.3651
vn 0.6831 0.6326 0.3651
vn 0.7400 -0.2890 0.6073
vn 0.3658 0.8810 0.3002
vn 0.6825 -0.4696 0.5601
vn 0.4918 0.7715 0.4036
vn 0.5987 -0.6326 0.4913
vn 0.5987 0.6326 0.4913
vn 0.4918 -0.7715 0.4036
vn 0.6825 0.4696 0.5601
vn 0.3658 -0.8810 0.3002
vn 0.7400 0.2890 0.6073
vn 0.2254 -0.9565 0.1850
vn 0.7693 0.0975 0.6314
vn 0.0761 0.9951 0.0625
vn 0.0761 -0.9951 0.0625
vn 0.7693 -0.0975 0.6314
vn 0.2254 0.9565 0.1850
vn 0.3002 -0.8810 0.3658
vn 0.6073 0.2890 0.7400
vn 0.1850 -0.9565 0.2254
vn 0.6314 0.0975 0.7693
vn 0.0625 0.9951 0.0761
vn 0.0625 -0.9951 0.0761
vn 0.6314 -0.0975 0.7693
vn 0.1850 0.9565 0.2254
vn 0.6073 -0.2890 0.7400
vn 0.3002 0.8810 0.3658
vn 0.5601 -0.4696 0.6825
vn 0.4036 0.7715 0.4918
vn 0.4913 -0.6326 0.5987
vn 0.4913 0.6326 0.5987
vn 0.4036 -0.7715 0.4918
vn 0.5601 0.4696 0.6825
vn 0.2230 0.8810 0.4173
vn 0.4162 -0.4696 0.7786
vn 0.2999 0.7715 0.5611
vn 0.3651 -0.6326 0.6831
vn 0.3651 0.6326 0.6831
vn 0.2999 -0.7715 0.5611
vn 0.4162 0.4696 0.7786
vn 0.2230 -0.8810 0.4173
vn 0.4513 0.2890 0.8443
vn 0.1374 -0.9565 0.2571
vn 0.4691 0.0975 0.8777
vn 0.0464 0.9951 0.0869
vn 0.0464 -0.9951 0.0869
vn 0.4691 -0.0975 0.8777
vn 0.1374 0.9565 0.2571
vn 0.4513 -0.2890 0.8443
vn 0.2779 0.2890 0.9161
vn 0.0846 -0.9565 0.2790
vn 0.2889 0.0975 0.9524
vn 0.0286 0.9951 0.0942
vn 0.0286 -0.9951 0.0942
vn 0.2889 -0.0975 0.9524
vn 0.0846 0.9565 0.2790
vn 0.2779 -0.2890 0.9161
vn 0.1374 0.8810 0.4528
vn 0.2563 -0.4696 0.8448
vn 0.1847 0.7715 0.6088
vn 0.2248 -0.6326 0.7412
vn 0.2248 0.6326 0.7412
vn 0.1847 -0.7715 0.6088
vn 0.2563 0.4696 0.8448
vn 0.1374 -0.8810 0.4528
vn 0.0865 -0.4696 0.8786
vn 0.0624 0.7715 0.6332
vn 0.0759 -0.6326 0.7708
vn 0.0759 0.6326 0.7708
vn 0.0624 -0.7715 0.6332
vn 0.0865 0.4696 0.8786
vn 0.0464 -0.8810 0.4709
vn 0.0938 0.2890 0.9527
vn 0.0286 -0.9565 0.2902
vn 0.0975 0.0975 0.9904
vn 0.0097 0.9951 0.0980
vn 0.0097 -0.9951 0.0980
vn 0.0975 -0.0975 0.9904
vn 0.0286 0.9565 0.2902
vn 0.0938 -0.2890 0.9527
vn 0.0464 0.8810 0.4709
vn -0.0286 -0.9565 0.2902
vn -0.0976 0.0975 0.9904
vn -0.0097 0.9951 0.0980
vn -0.0097 -0.9951 0.0980
vn -0.0976 -0.0975 0.9904
vn -0.0286 0.9565 0.2902
vn -0.0938 -0.2890 0.9527
vn -0.0464 0.8810 0.4709
vn -0.0865 -0.4696 0.8786
vn -0.0624 0.7715 0.6332
vn -0.0759 -0.6326 0.7708
vn -0.0759 0.6326 0.7708
vn -0.0624 -0.7715 0.6332
vn -0.0865 0.4696 0.8786
vn -0.0464 -0.8810 0.4709
vn -0.0938 0.2890 0.9527
vn -0.1847 0.7715 0.6088
vn -0.2248 -0.6326 0.7412
vn -0.2248 0.6326 0.7412
vn -0.1847 -0.7715 0.6088
vn -0.2563 0.4696 0.8448
vn -0.1374 -0.8810 0.4528
vn -0.2779 0.2890 0.9161
vn -0.0846 -0.9565 0.2790
vn -0.2889 0.0975 0.9524
vn -0.0286 0.9951 0.0942
vn -0.0286 -0.9951 0.0942
vn -0.2889 -0.0975 0.9524
vn -0.0846 0.9565 0.2790
vn -0.2779 -0.2890 0.9161
vn -0.1374 0.8810 0.4528
vn -0.2563 -0.4696 0.8448
vn -0.4691 0.0975 0.8777
vn -0.0464 0.9951 0.0869
vn -0.0464 -0.9951 0.0869
vn -0.4691 -0.0975 0.8777
vn -0.1374 0.9565 0.2571
vn -0.4513 -0.2890 0.8443
vn -0.2230 0.8810 0.4173
vn -0.4162 -0.4696 0.7786
vn -0.2999 0.7715 0.5611
vn -0.3651 -0.6326 0.6831
vn -0.3651 0.6326 0.6831
vn -0.2999 -0.7715 0.5611
vn -0.4162 0.4696 0.7786
vn -0.2230 -0.8810 0.4173
vn -0.4513 0.2890 0.8443
vn -0.1374 -0.9565 0.2571
vn -0.4913 -0.6326 0.5987
vn -0.4913 0.6326 0.5987
vn -0.4036 -0.7715 0.4918
vn -0.5601 0.4696 0.6825
vn -0.3002 -0.8810 0.3658
vn -0.6073 0.2890 0.7400
vn -0.1850 -0.9565 0.2254
vn -0.6314 0.0975 0.7693
vn -0.0625 0.9951 0.0761
vn -0.0625 -0.9951 0.0761
vn -0.6314 -0.0975 0.7693
vn -0.1850 0.9565 0.2254
vn -0.6073 -0.2890 0.7400
vn -0.3002 0.8810 0.3658
vn -0.5601 -0.4696 0.6825
vn -0.4036 0.7715 0.4918
vn -0.0761 -0.9951 0.0625
vn -0.7693 -0.0975 0.6314
vn -0.2254 0.9565 0.1850
vn -0.7400 -0.2890 0.6073
vn -0.3658 0.8810 0.3002
vn -0.6825 -0.4696 0.5601
vn -0.4918 0.7715 0.4036
vn -0.5987 -0.6326 0.4913
vn -0.5987 0.6326 0.4913
vn -0.4918 -0.7715 0.4036
vn -0.6825 0.4696 0.5601
vn -0.3658 -0.8810 0.3002
vn -0.7400 0.2890 0.6073
vn -0.2254 -0.9565 0.1850
vn -0.7693 0.0975 0.6314
vn -0.0761 0.9951 0.0625
vn -0.5611 -0.7715 0.2999
vn -0.7786 0.4696 0.4162
vn -0.4173 -0.8810 0.2230
vn -0.8443 0.2890 0.4513
vn -0.2571 -0.9565 0.1374
vn -0.8777 0.0975 0.4691
vn -0.0869 0.9951 0.0464
vn -0.0869 -0.9951 0.0464
vn -0.8777 -0.0975 0.4691
vn -0.2571 0.9565 0.1374
vn -0.8443 -0.2890 0.4513
vn -0.4173 0.8810 0.2230
vn -0.7786 -0.4696 0.4162
vn -0.5611 0.7715 0.2999
vn -0.6831 -0.6326 0.3651
vn -0.6831 0.6326 0.3651
vn -0.2790 0.9565 0.0846
vn -0.9161 -0.2890 0.2779
vn -0.4528 0.8810 0.1374
vn -0.8448 -0.4696 0.2563
vn -0.6088 0.7715 0.1847
vn -0.7412 -0.6326 0.2248
vn -0.7412 0.6326 0.2248
vn -0.6088 -0.7715 0.1847
vn -0.8448 0.4696 0.2563
vn -0.4528 -0.8810 0.1374
vn -0.9161 0.2890 0.2779
vn -0.2790 -0.9565 0.0846
vn -0.9524 0.0975 0.2889
vn -0.0942 0.9951 0.0286
vn -0.0942 -0.9951 0.0286
vn -0.9524 -0.0975 0.2889
vn -0.8786 0.4696 0.0865
vn -0.4709 -0.8810 0.0464
vn -0.9527 0.2890 0.0938
vn -0.2902 -0.9565 0.0286
vn -0.9904 0.0975 0.0975
vn -0.0980 0.9951 0.0097
vn -0.0980 -0.9951 0.0097
vn -0.9904 -0.0975 0.0975
vn -0.2902 0.9565 0.0286
vn -0.9527 -0.2890 0.0938
vn -0.4709 0.8810 0.0464
vn -0.8786 -0.4696 0.0865
vn -0.6332 0.7715 0.0624
vn -0.7708 -0.6326 0.0759
vn -0.7708 0.6326 0.0759
vn -0.6332 -0.7715 0.0624
vn -0.9527 -0.2890 -0.0938
vn -0.4709 0.8810 -0.0464
vn -0.8786 -0.4696 -0.0865
vn -0.6332 0.7715 -0.0624
vn -0.7708 -0.6326 -0.0759
vn -0.7708 0.6326 -0.0759
vn -0.6332 -0.7715 -0.0624
vn -0.8786 0.4696 -0.0865
vn -0.4709 -0.8810 -0.0464
vn -0.9527 0.2890 -0.0938
vn -0.2902 -0.9565 -0.0286
vn -0.9904 0.0975 -0.0976
vn -0.0980 0.9951 -0.0097
vn -0.0980 -0.9951 -0.0097
vn -0.9904 -0.0975 -0.0976
vn -0.2902 0.9565 -0.0286
vn -0.4528 -0.8810 -0.1374
vn -0.9161 0.2890 -0.2779
vn -0.2790 -0.9565 -0.0846
vn -0.9524 0.0975 -0.2889
vn -0.0942 0.9951 -0.0286
vn -0.0942 -0.9951 -0.0286
vn -0.9524 -0.0975 -0.2889
vn -0.2790 0.9565 -0.0846
vn -0.9161 -0.2890 -0.2779
vn -0.4528 0.8810 -0.1374
vn -0.8448 -0.4696 -0.2563
vn -0.6088 0.7715 -0.1847
vn -0.7412 -0.6326 -0.2248
vn -0.7412 0.6326 -0.2248
vn -0.6088 -0.7715 -0.1847
vn -0.8448 0.4696 -0.2563
vn -0.4173 0.8810 -0.2231
vn -0.7786 -0.4696 -0.4162
vn -0.5611 0.7715 -0.2999
vn -0.6831 -0.6326 -0.3651
vn -0.6831 0.6326 -0.3651
vn -0.5611 -0.7715 -0.2999
vn -0.7786 0.4696 -0.4162
vn -0.4173 -0.8810 -0.2231
vn -0.8443 0.2890 -0.4513
vn -0.2571 -0.9565 -0.1374
vn -0.8777 0.0975 -0.4691
vn -0.0869 0.9951 -0.0464
vn -0.0869 -0.9951 -0.0464
vn -0.8777 -0.0975 -0.4691
vn -0.2571 0.9565 -0.1374
vn -0.8443 -0.2890 -0.4513
vn -0.7400 0.2890 -0.6073
vn -0.2254 -0.9565 -0.1850
vn -0.7693 0.0975 -0.6314
vn -0.0761 0.9951 -0.0625
vn -0.0761 -0.9951 -0.0625
vn -0.7693 -0.0975 -0.6314
vn -0.2254 0.9565 -0.1850
vn -0.7400 -0.2890 -0.6073
vn -0.3658 0.8810 -0.3002
vn -0.6825 -0.4696 -0.5601
vn -0.4918 0.7715 -0.4036
vn -0.5987 -0.6326 -0.4913
vn -0.5987 0.6326 -0.4913
vn -0.4918 -0.7715 -0.4036
vn -0.6825 0.4696 -0.5601
vn -0.3658 -0.8810 -0.3002
vn -0.5601 -0.4696 -0.6825
vn -0.4036 0.7715 -0.4918
vn -0.4913 -0.6326 -0.5987
vn -0.4913 0.6326 -0.5987
vn -0.4036 -0.7715 -0.4918
vn -0.5601 0.4696 -0.6825
vn -0.3002 -0.8810 -0.3658
vn -0.6073 0.2890 -0.7400
vn -0.1850 -0.9565 -0.2254
vn -0.6314 0.0975 -0.7693
vn -0.0625 0.9951 -0.0761
vn -0.0625 -0.9951 -0.0761
vn -0.6314 -0.0975 -0.7693
vn -0.1850 0.9565 -0.2254
vn -0.6073 -0.2890 -0.7400
vn -0.3002 0.8810 -0.3658
vn -0.1374 -0.9565 -0.2571
vn -0.4691 0.0975 -0.8777
vn -0.0464 0.9951 -0.0869
vn -0.0464 -0.9951 -0.0869
vn -0.4691 -0.0975 -0.8777
vn -0.1374 0.9565 -0.2571
vn -0.4513 -0.2890 -0.8443
vn -0.2230 0.8810 -0.4173
vn -0.4162 -0.4696 -0.7786
vn -0.2999 0.7715 -0.5611
vn -0.3651 -0.6326 -0.6831
vn -0.3651 0.6326 -0.6831
vn -0.2999 -0.7715 -0.5611
vn -0.4162 0.4696 -0.7786
vn -0.2230 -0.8810 -0.4173
vn -0.4513 0.2890 -0.8443
vn -0.2248 -0.6326 -0.7412
vn -0.2248 0.6326 -0.7412
vn -0.1847 -0.7715 -0.6088
vn -0.2563 0.4696 -0.8448
vn -0.1374 -0.8810 -0.4528
vn -0.2779 0.2890 -0.9161
vn -0.0846 -0.9565 -0.2790
vn -0.2889 0.0975 -0.9524
vn -0.0286 0.9951 -0.0942
vn -0.0286 -0.9951 -0.0942
vn -0.2889 -0.0975 -0.9524
vn -0.0846 0.9565 -0.2790
vn -0.2779 -0.2890 -0.9161
vn -0.1374 0.8810 -0.4528
vn -0.2563 -0.4696 -0.8448
vn -0.1847 0.7715 -0.6088
vn -0.0097 0.9951 -0.0980
vn -0.0097 -0.9951 -0.0980
vn -0.0976 -0.0975 -0.9904
vn -0.0286 0.9565 -0.2902
vn -0.0938 -0.2890 -0.9527
vn -0.0464 0.8810 -0.4709
vn -0.0865 -0.4696 -0.8786
vn -0.0624 0.7715 -0.6332
vn -0.0759 -0.6326 -0.7708
vn -0.0759 0.6326 -0.7708
vn -0.0624 -0.7715 -0.6332
vn -0.0865 0.4696 -0.8786
vn -0.0464 -0.8810 -0.4709
vn -0.0938 0.2890 -0.9527
vn -0.0286 -0.9565 -0.2902
vn -0.0976 0.0975 -0.9904
vt 0.750000 0.500000
vt 0.750000 0.562500
vt 0.718750 0.562500
vt 0.718750 0.500000
vt 0.750000 0.937500
vt 0.734375 1.000000
vt 0.718750 0.937500
vt 0.734375 0.000000
vt 0.750000 0.062500
vt 0.718750 0.062500
vt 0.750000 0.437500
vt 0.718750 0.437500
vt 0.750000 0.875000
vt 0.718750 0.875000
vt 0.750000 0.375000
vt 0.718750 0.375000
vt 0.750000 0.812500
vt 0.718750 0.812500
vt 0.750000 0.312500
vt 0.718750 0.312500
vt 0.750000 0.750000
vt 0.718750 0.750000
vt 0.750000 0.250000
vt 0.718750 0.250000
vt 0.750000 0.687500
vt 0.718750 0.687500
vt 0.750000 0.187500
vt 0.718750 0.187500
vt 0.750000 0.625000
vt 0.718750 0.625000
vt 0.750000 0.125000
vt 0.718750 0.125000
vt 0.687500 0.187500
vt 0.687500 0.125000
vt 0.687500 0.625000
vt 0.687500 0.562500
vt 0.687500 0.062500
vt 0.687500 0.500000
vt 0.703125 1.000000
vt 0.687500 0.937500
vt 0.703125 0.000000
vt 0.687500 0.437500
vt 0.687500 0.875000
vt 0.687500 0.375000
vt 0.687500 0.812500
vt 0.687500 0.312500
vt 0.687500 0.750000
vt 0.687500 0.250000
vt 0.687500 0.687500
vt 0.656250 0.375000
vt 0.656250 0.312500
vt 0.656250 0.812500
vt 0.656250 0.750000
vt 0.656250 0.250000
vt 0.656250 0.687500
vt 0.656250 0.187500
vt 0.656250 0.625000
vt 0.656250 0.125000
vt 0.656250 0.562500
vt 0.656250 0.062500
vt 0.656250 0.500000
vt 0.671875 1.000000
vt 0.656250 0.937500
vt 0.671875 0.000000
vt 0.656250 0.437500
vt 0.656250 0.875000
vt 0.625000 0.125000
vt 0.625000 0.062500
vt 0.625000 0.562500
vt 0.625000 0.500000
vt 0.640625 1.000000
vt 0.625000 0.937500
vt 0.640625 0.000000
vt 0.625000 0.437500
vt 0.625000 0.875000
vt 0.625000 0.375000
vt 0.625000 0.812500
vt 0.625000 0.312500
vt 0.625000 0.750000
vt 0.625000 0.250000
vt 0.625000 0.687500
vt 0.625000 0.187500
vt 0.625000 0.625000
vt 0.593750 0.812500
vt 0.593750 0.750000
vt 0.593750 0.312500
vt 0.593750 0.250000
vt 0.593750 0.687500
vt 0.593750 0.187500
vt 0.593750 0.625000
vt 0.593750 0.125000
vt 0.593750 0.562500
vt 0.593750 0.062500
vt 0.593750 0.500000
vt 0.609375 1.000000
vt 0.593750 0.937500
vt 0.609375 0.000000
vt 0.593750 0.437500
vt 0.593750 0.875000
vt 0.593750 0.375000
vt 0.562500 0.562500
vt 0.562500 0.500000
vt 0.578125 1.000000
vt 0.562500 0.937500
vt 0.578125 0.000000
vt 0.562500 0.062500
vt 0.562500 0.437500
vt 0.562500 0.875000
vt 0.562500 0.375000
vt 0.562500 0.812500
vt 0.562500 0.312500
vt 0.562500 0.750000
vt 0.562500 0.250000
vt 0.562500 0.687500
vt 0.562500 0.187500
vt 0.562500 0.625000
vt 0.562500 0.125000
vt 0.531250 0.312500
vt 0.531250 0.250000
vt 0.531250 0.750000
vt 0.531250 0.687500
vt 0.531250 0.187500
vt 0.531250 0.625000
vt 0.531250 0.125000
vt 0.531250 0.562500
vt 0.531250 0.062500
vt 0.531250 0.500000
vt 0.546875 1.000000
vt 0.531250 0.937500
vt 0.546875 0.000000
vt 0.531250 0.437500
vt 0.531250 0.875000
vt 0.531250 0.375000
vt 0.531250 0.812500
vt 0.515625 1.000000
vt 0.500000 0.937500
vt 0.515625 0.000000
vt 0.500000 0.062500
vt 0.500000 0.500000
vt 0.500000 0.437500
vt 0.500000 0.875000
vt 0.500000 0.375000
vt 0.500000 0.812500
vt 0.500000 0.312500
vt 0.500000 0.750000
vt 0.500000 0.250000
vt 0.500000 0.687500
vt 0.500000 0.187500
vt 0.500000 0.625000
vt 0.500000 0.125000
vt 0.500000 0.562500
vt 0.468750 0.750000
vt 0.468750 0.687500
vt 0.468750 0.250000
vt 0.468750 0.187500
vt 0.468750 0.625000
vt 0.468750 0.125000
vt 0.468750 0.562500
vt 0.468750 0.062500
vt 0.468750 0.500000
vt 0.484375 1.000000
vt 0.468750 0.937500
vt 0.484375 0.000000
vt 0.468750 0.437500
vt 0.468750 0.875000
vt 0.468750 0.375000
vt 0.468750 0.812500
vt 0.468750 0.312500
vt 0.437500 0.500000
vt 0.437500 0.437500
vt 0.437500 0.937500
vt 0.437500 0.875000
vt 0.437500 0.375000
vt 0.437500 0.812500
vt 0.437500 0.312500
vt 0.437500 0.750000
vt 0.437500 0.250000
vt 0.437500 0.687500
vt 0.437500 0.187500
vt 0.437500 0.625000
vt 0.437500 0.125000
vt 0.437500 0.562500
vt 0.437500 0.062500
vt 0.453125 1.000000
vt 0.453125 0.000000
vt 0.406250 0.250000
vt 0.406250 0.187500
vt 0.406250 0.687500
vt 0.406250 0.625000
vt 0.406250 0.125000
vt 0.406250 0.562500
vt 0.406250 0.062500
vt 0.406250 0.500000
vt 0.421875 1.000000
vt 0.406250 0.937500
vt 0.421875 0.000000
vt 0.406250 0.437500
vt 0.406250 0.875000
vt 0.406250 0.375000
vt 0.406250 0.812500
vt 0.406250 0.312500
vt 0.406250 0.750000
vt 0.375000 0.437500
vt 0.375000 0.375000
vt 0.375000 0.875000
vt 0.375000 0.812500
vt 0.375000 0.312500
vt 0.375000 0.750000
vt 0.375000 0.250000
vt 0.375000 0.687500
vt 0.375000 0.187500
vt 0.375000 0.625000
vt 0.375000 0.125000
vt 0.375000 0.562500
vt 0.375000 0.062500
vt 0.375000 0.500000
vt 0.390625 1.000000
vt 0.375000 0.937500
vt 0.390625 0.000000
vt 0.343750 0.187500
vt 0.343750 0.125000
vt 0.343750 0.625000
vt 0.343750 0.562500
vt 0.343750 0.062500
vt 0.343750 0.500000
vt 0.359375 1.000000
vt 0.343750 0.937500
vt 0.359375 0.000000
vt 0.343750 0.437500
vt 0.343750 0.875000
vt 0.343750 0.375000
vt 0.343750 0.812500
vt 0.343750 0.312500
vt 0.343750 0.750000
vt 0.343750 0.250000
vt 0.343750 0.687500
vt 0.312500 0.875000
vt 0.312500 0.812500
vt 0.312500 0.375000
vt 0.312500 0.312500
vt 0.312500 0.750000
vt 0.312500 0.250000
vt 0.312500 0.687500
vt 0.312500 0.187500
vt 0.312500 0.625000
vt 0.312500 0.125000
vt 0.312500 0.562500
vt 0.312500 0.062500
vt 0.312500 0.500000
vt 0.328125 1.000000
vt 0.312500 0.937500
vt 0.328125 0.000000
vt 0.312500 0.437500
vt 0.281250 0.625000
vt 0.281250 0.562500
vt 0.281250 0.125000
vt 0.281250 0.062500
vt 0.281250 0.500000
vt 0.296875 1.000000
vt 0.281250 0.937500
vt 0.296875 0.000000
vt 0.281250 0.437500
vt 0.281250 0.875000
vt 0.281250 0.375000
vt 0.281250 0.812500
vt 0.281250 0.312500
vt 0.281250 0.750000
vt 0.281250 0.250000
vt 0.281250 0.687500
vt 0.281250 0.187500
vt 0.250000 0.375000
vt 0.250000 0.312500
vt 0.250000 0.812500
vt 0.250000 0.750000
vt 0.250000 0.250000
vt 0.250000 0.687500
vt 0.250000 0.187500
vt 0.250000 0.625000
vt 0.250000 0.125000
vt 0.250000 0.562500
vt 0.250000 0.062500
vt 0.250000 0.500000
vt 0.265625 1.000000
vt 0.250000 0.937500
vt 0.265625 0.000000
vt 0.250000 0.437500
vt 0.250000 0.875000
vt 0.218750 0.125000
vt 0.218750 0.062500
vt 0.218750 0.562500
vt 0.218750 0.500000
vt 0.234375 1.000000
vt 0.218750 0.937500
vt 0.234375 0.000000
vt 0.218750 0.437500
vt 0.218750 0.875000
vt 0.218750 0.375000
vt 0.218750 0.812500
vt 0.218750 0.312500
vt 0.218750 0.750000
vt 0.218750 0.250000
vt 0.218750 0.687500
vt 0.218750 0.187500
vt 0.218750 0.625000
vt 0.187500 0.812500
vt 0.187500 0.750000
vt 0.187500 0.312500
vt 0.187500 0.250000
vt 0.187500 0.687500
vt 0.187500 0.187500
vt 0.187500 0.625000
vt 0.187500 0.125000
vt 0.187500 0.562500
vt 0.187500 0.062500
vt 0.187500 0.500000
vt 0.203125 1.000000
vt 0.187500 0.937500
vt 0.203125 0.000000
vt 0.187500 0.437500
vt 0.187500 0.875000
vt 0.187500 0.375000
vt 0.156250 0.562500
vt 0.156250 0.500000
vt 0.171875 1.000000
vt 0.156250 0.937500
vt 0.171875 0.000000
vt 0.156250 0.062500
vt 0.156250 0.437500
vt 0.156250 0.875000
vt 0.156250 0.375000
vt 0.156250 0.812500
vt 0.156250 0.312500
vt 0.156250 0.750000
vt 0.156250 0.250000
vt 0.156250 0.687500
vt 0.156250 0.187500
vt 0.156250 0.625000
vt 0.156250 0.125000
vt 0.125000 0.312500
vt 0.125000 0.250000
vt 0.125000 0.750000
vt 0.125000 0.687500
vt 0.125000 0.187500
vt 0.125000 0.625000
vt 0.125000 0.125000
vt 0.125000 0.562500
vt 0.125000 0.062500
vt 0.125000 0.500000
vt 0.140625 1.000000
vt 0.125000 0.937500
vt 0.140625 0.000000
vt 0.125000 0.437500
vt 0.125000 0.875000
vt 0.125000 0.375000
vt 0.125000 0.812500
vt 0.109375 0.000000
vt 0.093750 0.062500
vt 0.093750 0.500000
vt 0.093750 0.437500
vt 0.093750 0.937500
vt 0.093750 0.875000
vt 0.093750 0.375000
vt 0.093750 0.812500
vt 0.093750 0.312500
vt 0.093750 0.750000
vt 0.093750 0.250000
vt 0.093750 0.687500
vt 0.093750 0.187500
vt 0.093750 0.625000
vt 0.093750 0.125000
vt 0.093750 0.562500
vt 0.109375 1.000000
vt 0.062500 0.250000
vt 0.062500 0.187500
vt 0.062500 0.687500
vt 0.062500 0.625000
vt 0.062500 0.125000
vt 0.062500 0.562500
vt 0.062500 0.062500
vt 0.062500 0.500000
vt 0.078125 1.000000
vt 0.062500 0.937500
vt 0.078125 0.000000
vt 0.062500 0.437500
vt 0.062500 0.875000
vt 0.062500 0.375000
vt 0.062500 0.812500
vt 0.062500 0.312500
vt 0.062500 0.750000
vt 0.031250 0.937500
vt 0.031250 0.875000
vt 0.031250 0.437500
vt 0.031250 0.375000
vt 0.031250 0.812500
vt 0.031250 0.312500
vt 0.031250 0.750000
vt 0.031250 0.250000
vt 0.031250 0.687500
vt 0.031250 0.187500
vt 0.031250 0.625000
vt 0.031250 0.125000
vt 0.031250 0.562500
vt 0.031250 0.062500
vt 0.031250 0.500000
vt 0.046875 1.000000
vt 0.046875 0.000000
vt 0.000000 0.687500
vt 0.000000 0.625000
vt 0.000000 0.187500
vt 0.000000 0.125000
vt 0.000000 0.562500
vt 0.000000 0.062500
vt 0.000000 0.500000
vt 0.015625 1.000000
vt 0.000000 0.937500
vt 0.015625 0.000000
vt 0.000000 0.437500
vt 0.000000 0.875000
vt 0.000000 0.375000
vt 0.000000 0.812500
vt 0.000000 0.312500
vt 0.000000 0.750000
vt 0.000000 0.250000
vt 1.000000 0.375000
vt 1.000000 0.437500
vt 0.968750 0.437500
vt 0.968750 0.375000
vt 1.000000 0.812500
vt 1.000000 0.875000
vt 0.968750 0.875000
vt 0.968750 0.812500
vt 1.000000 0.312500
vt 0.968750 0.312500
vt 1.000000 0.750000
vt 0.968750 0.750000
vt 1.000000 0.250000
vt 0.968750 0.250000
vt 1.000000 0.687500
vt 0.968750 0.687500
vt 1.000000 0.187500
vt 0.968750 0.187500
vt 1.000000 0.625000
vt 0.968750 0.625000
vt 1.000000 0.125000
vt 0.968750 0.125000
vt 1.000000 0.562500
vt 0.968750 0.562500
vt 1.000000 0.062500
vt 0.968750 0.062500
vt 1.000000 0.500000
vt 0.968750 0.500000
vt 1.000000 0.937500
vt 0.984375 1.000000
vt 0.968750 0.937500
vt 0.984375 0.000000
vt 0.937500 0.187500
vt 0.937500 0.125000
vt 0.937500 0.625000
vt 0.937500 0.562500
vt 0.937500 0.062500
vt 0.937500 0.500000
vt 0.953125 1.000000
vt 0.937500 0.937500
vt 0.953125 0.000000
vt 0.937500 0.437500
vt 0.937500 0.875000
vt 0.937500 0.375000
vt 0.937500 0.812500
vt 0.937500 0.312500
vt 0.937500 0.750000
vt 0.937500 0.250000
vt 0.937500 0.687500
vt 0.906250 0.875000
vt 0.906250 0.812500
vt 0.906250 0.375000
vt 0.906250 0.312500
vt 0.906250 0.750000
vt 0.906250 0.250000
vt 0.906250 0.687500
vt 0.906250 0.187500
vt 0.906250 0.625000
vt 0.906250 0.125000
vt 0.906250 0.562500
vt 0.906250 0.062500
vt 0.906250 0.500000
vt 0.921875 1.000000
vt 0.906250 0.937500
vt 0.921875 0.000000
vt 0.906250 0.437500
vt 0.875000 0.625000
vt 0.875000 0.562500
vt 0.875000 0.125000
vt 0.875000 0.062500
vt 0.875000 0.500000
vt 0.890625 1.000000
vt 0.875000 0.937500
vt 0.890625 0.000000
vt 0.875000 0.437500
vt 0.875000 0.875000
vt 0.875000 0.375000
vt 0.875000 0.812500
vt 0.875000 0.312500
vt 0.875000 0.750000
vt 0.875000 0.250000
vt 0.875000 0.687500
vt 0.875000 0.187500
vt 0.843750 0.375000
vt 0.843750 0.312500
vt 0.843750 0.812500
vt 0.843750 0.750000
vt 0.843750 0.250000
vt 0.843750 0.687500
vt 0.843750 0.187500
vt 0.843750 0.625000
vt 0.843750 0.125000
vt 0.843750 0.562500
vt 0.843750 0.062500
vt 0.843750 0.500000
vt 0.859375 1.000000
vt 0.843750 0.937500
vt 0.859375 0.000000
vt 0.843750 0.437500
vt 0.843750 0.875000
vt 0.812500 0.125000
vt 0.812500 0.062500
vt 0.812500 0.562500
vt 0.812500 0.500000
vt 0.828125 1.000000
vt 0.812500 0.937500
vt 0.828125 0.000000
vt 0.812500 0.437500
vt 0.812500 0.875000
vt 0.812500 0.375000
vt 0.812500 0.812500
vt 0.812500 0.312500
vt 0.812500 0.750000
vt 0.812500 0.250000
vt 0.812500 0.687500
vt 0.812500 0.187500
vt 0.812500 0.625000
vt 0.781250 0.312500
vt 0.781250 0.250000
vt 0.781250 0.750000
vt 0.781250 0.687500
vt 0.781250 0.187500
vt 0.781250 0.625000
vt 0.781250 0.125000
vt 0.781250 0.562500
vt 0.781250 0.062500
vt 0.781250 0.500000
vt 0.796875 1.000000
vt 0.781250 0.937500
vt 0.796875 0.000000
vt 0.781250 0.437500
vt 0.781250 0.875000
vt 0.781250 0.375000
vt 0.781250 0.812500
vt 0.765625 1.000000
vt 0.765625 0.000000
s 0
f 196/406/103 195/407/103 205/408/103 206/409/103
f 666/410/104 274/411/104 199/412/104
f 500/413/105 674/414/105 213/415/105
f 197/416/106 196/406/106 206/409/106 207/417/106
f 667/418/107 666/410/107 199/412/107 200/419/107
f 670/420/108 197/416/108 207/417/108 208/421/108
f 193/422/109 667/418/109 200/419/109 201/423/109
f 198/424/110 670/420/110 208/421/110 209/425/110
f 668/426/111 193/422/111 201/423/111 202/427/111
f 671/428/112 198/424/112 209/425/112 210/429/112
f 194/430/113 668/426/113 202/427/113 203/431/113
f 672/432/114 671/428/114 210/429/114 211/433/114
f 669/434/115 194/430/115 203/431/115 204/435/115
f 673/436/116 672/432/116 211/433/116 212/437/116
f 195/407/117 669/434/117 204/435/117 205/408/117
f 674/414/118 673/436/118 212/437/118 213/415/118
f 212/437/119 211/433/119 226/438/119 227/439/119
f 205/408/120 204/435/120 219/440/120 220/441/120
f 213/415/121 212/437/121 227/439/121 228/442/121
f 206/409/122 205/408/122 220/441/122 221/443/122
f 199/412/123 274/444/123 214/445/123
f 500/446/124 213/415/124 228/442/124
f 207/417/125 206/409/125 221/443/125 222/447/125
f 200/419/126 199/412/126 214/445/126 215/448/126
f 208/421/127 207/417/127 222/447/127 223/449/127
f 201/423/128 200/419/128 215/448/128 216/450/128
f 209/425/129 208/421/129 223/449/129 224/451/129
f 202/427/130 201/423/130 216/450/130 217/452/130
f 210/429/131 209/425/131 224/451/131 225/453/131
f 203/431/132 202/427/132 217/452/132 218/454/132
f 211/433/133 210/429/133 225/453/133 226/438/133
f 204/435/134 203/431/134 218/454/134 219/440/134
f 224/451/135 223/449/135 238/455/135 239/456/135
f 217/452/136 216/450/136 231/457/136 232/458/136
f 225/453/137 224/451/137 239/456/137 240/459/137
f 218/454/138 217/452/138 232/458/138 233/460/138
f 226/438/139 225/453/139 240/459/139 241/461/139
f 219/440/140 218/454/140 233/460/140 234/462/140
f 227/439/141 226/438/141 241/461/141 242/463/141
f 220/441/142 219/440/142 234/462/142 235/464/142
f 228/442/143 227/439/143 242/463/143 243/465/143
f 221/443/144 220/441/144 235/464/144 236/466/144
f 214/445/145 274/467/145 229/468/145
f 500/469/146 228/442/146 243/465/146
f 222/447/147 221/443/147 236/466/147 237/470/147
f 215/448/148 214/445/148 229/468/148 230/471/148
f 223/449/149 222/447/149 237/470/149 238/455/149
f 216/450/150 215/448/150 230/471/150 231/457/150
f 243/465/151 242/463/151 257/472/151 258/473/151
f 236/466/152 235/464/152 250/474/152 251/475/152
f 229/468/153 274/476/153 244/477/153
f 500/478/154 243/465/154 258/473/154
f 237/470/155 236/466/155 251/475/155 252/479/155
f 230/471/156 229/468/156 244/477/156 245/480/156
f 238/455/157 237/470/157 252/479/157 253/481/157
f 231/457/158 230/471/158 245/480/158 246/482/158
f 239/456/159 238/455/159 253/481/159 254/483/159
f 232/458/160 231/457/160 246/482/160 247/484/160
f 240/459/161 239/456/161 254/483/161 255/485/161
f 233/460/162 232/458/162 247/484/162 248/486/162
f 241/461/163 240/459/163 255/485/163 256/487/163
f 234/462/164 233/460/164 248/486/164 249/488/164
f 242/463/165 241/461/165 256/487/165 257/472/165
f 235/464/166 234/462/166 249/488/166 250/474/166
f 247/484/167 246/482/167 261/489/167 262/490/167
f 255/485/168 254/483/168 269/491/168 270/492/168
f 248/486/169 247/484/169 262/490/169 263/493/169
f 256/487/170 255/485/170 270/492/170 271/494/170
f 249/488/171 248/486/171 263/493/171 264/495/171
f 257/472/172 256/487/172 271/494/172 272/496/172
f 250/474/173 249/488/173 264/495/173 265/497/173
f 258/473/174 257/472/174 272/496/174 273/498/174
f 251/475/175 250/474/175 265/497/175 266/499/175
f 244/477/176 274/500/176 259/501/176
f 500/502/177 258/473/177 273/498/177
f 252/479/178 251/475/178 266/499/178 267/503/178
f 245/480/179 244/477/179 259/501/179 260/504/179
f 253/481/180 252/479/180 267/503/180 268/505/180
f 246/482/181 245/480/181 260/504/181 261/489/181
f 254/483/182 253/481/182 268/505/182 269/491/182
f 266/499/183 265/497/183 281/506/183 282/507/183
f 259/501/184 274/508/184 275/509/184
f 500/510/185 273/498/185 289/511/185
f 267/503/186 266/499/186 282/507/186 283/512/186
f 260/504/187 259/501/187 275/509/187 276/513/187
f 268/505/188 267/503/188 283/512/188 284/514/188
f 261/489/189 260/504/189 276/513/189 277/515/189
f 269/491/190 268/505/190 284/514/190 285/516/190
f 262/490/191 261/489/191 277/515/191 278/517/191
f 270/492/192 269/491/192 285/516/192 286/518/192
f 263/493/193 262/490/193 278/517/193 279/519/193
f 271/494/194 270/492/194 286/518/194 287/520/194
f 264/495/195 263/493/195 279/519/195 280/521/195
f 272/496/196 271/494/196 287/520/196 288/522/196
f 265/497/197 264/495/197 280/521/197 281/506/197
f 273/498/198 272/496/198 288/522/198 289/511/198
f 286/518/199 285/516/199 300/523/199 301/524/199
f 279/519/200 278/517/200 293/525/200 294/526/200
f 287/520/201 286/518/201 301/524/201 302/527/201
f 280/521/202 279/519/202 294/526/202 295/528/202
f 288/522/203 287/520/203 302/527/203 303/529/203
f 281/506/204 280/521/204 295/528/204 296/530/204
f 289/511/205 288/522/205 303/529/205 304/531/205
f 282/507/206 281/506/206 296/530/206 297/532/206
f 275/509/207 274/533/207 290/534/207
f 500/535/208 289/511/208 304/531/208
f 283/512/209 282/507/209 297/532/209 298/536/209
f 276/513/210 275/509/210 290/534/210 291/537/210
f 284/514/211 283/512/211 298/536/211 299/538/211
f 277/515/212 276/513/212 291/537/212 292/539/212
f 285/516/213 284/514/213 299/538/213 300/523/213
f 278/517/214 277/515/214 292/539/214 293/525/214
f 290/534/215 274/540/215 305/541/215
f 500/542/216 304/531/216 319/543/216
f 298/536/217 297/532/217 312/544/217 313/545/217
f 291/537/218 290/534/218 305/541/218 306/546/218
f 299/538/219 298/536/219 313/545/219 314/547/219
f 292/539/220 291/537/220 306/546/220 307/548/220
f 300/523/221 299/538/221 314/547/221 315/549/221
f 293/525/222 292/539/222 307/548/222 308/550/222
f 301/524/223 300/523/223 315/549/223 316/551/223
f 294/526/224 293/525/224 308/550/224 309/552/224
f 302/527/225 301/524/225 316/551/225 317/553/225
f 295/528/226 294/526/226 309/552/226 310/554/226
f 303/529/227 302/527/227 317/553/227 318/555/227
f 296/530/228 295/528/228 310/554/228 311/556/228
f 304/531/229 303/529/229 318/555/229 319/543/229
f 297/532/230 296/530/230 311/556/230 312/544/230
f 309/552/231 308/550/231 323/557/231 324/558/231
f 317/553/232 316/551/232 331/559/232 332/560/232
f 310/554/233 309/552/233 324/558/233 325/561/233
f 318/555/234 317/553/234 332/560/234 333/562/234
f 311/556/235 310/554/235 325/561/235 326/563/235
f 319/543/236 318/555/236 333/562/236 334/564/236
f 312/544/237 311/556/237 326/563/237 327/565/237
f 305/541/238 274/566/238 320/567/238
f 500/568/239 319/543/239 334/564/239
f 313/545/240 312/544/240 327/565/240 328/569/240
f 306/546/241 305/541/241 320/567/241 321/570/241
f 314/547/242 313/545/242 328/569/242 329/571/242
f 307/548/243 306/546/243 321/570/243 322/572/243
f 315/549/244 314/547/244 329/571/244 330/573/244
f 308/550/245 307/548/245 322/572/245 323/557/245
f 316/551/246 315/549/246 330/573/246 331/559/246
f 328/569/247 327/565/247 342/574/247 343/575/247
f 321/570/248 320/567/248 335/576/248 336/577/248
f 329/571/249 328/569/249 343/575/249 344/578/249
f 322/572/250 321/570/250 336/577/250 337/579/250
f 330/573/251 329/571/251 344/578/251 345/580/251
f 323/557/252 322/572/252 337/579/252 338/581/252
f 331/559/253 330/573/253 345/580/253 346/582/253
f 324/558/254 323/557/254 338/581/254 339/583/254
f 332/560/255 331/559/255 346/582/255 347/584/255
f 325/561/256 324/558/256 339/583/256 340/585/256
f 333/562/257 332/560/257 347/584/257 348/586/257
f 326/563/258 325/561/258 340/585/258 341/587/258
f 334/564/259 333/562/259 348/586/259 349/588/259
f 327/565/260 326/563/260 341/587/260 342/574/260
f 320/567/261 274/589/261 335/576/261
f 500/590/262 334/564/262 349/588/262
f 347/584/263 346/582/263 361/591/263 362/592/263
f 340/585/264 339/583/264 354/593/264 355/594/264
f 348/586/265 347/584/265 362/592/265 363/595/265
f 341/587/266 340/585/266 355/594/266 356/596/266
f 349/588/267 348/586/267 363/595/267 364/597/267
f 342/574/268 341/587/268 356/596/268 357/598/268
f 335/576/269 274/599/269 350/600/269
f 500/601/270 349/588/270 364/597/270
f 343/575/271 342/574/271 357/598/271 358/602/271
f 336/577/272 335/576/272 350/600/272 351/603/272
f 344/578/273 343/575/273 358/602/273 359/604/273
f 337/579/274 336/577/274 351/603/274 352/605/274
f 345/580/275 344/578/275 359/604/275 360/606/275
f 338/581/276 337/579/276 352/605/276 353/607/276
f 346/582/277 345/580/277 360/606/277 361/591/277
f 339/583/278 338/581/278 353/607/278 354/593/278
f 359/604/279 358/602/279 373/608/279 374/609/279
f 352/605/280 351/603/280 366/610/280 367/611/280
f 360/606/281 359/604/281 374/609/281 375/612/281
f 353/607/282 352/605/282 367/611/282 368/613/282
f 361/591/283 360/606/283 375/612/283 376/614/283
f 354/593/284 353/607/284 368/613/284 369/615/284
f 362/592/285 361/591/285 376/614/285 377/616/285
f 355/594/286 354/593/286 369/615/286 370/617/286
f 363/595/287 362/592/287 377/616/287 378/618/287
f 356/596/288 355/594/288 370/617/288 371/619/288
f 364/597/289 363/595/289 378/618/289 379/620/289
f 357/598/290 356/596/290 371/619/290 372/621/290
f 350/600/291 274/622/291 365/623/291
f 500/624/292 364/597/292 379/620/292
f 358/602/293 357/598/293 372/621/293 373/608/293
f 351/603/294 350/600/294 365/623/294 366/610/294
f 378/618/295 377/616/295 392/625/295 393/626/295
f 371/619/296 370/617/296 385/627/296 386/628/296
f 379/620/297 378/618/297 393/626/297 394/629/297
f 372/621/298 371/619/298 386/628/298 387/630/298
f 365/623/299 274/631/299 380/632/299
f 500/633/300 379/620/300 394/629/300
f 373/608/301 372/621/301 387/630/301 388/634/301
f 366/610/302 365/623/302 380/632/302 381/635/302
f 374/609/303 373/608/303 388/634/303 389/636/303
f 367/611/304 366/610/304 381/635/304 382/637/304
f 375/612/305 374/609/305 389/636/305 390/638/305
f 368/613/306 367/611/306 382/637/306 383/639/306
f 376/614/307 375/612/307 390/638/307 391/640/307
f 369/615/308 368/613/308 383/639/308 384/641/308
f 377/616/309 376/614/309 391/640/309 392/625/309
f 370/617/310 369/615/310 384/641/310 385/627/310
f 382/637/311 381/635/311 396/642/311 397/643/311
f 390/638/312 389/636/312 404/644/312 405/645/312
f 383/639/313 382/637/313 397/643/313 398/646/313
f 391/640/314 390/638/314 405/645/314 406/647/314
f 384/641/315 383/639/315 398/646/315 399/648/315
f 392/625/316 391/640/316 406/647/316 407/649/316
f 385/627/317 384/641/317 399/648/317 400/650/317
f 393/626/318 392/625/318 407/649/318 408/651/318
f 386/628/319 385/627/319 400/650/319 401/652/319
f 394/629/320 393/626/320 408/651/320 409/653/320
f 387/630/321 386/628/321 401/652/321 402/654/321
f 380/632/322 274/655/322 395/656/322
f 500/657/323 394/629/323 409/653/323
f 388/634/324 387/630/324 402/654/324 403/658/324
f 381/635/325 380/632/325 395/656/325 396/642/325
f 389/636/326 388/634/326 403/658/326 404/644/326
f 401/652/327 400/650/327 415/659/327 416/660/327
f 409/653/328 408/651/328 423/661/328 424/662/328
f 402/654/329 401/652/329 416/660/329 417/663/329
f 395/656/330 274/664/330 410/665/330
f 500/666/331 409/653/331 424/662/331
f 403/658/332 402/654/332 417/663/332 418/667/332
f 396/642/333 395/656/333 410/665/333 411/668/333
f 404/644/334 403/658/334 418/667/334 419/669/334
f 397/643/335 396/642/335 411/668/335 412/670/335
f 405/645/336 404/644/336 419/669/336 420/671/336
f 398/646/337 397/643/337 412/670/337 413/672/337
f 406/647/338 405/645/338 420/671/338 421/673/338
f 399/648/339 398/646/339 413/672/339 414/674/339
f 407/649/340 406/647/340 421/673/340 422/675/340
f 400/650/341 399/648/341 414/674/341 415/659/341
f 408/651/342 407/649/342 422/675/342 423/661/342
f 420/671/343 419/669/343 434/676/343 435/677/343
f 413/672/344 412/670/344 427/678/344 428/679/344
f 421/673/345 420/671/345 435/677/345 436/680/345
f 414/674/346 413/672/346 428/679/346 429/681/346
f 422/675/347 421/673/347 436/680/347 437/682/347
f 415/659/348 414/674/348 429/681/348 430/683/348
f 423/661/349 422/675/349 437/682/349 438/684/349
f 416/660/350 415/659/350 430/683/350 431/685/350
f 424/662/351 423/661/351 438/684/351 439/686/351
f 417/663/352 416/660/352 431/685/352 432/687/352
f 410/665/353 274/688/353 425/689/353
f 500/690/354 424/662/354 439/686/354
f 418/667/355 417/663/355 432/687/355 433/691/355
f 411/668/356 410/665/356 425/689/356 426/692/356
f 419/669/357 418/667/357 433/691/357 434/676/357
f 412/670/358 411/668/358 426/692/358 427/678/358
f 439/686/359 438/684/359 453/693/359 454/694/359
f 432/687/360 431/685/360 446/695/360 447/696/360
f 425/689/361 274/697/361 440/698/361
f 500/699/362 439/686/362 454/694/362
f 433/691/363 432/687/363 447/696/363 448/700/363
f 426/692/364 425/689/364 440/698/364 441/701/364
f 434/676/365 433/691/365 448/700/365 449/702/365
f 427/678/366 426/692/366 441/701/366 442/703/366
f 435/677/367 434/676/367 449/702/367 450/704/367
f 428/679/368 427/678/368 442/703/368 443/705/368
f 436/680/369 435/677/369 450/704/369 451/706/369
f 429/681/370 428/679/370 443/705/370 444/707/370
f 437/682/371 436/680/371 451/706/371 452/708/371
f 430/683/372 429/681/372 444/707/372 445/709/372
f 438/684/373 437/682/373 452/708/373 453/693/373
f 431/685/374 430/683/374 445/709/374 446/695/374
f 443/705/375 442/703/375 457/710/375 458/711/375
f 451/706/376 450/704/376 465/712/376 466/713/376
f 444/707/377 443/705/377 458/711/377 459/714/377
f 452/708/378 451/706/378 466/713/378 467/715/378
f 445/709/379 444/707/379 459/714/379 460/716/379
f 453/693/380 452/708/380 467/715/380 468/717/380
f 446/695/381 445/709/381 460/716/381 461/718/381
f 454/694/382 453/693/382 468/717/382 469/719/382
f 447/696/383 446/695/383 461/718/383 462/720/383
f 440/698/384 274/721/384 455/722/384
f 500/723/385 454/694/385 469/719/385
f 448/700/386 447/696/386 462/720/386 463/724/386
f 441/701/387 440/698/387 455/722/387 456/725/387
f 449/702/388 448/700/388 463/724/388 464/726/388
f 442/703/389 441/701/389 456/725/389 457/710/389
f 450/704/390 449/702/390 464/726/390 465/712/390
f 462/720/391 461/718/391 476/727/391 477/728/391
f 455/722/392 274/729/392 470/730/392
f 500/731/393 469/719/393 484/732/393
f 463/724/394 462/720/394 477/728/394 478/733/394
f 456/725/395 455/722/395 470/730/395 471/734/395
f 464/726/396 463/724/396 478/733/396 479/735/396
f 457/710/397 456/725/397 471/734/397 472/736/397
f 465/712/398 464/726/398 479/735/398 480/737/398
f 458/711/399 457/710/399 472/736/399 473/738/399
f 466/713/400 465/712/400 480/737/400 481/739/400
f 459/714/401 458/711/401 473/738/401 474/740/401
f 467/715/402 466/713/402 481/739/402 482/741/402
f 460/716/403 459/714/403 474/740/403 475/742/403
f 468/717/404 467/715/404 482/741/404 483/743/404
f 461/718/405 460/716/405 475/742/405 476/727/405
f 469/719/406 468/717/406 483/743/406 484/732/406
f 481/739/407 480/737/407 495/744/407 496/745/407
f 474/740/408 473/738/408 488/746/408 489/747/408
f 482/741/409 481/739/409 496/745/409 497/748/409
f 475/742/410 474/740/410 489/747/410 490/749/410
f 483/743/411 482/741/411 497/748/411 498/750/411
f 476/727/412 475/742/412 490/749/412 491/751/412
f 484/732/413 483/743/413 498/750/413 499/752/413
f 477/728/414 476/727/414 491/751/414 492/753/414
f 470/730/415 274/754/415 485/755/415
f 500/756/416 484/732/416 499/752/416
f 478/733/417 477/728/417 492/753/417 493/757/417
f 471/734/418 470/730/418 485/755/418 486/758/418
f 479/735/419 478/733/419 493/757/419 494/759/419
f 472/736/420 471/734/420 486/758/420 487/760/420
f 480/737/421 479/735/421 494/759/421 495/744/421
f 473/738/422 472/736/422 487/760/422 488/746/422
f 500/761/423 499/752/423 515/762/423
f 493/757/424 492/753/424 508/763/424 509/764/424
f 486/758/425 485/755/425 501/765/425 502/766/425
f 494/759/426 493/757/426 509/764/426 510/767/426
f 487/760/427 486/758/427 502/766/427 503/768/427
f 495/744/428 494/759/428 510/767/428 511/769/428
f 488/746/429 487/760/429 503/768/429 504/770/429
f 496/745/430 495/744/430 511/769/430 512/771/430
f 489/747/431 488/746/431 504/770/431 505/772/431
f 497/748/432 496/745/432 512/771/432 513/773/432
f 490/749/433 489/747/433 505/772/433 506/774/433
f 498/750/434 497/748/434 513/773/434 514/775/434
f 491/751/435 490/749/435 506/774/435 507/776/435
f 499/752/436 498/750/436 514/775/436 515/762/436
f 492/753/437 491/751/437 507/776/437 508/763/437
f 485/755/438 274/777/438 501/765/438
f 513/773/439 512/771/439 527/778/439 528/779/439
f 506/774/440 505/772/440 520/780/440 521/781/440
f 514/775/441 513/773/441 528/779/441 529/782/441
f 507/776/442 506/774/442 521/781/442 522/783/442
f 515/762/443 514/775/443 529/782/443 530/784/443
f 508/763/444 507/776/444 522/783/444 523/785/444
f 501/765/445 274/786/445 516/787/445
f 500/788/446 515/762/446 530/784/446
f 509/764/447 508/763/447 523/785/447 524/789/447
f 502/766/448 501/765/448 516/787/448 517/790/448
f 510/767/449 509/764/449 524/789/449 525/791/449
f 503/768/450 502/766/450 517/790/450 518/792/450
f 511/769/451 510/767/451 525/791/451 526/793/451
f 504/770/452 503/768/452 518/792/452 519/794/452
f 512/771/453 511/769/453 526/793/453 527/778/453
f 505/772/454 504/770/454 519/794/454 520/780/454
f 517/790/455 516/787/455 531/795/455 532/796/455
f 525/791/456 524/789/456 539/797/456 540/798/456
f 518/792/457 517/790/457 532/796/457 533/799/457
f 526/793/458 525/791/458 540/798/458 541/800/458
f 519/794/459 518/792/459 533/799/459 534/801/459
f 527/778/460 526/793/460 541/800/460 542/802/460
f 520/780/461 519/794/461 534/801/461 535/803/461
f 528/779/462 527/778/462 542/802/462 543/804/462
f 521/781/463 520/780/463 535/803/463 536/805/463
f 529/782/464 528/779/464 543/804/464 544/806/464
f 522/783/465 521/781/465 536/805/465 537/807/465
f 530/784/466 529/782/466 544/806/466 545/808/466
f 523/785/467 522/783/467 537/807/467 538/809/467
f 516/787/468 274/810/468 531/795/468
f 500/811/469 530/784/469 545/808/469
f 524/789/470 523/785/470 538/809/470 539/797/470
f 536/805/471 535/803/471 550/812/471 551/813/471
f 544/806/472 543/804/472 558/814/472 559/815/472
f 537/807/473 536/805/473 551/813/473 552/816/473
f 545/808/474 544/806/474 559/815/474 560/817/474
f 538/809/475 537/807/475 552/816/475 553/818/475
f 531/795/476 274/819/476 546/820/476
f 500/821/477 545/808/477 560/817/477
f 539/797/478 538/809/478 553/818/478 554/822/478
f 532/796/479 531/795/479 546/820/479 547/823/479
f 540/798/480 539/797/480 554/822/480 555/824/480
f 533/799/481 532/796/481 547/823/481 548/825/481
f 541/800/482 540/798/482 555/824/482 556/826/482
f 534/801/483 533/799/483 548/825/483 549/827/483
f 542/802/484 541/800/484 556/826/484 557/828/484
f 535/803/485 534/801/485 549/827/485 550/812/485
f 543/804/486 542/802/486 557/828/486 558/814/486
f 555/829/487 554/830/487 569/831/487 570/832/487
f 548/833/488 547/834/488 562/835/488 563/836/488
f 556/837/489 555/829/489 570/832/489 571/838/489
f 549/839/490 548/833/490 563/836/490 564/840/490
f 557/841/491 556/837/491 571/838/491 572/842/491
f 550/843/492 549/839/492 564/840/492 565/844/492
f 558/845/493 557/841/493 572/842/493 573/846/493
f 551/847/494 550/843/494 565/844/494 566/848/494
f 559/849/495 558/845/495 573/846/495 574/850/495
f 552/851/496 551/847/496 566/848/496 567/852/496
f 560/853/497 559/849/497 574/850/497 575/854/497
f 553/855/498 552/851/498 567/852/498 568/856/498
f 546/857/499 274/858/499 561/859/499
f 500/860/500 560/853/500 575/854/500
f 554/830/501 553/855/501 568/856/501 569/831/501
f 547/834/502 546/857/502 561/859/502 562/835/502
f 574/850/503 573/846/503 588/861/503 589/862/503
f 567/852/504 566/848/504 581/863/504 582/864/504
f 575/854/505 574/850/505 589/862/505 590/865/505
f 568/856/506 567/852/506 582/864/506 583/866/506
f 561/859/507 274/867/507 576/868/507
f 500/869/508 575/854/508 590/865/508
f 569/831/509 568/856/509 583/866/509 584/870/509
f 562/835/510 561/859/510 576/868/510 577/871/510
f 570/832/511 569/831/511 584/870/511 585/872/511
f 563/836/512 562/835/512 577/871/512 578/873/512
f 571/838/513 570/832/513 585/872/513 586/874/513
f 564/840/514 563/836/514 578/873/514 579/875/514
f 572/842/515 571/838/515 586/874/515 587/876/515
f 565/844/516 564/840/516 579/875/516 580/877/516
f 573/846/517 572/842/517 587/876/517 588/861/517
f 566/848/518 565/844/518 580/877/518 581/863/518
f 578/873/519 577/871/519 592/878/519 593/879/519
f 586/874/520 585/872/520 600/880/520 601/881/520
f 579/875/521 578/873/521 593/879/521 594/882/521
f 587/876/522 586/874/522 601/881/522 602/883/522
f 580/877/523 579/875/523 594/882/523 595/884/523
f 588/861/524 587/876/524 602/883/524 603/885/524
f 581/863/525 580/877/525 595/884/525 596/886/525
f 589/862/526 588/861/526 603/885/526 604/887/526
f 582/864/527 581/863/527 596/886/527 597/888/527
f 590/865/528 589/862/528 604/887/528 605/889/528
f 583/866/529 582/864/529 597/888/529 598/890/529
f 576/868/530 274/891/530 591/892/530
f 500/893/531 590/865/531 605/889/531
f 584/870/532 583/866/532 598/890/532 599/894/532
f 577/871/533 576/868/533 591/892/533 592/878/533
f 585/872/534 584/870/534 599/894/534 600/880/534
f 597/888/535 596/886/535 611/895/535 612/896/535
f 605/889/536 604/887/536 619/897/536 620/898/536
f 598/890/537 597/888/537 612/896/537 613/899/537
f 591/892/538 274/900/538 606/901/538
f 500/902/539 605/889/539 620/898/539
f 599/894/540 598/890/540 613/899/540 614/903/540
f 592/878/541 591/892/541 606/901/541 607/904/541
f 600/880/542 599/894/542 614/903/542 615/905/542
f 593/879/543 592/878/543 607/904/543 608/906/543
f 601/881/544 600/880/544 615/905/544 616/907/544
f 594/882/545 593/879/545 608/906/545 609/908/545
f 602/883/546 601/881/546 616/907/546 617/909/546
f 595/884/547 594/882/547 609/908/547 610/910/547
f 603/885/548 602/883/548 617/909/548 618/911/548
f 596/886/549 595/884/549 610/910/549 611/895/549
f 604/887/550 603/885/550 618/911/550 619/897/550
f 616/907/551 615/905/551 630/912/551 631/913/551
f 609/908/552 608/906/552 623/914/552 624/915/552
f 617/909/553 616/907/553 631/913/553 632/916/553
f 610/910/554 609/908/554 624/915/554 625/917/554
f 618/911/555 617/909/555 632/916/555 633/918/555
f 611/895/556 610/910/556 625/917/556 626/919/556
f 619/897/557 618/911/557 633/918/557 634/920/557
f 612/896/558 611/895/558 626/919/558 627/921/558
f 620/898/559 619/897/559 634/920/559 635/922/559
f 613/899/560 612/896/560 627/921/560 628/923/560
f 606/901/561 274/924/561 621/925/561
f 500/926/562 620/898/562 635/922/562
f 614/903/563 613/899/563 628/923/563 629/927/563
f 607/904/564 606/901/564 621/925/564 622/928/564
f 615/905/565 614/903/565 629/927/565 630/912/565
f 608/906/566 607/904/566 622/928/566 623/914/566
f 635/922/567 634/920/567 649/929/567 650/930/567
f 628/923/568 627/921/568 642/931/568 643/932/568
f 621/925/569 274/933/569 636/934/569
f 500/935/570 635/922/570 650/930/570
f 629/927/571 628/923/571 643/932/571 644/936/571
f 622/928/572 621/925/572 636/934/572 637/937/572
f 630/912/573 629/927/573 644/936/573 645/938/573
f 623/914/574 622/928/574 637/937/574 638/939/574
f 631/913/575 630/912/575 645/938/575 646/940/575
f 624/915/576 623/914/576 638/939/576 639/941/576
f 632/916/577 631/913/577 646/940/577 647/942/577
f 625/917/578 624/915/578 639/941/578 640/943/578
f 633/918/579 632/916/579 647/942/579 648/944/579
f 626/919/580 625/917/580 640/943/580 641/945/580
f 634/920/581 633/918/581 648/944/581 649/929/581
f 627/921/582 626/919/582 641/945/582 642/931/582
f 647/942/583 646/940/583 661/946/583 662/947/583
f 640/943/584 639/941/584 654/948/584 655/949/584
f 648/944/585 647/942/585 662/947/585 663/950/585
f 641/945/586 640/943/586 655/949/586 656/951/586
f 649/929/587 648/944/587 663/950/587 664/952/587
f 642/931/588 641/945/588 656/951/588 657/953/588
f 650/930/589 649/929/589 664/952/589 665/954/589
f 643/932/590 642/931/590 657/953/590 658/955/590
f 636/934/591 274/956/591 651/957/591
f 500/958/592 650/930/592 665/954/592
f 644/936/593 643/932/593 658/955/593 659/959/593
f 637/937/594 636/934/594 651/957/594 652/960/594
f 645/938/595 644/936/595 659/959/595 660/961/595
f 638/939/596 637/937/596 652/960/596 653/962/596
f 646/940/597 645/938/597 660/961/597 661/946/597
f 639/941/598 638/939/598 653/962/598 654/948/598
f 651/957/599 274/963/599 666/410/599
f 500/964/600 665/954/600 674/414/600
f 659/959/601 658/955/601 196/406/601 197/416/601
f 652/960/602 651/957/602 666/410/602 667/418/602
f 660/961/603 659/959/603 197/416/603 670/420/603
f 653/962/604 652/960/604 667/418/604 193/422/604
f 661/946/605 660/961/605 670/420/605 198/424/605
f 654/948/606 653/962/606 193/422/606 668/426/606
f 662/947/607 661/946/607 198/424/607 671/428/607
f 655/949/608 654/948/608 668/426/608 194/430/608
f 663/950/609 662/947/609 671/428/609 672/432/609
f 656/951/610 655/949/610 194/430/610 669/434/610
f 664/952/611 663/950/611 672/432/611 673/436/611
f 657/953/612 656/951/612 669/434/612 195/407/612
f 665/954/613 664/952/613 673/436/613 674/414/613
f 658/955/614 657/953/614 195/407/614 196/406/614
