# Blender 4.3.2
# www.blender.org
mtllib mystreets_sign_stop.mtl
o Cube
v -0.500000 -0.203573 0.492849
v -0.203573 -0.500000 0.492849
v -0.203573 0.500000 0.492849
v -0.500000 0.203573 0.492849
v -0.203573 -0.500000 0.452849
v -0.500000 -0.203573 0.452849
v -0.500000 0.203573 0.452849
v -0.203573 0.500000 0.452849
v 0.203573 -0.500000 0.492849
v 0.500000 -0.203573 0.492849
v 0.500000 0.203573 0.492849
v 0.203573 0.500000 0.492849
v 0.500000 -0.203573 0.452849
v 0.203573 -0.500000 0.452849
v 0.203573 0.500000 0.452849
v 0.500000 0.203573 0.452849
vn -0.0000 -0.0000 1.0000
vn 1.0000 -0.0000 -0.0000
vn -0.0000 1.0000 -0.0000
vn -1.0000 -0.0000 -0.0000
vn -0.0000 -0.0000 -1.0000
vn -0.7071 -0.7071 -0.0000
vn -0.7071 0.7071 -0.0000
vn 0.7071 -0.7071 -0.0000
vn 0.7071 0.7071 -0.0000
vn -0.0000 -1.0000 -0.0000
vt 0.010805 0.883670
vt 0.010805 0.764512
vt 0.092637 0.682680
vt 0.211795 0.682680
vt 0.293627 0.764512
vt 0.293627 0.883670
vt 0.211795 0.965502
vt 0.092637 0.965502
vt 0.339844 0.984119
vt 0.224116 0.984119
vt 0.224116 0.699877
vt 0.339844 0.699877
vt 0.139858 0.984119
vt 0.024130 0.984119
vt 0.024130 0.699877
vt 0.139858 0.699877
vt 0.231235 0.976359
vt 0.115507 0.976359
vt 0.115507 0.692116
vt 0.231235 0.692116
vt 0.223371 0.021813
vt 0.307628 0.106071
vt 0.307628 0.221799
vt 0.223371 0.306056
vt 0.107643 0.306056
vt 0.023385 0.221799
vt 0.023385 0.106071
vt 0.107643 0.021813
vt 0.315493 0.779570
vt 0.031250 0.779570
vt 0.031250 0.695312
vt 0.315493 0.695312
vt 0.031250 0.976359
vt 0.031250 0.692116
vt 0.031250 0.895298
vt 0.315493 0.895298
vt 0.315493 0.979555
vt 0.031250 0.979555
vt 0.224116 0.699877
s 0
f 9/1/1 10/2/1 11/3/1 12/4/1 3/5/1 4/6/1 1/7/1 2/8/1
f 13/9/2 16/10/2 11/11/2 10/12/2
f 15/13/3 8/14/3 3/15/3 12/16/3
f 1/17/4 4/18/4 7/19/4 6/20/4
f 5/21/5 6/22/5 7/23/5 8/24/5 15/25/5 16/26/5 13/27/5 14/28/5
f 5/29/6 2/30/6 1/31/6 6/32/6
f 3/33/7 8/34/7 7/19/7 4/18/7
f 9/35/8 14/36/8 13/37/8 10/38/8
f 15/13/9 12/16/9 11/39/9 16/10/9
f 5/29/10 14/36/10 9/35/10 2/30/10
