# Blender 4.3.2
# www.blender.org
mtllib mystreets_stop_light.mtl
o Cube
v 0.110244 0.411496 -0.248565
v 0.110244 0.191008 -0.248565
v 0.200000 0.501252 0.200000
v 0.200000 0.101252 0.200000
v -0.110244 0.411496 -0.244829
v -0.110244 0.191008 -0.244829
v -0.200000 0.501252 0.200000
v -0.200000 0.101252 0.200000
v 0.200000 0.101252 -0.200000
v -0.200000 0.101252 -0.200000
v 0.200000 0.501252 -0.200000
v -0.200000 0.501252 -0.200000
v 0.110244 0.191008 -0.150581
v -0.110244 0.191008 -0.150581
v 0.110244 0.411496 -0.150581
v -0.110244 0.411496 -0.150581
vn -0.0000 1.0000 -0.0000
vn -0.0000 -0.0000 1.0000
vn -1.0000 -0.0000 -0.0000
vn -0.0000 -1.0000 -0.0000
vn 1.0000 -0.0000 -0.0000
vn -0.0053 -0.4615 -0.8871
vn 0.4759 -0.0000 -0.8795
vn -0.4468 -0.0000 -0.8946
vn -0.0053 0.4615 -0.8871
vn -0.0000 -0.0000 -1.0000
vt 0.228374 0.058594
vt 0.228374 0.238734
vt 0.048234 0.238734
vt 0.048234 0.058594
vt 0.243546 0.238734
vt 0.063406 0.238734
vt 0.063406 0.058594
vt 0.243546 0.058594
vt 0.238734 0.232281
vt 0.058594 0.232281
vt 0.058594 0.052140
vt 0.238734 0.052140
vt 0.220562 0.047328
vt 0.220562 0.227469
vt 0.040421 0.227469
vt 0.040421 0.047328
vt 0.219656 0.236187
vt 0.039515 0.236187
vt 0.039516 0.056047
vt 0.219656 0.056047
vt 0.299920 0.968750
vt 0.299920 0.869453
vt 0.342365 0.869453
vt 0.342365 0.968750
vt 0.259544 0.815953
vt 0.358834 0.815953
vt 0.399343 0.856375
vt 0.219204 0.856375
vt 0.358834 0.716656
vt 0.399343 0.676234
vt 0.259544 0.716656
vt 0.219204 0.676234
vt 0.837195 0.384907
vt 0.837195 0.285609
vt 0.936491 0.285609
vt 0.936491 0.384907
vt 0.079284 0.869453
vt 0.077601 0.968750
vt 0.035156 0.968750
vt 0.035156 0.869453
vt 0.121728 0.869453
vt 0.123411 0.968750
vt 0.079284 0.968750
vt 0.079284 0.869453
vt 0.255793 0.869453
vt 0.255793 0.968750
vt 0.211665 0.968750
vt 0.211665 0.869453
s 0
usemtl Material
f 11/1/1 12/2/1 7/3/1 3/4/1
f 4/5/2 3/6/2 7/7/2 8/8/2
f 8/9/3 7/10/3 12/11/3 10/12/3
f 10/13/4 9/14/4 4/15/4 8/16/4
f 9/17/5 11/18/5 3/19/5 4/20/5
f 6/21/5 5/22/5 16/23/5 14/24/5
f 6/25/6 2/26/6 9/27/6 10/28/6
f 2/26/7 1/29/7 11/30/7 9/27/7
f 5/31/8 6/25/8 10/28/8 12/32/8
f 1/29/9 5/31/9 12/32/9 11/30/9
f 14/33/10 16/34/10 15/35/10 13/36/10
f 2/37/1 6/38/1 14/39/1 13/40/1
f 5/41/4 1/42/4 15/43/4 16/44/4
f 1/45/3 2/46/3 13/47/3 15/48/3
o Cube.001
v 0.110244 0.011978 -0.248565
v 0.110244 -0.208511 -0.248565
v 0.200000 0.101734 0.200000
v 0.200000 -0.298266 0.200000
v -0.110244 0.011978 -0.244829
v -0.110244 -0.208511 -0.244829
v -0.200000 0.101734 0.200000
v -0.200000 -0.298266 0.200000
v 0.200000 -0.298266 -0.200000
v -0.200000 -0.298266 -0.200000
v 0.200000 0.101734 -0.200000
v -0.200000 0.101734 -0.200000
v 0.110244 -0.208511 -0.150581
v -0.110244 -0.208511 -0.150581
v 0.110244 0.011978 -0.150581
v -0.110244 0.011978 -0.150581
vn -0.0000 1.0000 -0.0000
vn -0.0000 -0.0000 1.0000
vn -1.0000 -0.0000 -0.0000
vn -0.0000 -1.0000 -0.0000
vn 1.0000 -0.0000 -0.0000
vn -0.0053 -0.4615 -0.8871
vn 0.4759 -0.0000 -0.8795
vn -0.4468 -0.0000 -0.8946
vn -0.0053 0.4615 -0.8871
vn -0.0000 -0.0000 -1.0000
vt 0.228374 0.047781
vt 0.228374 0.227922
vt 0.048234 0.227922
vt 0.048234 0.047781
vt 0.234828 0.219656
vt 0.054688 0.219656
vt 0.054688 0.039516
vt 0.234828 0.039516
vt 0.234828 0.224015
vt 0.054688 0.224015
vt 0.054688 0.043875
vt 0.234828 0.043875
vt 0.235734 0.048234
vt 0.235734 0.228375
vt 0.055594 0.228375
vt 0.055594 0.048234
vt 0.227921 0.227469
vt 0.047781 0.227469
vt 0.047781 0.047328
vt 0.227921 0.047328
vt 0.345331 0.968750
vt 0.345331 0.869453
vt 0.387776 0.869453
vt 0.387776 0.968750
vt 0.072949 0.816859
vt 0.172238 0.816859
vt 0.212748 0.857281
vt 0.032609 0.857281
vt 0.172238 0.717562
vt 0.212748 0.677140
vt 0.072949 0.717562
vt 0.032609 0.677140
vt 0.827116 0.146625
vt 0.827116 0.047328
vt 0.926413 0.047328
vt 0.926413 0.146625
vt 0.167538 0.869453
vt 0.165856 0.968750
vt 0.123411 0.968750
vt 0.123411 0.869453
vt 0.209983 0.869453
vt 0.211665 0.968750
vt 0.167538 0.968750
vt 0.167538 0.869453
vt 0.299920 0.869453
vt 0.299920 0.968750
vt 0.255793 0.968750
vt 0.255793 0.869453
s 0
usemtl Material
f 27/49/11 28/50/11 23/51/11 19/52/11
f 20/53/12 19/54/12 23/55/12 24/56/12
f 24/57/13 23/58/13 28/59/13 26/60/13
f 26/61/14 25/62/14 20/63/14 24/64/14
f 25/65/15 27/66/15 19/67/15 20/68/15
f 22/69/15 21/70/15 32/71/15 30/72/15
f 22/73/16 18/74/16 25/75/16 26/76/16
f 18/74/17 17/77/17 27/78/17 25/75/17
f 21/79/18 22/73/18 26/76/18 28/80/18
f 17/77/19 21/79/19 28/80/19 27/78/19
f 30/81/20 32/82/20 31/83/20 29/84/20
f 18/85/11 22/86/11 30/87/11 29/88/11
f 21/89/14 17/90/14 31/91/14 32/92/14
f 17/93/13 18/94/13 29/95/13 31/96/13
o Cube.002
v -0.200000 0.480207 -0.199428
v -0.200000 0.500207 -0.199428
v -0.200000 0.480207 -0.354324
v -0.200000 0.500207 -0.354324
v 0.200000 0.480207 -0.199428
v 0.200000 0.500207 -0.199428
v 0.200000 0.480207 -0.354324
v 0.200000 0.500207 -0.354324
vn -1.0000 -0.0000 -0.0000
vn -0.0000 -0.0000 -1.0000
vn 1.0000 -0.0000 -0.0000
vn -0.0000 -0.0000 1.0000
vn -0.0000 -1.0000 -0.0000
vn -0.0000 1.0000 -0.0000
vt 0.858159 0.943671
vt 0.858159 0.763531
vt 0.927917 0.763531
vt 0.927917 0.943671
vt 0.746094 0.949672
vt 0.746094 0.769531
vt 0.926234 0.769531
vt 0.926234 0.949672
vt 0.845885 0.947578
vt 0.845885 0.767437
vt 0.915643 0.767437
vt 0.915643 0.947578
vt 0.746547 0.937953
vt 0.746547 0.757812
vt 0.926687 0.757812
vt 0.926687 0.937953
vt 0.919226 0.781703
vt 0.919226 0.961844
vt 0.849468 0.961844
vt 0.849468 0.781703
vt 0.926807 0.763531
vt 0.926807 0.943671
vt 0.857049 0.943671
vt 0.857049 0.763531
s 0
f 33/97/21 34/98/21 36/99/21 35/100/21
f 35/101/22 36/102/22 40/103/22 39/104/22
f 39/105/23 40/106/23 38/107/23 37/108/23
f 37/109/24 38/110/24 34/111/24 33/112/24
f 35/113/25 39/114/25 37/115/25 33/116/25
f 40/117/26 36/118/26 34/119/26 38/120/26
o Cube.003
v 0.200636 0.481254 -0.194889
v 0.180636 0.481254 -0.194889
v 0.200636 0.326357 -0.194889
v 0.180636 0.326357 -0.194889
v 0.200636 0.481254 -0.354107
v 0.180636 0.481254 -0.354107
v 0.200636 0.326357 -0.235906
v 0.180636 0.326357 -0.235906
vn -0.0000 -0.0000 1.0000
vn -0.0000 -1.0000 -0.0000
vn -0.0000 -0.6066 -0.7950
vn -0.0000 1.0000 -0.0000
vn 1.0000 -0.0000 -0.0000
vn -1.0000 -0.0000 -0.0000
vt 0.862643 0.943671
vt 0.862643 0.763531
vt 0.932401 0.763531
vt 0.932401 0.943671
vt 0.884623 0.943218
vt 0.884623 0.763078
vt 0.895829 0.763078
vt 0.895829 0.943218
vt 0.829423 0.947124
vt 0.829423 0.766984
vt 0.917171 0.766984
vt 0.917171 0.947124
vt 0.850767 0.958390
vt 0.850767 0.778250
vt 0.922471 0.778250
vt 0.922471 0.958390
vt 0.906291 0.777344
vt 0.906291 0.795816
vt 0.836533 0.849048
vt 0.836533 0.777344
vt 0.906291 0.808530
vt 0.906291 0.827002
vt 0.836533 0.827002
vt 0.836533 0.755298
s 0
f 41/121/27 42/122/27 44/123/27 43/124/27
f 43/125/28 44/126/28 48/127/28 47/128/28
f 47/129/29 48/130/29 46/131/29 45/132/29
f 45/133/30 46/134/30 42/135/30 41/136/30
f 43/137/31 47/138/31 45/139/31 41/140/31
f 48/141/32 44/142/32 42/143/32 46/144/32
o Cube.004
v -0.180237 0.480539 -0.194889
v -0.200237 0.480539 -0.194889
v -0.180237 0.325642 -0.194889
v -0.200237 0.325642 -0.194889
v -0.180237 0.480539 -0.354107
v -0.200237 0.480539 -0.354107
v -0.180237 0.325642 -0.235906
v -0.200237 0.325642 -0.235906
vn -0.0000 -0.0000 1.0000
vn -0.0000 -1.0000 -0.0000
vn -0.0000 -0.6066 -0.7950
vn -0.0000 1.0000 -0.0000
vn 1.0000 -0.0000 -0.0000
vn -1.0000 -0.0000 -0.0000
vt 0.862484 0.947578
vt 0.862484 0.767437
vt 0.932242 0.767437
vt 0.932242 0.947578
vt 0.868999 0.934953
vt 0.868999 0.754812
vt 0.880205 0.754812
vt 0.880205 0.934953
vt 0.837237 0.938859
vt 0.837237 0.758719
vt 0.924985 0.758719
vt 0.924985 0.938859
vt 0.854671 0.943218
vt 0.854671 0.763078
vt 0.926375 0.763078
vt 0.926375 0.943218
vt 0.886760 0.793875
vt 0.886760 0.812346
vt 0.817002 0.865579
vt 0.817002 0.793875
vt 0.925821 0.831935
vt 0.925821 0.850407
vt 0.856063 0.850407
vt 0.856063 0.778703
s 0
f 49/145/33 50/146/33 52/147/33 51/148/33
f 51/149/34 52/150/34 56/151/34 55/152/34
f 55/153/35 56/154/35 54/155/35 53/156/35
f 53/157/36 54/158/36 50/159/36 49/160/36
f 51/161/37 55/162/37 53/163/37 49/164/37
f 56/165/38 52/166/38 50/167/38 54/168/38
o Cube.005
v -0.200000 0.081823 -0.199428
v -0.200000 0.101823 -0.199428
v -0.200000 0.081823 -0.354324
v -0.200000 0.101823 -0.354324
v 0.200000 0.081823 -0.199428
v 0.200000 0.101823 -0.199428
v 0.200000 0.081823 -0.354324
v 0.200000 0.101823 -0.354324
vn -1.0000 -0.0000 -0.0000
vn -0.0000 -0.0000 -1.0000
vn 1.0000 -0.0000 -0.0000
vn -0.0000 -0.0000 1.0000
vn -0.0000 -1.0000 -0.0000
vn -0.0000 1.0000 -0.0000
vt 0.851320 0.959296
vt 0.851320 0.779156
vt 0.921077 0.779156
vt 0.921077 0.959296
vt 0.934500 0.942765
vt 0.754359 0.942765
vt 0.754359 0.762625
vt 0.934500 0.762625
vt 0.855781 0.935859
vt 0.855781 0.755718
vt 0.925538 0.755718
vt 0.925538 0.935859
vt 0.927140 0.950578
vt 0.747000 0.950578
vt 0.747000 0.770437
vt 0.927140 0.770437
vt 0.930159 0.783062
vt 0.930159 0.963202
vt 0.860401 0.963202
vt 0.860401 0.783062
vt 0.913979 0.767437
vt 0.913979 0.947577
vt 0.844221 0.947577
vt 0.844221 0.767437
s 0
f 57/169/39 58/170/39 60/171/39 59/172/39
f 59/173/40 60/174/40 64/175/40 63/176/40
f 63/177/41 64/178/41 62/179/41 61/180/41
f 61/181/42 62/182/42 58/183/42 57/184/42
f 59/185/43 63/186/43 61/187/43 57/188/43
f 64/189/44 60/190/44 58/191/44 62/192/44
o Cube.006
v 0.200636 0.080681 -0.194889
v 0.180636 0.080681 -0.194889
v 0.200636 -0.074215 -0.194889
v 0.180636 -0.074215 -0.194889
v 0.200636 0.080681 -0.354107
v 0.180636 0.080681 -0.354107
v 0.200636 -0.074215 -0.235906
v 0.180636 -0.074215 -0.235906
vn -0.0000 -0.0000 1.0000
vn -0.0000 -1.0000 -0.0000
vn -0.0000 -0.6066 -0.7950
vn -0.0000 1.0000 -0.0000
vn 1.0000 -0.0000 -0.0000
vn -1.0000 -0.0000 -0.0000
vt 0.863198 0.935859
vt 0.863198 0.755718
vt 0.932956 0.755718
vt 0.932956 0.935859
vt 0.915874 0.937953
vt 0.915874 0.757813
vt 0.927080 0.757812
vt 0.927080 0.937953
vt 0.809893 0.957484
vt 0.809893 0.777344
vt 0.897641 0.777344
vt 0.897641 0.957484
vt 0.839048 0.953578
vt 0.839048 0.773438
vt 0.910752 0.773438
vt 0.910752 0.953578
vt 0.914765 0.795063
vt 0.914765 0.813535
vt 0.845007 0.866767
vt 0.845007 0.795063
vt 0.945460 0.840483
vt 0.945460 0.858955
vt 0.875703 0.858955
vt 0.875703 0.787251
s 0
f 65/193/45 66/194/45 68/195/45 67/196/45
f 67/197/46 68/198/46 72/199/46 71/200/46
f 71/201/47 72/202/47 70/203/47 69/204/47
f 69/205/48 70/206/48 66/207/48 65/208/48
f 67/209/49 71/210/49 69/211/49 65/212/49
f 72/213/50 68/214/50 66/215/50 70/216/50
o Cube.007
v -0.180237 0.085059 -0.194889
v -0.200237 0.085059 -0.194889
v -0.180237 -0.069838 -0.194889
v -0.200237 -0.069838 -0.194889
v -0.180237 0.085059 -0.354107
v -0.200237 0.085059 -0.354107
v -0.180237 -0.069838 -0.235906
v -0.200237 -0.069838 -0.235906
vn -0.0000 -0.0000 1.0000
vn -0.0000 -1.0000 -0.0000
vn -0.0000 -0.6066 -0.7950
vn -0.0000 1.0000 -0.0000
vn 1.0000 -0.0000 -0.0000
vn -1.0000 -0.0000 -0.0000
vt 0.850210 0.951484
vt 0.850210 0.771343
vt 0.919968 0.771343
vt 0.919968 0.951484
vt 0.906250 0.955390
vt 0.906250 0.775250
vt 0.917456 0.775249
vt 0.917456 0.955390
vt 0.831518 0.935859
vt 0.831518 0.755718
vt 0.919267 0.755718
vt 0.919267 0.935859
vt 0.848955 0.951484
vt 0.848955 0.771343
vt 0.920659 0.771343
vt 0.920659 0.951484
vt 0.910197 0.791360
vt 0.910197 0.809832
vt 0.840439 0.863064
vt 0.840439 0.791360
vt 0.902383 0.848952
vt 0.902383 0.867424
vt 0.832626 0.867424
vt 0.832626 0.795720
s 0
f 73/217/51 74/218/51 76/219/51 75/220/51
f 75/221/52 76/222/52 80/223/52 79/224/52
f 79/225/53 80/226/53 78/227/53 77/228/53
f 77/229/54 78/230/54 74/231/54 73/232/54
f 75/233/55 79/234/55 77/235/55 73/236/55
f 80/237/56 76/238/56 74/239/56 78/240/56
