# Blender 4.3.2
# www.blender.org
mtllib mystreets_grate_bottom.mtl
o Cube
v 0.440000 -0.431983 -0.030000
v 0.440000 -0.491983 -0.030000
v 0.440000 -0.431983 0.030000
v 0.440000 -0.491983 0.030000
v -0.440000 -0.431983 -0.030000
v -0.440000 -0.491983 -0.030000
v -0.440000 -0.431983 0.030000
v -0.440000 -0.491983 0.030000
vn -0.0000 1.0000 -0.0000
vn -0.0000 -0.0000 1.0000
vn -1.0000 -0.0000 -0.0000
vn -0.0000 -1.0000 -0.0000
vn 1.0000 -0.0000 -0.0000
vn -0.0000 -0.0000 -1.0000
vt 0.375000 0.000000
vt 0.375000 0.125000
vt 0.250000 0.125000
vt 0.250000 0.000000
vt 0.375000 0.250000
vt 0.250000 0.250000
vt 0.250000 0.125000
vt 0.375000 0.125000
vt 0.375000 0.375000
vt 0.250000 0.375000
vt 0.250000 0.250000
vt 0.375000 0.250000
vt 0.125000 0.375000
vt 0.125000 0.500000
vt -0.000000 0.500000
vt 0.000000 0.375000
vt 0.250000 0.500000
vt 0.125000 0.500000
vt 0.125000 0.375000
vt 0.250000 0.375000
vt 0.375000 0.500000
vt 0.250000 0.375000
vt 0.375000 0.375000
s 0
usemtl Material
f 1/1/1 5/2/1 7/3/1 3/4/1
f 4/5/2 3/6/2 7/7/2 8/8/2
f 8/9/3 7/10/3 5/11/3 6/12/3
f 6/13/4 2/14/4 4/15/4 8/16/4
f 2/17/5 1/18/5 3/19/5 4/20/5
f 6/21/6 5/17/6 1/22/6 2/23/6
o Cube.001
v 0.440000 -0.431983 -0.199977
v 0.440000 -0.491983 -0.199977
v 0.440000 -0.431983 -0.139977
v 0.440000 -0.491983 -0.139977
v -0.440000 -0.431983 -0.199977
v -0.440000 -0.491983 -0.199977
v -0.440000 -0.431983 -0.139977
v -0.440000 -0.491983 -0.139977
vn -0.0000 1.0000 -0.0000
vn -0.0000 -0.0000 1.0000
vn -1.0000 -0.0000 -0.0000
vn -0.0000 -1.0000 -0.0000
vn 1.0000 -0.0000 -0.0000
vn -0.0000 -0.0000 -1.0000
vt 0.500000 0.000000
vt 0.500000 0.125000
vt 0.375000 0.125000
vt 0.375000 0.000000
vt 0.500000 0.250000
vt 0.375000 0.250000
vt 0.375000 0.125000
vt 0.500000 0.125000
vt 0.500000 0.375000
vt 0.375000 0.375000
vt 0.375000 0.250000
vt 0.500000 0.250000
vt 0.500000 0.375000
vt 0.500000 0.500000
vt 0.375000 0.500000
vt 0.375000 0.375000
vt 0.125000 0.625000
vt 0.000000 0.625000
vt 0.000000 0.500000
vt 0.125000 0.500000
vt 0.250000 0.625000
vt 0.125000 0.625000
vt 0.125000 0.500000
vt 0.250000 0.500000
s 0
usemtl Material
f 9/24/7 13/25/7 15/26/7 11/27/7
f 12/28/8 11/29/8 15/30/8 16/31/8
f 16/32/9 15/33/9 13/34/9 14/35/9
f 14/36/10 10/37/10 12/38/10 16/39/10
f 10/40/11 9/41/11 11/42/11 12/43/11
f 14/44/12 13/45/12 9/46/12 10/47/12
o Cube.002
v 0.440000 -0.431983 -0.498838
v 0.440000 -0.491983 -0.498838
v 0.440000 -0.431983 -0.438838
v 0.440000 -0.491983 -0.438838
v -0.440000 -0.431983 -0.498838
v -0.440000 -0.491983 -0.498838
v -0.440000 -0.431983 -0.438838
v -0.440000 -0.491983 -0.438838
vn -0.0000 1.0000 -0.0000
vn -0.0000 -0.0000 1.0000
vn -1.0000 -0.0000 -0.0000
vn -0.0000 -1.0000 -0.0000
vn 1.0000 -0.0000 -0.0000
vn -0.0000 -0.0000 -1.0000
vt 0.375000 0.500000
vt 0.375000 0.625000
vt 0.250000 0.625000
vt 0.250000 0.500000
vt 0.500000 0.625000
vt 0.375000 0.625000
vt 0.375000 0.500000
vt 0.500000 0.500000
vt 0.625000 0.125000
vt 0.500000 0.125000
vt 0.500000 0.000000
vt 0.625000 0.000000
vt 0.625000 0.125000
vt 0.625000 0.250000
vt 0.500000 0.250000
vt 0.500000 0.125000
vt 0.625000 0.375000
vt 0.500000 0.375000
vt 0.625000 0.250000
vt 0.625000 0.500000
vt 0.500000 0.500000
vt 0.500000 0.375000
vt 0.625000 0.375000
s 0
usemtl Material
f 17/48/13 21/49/13 23/50/13 19/51/13
f 20/52/14 19/53/14 23/54/14 24/55/14
f 24/56/15 23/57/15 21/58/15 22/59/15
f 22/60/16 18/61/16 20/62/16 24/63/16
f 18/64/17 17/65/17 19/62/17 20/66/17
f 22/67/18 21/68/18 17/69/18 18/70/18
o Cube.003
v 0.440000 -0.431983 -0.360615
v 0.440000 -0.491983 -0.360615
v 0.440000 -0.431983 -0.300615
v 0.440000 -0.491983 -0.300615
v -0.440000 -0.431983 -0.360615
v -0.440000 -0.491983 -0.360615
v -0.440000 -0.431983 -0.300615
v -0.440000 -0.491983 -0.300615
vn -0.0000 1.0000 -0.0000
vn -0.0000 -0.0000 1.0000
vn -1.0000 -0.0000 -0.0000
vn -0.0000 -1.0000 -0.0000
vn 1.0000 -0.0000 -0.0000
vn -0.0000 -0.0000 -1.0000
vt 0.625000 0.500000
vt 0.625000 0.625000
vt 0.500000 0.625000
vt 0.500000 0.500000
vt 0.125000 0.750000
vt 0.000000 0.750000
vt 0.000000 0.625000
vt 0.125000 0.625000
vt 0.250000 0.750000
vt 0.125000 0.750000
vt 0.125000 0.625000
vt 0.250000 0.625000
vt 0.375000 0.625000
vt 0.375000 0.750000
vt 0.250000 0.750000
vt 0.500000 0.750000
vt 0.375000 0.750000
vt 0.375000 0.625000
vt 0.625000 0.750000
s 0
usemtl Material
f 25/71/19 29/72/19 31/73/19 27/74/19
f 28/75/20 27/76/20 31/77/20 32/78/20
f 32/79/21 31/80/21 29/81/21 30/82/21
f 30/83/22 26/84/22 28/85/22 32/82/22
f 26/86/23 25/87/23 27/88/23 28/73/23
f 30/89/24 29/86/24 25/73/24 26/72/24
o Cube.004
v 0.440000 -0.431983 0.138109
v 0.440000 -0.491983 0.138109
v 0.440000 -0.431983 0.198109
v 0.440000 -0.491983 0.198109
v -0.440000 -0.431983 0.138109
v -0.440000 -0.491983 0.138109
v -0.440000 -0.431983 0.198109
v -0.440000 -0.491983 0.198109
vn -0.0000 1.0000 -0.0000
vn -0.0000 -0.0000 1.0000
vn -1.0000 -0.0000 -0.0000
vn -0.0000 -1.0000 -0.0000
vn 1.0000 -0.0000 -0.0000
vn -0.0000 -0.0000 -1.0000
vt 0.750000 0.000000
vt 0.750000 0.125000
vt 0.625000 0.125000
vt 0.625000 0.000000
vt 0.750000 0.250000
vt 0.625000 0.250000
vt 0.625000 0.125000
vt 0.750000 0.125000
vt 0.750000 0.375000
vt 0.625000 0.375000
vt 0.625000 0.250000
vt 0.750000 0.375000
vt 0.750000 0.500000
vt 0.625000 0.500000
vt 0.625000 0.375000
vt 0.750000 0.625000
vt 0.625000 0.625000
vt 0.750000 0.750000
vt 0.625000 0.750000
s 0
usemtl Material
f 33/90/25 37/91/25 39/92/25 35/93/25
f 36/94/26 35/95/26 39/96/26 40/97/26
f 40/98/27 39/99/27 37/100/27 38/94/27
f 38/101/28 34/102/28 36/103/28 40/104/28
f 34/105/29 33/106/29 35/103/29 36/102/29
f 38/107/30 37/108/30 33/106/30 34/105/30
o Cube.005
v 0.440000 -0.431983 0.438838
v 0.440000 -0.491983 0.438838
v 0.440000 -0.431983 0.498838
v 0.440000 -0.491983 0.498838
v -0.440000 -0.431983 0.438838
v -0.440000 -0.491983 0.438838
v -0.440000 -0.431983 0.498838
v -0.440000 -0.491983 0.498838
vn -0.0000 1.0000 -0.0000
vn -0.0000 -0.0000 1.0000
vn -1.0000 -0.0000 -0.0000
vn -0.0000 -1.0000 -0.0000
vn 1.0000 -0.0000 -0.0000
vn -0.0000 -0.0000 -1.0000
vt 0.125000 0.750000
vt 0.125000 0.875000
vt 0.000000 0.875000
vt 0.000000 0.750000
vt 0.250000 0.875000
vt 0.125000 0.875000
vt 0.125000 0.750000
vt 0.250000 0.750000
vt 0.375000 0.875000
vt 0.375000 0.750000
vt 0.500000 0.750000
vt 0.500000 0.875000
vt 0.375000 0.875000
vt 0.375000 0.750000
vt 0.625000 0.875000
vt 0.625000 0.750000
vt 0.750000 0.875000
vt 0.750000 0.750000
s 0
usemtl Material
f 41/109/31 45/110/31 47/111/31 43/112/31
f 44/113/32 43/114/32 47/115/32 48/116/32
f 48/117/33 47/113/33 45/116/33 46/118/33
f 46/119/34 42/120/34 44/121/34 48/122/34
f 42/123/35 41/120/35 43/119/35 44/124/35
f 46/125/36 45/123/36 41/124/36 42/126/36
o Cube.006
v 0.440000 -0.431983 0.302483
v 0.440000 -0.491983 0.302483
v 0.440000 -0.431983 0.362483
v 0.440000 -0.491983 0.362483
v -0.440000 -0.431983 0.302483
v -0.440000 -0.491983 0.302483
v -0.440000 -0.431983 0.362483
v -0.440000 -0.491983 0.362483
vn -0.0000 1.0000 -0.0000
vn -0.0000 -0.0000 1.0000
vn -1.0000 -0.0000 -0.0000
vn -0.0000 -1.0000 -0.0000
vn 1.0000 -0.0000 -0.0000
vn -0.0000 -0.0000 -1.0000
vt 0.875000 0.000000
vt 0.875000 0.125000
vt 0.750000 0.125000
vt 0.750000 0.000000
vt 0.875000 0.250000
vt 0.750000 0.250000
vt 0.750000 0.125000
vt 0.875000 0.125000
vt 0.875000 0.375000
vt 0.750000 0.375000
vt 0.875000 0.375000
vt 0.875000 0.500000
vt 0.750000 0.500000
vt 0.750000 0.375000
vt 0.875000 0.625000
vt 0.750000 0.625000
vt 0.875000 0.750000
vt 0.750000 0.750000
s 0
usemtl Material
f 49/127/37 53/128/37 55/129/37 51/130/37
f 52/131/38 51/132/38 55/133/38 56/134/38
f 56/135/39 55/136/39 53/132/39 54/131/39
f 54/137/40 50/138/40 52/139/40 56/140/40
f 50/141/41 49/142/41 51/139/41 52/138/41
f 54/143/42 53/144/42 49/142/42 50/141/42
o Cube.007
v 0.500333 -0.431983 0.498132
v 0.500333 -0.491983 0.498132
v 0.440333 -0.431983 0.498132
v 0.440333 -0.491983 0.498132
v 0.500333 -0.431983 -0.501868
v 0.500333 -0.491983 -0.501868
v 0.440333 -0.431983 -0.501868
v 0.440333 -0.491983 -0.501868
vn -0.0000 1.0000 -0.0000
vn -1.0000 -0.0000 -0.0000
vn -0.0000 -0.0000 -1.0000
vn -0.0000 -1.0000 -0.0000
vn -0.0000 -0.0000 1.0000
vn 1.0000 -0.0000 -0.0000
vt 0.125000 0.000000
vt 0.125000 0.125000
vt 0.000000 0.125000
vt 0.000000 0.000000
vt 0.125000 0.250000
vt 0.000000 0.250000
vt 0.000000 0.125000
vt 0.125000 0.125000
vt 0.250000 0.125000
vt 0.125000 0.125000
vt 0.125000 0.000000
vt 0.250000 0.000000
vt 0.250000 0.125000
vt 0.250000 0.250000
vt 0.125000 0.250000
vt 0.125000 0.125000
vt 0.125000 0.375000
vt 0.000000 0.375000
vt 0.000000 0.250000
vt 0.125000 0.250000
vt 0.250000 0.375000
vt 0.125000 0.375000
vt 0.125000 0.250000
vt 0.250000 0.250000
s 0
usemtl Material
f 57/145/43 61/146/43 63/147/43 59/148/43
f 60/149/44 59/150/44 63/151/44 64/152/44
f 64/153/45 63/154/45 61/155/45 62/156/45
f 62/157/46 58/158/46 60/159/46 64/160/46
f 58/161/47 57/162/47 59/163/47 60/164/47
f 62/165/48 61/166/48 57/167/48 58/168/48
o Cube.008
v -0.440706 -0.431983 0.498132
v -0.440706 -0.491983 0.498132
v -0.500706 -0.431983 0.498132
v -0.500706 -0.491983 0.498132
v -0.440706 -0.431983 -0.501868
v -0.440706 -0.491983 -0.501868
v -0.500706 -0.431983 -0.501868
v -0.500706 -0.491983 -0.501868
vn -0.0000 1.0000 -0.0000
vn -1.0000 -0.0000 -0.0000
vn -0.0000 -0.0000 -1.0000
vn -0.0000 -1.0000 -0.0000
vn -0.0000 -0.0000 1.0000
vn 1.0000 -0.0000 -0.0000
vt 0.875000 0.750000
vt 0.875000 0.875000
vt 0.750000 0.875000
vt 0.750000 0.750000
vt 0.125000 1.000000
vt -0.000000 1.000000
vt 0.000000 0.875000
vt 0.125000 0.875000
vt 0.250000 1.000000
vt 0.125000 1.000000
vt 0.125000 0.875000
vt 0.250000 0.875000
vt 0.375000 0.875000
vt 0.375000 1.000000
vt 0.250000 1.000000
vt 0.500000 1.000000
vt 0.375000 1.000000
vt 0.375000 0.875000
vt 0.500000 0.875000
vt 0.625000 1.000000
vt 0.625000 0.875000
s 0
usemtl Material
f 65/169/49 69/170/49 71/171/49 67/172/49
f 68/173/50 67/174/50 71/175/50 72/176/50
f 72/177/51 71/178/51 69/179/51 70/180/51
f 70/181/52 66/182/52 68/183/52 72/180/52
f 66/184/53 65/185/53 67/186/53 68/187/53
f 70/188/54 69/184/54 65/187/54 66/189/54
