# Blender 4.3.2
# www.blender.org
mtllib mystreets_street_light.mtl
o Cube
v -0.175398 -0.123323 0.359211
v 0.168501 -0.123323 0.359212
v -0.175398 -0.123323 -0.126173
v 0.168501 -0.123323 -0.126173
v 0.056876 0.195304 0.247586
v 0.227041 0.025139 0.417751
v 0.090074 0.192034 0.280784
v 0.121995 0.182351 0.312706
v 0.151415 0.166626 0.342125
v 0.177201 0.145464 0.367911
v 0.198363 0.119678 0.389073
v 0.214088 0.090258 0.404798
v 0.223771 0.058337 0.414481
v -0.063773 0.195304 0.247586
v -0.233937 0.025139 0.417751
v -0.096970 0.192034 0.280784
v -0.128892 0.182351 0.312705
v -0.158311 0.166626 0.342125
v -0.184097 0.145464 0.367911
v -0.205259 0.119678 0.389073
v -0.220984 0.090258 0.404798
v -0.230668 0.058337 0.414481
v 0.056876 0.195304 -0.014548
v 0.227041 0.025139 -0.184712
v 0.090074 0.192034 -0.047745
v 0.121995 0.182351 -0.079667
v 0.151415 0.166626 -0.109086
v 0.177201 0.145464 -0.134872
v 0.198363 0.119678 -0.156034
v 0.214088 0.090258 -0.171759
v 0.223771 0.058337 -0.181443
v -0.063773 0.195304 -0.014548
v -0.233937 0.025139 -0.184712
v -0.096970 0.192034 -0.047745
v -0.128892 0.182351 -0.079667
v -0.158311 0.166626 -0.109086
v -0.184097 0.145464 -0.134872
v -0.205259 0.119678 -0.156034
v -0.220984 0.090258 -0.171759
v -0.230668 0.058337 -0.181443
v 0.227041 -0.100703 0.417751
v 0.168501 -0.159243 0.359212
v 0.225916 -0.112124 0.416626
v 0.222585 -0.123105 0.413295
v 0.217175 -0.133226 0.407885
v 0.209895 -0.142097 0.400605
v 0.201024 -0.149377 0.391734
v 0.190903 -0.154787 0.381613
v 0.179922 -0.158118 0.370632
v -0.175398 -0.159243 0.359211
v -0.233937 -0.100703 0.417751
v -0.186818 -0.158118 0.370632
v -0.197800 -0.154787 0.381613
v -0.207921 -0.149377 0.391734
v -0.216791 -0.142097 0.400605
v -0.224072 -0.133226 0.407885
v -0.229481 -0.123105 0.413295
v -0.232812 -0.112124 0.416626
v 0.227041 -0.100703 -0.184712
v 0.168501 -0.159243 -0.126173
v 0.225916 -0.112124 -0.183587
v 0.222585 -0.123105 -0.180256
v 0.217175 -0.133226 -0.174847
v 0.209895 -0.142097 -0.167567
v 0.201024 -0.149377 -0.158696
v 0.190903 -0.154787 -0.148575
v 0.179922 -0.158118 -0.137593
v -0.175398 -0.159243 -0.126173
v -0.233937 -0.100703 -0.184712
v -0.186818 -0.158118 -0.137593
v -0.197800 -0.154787 -0.148575
v -0.207921 -0.149377 -0.158696
v -0.216791 -0.142097 -0.167567
v -0.224072 -0.133226 -0.174847
v -0.229481 -0.123105 -0.180256
v -0.232812 -0.112124 -0.183587
v -0.175398 -0.158929 -0.126173
v -0.112771 -0.221555 -0.063546
v -0.174195 -0.171147 -0.124970
v -0.170631 -0.182895 -0.121406
v -0.164843 -0.193722 -0.115618
v -0.157055 -0.203213 -0.107830
v -0.147565 -0.211001 -0.098340
v -0.136737 -0.216788 -0.087513
v -0.124989 -0.220352 -0.075764
v -0.112771 -0.221555 0.296585
v -0.175398 -0.158929 0.359211
v -0.124989 -0.220352 0.308803
v -0.136737 -0.216788 0.320551
v -0.147565 -0.211001 0.331378
v -0.157055 -0.203213 0.340869
v -0.164843 -0.193722 0.348657
v -0.170631 -0.182895 0.354444
v -0.174195 -0.171147 0.358008
v 0.168501 -0.158929 0.359212
v 0.105875 -0.221555 0.296585
v 0.167298 -0.171147 0.358008
v 0.163734 -0.182895 0.354444
v 0.157947 -0.193722 0.348657
v 0.150158 -0.203213 0.340869
v 0.140668 -0.211001 0.331378
v 0.129841 -0.216788 0.320551
v 0.118093 -0.220352 0.308803
v 0.105875 -0.221555 -0.063546
v 0.168501 -0.158929 -0.126173
v 0.118093 -0.220352 -0.075764
v 0.129841 -0.216788 -0.087513
v 0.140668 -0.211001 -0.098340
v 0.150158 -0.203213 -0.107830
v 0.157947 -0.193722 -0.115618
v 0.163734 -0.182895 -0.121406
v 0.167298 -0.171147 -0.124970
vn -0.0000 -0.0000 -1.0000
vn 1.0000 -0.0000 -0.0000
vn -0.0000 -0.0000 1.0000
vn -0.0000 1.0000 -0.0000
vn -1.0000 -0.0000 -0.0000
vn -0.0980 0.9952 -0.0000
vn -0.2903 0.9569 -0.0000
vn -0.4714 0.8819 -0.0000
vn -0.6344 0.7730 -0.0000
vn -0.7730 0.6344 -0.0000
vn -0.8819 0.4714 -0.0000
vn -0.9569 0.2903 -0.0000
vn -0.9952 0.0980 -0.0000
vn -0.0000 0.9952 0.0980
vn -0.0000 0.9569 0.2903
vn -0.0000 0.8819 0.4714
vn -0.0000 0.7730 0.6344
vn -0.0000 0.6344 0.7730
vn -0.0000 0.4714 0.8819
vn -0.0000 0.2903 0.9569
vn -0.0000 0.0980 0.9952
vn -0.0000 0.9952 -0.0980
vn -0.0000 0.9569 -0.2903
vn -0.0000 0.8819 -0.4714
vn -0.0000 0.7730 -0.6344
vn -0.0000 0.6344 -0.7730
vn -0.0000 0.4714 -0.8819
vn -0.0000 0.2903 -0.9569
vn -0.0000 0.0980 -0.9952
vn 0.0980 0.9952 -0.0000
vn 0.2903 0.9569 -0.0000
vn 0.4714 0.8819 -0.0000
vn 0.6344 0.7730 -0.0000
vn 0.7730 0.6344 -0.0000
vn 0.8819 0.4714 -0.0000
vn 0.9569 0.2903 -0.0000
vn 0.9952 0.0980 -0.0000
vn -0.0000 -0.9952 -0.0980
vn -0.0000 -0.9569 -0.2903
vn -0.0000 -0.8819 -0.4714
vn -0.0000 -0.7730 -0.6344
vn -0.0000 -0.6344 -0.7730
vn -0.0000 -0.4714 -0.8819
vn -0.0000 -0.2903 -0.9569
vn -0.0000 -0.0980 -0.9952
vn 0.0980 -0.9952 -0.0000
vn 0.2903 -0.9569 -0.0000
vn 0.4714 -0.8819 -0.0000
vn 0.6344 -0.7730 -0.0000
vn 0.7730 -0.6344 -0.0000
vn 0.8819 -0.4714 -0.0000
vn 0.9569 -0.2903 -0.0000
vn 0.9952 -0.0980 -0.0000
vn -0.0980 -0.9952 -0.0000
vn -0.2903 -0.9569 -0.0000
vn -0.4714 -0.8819 -0.0000
vn -0.6344 -0.7730 -0.0000
vn -0.7730 -0.6344 -0.0000
vn -0.8819 -0.4714 -0.0000
vn -0.9569 -0.2903 -0.0000
vn -0.9952 -0.0980 -0.0000
vn -0.0000 -0.9952 0.0980
vn -0.0000 -0.9569 0.2903
vn -0.0000 -0.8819 0.4714
vn -0.0000 -0.7730 0.6344
vn -0.0000 -0.6344 0.7730
vn -0.0000 -0.4714 0.8819
vn -0.0000 -0.2903 0.9569
vn -0.0000 -0.0980 0.9952
vn -0.0000 -1.0000 -0.0000
vt 0.801202 0.884018
vt 0.734609 0.884018
vt 0.734609 0.639398
vt 0.801202 0.639398
vt 0.202815 0.893890
vt 0.202815 0.636319
vt 0.221657 0.636319
vt 0.221657 0.893890
vt 0.952080 0.884018
vt 0.885487 0.884018
vt 0.885487 0.639398
vt 0.952080 0.639398
vt 0.446033 0.703249
vt 0.446033 0.842351
vt 0.382010 0.842351
vt 0.382010 0.703249
vt 0.896400 0.639398
vt 0.829807 0.639398
vt 0.829807 0.319699
vt 0.896400 0.319699
vt 0.364394 0.859967
vt 0.364394 0.685632
vt 0.347454 0.876907
vt 0.347455 0.668693
vt 0.331843 0.892518
vt 0.331843 0.653082
vt 0.318160 0.906202
vt 0.318160 0.639398
vt 0.768105 0.612950
vt 0.768105 0.346147
vt 0.780914 0.334917
vt 0.780914 0.624180
vt 0.795860 0.326573
vt 0.795860 0.632525
vt 0.812369 0.321434
vt 0.812369 0.637663
vt 0.463649 0.685632
vt 0.480589 0.668693
vt 0.496200 0.653082
vt 0.509884 0.639398
vt 0.823785 0.857570
vt 0.823785 0.665846
vt 0.836593 0.654616
vt 0.836593 0.868800
vt 0.851539 0.646272
vt 0.851539 0.877144
vt 0.868049 0.641133
vt 0.868049 0.882283
vt 0.463649 0.859967
vt 0.480589 0.876907
vt 0.496200 0.892518
vt 0.509884 0.906202
vt 0.672907 0.857570
vt 0.672907 0.665846
vt 0.685716 0.654616
vt 0.685716 0.868800
vt 0.700662 0.646272
vt 0.700662 0.877144
vt 0.717171 0.641133
vt 0.717171 0.882283
vt 0.791713 0.293251
vt 0.791713 0.026448
vt 0.804521 0.015218
vt 0.804521 0.304481
vt 0.819467 0.006874
vt 0.819467 0.312826
vt 0.835977 0.001735
vt 0.835977 0.317964
vt 0.853415 0.000000
vt 0.853415 0.319699
vt 0.307826 0.636319
vt 0.307825 0.893890
vt 0.288817 0.893890
vt 0.288818 0.636319
vt 0.769747 0.021966
vt 0.587256 0.021966
vt 0.581196 0.015905
vt 0.775808 0.015905
vt 0.575368 0.010078
vt 0.781635 0.010078
vt 0.569998 0.004707
vt 0.787006 0.004707
vt 0.565290 0.000000
vt 0.791713 0.000000
vt 0.823785 0.648497
vt 0.823785 0.874919
vt 0.818803 0.878782
vt 0.818803 0.644633
vt 0.813233 0.881653
vt 0.813233 0.641763
vt 0.807290 0.883421
vt 0.807290 0.639995
vt 0.769747 0.279537
vt 0.775807 0.285597
vt 0.781635 0.291424
vt 0.787005 0.296795
vt 0.791713 0.301502
vt 0.942590 0.009098
vt 0.942590 0.310601
vt 0.937608 0.314464
vt 0.937608 0.005235
vt 0.932039 0.317334
vt 0.932039 0.002365
vt 0.926096 0.319102
vt 0.926096 0.000597
vt 0.920008 0.319699
vt 0.920008 0.000000
vt 0.587256 0.279537
vt 0.581196 0.285597
vt 0.575368 0.291424
vt 0.569998 0.296795
vt 0.565290 0.301502
vt 0.918983 0.328798
vt 0.918983 0.630300
vt 0.914001 0.634163
vt 0.914001 0.324934
vt 0.908431 0.637034
vt 0.908431 0.322064
vt 0.902488 0.638801
vt 0.902488 0.320296
vt 0.974662 0.648497
vt 0.974662 0.874919
vt 0.969680 0.878782
vt 0.969680 0.644633
vt 0.964111 0.881653
vt 0.964111 0.641763
vt 0.958168 0.883421
vt 0.958168 0.639995
vt 0.993670 0.639398
vt 0.993670 0.821889
vt 0.974662 0.821889
vt 0.974662 0.639398
vt 0.980992 0.319699
vt 0.980992 0.577270
vt 0.961984 0.577270
vt 0.961984 0.319699
vt 1.000000 0.319699
vt 1.000000 0.502190
vt 0.980992 0.502190
vt 0.980992 0.319699
vt 0.942590 0.182491
vt 0.942590 0.000000
vt 0.961432 0.000000
vt 0.961432 0.182491
vt 0.192377 0.119929
vt 0.192377 0.311033
vt 0.076352 0.311033
vt 0.076352 0.119929
vt 0.918983 0.502190
vt 0.918983 0.319699
vt 0.937825 0.319699
vt 0.937825 0.502190
vt 0.069868 0.317517
vt 0.069868 0.113445
vt 0.063634 0.323751
vt 0.063634 0.107211
vt 0.057888 0.329497
vt 0.057888 0.101465
vt 0.052852 0.334533
vt 0.052852 0.096429
vt 0.183349 0.087459
vt 0.183349 0.325563
vt 0.178019 0.329696
vt 0.178019 0.083326
vt 0.172060 0.332767
vt 0.172060 0.080255
vt 0.165702 0.334658
vt 0.165702 0.078364
vt 0.159189 0.335296
vt 0.159189 0.077725
vt 0.198860 0.113445
vt 0.198860 0.317517
vt 0.205095 0.107211
vt 0.205095 0.323751
vt 0.210840 0.101465
vt 0.210840 0.329497
vt 0.215876 0.096429
vt 0.215876 0.334533
vt 0.140347 0.087459
vt 0.140347 0.325563
vt 0.135017 0.329696
vt 0.135017 0.083326
vt 0.129059 0.332767
vt 0.129059 0.080255
vt 0.122701 0.334658
vt 0.122701 0.078364
vt 0.116188 0.335296
vt 0.116188 0.077725
vt 0.102609 0.138027
vt 0.102609 0.301050
vt 0.097279 0.305183
vt 0.097279 0.133894
vt 0.091321 0.308254
vt 0.091321 0.130823
vt 0.084963 0.310145
vt 0.084963 0.128931
vt 0.078449 0.310784
vt 0.078449 0.128293
vt 0.200435 0.115202
vt 0.200435 0.278226
vt 0.195105 0.282359
vt 0.195105 0.111070
vt 0.189147 0.285430
vt 0.189147 0.107998
vt 0.182789 0.287321
vt 0.182789 0.106107
vt 0.176276 0.287960
vt 0.176276 0.105469
vt 0.245816 0.893890
vt 0.245816 0.636319
vt 0.264658 0.636319
vt 0.264658 0.893890
s 0
usemtl Material
f 69/1/1 33/2/1 24/3/1 59/4/1
f 4/5/2 2/6/2 95/7/2 105/8/2
f 41/9/3 6/10/3 15/11/3 51/12/3
f 5/13/4 23/14/4 32/15/4 14/16/4
f 51/17/5 15/18/5 33/19/5 69/20/5
f 14/16/6 32/15/6 34/21/6 16/22/6
f 16/22/7 34/21/7 35/23/7 17/24/7
f 17/24/8 35/23/8 36/25/8 18/26/8
f 18/26/9 36/25/9 37/27/9 19/28/9
f 19/29/10 37/30/10 38/31/10 20/32/10
f 20/32/11 38/31/11 39/33/11 21/34/11
f 21/34/12 39/33/12 40/35/12 22/36/12
f 22/36/13 40/35/13 33/19/13 15/18/13
f 5/13/14 14/16/14 16/22/14 7/37/14
f 7/37/15 16/22/15 17/24/15 8/38/15
f 8/38/16 17/24/16 18/26/16 9/39/16
f 9/39/17 18/26/17 19/28/17 10/40/17
f 10/41/18 19/42/18 20/43/18 11/44/18
f 11/44/19 20/43/19 21/45/19 12/46/19
f 12/46/20 21/45/20 22/47/20 13/48/20
f 13/48/21 22/47/21 15/11/21 6/10/21
f 32/15/22 23/14/22 25/49/22 34/21/22
f 34/21/23 25/49/23 26/50/23 35/23/23
f 35/23/24 26/50/24 27/51/24 36/25/24
f 36/25/25 27/51/25 28/52/25 37/27/25
f 37/53/26 28/54/26 29/55/26 38/56/26
f 38/56/27 29/55/27 30/57/27 39/58/27
f 39/58/28 30/57/28 31/59/28 40/60/28
f 40/60/29 31/59/29 24/3/29 33/2/29
f 23/14/30 5/13/30 7/37/30 25/49/30
f 25/49/31 7/37/31 8/38/31 26/50/31
f 26/50/32 8/38/32 9/39/32 27/51/32
f 27/51/33 9/39/33 10/40/33 28/52/33
f 28/61/34 10/62/34 11/63/34 29/64/34
f 29/64/35 11/63/35 12/65/35 30/66/35
f 30/66/36 12/65/36 13/67/36 31/68/36
f 31/68/37 13/67/37 6/69/37 24/70/37
f 50/71/2 68/72/2 3/73/2 1/74/2
f 60/75/38 68/76/38 70/77/38 67/78/38
f 67/78/39 70/77/39 71/79/39 66/80/39
f 66/80/40 71/79/40 72/81/40 65/82/40
f 65/82/41 72/81/41 73/83/41 64/84/41
f 64/85/42 73/86/42 74/87/42 63/88/42
f 63/88/43 74/87/43 75/89/43 62/90/43
f 62/90/44 75/89/44 76/91/44 61/92/44
f 61/92/45 76/91/45 69/1/45 59/4/45
f 42/93/46 60/75/46 67/78/46 49/94/46
f 49/94/47 67/78/47 66/80/47 48/95/47
f 48/95/48 66/80/48 65/82/48 47/96/48
f 47/96/49 65/82/49 64/84/49 46/97/49
f 46/98/50 64/99/50 63/100/50 45/101/50
f 45/101/51 63/100/51 62/102/51 44/103/51
f 44/103/52 62/102/52 61/104/52 43/105/52
f 43/105/53 61/104/53 59/106/53 41/107/53
f 68/76/54 50/108/54 52/109/54 70/77/54
f 70/77/55 52/109/55 53/110/55 71/79/55
f 71/79/56 53/110/56 54/111/56 72/81/56
f 72/81/57 54/111/57 55/112/57 73/83/57
f 73/113/58 55/114/58 56/115/58 74/116/58
f 74/116/59 56/115/59 57/117/59 75/118/59
f 75/118/60 57/117/60 58/119/60 76/120/60
f 76/120/61 58/119/61 51/17/61 69/20/61
f 50/108/62 42/93/62 49/94/62 52/109/62
f 52/109/63 49/94/63 48/95/63 53/110/63
f 53/110/64 48/95/64 47/96/64 54/111/64
f 54/111/65 47/96/65 46/97/65 55/112/65
f 55/121/66 46/122/66 45/123/66 56/124/66
f 56/124/67 45/123/67 44/125/67 57/126/67
f 57/126/68 44/125/68 43/127/68 58/128/68
f 58/128/69 43/127/69 41/9/69 51/12/69
f 59/106/2 24/70/2 6/69/2 41/107/2
f 68/129/3 60/130/3 4/131/3 3/132/3
f 60/133/5 42/134/5 2/135/5 4/136/5
f 42/137/1 50/138/1 1/139/1 2/140/1
f 3/141/1 4/142/1 105/143/1 77/144/1
f 104/145/70 96/146/70 86/147/70 78/148/70
f 2/149/3 1/150/3 87/151/3 95/152/3
f 78/148/54 86/147/54 88/153/54 85/154/54
f 85/154/55 88/153/55 89/155/55 84/156/55
f 84/156/56 89/155/56 90/157/56 83/158/56
f 83/158/57 90/157/57 91/159/57 82/160/57
f 82/161/58 91/162/58 92/163/58 81/164/58
f 81/164/59 92/163/59 93/165/59 80/166/59
f 80/166/60 93/165/60 94/167/60 79/168/60
f 79/168/61 94/167/61 87/169/61 77/170/61
f 96/146/46 104/145/46 106/171/46 103/172/46
f 103/172/47 106/171/47 107/173/47 102/174/47
f 102/174/48 107/173/48 108/175/48 101/176/48
f 101/176/49 108/175/49 109/177/49 100/178/49
f 100/179/50 109/180/50 110/181/50 99/182/50
f 99/182/51 110/181/51 111/183/51 98/184/51
f 98/184/52 111/183/52 112/185/52 97/186/52
f 97/186/53 112/185/53 105/187/53 95/188/53
f 86/147/62 96/146/62 103/172/62 88/153/62
f 88/153/63 103/172/63 102/174/63 89/155/63
f 89/155/64 102/174/64 101/176/64 90/157/64
f 90/157/65 101/176/65 100/178/65 91/159/65
f 91/189/66 100/190/66 99/191/66 92/192/66
f 92/192/67 99/191/67 98/193/67 93/194/67
f 93/194/68 98/193/68 97/195/68 94/196/68
f 94/196/69 97/195/69 95/197/69 87/198/69
f 104/145/38 78/148/38 85/154/38 106/171/38
f 106/171/39 85/154/39 84/156/39 107/173/39
f 107/173/40 84/156/40 83/158/40 108/175/40
f 108/175/41 83/158/41 82/160/41 109/177/41
f 109/199/42 82/200/42 81/201/42 110/202/42
f 110/202/43 81/201/43 80/203/43 111/204/43
f 111/204/44 80/203/44 79/205/44 112/206/44
f 112/206/45 79/205/45 77/207/45 105/208/45
f 1/209/5 3/210/5 77/211/5 87/212/5
o Cylinder
v 0.099998 -0.000002 0.297573
v 0.099998 -0.000002 0.497573
v 0.098076 -0.019511 0.297573
v 0.098076 -0.019511 0.497573
v 0.092386 -0.038271 0.297573
v 0.092386 -0.038271 0.497573
v 0.083145 -0.055559 0.297573
v 0.083145 -0.055559 0.497573
v 0.070708 -0.070713 0.297573
v 0.070708 -0.070713 0.497573
v 0.055555 -0.083149 0.297573
v 0.055555 -0.083149 0.497573
v 0.038266 -0.092390 0.297573
v 0.038266 -0.092390 0.497573
v 0.019507 -0.098081 0.297573
v 0.019507 -0.098081 0.497573
v -0.000002 -0.100002 0.297573
v -0.000002 -0.100002 0.497573
v -0.019511 -0.098081 0.297573
v -0.019511 -0.098081 0.497573
v -0.038271 -0.092390 0.297573
v -0.038271 -0.092390 0.497573
v -0.055559 -0.083149 0.297573
v -0.055559 -0.083149 0.497573
v -0.070713 -0.070713 0.297573
v -0.070713 -0.070713 0.497573
v -0.083149 -0.055559 0.297573
v -0.083149 -0.055559 0.497573
v -0.092390 -0.038271 0.297573
v -0.092390 -0.038271 0.497573
v -0.098081 -0.019511 0.297573
v -0.098081 -0.019511 0.497573
v -0.100002 -0.000002 0.297573
v -0.100002 -0.000002 0.497573
v -0.098081 0.019507 0.297573
v -0.098081 0.019507 0.497573
v -0.092390 0.038266 0.297573
v -0.092390 0.038266 0.497573
v -0.083149 0.055555 0.297573
v -0.083149 0.055555 0.497573
v -0.070713 0.070708 0.297573
v -0.070713 0.070708 0.497573
v -0.055559 0.083144 0.297573
v -0.055559 0.083144 0.497573
v -0.038271 0.092385 0.297573
v -0.038271 0.092385 0.497573
v -0.019511 0.098076 0.297573
v -0.019511 0.098076 0.497573
v -0.000002 0.099998 0.297573
v -0.000002 0.099998 0.497573
v 0.019507 0.098076 0.297573
v 0.019507 0.098076 0.497573
v 0.038266 0.092385 0.297573
v 0.038266 0.092385 0.497573
v 0.055555 0.083145 0.297573
v 0.055555 0.083145 0.497573
v 0.070708 0.070708 0.297573
v 0.070708 0.070708 0.497573
v 0.083145 0.055555 0.297573
v 0.083145 0.055555 0.497573
v 0.092386 0.038266 0.297573
v 0.092386 0.038266 0.497573
v 0.098076 0.019507 0.297573
v 0.098076 0.019507 0.497573
vn 0.9952 -0.0980 -0.0000
vn 0.9569 -0.2903 -0.0000
vn 0.8819 -0.4714 -0.0000
vn 0.7730 -0.6344 -0.0000
vn 0.6344 -0.7730 -0.0000
vn 0.4714 -0.8819 -0.0000
vn 0.2903 -0.9569 -0.0000
vn 0.0980 -0.9952 -0.0000
vn -0.0980 -0.9952 -0.0000
vn -0.2903 -0.9569 -0.0000
vn -0.4714 -0.8819 -0.0000
vn -0.6344 -0.7730 -0.0000
vn -0.7730 -0.6344 -0.0000
vn -0.8819 -0.4714 -0.0000
vn -0.9569 -0.2903 -0.0000
vn -0.9952 -0.0980 -0.0000
vn -0.9952 0.0980 -0.0000
vn -0.9569 0.2903 -0.0000
vn -0.8819 0.4714 -0.0000
vn -0.7730 0.6344 -0.0000
vn -0.6344 0.7730 -0.0000
vn -0.4714 0.8819 -0.0000
vn -0.2903 0.9569 -0.0000
vn -0.0980 0.9952 -0.0000
vn 0.0980 0.9952 -0.0000
vn 0.2903 0.9569 -0.0000
vn 0.4714 0.8819 -0.0000
vn 0.6344 0.7730 -0.0000
vn 0.7730 0.6344 -0.0000
vn 0.8819 0.4714 -0.0000
vn -0.0000 -0.0000 1.0000
vn 0.9569 0.2903 -0.0000
vn 0.9952 0.0980 -0.0000
vn -0.0000 -0.0000 -1.0000
vt 0.435235 0.639398
vt 0.435235 0.319699
vt 0.465969 0.319699
vt 0.465969 0.639398
vt 0.494920 0.319699
vt 0.494920 0.639398
vt 0.520975 0.319699
vt 0.520975 0.639398
vt 0.543132 0.319699
vt 0.543132 0.639398
vt 0.318160 0.319699
vt 0.318160 0.000000
vt 0.340318 0.000000
vt 0.340318 0.319699
vt 0.366372 0.000000
vt 0.366372 0.319699
vt 0.395323 0.000000
vt 0.395323 0.319699
vt 0.426057 0.000000
vt 0.426057 0.319699
vt 0.457393 0.000000
vt 0.457393 0.319699
vt 0.488127 0.000000
vt 0.488127 0.319699
vt 0.517078 0.000000
vt 0.517078 0.319699
vt 0.543132 0.000000
vt 0.543132 0.319699
vt 0.565290 0.000000
vt 0.565290 0.319699
vt 0.543132 0.639398
vt 0.543132 0.319699
vt 0.569187 0.319699
vt 0.569187 0.639398
vt 0.598138 0.319699
vt 0.598138 0.639398
vt 0.628872 0.319699
vt 0.628872 0.639398
vt 0.660208 0.319699
vt 0.660208 0.639398
vt 0.690942 0.319699
vt 0.690942 0.639398
vt 0.719892 0.319699
vt 0.719892 0.639398
vt 0.745947 0.319699
vt 0.745947 0.639398
vt 0.768105 0.319699
vt 0.768105 0.639398
vt 0.000000 0.956018
vt 0.000000 0.636319
vt 0.026055 0.636319
vt 0.026055 0.956018
vt 0.055006 0.636319
vt 0.055006 0.956018
vt 0.085739 0.636319
vt 0.085739 0.956018
vt 0.117075 0.636319
vt 0.117075 0.956018
vt 0.147809 0.636319
vt 0.147809 0.956018
vt 0.176760 0.636319
vt 0.176760 0.956018
vt 0.202815 0.636319
vt 0.202815 0.956018
vt 0.318160 0.639398
vt 0.318160 0.319699
vt 0.344215 0.319699
vt 0.344215 0.639398
vt 0.373165 0.319699
vt 0.373165 0.639398
vt 0.643610 0.548270
vt 0.621452 0.526112
vt 0.604043 0.500057
vt 0.592051 0.471107
vt 0.585938 0.440373
vt 0.585938 0.409037
vt 0.592051 0.378303
vt 0.604043 0.349352
vt 0.621452 0.323297
vt 0.643610 0.301139
vt 0.669665 0.283730
vt 0.698615 0.271738
vt 0.729349 0.265625
vt 0.760685 0.265625
vt 0.791419 0.271738
vt 0.820370 0.283730
vt 0.846425 0.301139
vt 0.868583 0.323297
vt 0.885992 0.349352
vt 0.897984 0.378303
vt 0.904097 0.409037
vt 0.904097 0.440373
vt 0.897984 0.471107
vt 0.885992 0.500057
vt 0.868583 0.526112
vt 0.846425 0.548270
vt 0.820370 0.565680
vt 0.791419 0.577671
vt 0.760685 0.583785
vt 0.729349 0.583785
vt 0.698615 0.577671
vt 0.669665 0.565680
vt 0.403899 0.319699
vt 0.403899 0.639398
vt 0.531608 0.574741
vt 0.514199 0.548686
vt 0.502207 0.519735
vt 0.496094 0.489001
vt 0.496094 0.457665
vt 0.502207 0.426931
vt 0.514199 0.397981
vt 0.531608 0.371926
vt 0.553766 0.349768
vt 0.579821 0.332359
vt 0.608772 0.320367
vt 0.639506 0.314253
vt 0.670842 0.314253
vt 0.701575 0.320367
vt 0.730526 0.332358
vt 0.756581 0.349768
vt 0.778739 0.371926
vt 0.796148 0.397981
vt 0.808140 0.426931
vt 0.814253 0.457665
vt 0.814253 0.489001
vt 0.808140 0.519735
vt 0.796148 0.548686
vt 0.778739 0.574741
vt 0.756581 0.596899
vt 0.730526 0.614308
vt 0.701575 0.626300
vt 0.670842 0.632413
vt 0.639506 0.632413
vt 0.608772 0.626300
vt 0.579821 0.614308
vt 0.553766 0.596899
s 0
f 113/213/71 114/214/71 116/215/71 115/216/71
f 115/216/72 116/215/72 118/217/72 117/218/72
f 117/218/73 118/217/73 120/219/73 119/220/73
f 119/220/74 120/219/74 122/221/74 121/222/74
f 121/223/75 122/224/75 124/225/75 123/226/75
f 123/226/76 124/225/76 126/227/76 125/228/76
f 125/228/77 126/227/77 128/229/77 127/230/77
f 127/230/78 128/229/78 130/231/78 129/232/78
f 129/232/79 130/231/79 132/233/79 131/234/79
f 131/234/80 132/233/80 134/235/80 133/236/80
f 133/236/81 134/235/81 136/237/81 135/238/81
f 135/238/82 136/237/82 138/239/82 137/240/82
f 137/240/83 138/239/83 140/241/83 139/242/83
f 139/243/84 140/244/84 142/245/84 141/246/84
f 141/246/85 142/245/85 144/247/85 143/248/85
f 143/248/86 144/247/86 146/249/86 145/250/86
f 145/250/87 146/249/87 148/251/87 147/252/87
f 147/252/88 148/251/88 150/253/88 149/254/88
f 149/254/89 150/253/89 152/255/89 151/256/89
f 151/256/90 152/255/90 154/257/90 153/258/90
f 153/258/91 154/257/91 156/259/91 155/260/91
f 155/261/92 156/262/92 158/263/92 157/264/92
f 157/264/93 158/263/93 160/265/93 159/266/93
f 159/266/94 160/265/94 162/267/94 161/268/94
f 161/268/95 162/267/95 164/269/95 163/270/95
f 163/270/96 164/269/96 166/271/96 165/272/96
f 165/272/97 166/271/97 168/273/97 167/274/97
f 167/274/98 168/273/98 170/275/98 169/276/98
f 169/277/99 170/278/99 172/279/99 171/280/99
f 171/280/100 172/279/100 174/281/100 173/282/100
f 116/283/101 114/284/101 176/285/101 174/286/101 172/287/101 170/288/101 168/289/101 166/290/101 164/291/101 162/292/101 160/293/101 158/294/101 156/295/101 154/296/101 152/297/101 150/298/101 148/299/101 146/300/101 144/301/101 142/302/101 140/303/101 138/304/101 136/305/101 134/306/101 132/307/101 130/308/101 128/309/101 126/310/101 124/311/101 122/312/101 120/313/101 118/314/101
f 173/282/102 174/281/102 176/315/102 175/316/102
f 175/316/103 176/315/103 114/214/103 113/213/103
f 113/317/104 115/318/104 117/319/104 119/320/104 121/321/104 123/322/104 125/323/104 127/324/104 129/325/104 131/326/104 133/327/104 135/328/104 137/329/104 139/330/104 141/331/104 143/332/104 145/333/104 147/334/104 149/335/104 151/336/104 153/337/104 155/338/104 157/339/104 159/340/104 161/341/104 163/342/104 165/343/104 167/344/104 169/345/104 171/346/104 173/347/104 175/348/104
