# Blender 4.3.2
# www.blender.org
mtllib mystreets_sign_stop_post.mtl
o Cube
v -0.500000 -0.203573 -0.098770
v -0.203573 -0.500000 -0.098770
v -0.203573 0.500000 -0.098770
v -0.500000 0.203573 -0.098770
v -0.203573 -0.500000 -0.138770
v -0.500000 -0.203573 -0.138770
v -0.500000 0.203573 -0.138770
v -0.203573 0.500000 -0.138770
v 0.203573 -0.500000 -0.098770
v 0.500000 -0.203573 -0.098770
v 0.500000 0.203573 -0.098770
v 0.203573 0.500000 -0.098770
v 0.500000 -0.203573 -0.138770
v 0.203573 -0.500000 -0.138770
v 0.203573 0.500000 -0.138770
v 0.500000 0.203573 -0.138770
vn -0.0000 -0.0000 1.0000
vn 1.0000 -0.0000 -0.0000
vn -0.0000 1.0000 -0.0000
vn -1.0000 -0.0000 -0.0000
vn -0.0000 -0.0000 -1.0000
vn -0.7071 -0.7071 -0.0000
vn -0.7071 0.7071 -0.0000
vn 0.7071 -0.7071 -0.0000
vn 0.7071 0.7071 -0.0000
vn -0.0000 -1.0000 -0.0000
vt 0.010805 0.883670
vt 0.010805 0.764512
vt 0.092637 0.682680
vt 0.211795 0.682680
vt 0.293627 0.764512
vt 0.293627 0.883670
vt 0.211795 0.965502
vt 0.092637 0.965502
vt 0.339844 0.984119
vt 0.224116 0.984119
vt 0.224116 0.699877
vt 0.339844 0.699877
vt 0.139858 0.984119
vt 0.024130 0.984119
vt 0.024130 0.699877
vt 0.139858 0.699877
vt 0.231235 0.976359
vt 0.115507 0.976359
vt 0.115507 0.692116
vt 0.231235 0.692116
vt 0.223371 0.021813
vt 0.307628 0.106071
vt 0.307628 0.221799
vt 0.223371 0.306056
vt 0.107643 0.306056
vt 0.023385 0.221799
vt 0.023385 0.106071
vt 0.107643 0.021813
vt 0.315493 0.779570
vt 0.031250 0.779570
vt 0.031250 0.695312
vt 0.315493 0.695312
vt 0.031250 0.976359
vt 0.031250 0.692116
vt 0.031250 0.895298
vt 0.315493 0.895298
vt 0.315493 0.979555
vt 0.031250 0.979555
vt 0.224116 0.699877
s 0
f 9/1/1 10/2/1 11/3/1 12/4/1 3/5/1 4/6/1 1/7/1 2/8/1
f 13/9/2 16/10/2 11/11/2 10/12/2
f 15/13/3 8/14/3 3/15/3 12/16/3
f 1/17/4 4/18/4 7/19/4 6/20/4
f 5/21/5 6/22/5 7/23/5 8/24/5 15/25/5 16/26/5 13/27/5 14/28/5
f 5/29/6 2/30/6 1/31/6 6/32/6
f 3/33/7 8/34/7 7/19/7 4/18/7
f 9/35/8 14/36/8 13/37/8 10/38/8
f 15/13/9 12/16/9 11/39/9 16/10/9
f 5/29/10 14/36/10 9/35/10 2/30/10
o Cylinder
v 0.000000 -0.501183 -0.100000
v 0.000000 0.495383 -0.100000
v 0.019509 -0.501183 -0.098079
v 0.019509 0.495383 -0.098079
v 0.038268 -0.501183 -0.092388
v 0.038268 0.495383 -0.092388
v 0.055557 -0.501183 -0.083147
v 0.055557 0.495383 -0.083147
v 0.070711 -0.501183 -0.070711
v 0.070711 0.495383 -0.070711
v 0.083147 -0.501183 -0.055557
v 0.083147 0.495383 -0.055557
v 0.092388 -0.501183 -0.038268
v 0.092388 0.495383 -0.038268
v 0.098079 -0.501183 -0.019509
v 0.098079 0.495383 -0.019509
v 0.100000 -0.501183 0.000000
v 0.100000 0.495383 0.000000
v 0.098079 -0.501183 0.019509
v 0.098079 0.495383 0.019509
v 0.092388 -0.501183 0.038268
v 0.092388 0.495383 0.038268
v 0.083147 -0.501183 0.055557
v 0.083147 0.495383 0.055557
v 0.070711 -0.501183 0.070711
v 0.070711 0.495383 0.070711
v 0.055557 -0.501183 0.083147
v 0.055557 0.495383 0.083147
v 0.038268 -0.501183 0.092388
v 0.038268 0.495383 0.092388
v 0.019509 -0.501183 0.098079
v 0.019509 0.495383 0.098079
v 0.000000 -0.501183 0.100000
v 0.000000 0.495383 0.100000
v -0.019509 -0.501183 0.098079
v -0.019509 0.495383 0.098079
v -0.038268 -0.501183 0.092388
v -0.038268 0.495383 0.092388
v -0.055557 -0.501183 0.083147
v -0.055557 0.495383 0.083147
v -0.070711 -0.501183 0.070711
v -0.070711 0.495383 0.070711
v -0.083147 -0.501183 0.055557
v -0.083147 0.495383 0.055557
v -0.092388 -0.501183 0.038268
v -0.092388 0.495383 0.038268
v -0.098079 -0.501183 0.019509
v -0.098079 0.495383 0.019509
v -0.100000 -0.501183 0.000000
v -0.100000 0.495383 0.000000
v -0.098079 -0.501183 -0.019509
v -0.098079 0.495383 -0.019509
v -0.092388 -0.501183 -0.038268
v -0.092388 0.495383 -0.038268
v -0.083147 -0.501183 -0.055557
v -0.083147 0.495383 -0.055557
v -0.070711 -0.501183 -0.070711
v -0.070711 0.495383 -0.070711
v -0.055557 -0.501183 -0.083147
v -0.055557 0.495383 -0.083147
v -0.038268 -0.501183 -0.092388
v -0.038268 0.495383 -0.092388
v -0.019509 -0.501183 -0.098079
v -0.019509 0.495383 -0.098079
vn 0.0980 -0.0000 -0.9952
vn 0.2903 -0.0000 -0.9569
vn 0.4714 -0.0000 -0.8819
vn 0.6344 -0.0000 -0.7730
vn 0.7730 -0.0000 -0.6344
vn 0.8819 -0.0000 -0.4714
vn 0.9569 -0.0000 -0.2903
vn 0.9952 -0.0000 -0.0980
vn 0.9952 -0.0000 0.0980
vn 0.9569 -0.0000 0.2903
vn 0.8819 -0.0000 0.4714
vn 0.7730 -0.0000 0.6344
vn 0.6344 -0.0000 0.7730
vn 0.4714 -0.0000 0.8819
vn 0.2903 -0.0000 0.9569
vn 0.0980 -0.0000 0.9952
vn -0.0980 -0.0000 0.9952
vn -0.2903 -0.0000 0.9569
vn -0.4714 -0.0000 0.8819
vn -0.6344 -0.0000 0.7730
vn -0.7730 -0.0000 0.6344
vn -0.8819 -0.0000 0.4714
vn -0.9569 -0.0000 0.2903
vn -0.9952 -0.0000 0.0980
vn -0.9952 -0.0000 -0.0980
vn -0.9569 -0.0000 -0.2903
vn -0.8819 -0.0000 -0.4714
vn -0.7730 -0.0000 -0.6344
vn -0.6344 -0.0000 -0.7730
vn -0.4714 -0.0000 -0.8819
vn -0.0000 1.0000 -0.0000
vn -0.2903 -0.0000 -0.9569
vn -0.0980 -0.0000 -0.9952
vn -0.0000 -1.0000 -0.0000
vt 0.669584 0.960682
vt 0.669584 0.676440
vt 0.696909 0.676440
vt 0.696909 0.960682
vt 0.722649 0.676440
vt 0.722649 0.960682
vt 0.745814 0.676440
vt 0.745814 0.960682
vt 0.765515 0.676440
vt 0.765515 0.960682
vt 0.571023 0.960024
vt 0.571023 0.675781
vt 0.590723 0.675781
vt 0.590723 0.960024
vt 0.613888 0.675781
vt 0.613888 0.960024
vt 0.639628 0.675781
vt 0.639628 0.960024
vt 0.666954 0.675781
vt 0.666954 0.960024
vt 0.694814 0.675781
vt 0.694814 0.960024
vt 0.722139 0.675781
vt 0.722139 0.960024
vt 0.747879 0.675781
vt 0.747879 0.960024
vt 0.771045 0.675781
vt 0.771045 0.960024
vt 0.790745 0.675781
vt 0.790745 0.960024
vt 0.765514 0.960682
vt 0.765514 0.676440
vt 0.788680 0.676440
vt 0.788680 0.960682
vt 0.814420 0.676440
vt 0.814420 0.960682
vt 0.841745 0.676440
vt 0.841745 0.960682
vt 0.869606 0.676440
vt 0.869606 0.960682
vt 0.896931 0.676440
vt 0.896931 0.960682
vt 0.922671 0.676440
vt 0.922671 0.960682
vt 0.945836 0.676440
vt 0.945836 0.960682
vt 0.965537 0.676440
vt 0.965537 0.960682
vt 0.813910 0.675781
vt 0.813910 0.960024
vt 0.839650 0.675781
vt 0.839650 0.960024
vt 0.866975 0.675781
vt 0.866975 0.960024
vt 0.894836 0.675781
vt 0.894836 0.960024
vt 0.922161 0.675781
vt 0.922161 0.960024
vt 0.947901 0.675781
vt 0.947901 0.960024
vt 0.971067 0.675781
vt 0.971067 0.960024
vt 0.565493 0.960682
vt 0.565493 0.676440
vt 0.588658 0.676440
vt 0.588658 0.960682
vt 0.614398 0.676440
vt 0.614398 0.960682
vt 0.707526 0.930072
vt 0.687826 0.910372
vt 0.672347 0.887206
vt 0.661685 0.861466
vt 0.656250 0.834141
vt 0.656250 0.806280
vt 0.661685 0.778955
vt 0.672347 0.753215
vt 0.687826 0.730050
vt 0.707526 0.710350
vt 0.730691 0.694871
vt 0.756431 0.684209
vt 0.783757 0.678774
vt 0.811617 0.678774
vt 0.838943 0.684209
vt 0.864682 0.694871
vt 0.887848 0.710350
vt 0.907548 0.730050
vt 0.923027 0.753215
vt 0.933689 0.778955
vt 0.939124 0.806280
vt 0.939124 0.834141
vt 0.933689 0.861466
vt 0.923027 0.887206
vt 0.907548 0.910372
vt 0.887848 0.930072
vt 0.864682 0.945550
vt 0.838943 0.956212
vt 0.811617 0.961648
vt 0.783757 0.961648
vt 0.756431 0.956212
vt 0.730691 0.945550
vt 0.641723 0.676440
vt 0.641723 0.960682
vt 0.690818 0.911285
vt 0.675340 0.888120
vt 0.664678 0.862380
vt 0.659243 0.835055
vt 0.659243 0.807194
vt 0.664678 0.779869
vt 0.675340 0.754129
vt 0.690818 0.730964
vt 0.710519 0.711263
vt 0.733684 0.695785
vt 0.759424 0.685123
vt 0.786749 0.679688
vt 0.814610 0.679688
vt 0.841935 0.685123
vt 0.867675 0.695785
vt 0.890840 0.711263
vt 0.910541 0.730964
vt 0.926019 0.754129
vt 0.936681 0.779869
vt 0.942116 0.807194
vt 0.942116 0.835055
vt 0.936681 0.862380
vt 0.926019 0.888120
vt 0.910541 0.911285
vt 0.890840 0.930986
vt 0.867675 0.946464
vt 0.841935 0.957126
vt 0.814610 0.962561
vt 0.786749 0.962561
vt 0.759424 0.957126
vt 0.733684 0.946464
vt 0.710519 0.930986
s 0
f 17/40/11 18/41/11 20/42/11 19/43/11
f 19/43/12 20/42/12 22/44/12 21/45/12
f 21/45/13 22/44/13 24/46/13 23/47/13
f 23/47/14 24/46/14 26/48/14 25/49/14
f 25/50/15 26/51/15 28/52/15 27/53/15
f 27/53/16 28/52/16 30/54/16 29/55/16
f 29/55/17 30/54/17 32/56/17 31/57/17
f 31/57/18 32/56/18 34/58/18 33/59/18
f 33/59/19 34/58/19 36/60/19 35/61/19
f 35/61/20 36/60/20 38/62/20 37/63/20
f 37/63/21 38/62/21 40/64/21 39/65/21
f 39/65/22 40/64/22 42/66/22 41/67/22
f 41/67/23 42/66/23 44/68/23 43/69/23
f 43/70/24 44/71/24 46/72/24 45/73/24
f 45/73/25 46/72/25 48/74/25 47/75/25
f 47/75/26 48/74/26 50/76/26 49/77/26
f 49/77/27 50/76/27 52/78/27 51/79/27
f 51/79/28 52/78/28 54/80/28 53/81/28
f 53/81/29 54/80/29 56/82/29 55/83/29
f 55/83/30 56/82/30 58/84/30 57/85/30
f 57/85/31 58/84/31 60/86/31 59/87/31
f 59/69/32 60/68/32 62/88/32 61/89/32
f 61/89/33 62/88/33 64/90/33 63/91/33
f 63/91/34 64/90/34 66/92/34 65/93/34
f 65/93/35 66/92/35 68/94/35 67/95/35
f 67/95/36 68/94/36 70/96/36 69/97/36
f 69/97/37 70/96/37 72/98/37 71/99/37
f 71/99/38 72/98/38 74/100/38 73/101/38
f 73/102/39 74/103/39 76/104/39 75/105/39
f 75/105/40 76/104/40 78/106/40 77/107/40
f 20/108/41 18/109/41 80/110/41 78/111/41 76/112/41 74/113/41 72/114/41 70/115/41 68/116/41 66/117/41 64/118/41 62/119/41 60/120/41 58/121/41 56/122/41 54/123/41 52/124/41 50/125/41 48/126/41 46/127/41 44/128/41 42/129/41 40/130/41 38/131/41 36/132/41 34/133/41 32/134/41 30/135/41 28/136/41 26/137/41 24/138/41 22/139/41
f 77/107/42 78/106/42 80/140/42 79/141/42
f 79/141/43 80/140/43 18/41/43 17/40/43
f 17/142/44 19/143/44 21/144/44 23/145/44 25/146/44 27/147/44 29/148/44 31/149/44 33/150/44 35/151/44 37/152/44 39/153/44 41/154/44 43/155/44 45/156/44 47/157/44 49/158/44 51/159/44 53/160/44 55/161/44 57/162/44 59/163/44 61/164/44 63/165/44 65/166/44 67/167/44 69/168/44 71/169/44 73/170/44 75/171/44 77/172/44 79/173/44
