# Blender 4.3.2
# www.blender.org
mtllib mystreets_railroad_sign.mtl
o Cube
v 0.375810 0.481621 0.395423
v 0.471544 0.372195 0.395423
v 0.375810 0.481621 0.495423
v 0.471544 0.372195 0.495423
v -0.479907 -0.377526 0.395423
v -0.379038 -0.478394 0.395423
v -0.479907 -0.377526 0.495423
v -0.379038 -0.478394 0.495423
v 0.460216 0.251314 0.395423
v 0.318796 0.109892 0.395423
v 0.177375 -0.031530 0.395423
v -0.251310 -0.460218 0.395423
v 0.248083 0.463445 0.495423
v 0.106662 0.322023 0.495423
v -0.034758 0.180601 0.495423
v -0.463444 -0.248087 0.495423
v -0.251310 -0.460218 0.495423
v 0.177375 -0.031530 0.495423
v 0.318796 0.109892 0.495423
v 0.460216 0.251314 0.495423
v -0.463444 -0.248087 0.395423
v -0.034758 0.180601 0.395423
v 0.106662 0.322023 0.395423
v 0.248083 0.463445 0.395423
v 0.495570 0.498802 0.395423
v -0.498798 -0.495574 0.495423
v 0.495570 0.498802 0.495423
v -0.498798 -0.495574 0.395423
v -0.070112 -0.066887 0.395423
v 0.071308 0.074535 0.395423
v 0.212729 0.215958 0.395423
v 0.354150 0.357380 0.395423
v 0.354150 0.357380 0.495423
v 0.212729 0.215958 0.495423
v 0.071308 0.074535 0.495423
v -0.070112 -0.066887 0.495423
vn -0.9920 0.1262 -0.0000
vn -0.0000 -0.0000 1.0000
vn -0.9874 0.1580 -0.0000
vn 0.9956 -0.0933 -0.0000
vn -0.1420 0.9899 -0.0000
vn -0.0000 -0.0000 -1.0000
vn 0.1409 -0.9900 -0.0000
vn 0.7071 -0.7071 -0.0000
vn -0.1409 0.9900 -0.0000
vn -0.7071 0.7071 -0.0000
vn 0.9825 -0.1864 -0.0000
vn 0.1420 -0.9899 -0.0000
vt 0.763702 0.509134
vt 0.836395 0.509134
vt 0.836395 0.763701
vt 0.763702 0.763701
vt 0.635097 0.516224
vt 0.507812 0.412805
vt 0.575600 0.386542
vt 0.635096 0.361892
vt 0.900791 0.763701
vt 0.900791 0.509134
vt 1.000000 0.254567
vt 0.930131 0.254567
vt 0.930131 0.000000
vt 1.000000 0.000000
vt 0.862911 0.254567
vt 0.814948 0.254567
vt 0.814948 -0.000000
vt 0.862911 0.000000
vt 0.213883 0.387715
vt 0.341166 0.387714
vt 0.275433 0.413978
vt 0.213883 0.438628
vt 0.213883 0.080642
vt 0.273379 0.105292
vt 0.341166 0.131555
vt 0.213882 0.234974
vt 0.341166 0.285887
vt 0.213882 0.285888
vt 0.341166 0.336801
vt 0.213883 0.336801
vt 0.948752 0.509134
vt 0.999995 0.509134
vt 0.999995 0.763701
vt 0.948752 0.763701
vt 0.743510 0.949818
vt 0.743510 0.795486
vt 0.998077 0.795486
vt 0.998077 0.949818
vt 0.509135 0.357986
vt 0.509135 0.307073
vt 0.763702 0.307073
vt 0.763702 0.357986
vt 0.509135 0.256159
vt 0.763702 0.256159
vt 0.635096 0.719878
vt 0.573546 0.695228
vt 0.507812 0.668964
vt 0.635096 0.668965
vt 0.507813 0.618051
vt 0.635096 0.618051
vt 0.507813 0.567137
vt 0.635097 0.567138
vt 0.763702 0.254567
vt 0.763702 0.000000
vt 0.254567 0.972131
vt 0.254567 0.921217
vt 0.509134 0.921217
vt 0.509134 0.972131
vt 0.254567 0.870304
vt 0.509134 0.870304
vt 0.254567 0.715972
vt 0.509134 0.715972
vt 0.762380 0.567138
vt 0.762380 0.412806
vt 0.762380 0.618052
vt 0.762380 0.668965
vt 0.696646 0.692763
vt 0.086599 0.336802
vt 0.086599 0.387715
vt 0.086599 0.285888
vt 0.086599 0.131556
vt 0.152332 0.105292
vt 0.152333 0.411513
vt 0.696646 0.386542
s 0
usemtl Material
f 21/1/1 5/2/1 7/3/1 16/4/1
f 36/5/2 16/6/2 7/7/2 26/8/2
f 26/9/3 7/3/3 5/2/3 28/10/3
f 9/11/4 2/12/4 4/13/4 20/14/4
f 25/15/5 1/16/5 3/17/5 27/18/5
f 32/19/6 24/20/6 1/21/6 25/22/6
f 28/23/6 5/24/6 21/25/6 29/26/6
f 29/26/6 21/25/6 22/27/6 30/28/6
f 30/28/6 22/27/6 23/29/6 31/30/6
f 31/30/6 23/29/6 24/20/6 32/19/6
f 6/31/7 12/32/7 17/33/7 8/34/7
f 12/35/8 11/36/8 18/37/8 17/38/8
f 11/39/8 10/40/8 19/41/8 18/42/8
f 10/40/8 9/43/8 20/44/8 19/41/8
f 27/45/2 3/46/2 13/47/2 33/48/2
f 33/48/2 13/47/2 14/49/2 34/50/2
f 34/50/2 14/49/2 15/51/2 35/52/2
f 35/52/2 15/51/2 16/6/2 36/5/2
f 1/16/9 24/53/9 13/54/9 3/17/9
f 24/55/10 23/56/10 14/57/10 13/58/10
f 23/56/10 22/59/10 15/60/10 14/57/10
f 22/59/10 21/61/10 16/62/10 15/60/10
f 18/63/2 35/52/2 36/5/2 17/64/2
f 19/65/2 34/50/2 35/52/2 18/63/2
f 20/66/2 33/48/2 34/50/2 19/65/2
f 4/67/2 27/45/2 33/48/2 20/66/2
f 10/68/6 31/30/6 32/19/6 9/69/6
f 11/70/6 30/28/6 31/30/6 10/68/6
f 12/71/6 29/26/6 30/28/6 11/70/6
f 6/72/6 28/23/6 29/26/6 12/71/6
f 9/69/6 32/19/6 25/22/6 2/73/6
f 2/12/11 25/15/11 27/18/11 4/13/11
f 8/34/12 26/9/12 28/10/12 6/31/12
f 17/64/2 36/5/2 26/8/2 8/74/2
o Cube.001
v -0.484850 0.379037 0.295364
v -0.375424 0.474771 0.295364
v -0.484850 0.379037 0.395364
v -0.375424 0.474771 0.395364
v 0.374301 -0.476677 0.295364
v 0.475169 -0.375807 0.295364
v 0.374301 -0.476677 0.395364
v 0.475169 -0.375807 0.395364
v -0.254543 0.463444 0.295364
v -0.113121 0.322024 0.295364
v 0.028302 0.180604 0.295364
v 0.456992 -0.248080 0.295364
v -0.466673 0.251309 0.395364
v -0.325251 0.109889 0.395364
v -0.183828 -0.031531 0.395364
v 0.244862 -0.460214 0.395364
v 0.456992 -0.248080 0.395364
v 0.028302 0.180604 0.395364
v -0.113121 0.322024 0.395364
v -0.254543 0.463443 0.395364
v 0.244862 -0.460214 0.295364
v -0.183828 -0.031531 0.295364
v -0.325251 0.109889 0.295364
v -0.466673 0.251309 0.295364
v -0.502031 0.498796 0.295364
v 0.492350 -0.495567 0.395364
v -0.502031 0.498796 0.395364
v 0.492350 -0.495567 0.295364
v 0.063660 -0.066884 0.295364
v -0.077763 0.074536 0.295364
v -0.219186 0.215956 0.295364
v -0.360608 0.357376 0.295364
v -0.360608 0.357376 0.395364
v -0.219186 0.215956 0.395364
v -0.077763 0.074536 0.395364
v 0.063660 -0.066884 0.395364
vn -0.1262 -0.9920 -0.0000
vn -0.0000 -0.0000 1.0000
vn -0.1580 -0.9874 -0.0000
vn 0.0933 0.9956 -0.0000
vn -0.9899 -0.1420 -0.0000
vn -0.0000 -0.0000 -1.0000
vn 0.9900 0.1409 -0.0000
vn 0.7071 0.7071 -0.0000
vn -0.9900 -0.1409 -0.0000
vn -0.7071 -0.7071 -0.0000
vn 0.1864 0.9825 -0.0000
vn 0.9899 0.1420 -0.0000
vt 0.763702 0.254567
vt 0.836395 0.254567
vt 0.836395 0.509134
vt 0.763702 0.509134
vt 0.635097 0.517614
vt 0.507812 0.414194
vt 0.575600 0.387931
vt 0.635096 0.363281
vt 0.900791 0.509134
vt 0.900791 0.254567
vt 0.745432 0.970539
vt 0.675563 0.970539
vt 0.675563 0.715972
vt 0.745432 0.715972
vt 0.608344 0.970539
vt 0.560380 0.970539
vt 0.560380 0.715972
vt 0.608344 0.715972
vt 0.213883 0.385197
vt 0.341166 0.385197
vt 0.275433 0.411461
vt 0.213883 0.436111
vt 0.213883 0.078125
vt 0.273379 0.102775
vt 0.341166 0.129038
vt 0.213882 0.232457
vt 0.341166 0.283370
vt 0.213882 0.283371
vt 0.341166 0.334283
vt 0.213883 0.334284
vt 0.948752 0.254567
vt 0.999995 0.254567
vt 0.999995 0.509134
vt 0.948752 0.509134
vt 0.509135 0.256159
vt 0.509135 0.101827
vt 0.763702 0.101827
vt 0.763702 0.256159
vt 0.509135 0.050913
vt 0.763702 0.050913
vt 0.509135 0.000000
vt 0.763702 -0.000000
vt 0.635096 0.721267
vt 0.573546 0.696617
vt 0.507812 0.670353
vt 0.635096 0.670354
vt 0.507813 0.619440
vt 0.635096 0.619440
vt 0.507813 0.568526
vt 0.635097 0.568527
vt 0.509134 0.970539
vt 0.509134 0.715972
vt 0.000000 0.972131
vt 0.000000 0.921218
vt 0.254567 0.921217
vt 0.254567 0.972131
vt -0.000000 0.870304
vt 0.254567 0.870304
vt 0.000000 0.715972
vt 0.254567 0.715972
vt 0.762380 0.568528
vt 0.762380 0.414195
vt 0.762380 0.619441
vt 0.762380 0.670354
vt 0.696646 0.694152
vt 0.086599 0.334285
vt 0.086599 0.385198
vt 0.086599 0.283371
vt 0.086599 0.129039
vt 0.152332 0.102775
vt 0.152333 0.408996
vt 0.696646 0.387931
s 0
usemtl Material
f 57/75/13 41/76/13 43/77/13 52/78/13
f 72/79/14 52/80/14 43/81/14 62/82/14
f 62/83/15 43/77/15 41/76/15 64/84/15
f 45/85/16 38/86/16 40/87/16 56/88/16
f 61/89/17 37/90/17 39/91/17 63/92/17
f 68/93/18 60/94/18 37/95/18 61/96/18
f 64/97/18 41/98/18 57/99/18 65/100/18
f 65/100/18 57/99/18 58/101/18 66/102/18
f 66/102/18 58/101/18 59/103/18 67/104/18
f 67/104/18 59/103/18 60/94/18 68/93/18
f 42/105/19 48/106/19 53/107/19 44/108/19
f 48/109/20 47/110/20 54/111/20 53/112/20
f 47/110/20 46/113/20 55/114/20 54/111/20
f 46/113/20 45/115/20 56/116/20 55/114/20
f 63/117/14 39/118/14 49/119/14 69/120/14
f 69/120/14 49/119/14 50/121/14 70/122/14
f 70/122/14 50/121/14 51/123/14 71/124/14
f 71/124/14 51/123/14 52/80/14 72/79/14
f 37/90/21 60/125/21 49/126/21 39/91/21
f 60/127/22 59/128/22 50/129/22 49/130/22
f 59/128/22 58/131/22 51/132/22 50/129/22
f 58/131/22 57/133/22 52/134/22 51/132/22
f 54/135/14 71/124/14 72/79/14 53/136/14
f 55/137/14 70/122/14 71/124/14 54/135/14
f 56/138/14 69/120/14 70/122/14 55/137/14
f 40/139/14 63/117/14 69/120/14 56/138/14
f 46/140/18 67/104/18 68/93/18 45/141/18
f 47/142/18 66/102/18 67/104/18 46/140/18
f 48/143/18 65/100/18 66/102/18 47/142/18
f 42/144/18 64/97/18 65/100/18 48/143/18
f 45/141/18 68/93/18 61/96/18 38/145/18
f 38/86/23 61/89/23 63/92/23 40/87/23
f 44/108/24 62/83/24 64/84/24 42/105/24
f 53/136/14 72/79/14 62/82/14 44/146/14
