# Blender 4.3.2
# www.blender.org
mtllib mystreets_barrier.mtl
o Cube
v 0.500000 0.499042 -0.040000
v 0.500000 0.299042 -0.040000
v 0.500000 0.499042 0.040000
v 0.500000 0.299042 0.040000
v -0.500000 0.499042 -0.040000
v -0.500000 0.299042 -0.040000
v -0.500000 0.499042 0.040000
v -0.500000 0.299042 0.040000
vn -0.0000 1.0000 -0.0000
vn -0.0000 -0.0000 1.0000
vn -1.0000 -0.0000 -0.0000
vn -0.0000 -1.0000 -0.0000
vn 1.0000 -0.0000 -0.0000
vn -0.0000 -0.0000 -1.0000
vt 0.498534 0.381389
vt 0.971549 0.377483
vt 0.971549 0.495029
vt 0.498534 0.498935
vt 0.975814 0.713420
vt 0.975814 0.823154
vt 0.506705 0.819248
vt 0.506705 0.709514
vt 0.725455 0.331326
vt 0.607909 0.331325
vt 0.607909 0.213779
vt 0.725455 0.213779
vt 0.502799 0.557529
vt 0.971908 0.553623
vt 0.971908 0.663357
vt 0.502799 0.667263
vt 0.918328 0.326135
vt 0.800781 0.326135
vt 0.800781 0.208589
vt 0.918328 0.208589
vt 0.975327 0.874604
vt 0.975327 0.988244
vt 0.502312 0.992151
vt 0.502312 0.878510
s 0
usemtl Material
f 1/1/1 5/2/1 7/3/1 3/4/1
f 4/5/2 3/6/2 7/7/2 8/8/2
f 8/9/3 7/10/3 5/11/3 6/12/3
f 6/13/4 2/14/4 4/15/4 8/16/4
f 2/17/5 1/18/5 3/19/5 4/20/5
f 6/21/6 5/22/6 1/23/6 2/24/6
o Cube.001
v 0.398823 0.499042 -0.120942
v 0.398823 0.299042 -0.120942
v 0.398823 0.499042 -0.040942
v 0.398823 0.299042 -0.040942
v 0.360782 0.499042 -0.120942
v 0.360782 0.299042 -0.120942
v 0.360782 0.499042 -0.040942
v 0.360782 0.299042 -0.040942
vn -0.0000 1.0000 -0.0000
vn -0.0000 -0.0000 1.0000
vn -1.0000 -0.0000 -0.0000
vn -0.0000 -1.0000 -0.0000
vn 1.0000 -0.0000 -0.0000
vn -0.0000 -0.0000 -1.0000
vt 0.255599 0.290979
vt 0.251128 0.290979
vt 0.251128 0.173432
vt 0.255599 0.173432
vt 0.260071 0.173432
vt 0.260071 0.290979
vt 0.219826 0.290979
vt 0.102280 0.290979
vt 0.102280 0.173432
vt 0.219826 0.173432
vt 0.264542 0.290979
vt 0.260071 0.290979
vt 0.260071 0.173432
vt 0.264542 0.173432
vt 0.233985 0.252842
vt 0.116439 0.252842
vt 0.116439 0.135295
vt 0.233985 0.135295
vt 0.264542 0.290979
vt 0.264542 0.173432
vt 0.269014 0.173432
vt 0.269014 0.290979
s 0
usemtl Material
f 9/25/7 13/26/7 15/27/7 11/28/7
f 12/25/8 11/28/8 15/29/8 16/30/8
f 16/31/9 15/32/9 13/33/9 14/34/9
f 14/35/10 10/36/10 12/37/10 16/38/10
f 10/39/11 9/40/11 11/41/11 12/42/11
f 14/43/12 13/44/12 9/45/12 10/46/12
o Cube.004
v 0.398823 0.499042 0.040942
v 0.398823 0.299042 0.040942
v 0.398823 0.499042 0.120942
v 0.398823 0.299042 0.120942
v 0.360782 0.499042 0.040942
v 0.360782 0.299042 0.040942
v 0.360782 0.499042 0.120942
v 0.360782 0.299042 0.120942
vn -0.0000 1.0000 -0.0000
vn -0.0000 -0.0000 1.0000
vn -1.0000 -0.0000 -0.0000
vn -0.0000 -1.0000 -0.0000
vn 1.0000 -0.0000 -0.0000
vn -0.0000 -0.0000 -1.0000
vt 0.275877 0.290979
vt 0.271406 0.290979
vt 0.271406 0.173432
vt 0.275877 0.173432
vt 0.102280 0.408525
vt 0.102280 0.290979
vt 0.106752 0.290979
vt 0.106752 0.408525
vt 0.233985 0.370388
vt 0.116439 0.370388
vt 0.116439 0.252842
vt 0.233985 0.252842
vt 0.111223 0.408525
vt 0.106752 0.408525
vt 0.106752 0.290979
vt 0.111223 0.290979
vt 0.166861 0.448872
vt 0.049315 0.448872
vt 0.049315 0.331325
vt 0.166861 0.331326
vt 0.111223 0.408525
vt 0.111223 0.290979
vt 0.115695 0.290979
vt 0.115695 0.408525
s 0
usemtl Material
f 17/47/13 21/48/13 23/49/13 19/50/13
f 20/51/14 19/52/14 23/53/14 24/54/14
f 24/55/15 23/56/15 21/57/15 22/58/15
f 22/59/16 18/60/16 20/61/16 24/62/16
f 18/63/17 17/64/17 19/65/17 20/66/17
f 22/67/18 21/68/18 17/69/18 18/70/18
o Cube.005
v 0.398823 0.304657 0.043320
v 0.398823 -0.496598 0.248616
v 0.398823 0.325363 0.120594
v 0.398823 -0.496598 0.328616
v 0.360782 0.304657 0.043320
v 0.360782 -0.496598 0.248616
v 0.360782 0.325363 0.120594
v 0.360782 -0.496598 0.328616
vn -0.0000 0.9659 -0.2588
vn -0.0000 0.2453 0.9694
vn -1.0000 -0.0000 -0.0000
vn -0.0000 -1.0000 -0.0000
vn 1.0000 -0.0000 -0.0000
vn -0.0000 -0.2482 -0.9687
vt 0.120166 0.408525
vt 0.115695 0.408525
vt 0.115695 0.290979
vt 0.120166 0.290979
vt 0.256196 0.568889
vt 0.256196 0.070312
vt 0.260667 0.070312
vt 0.260667 0.568889
vt 0.096765 0.553264
vt 0.096765 0.054687
vt 0.214240 0.058777
vt 0.210661 0.545052
vt 0.155939 0.290979
vt 0.160411 0.290979
vt 0.160411 0.405170
vt 0.155939 0.405170
vt 0.095863 0.513802
vt 0.092284 0.027527
vt 0.209759 0.023438
vt 0.209759 0.522014
vt 0.265139 0.556601
vt 0.265139 0.070312
vt 0.269610 0.070312
vt 0.269610 0.556601
s 0
usemtl Material
f 25/71/19 29/72/19 31/73/19 27/74/19
f 28/75/20 27/76/20 31/77/20 32/78/20
f 32/79/21 31/80/21 29/81/21 30/82/21
f 30/83/22 26/84/22 28/85/22 32/86/22
f 26/87/23 25/88/23 27/89/23 28/90/23
f 30/91/24 29/92/24 25/93/24 26/94/24
o Cube.008
v 0.360409 0.304657 -0.045063
v 0.360409 -0.496598 -0.250359
v 0.360409 0.325363 -0.122337
v 0.360409 -0.496598 -0.330359
v 0.398450 0.304657 -0.045063
v 0.398450 -0.496598 -0.250359
v 0.398450 0.325363 -0.122337
v 0.398450 -0.496598 -0.330359
vn -0.0000 0.9659 0.2588
vn -0.0000 0.2453 -0.9694
vn 1.0000 -0.0000 -0.0000
vn -0.0000 -1.0000 -0.0000
vn -1.0000 -0.0000 -0.0000
vn -0.0000 -0.2482 0.9687
vt 0.124638 0.408525
vt 0.120166 0.408525
vt 0.120166 0.290979
vt 0.124638 0.290979
vt 0.260667 0.568889
vt 0.260667 0.070312
vt 0.265139 0.070312
vt 0.265139 0.568889
vt 0.093147 0.584514
vt 0.093147 0.085937
vt 0.210622 0.090027
vt 0.207042 0.576302
vt 0.160411 0.290979
vt 0.164882 0.290979
vt 0.164882 0.405170
vt 0.160411 0.405170
vt 0.049276 0.521615
vt 0.045696 0.035340
vt 0.163171 0.031250
vt 0.163171 0.529827
vt 0.269610 0.556601
vt 0.269610 0.070312
vt 0.274082 0.070312
vt 0.274082 0.556601
s 0
usemtl Material
f 33/95/25 37/96/25 39/97/25 35/98/25
f 36/99/26 35/100/26 39/101/26 40/102/26
f 40/103/27 39/104/27 37/105/27 38/106/27
f 38/107/28 34/108/28 36/109/28 40/110/28
f 34/111/29 33/112/29 35/113/29 36/114/29
f 38/115/30 37/116/30 33/117/30 34/118/30
o Cube.009
v 0.397881 0.306167 -0.118641
v 0.397881 0.254103 -0.118641
v 0.397881 0.306167 0.116019
v 0.397881 0.254103 0.116019
v 0.359840 0.306167 -0.118641
v 0.359840 0.254103 -0.118641
v 0.359840 0.306167 0.116019
v 0.359840 0.254103 0.116019
vn -0.0000 1.0000 -0.0000
vn -0.0000 -0.0000 1.0000
vn -1.0000 -0.0000 -0.0000
vn -0.0000 -1.0000 -0.0000
vn 1.0000 -0.0000 -0.0000
vn -0.0000 -0.0000 -1.0000
vt 0.224298 0.518226
vt 0.219826 0.518226
vt 0.219826 0.173432
vt 0.224298 0.173432
vt 0.178297 0.321578
vt 0.178297 0.290979
vt 0.182769 0.290979
vt 0.182769 0.321578
vt 0.238545 0.487902
vt 0.207946 0.487902
vt 0.207946 0.143108
vt 0.238545 0.143108
vt 0.228770 0.518226
vt 0.228770 0.173432
vt 0.119477 0.399481
vt 0.088877 0.399481
vt 0.088877 0.054687
vt 0.119477 0.054687
vt 0.182769 0.321578
vt 0.182769 0.290979
vt 0.187240 0.290979
vt 0.187240 0.321578
s 0
usemtl Material
f 41/119/31 45/120/31 47/121/31 43/122/31
f 44/123/32 43/124/32 47/125/32 48/126/32
f 48/127/33 47/128/33 45/129/33 46/130/33
f 46/131/34 42/119/34 44/122/34 48/132/34
f 42/133/35 41/134/35 43/135/35 44/136/35
f 46/137/36 45/138/36 41/139/36 42/140/36
o Cube.010
v 0.397881 0.550486 -0.121331
v 0.397881 0.498422 -0.121331
v 0.397881 0.550486 0.118709
v 0.397881 0.498422 0.118709
v 0.359840 0.550486 -0.121331
v 0.359840 0.498422 -0.121331
v 0.359840 0.550486 0.118709
v 0.359840 0.498422 0.118709
vn -0.0000 1.0000 -0.0000
vn -0.0000 -0.0000 1.0000
vn -1.0000 -0.0000 -0.0000
vn -0.0000 -1.0000 -0.0000
vn 1.0000 -0.0000 -0.0000
vn -0.0000 -0.0000 -1.0000
vt 0.146306 0.407385
vt 0.141835 0.407385
vt 0.141835 0.054688
vt 0.146306 0.054688
vt 0.187240 0.321578
vt 0.187240 0.290979
vt 0.191712 0.290979
vt 0.191712 0.321578
vt 0.116147 0.495806
vt 0.085548 0.495806
vt 0.085548 0.143108
vt 0.116147 0.143108
vt 0.150213 0.471021
vt 0.145741 0.471021
vt 0.145741 0.118323
vt 0.150213 0.118323
vt 0.146747 0.495806
vt 0.116147 0.495806
vt 0.116147 0.143108
vt 0.146747 0.143108
vt 0.191712 0.321578
vt 0.191712 0.290979
vt 0.196183 0.290979
vt 0.196183 0.321578
s 0
usemtl Material
f 49/141/37 53/142/37 55/143/37 51/144/37
f 52/145/38 51/146/38 55/147/38 56/148/38
f 56/149/39 55/150/39 53/151/39 54/152/39
f 54/153/40 50/154/40 52/155/40 56/156/40
f 50/157/41 49/158/41 51/159/41 52/160/41
f 54/161/42 53/162/42 49/163/42 50/164/42
o Cube.011
v -0.361973 0.550486 -0.118641
v -0.361973 0.498422 -0.118641
v -0.361973 0.550486 0.120073
v -0.361973 0.498422 0.120073
v -0.400014 0.550486 -0.118641
v -0.400014 0.498422 -0.118641
v -0.400014 0.550486 0.120073
v -0.400014 0.498422 0.120073
v -0.362339 0.499042 -0.120942
v -0.362339 0.299042 -0.120942
v -0.362339 0.499042 -0.040942
v -0.362339 0.299042 -0.040942
v -0.400380 0.499042 -0.120942
v -0.400380 0.299042 -0.120942
v -0.400380 0.499042 -0.040942
v -0.400380 0.299042 -0.040942
v -0.401687 0.304657 -0.045063
v -0.401687 -0.496598 -0.250359
v -0.401687 0.325363 -0.122337
v -0.401687 -0.496598 -0.330359
v -0.363646 0.304657 -0.045063
v -0.363646 -0.496598 -0.250359
v -0.363646 0.325363 -0.122337
v -0.363646 -0.496598 -0.330359
v -0.362339 0.499042 0.040942
v -0.362339 0.299042 0.040942
v -0.362339 0.499042 0.120942
v -0.362339 0.299042 0.120942
v -0.400380 0.499042 0.040942
v -0.400380 0.299042 0.040942
v -0.400380 0.499042 0.120942
v -0.400380 0.299042 0.120942
v -0.363273 0.304657 0.043320
v -0.363273 -0.496598 0.248616
v -0.363273 0.325363 0.120594
v -0.363273 -0.496598 0.328616
v -0.401314 0.304657 0.043320
v -0.401314 -0.496598 0.248616
v -0.401314 0.325363 0.120594
v -0.401314 -0.496598 0.328616
v -0.361973 0.297201 -0.118641
v -0.361973 0.245137 -0.118641
v -0.361973 0.297201 0.116019
v -0.361973 0.245137 0.116019
v -0.400014 0.297201 -0.118641
v -0.400014 0.245137 -0.118641
v -0.400014 0.297201 0.116019
v -0.400014 0.245137 0.116019
vn -0.0000 1.0000 -0.0000
vn -0.0000 -0.0000 1.0000
vn -1.0000 -0.0000 -0.0000
vn -0.0000 -1.0000 -0.0000
vn 1.0000 -0.0000 -0.0000
vn -0.0000 -0.0000 -1.0000
vn -0.0000 0.9659 0.2588
vn -0.0000 0.2453 -0.9694
vn -0.0000 -0.2482 0.9687
vn -0.0000 0.9659 -0.2588
vn -0.0000 0.2453 0.9694
vn -0.0000 -0.2482 -0.9687
vt 0.150778 0.405437
vt 0.146306 0.405437
vt 0.146306 0.054688
vt 0.150778 0.054688
vt 0.196183 0.321578
vt 0.196183 0.290979
vt 0.200655 0.290979
vt 0.200655 0.321578
vt 0.177346 0.493857
vt 0.146747 0.493857
vt 0.146747 0.143108
vt 0.177346 0.143108
vt 0.154684 0.467123
vt 0.150213 0.467123
vt 0.150213 0.116374
vt 0.154684 0.116374
vt 0.207946 0.493857
vt 0.177346 0.493857
vt 0.177346 0.143108
vt 0.207946 0.143108
vt 0.200655 0.321390
vt 0.200655 0.290979
vt 0.205127 0.290979
vt 0.205127 0.321390
vt 0.129110 0.408525
vt 0.124638 0.408525
vt 0.124638 0.290979
vt 0.129110 0.290979
vt 0.138053 0.408525
vt 0.138053 0.290979
vt 0.142524 0.290979
vt 0.142524 0.408525
vt 0.046875 0.447587
vt 0.046875 0.330041
vt 0.164421 0.330041
vt 0.164421 0.447587
vt 0.133581 0.408525
vt 0.133581 0.290979
vt 0.164421 0.447587
vt 0.164421 0.330041
vt 0.281968 0.330041
vt 0.281968 0.447587
vt 0.146996 0.407802
vt 0.146996 0.290979
vt 0.151468 0.290979
vt 0.151468 0.407802
vt 0.164882 0.290979
vt 0.169354 0.290979
vt 0.169354 0.404520
vt 0.164882 0.404520
vt 0.219395 0.522873
vt 0.219395 0.076589
vt 0.223866 0.076589
vt 0.223866 0.522873
vt 0.030535 0.642182
vt 0.027344 0.070526
vt 0.129516 0.019531
vt 0.129516 0.578780
vt 0.237713 0.173432
vt 0.242184 0.173432
vt 0.242184 0.290978
vt 0.237713 0.290979
vt 0.036986 0.586593
vt 0.036986 0.027344
vt 0.139159 0.078338
vt 0.135968 0.649995
vt 0.214923 0.551211
vt 0.214923 0.080039
vt 0.219395 0.080039
vt 0.219395 0.551211
vt 0.246656 0.290979
vt 0.242184 0.290979
vt 0.242184 0.173432
vt 0.246656 0.173432
vt 0.133581 0.408525
vt 0.133581 0.290979
vt 0.138053 0.290979
vt 0.138053 0.408525
vt 0.284408 0.448872
vt 0.166861 0.448872
vt 0.166861 0.331325
vt 0.284408 0.331325
vt 0.251128 0.290979
vt 0.251128 0.173432
vt 0.233985 0.487934
vt 0.116439 0.487934
vt 0.116439 0.370388
vt 0.233985 0.370388
vt 0.155939 0.290979
vt 0.155939 0.407802
vt 0.173826 0.404520
vt 0.169354 0.404520
vt 0.169354 0.290979
vt 0.173826 0.290979
vt 0.274082 0.553151
vt 0.274082 0.070312
vt 0.278554 0.070312
vt 0.278554 0.553151
vt 0.132707 0.642182
vt 0.129516 0.070526
vt 0.231689 0.019531
vt 0.231689 0.578780
vt 0.146996 0.408525
vt 0.142524 0.408525
vt 0.142524 0.290979
vt 0.146996 0.290979
vt 0.141845 0.578780
vt 0.141845 0.019531
vt 0.244018 0.070526
vt 0.240826 0.642182
vt 0.206645 0.593750
vt 0.206645 0.092327
vt 0.211116 0.092327
vt 0.211116 0.593750
vt 0.233241 0.518226
vt 0.228770 0.518226
vt 0.228770 0.173432
vt 0.233241 0.173432
vt 0.173826 0.321578
vt 0.173826 0.290979
vt 0.178297 0.290979
vt 0.178297 0.321578
vt 0.269145 0.487901
vt 0.238545 0.487901
vt 0.238545 0.143108
vt 0.269145 0.143108
vt 0.237713 0.518226
vt 0.233241 0.518226
vt 0.233241 0.173432
vt 0.237713 0.173432
vt 0.088877 0.399481
vt 0.058278 0.399481
vt 0.058278 0.054688
vt 0.088877 0.054688
vt 0.209598 0.290979
vt 0.209598 0.321390
s 0
usemtl Material
f 57/165/43 61/166/43 63/167/43 59/168/43
f 60/169/44 59/170/44 63/171/44 64/172/44
f 64/173/45 63/174/45 61/175/45 62/176/45
f 62/177/46 58/178/46 60/179/46 64/180/46
f 58/181/47 57/182/47 59/183/47 60/184/47
f 62/185/48 61/186/48 57/187/48 58/188/48
f 65/189/43 69/190/43 71/191/43 67/192/43
f 68/193/44 67/194/44 71/195/44 72/196/44
f 72/197/45 71/198/45 69/199/45 70/200/45
f 70/201/46 66/189/46 68/192/46 72/202/46
f 66/203/47 65/204/47 67/205/47 68/206/47
f 70/207/48 69/208/48 65/209/48 66/210/48
f 73/211/49 77/212/49 79/213/49 75/214/49
f 76/215/50 75/216/50 79/217/50 80/218/50
f 80/219/47 79/220/47 77/221/47 78/222/47
f 78/223/46 74/224/46 76/225/46 80/226/46
f 74/227/45 73/228/45 75/229/45 76/230/45
f 78/231/51 77/232/51 73/233/51 74/234/51
f 81/235/43 85/236/43 87/237/43 83/238/43
f 84/239/44 83/240/44 87/241/44 88/242/44
f 88/243/45 87/244/45 85/245/45 86/246/45
f 86/247/46 82/235/46 84/238/46 88/248/46
f 82/249/47 81/250/47 83/251/47 84/252/47
f 86/210/48 85/209/48 81/253/48 82/254/48
f 89/255/52 93/256/52 95/257/52 91/258/52
f 92/259/53 91/260/53 95/261/53 96/262/53
f 96/263/45 95/264/45 93/265/45 94/266/45
f 94/267/46 90/268/46 92/269/46 96/270/46
f 90/271/47 89/272/47 91/273/47 92/274/47
f 94/275/54 93/276/54 89/277/54 90/278/54
f 97/279/43 101/280/43 103/281/43 99/282/43
f 100/283/44 99/284/44 103/285/44 104/286/44
f 104/287/45 103/288/45 101/289/45 102/290/45
f 102/291/46 98/292/46 100/293/46 104/294/46
f 98/295/47 97/296/47 99/297/47 100/298/47
f 102/188/48 101/187/48 97/299/48 98/300/48
