# Blender 4.3.2
# www.blender.org
mtllib mystreets_sign_yeild.mtl
o Cube
v 0.078395 -0.179434 0.456093
v -0.079019 -0.179384 0.456093
v 0.066388 -0.196202 0.456093
v 0.053023 -0.210044 0.456093
v 0.038573 -0.220679 0.456093
v 0.023333 -0.227890 0.456093
v 0.007612 -0.231530 0.456093
v -0.008269 -0.231525 0.456093
v -0.023988 -0.227875 0.456093
v -0.039224 -0.220654 0.456093
v -0.053666 -0.210010 0.456093
v -0.067022 -0.196160 0.456093
v -0.079019 -0.179384 0.496093
v 0.078395 -0.179434 0.496093
v -0.067022 -0.196160 0.496093
v -0.053666 -0.210011 0.496093
v -0.039224 -0.220654 0.496093
v -0.023988 -0.227875 0.496093
v -0.008269 -0.231525 0.496093
v 0.007612 -0.231530 0.496093
v 0.023333 -0.227890 0.496093
v 0.038573 -0.220679 0.496093
v 0.053023 -0.210044 0.496093
v 0.066388 -0.196202 0.496093
v 0.317370 0.500000 0.456093
v 0.403706 0.344819 0.456093
v 0.342380 0.498421 0.456093
v 0.364922 0.493714 0.456093
v 0.384535 0.485977 0.456093
v 0.400821 0.475366 0.456093
v 0.413447 0.462097 0.456093
v 0.422158 0.446441 0.456093
v 0.426774 0.428716 0.456093
v 0.427204 0.409283 0.456093
v 0.423437 0.388538 0.456093
v 0.415551 0.366903 0.456093
v 0.403706 0.344819 0.496093
v 0.317370 0.500000 0.496093
v 0.415551 0.366903 0.496093
v 0.423437 0.388538 0.496093
v 0.427204 0.409283 0.496093
v 0.426774 0.428716 0.496093
v 0.422158 0.446441 0.496093
v 0.413447 0.462097 0.496093
v 0.400821 0.475366 0.496093
v 0.384535 0.485977 0.496093
v 0.364922 0.493714 0.496093
v 0.342380 0.498421 0.496093
v -0.403022 0.343495 0.456093
v -0.315884 0.500000 0.456093
v -0.414949 0.365768 0.456093
v -0.422886 0.387587 0.456093
v -0.426670 0.408509 0.456093
v -0.426224 0.428108 0.456093
v -0.421559 0.445984 0.456093
v -0.412767 0.461773 0.456093
v -0.400030 0.475155 0.456093
v -0.383605 0.485857 0.456093
v -0.363827 0.493660 0.456093
v -0.341099 0.498407 0.456093
v -0.315884 0.500000 0.496093
v -0.403022 0.343495 0.496093
v -0.341099 0.498407 0.496093
v -0.363827 0.493660 0.496093
v -0.383605 0.485857 0.496093
v -0.400030 0.475155 0.496093
v -0.412767 0.461773 0.496093
v -0.421559 0.445984 0.496093
v -0.426224 0.428108 0.496093
v -0.426670 0.408509 0.496093
v -0.422886 0.387587 0.496093
v -0.414949 0.365768 0.496093
vn -0.0000 -0.0000 1.0000
vn 0.8497 -0.5273 -0.0000
vn 0.8130 -0.5822 -0.0000
vn 0.7194 -0.6946 -0.0000
vn 0.5928 -0.8054 -0.0000
vn 0.4277 -0.9039 -0.0000
vn 0.2256 -0.9742 -0.0000
vn -0.0003 -1.0000 -0.0000
vn -0.2262 -0.9741 -0.0000
vn -0.4283 -0.9037 -0.0000
vn -0.5933 -0.8050 -0.0000
vn -0.7199 -0.6941 -0.0000
vn -0.8134 -0.5817 -0.0000
vn -0.0000 -0.0000 -1.0000
vn 0.0630 0.9980 -0.0000
vn 0.2044 0.9789 -0.0000
vn 0.3670 0.9302 -0.0000
vn 0.5459 0.8378 -0.0000
vn 0.7244 0.6894 -0.0000
vn 0.8739 0.4862 -0.0000
vn 0.9677 0.2521 -0.0000
vn 0.9998 0.0221 -0.0000
vn 0.9839 -0.1786 -0.0000
vn 0.9395 -0.3425 -0.0000
vn 0.8812 -0.4727 -0.0000
vn -0.8500 -0.5267 -0.0000
vn -0.0631 0.9980 -0.0000
vn -0.2044 0.9789 -0.0000
vn -0.3670 0.9302 -0.0000
vn -0.5459 0.8378 -0.0000
vn -0.7243 0.6895 -0.0000
vn -0.8737 0.4865 -0.0000
vn -0.9676 0.2525 -0.0000
vn -0.9997 0.0227 -0.0000
vn -0.9840 -0.1780 -0.0000
vn -0.9398 -0.3418 -0.0000
vn -0.8816 -0.4721 -0.0000
vn -0.0000 1.0000 -0.0000
vt 0.369047 0.873388
vt 0.368332 0.884708
vt 0.366202 0.894910
vt 0.362701 0.903786
vt 0.357898 0.911157
vt 0.351893 0.916871
vt 0.344807 0.920813
vt 0.336786 0.922903
vt 0.327991 0.923097
vt 0.318602 0.921392
vt 0.308810 0.917823
vt 0.298815 0.912462
vt 0.055292 0.761351
vt 0.045976 0.754721
vt 0.038368 0.747472
vt 0.032625 0.739752
vt 0.028862 0.731717
vt 0.027157 0.723531
vt 0.027544 0.715361
vt 0.030016 0.707374
vt 0.034521 0.699731
vt 0.040969 0.692588
vt 0.049228 0.686091
vt 0.059129 0.680372
vt 0.308500 0.556610
vt 0.317117 0.553022
vt 0.325558 0.550882
vt 0.333652 0.550236
vt 0.341235 0.551095
vt 0.348150 0.553442
vt 0.354259 0.557230
vt 0.359436 0.562381
vt 0.363576 0.568791
vt 0.366595 0.576329
vt 0.368431 0.584841
vt 0.369047 0.594155
vt 0.287879 0.976017
vt 0.044734 0.976017
vt 0.044734 0.523438
vt 0.287879 0.523438
vt 0.400202 0.531250
vt 0.400202 0.983829
vt 0.388489 0.979923
vt 0.388489 0.527344
vt 0.381980 0.979923
vt 0.381980 0.527344
vt 0.346857 0.976017
vt 0.346857 0.523438
vt 0.353397 0.523438
vt 0.353397 0.976017
vt 0.360294 0.523438
vt 0.360294 0.976017
vt 0.367409 0.523438
vt 0.367409 0.976017
vt 0.374597 0.523438
vt 0.374597 0.976017
vt 0.381711 0.523438
vt 0.381711 0.976017
vt 0.388606 0.523438
vt 0.388606 0.976017
vt 0.395143 0.523438
vt 0.395143 0.976017
vt 0.046875 0.975471
vt 0.046875 0.522892
vt 0.053385 0.522892
vt 0.053385 0.975471
vt 0.061192 0.522892
vt 0.061192 0.975471
vt 0.085018 0.127049
vt 0.079599 0.116980
vt 0.075987 0.107112
vt 0.074254 0.097647
vt 0.074437 0.088777
vt 0.076532 0.080682
vt 0.080496 0.073528
vt 0.086248 0.067459
vt 0.093671 0.062600
vt 0.102615 0.059050
vt 0.112896 0.056880
vt 0.124307 0.056135
vt 0.410904 0.055536
vt 0.422225 0.056227
vt 0.432431 0.058336
vt 0.441315 0.061819
vt 0.448695 0.066606
vt 0.454422 0.072599
vt 0.458379 0.079676
vt 0.460485 0.087694
vt 0.460698 0.096488
vt 0.459013 0.105881
vt 0.455465 0.115680
vt 0.450125 0.125686
vt 0.303392 0.363259
vt 0.297974 0.370859
vt 0.291938 0.377137
vt 0.285409 0.381964
vt 0.278518 0.385242
vt 0.271407 0.386904
vt 0.264219 0.386916
vt 0.257102 0.385280
vt 0.250200 0.382026
vt 0.243653 0.377223
vt 0.237595 0.370967
vt 0.232150 0.363386
vt 0.344211 0.979923
vt 0.344211 0.527344
vt 0.355531 0.527344
vt 0.355531 0.979923
vt 0.365733 0.527344
vt 0.365733 0.979923
vt 0.374609 0.527344
vt 0.374609 0.979923
vt 0.381980 0.527344
vt 0.346857 0.976017
vt 0.341093 0.976017
vt 0.341093 0.523438
vt 0.334177 0.976017
vt 0.334177 0.523438
vt 0.326248 0.976017
vt 0.326248 0.523438
vt 0.317468 0.976017
vt 0.317469 0.523438
vt 0.308017 0.976017
vt 0.308017 0.523438
vt 0.298087 0.976017
vt 0.298087 0.523438
vt 0.303612 0.975471
vt 0.303612 0.522892
vt 0.057614 0.527344
vt 0.057614 0.979923
vt 0.046202 0.979923
vt 0.046202 0.527344
vt 0.035916 0.979923
vt 0.035916 0.527344
vt 0.026965 0.979923
vt 0.026965 0.527344
vt 0.019531 0.979923
vt 0.019531 0.527344
vt 0.363094 0.522892
vt 0.363094 0.975471
vt 0.357278 0.975471
vt 0.357278 0.522892
vt 0.350300 0.975471
vt 0.350300 0.522892
vt 0.342302 0.975471
vt 0.342302 0.522892
vt 0.333448 0.975471
vt 0.333448 0.522892
vt 0.323917 0.975471
vt 0.323917 0.522892
vt 0.313904 0.975471
vt 0.313904 0.522892
s 0
usemtl Material
f 37/1/1 39/2/1 40/3/1 41/4/1 42/5/1 43/6/1 44/7/1 45/8/1 46/9/1 47/10/1 48/11/1 38/12/1 61/13/1 63/14/1 64/15/1 65/16/1 66/17/1 67/18/1 68/19/1 69/20/1 70/21/1 71/22/1 72/23/1 62/24/1 13/25/1 15/26/1 16/27/1 17/28/1 18/29/1 19/30/1 20/31/1 21/32/1 22/33/1 23/34/1 24/35/1 14/36/1
f 37/37/2 14/38/2 1/39/2 26/40/2
f 1/41/3 14/42/3 24/43/3 3/44/3
f 3/44/4 24/43/4 23/45/4 4/46/4
f 4/47/5 23/48/5 22/49/5 5/50/5
f 5/50/6 22/49/6 21/51/6 6/52/6
f 6/52/7 21/51/7 20/53/7 7/54/7
f 7/54/8 20/53/8 19/55/8 8/56/8
f 8/56/9 19/55/9 18/57/9 9/58/9
f 9/58/10 18/57/10 17/59/10 10/60/10
f 10/60/11 17/59/11 16/61/11 11/62/11
f 11/63/12 16/64/12 15/65/12 12/66/12
f 12/66/13 15/65/13 13/67/13 2/68/13
f 49/69/14 51/70/14 52/71/14 53/72/14 54/73/14 55/74/14 56/75/14 57/76/14 58/77/14 59/78/14 60/79/14 50/80/14 25/81/14 27/82/14 28/83/14 29/84/14 30/85/14 31/86/14 32/87/14 33/88/14 34/89/14 35/90/14 36/91/14 26/92/14 1/93/14 3/94/14 4/95/14 5/96/14 6/97/14 7/98/14 8/99/14 9/100/14 10/101/14 11/102/14 12/103/14 2/104/14
f 25/105/15 38/106/15 48/107/15 27/108/15
f 27/108/16 48/107/16 47/109/16 28/110/16
f 28/110/17 47/109/17 46/111/17 29/112/17
f 29/112/18 46/111/18 45/113/18 30/45/18
f 30/48/19 45/114/19 44/115/19 31/116/19
f 31/116/20 44/115/20 43/117/20 32/118/20
f 32/118/21 43/117/21 42/119/21 33/120/21
f 33/120/22 42/119/22 41/121/22 34/122/22
f 34/122/23 41/121/23 40/123/23 35/124/23
f 35/124/24 40/123/24 39/125/24 36/126/24
f 36/126/25 39/125/25 37/37/25 26/40/25
f 49/127/26 2/68/26 13/67/26 62/128/26
f 61/129/27 50/130/27 60/131/27 63/132/27
f 63/132/28 60/131/28 59/133/28 64/134/28
f 64/134/29 59/133/29 58/135/29 65/136/29
f 65/136/30 58/135/30 57/137/30 66/138/30
f 66/139/31 57/140/31 56/141/31 67/142/31
f 67/142/32 56/141/32 55/143/32 68/144/32
f 68/144/33 55/143/33 54/145/33 69/146/33
f 69/146/34 54/145/34 53/147/34 70/148/34
f 70/148/35 53/147/35 52/149/35 71/150/35
f 71/150/36 52/149/36 51/151/36 72/152/36
f 72/152/37 51/151/37 49/127/37 62/128/37
f 25/105/38 50/130/38 61/129/38 38/106/38
