# Blender 4.3.2
# www.blender.org
mtllib mystreets_lightpost_l.mtl
o Cylinder
v 0.001784 0.100115 0.002053
v 0.001784 0.100115 -0.497680
v -0.017725 0.098193 0.002053
v -0.017725 0.098193 -0.497680
v -0.036485 0.092502 0.002053
v -0.036484 0.092502 -0.497680
v -0.053773 0.083261 0.002053
v -0.053773 0.083262 -0.497680
v -0.068927 0.070825 0.002053
v -0.068927 0.070825 -0.497680
v -0.081363 0.055672 0.002053
v -0.081363 0.055672 -0.497680
v -0.090604 0.038383 0.002053
v -0.090604 0.038383 -0.497680
v -0.096295 0.019624 0.002053
v -0.096295 0.019624 -0.497680
v -0.098216 0.000114 0.002053
v -0.098216 0.000115 -0.497680
v -0.096295 -0.019395 0.002053
v -0.096295 -0.019394 -0.497680
v -0.090604 -0.038154 0.002053
v -0.090604 -0.038154 -0.497680
v -0.081363 -0.055443 0.002053
v -0.081363 -0.055442 -0.497680
v -0.068927 -0.070596 0.002053
v -0.068927 -0.070596 -0.497680
v -0.053773 -0.083032 0.002053
v -0.053773 -0.083032 -0.497680
v -0.036484 -0.092273 0.002053
v -0.036484 -0.092273 -0.497680
v -0.017725 -0.097964 0.002053
v -0.017725 -0.097964 -0.497680
v 0.001784 -0.099886 0.002053
v 0.001784 -0.099885 -0.497680
v 0.021293 -0.097964 0.002053
v 0.021293 -0.097964 -0.497680
v 0.040052 -0.092273 0.002053
v 0.040052 -0.092273 -0.497680
v 0.057341 -0.083032 0.002053
v 0.057341 -0.083032 -0.497680
v 0.072495 -0.070596 0.002053
v 0.072495 -0.070596 -0.497680
v 0.084931 -0.055443 0.002053
v 0.084931 -0.055442 -0.497680
v 0.094172 -0.038154 0.002053
v 0.094172 -0.038154 -0.497680
v 0.099862 -0.019395 0.002053
v 0.099862 -0.019394 -0.497680
v 0.101784 0.000115 0.002053
v 0.101784 0.000115 -0.497680
v 0.099862 0.019624 0.002053
v 0.099862 0.019624 -0.497680
v 0.094172 0.038383 0.002053
v 0.094172 0.038383 -0.497680
v 0.084931 0.055672 0.002053
v 0.084931 0.055672 -0.497680
v 0.072495 0.070825 0.002053
v 0.072495 0.070825 -0.497680
v 0.057341 0.083261 0.002053
v 0.057341 0.083262 -0.497680
v 0.040052 0.092502 0.002053
v 0.040052 0.092503 -0.497680
v 0.021293 0.098193 0.002053
v 0.021293 0.098193 -0.497680
vn -0.0980 0.9952 -0.0000
vn -0.2903 0.9569 -0.0000
vn -0.4714 0.8819 -0.0000
vn -0.6344 0.7730 -0.0000
vn -0.7730 0.6344 -0.0000
vn -0.8819 0.4714 -0.0000
vn -0.9569 0.2903 -0.0000
vn -0.9952 0.0980 -0.0000
vn -0.9952 -0.0980 -0.0000
vn -0.9569 -0.2903 -0.0000
vn -0.8819 -0.4714 -0.0000
vn -0.7730 -0.6344 -0.0000
vn -0.6344 -0.7730 -0.0000
vn -0.4714 -0.8819 -0.0000
vn -0.2903 -0.9569 -0.0000
vn -0.0980 -0.9952 -0.0000
vn 0.0980 -0.9952 -0.0000
vn 0.2903 -0.9569 -0.0000
vn 0.4714 -0.8819 -0.0000
vn 0.6344 -0.7730 -0.0000
vn 0.7730 -0.6344 -0.0000
vn 0.8819 -0.4714 -0.0000
vn 0.9569 -0.2903 -0.0000
vn 0.9952 -0.0980 -0.0000
vn 0.9952 0.0980 -0.0000
vn 0.9569 0.2903 -0.0000
vn 0.8819 0.4714 -0.0000
vn 0.7730 0.6344 -0.0000
vn 0.6344 0.7730 -0.0000
vn 0.4714 0.8819 -0.0000
vn -0.0000 -0.0000 -1.0000
vn 0.2903 0.9569 -0.0000
vn 0.0980 0.9952 -0.0000
vn -0.0000 -0.0000 1.0000
vt 0.414214 0.415212
vt 0.414214 -0.000000
vt 0.443061 0.000000
vt 0.443061 0.415212
vt 0.476982 0.000000
vt 0.476982 0.415212
vt 0.514673 0.000000
vt 0.514673 0.415212
vt 0.554686 0.000000
vt 0.554686 0.415212
vt 0.595482 0.000000
vt 0.595482 0.415212
vt 0.635495 0.000000
vt 0.635495 0.415212
vt 0.673186 0.000000
vt 0.673186 0.415212
vt 0.707107 0.000000
vt 0.707107 0.415212
vt 0.735954 0.000000
vt 0.735954 0.415212
vt 0.735954 0.415212
vt 0.735954 0.000000
vt 0.769875 0.000000
vt 0.769875 0.415212
vt 0.807566 0.000000
vt 0.807566 0.415212
vt 0.847579 0.000000
vt 0.847579 0.415212
vt 0.888375 0.000000
vt 0.888375 0.415212
vt 0.928388 0.000000
vt 0.928388 0.415212
vt 0.966079 0.000000
vt 0.966079 0.415212
vt 1.000000 0.000000
vt 1.000000 0.415212
vt 0.707107 0.830424
vt 0.707107 0.415212
vt 0.735954 0.415212
vt 0.735954 0.830424
vt 0.769875 0.415212
vt 0.769875 0.830424
vt 0.807566 0.415212
vt 0.807566 0.830424
vt 0.847579 0.415212
vt 0.847579 0.830424
vt 0.888375 0.415212
vt 0.888375 0.830424
vt 0.928388 0.415212
vt 0.928388 0.830424
vt 0.966079 0.415212
vt 0.966079 0.830424
vt 1.000000 0.415212
vt 1.000000 0.830424
vt 0.414214 0.830424
vt 0.414214 0.415212
vt 0.443061 0.415212
vt 0.443061 0.830424
vt 0.476982 0.415212
vt 0.476982 0.830424
vt 0.514673 0.415212
vt 0.514673 0.830424
vt 0.554686 0.415212
vt 0.554686 0.830424
vt 0.595482 0.415212
vt 0.595482 0.830424
vt 0.635495 0.415212
vt 0.635495 0.830424
vt 0.367977 0.753343
vt 0.339130 0.782191
vt 0.305209 0.804856
vt 0.267518 0.820468
vt 0.227505 0.828427
vt 0.186709 0.828427
vt 0.146696 0.820468
vt 0.109005 0.804856
vt 0.075084 0.782191
vt 0.046236 0.753343
vt 0.023571 0.719422
vt 0.007959 0.681731
vt 0.000000 0.641719
vt -0.000000 0.600922
vt 0.007959 0.560909
vt 0.023571 0.523218
vt 0.046236 0.489297
vt 0.075084 0.460450
vt 0.109005 0.437785
vt 0.146696 0.422172
vt 0.186708 0.414214
vt 0.227505 0.414213
vt 0.267518 0.422172
vt 0.305209 0.437785
vt 0.339130 0.460450
vt 0.367977 0.489297
vt 0.390642 0.523218
vt 0.406254 0.560909
vt 0.414213 0.600922
vt 0.414213 0.641718
vt 0.406255 0.681731
vt 0.390642 0.719422
vt 0.673186 0.415212
vt 0.673186 0.830424
vt 0.707107 0.415212
vt 0.046236 0.339130
vt 0.023571 0.305209
vt 0.007959 0.267518
vt 0.000000 0.227505
vt 0.000000 0.186709
vt 0.007959 0.146696
vt 0.023571 0.109005
vt 0.046236 0.075084
vt 0.075084 0.046236
vt 0.109005 0.023571
vt 0.146696 0.007959
vt 0.186709 0.000000
vt 0.227505 0.000000
vt 0.267518 0.007959
vt 0.305209 0.023571
vt 0.339130 0.046236
vt 0.367977 0.075084
vt 0.390642 0.109005
vt 0.406255 0.146696
vt 0.414214 0.186709
vt 0.414214 0.227505
vt 0.406255 0.267518
vt 0.390642 0.305209
vt 0.367977 0.339130
vt 0.339130 0.367977
vt 0.305209 0.390642
vt 0.267518 0.406255
vt 0.227505 0.414214
vt 0.186709 0.414214
vt 0.146696 0.406255
vt 0.109005 0.390642
vt 0.075084 0.367977
s 0
f 1/1/1 2/2/1 4/3/1 3/4/1
f 3/4/2 4/3/2 6/5/2 5/6/2
f 5/6/3 6/5/3 8/7/3 7/8/3
f 7/8/4 8/7/4 10/9/4 9/10/4
f 9/10/5 10/9/5 12/11/5 11/12/5
f 11/12/6 12/11/6 14/13/6 13/14/6
f 13/14/7 14/13/7 16/15/7 15/16/7
f 15/16/8 16/15/8 18/17/8 17/18/8
f 17/18/9 18/17/9 20/19/9 19/20/9
f 19/21/10 20/22/10 22/23/10 21/24/10
f 21/24/11 22/23/11 24/25/11 23/26/11
f 23/26/12 24/25/12 26/27/12 25/28/12
f 25/28/13 26/27/13 28/29/13 27/30/13
f 27/30/14 28/29/14 30/31/14 29/32/14
f 29/32/15 30/31/15 32/33/15 31/34/15
f 31/34/16 32/33/16 34/35/16 33/36/16
f 33/37/17 34/38/17 36/39/17 35/40/17
f 35/40/18 36/39/18 38/41/18 37/42/18
f 37/42/19 38/41/19 40/43/19 39/44/19
f 39/44/20 40/43/20 42/45/20 41/46/20
f 41/46/21 42/45/21 44/47/21 43/48/21
f 43/48/22 44/47/22 46/49/22 45/50/22
f 45/50/23 46/49/23 48/51/23 47/52/23
f 47/52/24 48/51/24 50/53/24 49/54/24
f 49/55/25 50/56/25 52/57/25 51/58/25
f 51/58/26 52/57/26 54/59/26 53/60/26
f 53/60/27 54/59/27 56/61/27 55/62/27
f 55/62/28 56/61/28 58/63/28 57/64/28
f 57/64/29 58/63/29 60/65/29 59/66/29
f 59/66/30 60/65/30 62/67/30 61/68/30
f 4/69/31 2/70/31 64/71/31 62/72/31 60/73/31 58/74/31 56/75/31 54/76/31 52/77/31 50/78/31 48/79/31 46/80/31 44/81/31 42/82/31 40/83/31 38/84/31 36/85/31 34/86/31 32/87/31 30/88/31 28/89/31 26/90/31 24/91/31 22/92/31 20/93/31 18/94/31 16/95/31 14/96/31 12/97/31 10/98/31 8/99/31 6/100/31
f 61/68/32 62/67/32 64/101/32 63/102/32
f 63/102/33 64/101/33 2/103/33 1/37/33
f 1/104/34 3/105/34 5/106/34 7/107/34 9/108/34 11/109/34 13/110/34 15/111/34 17/112/34 19/113/34 21/114/34 23/115/34 25/116/34 27/117/34 29/118/34 31/119/34 33/120/34 35/121/34 37/122/34 39/123/34 41/124/34 43/125/34 45/126/34 47/127/34 49/128/34 51/129/34 53/130/34 55/131/34 57/132/34 59/133/34 61/134/34 63/135/34
o Cylinder.001
v 0.001784 -0.499885 0.099753
v 0.001784 -0.000152 0.099754
v -0.017725 -0.499885 0.097832
v -0.017725 -0.000152 0.097832
v -0.036484 -0.499885 0.092141
v -0.036485 -0.000152 0.092142
v -0.053773 -0.499885 0.082900
v -0.053773 -0.000152 0.082901
v -0.068927 -0.499885 0.070464
v -0.068927 -0.000152 0.070464
v -0.081363 -0.499885 0.055311
v -0.081363 -0.000152 0.055311
v -0.090604 -0.499885 0.038022
v -0.090604 -0.000152 0.038022
v -0.096295 -0.499885 0.019263
v -0.096295 -0.000152 0.019263
v -0.098216 -0.499885 -0.000247
v -0.098216 -0.000152 -0.000246
v -0.096295 -0.499885 -0.019756
v -0.096295 -0.000152 -0.019755
v -0.090604 -0.499885 -0.038515
v -0.090604 -0.000152 -0.038515
v -0.081363 -0.499885 -0.055804
v -0.081363 -0.000152 -0.055803
v -0.068927 -0.499885 -0.070957
v -0.068927 -0.000152 -0.070957
v -0.053773 -0.499885 -0.083393
v -0.053773 -0.000152 -0.083393
v -0.036484 -0.499885 -0.092634
v -0.036485 -0.000152 -0.092634
v -0.017725 -0.499885 -0.098325
v -0.017725 -0.000152 -0.098325
v 0.001784 -0.499885 -0.100247
v 0.001784 -0.000152 -0.100246
v 0.021293 -0.499885 -0.098325
v 0.021293 -0.000152 -0.098325
v 0.040052 -0.499885 -0.092634
v 0.040052 -0.000152 -0.092634
v 0.057341 -0.499885 -0.083393
v 0.057341 -0.000152 -0.083393
v 0.072495 -0.499885 -0.070957
v 0.072494 -0.000152 -0.070957
v 0.084931 -0.499885 -0.055804
v 0.084931 -0.000152 -0.055803
v 0.094172 -0.499885 -0.038515
v 0.094172 -0.000152 -0.038515
v 0.099862 -0.499885 -0.019756
v 0.099862 -0.000152 -0.019755
v 0.101784 -0.499885 -0.000247
v 0.101784 -0.000152 -0.000246
v 0.099862 -0.499885 0.019263
v 0.099862 -0.000152 0.019263
v 0.094172 -0.499885 0.038022
v 0.094172 -0.000152 0.038022
v 0.084931 -0.499885 0.055311
v 0.084931 -0.000152 0.055311
v 0.072495 -0.499885 0.070464
v 0.072494 -0.000152 0.070464
v 0.057341 -0.499885 0.082900
v 0.057341 -0.000152 0.082901
v 0.040052 -0.499885 0.092141
v 0.040052 -0.000152 0.092142
v 0.021293 -0.499885 0.097832
v 0.021293 -0.000152 0.097832
vn -0.0980 -0.0000 0.9952
vn -0.2903 -0.0000 0.9569
vn -0.4714 -0.0000 0.8819
vn -0.6344 -0.0000 0.7730
vn -0.7730 -0.0000 0.6344
vn -0.8819 -0.0000 0.4714
vn -0.9569 -0.0000 0.2903
vn -0.9952 -0.0000 0.0980
vn -0.9952 -0.0000 -0.0980
vn -0.9569 -0.0000 -0.2903
vn -0.8819 -0.0000 -0.4714
vn -0.7730 -0.0000 -0.6344
vn -0.6344 -0.0000 -0.7730
vn -0.4714 -0.0000 -0.8819
vn -0.2903 -0.0000 -0.9569
vn -0.0980 -0.0000 -0.9952
vn 0.0980 -0.0000 -0.9952
vn 0.2903 -0.0000 -0.9569
vn 0.4714 -0.0000 -0.8819
vn 0.6344 -0.0000 -0.7730
vn 0.7730 -0.0000 -0.6344
vn 0.8819 -0.0000 -0.4714
vn 0.9569 -0.0000 -0.2903
vn 0.9952 -0.0000 -0.0980
vn 0.9952 -0.0000 0.0980
vn 0.9569 -0.0000 0.2903
vn 0.8819 -0.0000 0.4714
vn 0.7730 -0.0000 0.6344
vn 0.6344 -0.0000 0.7730
vn 0.4714 -0.0000 0.8819
vn -0.0000 1.0000 -0.0000
vn 0.2903 -0.0000 0.9569
vn 0.0980 -0.0000 0.9952
vn -0.0000 -1.0000 -0.0000
vt 0.414214 0.415212
vt 0.414214 -0.000000
vt 0.443061 0.000000
vt 0.443061 0.415212
vt 0.476982 0.000000
vt 0.476982 0.415212
vt 0.514673 0.000000
vt 0.514673 0.415212
vt 0.554686 0.000000
vt 0.554686 0.415212
vt 0.595482 0.000000
vt 0.595482 0.415212
vt 0.635495 0.000000
vt 0.635495 0.415212
vt 0.673186 0.000000
vt 0.673186 0.415212
vt 0.707107 0.000000
vt 0.707107 0.415212
vt 0.735954 0.000000
vt 0.735954 0.415212
vt 0.735954 0.415212
vt 0.735954 0.000000
vt 0.769875 0.000000
vt 0.769875 0.415212
vt 0.807566 0.000000
vt 0.807566 0.415212
vt 0.847579 0.000000
vt 0.847579 0.415212
vt 0.888375 0.000000
vt 0.888375 0.415212
vt 0.928388 0.000000
vt 0.928388 0.415212
vt 0.966079 0.000000
vt 0.966079 0.415212
vt 1.000000 0.000000
vt 1.000000 0.415212
vt 0.707107 0.830424
vt 0.707107 0.415212
vt 0.735954 0.415212
vt 0.735954 0.830424
vt 0.769875 0.415212
vt 0.769875 0.830424
vt 0.807566 0.415212
vt 0.807566 0.830424
vt 0.847579 0.415212
vt 0.847579 0.830424
vt 0.888375 0.415212
vt 0.888375 0.830424
vt 0.928388 0.415212
vt 0.928388 0.830424
vt 0.966079 0.415212
vt 0.966079 0.830424
vt 1.000000 0.415212
vt 1.000000 0.830424
vt 0.414214 0.830424
vt 0.414214 0.415212
vt 0.443061 0.415212
vt 0.443061 0.830424
vt 0.476982 0.415212
vt 0.476982 0.830424
vt 0.514673 0.415212
vt 0.514673 0.830424
vt 0.554686 0.415212
vt 0.554686 0.830424
vt 0.595482 0.415212
vt 0.595482 0.830424
vt 0.635495 0.415212
vt 0.635495 0.830424
vt 0.367977 0.753343
vt 0.339130 0.782191
vt 0.305209 0.804856
vt 0.267518 0.820468
vt 0.227505 0.828427
vt 0.186709 0.828427
vt 0.146696 0.820468
vt 0.109005 0.804856
vt 0.075084 0.782191
vt 0.046236 0.753343
vt 0.023571 0.719422
vt 0.007959 0.681731
vt 0.000000 0.641719
vt -0.000000 0.600922
vt 0.007959 0.560909
vt 0.023571 0.523218
vt 0.046236 0.489297
vt 0.075084 0.460450
vt 0.109005 0.437785
vt 0.146696 0.422172
vt 0.186708 0.414214
vt 0.227505 0.414213
vt 0.267518 0.422172
vt 0.305209 0.437785
vt 0.339130 0.460450
vt 0.367977 0.489297
vt 0.390642 0.523218
vt 0.406254 0.560909
vt 0.414213 0.600922
vt 0.414213 0.641718
vt 0.406255 0.681731
vt 0.390642 0.719422
vt 0.673186 0.415212
vt 0.673186 0.830424
vt 0.707107 0.415212
vt 0.046236 0.339130
vt 0.023571 0.305209
vt 0.007959 0.267518
vt 0.000000 0.227505
vt 0.000000 0.186709
vt 0.007959 0.146696
vt 0.023571 0.109005
vt 0.046236 0.075084
vt 0.075084 0.046236
vt 0.109005 0.023571
vt 0.146696 0.007959
vt 0.186709 0.000000
vt 0.227505 0.000000
vt 0.267518 0.007959
vt 0.305209 0.023571
vt 0.339130 0.046236
vt 0.367977 0.075084
vt 0.390642 0.109005
vt 0.406255 0.146696
vt 0.414214 0.186709
vt 0.414214 0.227505
vt 0.406255 0.267518
vt 0.390642 0.305209
vt 0.367977 0.339130
vt 0.339130 0.367977
vt 0.305209 0.390642
vt 0.267518 0.406255
vt 0.227505 0.414214
vt 0.186709 0.414214
vt 0.146696 0.406255
vt 0.109005 0.390642
vt 0.075084 0.367977
s 0
f 65/136/35 66/137/35 68/138/35 67/139/35
f 67/139/36 68/138/36 70/140/36 69/141/36
f 69/141/37 70/140/37 72/142/37 71/143/37
f 71/143/38 72/142/38 74/144/38 73/145/38
f 73/145/39 74/144/39 76/146/39 75/147/39
f 75/147/40 76/146/40 78/148/40 77/149/40
f 77/149/41 78/148/41 80/150/41 79/151/41
f 79/151/42 80/150/42 82/152/42 81/153/42
f 81/153/43 82/152/43 84/154/43 83/155/43
f 83/156/44 84/157/44 86/158/44 85/159/44
f 85/159/45 86/158/45 88/160/45 87/161/45
f 87/161/46 88/160/46 90/162/46 89/163/46
f 89/163/47 90/162/47 92/164/47 91/165/47
f 91/165/48 92/164/48 94/166/48 93/167/48
f 93/167/49 94/166/49 96/168/49 95/169/49
f 95/169/50 96/168/50 98/170/50 97/171/50
f 97/172/51 98/173/51 100/174/51 99/175/51
f 99/175/52 100/174/52 102/176/52 101/177/52
f 101/177/53 102/176/53 104/178/53 103/179/53
f 103/179/54 104/178/54 106/180/54 105/181/54
f 105/181/55 106/180/55 108/182/55 107/183/55
f 107/183/56 108/182/56 110/184/56 109/185/56
f 109/185/57 110/184/57 112/186/57 111/187/57
f 111/187/58 112/186/58 114/188/58 113/189/58
f 113/190/59 114/191/59 116/192/59 115/193/59
f 115/193/60 116/192/60 118/194/60 117/195/60
f 117/195/61 118/194/61 120/196/61 119/197/61
f 119/197/62 120/196/62 122/198/62 121/199/62
f 121/199/63 122/198/63 124/200/63 123/201/63
f 123/201/64 124/200/64 126/202/64 125/203/64
f 68/204/65 66/205/65 128/206/65 126/207/65 124/208/65 122/209/65 120/210/65 118/211/65 116/212/65 114/213/65 112/214/65 110/215/65 108/216/65 106/217/65 104/218/65 102/219/65 100/220/65 98/221/65 96/222/65 94/223/65 92/224/65 90/225/65 88/226/65 86/227/65 84/228/65 82/229/65 80/230/65 78/231/65 76/232/65 74/233/65 72/234/65 70/235/65
f 125/203/66 126/202/66 128/236/66 127/237/66
f 127/237/67 128/236/67 66/238/67 65/172/67
f 65/239/68 67/240/68 69/241/68 71/242/68 73/243/68 75/244/68 77/245/68 79/246/68 81/247/68 83/248/68 85/249/68 87/250/68 89/251/68 91/252/68 93/253/68 95/254/68 97/255/68 99/256/68 101/257/68 103/258/68 105/259/68 107/260/68 109/261/68 111/262/68 113/263/68 115/264/68 117/265/68 119/266/68 121/267/68 123/268/68 125/269/68 127/270/68
o Sphere
v -0.081905 -0.000030 0.055303
v -0.054315 -0.000030 0.082893
v -0.018267 -0.000030 0.097825
v 0.001242 -0.000030 0.099746
v 0.020751 -0.000030 0.097825
v 0.056799 -0.000030 0.082893
v -0.096836 -0.003836 0.018880
v -0.091146 -0.007496 0.037279
v -0.081905 -0.010869 0.054235
v -0.069468 -0.013825 0.069098
v -0.054315 -0.016251 0.081295
v -0.037026 -0.018054 0.090359
v -0.018267 -0.019164 0.095940
v 0.001242 -0.019539 0.097825
v 0.020751 -0.019164 0.095940
v 0.039511 -0.018054 0.090359
v 0.056799 -0.016251 0.081295
v 0.071953 -0.013825 0.069098
v 0.084389 -0.010869 0.054236
v 0.093630 -0.007496 0.037279
v 0.099321 -0.003836 0.018880
v -0.096836 -0.007496 0.017770
v -0.091146 -0.014675 0.035101
v -0.081905 -0.021291 0.051074
v -0.069468 -0.027090 0.065074
v -0.054315 -0.031849 0.076564
v -0.037026 -0.035385 0.085101
v -0.018267 -0.037563 0.090359
v 0.001242 -0.038298 0.092134
v 0.020751 -0.037563 0.090359
v 0.039511 -0.035385 0.085101
v 0.056799 -0.031849 0.076564
v 0.071953 -0.027090 0.065074
v 0.084389 -0.021291 0.051074
v 0.093630 -0.014675 0.035101
v 0.099321 -0.007496 0.017770
v -0.096836 -0.010869 0.015967
v -0.091146 -0.021291 0.031565
v -0.081905 -0.030896 0.045940
v -0.069468 -0.039315 0.058540
v -0.054315 -0.046224 0.068880
v -0.037026 -0.051358 0.076564
v -0.018267 -0.054519 0.081295
v 0.001242 -0.055587 0.082893
v 0.020751 -0.054519 0.081295
v 0.039511 -0.051358 0.076564
v 0.056799 -0.046224 0.068880
v 0.071953 -0.039315 0.058540
v 0.084389 -0.030896 0.045940
v 0.093630 -0.021291 0.031565
v 0.099321 -0.010869 0.015967
v -0.096836 -0.013825 0.013541
v -0.091146 -0.027090 0.026806
v -0.081905 -0.039315 0.039031
v -0.069468 -0.050030 0.049746
v -0.054315 -0.058824 0.058540
v -0.037026 -0.065358 0.065074
v -0.018267 -0.069382 0.069098
v 0.001242 -0.070741 0.070457
v 0.020751 -0.069382 0.069098
v 0.039511 -0.065358 0.065074
v 0.056799 -0.058824 0.058540
v 0.071953 -0.050030 0.049746
v 0.084389 -0.039315 0.039031
v 0.093630 -0.027090 0.026806
v 0.099321 -0.013825 0.013541
v -0.096836 -0.016251 0.010585
v -0.091146 -0.031849 0.021007
v -0.081905 -0.046224 0.030612
v -0.069468 -0.058824 0.039031
v -0.054315 -0.069164 0.045940
v -0.037026 -0.076848 0.051074
v -0.018267 -0.081579 0.054235
v 0.001242 -0.083177 0.055303
v 0.020751 -0.081579 0.054236
v 0.039511 -0.076848 0.051074
v 0.056799 -0.069164 0.045940
v 0.071953 -0.058824 0.039031
v 0.084389 -0.046224 0.030612
v 0.093630 -0.031849 0.021007
v 0.099321 -0.016251 0.010585
v -0.098758 -0.000030 -0.000254
v -0.096836 -0.018054 0.007212
v -0.091146 -0.035385 0.014391
v -0.081905 -0.051358 0.021007
v -0.069468 -0.065358 0.026806
v -0.054315 -0.076848 0.031565
v -0.037026 -0.085385 0.035101
v -0.018267 -0.090643 0.037279
v 0.001242 -0.092418 0.038014
v 0.020751 -0.090643 0.037279
v 0.039511 -0.085385 0.035101
v 0.056799 -0.076848 0.031565
v 0.071953 -0.065358 0.026806
v 0.084389 -0.051358 0.021007
v 0.093630 -0.035385 0.014391
v 0.099321 -0.018054 0.007212
v -0.096836 -0.019164 0.003552
v -0.091146 -0.037563 0.007212
v -0.081905 -0.054519 0.010585
v -0.069468 -0.069382 0.013541
v -0.054315 -0.081579 0.015967
v -0.037026 -0.090643 0.017770
v -0.018267 -0.096224 0.018880
v 0.001242 -0.098108 0.019255
v 0.020751 -0.096224 0.018880
v 0.039511 -0.090643 0.017770
v 0.056799 -0.081579 0.015967
v 0.071953 -0.069382 0.013541
v 0.084389 -0.054519 0.010585
v 0.093630 -0.037563 0.007212
v 0.099321 -0.019164 0.003552
v -0.096836 -0.019539 -0.000254
v -0.091146 -0.038298 -0.000254
v -0.081905 -0.055587 -0.000254
v -0.069468 -0.070741 -0.000254
v -0.054315 -0.083177 -0.000254
v -0.037026 -0.092418 -0.000254
v -0.018267 -0.098108 -0.000254
v 0.001242 -0.100030 -0.000254
v 0.020751 -0.098108 -0.000254
v 0.039511 -0.092418 -0.000254
v 0.056799 -0.083177 -0.000254
v 0.071953 -0.070741 -0.000254
v 0.084389 -0.055587 -0.000254
v 0.093630 -0.038298 -0.000254
v 0.099321 -0.019539 -0.000254
v -0.096836 -0.019164 -0.004060
v -0.091146 -0.037563 -0.007720
v -0.081905 -0.054519 -0.011093
v -0.069468 -0.069382 -0.014049
v -0.054315 -0.081579 -0.016475
v -0.037026 -0.090643 -0.018278
v -0.018267 -0.096224 -0.019388
v 0.001242 -0.098108 -0.019763
v 0.020751 -0.096224 -0.019388
v 0.039511 -0.090643 -0.018278
v 0.056799 -0.081579 -0.016475
v 0.071953 -0.069382 -0.014049
v 0.084389 -0.054519 -0.011093
v 0.093630 -0.037563 -0.007720
v 0.099321 -0.019164 -0.004060
v -0.096836 -0.018054 -0.007720
v -0.091146 -0.035385 -0.014899
v -0.081905 -0.051358 -0.021515
v -0.069468 -0.065358 -0.027314
v -0.054315 -0.076848 -0.032073
v -0.037026 -0.085385 -0.035609
v -0.018267 -0.090643 -0.037787
v 0.001242 -0.092418 -0.038522
v 0.020751 -0.090643 -0.037787
v 0.039511 -0.085385 -0.035609
v 0.056799 -0.076848 -0.032073
v 0.071953 -0.065358 -0.027314
v 0.084389 -0.051358 -0.021515
v 0.093630 -0.035385 -0.014899
v 0.099321 -0.018054 -0.007720
v -0.096836 -0.016251 -0.011093
v -0.091146 -0.031849 -0.021515
v -0.081905 -0.046224 -0.031120
v -0.069468 -0.058824 -0.039539
v -0.054315 -0.069164 -0.046448
v -0.037026 -0.076848 -0.051582
v -0.018267 -0.081579 -0.054744
v 0.001242 -0.083177 -0.055811
v 0.020751 -0.081579 -0.054743
v 0.039511 -0.076848 -0.051582
v 0.056799 -0.069164 -0.046448
v 0.071953 -0.058824 -0.039539
v 0.084389 -0.046224 -0.031120
v 0.093630 -0.031849 -0.021515
v 0.099321 -0.016251 -0.011093
v -0.096836 -0.013825 -0.014049
v -0.091146 -0.027090 -0.027314
v -0.081905 -0.039315 -0.039539
v -0.069468 -0.050030 -0.050254
v -0.054315 -0.058824 -0.059048
v -0.037026 -0.065358 -0.065582
v -0.018267 -0.069382 -0.069606
v 0.001242 -0.070741 -0.070965
v 0.020751 -0.069382 -0.069606
v 0.039511 -0.065358 -0.065582
v 0.056799 -0.058824 -0.059048
v 0.071953 -0.050030 -0.050254
v 0.084389 -0.039315 -0.039539
v 0.093630 -0.027090 -0.027314
v 0.099321 -0.013825 -0.014049
v -0.096836 -0.010869 -0.016475
v -0.091146 -0.021291 -0.032073
v -0.081905 -0.030896 -0.046448
v -0.069468 -0.039315 -0.059048
v -0.054315 -0.046224 -0.069388
v -0.037026 -0.051358 -0.077072
v -0.018267 -0.054519 -0.081803
v 0.001242 -0.055587 -0.083401
v 0.020751 -0.054519 -0.081803
v 0.039511 -0.051358 -0.077072
v 0.056799 -0.046224 -0.069388
v 0.071953 -0.039315 -0.059048
v 0.084389 -0.030896 -0.046448
v 0.093630 -0.021291 -0.032073
v 0.099321 -0.010869 -0.016475
v -0.096836 -0.007496 -0.018278
v -0.091146 -0.014675 -0.035609
v -0.081905 -0.021291 -0.051582
v -0.069468 -0.027090 -0.065582
v -0.054315 -0.031849 -0.077072
v -0.037026 -0.035385 -0.085609
v -0.018267 -0.037563 -0.090867
v 0.001242 -0.038298 -0.092642
v 0.020751 -0.037563 -0.090867
v 0.039511 -0.035385 -0.085609
v 0.056799 -0.031849 -0.077072
v 0.071953 -0.027090 -0.065582
v 0.084389 -0.021291 -0.051582
v 0.093630 -0.014675 -0.035609
v 0.099321 -0.007496 -0.018278
v -0.096836 -0.003836 -0.019388
v -0.091146 -0.007496 -0.037787
v -0.081905 -0.010869 -0.054744
v -0.069468 -0.013825 -0.069606
v -0.054315 -0.016251 -0.081803
v -0.037026 -0.018054 -0.090867
v -0.018267 -0.019164 -0.096448
v 0.001242 -0.019539 -0.098332
v 0.020751 -0.019164 -0.096448
v 0.039511 -0.018054 -0.090867
v 0.056799 -0.016251 -0.081803
v 0.071953 -0.013825 -0.069606
v 0.084389 -0.010869 -0.054743
v 0.093630 -0.007496 -0.037787
v 0.099321 -0.003836 -0.019388
v -0.096836 -0.000030 -0.019763
v -0.091146 -0.000030 -0.038522
v -0.081905 -0.000030 -0.055811
v -0.069468 -0.000030 -0.070965
v -0.054315 -0.000030 -0.083401
v -0.037026 -0.000030 -0.092642
v -0.018267 -0.000030 -0.098332
v 0.001242 -0.000030 -0.100254
v 0.020751 -0.000030 -0.098332
v 0.039511 -0.000030 -0.092642
v 0.056799 -0.000030 -0.083401
v 0.071953 -0.000030 -0.070965
v 0.084389 -0.000030 -0.055811
v 0.093630 -0.000030 -0.038522
v 0.099321 -0.000030 -0.019763
v -0.096836 0.003776 -0.019388
v -0.091146 0.007436 -0.037787
v -0.081905 0.010809 -0.054744
v -0.069468 0.013765 -0.069606
v -0.054315 0.016191 -0.081803
v -0.037026 0.017994 -0.090867
v -0.018267 0.019104 -0.096448
v 0.001242 0.019479 -0.098332
v 0.020751 0.019104 -0.096448
v 0.039511 0.017994 -0.090867
v 0.056799 0.016191 -0.081803
v 0.071953 0.013765 -0.069606
v 0.084389 0.010809 -0.054743
v 0.093630 0.007436 -0.037787
v 0.099321 0.003776 -0.019388
v -0.096836 0.007436 -0.018278
v -0.091146 0.014615 -0.035609
v -0.081905 0.021231 -0.051582
v -0.069468 0.027030 -0.065582
v -0.054315 0.031789 -0.077072
v -0.037026 0.035325 -0.085609
v -0.018267 0.037503 -0.090867
v 0.001242 0.038238 -0.092642
v 0.020751 0.037503 -0.090867
v 0.039511 0.035325 -0.085609
v 0.056799 0.031789 -0.077072
v 0.071953 0.027030 -0.065582
v 0.084389 0.021231 -0.051582
v 0.093630 0.014615 -0.035609
v 0.099321 0.007436 -0.018278
v -0.096836 0.010809 -0.016475
v -0.091146 0.021231 -0.032073
v -0.081905 0.030836 -0.046448
v -0.069468 0.039255 -0.059048
v -0.054315 0.046164 -0.069388
v -0.037026 0.051298 -0.077072
v -0.018267 0.054460 -0.081803
v 0.001242 0.055527 -0.083401
v 0.020751 0.054460 -0.081803
v 0.039511 0.051298 -0.077072
v 0.056799 0.046164 -0.069388
v 0.071953 0.039255 -0.059048
v 0.084389 0.030836 -0.046448
v 0.093630 0.021231 -0.032073
v 0.099321 0.010809 -0.016475
v -0.096836 0.013765 -0.014049
v -0.091146 0.027030 -0.027314
v -0.081905 0.039255 -0.039539
v -0.069468 0.049970 -0.050254
v -0.054315 0.058764 -0.059048
v -0.037026 0.065298 -0.065582
v -0.018267 0.069322 -0.069606
v 0.001242 0.070681 -0.070965
v 0.020751 0.069322 -0.069606
v 0.039511 0.065298 -0.065582
v 0.056799 0.058764 -0.059048
v 0.071953 0.049970 -0.050254
v 0.084389 0.039255 -0.039539
v 0.093630 0.027030 -0.027314
v 0.099321 0.013765 -0.014049
v 0.101242 -0.000030 -0.000254
v -0.096836 0.016191 -0.011093
v -0.091146 0.031789 -0.021515
v -0.081905 0.046164 -0.031120
v -0.069468 0.058764 -0.039539
v -0.054315 0.069104 -0.046448
v -0.037026 0.076788 -0.051582
v -0.018267 0.081519 -0.054743
v 0.001242 0.083117 -0.055811
v 0.020751 0.081519 -0.054743
v 0.039511 0.076788 -0.051582
v 0.056799 0.069104 -0.046448
v 0.071953 0.058764 -0.039539
v 0.084389 0.046164 -0.031120
v 0.093630 0.031789 -0.021515
v 0.099321 0.016191 -0.011093
v -0.096836 0.017994 -0.007720
v -0.091146 0.035325 -0.014899
v -0.081905 0.051298 -0.021515
v -0.069468 0.065298 -0.027314
v -0.054315 0.076788 -0.032073
v -0.037026 0.085325 -0.035609
v -0.018267 0.090583 -0.037787
v 0.001242 0.092358 -0.038522
v 0.020751 0.090583 -0.037787
v 0.039511 0.085325 -0.035609
v 0.056799 0.076788 -0.032073
v 0.071953 0.065298 -0.027314
v 0.084389 0.051298 -0.021515
v 0.093630 0.035325 -0.014899
v 0.099321 0.017994 -0.007720
v -0.096836 0.019104 -0.004060
v -0.091146 0.037503 -0.007720
v -0.081905 0.054460 -0.011093
v -0.069468 0.069322 -0.014049
v -0.054315 0.081519 -0.016475
v -0.037026 0.090583 -0.018278
v -0.018267 0.096164 -0.019388
v 0.001242 0.098049 -0.019763
v 0.020751 0.096164 -0.019388
v 0.039511 0.090583 -0.018278
v 0.056799 0.081519 -0.016475
v 0.071953 0.069322 -0.014049
v 0.084389 0.054460 -0.011093
v 0.093630 0.037503 -0.007720
v 0.099321 0.019104 -0.004060
v -0.096836 0.019479 -0.000254
v -0.091146 0.038238 -0.000254
v -0.081905 0.055527 -0.000254
v -0.069468 0.070681 -0.000254
v -0.054315 0.083117 -0.000254
v -0.037026 0.092358 -0.000254
v -0.018267 0.098049 -0.000254
v 0.001242 0.099970 -0.000254
v 0.020751 0.098049 -0.000254
v 0.039511 0.092358 -0.000254
v 0.056799 0.083117 -0.000254
v 0.071953 0.070681 -0.000254
v 0.084389 0.055527 -0.000254
v 0.093630 0.038238 -0.000254
v 0.099321 0.019479 -0.000254
v -0.096836 0.019104 0.003552
v -0.091146 0.037503 0.007212
v -0.081905 0.054460 0.010585
v -0.069468 0.069322 0.013541
v -0.054315 0.081519 0.015967
v -0.037026 0.090583 0.017770
v -0.018267 0.096164 0.018880
v 0.001242 0.098048 0.019255
v 0.020751 0.096164 0.018880
v 0.039511 0.090583 0.017770
v 0.056799 0.081519 0.015967
v 0.071953 0.069322 0.013541
v 0.084389 0.054460 0.010585
v 0.093630 0.037503 0.007212
v 0.099321 0.019104 0.003552
v -0.096836 0.017994 0.007212
v -0.091146 0.035325 0.014391
v -0.081905 0.051298 0.021007
v -0.069468 0.065298 0.026806
v -0.054315 0.076788 0.031565
v -0.037026 0.085325 0.035101
v -0.018267 0.090583 0.037279
v 0.001242 0.092358 0.038014
v 0.020751 0.090583 0.037279
v 0.039511 0.085325 0.035101
v 0.056799 0.076788 0.031565
v 0.071953 0.065298 0.026806
v 0.084389 0.051298 0.021007
v 0.093630 0.035325 0.014391
v 0.099321 0.017994 0.007212
v -0.096836 0.016191 0.010585
v -0.091146 0.031789 0.021007
v -0.081905 0.046164 0.030612
v -0.069468 0.058764 0.039031
v -0.054315 0.069104 0.045940
v -0.037026 0.076788 0.051074
v -0.018267 0.081519 0.054236
v 0.001242 0.083117 0.055303
v 0.020751 0.081519 0.054236
v 0.039511 0.076788 0.051074
v 0.056799 0.069104 0.045940
v 0.071953 0.058764 0.039031
v 0.084389 0.046164 0.030612
v 0.093630 0.031789 0.021007
v 0.099321 0.016191 0.010585
v -0.096836 0.013765 0.013541
v -0.091146 0.027030 0.026806
v -0.081905 0.039255 0.039031
v -0.069468 0.049970 0.049746
v -0.054315 0.058764 0.058540
v -0.037026 0.065298 0.065074
v -0.018267 0.069322 0.069098
v 0.001242 0.070681 0.070457
v 0.020751 0.069322 0.069098
v 0.039511 0.065298 0.065074
v 0.056799 0.058764 0.058540
v 0.071953 0.049970 0.049746
v 0.084389 0.039255 0.039031
v 0.093630 0.027030 0.026806
v 0.099321 0.013765 0.013541
v -0.096836 0.010809 0.015967
v -0.091146 0.021231 0.031565
v -0.081905 0.030836 0.045940
v -0.069468 0.039255 0.058540
v -0.054315 0.046164 0.068880
v -0.037026 0.051298 0.076564
v -0.018267 0.054460 0.081295
v 0.001242 0.055527 0.082893
v 0.020751 0.054460 0.081295
v 0.039511 0.051298 0.076564
v 0.056799 0.046164 0.068880
v 0.071953 0.039255 0.058540
v 0.084389 0.030836 0.045940
v 0.093630 0.021231 0.031565
v 0.099321 0.010809 0.015967
v -0.096836 0.007436 0.017770
v -0.091146 0.014615 0.035101
v -0.081905 0.021231 0.051074
v -0.069468 0.027030 0.065074
v -0.054315 0.031789 0.076564
v -0.037026 0.035325 0.085101
v -0.018267 0.037503 0.090359
v 0.001242 0.038238 0.092134
v 0.020751 0.037503 0.090359
v 0.039511 0.035325 0.085101
v 0.056799 0.031789 0.076564
v 0.071953 0.027030 0.065074
v 0.084389 0.021231 0.051074
v 0.093630 0.014615 0.035101
v 0.099321 0.007436 0.017770
v -0.096836 0.003776 0.018880
v -0.091146 0.007436 0.037279
v -0.081905 0.010809 0.054235
v -0.069468 0.013765 0.069098
v -0.054315 0.016191 0.081295
v -0.037026 0.017994 0.090359
v -0.018267 0.019104 0.095940
v 0.001242 0.019479 0.097824
v 0.020751 0.019104 0.095940
v 0.039511 0.017994 0.090359
v 0.056799 0.016191 0.081295
v 0.071953 0.013765 0.069098
v 0.084389 0.010809 0.054236
v 0.093630 0.007436 0.037279
v 0.099321 0.003776 0.018880
v -0.096836 -0.000030 0.019255
v -0.091146 -0.000030 0.038014
v -0.069468 -0.000030 0.070457
v -0.037026 -0.000030 0.092134
v 0.039511 -0.000030 0.092134
v 0.071953 -0.000030 0.070457
v 0.084389 -0.000030 0.055303
v 0.093630 -0.000030 0.038014
v 0.099321 -0.000030 0.019255
vn 0.9565 -0.0286 0.2902
vn -0.0976 -0.0975 0.9904
vn -0.9951 -0.0097 0.0980
vn 0.9951 -0.0097 0.0980
vn 0.0975 -0.0975 0.9904
vn -0.9565 -0.0286 0.2902
vn 0.2890 -0.0938 0.9527
vn -0.8810 -0.0464 0.4709
vn 0.4696 -0.0865 0.8786
vn -0.7715 -0.0624 0.6332
vn 0.6326 -0.0759 0.7708
vn -0.6326 -0.0759 0.7708
vn 0.7715 -0.0624 0.6332
vn -0.4696 -0.0865 0.8786
vn 0.8810 -0.0464 0.4709
vn -0.2890 -0.0938 0.9527
vn -0.4696 -0.2563 0.8448
vn 0.8810 -0.1374 0.4528
vn -0.2890 -0.2779 0.9161
vn 0.9565 -0.0846 0.2790
vn -0.0976 -0.2889 0.9524
vn -0.9951 -0.0286 0.0942
vn 0.9951 -0.0286 0.0942
vn 0.0975 -0.2889 0.9524
vn -0.9565 -0.0846 0.2790
vn 0.2890 -0.2779 0.9161
vn -0.8810 -0.1374 0.4528
vn 0.4696 -0.2563 0.8448
vn -0.7715 -0.1847 0.6088
vn 0.6326 -0.2248 0.7412
vn -0.6326 -0.2248 0.7412
vn 0.7715 -0.1847 0.6088
vn 0.2890 -0.4513 0.8443
vn -0.8810 -0.2230 0.4173
vn 0.4696 -0.4162 0.7786
vn -0.7715 -0.2999 0.5611
vn 0.6326 -0.3651 0.6831
vn -0.6326 -0.3651 0.6831
vn 0.7715 -0.2999 0.5611
vn -0.4696 -0.4162 0.7786
vn 0.8810 -0.2230 0.4173
vn -0.2890 -0.4513 0.8443
vn 0.9565 -0.1374 0.2571
vn -0.0975 -0.4691 0.8777
vn -0.9951 -0.0464 0.0869
vn 0.9951 -0.0464 0.0869
vn 0.0975 -0.4691 0.8777
vn -0.9565 -0.1374 0.2571
vn 0.8810 -0.3002 0.3658
vn -0.2890 -0.6073 0.7400
vn 0.9565 -0.1850 0.2254
vn -0.0976 -0.6314 0.7693
vn -0.9951 -0.0625 0.0761
vn 0.9951 -0.0625 0.0761
vn 0.0975 -0.6314 0.7693
vn -0.9565 -0.1850 0.2254
vn 0.2890 -0.6073 0.7400
vn -0.8810 -0.3002 0.3658
vn 0.4696 -0.5601 0.6825
vn -0.7715 -0.4036 0.4918
vn 0.6326 -0.4913 0.5987
vn -0.6326 -0.4913 0.5987
vn 0.7715 -0.4036 0.4918
vn -0.4696 -0.5601 0.6825
vn 0.4696 -0.6825 0.5601
vn -0.7715 -0.4918 0.4036
vn 0.6326 -0.5987 0.4913
vn -0.6326 -0.5987 0.4913
vn 0.7715 -0.4918 0.4036
vn -0.4696 -0.6825 0.5601
vn 0.8810 -0.3658 0.3002
vn -0.2890 -0.7400 0.6073
vn 0.9565 -0.2254 0.1850
vn -0.0975 -0.7693 0.6314
vn -0.9951 -0.0761 0.0625
vn 0.9951 -0.0761 0.0625
vn 0.0975 -0.7693 0.6314
vn -0.9565 -0.2254 0.1850
vn 0.2890 -0.7400 0.6073
vn -0.8810 -0.3658 0.3002
vn 0.9565 -0.2571 0.1374
vn -0.0975 -0.8777 0.4691
vn -0.9951 -0.0869 0.0464
vn 0.9951 -0.0869 0.0464
vn 0.0975 -0.8777 0.4691
vn -0.9565 -0.2571 0.1374
vn 0.2890 -0.8443 0.4513
vn -0.8810 -0.4173 0.2230
vn 0.4696 -0.7786 0.4162
vn -0.7715 -0.5611 0.2999
vn 0.6326 -0.6831 0.3651
vn -0.6326 -0.6831 0.3651
vn 0.7715 -0.5611 0.2999
vn -0.4696 -0.7786 0.4162
vn 0.8810 -0.4173 0.2231
vn -0.2890 -0.8443 0.4513
vn -0.7715 -0.6088 0.1847
vn 0.6326 -0.7412 0.2248
vn -0.6326 -0.7412 0.2248
vn 0.7715 -0.6088 0.1847
vn -0.4696 -0.8448 0.2563
vn 0.8810 -0.4528 0.1374
vn -0.2890 -0.9161 0.2779
vn 0.9565 -0.2790 0.0846
vn -0.0975 -0.9524 0.2889
vn -0.9951 -0.0942 0.0286
vn 0.9951 -0.0942 0.0286
vn 0.0975 -0.9524 0.2889
vn -0.9565 -0.2790 0.0846
vn 0.2890 -0.9161 0.2779
vn -0.8810 -0.4528 0.1374
vn 0.4696 -0.8448 0.2563
vn -0.0975 -0.9904 0.0975
vn -0.9951 -0.0980 0.0097
vn 0.9951 -0.0980 0.0097
vn 0.0975 -0.9904 0.0975
vn -0.9565 -0.2902 0.0286
vn 0.2890 -0.9527 0.0938
vn -0.8810 -0.4709 0.0464
vn 0.4696 -0.8786 0.0865
vn -0.7715 -0.6332 0.0624
vn 0.6326 -0.7708 0.0759
vn -0.6326 -0.7708 0.0759
vn 0.7715 -0.6332 0.0624
vn -0.4696 -0.8786 0.0865
vn 0.8810 -0.4709 0.0464
vn -0.2890 -0.9527 0.0938
vn 0.9565 -0.2902 0.0286
vn 0.6326 -0.7708 -0.0759
vn -0.6326 -0.7708 -0.0759
vn 0.7715 -0.6332 -0.0624
vn -0.4696 -0.8786 -0.0865
vn 0.8810 -0.4709 -0.0464
vn -0.2890 -0.9527 -0.0938
vn 0.9565 -0.2902 -0.0286
vn -0.0975 -0.9904 -0.0976
vn -0.9951 -0.0980 -0.0097
vn 0.9951 -0.0980 -0.0097
vn 0.0975 -0.9904 -0.0976
vn -0.9565 -0.2902 -0.0286
vn 0.2890 -0.9527 -0.0938
vn -0.8810 -0.4709 -0.0464
vn 0.4696 -0.8786 -0.0865
vn -0.7715 -0.6332 -0.0624
vn -0.9951 -0.0942 -0.0286
vn 0.9951 -0.0942 -0.0286
vn 0.0975 -0.9524 -0.2889
vn -0.9565 -0.2790 -0.0846
vn 0.2890 -0.9161 -0.2779
vn -0.8810 -0.4528 -0.1374
vn 0.4696 -0.8448 -0.2563
vn -0.7715 -0.6088 -0.1847
vn 0.6326 -0.7412 -0.2248
vn -0.6326 -0.7412 -0.2248
vn 0.7715 -0.6088 -0.1847
vn -0.4696 -0.8448 -0.2563
vn 0.8810 -0.4528 -0.1374
vn -0.2890 -0.9161 -0.2779
vn 0.9565 -0.2790 -0.0846
vn -0.0975 -0.9524 -0.2889
vn -0.6326 -0.6831 -0.3651
vn 0.7715 -0.5611 -0.2999
vn -0.4696 -0.7786 -0.4162
vn 0.8810 -0.4173 -0.2230
vn -0.2890 -0.8443 -0.4513
vn 0.9565 -0.2571 -0.1374
vn -0.0975 -0.8777 -0.4691
vn -0.9951 -0.0869 -0.0464
vn 0.9951 -0.0869 -0.0464
vn 0.0975 -0.8777 -0.4691
vn -0.9565 -0.2571 -0.1374
vn 0.2890 -0.8443 -0.4513
vn -0.8810 -0.4173 -0.2231
vn 0.4696 -0.7786 -0.4162
vn -0.7715 -0.5611 -0.2999
vn 0.6326 -0.6831 -0.3651
vn 0.0975 -0.7693 -0.6314
vn -0.9565 -0.2254 -0.1850
vn 0.2890 -0.7400 -0.6073
vn -0.8810 -0.3658 -0.3002
vn 0.4696 -0.6825 -0.5601
vn -0.7715 -0.4918 -0.4036
vn 0.6326 -0.5987 -0.4913
vn -0.6326 -0.5987 -0.4913
vn 0.7715 -0.4918 -0.4036
vn -0.4696 -0.6825 -0.5601
vn 0.8810 -0.3658 -0.3002
vn -0.2890 -0.7400 -0.6073
vn 0.9565 -0.2254 -0.1850
vn -0.0975 -0.7693 -0.6314
vn -0.9951 -0.0761 -0.0625
vn 0.9951 -0.0761 -0.0625
vn 0.7715 -0.4036 -0.4918
vn -0.4696 -0.5601 -0.6825
vn 0.8810 -0.3002 -0.3658
vn -0.2890 -0.6073 -0.7400
vn 0.9565 -0.1850 -0.2254
vn -0.0975 -0.6314 -0.7693
vn -0.9951 -0.0625 -0.0761
vn 0.9951 -0.0625 -0.0761
vn 0.0975 -0.6314 -0.7693
vn -0.9565 -0.1850 -0.2254
vn 0.2890 -0.6073 -0.7400
vn -0.8810 -0.3002 -0.3658
vn 0.4696 -0.5601 -0.6825
vn -0.7715 -0.4036 -0.4918
vn 0.6326 -0.4913 -0.5987
vn -0.6326 -0.4913 -0.5987
vn 0.2890 -0.4513 -0.8443
vn -0.8810 -0.2230 -0.4173
vn 0.4696 -0.4162 -0.7786
vn -0.7715 -0.2999 -0.5611
vn 0.6326 -0.3651 -0.6831
vn -0.6326 -0.3651 -0.6831
vn 0.7715 -0.2999 -0.5611
vn -0.4696 -0.4162 -0.7786
vn 0.8810 -0.2230 -0.4173
vn -0.2890 -0.4513 -0.8443
vn 0.9565 -0.1374 -0.2571
vn -0.0975 -0.4691 -0.8777
vn -0.9951 -0.0464 -0.0869
vn 0.9951 -0.0464 -0.0869
vn 0.0975 -0.4691 -0.8777
vn -0.9565 -0.1374 -0.2571
vn 0.8810 -0.1374 -0.4528
vn -0.2890 -0.2779 -0.9161
vn 0.9565 -0.0846 -0.2790
vn -0.0975 -0.2889 -0.9524
vn -0.9951 -0.0286 -0.0942
vn 0.9951 -0.0286 -0.0942
vn 0.0975 -0.2889 -0.9524
vn -0.9565 -0.0846 -0.2790
vn 0.2890 -0.2779 -0.9161
vn -0.8810 -0.1374 -0.4528
vn 0.4696 -0.2563 -0.8448
vn -0.7715 -0.1847 -0.6088
vn 0.6326 -0.2248 -0.7412
vn -0.6326 -0.2248 -0.7412
vn 0.7715 -0.1847 -0.6088
vn -0.4696 -0.2563 -0.8448
vn -0.8810 -0.0464 -0.4709
vn 0.4696 -0.0865 -0.8786
vn -0.7715 -0.0624 -0.6332
vn 0.6326 -0.0759 -0.7708
vn -0.6326 -0.0759 -0.7708
vn 0.7715 -0.0624 -0.6332
vn -0.4696 -0.0865 -0.8786
vn 0.8810 -0.0464 -0.4709
vn -0.2890 -0.0938 -0.9527
vn 0.9565 -0.0286 -0.2902
vn -0.0975 -0.0975 -0.9904
vn -0.9951 -0.0097 -0.0980
vn 0.9951 -0.0097 -0.0980
vn 0.0975 -0.0975 -0.9904
vn -0.9565 -0.0286 -0.2902
vn 0.2890 -0.0938 -0.9527
vn -0.2890 0.0938 -0.9527
vn 0.9565 0.0286 -0.2902
vn -0.0975 0.0976 -0.9904
vn -0.9951 0.0097 -0.0980
vn 0.9951 0.0097 -0.0980
vn 0.0975 0.0976 -0.9904
vn -0.9565 0.0286 -0.2902
vn 0.2890 0.0938 -0.9527
vn -0.8810 0.0464 -0.4709
vn 0.4696 0.0865 -0.8786
vn -0.7715 0.0624 -0.6332
vn 0.6326 0.0759 -0.7708
vn -0.6326 0.0759 -0.7708
vn 0.7715 0.0624 -0.6332
vn -0.4696 0.0865 -0.8786
vn 0.8810 0.0464 -0.4709
vn 0.4696 0.2563 -0.8448
vn -0.7715 0.1847 -0.6088
vn 0.6326 0.2248 -0.7412
vn -0.6326 0.2248 -0.7412
vn 0.7715 0.1847 -0.6088
vn -0.4696 0.2563 -0.8448
vn 0.8810 0.1374 -0.4528
vn -0.2890 0.2779 -0.9161
vn 0.9565 0.0846 -0.2790
vn -0.0975 0.2889 -0.9524
vn -0.9951 0.0286 -0.0942
vn 0.9951 0.0286 -0.0942
vn 0.0975 0.2889 -0.9524
vn -0.9565 0.0846 -0.2790
vn 0.2890 0.2779 -0.9161
vn -0.8810 0.1374 -0.4528
vn 0.9565 0.1374 -0.2571
vn -0.0975 0.4691 -0.8777
vn -0.9951 0.0464 -0.0869
vn 0.9951 0.0464 -0.0869
vn 0.0975 0.4691 -0.8777
vn -0.9565 0.1374 -0.2571
vn 0.2890 0.4513 -0.8443
vn -0.8810 0.2230 -0.4173
vn 0.4696 0.4162 -0.7786
vn -0.7715 0.2999 -0.5611
vn 0.6326 0.3651 -0.6831
vn -0.6326 0.3651 -0.6831
vn 0.7715 0.2999 -0.5611
vn -0.4696 0.4162 -0.7786
vn 0.8810 0.2230 -0.4173
vn -0.2890 0.4513 -0.8443
vn -0.7715 0.4036 -0.4918
vn 0.6326 0.4913 -0.5987
vn -0.6326 0.4913 -0.5987
vn 0.7715 0.4036 -0.4918
vn -0.4696 0.5601 -0.6825
vn 0.8810 0.3002 -0.3658
vn -0.2890 0.6073 -0.7400
vn 0.9565 0.1850 -0.2254
vn -0.0975 0.6314 -0.7693
vn -0.9951 0.0625 -0.0761
vn 0.9951 0.0625 -0.0761
vn 0.0975 0.6314 -0.7693
vn -0.9565 0.1850 -0.2254
vn 0.2890 0.6073 -0.7400
vn -0.8810 0.3002 -0.3658
vn 0.4696 0.5601 -0.6825
vn -0.0975 0.7693 -0.6314
vn -0.9951 0.0761 -0.0625
vn 0.9951 0.0761 -0.0625
vn 0.0975 0.7693 -0.6314
vn -0.9565 0.2254 -0.1850
vn 0.2890 0.7400 -0.6073
vn -0.8810 0.3658 -0.3002
vn 0.4696 0.6825 -0.5601
vn -0.7715 0.4918 -0.4036
vn 0.6326 0.5987 -0.4913
vn -0.6326 0.5987 -0.4913
vn 0.7715 0.4918 -0.4036
vn -0.4696 0.6825 -0.5601
vn 0.8810 0.3658 -0.3002
vn -0.2890 0.7400 -0.6073
vn 0.9565 0.2254 -0.1850
vn 0.6326 0.6831 -0.3651
vn -0.6326 0.6831 -0.3651
vn 0.7715 0.5611 -0.2999
vn -0.4696 0.7786 -0.4162
vn 0.8810 0.4173 -0.2230
vn -0.2890 0.8443 -0.4513
vn 0.9565 0.2571 -0.1374
vn -0.0975 0.8777 -0.4691
vn -0.9951 0.0869 -0.0464
vn 0.9951 0.0869 -0.0464
vn 0.0975 0.8777 -0.4691
vn -0.9565 0.2571 -0.1374
vn 0.2890 0.8443 -0.4513
vn -0.8810 0.4173 -0.2231
vn 0.4696 0.7786 -0.4162
vn -0.7715 0.5611 -0.2999
vn 0.9951 0.0942 -0.0286
vn 0.0975 0.9524 -0.2889
vn -0.9565 0.2790 -0.0846
vn 0.2890 0.9161 -0.2779
vn -0.8810 0.4528 -0.1374
vn 0.4696 0.8448 -0.2563
vn -0.7715 0.6088 -0.1847
vn 0.6326 0.7412 -0.2248
vn -0.6326 0.7412 -0.2248
vn 0.7715 0.6088 -0.1847
vn -0.4696 0.8448 -0.2563
vn 0.8810 0.4528 -0.1374
vn -0.2890 0.9161 -0.2779
vn 0.9565 0.2790 -0.0846
vn -0.0975 0.9524 -0.2889
vn -0.9951 0.0942 -0.0286
vn 0.7715 0.6332 -0.0624
vn -0.4696 0.8786 -0.0865
vn 0.8810 0.4709 -0.0464
vn -0.2890 0.9527 -0.0938
vn 0.9565 0.2902 -0.0286
vn -0.0975 0.9904 -0.0975
vn -0.9951 0.0980 -0.0097
vn 0.9951 0.0980 -0.0097
vn 0.0975 0.9904 -0.0975
vn -0.9565 0.2902 -0.0286
vn 0.2890 0.9527 -0.0938
vn -0.8810 0.4709 -0.0464
vn 0.4696 0.8786 -0.0865
vn -0.7715 0.6332 -0.0624
vn 0.6326 0.7708 -0.0759
vn -0.6326 0.7708 -0.0759
vn -0.9565 0.2902 0.0286
vn 0.2890 0.9527 0.0938
vn -0.8810 0.4709 0.0464
vn 0.4696 0.8786 0.0865
vn -0.7715 0.6332 0.0624
vn 0.6326 0.7708 0.0759
vn -0.6326 0.7708 0.0759
vn 0.7715 0.6332 0.0624
vn -0.4696 0.8786 0.0865
vn 0.8810 0.4709 0.0464
vn -0.2890 0.9527 0.0938
vn 0.9565 0.2902 0.0286
vn -0.0975 0.9904 0.0976
vn -0.9951 0.0980 0.0097
vn 0.9951 0.0980 0.0097
vn 0.0975 0.9904 0.0976
vn -0.4696 0.8448 0.2563
vn 0.8810 0.4528 0.1374
vn -0.2890 0.9161 0.2779
vn 0.9565 0.2790 0.0846
vn -0.0975 0.9524 0.2889
vn -0.9951 0.0942 0.0286
vn 0.9951 0.0942 0.0286
vn 0.0975 0.9524 0.2889
vn -0.9565 0.2790 0.0846
vn 0.2890 0.9161 0.2779
vn -0.8810 0.4528 0.1374
vn 0.4696 0.8448 0.2563
vn -0.7715 0.6088 0.1847
vn 0.6326 0.7412 0.2248
vn -0.6326 0.7412 0.2248
vn 0.7715 0.6088 0.1847
vn 0.2890 0.8443 0.4513
vn -0.8810 0.4173 0.2230
vn 0.4696 0.7786 0.4162
vn -0.7715 0.5611 0.2999
vn 0.6326 0.6831 0.3651
vn -0.6326 0.6831 0.3651
vn 0.7715 0.5611 0.2999
vn -0.4696 0.7786 0.4162
vn 0.8810 0.4173 0.2231
vn -0.2890 0.8443 0.4513
vn 0.9565 0.2571 0.1374
vn -0.0975 0.8777 0.4691
vn -0.9951 0.0869 0.0464
vn 0.9951 0.0869 0.0464
vn 0.0975 0.8777 0.4691
vn -0.9565 0.2571 0.1374
vn 0.8810 0.3658 0.3002
vn -0.2890 0.7400 0.6073
vn 0.9565 0.2254 0.1850
vn -0.0975 0.7693 0.6314
vn -0.9951 0.0761 0.0625
vn 0.9951 0.0761 0.0625
vn 0.0975 0.7693 0.6314
vn -0.9565 0.2254 0.1850
vn 0.2890 0.7400 0.6073
vn -0.8810 0.3658 0.3002
vn 0.4696 0.6825 0.5601
vn -0.7715 0.4918 0.4036
vn 0.6326 0.5987 0.4913
vn -0.6326 0.5987 0.4913
vn 0.7715 0.4918 0.4036
vn -0.4696 0.6825 0.5601
vn -0.8810 0.3002 0.3658
vn 0.4696 0.5601 0.6825
vn -0.7715 0.4036 0.4918
vn 0.6326 0.4913 0.5987
vn -0.6326 0.4913 0.5987
vn 0.7715 0.4036 0.4918
vn -0.4696 0.5601 0.6825
vn 0.8810 0.3002 0.3658
vn -0.2890 0.6073 0.7400
vn 0.9565 0.1850 0.2254
vn -0.0975 0.6314 0.7693
vn -0.9951 0.0625 0.0761
vn 0.9951 0.0625 0.0761
vn 0.0975 0.6314 0.7693
vn -0.9565 0.1850 0.2254
vn 0.2890 0.6073 0.7400
vn -0.2890 0.4513 0.8443
vn 0.9565 0.1374 0.2571
vn -0.0975 0.4691 0.8777
vn -0.9951 0.0464 0.0869
vn 0.9951 0.0464 0.0869
vn 0.0975 0.4691 0.8777
vn -0.9565 0.1374 0.2571
vn 0.2890 0.4513 0.8443
vn -0.8810 0.2230 0.4173
vn 0.4696 0.4162 0.7786
vn -0.7715 0.2999 0.5611
vn 0.6326 0.3651 0.6831
vn -0.6326 0.3651 0.6831
vn 0.7715 0.2999 0.5611
vn -0.4696 0.4162 0.7786
vn 0.8810 0.2230 0.4173
vn 0.4696 0.2563 0.8448
vn -0.7715 0.1847 0.6088
vn 0.6326 0.2248 0.7412
vn -0.6326 0.2248 0.7412
vn 0.7715 0.1847 0.6088
vn -0.4696 0.2563 0.8448
vn 0.8810 0.1374 0.4528
vn -0.2890 0.2779 0.9161
vn 0.9565 0.0846 0.2790
vn -0.0975 0.2889 0.9524
vn -0.9951 0.0286 0.0942
vn 0.9951 0.0286 0.0942
vn 0.0975 0.2889 0.9524
vn -0.9565 0.0846 0.2790
vn 0.2890 0.2779 0.9161
vn -0.8810 0.1374 0.4528
vn 0.9565 0.0286 0.2902
vn -0.0975 0.0976 0.9904
vn -0.9951 0.0097 0.0980
vn 0.9951 0.0097 0.0980
vn 0.0975 0.0976 0.9904
vn -0.9565 0.0286 0.2902
vn 0.2890 0.0938 0.9527
vn -0.8810 0.0464 0.4709
vn 0.4696 0.0865 0.8786
vn -0.7715 0.0624 0.6332
vn 0.6326 0.0759 0.7708
vn -0.6326 0.0759 0.7708
vn 0.7715 0.0624 0.6332
vn -0.4696 0.0865 0.8786
vn 0.8810 0.0464 0.4709
vn -0.2890 0.0938 0.9527
vt 0.750000 0.062500
vt 0.750000 0.125000
vt 0.718750 0.125000
vt 0.718750 0.062500
vt 0.750000 0.500000
vt 0.750000 0.562500
vt 0.718750 0.562500
vt 0.718750 0.500000
vt 0.750000 0.937500
vt 0.734375 1.000000
vt 0.718750 0.937500
vt 0.734375 0.000000
vt 0.750000 0.437500
vt 0.718750 0.437500
vt 0.750000 0.875000
vt 0.718750 0.875000
vt 0.750000 0.375000
vt 0.718750 0.375000
vt 0.750000 0.812500
vt 0.718750 0.812500
vt 0.750000 0.312500
vt 0.718750 0.312500
vt 0.750000 0.750000
vt 0.718750 0.750000
vt 0.750000 0.250000
vt 0.718750 0.250000
vt 0.750000 0.687500
vt 0.718750 0.687500
vt 0.750000 0.187500
vt 0.718750 0.187500
vt 0.750000 0.625000
vt 0.718750 0.625000
vt 0.687500 0.687500
vt 0.687500 0.625000
vt 0.687500 0.187500
vt 0.687500 0.125000
vt 0.687500 0.562500
vt 0.687500 0.062500
vt 0.687500 0.500000
vt 0.703125 1.000000
vt 0.687500 0.937500
vt 0.703125 0.000000
vt 0.687500 0.437500
vt 0.687500 0.875000
vt 0.687500 0.375000
vt 0.687500 0.812500
vt 0.687500 0.312500
vt 0.687500 0.750000
vt 0.687500 0.250000
vt 0.656250 0.437500
vt 0.656250 0.375000
vt 0.656250 0.875000
vt 0.656250 0.812500
vt 0.656250 0.312500
vt 0.656250 0.750000
vt 0.656250 0.250000
vt 0.656250 0.687500
vt 0.656250 0.187500
vt 0.656250 0.625000
vt 0.656250 0.125000
vt 0.656250 0.562500
vt 0.656250 0.062500
vt 0.656250 0.500000
vt 0.671875 1.000000
vt 0.656250 0.937500
vt 0.671875 0.000000
vt 0.625000 0.187500
vt 0.625000 0.125000
vt 0.625000 0.625000
vt 0.625000 0.562500
vt 0.625000 0.062500
vt 0.625000 0.500000
vt 0.640625 1.000000
vt 0.625000 0.937500
vt 0.640625 0.000000
vt 0.625000 0.437500
vt 0.625000 0.875000
vt 0.625000 0.375000
vt 0.625000 0.812500
vt 0.625000 0.312500
vt 0.625000 0.750000
vt 0.625000 0.250000
vt 0.625000 0.687500
vt 0.593750 0.375000
vt 0.593750 0.312500
vt 0.593750 0.812500
vt 0.593750 0.750000
vt 0.593750 0.250000
vt 0.593750 0.687500
vt 0.593750 0.187500
vt 0.593750 0.625000
vt 0.593750 0.125000
vt 0.593750 0.562500
vt 0.593750 0.062500
vt 0.593750 0.500000
vt 0.609375 1.000000
vt 0.593750 0.937500
vt 0.609375 0.000000
vt 0.593750 0.437500
vt 0.593750 0.875000
vt 0.562500 0.125000
vt 0.562500 0.062500
vt 0.562500 0.562500
vt 0.562500 0.500000
vt 0.578125 1.000000
vt 0.562500 0.937500
vt 0.578125 0.000000
vt 0.562500 0.437500
vt 0.562500 0.875000
vt 0.562500 0.375000
vt 0.562500 0.812500
vt 0.562500 0.312500
vt 0.562500 0.750000
vt 0.562500 0.250000
vt 0.562500 0.687500
vt 0.562500 0.187500
vt 0.562500 0.625000
vt 0.531250 0.812500
vt 0.531250 0.750000
vt 0.531250 0.312500
vt 0.531250 0.250000
vt 0.531250 0.687500
vt 0.531250 0.187500
vt 0.531250 0.625000
vt 0.531250 0.125000
vt 0.531250 0.562500
vt 0.531250 0.062500
vt 0.531250 0.500000
vt 0.546875 1.000000
vt 0.531250 0.937500
vt 0.546875 0.000000
vt 0.531250 0.437500
vt 0.531250 0.875000
vt 0.531250 0.375000
vt 0.500000 0.562500
vt 0.500000 0.500000
vt 0.515625 1.000000
vt 0.500000 0.937500
vt 0.515625 0.000000
vt 0.500000 0.062500
vt 0.500000 0.437500
vt 0.500000 0.875000
vt 0.500000 0.375000
vt 0.500000 0.812500
vt 0.500000 0.312500
vt 0.500000 0.750000
vt 0.500000 0.250000
vt 0.500000 0.687500
vt 0.500000 0.187500
vt 0.500000 0.625000
vt 0.500000 0.125000
vt 0.468750 0.312500
vt 0.468750 0.250000
vt 0.468750 0.750000
vt 0.468750 0.687500
vt 0.468750 0.187500
vt 0.468750 0.625000
vt 0.468750 0.125000
vt 0.468750 0.562500
vt 0.468750 0.062500
vt 0.468750 0.500000
vt 0.484375 1.000000
vt 0.468750 0.937500
vt 0.484375 0.000000
vt 0.468750 0.437500
vt 0.468750 0.875000
vt 0.468750 0.375000
vt 0.468750 0.812500
vt 0.453125 1.000000
vt 0.437500 0.937500
vt 0.453125 0.000000
vt 0.437500 0.062500
vt 0.437500 0.500000
vt 0.437500 0.437500
vt 0.437500 0.875000
vt 0.437500 0.375000
vt 0.437500 0.812500
vt 0.437500 0.312500
vt 0.437500 0.750000
vt 0.437500 0.250000
vt 0.437500 0.687500
vt 0.437500 0.187500
vt 0.437500 0.625000
vt 0.437500 0.125000
vt 0.437500 0.562500
vt 0.406250 0.750000
vt 0.406250 0.687500
vt 0.406250 0.250000
vt 0.406250 0.187500
vt 0.406250 0.625000
vt 0.406250 0.125000
vt 0.406250 0.562500
vt 0.406250 0.062500
vt 0.406250 0.500000
vt 0.421875 1.000000
vt 0.406250 0.937500
vt 0.421875 0.000000
vt 0.406250 0.437500
vt 0.406250 0.875000
vt 0.406250 0.375000
vt 0.406250 0.812500
vt 0.406250 0.312500
vt 0.375000 0.500000
vt 0.375000 0.437500
vt 0.375000 0.937500
vt 0.375000 0.875000
vt 0.375000 0.375000
vt 0.375000 0.812500
vt 0.375000 0.312500
vt 0.375000 0.750000
vt 0.375000 0.250000
vt 0.375000 0.687500
vt 0.375000 0.187500
vt 0.375000 0.625000
vt 0.375000 0.125000
vt 0.375000 0.562500
vt 0.375000 0.062500
vt 0.390625 1.000000
vt 0.390625 0.000000
vt 0.343750 0.250000
vt 0.343750 0.187500
vt 0.343750 0.687500
vt 0.343750 0.625000
vt 0.343750 0.125000
vt 0.343750 0.562500
vt 0.343750 0.062500
vt 0.343750 0.500000
vt 0.359375 1.000000
vt 0.343750 0.937500
vt 0.359375 0.000000
vt 0.343750 0.437500
vt 0.343750 0.875000
vt 0.343750 0.375000
vt 0.343750 0.812500
vt 0.343750 0.312500
vt 0.343750 0.750000
vt 0.312500 0.437500
vt 0.312500 0.375000
vt 0.312500 0.875000
vt 0.312500 0.812500
vt 0.312500 0.312500
vt 0.312500 0.750000
vt 0.312500 0.250000
vt 0.312500 0.687500
vt 0.312500 0.187500
vt 0.312500 0.625000
vt 0.312500 0.125000
vt 0.312500 0.562500
vt 0.312500 0.062500
vt 0.312500 0.500000
vt 0.328125 1.000000
vt 0.312500 0.937500
vt 0.328125 0.000000
vt 0.281250 0.187500
vt 0.281250 0.125000
vt 0.281250 0.625000
vt 0.281250 0.562500
vt 0.281250 0.062500
vt 0.281250 0.500000
vt 0.296875 1.000000
vt 0.281250 0.937500
vt 0.296875 0.000000
vt 0.281250 0.437500
vt 0.281250 0.875000
vt 0.281250 0.375000
vt 0.281250 0.812500
vt 0.281250 0.312500
vt 0.281250 0.750000
vt 0.281250 0.250000
vt 0.281250 0.687500
vt 0.250000 0.875000
vt 0.250000 0.812500
vt 0.250000 0.375000
vt 0.250000 0.312500
vt 0.250000 0.750000
vt 0.250000 0.250000
vt 0.250000 0.687500
vt 0.250000 0.187500
vt 0.250000 0.625000
vt 0.250000 0.125000
vt 0.250000 0.562500
vt 0.250000 0.062500
vt 0.250000 0.500000
vt 0.265625 1.000000
vt 0.250000 0.937500
vt 0.265625 0.000000
vt 0.250000 0.437500
vt 0.218750 0.625000
vt 0.218750 0.562500
vt 0.218750 0.125000
vt 0.218750 0.062500
vt 0.218750 0.500000
vt 0.234375 1.000000
vt 0.218750 0.937500
vt 0.234375 0.000000
vt 0.218750 0.437500
vt 0.218750 0.875000
vt 0.218750 0.375000
vt 0.218750 0.812500
vt 0.218750 0.312500
vt 0.218750 0.750000
vt 0.218750 0.250000
vt 0.218750 0.687500
vt 0.218750 0.187500
vt 0.187500 0.375000
vt 0.187500 0.312500
vt 0.187500 0.812500
vt 0.187500 0.750000
vt 0.187500 0.250000
vt 0.187500 0.687500
vt 0.187500 0.187500
vt 0.187500 0.625000
vt 0.187500 0.125000
vt 0.187500 0.562500
vt 0.187500 0.062500
vt 0.187500 0.500000
vt 0.203125 1.000000
vt 0.187500 0.937500
vt 0.203125 0.000000
vt 0.187500 0.437500
vt 0.187500 0.875000
vt 0.156250 0.125000
vt 0.156250 0.062500
vt 0.156250 0.562500
vt 0.156250 0.500000
vt 0.171875 1.000000
vt 0.156250 0.937500
vt 0.171875 0.000000
vt 0.156250 0.437500
vt 0.156250 0.875000
vt 0.156250 0.375000
vt 0.156250 0.812500
vt 0.156250 0.312500
vt 0.156250 0.750000
vt 0.156250 0.250000
vt 0.156250 0.687500
vt 0.156250 0.187500
vt 0.156250 0.625000
vt 0.125000 0.812500
vt 0.125000 0.750000
vt 0.125000 0.312500
vt 0.125000 0.250000
vt 0.125000 0.687500
vt 0.125000 0.187500
vt 0.125000 0.625000
vt 0.125000 0.125000
vt 0.125000 0.562500
vt 0.125000 0.062500
vt 0.125000 0.500000
vt 0.140625 1.000000
vt 0.125000 0.937500
vt 0.140625 0.000000
vt 0.125000 0.437500
vt 0.125000 0.875000
vt 0.125000 0.375000
vt 0.093750 0.562500
vt 0.093750 0.500000
vt 0.109375 1.000000
vt 0.093750 0.937500
vt 0.109375 0.000000
vt 0.093750 0.062500
vt 0.093750 0.437500
vt 0.093750 0.875000
vt 0.093750 0.375000
vt 0.093750 0.812500
vt 0.093750 0.312500
vt 0.093750 0.750000
vt 0.093750 0.250000
vt 0.093750 0.687500
vt 0.093750 0.187500
vt 0.093750 0.625000
vt 0.093750 0.125000
vt 0.062500 0.312500
vt 0.062500 0.250000
vt 0.062500 0.750000
vt 0.062500 0.687500
vt 0.062500 0.187500
vt 0.062500 0.625000
vt 0.062500 0.125000
vt 0.062500 0.562500
vt 0.062500 0.062500
vt 0.062500 0.500000
vt 0.078125 1.000000
vt 0.062500 0.937500
vt 0.078125 0.000000
vt 0.062500 0.437500
vt 0.062500 0.875000
vt 0.062500 0.375000
vt 0.062500 0.812500
vt 0.046875 0.000000
vt 0.031250 0.062500
vt 0.031250 0.500000
vt 0.031250 0.437500
vt 0.031250 0.937500
vt 0.031250 0.875000
vt 0.031250 0.375000
vt 0.031250 0.812500
vt 0.031250 0.312500
vt 0.031250 0.750000
vt 0.031250 0.250000
vt 0.031250 0.687500
vt 0.031250 0.187500
vt 0.031250 0.625000
vt 0.031250 0.125000
vt 0.031250 0.562500
vt 0.046875 1.000000
vt 0.000000 0.250000
vt 0.000000 0.187500
vt 0.000000 0.687500
vt 0.000000 0.625000
vt 0.000000 0.125000
vt 0.000000 0.562500
vt 0.000000 0.062500
vt 0.000000 0.500000
vt 0.015625 1.000000
vt 0.000000 0.937500
vt 0.015625 0.000000
vt 0.000000 0.437500
vt 0.000000 0.875000
vt 0.000000 0.375000
vt 0.000000 0.812500
vt 0.000000 0.312500
vt 0.000000 0.750000
vt 1.000000 0.875000
vt 1.000000 0.937500
vt 0.968750 0.937500
vt 0.968750 0.875000
vt 1.000000 0.375000
vt 1.000000 0.437500
vt 0.968750 0.437500
vt 0.968750 0.375000
vt 1.000000 0.812500
vt 0.968750 0.812500
vt 1.000000 0.312500
vt 0.968750 0.312500
vt 1.000000 0.750000
vt 0.968750 0.750000
vt 1.000000 0.250000
vt 0.968750 0.250000
vt 1.000000 0.687500
vt 0.968750 0.687500
vt 1.000000 0.187500
vt 0.968750 0.187500
vt 1.000000 0.625000
vt 0.968750 0.625000
vt 1.000000 0.125000
vt 0.968750 0.125000
vt 1.000000 0.562500
vt 0.968750 0.562500
vt 1.000000 0.062500
vt 0.968750 0.062500
vt 1.000000 0.500000
vt 0.968750 0.500000
vt 0.984375 1.000000
vt 0.984375 0.000000
vt 0.937500 0.687500
vt 0.937500 0.625000
vt 0.937500 0.187500
vt 0.937500 0.125000
vt 0.937500 0.562500
vt 0.937500 0.062500
vt 0.937500 0.500000
vt 0.953125 1.000000
vt 0.937500 0.937500
vt 0.953125 0.000000
vt 0.937500 0.437500
vt 0.937500 0.875000
vt 0.937500 0.375000
vt 0.937500 0.812500
vt 0.937500 0.312500
vt 0.937500 0.750000
vt 0.937500 0.250000
vt 0.906250 0.437500
vt 0.906250 0.375000
vt 0.906250 0.875000
vt 0.906250 0.812500
vt 0.906250 0.312500
vt 0.906250 0.750000
vt 0.906250 0.250000
vt 0.906250 0.687500
vt 0.906250 0.187500
vt 0.906250 0.625000
vt 0.906250 0.125000
vt 0.906250 0.562500
vt 0.906250 0.062500
vt 0.906250 0.500000
vt 0.921875 1.000000
vt 0.906250 0.937500
vt 0.921875 0.000000
vt 0.875000 0.187500
vt 0.875000 0.125000
vt 0.875000 0.625000
vt 0.875000 0.562500
vt 0.875000 0.062500
vt 0.875000 0.500000
vt 0.890625 1.000000
vt 0.875000 0.937500
vt 0.890625 0.000000
vt 0.875000 0.437500
vt 0.875000 0.875000
vt 0.875000 0.375000
vt 0.875000 0.812500
vt 0.875000 0.312500
vt 0.875000 0.750000
vt 0.875000 0.250000
vt 0.875000 0.687500
vt 0.843750 0.875000
vt 0.843750 0.812500
vt 0.843750 0.375000
vt 0.843750 0.312500
vt 0.843750 0.750000
vt 0.843750 0.250000
vt 0.843750 0.687500
vt 0.843750 0.187500
vt 0.843750 0.625000
vt 0.843750 0.125000
vt 0.843750 0.562500
vt 0.843750 0.062500
vt 0.843750 0.500000
vt 0.859375 1.000000
vt 0.843750 0.937500
vt 0.859375 0.000000
vt 0.843750 0.437500
vt 0.812500 0.625000
vt 0.812500 0.562500
vt 0.812500 0.125000
vt 0.812500 0.062500
vt 0.812500 0.500000
vt 0.828125 1.000000
vt 0.812500 0.937500
vt 0.828125 0.000000
vt 0.812500 0.437500
vt 0.812500 0.875000
vt 0.812500 0.375000
vt 0.812500 0.812500
vt 0.812500 0.312500
vt 0.812500 0.750000
vt 0.812500 0.250000
vt 0.812500 0.687500
vt 0.812500 0.187500
vt 0.781250 0.375000
vt 0.781250 0.312500
vt 0.781250 0.812500
vt 0.781250 0.750000
vt 0.781250 0.250000
vt 0.781250 0.687500
vt 0.781250 0.187500
vt 0.781250 0.625000
vt 0.781250 0.125000
vt 0.781250 0.562500
vt 0.781250 0.062500
vt 0.781250 0.500000
vt 0.796875 1.000000
vt 0.781250 0.937500
vt 0.796875 0.000000
vt 0.781250 0.437500
vt 0.781250 0.875000
vt 0.765625 1.000000
vt 0.765625 0.000000
s 0
f 610/271/69 609/272/69 148/273/69 149/274/69
f 132/275/70 131/276/70 141/277/70 142/278/70
f 602/279/71 210/280/71 135/281/71
f 436/282/72 610/271/72 149/274/72
f 133/283/73 132/275/73 142/278/73 143/284/73
f 603/285/74 602/279/74 135/281/74 136/286/74
f 606/287/75 133/283/75 143/284/75 144/288/75
f 129/289/76 603/285/76 136/286/76 137/290/76
f 134/291/77 606/287/77 144/288/77 145/292/77
f 604/293/78 129/289/78 137/290/78 138/294/78
f 607/295/79 134/291/79 145/292/79 146/296/79
f 130/297/80 604/293/80 138/294/80 139/298/80
f 608/299/81 607/295/81 146/296/81 147/300/81
f 605/301/82 130/297/82 139/298/82 140/302/82
f 609/272/83 608/299/83 147/300/83 148/273/83
f 131/276/84 605/301/84 140/302/84 141/277/84
f 140/302/85 139/298/85 154/303/85 155/304/85
f 148/273/86 147/300/86 162/305/86 163/306/86
f 141/277/87 140/302/87 155/304/87 156/307/87
f 149/274/88 148/273/88 163/306/88 164/308/88
f 142/278/89 141/277/89 156/307/89 157/309/89
f 135/281/90 210/310/90 150/311/90
f 436/312/91 149/274/91 164/308/91
f 143/284/92 142/278/92 157/309/92 158/313/92
f 136/286/93 135/281/93 150/311/93 151/314/93
f 144/288/94 143/284/94 158/313/94 159/315/94
f 137/290/95 136/286/95 151/314/95 152/316/95
f 145/292/96 144/288/96 159/315/96 160/317/96
f 138/294/97 137/290/97 152/316/97 153/318/97
f 146/296/98 145/292/98 160/317/98 161/319/98
f 139/298/99 138/294/99 153/318/99 154/303/99
f 147/300/100 146/296/100 161/319/100 162/305/100
f 159/315/101 158/313/101 173/320/101 174/321/101
f 152/316/102 151/314/102 166/322/102 167/323/102
f 160/317/103 159/315/103 174/321/103 175/324/103
f 153/318/104 152/316/104 167/323/104 168/325/104
f 161/319/105 160/317/105 175/324/105 176/326/105
f 154/303/106 153/318/106 168/325/106 169/327/106
f 162/305/107 161/319/107 176/326/107 177/328/107
f 155/304/108 154/303/108 169/327/108 170/329/108
f 163/306/109 162/305/109 177/328/109 178/330/109
f 156/307/110 155/304/110 170/329/110 171/331/110
f 164/308/111 163/306/111 178/330/111 179/332/111
f 157/309/112 156/307/112 171/331/112 172/333/112
f 150/311/113 210/334/113 165/335/113
f 436/336/114 164/308/114 179/332/114
f 158/313/115 157/309/115 172/333/115 173/320/115
f 151/314/116 150/311/116 165/335/116 166/322/116
f 178/330/117 177/328/117 192/337/117 193/338/117
f 171/331/118 170/329/118 185/339/118 186/340/118
f 179/332/119 178/330/119 193/338/119 194/341/119
f 172/333/120 171/331/120 186/340/120 187/342/120
f 165/335/121 210/343/121 180/344/121
f 436/345/122 179/332/122 194/341/122
f 173/320/123 172/333/123 187/342/123 188/346/123
f 166/322/124 165/335/124 180/344/124 181/347/124
f 174/321/125 173/320/125 188/346/125 189/348/125
f 167/323/126 166/322/126 181/347/126 182/349/126
f 175/324/127 174/321/127 189/348/127 190/350/127
f 168/325/128 167/323/128 182/349/128 183/351/128
f 176/326/129 175/324/129 190/350/129 191/352/129
f 169/327/130 168/325/130 183/351/130 184/353/130
f 177/328/131 176/326/131 191/352/131 192/337/131
f 170/329/132 169/327/132 184/353/132 185/339/132
f 190/350/133 189/348/133 204/354/133 205/355/133
f 183/351/134 182/349/134 197/356/134 198/357/134
f 191/352/135 190/350/135 205/355/135 206/358/135
f 184/353/136 183/351/136 198/357/136 199/359/136
f 192/337/137 191/352/137 206/358/137 207/360/137
f 185/339/138 184/353/138 199/359/138 200/361/138
f 193/338/139 192/337/139 207/360/139 208/362/139
f 186/340/140 185/339/140 200/361/140 201/363/140
f 194/341/141 193/338/141 208/362/141 209/364/141
f 187/342/142 186/340/142 201/363/142 202/365/142
f 180/344/143 210/366/143 195/367/143
f 436/368/144 194/341/144 209/364/144
f 188/346/145 187/342/145 202/365/145 203/369/145
f 181/347/146 180/344/146 195/367/146 196/370/146
f 189/348/147 188/346/147 203/369/147 204/354/147
f 182/349/148 181/347/148 196/370/148 197/356/148
f 209/364/149 208/362/149 224/371/149 225/372/149
f 202/365/150 201/363/150 217/373/150 218/374/150
f 195/367/151 210/375/151 211/376/151
f 436/377/152 209/364/152 225/372/152
f 203/369/153 202/365/153 218/374/153 219/378/153
f 196/370/154 195/367/154 211/376/154 212/379/154
f 204/354/155 203/369/155 219/378/155 220/380/155
f 197/356/156 196/370/156 212/379/156 213/381/156
f 205/355/157 204/354/157 220/380/157 221/382/157
f 198/357/158 197/356/158 213/381/158 214/383/158
f 206/358/159 205/355/159 221/382/159 222/384/159
f 199/359/160 198/357/160 214/383/160 215/385/160
f 207/360/161 206/358/161 222/384/161 223/386/161
f 200/361/162 199/359/162 215/385/162 216/387/162
f 208/362/163 207/360/163 223/386/163 224/371/163
f 201/363/164 200/361/164 216/387/164 217/373/164
f 214/383/165 213/381/165 228/388/165 229/389/165
f 222/384/166 221/382/166 236/390/166 237/391/166
f 215/385/167 214/383/167 229/389/167 230/392/167
f 223/386/168 222/384/168 237/391/168 238/393/168
f 216/387/169 215/385/169 230/392/169 231/394/169
f 224/371/170 223/386/170 238/393/170 239/395/170
f 217/373/171 216/387/171 231/394/171 232/396/171
f 225/372/172 224/371/172 239/395/172 240/397/172
f 218/374/173 217/373/173 232/396/173 233/398/173
f 211/376/174 210/399/174 226/400/174
f 436/401/175 225/372/175 240/397/175
f 219/378/176 218/374/176 233/398/176 234/402/176
f 212/379/177 211/376/177 226/400/177 227/403/177
f 220/380/178 219/378/178 234/402/178 235/404/178
f 213/381/179 212/379/179 227/403/179 228/388/179
f 221/382/180 220/380/180 235/404/180 236/390/180
f 233/398/181 232/396/181 247/405/181 248/406/181
f 226/400/182 210/407/182 241/408/182
f 436/409/183 240/397/183 255/410/183
f 234/402/184 233/398/184 248/406/184 249/411/184
f 227/403/185 226/400/185 241/408/185 242/412/185
f 235/404/186 234/402/186 249/411/186 250/413/186
f 228/388/187 227/403/187 242/412/187 243/414/187
f 236/390/188 235/404/188 250/413/188 251/415/188
f 229/389/189 228/388/189 243/414/189 244/416/189
f 237/391/190 236/390/190 251/415/190 252/417/190
f 230/392/191 229/389/191 244/416/191 245/418/191
f 238/393/192 237/391/192 252/417/192 253/419/192
f 231/394/193 230/392/193 245/418/193 246/420/193
f 239/395/194 238/393/194 253/419/194 254/421/194
f 232/396/195 231/394/195 246/420/195 247/405/195
f 240/397/196 239/395/196 254/421/196 255/410/196
f 252/417/197 251/415/197 266/422/197 267/423/197
f 245/418/198 244/416/198 259/424/198 260/425/198
f 253/419/199 252/417/199 267/423/199 268/426/199
f 246/420/200 245/418/200 260/425/200 261/427/200
f 254/421/201 253/419/201 268/426/201 269/428/201
f 247/405/202 246/420/202 261/427/202 262/429/202
f 255/410/203 254/421/203 269/428/203 270/430/203
f 248/406/204 247/405/204 262/429/204 263/431/204
f 241/408/205 210/432/205 256/433/205
f 436/434/206 255/410/206 270/430/206
f 249/411/207 248/406/207 263/431/207 264/435/207
f 242/412/208 241/408/208 256/433/208 257/436/208
f 250/413/209 249/411/209 264/435/209 265/437/209
f 243/414/210 242/412/210 257/436/210 258/438/210
f 251/415/211 250/413/211 265/437/211 266/422/211
f 244/416/212 243/414/212 258/438/212 259/424/212
f 256/433/213 210/439/213 271/440/213
f 436/441/214 270/430/214 285/442/214
f 264/435/215 263/431/215 278/443/215 279/444/215
f 257/436/216 256/433/216 271/440/216 272/445/216
f 265/437/217 264/435/217 279/444/217 280/446/217
f 258/438/218 257/436/218 272/445/218 273/447/218
f 266/422/219 265/437/219 280/446/219 281/448/219
f 259/424/220 258/438/220 273/447/220 274/449/220
f 267/423/221 266/422/221 281/448/221 282/450/221
f 260/425/222 259/424/222 274/449/222 275/451/222
f 268/426/223 267/423/223 282/450/223 283/452/223
f 261/427/224 260/425/224 275/451/224 276/453/224
f 269/428/225 268/426/225 283/452/225 284/454/225
f 262/429/226 261/427/226 276/453/226 277/455/226
f 270/430/227 269/428/227 284/454/227 285/442/227
f 263/431/228 262/429/228 277/455/228 278/443/228
f 275/451/229 274/449/229 289/456/229 290/457/229
f 283/452/230 282/450/230 297/458/230 298/459/230
f 276/453/231 275/451/231 290/457/231 291/460/231
f 284/454/232 283/452/232 298/459/232 299/461/232
f 277/455/233 276/453/233 291/460/233 292/462/233
f 285/442/234 284/454/234 299/461/234 300/463/234
f 278/443/235 277/455/235 292/462/235 293/464/235
f 271/440/236 210/465/236 286/466/236
f 436/467/237 285/442/237 300/463/237
f 279/444/238 278/443/238 293/464/238 294/468/238
f 272/445/239 271/440/239 286/466/239 287/469/239
f 280/446/240 279/444/240 294/468/240 295/470/240
f 273/447/241 272/445/241 287/469/241 288/471/241
f 281/448/242 280/446/242 295/470/242 296/472/242
f 274/449/243 273/447/243 288/471/243 289/456/243
f 282/450/244 281/448/244 296/472/244 297/458/244
f 294/468/245 293/464/245 308/473/245 309/474/245
f 287/469/246 286/466/246 301/475/246 302/476/246
f 295/470/247 294/468/247 309/474/247 310/477/247
f 288/471/248 287/469/248 302/476/248 303/478/248
f 296/472/249 295/470/249 310/477/249 311/479/249
f 289/456/250 288/471/250 303/478/250 304/480/250
f 297/458/251 296/472/251 311/479/251 312/481/251
f 290/457/252 289/456/252 304/480/252 305/482/252
f 298/459/253 297/458/253 312/481/253 313/483/253
f 291/460/254 290/457/254 305/482/254 306/484/254
f 299/461/255 298/459/255 313/483/255 314/485/255
f 292/462/256 291/460/256 306/484/256 307/486/256
f 300/463/257 299/461/257 314/485/257 315/487/257
f 293/464/258 292/462/258 307/486/258 308/473/258
f 286/466/259 210/488/259 301/475/259
f 436/489/260 300/463/260 315/487/260
f 313/483/261 312/481/261 327/490/261 328/491/261
f 306/484/262 305/482/262 320/492/262 321/493/262
f 314/485/263 313/483/263 328/491/263 329/494/263
f 307/486/264 306/484/264 321/493/264 322/495/264
f 315/487/265 314/485/265 329/494/265 330/496/265
f 308/473/266 307/486/266 322/495/266 323/497/266
f 301/475/267 210/498/267 316/499/267
f 436/500/268 315/487/268 330/496/268
f 309/474/269 308/473/269 323/497/269 324/501/269
f 302/476/270 301/475/270 316/499/270 317/502/270
f 310/477/271 309/474/271 324/501/271 325/503/271
f 303/478/272 302/476/272 317/502/272 318/504/272
f 311/479/273 310/477/273 325/503/273 326/505/273
f 304/480/274 303/478/274 318/504/274 319/506/274
f 312/481/275 311/479/275 326/505/275 327/490/275
f 305/482/276 304/480/276 319/506/276 320/492/276
f 325/503/277 324/501/277 339/507/277 340/508/277
f 318/504/278 317/502/278 332/509/278 333/510/278
f 326/505/279 325/503/279 340/508/279 341/511/279
f 319/506/280 318/504/280 333/510/280 334/512/280
f 327/490/281 326/505/281 341/511/281 342/513/281
f 320/492/282 319/506/282 334/512/282 335/514/282
f 328/491/283 327/490/283 342/513/283 343/515/283
f 321/493/284 320/492/284 335/514/284 336/516/284
f 329/494/285 328/491/285 343/515/285 344/517/285
f 322/495/286 321/493/286 336/516/286 337/518/286
f 330/496/287 329/494/287 344/517/287 345/519/287
f 323/497/288 322/495/288 337/518/288 338/520/288
f 316/499/289 210/521/289 331/522/289
f 436/523/290 330/496/290 345/519/290
f 324/501/291 323/497/291 338/520/291 339/507/291
f 317/502/292 316/499/292 331/522/292 332/509/292
f 344/517/293 343/515/293 358/524/293 359/525/293
f 337/518/294 336/516/294 351/526/294 352/527/294
f 345/519/295 344/517/295 359/525/295 360/528/295
f 338/520/296 337/518/296 352/527/296 353/529/296
f 331/522/297 210/530/297 346/531/297
f 436/532/298 345/519/298 360/528/298
f 339/507/299 338/520/299 353/529/299 354/533/299
f 332/509/300 331/522/300 346/531/300 347/534/300
f 340/508/301 339/507/301 354/533/301 355/535/301
f 333/510/302 332/509/302 347/534/302 348/536/302
f 341/511/303 340/508/303 355/535/303 356/537/303
f 334/512/304 333/510/304 348/536/304 349/538/304
f 342/513/305 341/511/305 356/537/305 357/539/305
f 335/514/306 334/512/306 349/538/306 350/540/306
f 343/515/307 342/513/307 357/539/307 358/524/307
f 336/516/308 335/514/308 350/540/308 351/526/308
f 348/536/309 347/534/309 362/541/309 363/542/309
f 356/537/310 355/535/310 370/543/310 371/544/310
f 349/538/311 348/536/311 363/542/311 364/545/311
f 357/539/312 356/537/312 371/544/312 372/546/312
f 350/540/313 349/538/313 364/545/313 365/547/313
f 358/524/314 357/539/314 372/546/314 373/548/314
f 351/526/315 350/540/315 365/547/315 366/549/315
f 359/525/316 358/524/316 373/548/316 374/550/316
f 352/527/317 351/526/317 366/549/317 367/551/317
f 360/528/318 359/525/318 374/550/318 375/552/318
f 353/529/319 352/527/319 367/551/319 368/553/319
f 346/531/320 210/554/320 361/555/320
f 436/556/321 360/528/321 375/552/321
f 354/533/322 353/529/322 368/553/322 369/557/322
f 347/534/323 346/531/323 361/555/323 362/541/323
f 355/535/324 354/533/324 369/557/324 370/543/324
f 367/551/325 366/549/325 381/558/325 382/559/325
f 375/552/326 374/550/326 389/560/326 390/561/326
f 368/553/327 367/551/327 382/559/327 383/562/327
f 361/555/328 210/563/328 376/564/328
f 436/565/329 375/552/329 390/561/329
f 369/557/330 368/553/330 383/562/330 384/566/330
f 362/541/331 361/555/331 376/564/331 377/567/331
f 370/543/332 369/557/332 384/566/332 385/568/332
f 363/542/333 362/541/333 377/567/333 378/569/333
f 371/544/334 370/543/334 385/568/334 386/570/334
f 364/545/335 363/542/335 378/569/335 379/571/335
f 372/546/336 371/544/336 386/570/336 387/572/336
f 365/547/337 364/545/337 379/571/337 380/573/337
f 373/548/338 372/546/338 387/572/338 388/574/338
f 366/549/339 365/547/339 380/573/339 381/558/339
f 374/550/340 373/548/340 388/574/340 389/560/340
f 386/570/341 385/568/341 400/575/341 401/576/341
f 379/571/342 378/569/342 393/577/342 394/578/342
f 387/572/343 386/570/343 401/576/343 402/579/343
f 380/573/344 379/571/344 394/578/344 395/580/344
f 388/574/345 387/572/345 402/579/345 403/581/345
f 381/558/346 380/573/346 395/580/346 396/582/346
f 389/560/347 388/574/347 403/581/347 404/583/347
f 382/559/348 381/558/348 396/582/348 397/584/348
f 390/561/349 389/560/349 404/583/349 405/585/349
f 383/562/350 382/559/350 397/584/350 398/586/350
f 376/564/351 210/587/351 391/588/351
f 436/589/352 390/561/352 405/585/352
f 384/566/353 383/562/353 398/586/353 399/590/353
f 377/567/354 376/564/354 391/588/354 392/591/354
f 385/568/355 384/566/355 399/590/355 400/575/355
f 378/569/356 377/567/356 392/591/356 393/577/356
f 405/585/357 404/583/357 419/592/357 420/593/357
f 398/586/358 397/584/358 412/594/358 413/595/358
f 391/588/359 210/596/359 406/597/359
f 436/598/360 405/585/360 420/593/360
f 399/590/361 398/586/361 413/595/361 414/599/361
f 392/591/362 391/588/362 406/597/362 407/600/362
f 400/575/363 399/590/363 414/599/363 415/601/363
f 393/577/364 392/591/364 407/600/364 408/602/364
f 401/576/365 400/575/365 415/601/365 416/603/365
f 394/578/366 393/577/366 408/602/366 409/604/366
f 402/579/367 401/576/367 416/603/367 417/605/367
f 395/580/368 394/578/368 409/604/368 410/606/368
f 403/581/369 402/579/369 417/605/369 418/607/369
f 396/582/370 395/580/370 410/606/370 411/608/370
f 404/583/371 403/581/371 418/607/371 419/592/371
f 397/584/372 396/582/372 411/608/372 412/594/372
f 409/604/373 408/602/373 423/609/373 424/610/373
f 417/605/374 416/603/374 431/611/374 432/612/374
f 410/606/375 409/604/375 424/610/375 425/613/375
f 418/607/376 417/605/376 432/612/376 433/614/376
f 411/608/377 410/606/377 425/613/377 426/615/377
f 419/592/378 418/607/378 433/614/378 434/616/378
f 412/594/379 411/608/379 426/615/379 427/617/379
f 420/593/380 419/592/380 434/616/380 435/618/380
f 413/595/381 412/594/381 427/617/381 428/619/381
f 406/597/382 210/620/382 421/621/382
f 436/622/383 420/593/383 435/618/383
f 414/599/384 413/595/384 428/619/384 429/623/384
f 407/600/385 406/597/385 421/621/385 422/624/385
f 415/601/386 414/599/386 429/623/386 430/625/386
f 408/602/387 407/600/387 422/624/387 423/609/387
f 416/603/388 415/601/388 430/625/388 431/611/388
f 428/619/389 427/617/389 443/626/389 444/627/389
f 421/621/390 210/628/390 437/629/390
f 436/630/391 435/618/391 451/631/391
f 429/623/392 428/619/392 444/627/392 445/632/392
f 422/624/393 421/621/393 437/629/393 438/633/393
f 430/625/394 429/623/394 445/632/394 446/634/394
f 423/609/395 422/624/395 438/633/395 439/635/395
f 431/611/396 430/625/396 446/634/396 447/636/396
f 424/610/397 423/609/397 439/635/397 440/637/397
f 432/612/398 431/611/398 447/636/398 448/638/398
f 425/613/399 424/610/399 440/637/399 441/639/399
f 433/614/400 432/612/400 448/638/400 449/640/400
f 426/615/401 425/613/401 441/639/401 442/641/401
f 434/616/402 433/614/402 449/640/402 450/642/402
f 427/617/403 426/615/403 442/641/403 443/626/403
f 435/618/404 434/616/404 450/642/404 451/631/404
f 448/638/405 447/636/405 462/643/405 463/644/405
f 441/639/406 440/637/406 455/645/406 456/646/406
f 449/640/407 448/638/407 463/644/407 464/647/407
f 442/641/408 441/639/408 456/646/408 457/648/408
f 450/642/409 449/640/409 464/647/409 465/649/409
f 443/626/410 442/641/410 457/648/410 458/650/410
f 451/631/411 450/642/411 465/649/411 466/651/411
f 444/627/412 443/626/412 458/650/412 459/652/412
f 437/629/413 210/653/413 452/654/413
f 436/655/414 451/631/414 466/651/414
f 445/632/415 444/627/415 459/652/415 460/656/415
f 438/633/416 437/629/416 452/654/416 453/657/416
f 446/634/417 445/632/417 460/656/417 461/658/417
f 439/635/418 438/633/418 453/657/418 454/659/418
f 447/636/419 446/634/419 461/658/419 462/643/419
f 440/637/420 439/635/420 454/659/420 455/645/420
f 436/660/421 466/651/421 481/661/421
f 460/656/422 459/652/422 474/662/422 475/663/422
f 453/657/423 452/654/423 467/664/423 468/665/423
f 461/658/424 460/656/424 475/663/424 476/666/424
f 454/659/425 453/657/425 468/665/425 469/667/425
f 462/643/426 461/658/426 476/666/426 477/668/426
f 455/645/427 454/659/427 469/667/427 470/669/427
f 463/644/428 462/643/428 477/668/428 478/670/428
f 456/646/429 455/645/429 470/669/429 471/671/429
f 464/647/430 463/644/430 478/670/430 479/672/430
f 457/648/431 456/646/431 471/671/431 472/673/431
f 465/649/432 464/647/432 479/672/432 480/674/432
f 458/650/433 457/648/433 472/673/433 473/675/433
f 466/651/434 465/649/434 480/674/434 481/661/434
f 459/652/435 458/650/435 473/675/435 474/662/435
f 452/654/436 210/676/436 467/664/436
f 479/672/437 478/670/437 493/677/437 494/678/437
f 472/673/438 471/671/438 486/679/438 487/680/438
f 480/674/439 479/672/439 494/678/439 495/681/439
f 473/675/440 472/673/440 487/680/440 488/682/440
f 481/661/441 480/674/441 495/681/441 496/683/441
f 474/662/442 473/675/442 488/682/442 489/684/442
f 467/664/443 210/685/443 482/686/443
f 436/687/444 481/661/444 496/683/444
f 475/663/445 474/662/445 489/684/445 490/688/445
f 468/665/446 467/664/446 482/686/446 483/689/446
f 476/666/447 475/663/447 490/688/447 491/690/447
f 469/667/448 468/665/448 483/689/448 484/691/448
f 477/668/449 476/666/449 491/690/449 492/692/449
f 470/669/450 469/667/450 484/691/450 485/693/450
f 478/670/451 477/668/451 492/692/451 493/677/451
f 471/671/452 470/669/452 485/693/452 486/679/452
f 483/694/453 482/695/453 497/696/453 498/697/453
f 491/698/454 490/699/454 505/700/454 506/701/454
f 484/702/455 483/694/455 498/697/455 499/703/455
f 492/704/456 491/698/456 506/701/456 507/705/456
f 485/706/457 484/702/457 499/703/457 500/707/457
f 493/708/458 492/704/458 507/705/458 508/709/458
f 486/710/459 485/706/459 500/707/459 501/711/459
f 494/712/460 493/708/460 508/709/460 509/713/460
f 487/714/461 486/710/461 501/711/461 502/715/461
f 495/716/462 494/712/462 509/713/462 510/717/462
f 488/718/463 487/714/463 502/715/463 503/719/463
f 496/720/464 495/716/464 510/717/464 511/721/464
f 489/722/465 488/718/465 503/719/465 504/723/465
f 482/695/466 210/724/466 497/696/466
f 436/725/467 496/720/467 511/721/467
f 490/699/468 489/722/468 504/723/468 505/700/468
f 502/715/469 501/711/469 516/726/469 517/727/469
f 510/717/470 509/713/470 524/728/470 525/729/470
f 503/719/471 502/715/471 517/727/471 518/730/471
f 511/721/472 510/717/472 525/729/472 526/731/472
f 504/723/473 503/719/473 518/730/473 519/732/473
f 497/696/474 210/733/474 512/734/474
f 436/735/475 511/721/475 526/731/475
f 505/700/476 504/723/476 519/732/476 520/736/476
f 498/697/477 497/696/477 512/734/477 513/737/477
f 506/701/478 505/700/478 520/736/478 521/738/478
f 499/703/479 498/697/479 513/737/479 514/739/479
f 507/705/480 506/701/480 521/738/480 522/740/480
f 500/707/481 499/703/481 514/739/481 515/741/481
f 508/709/482 507/705/482 522/740/482 523/742/482
f 501/711/483 500/707/483 515/741/483 516/726/483
f 509/713/484 508/709/484 523/742/484 524/728/484
f 521/738/485 520/736/485 535/743/485 536/744/485
f 514/739/486 513/737/486 528/745/486 529/746/486
f 522/740/487 521/738/487 536/744/487 537/747/487
f 515/741/488 514/739/488 529/746/488 530/748/488
f 523/742/489 522/740/489 537/747/489 538/749/489
f 516/726/490 515/741/490 530/748/490 531/750/490
f 524/728/491 523/742/491 538/749/491 539/751/491
f 517/727/492 516/726/492 531/750/492 532/752/492
f 525/729/493 524/728/493 539/751/493 540/753/493
f 518/730/494 517/727/494 532/752/494 533/754/494
f 526/731/495 525/729/495 540/753/495 541/755/495
f 519/732/496 518/730/496 533/754/496 534/756/496
f 512/734/497 210/757/497 527/758/497
f 436/759/498 526/731/498 541/755/498
f 520/736/499 519/732/499 534/756/499 535/743/499
f 513/737/500 512/734/500 527/758/500 528/745/500
f 540/753/501 539/751/501 554/760/501 555/761/501
f 533/754/502 532/752/502 547/762/502 548/763/502
f 541/755/503 540/753/503 555/761/503 556/764/503
f 534/756/504 533/754/504 548/763/504 549/765/504
f 527/758/505 210/766/505 542/767/505
f 436/768/506 541/755/506 556/764/506
f 535/743/507 534/756/507 549/765/507 550/769/507
f 528/745/508 527/758/508 542/767/508 543/770/508
f 536/744/509 535/743/509 550/769/509 551/771/509
f 529/746/510 528/745/510 543/770/510 544/772/510
f 537/747/511 536/744/511 551/771/511 552/773/511
f 530/748/512 529/746/512 544/772/512 545/774/512
f 538/749/513 537/747/513 552/773/513 553/775/513
f 531/750/514 530/748/514 545/774/514 546/776/514
f 539/751/515 538/749/515 553/775/515 554/760/515
f 532/752/516 531/750/516 546/776/516 547/762/516
f 544/772/517 543/770/517 558/777/517 559/778/517
f 552/773/518 551/771/518 566/779/518 567/780/518
f 545/774/519 544/772/519 559/778/519 560/781/519
f 553/775/520 552/773/520 567/780/520 568/782/520
f 546/776/521 545/774/521 560/781/521 561/783/521
f 554/760/522 553/775/522 568/782/522 569/784/522
f 547/762/523 546/776/523 561/783/523 562/785/523
f 555/761/524 554/760/524 569/784/524 570/786/524
f 548/763/525 547/762/525 562/785/525 563/787/525
f 556/764/526 555/761/526 570/786/526 571/788/526
f 549/765/527 548/763/527 563/787/527 564/789/527
f 542/767/528 210/790/528 557/791/528
f 436/792/529 556/764/529 571/788/529
f 550/769/530 549/765/530 564/789/530 565/793/530
f 543/770/531 542/767/531 557/791/531 558/777/531
f 551/771/532 550/769/532 565/793/532 566/779/532
f 563/787/533 562/785/533 577/794/533 578/795/533
f 571/788/534 570/786/534 585/796/534 586/797/534
f 564/789/535 563/787/535 578/795/535 579/798/535
f 557/791/536 210/799/536 572/800/536
f 436/801/537 571/788/537 586/797/537
f 565/793/538 564/789/538 579/798/538 580/802/538
f 558/777/539 557/791/539 572/800/539 573/803/539
f 566/779/540 565/793/540 580/802/540 581/804/540
f 559/778/541 558/777/541 573/803/541 574/805/541
f 567/780/542 566/779/542 581/804/542 582/806/542
f 560/781/543 559/778/543 574/805/543 575/807/543
f 568/782/544 567/780/544 582/806/544 583/808/544
f 561/783/545 560/781/545 575/807/545 576/809/545
f 569/784/546 568/782/546 583/808/546 584/810/546
f 562/785/547 561/783/547 576/809/547 577/794/547
f 570/786/548 569/784/548 584/810/548 585/796/548
f 582/806/549 581/804/549 596/811/549 597/812/549
f 575/807/550 574/805/550 589/813/550 590/814/550
f 583/808/551 582/806/551 597/812/551 598/815/551
f 576/809/552 575/807/552 590/814/552 591/816/552
f 584/810/553 583/808/553 598/815/553 599/817/553
f 577/794/554 576/809/554 591/816/554 592/818/554
f 585/796/555 584/810/555 599/817/555 600/819/555
f 578/795/556 577/794/556 592/818/556 593/820/556
f 586/797/557 585/796/557 600/819/557 601/821/557
f 579/798/558 578/795/558 593/820/558 594/822/558
f 572/800/559 210/823/559 587/824/559
f 436/825/560 586/797/560 601/821/560
f 580/802/561 579/798/561 594/822/561 595/826/561
f 573/803/562 572/800/562 587/824/562 588/827/562
f 581/804/563 580/802/563 595/826/563 596/811/563
f 574/805/564 573/803/564 588/827/564 589/813/564
f 601/821/565 600/819/565 609/272/565 610/271/565
f 594/822/566 593/820/566 131/276/566 132/275/566
f 587/824/567 210/828/567 602/279/567
f 436/829/568 601/821/568 610/271/568
f 595/826/569 594/822/569 132/275/569 133/283/569
f 588/827/570 587/824/570 602/279/570 603/285/570
f 596/811/571 595/826/571 133/283/571 606/287/571
f 589/813/572 588/827/572 603/285/572 129/289/572
f 597/812/573 596/811/573 606/287/573 134/291/573
f 590/814/574 589/813/574 129/289/574 604/293/574
f 598/815/575 597/812/575 134/291/575 607/295/575
f 591/816/576 590/814/576 604/293/576 130/297/576
f 599/817/577 598/815/577 607/295/577 608/299/577
f 592/818/578 591/816/578 130/297/578 605/301/578
f 600/819/579 599/817/579 608/299/579 609/272/579
f 593/820/580 592/818/580 605/301/580 131/276/580
