# Blender 4.3.2
# www.blender.org
mtllib mystreets_sign_rectangle.mtl
o Cube
v 0.000000 -0.150000 0.477849
v 0.000000 -0.150000 0.497849
v 0.000000 0.150000 0.457849
v 0.000000 0.150000 0.497849
v 0.000000 0.150000 0.477849
v 0.250000 0.150000 0.457849
v 0.000000 -0.150000 0.457849
v -0.250000 0.150000 0.497849
v -0.250000 0.150000 0.457849
v 0.250000 0.150000 0.497849
v 0.000000 0.150000 0.487849
v 0.000000 0.150000 0.467849
v 0.250000 0.150000 0.477849
v -0.250000 0.150000 0.477849
v -0.250000 0.150000 0.467849
v 0.250000 0.150000 0.467849
v 0.250000 0.150000 0.487849
v -0.250000 0.150000 0.487849
v 0.500000 0.000543 0.497849
v 0.250000 0.150000 0.497849
v 0.498428 0.017277 0.497849
v 0.493732 0.033800 0.497849
v 0.485971 0.049906 0.497849
v 0.475242 0.065390 0.497849
v 0.461681 0.080059 0.497849
v 0.445458 0.093728 0.497849
v 0.426777 0.106225 0.497849
v 0.405872 0.117393 0.497849
v 0.383008 0.127092 0.497849
v 0.358471 0.135199 0.497849
v 0.332570 0.141613 0.497849
v 0.305630 0.146253 0.497849
v 0.277991 0.149060 0.497849
v 0.250000 0.150000 0.457849
v 0.500000 0.000543 0.457849
v 0.277991 0.149060 0.457849
v 0.305630 0.146253 0.457849
v 0.332570 0.141613 0.457849
v 0.358471 0.135199 0.457849
v 0.383008 0.127092 0.457849
v 0.405872 0.117393 0.457849
v 0.426777 0.106225 0.457849
v 0.445458 0.093728 0.457849
v 0.461681 0.080059 0.457849
v 0.475242 0.065390 0.457849
v 0.485971 0.049906 0.457849
v 0.493732 0.033800 0.457849
v 0.498428 0.017277 0.457849
v 0.500000 0.000543 0.477849
v 0.001810 0.150000 0.477849
v 0.496868 0.017277 0.477849
v 0.487509 0.033800 0.477849
v 0.472043 0.049906 0.477849
v 0.450664 0.065390 0.477849
v 0.423640 0.080059 0.477849
v 0.391311 0.093728 0.477849
v 0.354084 0.106225 0.477849
v 0.312427 0.117393 0.477849
v 0.266863 0.127092 0.477849
v 0.217967 0.135199 0.477849
v 0.166352 0.141613 0.477849
v 0.112668 0.146253 0.477849
v 0.057590 0.149060 0.477849
v 0.500000 0.000543 0.487849
v 0.001810 0.150000 0.487849
v 0.496868 0.017277 0.487849
v 0.487509 0.033800 0.487849
v 0.472043 0.049906 0.487849
v 0.450664 0.065390 0.487849
v 0.423640 0.080059 0.487849
v 0.391311 0.093728 0.487849
v 0.354084 0.106225 0.487849
v 0.312427 0.117393 0.487849
v 0.266863 0.127092 0.487849
v 0.217967 0.135199 0.487849
v 0.166352 0.141613 0.487849
v 0.112668 0.146253 0.487849
v 0.057590 0.149060 0.487849
v 0.500000 0.000543 0.467849
v 0.001810 0.150000 0.467849
v 0.496868 0.017277 0.467849
v 0.487509 0.033800 0.467849
v 0.472043 0.049906 0.467849
v 0.450664 0.065390 0.467849
v 0.423640 0.080059 0.467849
v 0.391311 0.093728 0.467849
v 0.354084 0.106225 0.467849
v 0.312427 0.117393 0.467849
v 0.266863 0.127092 0.467849
v 0.217967 0.135199 0.467849
v 0.166352 0.141613 0.467849
v 0.112668 0.146253 0.467849
v 0.057590 0.149060 0.467849
v -0.250000 -0.150000 0.457849
v 0.250000 -0.150000 0.477849
v -0.250000 -0.150000 0.477849
v 0.250000 -0.150000 0.497849
v 0.000000 -0.150000 0.487849
v -0.250000 -0.150000 0.497849
v 0.000000 -0.150000 0.467849
v 0.250000 -0.150000 0.457849
v 0.250000 -0.150000 0.467849
v -0.250000 -0.150000 0.467849
v -0.250000 -0.150000 0.487849
v 0.250000 -0.150000 0.487849
v 0.250000 -0.150000 0.497849
v 0.500000 0.000320 0.497849
v 0.277991 -0.149055 0.497849
v 0.305630 -0.146231 0.497849
v 0.332570 -0.141565 0.497849
v 0.358471 -0.135114 0.497849
v 0.383008 -0.126960 0.497849
v 0.405872 -0.117205 0.497849
v 0.426777 -0.105972 0.497849
v 0.445458 -0.093403 0.497849
v 0.461681 -0.079655 0.497849
v 0.475242 -0.064902 0.497849
v 0.485971 -0.049328 0.497849
v 0.493732 -0.033130 0.497849
v 0.498428 -0.016511 0.497849
v 0.500000 0.000320 0.457849
v 0.250000 -0.150000 0.457849
v 0.498428 -0.016511 0.457849
v 0.493732 -0.033130 0.457849
v 0.485971 -0.049328 0.457849
v 0.475242 -0.064902 0.457849
v 0.461681 -0.079655 0.457849
v 0.445458 -0.093403 0.457849
v 0.426777 -0.105972 0.457849
v 0.405872 -0.117205 0.457849
v 0.383008 -0.126960 0.457849
v 0.358471 -0.135114 0.457849
v 0.332570 -0.141565 0.457849
v 0.305630 -0.146231 0.457849
v 0.277991 -0.149055 0.457849
v 0.500000 0.000320 0.477849
v -0.001065 -0.150000 0.477849
v 0.496849 -0.016511 0.477849
v 0.487437 -0.033130 0.477849
v 0.471882 -0.049328 0.477849
v 0.450379 -0.064902 0.477849
v 0.423199 -0.079655 0.477849
v 0.390683 -0.093403 0.477849
v 0.353241 -0.105972 0.477849
v 0.311344 -0.117205 0.477849
v 0.265518 -0.126960 0.477849
v 0.216339 -0.135114 0.477849
v 0.164426 -0.141565 0.477849
v 0.110432 -0.146231 0.477849
v 0.055036 -0.149055 0.477849
v 0.500000 0.000320 0.467849
v -0.001065 -0.150000 0.467849
v 0.496849 -0.016511 0.467849
v 0.487437 -0.033130 0.467849
v 0.471882 -0.049328 0.467849
v 0.450379 -0.064902 0.467849
v 0.423199 -0.079655 0.467849
v 0.390683 -0.093403 0.467849
v 0.353241 -0.105972 0.467849
v 0.311344 -0.117205 0.467849
v 0.265518 -0.126960 0.467849
v 0.216339 -0.135114 0.467849
v 0.164426 -0.141565 0.467849
v 0.110432 -0.146231 0.467849
v 0.055036 -0.149055 0.467849
v 0.500000 0.000320 0.487849
v -0.001065 -0.150000 0.487849
v 0.496849 -0.016511 0.487849
v 0.487437 -0.033130 0.487849
v 0.471882 -0.049328 0.487849
v 0.450379 -0.064902 0.487849
v 0.423199 -0.079655 0.487849
v 0.390683 -0.093403 0.487849
v 0.353241 -0.105972 0.487849
v 0.311344 -0.117205 0.487849
v 0.265518 -0.126960 0.487849
v 0.216339 -0.135114 0.487849
v 0.164426 -0.141565 0.487849
v 0.110432 -0.146231 0.487849
v 0.055036 -0.149055 0.487849
v -0.500000 0.000797 0.497849
v -0.250000 -0.150000 0.497849
v -0.498428 -0.016087 0.497849
v -0.493732 -0.032758 0.497849
v -0.485971 -0.049008 0.497849
v -0.475242 -0.064631 0.497849
v -0.461681 -0.079432 0.497849
v -0.445458 -0.093223 0.497849
v -0.426777 -0.105833 0.497849
v -0.405872 -0.117101 0.497849
v -0.383008 -0.126886 0.497849
v -0.358471 -0.135066 0.497849
v -0.332570 -0.141538 0.497849
v -0.305630 -0.146219 0.497849
v -0.277991 -0.149052 0.497849
v -0.250000 -0.150000 0.457849
v -0.500000 0.000797 0.457849
v -0.277991 -0.149052 0.457849
v -0.305630 -0.146219 0.457849
v -0.332570 -0.141538 0.457849
v -0.358471 -0.135066 0.457849
v -0.383008 -0.126886 0.457849
v -0.405872 -0.117101 0.457849
v -0.426777 -0.105833 0.457849
v -0.445458 -0.093223 0.457849
v -0.461681 -0.079432 0.457849
v -0.475242 -0.064631 0.457849
v -0.485971 -0.049008 0.457849
v -0.493732 -0.032758 0.457849
v -0.498428 -0.016087 0.457849
v -0.500000 0.000797 0.477849
v 0.002657 -0.150000 0.477849
v -0.496839 -0.016087 0.477849
v -0.487397 -0.032758 0.477849
v -0.471793 -0.049008 0.477849
v -0.450221 -0.064631 0.477849
v -0.422955 -0.079432 0.477849
v -0.390336 -0.093223 0.477849
v -0.352775 -0.105833 0.477849
v -0.310745 -0.117101 0.477849
v -0.264773 -0.126886 0.477849
v -0.215438 -0.135066 0.477849
v -0.163360 -0.141538 0.477849
v -0.109195 -0.146219 0.477849
v -0.053623 -0.149052 0.477849
v -0.500000 0.000797 0.487849
v 0.002657 -0.150000 0.487849
v -0.496839 -0.016087 0.487849
v -0.487397 -0.032758 0.487849
v -0.471793 -0.049008 0.487849
v -0.450221 -0.064631 0.487849
v -0.422955 -0.079432 0.487849
v -0.390336 -0.093223 0.487849
v -0.352775 -0.105833 0.487849
v -0.310745 -0.117101 0.487849
v -0.264773 -0.126886 0.487849
v -0.215438 -0.135066 0.487849
v -0.163360 -0.141538 0.487849
v -0.109195 -0.146219 0.487849
v -0.053623 -0.149052 0.487849
v -0.500000 0.000797 0.467849
v 0.002657 -0.150000 0.467849
v -0.496839 -0.016087 0.467849
v -0.487397 -0.032758 0.467849
v -0.471793 -0.049008 0.467849
v -0.450221 -0.064631 0.467849
v -0.422955 -0.079432 0.467849
v -0.390336 -0.093223 0.467849
v -0.352775 -0.105833 0.467849
v -0.310745 -0.117101 0.467849
v -0.264773 -0.126886 0.467849
v -0.215438 -0.135066 0.467849
v -0.163360 -0.141538 0.467849
v -0.109195 -0.146219 0.467849
v -0.053623 -0.149052 0.467849
v -0.250000 0.150000 0.497849
v -0.500000 0.000797 0.497849
v -0.277991 0.149062 0.497849
v -0.305630 0.146259 0.497849
v -0.332570 0.141627 0.497849
v -0.358471 0.135224 0.497849
v -0.383008 0.127131 0.497849
v -0.405872 0.117449 0.497849
v -0.426777 0.106299 0.497849
v -0.445458 0.093824 0.497849
v -0.461681 0.080178 0.497849
v -0.475242 0.065534 0.497849
v -0.485971 0.050076 0.497849
v -0.493732 0.033998 0.497849
v -0.498428 0.017502 0.497849
v -0.500000 0.000797 0.457849
v -0.250000 0.150000 0.457849
v -0.498428 0.017502 0.457849
v -0.493732 0.033998 0.457849
v -0.485971 0.050076 0.457849
v -0.475242 0.065534 0.457849
v -0.461681 0.080178 0.457849
v -0.445458 0.093824 0.457849
v -0.426777 0.106299 0.457849
v -0.405872 0.117449 0.457849
v -0.383008 0.127131 0.457849
v -0.358471 0.135224 0.457849
v -0.332570 0.141627 0.457849
v -0.305630 0.146259 0.457849
v -0.277991 0.149062 0.457849
v 0.000123 0.150000 0.477849
v -0.500000 -0.000037 0.477849
v -0.055873 0.149057 0.477849
v -0.111165 0.146238 0.477849
v -0.165057 0.141580 0.477849
v -0.216872 0.135142 0.477849
v -0.265959 0.127003 0.477849
v -0.311699 0.117267 0.477849
v -0.353517 0.106055 0.477849
v -0.390889 0.093510 0.477849
v -0.423343 0.079788 0.477849
v -0.450472 0.065062 0.477849
v -0.471935 0.049517 0.477849
v -0.487461 0.033350 0.477849
v -0.496855 0.016762 0.477849
v -0.500000 -0.000037 0.467849
v 0.000123 0.150000 0.467849
v -0.496855 0.016762 0.467849
v -0.487461 0.033350 0.467849
v -0.471935 0.049517 0.467849
v -0.450472 0.065062 0.467849
v -0.423343 0.079788 0.467849
v -0.390889 0.093510 0.467849
v -0.353517 0.106055 0.467849
v -0.311699 0.117267 0.467849
v -0.265959 0.127003 0.467849
v -0.216872 0.135142 0.467849
v -0.165057 0.141580 0.467849
v -0.111165 0.146238 0.467849
v -0.055873 0.149057 0.467849
v -0.500000 -0.000037 0.487849
v 0.000123 0.150000 0.487849
v -0.496855 0.016762 0.487849
v -0.487461 0.033350 0.487849
v -0.471935 0.049517 0.487849
v -0.450472 0.065062 0.487849
v -0.423343 0.079788 0.487849
v -0.390889 0.093510 0.487849
v -0.353517 0.106055 0.487849
v -0.311699 0.117267 0.487849
v -0.265959 0.127003 0.487849
v -0.216872 0.135142 0.487849
v -0.165057 0.141580 0.487849
v -0.111165 0.146238 0.487849
v -0.055873 0.149057 0.487849
vn -0.0000 -1.0000 -0.0000
vn 1.0000 -0.0000 -0.0000
vn -0.0000 1.0000 -0.0000
vn -0.0000 -0.0000 -1.0000
vn 0.0199 0.8850 -0.4652
vn 0.0394 0.5800 -0.8137
vn 0.0501 0.4349 -0.8991
vn 0.0606 0.3659 -0.9287
vn 0.0733 0.3319 -0.9405
vn 0.0901 0.3177 -0.9439
vn 0.1133 0.3174 -0.9415
vn 0.1471 0.3290 -0.9328
vn 0.1984 0.3524 -0.9146
vn 0.2804 0.3879 -0.8780
vn 0.4159 0.4312 -0.8007
vn 0.6281 0.4529 -0.6328
vn 0.8664 0.3684 -0.3371
vn 0.9873 0.1388 -0.0770
vn 0.0168 0.9999 -0.0000
vn 0.0509 0.9987 -0.0000
vn 0.0861 0.9963 -0.0000
vn 0.1233 0.9924 -0.0000
vn 0.1636 0.9865 -0.0000
vn 0.2082 0.9781 -0.0000
vn 0.2590 0.9659 -0.0000
vn 0.3182 0.9480 -0.0000
vn 0.3894 0.9211 -0.0000
vn 0.4771 0.8789 -0.0000
vn 0.5866 0.8099 -0.0000
vn 0.7213 0.6927 -0.0000
vn 0.8701 0.4928 -0.0000
vn 0.9829 0.1840 -0.0000
vn 0.0199 0.8850 0.4652
vn 0.0394 0.5800 0.8137
vn 0.0501 0.4349 0.8991
vn 0.0606 0.3659 0.9287
vn 0.0733 0.3319 0.9405
vn 0.0901 0.3177 0.9439
vn 0.1133 0.3174 0.9415
vn 0.1471 0.3290 0.9328
vn 0.1984 0.3524 0.9146
vn 0.2804 0.3879 0.8780
vn 0.4159 0.4312 0.8007
vn 0.6281 0.4529 0.6328
vn 0.8664 0.3684 0.3371
vn 0.9873 0.1388 0.0770
vn -0.0000 -0.0000 1.0000
vn 0.0198 -0.8824 0.4701
vn 0.0391 -0.5748 0.8174
vn 0.0496 -0.4302 0.9014
vn 0.0600 -0.3617 0.9304
vn 0.0726 -0.3280 0.9419
vn 0.0892 -0.3139 0.9452
vn 0.1122 -0.3137 0.9429
vn 0.1456 -0.3252 0.9344
vn 0.1966 -0.3484 0.9165
vn 0.2780 -0.3839 0.8805
vn 0.4130 -0.4273 0.8043
vn 0.6254 -0.4501 0.6374
vn 0.8654 -0.3673 0.3407
vn 0.9873 -0.1385 0.0779
vn 0.0168 -0.9999 -0.0000
vn 0.0509 -0.9987 -0.0000
vn 0.0861 -0.9963 -0.0000
vn 0.1233 -0.9924 -0.0000
vn 0.1636 -0.9865 -0.0000
vn 0.2082 -0.9781 -0.0000
vn 0.2590 -0.9659 -0.0000
vn 0.3182 -0.9480 -0.0000
vn 0.3894 -0.9211 -0.0000
vn 0.4771 -0.8789 -0.0000
vn 0.5866 -0.8099 -0.0000
vn 0.7213 -0.6926 -0.0000
vn 0.8701 -0.4928 -0.0000
vn 0.9829 -0.1840 -0.0000
vn 0.0198 -0.8824 -0.4701
vn 0.0391 -0.5748 -0.8174
vn 0.0496 -0.4302 -0.9014
vn 0.0600 -0.3617 -0.9304
vn 0.0726 -0.3280 -0.9419
vn 0.0892 -0.3139 -0.9452
vn 0.1122 -0.3137 -0.9429
vn 0.1456 -0.3252 -0.9344
vn 0.1966 -0.3484 -0.9165
vn 0.2780 -0.3839 -0.8805
vn 0.4130 -0.4273 -0.8043
vn 0.6254 -0.4501 -0.6374
vn 0.8654 -0.3673 -0.3407
vn 0.9873 -0.1385 -0.0779
vn -0.0198 -0.8809 -0.4728
vn -0.0389 -0.5720 -0.8193
vn -0.0494 -0.4277 -0.9026
vn -0.0597 -0.3594 -0.9313
vn -0.0722 -0.3258 -0.9427
vn -0.0887 -0.3119 -0.9460
vn -0.1116 -0.3116 -0.9436
vn -0.1449 -0.3231 -0.9352
vn -0.1955 -0.3462 -0.9175
vn -0.2767 -0.3816 -0.8819
vn -0.4113 -0.4252 -0.8062
vn -0.6239 -0.4486 -0.6399
vn -0.8649 -0.3667 -0.3427
vn -0.9873 -0.1384 -0.0784
vn -0.0168 -0.9999 -0.0000
vn -0.0509 -0.9987 -0.0000
vn -0.0861 -0.9963 -0.0000
vn -0.1233 -0.9924 -0.0000
vn -0.1636 -0.9865 -0.0000
vn -0.2082 -0.9781 -0.0000
vn -0.2590 -0.9659 -0.0000
vn -0.3182 -0.9480 -0.0000
vn -0.3894 -0.9211 -0.0000
vn -0.4771 -0.8789 -0.0000
vn -0.5866 -0.8099 -0.0000
vn -0.7213 -0.6927 -0.0000
vn -0.8701 -0.4928 -0.0000
vn -0.9829 -0.1840 -0.0000
vn -0.0198 -0.8809 0.4728
vn -0.0389 -0.5720 0.8193
vn -0.0494 -0.4277 0.9026
vn -0.0597 -0.3594 0.9313
vn -0.0722 -0.3258 0.9427
vn -0.0887 -0.3119 0.9460
vn -0.1116 -0.3116 0.9436
vn -0.1449 -0.3231 0.9352
vn -0.1955 -0.3462 0.9175
vn -0.2767 -0.3816 0.8819
vn -0.4113 -0.4252 0.8062
vn -0.6239 -0.4486 0.6399
vn -0.8649 -0.3667 0.3427
vn -0.9873 -0.1384 0.0784
vn -0.0198 0.8837 0.4677
vn -0.0391 0.5772 0.8157
vn -0.0497 0.4322 0.9004
vn -0.0600 0.3632 0.9298
vn -0.0725 0.3290 0.9415
vn -0.0890 0.3145 0.9451
vn -0.1118 0.3137 0.9429
vn -0.1448 0.3245 0.9347
vn -0.1949 0.3466 0.9175
vn -0.2747 0.3805 0.8830
vn -0.4064 0.4220 0.8104
vn -0.6151 0.4442 0.6514
vn -0.8577 0.3653 0.3618
vn -0.9864 0.1389 0.0885
vn -0.0168 0.9999 -0.0000
vn -0.0509 0.9987 -0.0000
vn -0.0861 0.9963 -0.0000
vn -0.1233 0.9924 -0.0000
vn -0.1636 0.9865 -0.0000
vn -0.2082 0.9781 -0.0000
vn -0.2590 0.9659 -0.0000
vn -0.3182 0.9480 -0.0000
vn -0.3894 0.9211 -0.0000
vn -0.4771 0.8789 -0.0000
vn -0.5866 0.8099 -0.0000
vn -0.7213 0.6927 -0.0000
vn -0.8701 0.4928 -0.0000
vn -0.9829 0.1840 -0.0000
vn -0.0198 0.8837 -0.4677
vn -0.0391 0.5772 -0.8157
vn -0.0497 0.4322 -0.9004
vn -0.0600 0.3632 -0.9298
vn -0.0725 0.3290 -0.9415
vn -0.0890 0.3145 -0.9451
vn -0.1118 0.3137 -0.9429
vn -0.1448 0.3245 -0.9347
vn -0.1949 0.3466 -0.9175
vn -0.2747 0.3805 -0.8830
vn -0.4064 0.4220 -0.8104
vn -0.6151 0.4442 -0.6514
vn -0.8577 0.3653 -0.3618
vn -0.9864 0.1389 -0.0885
vt 0.357087 0.996094
vt 0.273713 0.912760
vt 0.357087 0.912760
vt 0.362930 0.902344
vt 0.280200 0.902344
vt 0.280200 0.819010
vt 0.362930 0.819010
vt 0.201704 0.973958
vt 0.201456 0.973958
vt 0.201456 0.890625
vt 0.201456 0.807292
vt 0.201456 0.723958
vt 0.201456 0.640625
vt 0.201704 0.640625
vt 0.201704 0.723958
vt 0.201704 0.807292
vt 0.201704 0.890625
vt 0.280200 0.985677
vt 0.357087 0.829427
vt 0.273713 0.829427
vt 0.273713 0.746094
vt 0.357087 0.746094
vt 0.237231 0.649740
vt 0.238158 0.733073
vt 0.238158 0.816406
vt 0.238158 0.899740
vt 0.237231 0.983073
vt 0.237231 0.899740
vt 0.237231 0.816406
vt 0.237231 0.733073
vt 0.218750 0.736979
vt 0.135417 0.736979
vt 0.135417 0.653646
vt 0.218750 0.653646
vt 0.218750 0.903646
vt 0.135417 0.903646
vt 0.135417 0.820312
vt 0.218750 0.820312
vt 0.052083 0.903646
vt 0.052083 0.820312
vt 0.135417 0.986979
vt 0.052083 0.986979
vt 0.355469 0.015625
vt 0.364799 0.016679
vt 0.374012 0.019826
vt 0.382992 0.025027
vt 0.391626 0.032218
vt 0.399805 0.041307
vt 0.407426 0.052180
vt 0.414394 0.064700
vt 0.420621 0.078710
vt 0.426029 0.094034
vt 0.430550 0.110479
vt 0.434126 0.127838
vt 0.436713 0.145893
vt 0.438278 0.164417
vt 0.438802 0.183177
vt 0.438278 0.201739
vt 0.436713 0.220067
vt 0.434126 0.237931
vt 0.430550 0.255107
vt 0.426029 0.271378
vt 0.420621 0.286540
vt 0.414394 0.300402
vt 0.407426 0.312790
vt 0.399805 0.323548
vt 0.391626 0.332541
vt 0.382992 0.339655
vt 0.374012 0.344802
vt 0.364799 0.347916
vt 0.355469 0.348958
vt 0.272135 0.348958
vt 0.188802 0.348958
vt 0.179472 0.347914
vt 0.170259 0.344795
vt 0.161279 0.339639
vt 0.152645 0.332513
vt 0.144466 0.323505
vt 0.136845 0.312729
vt 0.129877 0.300320
vt 0.123649 0.286434
vt 0.118242 0.271246
vt 0.113721 0.254947
vt 0.110145 0.237742
vt 0.107558 0.219848
vt 0.105993 0.201488
vt 0.105469 0.182895
vt 0.105469 0.182647
vt 0.105993 0.163946
vt 0.107558 0.145481
vt 0.110145 0.127483
vt 0.113721 0.110179
vt 0.118242 0.093786
vt 0.123650 0.078510
vt 0.129877 0.064545
vt 0.136845 0.052064
vt 0.144466 0.041225
vt 0.152645 0.032165
vt 0.161279 0.024998
vt 0.170259 0.019813
vt 0.179472 0.016675
vt 0.188802 0.015625
vt 0.272135 0.015625
vt 0.280200 0.735677
vt 0.362930 0.735677
vt 0.213542 0.743490
vt 0.213542 0.827178
vt 0.130208 0.827178
vt 0.130208 0.743490
vt 0.218750 0.986979
vt 0.380208 0.743490
vt 0.296875 0.827178
vt 0.296875 0.743490
vt 0.196867 0.735677
vt 0.196867 0.652344
vt 0.280200 0.652344
vt 0.052083 0.736979
vt 0.052083 0.653646
vt 0.270978 0.750000
vt 0.353707 0.666667
vt 0.363038 0.666667
vt 0.289571 0.750000
vt 0.372251 0.666667
vt 0.307930 0.750000
vt 0.381231 0.666667
vt 0.325825 0.750000
vt 0.389864 0.666667
vt 0.343030 0.750000
vt 0.398043 0.666667
vt 0.359329 0.750000
vt 0.405665 0.666667
vt 0.374516 0.750000
vt 0.071615 0.723958
vt 0.071619 0.640625
vt 0.084028 0.640625
vt 0.084025 0.723958
vt 0.097915 0.640625
vt 0.097913 0.723958
vt 0.113103 0.640625
vt 0.113102 0.723958
vt 0.129403 0.640625
vt 0.129402 0.723958
vt 0.146608 0.640625
vt 0.146608 0.723958
vt 0.164503 0.640625
vt 0.164503 0.723958
vt 0.182863 0.640625
vt 0.182863 0.723958
vt 0.270978 0.916667
vt 0.270978 0.833333
vt 0.289571 0.833333
vt 0.289571 0.916667
vt 0.307930 0.833333
vt 0.307930 0.916667
vt 0.325825 0.833333
vt 0.325825 0.916667
vt 0.343030 0.833333
vt 0.343030 0.916667
vt 0.359329 0.833333
vt 0.359329 0.916667
vt 0.374516 0.833333
vt 0.374516 0.916667
vt 0.388402 0.833333
vt 0.388402 0.916667
vt 0.084025 0.890625
vt 0.084025 0.807292
vt 0.097913 0.807292
vt 0.097913 0.890625
vt 0.113102 0.807292
vt 0.113102 0.890625
vt 0.129402 0.807292
vt 0.129402 0.890625
vt 0.146608 0.807292
vt 0.146608 0.890625
vt 0.164503 0.807292
vt 0.164503 0.890625
vt 0.182863 0.807292
vt 0.182863 0.890625
vt 0.388402 0.750000
vt 0.353707 1.000000
vt 0.363038 1.000000
vt 0.372251 1.000000
vt 0.381231 1.000000
vt 0.389864 1.000000
vt 0.398043 1.000000
vt 0.405665 1.000000
vt 0.071619 0.973958
vt 0.071615 0.890625
vt 0.084028 0.973958
vt 0.097915 0.973958
vt 0.113103 0.973958
vt 0.129403 0.973958
vt 0.146608 0.973958
vt 0.164503 0.973958
vt 0.182863 0.973958
vt 0.196867 0.902344
vt 0.196867 0.819010
vt 0.113533 0.902344
vt 0.113533 0.819010
vt 0.196867 0.985677
vt 0.113533 0.985677
vt 0.380208 0.910156
vt 0.296875 0.910156
vt 0.296875 0.825937
vt 0.213542 0.825937
vt 0.213542 0.910156
vt 0.130208 0.910156
vt 0.130208 0.825937
vt 0.345052 0.899740
vt 0.344002 0.909070
vt 0.340865 0.918283
vt 0.335679 0.927263
vt 0.328512 0.935897
vt 0.319452 0.944076
vt 0.308613 0.951697
vt 0.296133 0.958665
vt 0.282167 0.964892
vt 0.266891 0.970300
vt 0.250498 0.974820
vt 0.233194 0.978397
vt 0.215196 0.980984
vt 0.196731 0.982549
vt 0.178030 0.983073
vt 0.177782 0.983073
vt 0.159189 0.982549
vt 0.140829 0.980984
vt 0.122935 0.978397
vt 0.105730 0.974820
vt 0.089431 0.970300
vt 0.074243 0.964892
vt 0.060358 0.958665
vt 0.047949 0.951697
vt 0.037172 0.944076
vt 0.028164 0.935897
vt 0.021038 0.927263
vt 0.015882 0.918283
vt 0.012763 0.909070
vt 0.011719 0.899740
vt 0.011719 0.816406
vt 0.011719 0.733073
vt 0.012761 0.723743
vt 0.015875 0.714530
vt 0.021022 0.705550
vt 0.028136 0.696916
vt 0.037129 0.688737
vt 0.047887 0.681115
vt 0.060275 0.674147
vt 0.074137 0.667920
vt 0.089299 0.662513
vt 0.105570 0.657992
vt 0.122746 0.654416
vt 0.140610 0.651829
vt 0.158938 0.650264
vt 0.177500 0.649740
vt 0.196260 0.650264
vt 0.214784 0.651829
vt 0.232839 0.654416
vt 0.250198 0.657992
vt 0.266643 0.662513
vt 0.281967 0.667920
vt 0.295977 0.674147
vt 0.308497 0.681115
vt 0.319370 0.688737
vt 0.328459 0.696916
vt 0.335650 0.705550
vt 0.340851 0.714530
vt 0.343999 0.723743
vt 0.345052 0.733073
vt 0.345052 0.816406
vt 0.113533 0.735677
vt 0.113533 0.652344
vt 0.135646 0.916667
vt 0.051957 1.000000
vt 0.042627 1.000000
vt 0.116945 0.916667
vt 0.033414 1.000000
vt 0.098480 0.916667
vt 0.024434 1.000000
vt 0.080482 0.916667
vt 0.015801 1.000000
vt 0.063178 0.916667
vt 0.007621 1.000000
vt 0.046785 0.916667
vt 0.000000 1.000000
vt 0.031510 0.916667
vt 0.332279 0.890625
vt 0.332283 0.973958
vt 0.319803 0.973958
vt 0.319800 0.890625
vt 0.305838 0.973958
vt 0.305836 0.890625
vt 0.290564 0.973958
vt 0.290562 0.890625
vt 0.274171 0.973958
vt 0.274170 0.890625
vt 0.256868 0.973958
vt 0.256867 0.890625
vt 0.238870 0.973958
vt 0.238870 0.890625
vt 0.220405 0.973958
vt 0.220405 0.890625
vt 0.135646 0.750000
vt 0.135646 0.833333
vt 0.116945 0.833333
vt 0.116945 0.750000
vt 0.098480 0.833333
vt 0.098480 0.750000
vt 0.080482 0.833333
vt 0.080482 0.750000
vt 0.063178 0.833333
vt 0.063178 0.750000
vt 0.046785 0.833333
vt 0.046785 0.750000
vt 0.031510 0.833333
vt 0.031510 0.750000
vt 0.017544 0.833333
vt 0.017544 0.750000
vt 0.319800 0.723958
vt 0.319800 0.807292
vt 0.305836 0.807292
vt 0.305836 0.723958
vt 0.290562 0.807292
vt 0.290562 0.723958
vt 0.274170 0.807292
vt 0.274170 0.723958
vt 0.256867 0.807292
vt 0.256867 0.723958
vt 0.238870 0.807292
vt 0.238870 0.723958
vt 0.220405 0.807292
vt 0.220405 0.723958
vt 0.017544 0.916667
vt 0.051957 0.666667
vt 0.042627 0.666667
vt 0.033414 0.666667
vt 0.024434 0.666667
vt 0.015801 0.666667
vt 0.007621 0.666667
vt 0.000000 0.666667
vt 0.332283 0.640625
vt 0.332279 0.723958
vt 0.319804 0.640625
vt 0.305838 0.640625
vt 0.290564 0.640625
vt 0.274171 0.640625
vt 0.256868 0.640625
vt 0.238870 0.640625
vt 0.220405 0.640625
vt 0.046875 0.743490
vt 0.070565 0.733073
vt 0.154783 0.649740
vt 0.164114 0.649740
vt 0.089324 0.733073
vt 0.173327 0.649740
vt 0.107848 0.733073
vt 0.182307 0.649740
vt 0.125903 0.733073
vt 0.190940 0.649740
vt 0.143263 0.733073
vt 0.199119 0.649740
vt 0.159708 0.733073
vt 0.206741 0.649740
vt 0.175032 0.733073
vt 0.272125 0.912760
vt 0.273713 0.996094
vt 0.261557 0.996094
vt 0.260322 0.912760
vt 0.247876 0.996094
vt 0.246956 0.912760
vt 0.232843 0.996094
vt 0.232196 0.912760
vt 0.216645 0.996094
vt 0.216227 0.912760
vt 0.199486 0.996094
vt 0.199250 0.912760
vt 0.181583 0.996094
vt 0.181478 0.912760
vt 0.163161 0.996094
vt 0.163135 0.912760
vt 0.144451 0.996094
vt 0.144451 0.912760
vt 0.070565 0.816406
vt 0.089324 0.816406
vt 0.107848 0.816406
vt 0.125903 0.816406
vt 0.143263 0.816406
vt 0.159708 0.816406
vt 0.175032 0.816406
vt 0.189042 0.733073
vt 0.189042 0.816406
vt 0.260322 0.829427
vt 0.246956 0.829427
vt 0.232196 0.829427
vt 0.216227 0.829427
vt 0.199250 0.829427
vt 0.181478 0.829427
vt 0.163135 0.829427
vt 0.144451 0.829427
vt 0.070565 0.899740
vt 0.089324 0.899740
vt 0.107848 0.899740
vt 0.125903 0.899740
vt 0.143263 0.899740
vt 0.159708 0.899740
vt 0.175032 0.899740
vt 0.189042 0.899740
vt 0.260322 0.746094
vt 0.246956 0.746094
vt 0.232196 0.746094
vt 0.216227 0.746094
vt 0.199250 0.746094
vt 0.181478 0.746094
vt 0.163135 0.746094
vt 0.144451 0.746094
vt 0.154783 0.983073
vt 0.164114 0.983073
vt 0.173327 0.983073
vt 0.182307 0.983073
vt 0.190940 0.983073
vt 0.199119 0.983073
vt 0.206741 0.983073
vt 0.273713 0.662760
vt 0.272125 0.746094
vt 0.261557 0.662760
vt 0.247876 0.662760
vt 0.232843 0.662760
vt 0.216645 0.662760
vt 0.199486 0.662760
vt 0.181583 0.662760
vt 0.163161 0.662760
vt 0.144451 0.662760
vt 0.046875 0.910156
vt 0.270978 0.916667
vt 0.187603 1.000000
vt 0.178273 1.000000
vt 0.252312 0.916667
vt 0.169060 1.000000
vt 0.233882 0.916667
vt 0.160080 1.000000
vt 0.215918 0.916667
vt 0.151446 1.000000
vt 0.198646 0.916667
vt 0.143267 1.000000
vt 0.182284 0.916667
vt 0.135646 1.000000
vt 0.167037 0.916667
vt 0.011134 0.746094
vt 0.012504 0.662760
vt 0.025225 0.662760
vt 0.024273 0.746094
vt 0.039382 0.662760
vt 0.038819 0.746094
vt 0.054796 0.662760
vt 0.054589 0.746094
vt 0.071273 0.662760
vt 0.071383 0.746094
vt 0.088606 0.662760
vt 0.088991 0.746094
vt 0.106578 0.662760
vt 0.107192 0.746094
vt 0.124961 0.662760
vt 0.125757 0.746094
vt 0.143526 0.662760
vt 0.144451 0.746094
vt 0.270978 0.750000
vt 0.270978 0.833333
vt 0.252312 0.833333
vt 0.252312 0.750000
vt 0.233882 0.833333
vt 0.233882 0.750000
vt 0.215918 0.833333
vt 0.215918 0.750000
vt 0.198646 0.833333
vt 0.198646 0.750000
vt 0.182284 0.833333
vt 0.182284 0.750000
vt 0.167037 0.833333
vt 0.167037 0.750000
vt 0.153098 0.833333
vt 0.153098 0.750000
vt 0.024273 0.912760
vt 0.024273 0.829427
vt 0.038819 0.829427
vt 0.038819 0.912760
vt 0.054589 0.829427
vt 0.054589 0.912760
vt 0.071383 0.829427
vt 0.071383 0.912760
vt 0.088991 0.829427
vt 0.088991 0.912760
vt 0.107192 0.829427
vt 0.107192 0.912760
vt 0.125757 0.829427
vt 0.125757 0.912760
vt 0.144451 0.829427
vt 0.144451 0.912760
vt 0.153098 0.916667
vt 0.187603 0.666667
vt 0.178273 0.666667
vt 0.169060 0.666667
vt 0.160080 0.666667
vt 0.151446 0.666667
vt 0.143267 0.666667
vt 0.135646 0.666667
vt 0.012504 0.996094
vt 0.011134 0.912760
vt 0.025225 0.996094
vt 0.039382 0.996094
vt 0.054796 0.996094
vt 0.071273 0.996094
vt 0.088606 0.996094
vt 0.106578 0.996094
vt 0.124961 0.996094
vt 0.143526 0.996094
vt 0.357087 0.662760
s 0
f 9/1/1 272/1/1 302/2/1 15/3/1
f 80/4/1 16/5/1 13/6/1 50/7/1
f 121/8/2 35/9/2 79/10/2 49/11/2 64/12/2 19/13/2 107/14/2 166/15/2 136/16/2 151/17/2
f 34/18/1 6/18/1 16/5/1 80/4/1
f 14/19/1 286/20/1 317/21/1 18/22/1
f 181/23/2 257/23/2 316/24/2 287/25/2 301/26/2 271/27/2 197/27/2 241/28/2 211/29/2 226/30/2
f 17/31/3 11/32/3 4/33/3 10/34/3
f 16/35/3 12/36/3 5/37/3 13/38/3
f 12/36/3 15/39/3 14/40/3 5/37/3
f 3/41/3 9/42/3 15/39/3 12/36/3
f 196/43/4 198/44/4 199/45/4 200/46/4 201/47/4 202/48/4 203/49/4 204/50/4 205/51/4 206/52/4 207/53/4 208/54/4 209/55/4 210/56/4 197/57/4 271/57/4 273/58/4 274/59/4 275/60/4 276/61/4 277/62/4 278/63/4 279/64/4 280/65/4 281/66/4 282/67/4 283/68/4 284/69/4 285/70/4 272/71/4 9/71/4 3/72/4 6/73/4 34/73/4 36/74/4 37/75/4 38/76/4 39/77/4 40/78/4 41/79/4 42/80/4 43/81/4 44/82/4 45/83/4 46/84/4 47/85/4 48/86/4 35/87/4 121/88/4 123/89/4 124/90/4 125/91/4 126/92/4 127/93/4 128/94/4 129/95/4 130/96/4 131/97/4 132/98/4 133/99/4 134/100/4 135/101/4 122/102/4 101/102/4 7/103/4 94/43/4
f 50/7/1 13/6/1 17/104/1 65/105/1
f 95/106/3 137/107/3 167/108/3 105/109/3
f 6/110/3 3/41/3 12/36/3 16/35/3
f 101/111/3 122/111/3 152/112/3 102/113/3
f 104/104/1 98/114/1 2/115/1 99/116/1
f 13/38/3 5/37/3 11/32/3 17/31/3
f 11/32/3 18/117/3 8/118/3 4/33/3
f 5/37/3 14/40/3 18/117/3 11/32/3
f 15/3/1 302/2/1 286/20/1 14/19/1
f 65/119/5 20/120/5 33/121/5 78/122/5
f 78/122/6 33/121/6 32/123/6 77/124/6
f 77/124/7 32/123/7 31/125/7 76/126/7
f 76/126/8 31/125/8 30/127/8 75/128/8
f 75/128/9 30/127/9 29/129/9 74/130/9
f 74/130/10 29/129/10 28/131/10 73/132/10
f 73/133/11 28/134/11 27/135/11 72/136/11
f 72/136/12 27/135/12 26/137/12 71/138/12
f 71/138/13 26/137/13 25/139/13 70/140/13
f 70/140/14 25/139/14 24/141/14 69/142/14
f 69/142/15 24/141/15 23/143/15 68/144/15
f 68/144/16 23/143/16 22/145/16 67/146/16
f 67/146/17 22/145/17 21/147/17 66/148/17
f 66/148/18 21/147/18 19/13/18 64/12/18
f 80/149/19 50/150/19 63/151/19 93/152/19
f 93/152/20 63/151/20 62/153/20 92/154/20
f 92/154/21 62/153/21 61/155/21 91/156/21
f 91/156/22 61/155/22 60/157/22 90/158/22
f 90/158/23 60/157/23 59/159/23 89/160/23
f 89/160/24 59/159/24 58/161/24 88/162/24
f 88/162/25 58/161/25 57/163/25 87/164/25
f 87/165/26 57/166/26 56/167/26 86/168/26
f 86/168/27 56/167/27 55/169/27 85/170/27
f 85/170/28 55/169/28 54/171/28 84/172/28
f 84/172/29 54/171/29 53/173/29 83/174/29
f 83/174/30 53/173/30 52/175/30 82/176/30
f 82/176/31 52/175/31 51/177/31 81/178/31
f 81/178/32 51/177/32 49/11/32 79/10/32
f 50/150/19 65/119/19 78/122/19 63/151/19
f 63/151/20 78/122/20 77/124/20 62/153/20
f 62/153/21 77/124/21 76/126/21 61/155/21
f 61/155/22 76/126/22 75/128/22 60/157/22
f 60/157/23 75/128/23 74/130/23 59/159/23
f 59/159/24 74/130/24 73/132/24 58/161/24
f 58/161/25 73/132/25 72/179/25 57/163/25
f 57/166/26 72/136/26 71/138/26 56/167/26
f 56/167/27 71/138/27 70/140/27 55/169/27
f 55/169/28 70/140/28 69/142/28 54/171/28
f 54/171/29 69/142/29 68/144/29 53/173/29
f 53/173/30 68/144/30 67/146/30 52/175/30
f 52/175/31 67/146/31 66/148/31 51/177/31
f 51/177/32 66/148/32 64/12/32 49/11/32
f 34/180/33 80/149/33 93/152/33 36/181/33
f 36/181/34 93/152/34 92/154/34 37/182/34
f 37/182/35 92/154/35 91/156/35 38/183/35
f 38/183/36 91/156/36 90/158/36 39/184/36
f 39/184/37 90/158/37 89/160/37 40/185/37
f 40/185/38 89/160/38 88/162/38 41/186/38
f 41/187/39 88/188/39 87/165/39 42/189/39
f 42/189/40 87/165/40 86/168/40 43/190/40
f 43/190/41 86/168/41 85/170/41 44/191/41
f 44/191/42 85/170/42 84/172/42 45/192/42
f 45/192/43 84/172/43 83/174/43 46/193/43
f 46/193/44 83/174/44 82/176/44 47/194/44
f 47/194/45 82/176/45 81/178/45 48/195/45
f 48/195/46 81/178/46 79/10/46 35/9/46
f 65/105/1 17/104/1 10/116/1 20/116/1
f 103/5/1 100/196/1 1/197/1 96/6/1
f 100/196/1 102/198/1 95/199/1 1/197/1
f 7/200/1 101/201/1 102/198/1 100/196/1
f 196/202/3 94/202/3 103/203/3 242/204/3
f 212/205/3 96/206/3 104/207/3 227/208/3
f 94/18/1 7/200/1 100/196/1 103/5/1
f 106/209/47 108/210/47 109/211/47 110/212/47 111/213/47 112/214/47 113/215/47 114/216/47 115/217/47 116/218/47 117/219/47 118/220/47 119/221/47 120/222/47 107/223/47 19/224/47 21/225/47 22/226/47 23/227/47 24/228/47 25/229/47 26/230/47 27/231/47 28/232/47 29/233/47 30/234/47 31/235/47 32/236/47 33/237/47 20/238/47 10/238/47 4/239/47 8/240/47 256/240/47 258/241/47 259/242/47 260/243/47 261/244/47 262/245/47 263/246/47 264/247/47 265/248/47 266/249/47 267/250/47 268/251/47 269/252/47 270/253/47 257/254/47 181/254/47 183/255/47 184/256/47 185/257/47 186/258/47 187/259/47 188/260/47 189/261/47 190/262/47 191/263/47 192/264/47 193/265/47 194/266/47 195/267/47 182/268/47 99/268/47 2/269/47 97/209/47
f 242/204/3 103/203/3 96/206/3 212/205/3
f 96/6/1 1/197/1 98/114/1 104/104/1
f 98/114/1 105/270/1 97/271/1 2/115/1
f 1/197/1 95/199/1 105/270/1 98/114/1
f 102/113/3 152/112/3 137/107/3 95/106/3
f 152/272/48 122/273/48 135/274/48 165/275/48
f 165/275/49 135/274/49 134/276/49 164/277/49
f 164/277/50 134/276/50 133/278/50 163/279/50
f 163/279/51 133/278/51 132/280/51 162/281/51
f 162/281/52 132/280/52 131/282/52 161/283/52
f 161/283/53 131/282/53 130/284/53 160/285/53
f 160/286/54 130/287/54 129/288/54 159/289/54
f 159/289/55 129/288/55 128/290/55 158/291/55
f 158/291/56 128/290/56 127/292/56 157/293/56
f 157/293/57 127/292/57 126/294/57 156/295/57
f 156/295/58 126/294/58 125/296/58 155/297/58
f 155/297/59 125/296/59 124/298/59 154/299/59
f 154/299/60 124/298/60 123/300/60 153/301/60
f 153/301/61 123/300/61 121/8/61 151/17/61
f 167/302/62 137/303/62 150/304/62 180/305/62
f 180/305/63 150/304/63 149/306/63 179/307/63
f 179/307/64 149/306/64 148/308/64 178/309/64
f 178/309/65 148/308/65 147/310/65 177/311/65
f 177/311/66 147/310/66 146/312/66 176/313/66
f 176/313/67 146/312/67 145/314/67 175/315/67
f 175/315/68 145/314/68 144/316/68 174/317/68
f 174/318/69 144/319/69 143/320/69 173/321/69
f 173/321/70 143/320/70 142/322/70 172/323/70
f 172/323/71 142/322/71 141/324/71 171/325/71
f 171/325/72 141/324/72 140/326/72 170/327/72
f 170/327/73 140/326/73 139/328/73 169/329/73
f 169/329/74 139/328/74 138/330/74 168/331/74
f 168/331/75 138/330/75 136/16/75 166/15/75
f 137/303/62 152/272/62 165/275/62 150/304/62
f 150/304/63 165/275/63 164/277/63 149/306/63
f 149/306/64 164/277/64 163/279/64 148/308/64
f 148/308/65 163/279/65 162/281/65 147/310/65
f 147/310/66 162/281/66 161/283/66 146/312/66
f 146/312/67 161/283/67 160/285/67 145/314/67
f 145/314/68 160/285/68 159/332/68 144/316/68
f 144/319/69 159/289/69 158/291/69 143/320/69
f 143/320/70 158/291/70 157/293/70 142/322/70
f 142/322/71 157/293/71 156/295/71 141/324/71
f 141/324/72 156/295/72 155/297/72 140/326/72
f 140/326/73 155/297/73 154/299/73 139/328/73
f 139/328/74 154/299/74 153/301/74 138/330/74
f 138/330/75 153/301/75 151/17/75 136/16/75
f 106/333/76 167/302/76 180/305/76 108/334/76
f 108/334/77 180/305/77 179/307/77 109/335/77
f 109/335/78 179/307/78 178/309/78 110/336/78
f 110/336/79 178/309/79 177/311/79 111/337/79
f 111/337/80 177/311/80 176/313/80 112/338/80
f 112/338/81 176/313/81 175/315/81 113/339/81
f 113/340/82 175/341/82 174/318/82 114/342/82
f 114/342/83 174/318/83 173/321/83 115/343/83
f 115/343/84 173/321/84 172/323/84 116/344/84
f 116/344/85 172/323/85 171/325/85 117/345/85
f 117/345/86 171/325/86 170/327/86 118/346/86
f 118/346/87 170/327/87 169/329/87 119/347/87
f 119/347/88 169/329/88 168/331/88 120/348/88
f 120/348/89 168/331/89 166/15/89 107/14/89
f 105/109/3 167/108/3 106/349/3 97/349/3
f 227/350/90 182/351/90 195/352/90 240/353/90
f 240/353/91 195/352/91 194/354/91 239/355/91
f 239/355/92 194/354/92 193/356/92 238/357/92
f 238/357/93 193/356/93 192/358/93 237/359/93
f 237/359/94 192/358/94 191/360/94 236/361/94
f 236/361/95 191/360/95 190/362/95 235/363/95
f 235/364/96 190/365/96 189/366/96 234/367/96
f 234/367/97 189/366/97 188/368/97 233/369/97
f 233/369/98 188/368/98 187/370/98 232/371/98
f 232/371/99 187/370/99 186/372/99 231/373/99
f 231/373/100 186/372/100 185/374/100 230/375/100
f 230/375/101 185/374/101 184/376/101 229/377/101
f 229/377/102 184/376/102 183/378/102 228/379/102
f 228/379/103 183/378/103 181/380/103 226/381/103
f 212/382/104 227/350/104 240/353/104 225/383/104
f 225/383/105 240/353/105 239/355/105 224/384/105
f 224/384/106 239/355/106 238/357/106 223/385/106
f 223/385/107 238/357/107 237/359/107 222/386/107
f 222/386/108 237/359/108 236/361/108 221/387/108
f 221/387/109 236/361/109 235/363/109 220/388/109
f 220/388/110 235/363/110 234/389/110 219/390/110
f 219/391/111 234/367/111 233/369/111 218/392/111
f 218/392/112 233/369/112 232/371/112 217/393/112
f 217/393/113 232/371/113 231/373/113 216/394/113
f 216/394/114 231/373/114 230/375/114 215/395/114
f 215/395/115 230/375/115 229/377/115 214/396/115
f 214/396/116 229/377/116 228/379/116 213/397/116
f 213/397/117 228/379/117 226/381/117 211/398/117
f 242/399/104 212/382/104 225/383/104 255/400/104
f 255/400/105 225/383/105 224/384/105 254/401/105
f 254/401/106 224/384/106 223/385/106 253/402/106
f 253/402/107 223/385/107 222/386/107 252/403/107
f 252/403/108 222/386/108 221/387/108 251/404/108
f 251/404/109 221/387/109 220/388/109 250/405/109
f 250/405/110 220/388/110 219/390/110 249/406/110
f 249/407/111 219/391/111 218/392/111 248/408/111
f 248/408/112 218/392/112 217/393/112 247/409/112
f 247/409/113 217/393/113 216/394/113 246/410/113
f 246/410/114 216/394/114 215/395/114 245/411/114
f 245/411/115 215/395/115 214/396/115 244/412/115
f 244/412/116 214/396/116 213/397/116 243/413/116
f 243/413/117 213/397/117 211/398/117 241/414/117
f 196/415/118 242/399/118 255/400/118 198/416/118
f 198/416/119 255/400/119 254/401/119 199/417/119
f 199/417/120 254/401/120 253/402/120 200/418/120
f 200/418/121 253/402/121 252/403/121 201/419/121
f 201/419/122 252/403/122 251/404/122 202/420/122
f 202/420/123 251/404/123 250/405/123 203/421/123
f 203/422/124 250/423/124 249/407/124 204/424/124
f 204/424/125 249/407/125 248/408/125 205/425/125
f 205/425/126 248/408/126 247/409/126 206/426/126
f 206/426/127 247/409/127 246/410/127 207/427/127
f 207/427/128 246/410/128 245/411/128 208/428/128
f 208/428/129 245/411/129 244/412/129 209/429/129
f 209/429/130 244/412/130 243/413/130 210/430/130
f 210/430/131 243/413/131 241/414/131 197/431/131
f 227/208/3 104/207/3 99/432/3 182/432/3
f 302/433/132 272/434/132 285/435/132 315/436/132
f 315/436/133 285/435/133 284/437/133 314/438/133
f 314/438/134 284/437/134 283/439/134 313/440/134
f 313/440/135 283/439/135 282/441/135 312/442/135
f 312/442/136 282/441/136 281/443/136 311/444/136
f 311/444/137 281/443/137 280/445/137 310/446/137
f 310/447/138 280/448/138 279/449/138 309/450/138
f 309/450/139 279/449/139 278/451/139 308/452/139
f 308/452/140 278/451/140 277/453/140 307/454/140
f 307/454/141 277/453/141 276/455/141 306/456/141
f 306/456/142 276/455/142 275/457/142 305/458/142
f 305/458/143 275/457/143 274/459/143 304/460/143
f 304/460/144 274/459/144 273/461/144 303/462/144
f 303/462/145 273/461/145 271/463/145 301/464/145
f 317/465/146 286/466/146 288/467/146 330/468/146
f 330/468/147 288/467/147 289/469/147 329/470/147
f 329/470/148 289/469/148 290/471/148 328/472/148
f 328/472/149 290/471/149 291/473/149 327/474/149
f 327/474/150 291/473/150 292/475/150 326/476/150
f 326/476/151 292/475/151 293/477/151 325/478/151
f 325/478/152 293/477/152 294/479/152 324/480/152
f 324/481/153 294/482/153 295/483/153 323/484/153
f 323/484/154 295/483/154 296/485/154 322/486/154
f 322/486/155 296/485/155 297/487/155 321/488/155
f 321/488/156 297/487/156 298/489/156 320/490/156
f 320/490/157 298/489/157 299/491/157 319/492/157
f 319/492/158 299/491/158 300/493/158 318/494/158
f 318/494/159 300/493/159 287/495/159 316/496/159
f 286/466/146 302/433/146 315/436/146 288/467/146
f 288/467/147 315/436/147 314/438/147 289/469/147
f 289/469/148 314/438/148 313/440/148 290/471/148
f 290/471/149 313/440/149 312/442/149 291/473/149
f 291/473/150 312/442/150 311/444/150 292/475/150
f 292/475/151 311/444/151 310/446/151 293/477/151
f 293/477/152 310/446/152 309/497/152 294/479/152
f 294/482/153 309/450/153 308/452/153 295/483/153
f 295/483/154 308/452/154 307/454/154 296/485/154
f 296/485/155 307/454/155 306/456/155 297/487/155
f 297/487/156 306/456/156 305/458/156 298/489/156
f 298/489/157 305/458/157 304/460/157 299/491/157
f 299/491/158 304/460/158 303/462/158 300/493/158
f 300/493/159 303/462/159 301/464/159 287/495/159
f 256/498/160 317/465/160 330/468/160 258/499/160
f 258/499/161 330/468/161 329/470/161 259/500/161
f 259/500/162 329/470/162 328/472/162 260/501/162
f 260/501/163 328/472/163 327/474/163 261/502/163
f 261/502/164 327/474/164 326/476/164 262/503/164
f 262/503/165 326/476/165 325/478/165 263/504/165
f 263/505/166 325/506/166 324/481/166 264/507/166
f 264/507/167 324/481/167 323/484/167 265/508/167
f 265/508/168 323/484/168 322/486/168 266/509/168
f 266/509/169 322/486/169 321/488/169 267/510/169
f 267/510/170 321/488/170 320/490/170 268/511/170
f 268/511/171 320/490/171 319/492/171 269/512/171
f 269/512/172 319/492/172 318/494/172 270/513/172
f 270/513/173 318/494/173 316/496/173 257/514/173
f 18/22/1 317/21/1 256/515/1 8/515/1
