# Blender 4.3.2
# www.blender.org
mtllib mystreets_lightpost_3corner.mtl
o Cylinder
v -0.002655 -0.000044 -0.100003
v -0.497555 -0.000044 -0.100003
v -0.002655 0.019465 -0.098081
v -0.497555 0.019465 -0.098081
v -0.002655 0.038224 -0.092391
v -0.497555 0.038224 -0.092391
v -0.002655 0.055513 -0.083150
v -0.497555 0.055513 -0.083150
v -0.002655 0.070666 -0.070713
v -0.497555 0.070666 -0.070713
v -0.002655 0.083103 -0.055560
v -0.497555 0.083103 -0.055560
v -0.002655 0.092344 -0.038271
v -0.497555 0.092344 -0.038271
v -0.002655 0.098034 -0.019512
v -0.497555 0.098034 -0.019512
v -0.002655 0.099956 -0.000003
v -0.497555 0.099956 -0.000003
v -0.002655 0.098034 0.019506
v -0.497555 0.098034 0.019506
v -0.002655 0.092344 0.038266
v -0.497555 0.092344 0.038266
v -0.002655 0.083103 0.055554
v -0.497555 0.083103 0.055554
v -0.002655 0.070666 0.070708
v -0.497555 0.070666 0.070708
v -0.002655 0.055513 0.083144
v -0.497555 0.055513 0.083144
v -0.002655 0.038224 0.092385
v -0.497555 0.038224 0.092385
v -0.002655 0.019465 0.098076
v -0.497555 0.019465 0.098076
v -0.002655 -0.000044 0.099997
v -0.497555 -0.000044 0.099997
v -0.002655 -0.019553 0.098076
v -0.497555 -0.019553 0.098076
v -0.002655 -0.038313 0.092385
v -0.497555 -0.038313 0.092385
v -0.002655 -0.055601 0.083144
v -0.497555 -0.055601 0.083144
v -0.002655 -0.070755 0.070708
v -0.497555 -0.070755 0.070708
v -0.002655 -0.083191 0.055554
v -0.497555 -0.083191 0.055554
v -0.002655 -0.092432 0.038266
v -0.497555 -0.092432 0.038266
v -0.002655 -0.098123 0.019506
v -0.497555 -0.098123 0.019506
v -0.002655 -0.100044 -0.000003
v -0.497555 -0.100044 -0.000003
v -0.002655 -0.098123 -0.019512
v -0.497555 -0.098123 -0.019512
v -0.002655 -0.092432 -0.038271
v -0.497555 -0.092432 -0.038271
v -0.002655 -0.083191 -0.055560
v -0.497555 -0.083191 -0.055560
v -0.002655 -0.070755 -0.070713
v -0.497555 -0.070755 -0.070713
v -0.002655 -0.055601 -0.083150
v -0.497555 -0.055601 -0.083150
v -0.002655 -0.038313 -0.092391
v -0.497555 -0.038313 -0.092391
v -0.002655 -0.019553 -0.098081
v -0.497555 -0.019553 -0.098081
vn -0.0000 0.0980 -0.9952
vn -0.0000 0.2903 -0.9569
vn -0.0000 0.4714 -0.8819
vn -0.0000 0.6344 -0.7730
vn -0.0000 0.7730 -0.6344
vn -0.0000 0.8819 -0.4714
vn -0.0000 0.9569 -0.2903
vn -0.0000 0.9952 -0.0980
vn -0.0000 0.9952 0.0980
vn -0.0000 0.9569 0.2903
vn -0.0000 0.8819 0.4714
vn -0.0000 0.7730 0.6344
vn -0.0000 0.6344 0.7730
vn -0.0000 0.4714 0.8819
vn -0.0000 0.2903 0.9569
vn -0.0000 0.0980 0.9952
vn -0.0000 -0.0980 0.9952
vn -0.0000 -0.2903 0.9569
vn -0.0000 -0.4714 0.8819
vn -0.0000 -0.6344 0.7730
vn -0.0000 -0.7730 0.6344
vn -0.0000 -0.8819 0.4714
vn -0.0000 -0.9569 0.2903
vn -0.0000 -0.9952 0.0980
vn -0.0000 -0.9952 -0.0980
vn -0.0000 -0.9569 -0.2903
vn -0.0000 -0.8819 -0.4714
vn -0.0000 -0.7730 -0.6344
vn -0.0000 -0.6344 -0.7730
vn -0.0000 -0.4714 -0.8819
vn -1.0000 -0.0000 -0.0000
vn -0.0000 -0.2903 -0.9569
vn -0.0000 -0.0980 -0.9952
vn 1.0000 -0.0000 -0.0000
vt 0.414214 0.415212
vt 0.414214 -0.000000
vt 0.443061 0.000000
vt 0.443061 0.415212
vt 0.476982 0.000000
vt 0.476982 0.415212
vt 0.514673 0.000000
vt 0.514673 0.415212
vt 0.554686 0.000000
vt 0.554686 0.415212
vt 0.595482 0.000000
vt 0.595482 0.415212
vt 0.635495 0.000000
vt 0.635495 0.415212
vt 0.673186 0.000000
vt 0.673186 0.415212
vt 0.707107 0.000000
vt 0.707107 0.415212
vt 0.735954 0.000000
vt 0.735954 0.415212
vt 0.735954 0.415212
vt 0.735954 0.000000
vt 0.769875 0.000000
vt 0.769875 0.415212
vt 0.807566 0.000000
vt 0.807566 0.415212
vt 0.847579 0.000000
vt 0.847579 0.415212
vt 0.888375 0.000000
vt 0.888375 0.415212
vt 0.928388 0.000000
vt 0.928388 0.415212
vt 0.966079 0.000000
vt 0.966079 0.415212
vt 1.000000 0.000000
vt 1.000000 0.415212
vt 0.707107 0.830424
vt 0.707107 0.415212
vt 0.735954 0.415212
vt 0.735954 0.830424
vt 0.769875 0.415212
vt 0.769875 0.830424
vt 0.807566 0.415212
vt 0.807566 0.830424
vt 0.847579 0.415212
vt 0.847579 0.830424
vt 0.888375 0.415212
vt 0.888375 0.830424
vt 0.928388 0.415212
vt 0.928388 0.830424
vt 0.966079 0.415212
vt 0.966079 0.830424
vt 1.000000 0.415212
vt 1.000000 0.830424
vt 0.414214 0.830424
vt 0.414214 0.415212
vt 0.443061 0.415212
vt 0.443061 0.830424
vt 0.476982 0.415212
vt 0.476982 0.830424
vt 0.514673 0.415212
vt 0.514673 0.830424
vt 0.554686 0.415212
vt 0.554686 0.830424
vt 0.595482 0.415212
vt 0.595482 0.830424
vt 0.635495 0.415212
vt 0.635495 0.830424
vt 0.367977 0.753343
vt 0.339130 0.782191
vt 0.305209 0.804856
vt 0.267518 0.820468
vt 0.227505 0.828427
vt 0.186709 0.828427
vt 0.146696 0.820468
vt 0.109005 0.804856
vt 0.075084 0.782191
vt 0.046236 0.753343
vt 0.023571 0.719422
vt 0.007959 0.681731
vt 0.000000 0.641719
vt -0.000000 0.600922
vt 0.007959 0.560909
vt 0.023571 0.523218
vt 0.046236 0.489297
vt 0.075084 0.460450
vt 0.109005 0.437785
vt 0.146696 0.422172
vt 0.186708 0.414214
vt 0.227505 0.414213
vt 0.267518 0.422172
vt 0.305209 0.437785
vt 0.339130 0.460450
vt 0.367977 0.489297
vt 0.390642 0.523218
vt 0.406254 0.560909
vt 0.414213 0.600922
vt 0.414213 0.641718
vt 0.406255 0.681731
vt 0.390642 0.719422
vt 0.673186 0.415212
vt 0.673186 0.830424
vt 0.707107 0.415212
vt 0.046236 0.339130
vt 0.023571 0.305209
vt 0.007959 0.267518
vt 0.000000 0.227505
vt 0.000000 0.186709
vt 0.007959 0.146696
vt 0.023571 0.109005
vt 0.046236 0.075084
vt 0.075084 0.046236
vt 0.109005 0.023571
vt 0.146696 0.007959
vt 0.186709 0.000000
vt 0.227505 0.000000
vt 0.267518 0.007959
vt 0.305209 0.023571
vt 0.339130 0.046236
vt 0.367977 0.075084
vt 0.390642 0.109005
vt 0.406255 0.146696
vt 0.414214 0.186709
vt 0.414214 0.227505
vt 0.406255 0.267518
vt 0.390642 0.305209
vt 0.367977 0.339130
vt 0.339130 0.367977
vt 0.305209 0.390642
vt 0.267518 0.406255
vt 0.227505 0.414214
vt 0.186709 0.414214
vt 0.146696 0.406255
vt 0.109005 0.390642
vt 0.075084 0.367977
s 0
f 1/1/1 2/2/1 4/3/1 3/4/1
f 3/4/2 4/3/2 6/5/2 5/6/2
f 5/6/3 6/5/3 8/7/3 7/8/3
f 7/8/4 8/7/4 10/9/4 9/10/4
f 9/10/5 10/9/5 12/11/5 11/12/5
f 11/12/6 12/11/6 14/13/6 13/14/6
f 13/14/7 14/13/7 16/15/7 15/16/7
f 15/16/8 16/15/8 18/17/8 17/18/8
f 17/18/9 18/17/9 20/19/9 19/20/9
f 19/21/10 20/22/10 22/23/10 21/24/10
f 21/24/11 22/23/11 24/25/11 23/26/11
f 23/26/12 24/25/12 26/27/12 25/28/12
f 25/28/13 26/27/13 28/29/13 27/30/13
f 27/30/14 28/29/14 30/31/14 29/32/14
f 29/32/15 30/31/15 32/33/15 31/34/15
f 31/34/16 32/33/16 34/35/16 33/36/16
f 33/37/17 34/38/17 36/39/17 35/40/17
f 35/40/18 36/39/18 38/41/18 37/42/18
f 37/42/19 38/41/19 40/43/19 39/44/19
f 39/44/20 40/43/20 42/45/20 41/46/20
f 41/46/21 42/45/21 44/47/21 43/48/21
f 43/48/22 44/47/22 46/49/22 45/50/22
f 45/50/23 46/49/23 48/51/23 47/52/23
f 47/52/24 48/51/24 50/53/24 49/54/24
f 49/55/25 50/56/25 52/57/25 51/58/25
f 51/58/26 52/57/26 54/59/26 53/60/26
f 53/60/27 54/59/27 56/61/27 55/62/27
f 55/62/28 56/61/28 58/63/28 57/64/28
f 57/64/29 58/63/29 60/65/29 59/66/29
f 59/66/30 60/65/30 62/67/30 61/68/30
f 4/69/31 2/70/31 64/71/31 62/72/31 60/73/31 58/74/31 56/75/31 54/76/31 52/77/31 50/78/31 48/79/31 46/80/31 44/81/31 42/82/31 40/83/31 38/84/31 36/85/31 34/86/31 32/87/31 30/88/31 28/89/31 26/90/31 24/91/31 22/92/31 20/93/31 18/94/31 16/95/31 14/96/31 12/97/31 10/98/31 8/99/31 6/100/31
f 61/68/32 62/67/32 64/101/32 63/102/32
f 63/102/33 64/101/33 2/103/33 1/37/33
f 1/104/34 3/105/34 5/106/34 7/107/34 9/108/34 11/109/34 13/110/34 15/111/34 17/112/34 19/113/34 21/114/34 23/115/34 25/116/34 27/117/34 29/118/34 31/119/34 33/120/34 35/121/34 37/122/34 39/123/34 41/124/34 43/125/34 45/126/34 47/127/34 49/128/34 51/129/34 53/130/34 55/131/34 57/132/34 59/133/34 61/134/34 63/135/34
o Cylinder.001
v 0.095195 -0.000044 0.002147
v 0.095195 -0.000044 -0.492753
v 0.093274 0.019465 0.002147
v 0.093274 0.019465 -0.492753
v 0.087583 0.038224 0.002147
v 0.087583 0.038224 -0.492753
v 0.078342 0.055513 0.002147
v 0.078342 0.055513 -0.492753
v 0.065906 0.070666 0.002147
v 0.065906 0.070666 -0.492753
v 0.050752 0.083103 0.002147
v 0.050752 0.083103 -0.492753
v 0.033463 0.092344 0.002147
v 0.033463 0.092344 -0.492753
v 0.014704 0.098034 0.002147
v 0.014704 0.098034 -0.492753
v -0.004805 0.099956 0.002147
v -0.004805 0.099956 -0.492753
v -0.024314 0.098034 0.002147
v -0.024314 0.098034 -0.492753
v -0.043073 0.092344 0.002147
v -0.043073 0.092344 -0.492753
v -0.060362 0.083103 0.002147
v -0.060362 0.083103 -0.492753
v -0.075516 0.070666 0.002147
v -0.075516 0.070666 -0.492753
v -0.087952 0.055513 0.002147
v -0.087952 0.055513 -0.492753
v -0.097193 0.038224 0.002147
v -0.097193 0.038224 -0.492753
v -0.102884 0.019465 0.002147
v -0.102883 0.019465 -0.492753
v -0.104805 -0.000044 0.002147
v -0.104805 -0.000044 -0.492753
v -0.102884 -0.019553 0.002147
v -0.102883 -0.019553 -0.492753
v -0.097193 -0.038313 0.002147
v -0.097193 -0.038313 -0.492753
v -0.087952 -0.055601 0.002147
v -0.087952 -0.055601 -0.492753
v -0.075516 -0.070755 0.002147
v -0.075516 -0.070755 -0.492753
v -0.060362 -0.083191 0.002147
v -0.060362 -0.083191 -0.492753
v -0.043073 -0.092432 0.002147
v -0.043073 -0.092432 -0.492753
v -0.024314 -0.098123 0.002147
v -0.024314 -0.098123 -0.492753
v -0.004805 -0.100044 0.002147
v -0.004805 -0.100044 -0.492753
v 0.014704 -0.098123 0.002147
v 0.014704 -0.098123 -0.492753
v 0.033463 -0.092432 0.002147
v 0.033463 -0.092432 -0.492753
v 0.050752 -0.083191 0.002147
v 0.050752 -0.083191 -0.492753
v 0.065906 -0.070755 0.002147
v 0.065906 -0.070755 -0.492753
v 0.078342 -0.055601 0.002147
v 0.078342 -0.055601 -0.492753
v 0.087583 -0.038313 0.002147
v 0.087583 -0.038313 -0.492753
v 0.093274 -0.019553 0.002147
v 0.093274 -0.019553 -0.492753
vn 0.9952 0.0980 -0.0000
vn 0.9569 0.2903 -0.0000
vn 0.8819 0.4714 -0.0000
vn 0.7730 0.6344 -0.0000
vn 0.6344 0.7730 -0.0000
vn 0.4714 0.8819 -0.0000
vn 0.2903 0.9569 -0.0000
vn 0.0980 0.9952 -0.0000
vn -0.0980 0.9952 -0.0000
vn -0.2903 0.9569 -0.0000
vn -0.4714 0.8819 -0.0000
vn -0.6344 0.7730 -0.0000
vn -0.7730 0.6344 -0.0000
vn -0.8819 0.4714 -0.0000
vn -0.9569 0.2903 -0.0000
vn -0.9952 0.0980 -0.0000
vn -0.9952 -0.0980 -0.0000
vn -0.9569 -0.2903 -0.0000
vn -0.8819 -0.4714 -0.0000
vn -0.7730 -0.6344 -0.0000
vn -0.6344 -0.7730 -0.0000
vn -0.4714 -0.8819 -0.0000
vn -0.2903 -0.9569 -0.0000
vn -0.0980 -0.9952 -0.0000
vn 0.0980 -0.9952 -0.0000
vn 0.2903 -0.9569 -0.0000
vn 0.4714 -0.8819 -0.0000
vn 0.6344 -0.7730 -0.0000
vn 0.7730 -0.6344 -0.0000
vn 0.8819 -0.4714 -0.0000
vn -0.0000 -0.0000 -1.0000
vn 0.9569 -0.2903 -0.0000
vn 0.9952 -0.0980 -0.0000
vn -0.0000 -0.0000 1.0000
vt 0.414214 0.415212
vt 0.414214 -0.000000
vt 0.443061 0.000000
vt 0.443061 0.415212
vt 0.476982 0.000000
vt 0.476982 0.415212
vt 0.514673 0.000000
vt 0.514673 0.415212
vt 0.554686 0.000000
vt 0.554686 0.415212
vt 0.595482 0.000000
vt 0.595482 0.415212
vt 0.635495 0.000000
vt 0.635495 0.415212
vt 0.673186 0.000000
vt 0.673186 0.415212
vt 0.707107 0.000000
vt 0.707107 0.415212
vt 0.735954 0.000000
vt 0.735954 0.415212
vt 0.735954 0.415212
vt 0.735954 0.000000
vt 0.769875 0.000000
vt 0.769875 0.415212
vt 0.807566 0.000000
vt 0.807566 0.415212
vt 0.847579 0.000000
vt 0.847579 0.415212
vt 0.888375 0.000000
vt 0.888375 0.415212
vt 0.928388 0.000000
vt 0.928388 0.415212
vt 0.966079 0.000000
vt 0.966079 0.415212
vt 1.000000 0.000000
vt 1.000000 0.415212
vt 0.707107 0.830424
vt 0.707107 0.415212
vt 0.735954 0.415212
vt 0.735954 0.830424
vt 0.769875 0.415212
vt 0.769875 0.830424
vt 0.807566 0.415212
vt 0.807566 0.830424
vt 0.847579 0.415212
vt 0.847579 0.830424
vt 0.888375 0.415212
vt 0.888375 0.830424
vt 0.928388 0.415212
vt 0.928388 0.830424
vt 0.966079 0.415212
vt 0.966079 0.830424
vt 1.000000 0.415212
vt 1.000000 0.830424
vt 0.414214 0.830424
vt 0.414214 0.415212
vt 0.443061 0.415212
vt 0.443061 0.830424
vt 0.476982 0.415212
vt 0.476982 0.830424
vt 0.514673 0.415212
vt 0.514673 0.830424
vt 0.554686 0.415212
vt 0.554686 0.830424
vt 0.595482 0.415212
vt 0.595482 0.830424
vt 0.635495 0.415212
vt 0.635495 0.830424
vt 0.367977 0.753343
vt 0.339130 0.782191
vt 0.305209 0.804856
vt 0.267518 0.820468
vt 0.227505 0.828427
vt 0.186709 0.828427
vt 0.146696 0.820468
vt 0.109005 0.804856
vt 0.075084 0.782191
vt 0.046236 0.753343
vt 0.023571 0.719422
vt 0.007959 0.681731
vt 0.000000 0.641719
vt -0.000000 0.600922
vt 0.007959 0.560909
vt 0.023571 0.523218
vt 0.046236 0.489297
vt 0.075084 0.460450
vt 0.109005 0.437785
vt 0.146696 0.422172
vt 0.186708 0.414214
vt 0.227505 0.414213
vt 0.267518 0.422172
vt 0.305209 0.437785
vt 0.339130 0.460450
vt 0.367977 0.489297
vt 0.390642 0.523218
vt 0.406254 0.560909
vt 0.414213 0.600922
vt 0.414213 0.641718
vt 0.406255 0.681731
vt 0.390642 0.719422
vt 0.673186 0.415212
vt 0.673186 0.830424
vt 0.707107 0.415212
vt 0.046236 0.339130
vt 0.023571 0.305209
vt 0.007959 0.267518
vt 0.000000 0.227505
vt 0.000000 0.186709
vt 0.007959 0.146696
vt 0.023571 0.109005
vt 0.046236 0.075084
vt 0.075084 0.046236
vt 0.109005 0.023571
vt 0.146696 0.007959
vt 0.186709 0.000000
vt 0.227505 0.000000
vt 0.267518 0.007959
vt 0.305209 0.023571
vt 0.339130 0.046236
vt 0.367977 0.075084
vt 0.390642 0.109005
vt 0.406255 0.146696
vt 0.414214 0.186709
vt 0.414214 0.227505
vt 0.406255 0.267518
vt 0.390642 0.305209
vt 0.367977 0.339130
vt 0.339130 0.367977
vt 0.305209 0.390642
vt 0.267518 0.406255
vt 0.227505 0.414214
vt 0.186709 0.414214
vt 0.146696 0.406255
vt 0.109005 0.390642
vt 0.075084 0.367977
s 0
f 65/136/35 66/137/35 68/138/35 67/139/35
f 67/139/36 68/138/36 70/140/36 69/141/36
f 69/141/37 70/140/37 72/142/37 71/143/37
f 71/143/38 72/142/38 74/144/38 73/145/38
f 73/145/39 74/144/39 76/146/39 75/147/39
f 75/147/40 76/146/40 78/148/40 77/149/40
f 77/149/41 78/148/41 80/150/41 79/151/41
f 79/151/42 80/150/42 82/152/42 81/153/42
f 81/153/43 82/152/43 84/154/43 83/155/43
f 83/156/44 84/157/44 86/158/44 85/159/44
f 85/159/45 86/158/45 88/160/45 87/161/45
f 87/161/46 88/160/46 90/162/46 89/163/46
f 89/163/47 90/162/47 92/164/47 91/165/47
f 91/165/48 92/164/48 94/166/48 93/167/48
f 93/167/49 94/166/49 96/168/49 95/169/49
f 95/169/50 96/168/50 98/170/50 97/171/50
f 97/172/51 98/173/51 100/174/51 99/175/51
f 99/175/52 100/174/52 102/176/52 101/177/52
f 101/177/53 102/176/53 104/178/53 103/179/53
f 103/179/54 104/178/54 106/180/54 105/181/54
f 105/181/55 106/180/55 108/182/55 107/183/55
f 107/183/56 108/182/56 110/184/56 109/185/56
f 109/185/57 110/184/57 112/186/57 111/187/57
f 111/187/58 112/186/58 114/188/58 113/189/58
f 113/190/59 114/191/59 116/192/59 115/193/59
f 115/193/60 116/192/60 118/194/60 117/195/60
f 117/195/61 118/194/61 120/196/61 119/197/61
f 119/197/62 120/196/62 122/198/62 121/199/62
f 121/199/63 122/198/63 124/200/63 123/201/63
f 123/201/64 124/200/64 126/202/64 125/203/64
f 68/204/65 66/205/65 128/206/65 126/207/65 124/208/65 122/209/65 120/210/65 118/211/65 116/212/65 114/213/65 112/214/65 110/215/65 108/216/65 106/217/65 104/218/65 102/219/65 100/220/65 98/221/65 96/222/65 94/223/65 92/224/65 90/225/65 88/226/65 86/227/65 84/228/65 82/229/65 80/230/65 78/231/65 76/232/65 74/233/65 72/234/65 70/235/65
f 125/203/66 126/202/66 128/236/66 127/237/66
f 127/237/67 128/236/67 66/238/67 65/172/67
f 65/239/68 67/240/68 69/241/68 71/242/68 73/243/68 75/244/68 77/245/68 79/246/68 81/247/68 83/248/68 85/249/68 87/250/68 89/251/68 91/252/68 93/253/68 95/254/68 97/255/68 99/256/68 101/257/68 103/258/68 105/259/68 107/260/68 109/261/68 111/262/68 113/263/68 115/264/68 117/265/68 119/266/68 121/267/68 123/268/68 125/269/68 127/270/68
o Cylinder.002
v 0.095195 -0.500044 -0.000003
v 0.095195 -0.000311 -0.000003
v 0.093274 -0.500044 0.019506
v 0.093274 -0.000311 0.019506
v 0.087583 -0.500044 0.038266
v 0.087583 -0.000311 0.038266
v 0.078342 -0.500044 0.055554
v 0.078342 -0.000311 0.055554
v 0.065906 -0.500044 0.070708
v 0.065906 -0.000311 0.070708
v 0.050752 -0.500044 0.083144
v 0.050752 -0.000311 0.083144
v 0.033463 -0.500044 0.092385
v 0.033464 -0.000311 0.092385
v 0.014704 -0.500044 0.098076
v 0.014704 -0.000311 0.098076
v -0.004805 -0.500044 0.099997
v -0.004805 -0.000311 0.099997
v -0.024314 -0.500044 0.098076
v -0.024314 -0.000311 0.098076
v -0.043073 -0.500044 0.092385
v -0.043073 -0.000311 0.092385
v -0.060362 -0.500044 0.083144
v -0.060362 -0.000311 0.083144
v -0.075516 -0.500044 0.070708
v -0.075515 -0.000311 0.070708
v -0.087952 -0.500044 0.055554
v -0.087952 -0.000311 0.055554
v -0.097193 -0.500044 0.038266
v -0.097193 -0.000311 0.038266
v -0.102883 -0.500044 0.019506
v -0.102883 -0.000311 0.019506
v -0.104805 -0.500044 -0.000003
v -0.104805 -0.000311 -0.000003
v -0.102883 -0.500044 -0.019512
v -0.102883 -0.000311 -0.019512
v -0.097193 -0.500044 -0.038271
v -0.097193 -0.000311 -0.038271
v -0.087952 -0.500044 -0.055560
v -0.087952 -0.000311 -0.055560
v -0.075516 -0.500044 -0.070713
v -0.075515 -0.000311 -0.070713
v -0.060362 -0.500044 -0.083150
v -0.060362 -0.000311 -0.083150
v -0.043073 -0.500044 -0.092391
v -0.043073 -0.000311 -0.092391
v -0.024314 -0.500044 -0.098081
v -0.024314 -0.000311 -0.098081
v -0.004805 -0.500044 -0.100003
v -0.004805 -0.000311 -0.100003
v 0.014704 -0.500044 -0.098081
v 0.014704 -0.000311 -0.098081
v 0.033463 -0.500044 -0.092391
v 0.033464 -0.000311 -0.092391
v 0.050752 -0.500044 -0.083150
v 0.050752 -0.000311 -0.083150
v 0.065906 -0.500044 -0.070713
v 0.065906 -0.000311 -0.070713
v 0.078342 -0.500044 -0.055560
v 0.078342 -0.000311 -0.055560
v 0.087583 -0.500044 -0.038271
v 0.087583 -0.000311 -0.038271
v 0.093274 -0.500044 -0.019512
v 0.093274 -0.000311 -0.019512
vn 0.9952 -0.0000 0.0980
vn 0.9569 -0.0000 0.2903
vn 0.8819 -0.0000 0.4714
vn 0.7730 -0.0000 0.6344
vn 0.6344 -0.0000 0.7730
vn 0.4714 -0.0000 0.8819
vn 0.2903 -0.0000 0.9569
vn 0.0980 -0.0000 0.9952
vn -0.0980 -0.0000 0.9952
vn -0.2903 -0.0000 0.9569
vn -0.4714 -0.0000 0.8819
vn -0.6344 -0.0000 0.7730
vn -0.7730 -0.0000 0.6344
vn -0.8819 -0.0000 0.4714
vn -0.9569 -0.0000 0.2903
vn -0.9952 -0.0000 0.0980
vn -0.9952 -0.0000 -0.0980
vn -0.9569 -0.0000 -0.2903
vn -0.8819 -0.0000 -0.4714
vn -0.7730 -0.0000 -0.6344
vn -0.6344 -0.0000 -0.7730
vn -0.4714 -0.0000 -0.8819
vn -0.2903 -0.0000 -0.9569
vn -0.0980 -0.0000 -0.9952
vn 0.0980 -0.0000 -0.9952
vn 0.2903 -0.0000 -0.9569
vn 0.4714 -0.0000 -0.8819
vn 0.6344 -0.0000 -0.7730
vn 0.7730 -0.0000 -0.6344
vn 0.8819 -0.0000 -0.4714
vn -0.0000 1.0000 -0.0000
vn 0.9569 -0.0000 -0.2903
vn 0.9952 -0.0000 -0.0980
vn -0.0000 -1.0000 -0.0000
vt 0.414214 0.415212
vt 0.414214 -0.000000
vt 0.443061 0.000000
vt 0.443061 0.415212
vt 0.476982 0.000000
vt 0.476982 0.415212
vt 0.514673 0.000000
vt 0.514673 0.415212
vt 0.554686 0.000000
vt 0.554686 0.415212
vt 0.595482 0.000000
vt 0.595482 0.415212
vt 0.635495 0.000000
vt 0.635495 0.415212
vt 0.673186 0.000000
vt 0.673186 0.415212
vt 0.707107 0.000000
vt 0.707107 0.415212
vt 0.735954 0.000000
vt 0.735954 0.415212
vt 0.735954 0.415212
vt 0.735954 0.000000
vt 0.769875 0.000000
vt 0.769875 0.415212
vt 0.807566 0.000000
vt 0.807566 0.415212
vt 0.847579 0.000000
vt 0.847579 0.415212
vt 0.888375 0.000000
vt 0.888375 0.415212
vt 0.928388 0.000000
vt 0.928388 0.415212
vt 0.966079 0.000000
vt 0.966079 0.415212
vt 1.000000 0.000000
vt 1.000000 0.415212
vt 0.707107 0.830424
vt 0.707107 0.415212
vt 0.735954 0.415212
vt 0.735954 0.830424
vt 0.769875 0.415212
vt 0.769875 0.830424
vt 0.807566 0.415212
vt 0.807566 0.830424
vt 0.847579 0.415212
vt 0.847579 0.830424
vt 0.888375 0.415212
vt 0.888375 0.830424
vt 0.928388 0.415212
vt 0.928388 0.830424
vt 0.966079 0.415212
vt 0.966079 0.830424
vt 1.000000 0.415212
vt 1.000000 0.830424
vt 0.414214 0.830424
vt 0.414214 0.415212
vt 0.443061 0.415212
vt 0.443061 0.830424
vt 0.476982 0.415212
vt 0.476982 0.830424
vt 0.514673 0.415212
vt 0.514673 0.830424
vt 0.554686 0.415212
vt 0.554686 0.830424
vt 0.595482 0.415212
vt 0.595482 0.830424
vt 0.635495 0.415212
vt 0.635495 0.830424
vt 0.367977 0.753343
vt 0.339130 0.782191
vt 0.305209 0.804856
vt 0.267518 0.820468
vt 0.227505 0.828427
vt 0.186709 0.828427
vt 0.146696 0.820468
vt 0.109005 0.804856
vt 0.075084 0.782191
vt 0.046236 0.753343
vt 0.023571 0.719422
vt 0.007959 0.681731
vt 0.000000 0.641719
vt -0.000000 0.600922
vt 0.007959 0.560909
vt 0.023571 0.523218
vt 0.046236 0.489297
vt 0.075084 0.460450
vt 0.109005 0.437785
vt 0.146696 0.422172
vt 0.186708 0.414214
vt 0.227505 0.414213
vt 0.267518 0.422172
vt 0.305209 0.437785
vt 0.339130 0.460450
vt 0.367977 0.489297
vt 0.390642 0.523218
vt 0.406254 0.560909
vt 0.414213 0.600922
vt 0.414213 0.641718
vt 0.406255 0.681731
vt 0.390642 0.719422
vt 0.673186 0.415212
vt 0.673186 0.830424
vt 0.707107 0.415212
vt 0.046236 0.339130
vt 0.023571 0.305209
vt 0.007959 0.267518
vt 0.000000 0.227505
vt 0.000000 0.186709
vt 0.007959 0.146696
vt 0.023571 0.109005
vt 0.046236 0.075084
vt 0.075084 0.046236
vt 0.109005 0.023571
vt 0.146696 0.007959
vt 0.186709 0.000000
vt 0.227505 0.000000
vt 0.267518 0.007959
vt 0.305209 0.023571
vt 0.339130 0.046236
vt 0.367977 0.075084
vt 0.390642 0.109005
vt 0.406255 0.146696
vt 0.414214 0.186709
vt 0.414214 0.227505
vt 0.406255 0.267518
vt 0.390642 0.305209
vt 0.367977 0.339130
vt 0.339130 0.367977
vt 0.305209 0.390642
vt 0.267518 0.406255
vt 0.227505 0.414214
vt 0.186709 0.414214
vt 0.146696 0.406255
vt 0.109005 0.390642
vt 0.075084 0.367977
s 0
f 129/271/69 130/272/69 132/273/69 131/274/69
f 131/274/70 132/273/70 134/275/70 133/276/70
f 133/276/71 134/275/71 136/277/71 135/278/71
f 135/278/72 136/277/72 138/279/72 137/280/72
f 137/280/73 138/279/73 140/281/73 139/282/73
f 139/282/74 140/281/74 142/283/74 141/284/74
f 141/284/75 142/283/75 144/285/75 143/286/75
f 143/286/76 144/285/76 146/287/76 145/288/76
f 145/288/77 146/287/77 148/289/77 147/290/77
f 147/291/78 148/292/78 150/293/78 149/294/78
f 149/294/79 150/293/79 152/295/79 151/296/79
f 151/296/80 152/295/80 154/297/80 153/298/80
f 153/298/81 154/297/81 156/299/81 155/300/81
f 155/300/82 156/299/82 158/301/82 157/302/82
f 157/302/83 158/301/83 160/303/83 159/304/83
f 159/304/84 160/303/84 162/305/84 161/306/84
f 161/307/85 162/308/85 164/309/85 163/310/85
f 163/310/86 164/309/86 166/311/86 165/312/86
f 165/312/87 166/311/87 168/313/87 167/314/87
f 167/314/88 168/313/88 170/315/88 169/316/88
f 169/316/89 170/315/89 172/317/89 171/318/89
f 171/318/90 172/317/90 174/319/90 173/320/90
f 173/320/91 174/319/91 176/321/91 175/322/91
f 175/322/92 176/321/92 178/323/92 177/324/92
f 177/325/93 178/326/93 180/327/93 179/328/93
f 179/328/94 180/327/94 182/329/94 181/330/94
f 181/330/95 182/329/95 184/331/95 183/332/95
f 183/332/96 184/331/96 186/333/96 185/334/96
f 185/334/97 186/333/97 188/335/97 187/336/97
f 187/336/98 188/335/98 190/337/98 189/338/98
f 132/339/99 130/340/99 192/341/99 190/342/99 188/343/99 186/344/99 184/345/99 182/346/99 180/347/99 178/348/99 176/349/99 174/350/99 172/351/99 170/352/99 168/353/99 166/354/99 164/355/99 162/356/99 160/357/99 158/358/99 156/359/99 154/360/99 152/361/99 150/362/99 148/363/99 146/364/99 144/365/99 142/366/99 140/367/99 138/368/99 136/369/99 134/370/99
f 189/338/100 190/337/100 192/371/100 191/372/100
f 191/372/101 192/371/101 130/373/101 129/307/101
f 129/374/102 131/375/102 133/376/102 135/377/102 137/378/102 139/379/102 141/380/102 143/381/102 145/382/102 147/383/102 149/384/102 151/385/102 153/386/102 155/387/102 157/388/102 159/389/102 161/390/102 163/391/102 165/392/102 167/393/102 169/394/102 171/395/102 173/396/102 175/397/102 177/398/102 179/399/102 181/400/102 183/401/102 185/402/102 187/403/102 189/404/102 191/405/102
o Sphere
v -0.002471 0.079741 -0.055415
v -0.002471 0.052151 -0.083005
v -0.002471 0.016103 -0.097937
v -0.002471 -0.003406 -0.099858
v -0.002471 -0.022915 -0.097937
v -0.002471 -0.058963 -0.083005
v 0.001335 0.094673 -0.018992
v 0.004995 0.088982 -0.037391
v 0.008368 0.079741 -0.054348
v 0.011324 0.067305 -0.069210
v 0.013750 0.052151 -0.081408
v 0.015553 0.034862 -0.090471
v 0.016663 0.016103 -0.096052
v 0.017038 -0.003406 -0.097937
v 0.016663 -0.022915 -0.096052
v 0.015553 -0.041674 -0.090471
v 0.013750 -0.058963 -0.081408
v 0.011324 -0.074117 -0.069210
v 0.008368 -0.086553 -0.054348
v 0.004995 -0.095794 -0.037391
v 0.001335 -0.101484 -0.018992
v 0.004995 0.094673 -0.017882
v 0.012174 0.088982 -0.035214
v 0.018790 0.079741 -0.051186
v 0.024589 0.067305 -0.065186
v 0.029348 0.052151 -0.076676
v 0.032885 0.034862 -0.085214
v 0.035062 0.016103 -0.090471
v 0.035798 -0.003406 -0.092246
v 0.035062 -0.022915 -0.090471
v 0.032885 -0.041674 -0.085214
v 0.029348 -0.058963 -0.076676
v 0.024589 -0.074117 -0.065186
v 0.018790 -0.086553 -0.051186
v 0.012174 -0.095794 -0.035214
v 0.004995 -0.101484 -0.017882
v 0.008368 0.094673 -0.016079
v 0.018790 0.088982 -0.031677
v 0.028395 0.079741 -0.046052
v 0.036814 0.067305 -0.058652
v 0.043723 0.052151 -0.068992
v 0.048857 0.034862 -0.076676
v 0.052019 0.016103 -0.081408
v 0.053086 -0.003406 -0.083005
v 0.052019 -0.022915 -0.081408
v 0.048857 -0.041674 -0.076676
v 0.043723 -0.058963 -0.068992
v 0.036814 -0.074117 -0.058652
v 0.028395 -0.086553 -0.046052
v 0.018790 -0.095794 -0.031677
v 0.008368 -0.101484 -0.016079
v 0.011324 0.094673 -0.013653
v 0.024589 0.088982 -0.026918
v 0.036814 0.079741 -0.039143
v 0.047529 0.067305 -0.049858
v 0.056323 0.052151 -0.058652
v 0.062857 0.034862 -0.065186
v 0.066881 0.016103 -0.069210
v 0.068240 -0.003406 -0.070569
v 0.066881 -0.022915 -0.069210
v 0.062857 -0.041674 -0.065186
v 0.056323 -0.058963 -0.058652
v 0.047529 -0.074117 -0.049858
v 0.036814 -0.086553 -0.039143
v 0.024589 -0.095794 -0.026918
v 0.011324 -0.101484 -0.013653
v 0.013751 0.094673 -0.010697
v 0.029348 0.088982 -0.021119
v 0.043723 0.079741 -0.030724
v 0.056323 0.067305 -0.039143
v 0.066663 0.052151 -0.046052
v 0.074347 0.034862 -0.051186
v 0.079079 0.016103 -0.054348
v 0.080676 -0.003406 -0.055415
v 0.079079 -0.022915 -0.054348
v 0.074347 -0.041674 -0.051186
v 0.066663 -0.058963 -0.046052
v 0.056323 -0.074117 -0.039143
v 0.043723 -0.086553 -0.030724
v 0.029348 -0.095794 -0.021119
v 0.013751 -0.101484 -0.010697
v -0.002471 0.096594 0.000142
v 0.015553 0.094673 -0.007324
v 0.032885 0.088982 -0.014503
v 0.048857 0.079741 -0.021119
v 0.062857 0.067305 -0.026918
v 0.074347 0.052151 -0.031677
v 0.082885 0.034862 -0.035214
v 0.088142 0.016103 -0.037391
v 0.089917 -0.003406 -0.038127
v 0.088142 -0.022915 -0.037391
v 0.082885 -0.041674 -0.035214
v 0.074347 -0.058963 -0.031677
v 0.062857 -0.074117 -0.026918
v 0.048857 -0.086553 -0.021119
v 0.032885 -0.095794 -0.014503
v 0.015553 -0.101484 -0.007324
v 0.016664 0.094673 -0.003664
v 0.035062 0.088982 -0.007324
v 0.052019 0.079741 -0.010697
v 0.066881 0.067305 -0.013653
v 0.079079 0.052151 -0.016079
v 0.088142 0.034862 -0.017882
v 0.093723 0.016103 -0.018992
v 0.095608 -0.003406 -0.019367
v 0.093723 -0.022915 -0.018992
v 0.088142 -0.041674 -0.017882
v 0.079079 -0.058963 -0.016079
v 0.066881 -0.074117 -0.013653
v 0.052019 -0.086553 -0.010697
v 0.035062 -0.095794 -0.007324
v 0.016664 -0.101484 -0.003664
v 0.017038 0.094673 0.000142
v 0.035798 0.088982 0.000142
v 0.053086 0.079741 0.000142
v 0.068240 0.067305 0.000142
v 0.080676 0.052151 0.000142
v 0.089917 0.034862 0.000142
v 0.095608 0.016103 0.000142
v 0.097529 -0.003406 0.000142
v 0.095608 -0.022915 0.000142
v 0.089917 -0.041674 0.000142
v 0.080676 -0.058963 0.000142
v 0.068240 -0.074117 0.000142
v 0.053086 -0.086553 0.000142
v 0.035798 -0.095794 0.000142
v 0.017038 -0.101484 0.000142
v 0.016664 0.094673 0.003948
v 0.035062 0.088982 0.007608
v 0.052019 0.079741 0.010980
v 0.066881 0.067305 0.013937
v 0.079079 0.052151 0.016363
v 0.088142 0.034862 0.018166
v 0.093723 0.016103 0.019276
v 0.095608 -0.003406 0.019651
v 0.093723 -0.022915 0.019276
v 0.088142 -0.041674 0.018166
v 0.079079 -0.058963 0.016363
v 0.066881 -0.074117 0.013937
v 0.052019 -0.086553 0.010980
v 0.035062 -0.095794 0.007608
v 0.016664 -0.101484 0.003948
v 0.015553 0.094673 0.007608
v 0.032885 0.088982 0.014786
v 0.048857 0.079741 0.021402
v 0.062858 0.067305 0.027202
v 0.074347 0.052151 0.031961
v 0.082885 0.034862 0.035497
v 0.088142 0.016103 0.037675
v 0.089917 -0.003406 0.038410
v 0.088142 -0.022915 0.037675
v 0.082885 -0.041674 0.035497
v 0.074347 -0.058963 0.031961
v 0.062858 -0.074117 0.027202
v 0.048857 -0.086553 0.021402
v 0.032885 -0.095794 0.014786
v 0.015553 -0.101484 0.007608
v 0.013751 0.094673 0.010980
v 0.029348 0.088982 0.021403
v 0.043723 0.079741 0.031008
v 0.056323 0.067305 0.039426
v 0.066664 0.052151 0.046336
v 0.074347 0.034862 0.051470
v 0.079079 0.016103 0.054631
v 0.080676 -0.003406 0.055699
v 0.079079 -0.022915 0.054631
v 0.074347 -0.041674 0.051470
v 0.066664 -0.058963 0.046336
v 0.056323 -0.074117 0.039426
v 0.043723 -0.086553 0.031008
v 0.029348 -0.095794 0.021403
v 0.013751 -0.101484 0.010980
v 0.011324 0.094673 0.013937
v 0.024589 0.088982 0.027202
v 0.036814 0.079741 0.039426
v 0.047529 0.067305 0.050142
v 0.056323 0.052151 0.058936
v 0.062858 0.034862 0.065470
v 0.066881 0.016103 0.069494
v 0.068240 -0.003406 0.070852
v 0.066881 -0.022915 0.069494
v 0.062858 -0.041674 0.065470
v 0.056323 -0.058963 0.058936
v 0.047529 -0.074117 0.050142
v 0.036814 -0.086553 0.039426
v 0.024589 -0.095794 0.027202
v 0.011324 -0.101484 0.013937
v 0.008368 0.094673 0.016363
v 0.018790 0.088982 0.031961
v 0.028395 0.079741 0.046336
v 0.036814 0.067305 0.058936
v 0.043723 0.052151 0.069276
v 0.048857 0.034862 0.076960
v 0.052019 0.016103 0.081691
v 0.053086 -0.003406 0.083289
v 0.052019 -0.022915 0.081691
v 0.048857 -0.041674 0.076960
v 0.043723 -0.058963 0.069276
v 0.036814 -0.074117 0.058936
v 0.028395 -0.086553 0.046336
v 0.018790 -0.095794 0.031961
v 0.008368 -0.101484 0.016363
v 0.004995 0.094673 0.018166
v 0.012174 0.088982 0.035497
v 0.018790 0.079741 0.051470
v 0.024589 0.067305 0.065470
v 0.029348 0.052151 0.076960
v 0.032885 0.034862 0.085497
v 0.035062 0.016103 0.090754
v 0.035798 -0.003406 0.092530
v 0.035062 -0.022915 0.090754
v 0.032885 -0.041674 0.085497
v 0.029348 -0.058963 0.076960
v 0.024589 -0.074117 0.065470
v 0.018790 -0.086553 0.051470
v 0.012174 -0.095794 0.035497
v 0.004995 -0.101484 0.018166
v 0.001335 0.094673 0.019276
v 0.004995 0.088982 0.037675
v 0.008368 0.079741 0.054631
v 0.011324 0.067305 0.069494
v 0.013751 0.052151 0.081691
v 0.015553 0.034862 0.090754
v 0.016664 0.016103 0.096336
v 0.017038 -0.003406 0.098220
v 0.016664 -0.022915 0.096336
v 0.015553 -0.041674 0.090754
v 0.013751 -0.058963 0.081691
v 0.011324 -0.074117 0.069494
v 0.008368 -0.086553 0.054631
v 0.004995 -0.095794 0.037675
v 0.001335 -0.101484 0.019276
v -0.002471 0.094673 0.019651
v -0.002471 0.088982 0.038410
v -0.002471 0.079741 0.055699
v -0.002471 0.067305 0.070852
v -0.002471 0.052151 0.083289
v -0.002471 0.034862 0.092530
v -0.002471 0.016103 0.098220
v -0.002471 -0.003406 0.100142
v -0.002471 -0.022915 0.098220
v -0.002471 -0.041674 0.092530
v -0.002471 -0.058963 0.083289
v -0.002471 -0.074117 0.070852
v -0.002471 -0.086553 0.055699
v -0.002471 -0.095794 0.038410
v -0.002471 -0.101484 0.019651
v -0.006277 0.094673 0.019276
v -0.009936 0.088982 0.037675
v -0.013309 0.079741 0.054631
v -0.016266 0.067305 0.069494
v -0.018692 0.052151 0.081691
v -0.020495 0.034862 0.090755
v -0.021605 0.016103 0.096336
v -0.021980 -0.003406 0.098220
v -0.021605 -0.022915 0.096336
v -0.020495 -0.041674 0.090755
v -0.018692 -0.058963 0.081691
v -0.016266 -0.074117 0.069494
v -0.013309 -0.086553 0.054631
v -0.009936 -0.095794 0.037675
v -0.006277 -0.101484 0.019276
v -0.009936 0.094673 0.018166
v -0.017115 0.088982 0.035497
v -0.023731 0.079741 0.051470
v -0.029530 0.067305 0.065470
v -0.034290 0.052151 0.076960
v -0.037826 0.034862 0.085497
v -0.040004 0.016103 0.090755
v -0.040739 -0.003406 0.092530
v -0.040004 -0.022915 0.090755
v -0.037826 -0.041674 0.085497
v -0.034290 -0.058963 0.076960
v -0.029530 -0.074117 0.065470
v -0.023731 -0.086553 0.051470
v -0.017115 -0.095794 0.035497
v -0.009936 -0.101484 0.018166
v -0.013309 0.094673 0.016363
v -0.023731 0.088982 0.031961
v -0.033336 0.079741 0.046336
v -0.041755 0.067305 0.058936
v -0.048665 0.052151 0.069276
v -0.053799 0.034862 0.076960
v -0.056960 0.016103 0.081691
v -0.058028 -0.003406 0.083289
v -0.056960 -0.022915 0.081691
v -0.053799 -0.041674 0.076960
v -0.048665 -0.058963 0.069276
v -0.041755 -0.074117 0.058936
v -0.033336 -0.086553 0.046336
v -0.023731 -0.095794 0.031961
v -0.013309 -0.101484 0.016363
v -0.016266 0.094673 0.013937
v -0.029530 0.088982 0.027202
v -0.041755 0.079741 0.039427
v -0.052471 0.067305 0.050142
v -0.061264 0.052151 0.058936
v -0.067799 0.034862 0.065470
v -0.071823 0.016103 0.069494
v -0.073181 -0.003406 0.070852
v -0.071823 -0.022915 0.069494
v -0.067799 -0.041674 0.065470
v -0.061264 -0.058963 0.058936
v -0.052471 -0.074117 0.050142
v -0.041755 -0.086553 0.039427
v -0.029530 -0.095794 0.027202
v -0.016266 -0.101484 0.013937
v -0.002471 -0.103406 0.000142
v -0.018692 0.094673 0.010980
v -0.034290 0.088982 0.021403
v -0.048665 0.079741 0.031008
v -0.061264 0.067305 0.039427
v -0.071605 0.052151 0.046336
v -0.079288 0.034862 0.051470
v -0.084020 0.016103 0.054631
v -0.085618 -0.003406 0.055699
v -0.084020 -0.022915 0.054631
v -0.079288 -0.041674 0.051470
v -0.071605 -0.058963 0.046336
v -0.061264 -0.074117 0.039427
v -0.048665 -0.086553 0.031008
v -0.034290 -0.095794 0.021403
v -0.018692 -0.101484 0.010980
v -0.020495 0.094673 0.007608
v -0.037826 0.088982 0.014786
v -0.053799 0.079741 0.021403
v -0.067799 0.067305 0.027202
v -0.079288 0.052151 0.031961
v -0.087826 0.034862 0.035497
v -0.093083 0.016103 0.037675
v -0.094859 -0.003406 0.038410
v -0.093083 -0.022915 0.037675
v -0.087826 -0.041674 0.035497
v -0.079288 -0.058963 0.031961
v -0.067799 -0.074117 0.027202
v -0.053799 -0.086553 0.021403
v -0.037826 -0.095794 0.014786
v -0.020495 -0.101484 0.007608
v -0.021605 0.094673 0.003948
v -0.040004 0.088982 0.007608
v -0.056960 0.079741 0.010980
v -0.071823 0.067305 0.013937
v -0.084020 0.052151 0.016363
v -0.093083 0.034862 0.018166
v -0.098665 0.016103 0.019276
v -0.100549 -0.003406 0.019651
v -0.098665 -0.022915 0.019276
v -0.093083 -0.041674 0.018166
v -0.084020 -0.058963 0.016363
v -0.071823 -0.074117 0.013937
v -0.056960 -0.086553 0.010980
v -0.040004 -0.095794 0.007608
v -0.021605 -0.101484 0.003948
v -0.021980 0.094673 0.000142
v -0.040739 0.088982 0.000142
v -0.058028 0.079741 0.000142
v -0.073181 0.067305 0.000142
v -0.085618 0.052151 0.000142
v -0.094859 0.034862 0.000142
v -0.100549 0.016103 0.000142
v -0.102471 -0.003406 0.000142
v -0.100549 -0.022915 0.000142
v -0.094859 -0.041674 0.000142
v -0.085618 -0.058963 0.000142
v -0.073181 -0.074117 0.000142
v -0.058028 -0.086553 0.000142
v -0.040739 -0.095794 0.000142
v -0.021980 -0.101484 0.000142
v -0.021605 0.094673 -0.003664
v -0.040004 0.088982 -0.007324
v -0.056960 0.079741 -0.010697
v -0.071823 0.067305 -0.013653
v -0.084020 0.052151 -0.016079
v -0.093083 0.034862 -0.017882
v -0.098665 0.016103 -0.018992
v -0.100549 -0.003406 -0.019367
v -0.098665 -0.022915 -0.018992
v -0.093083 -0.041674 -0.017882
v -0.084020 -0.058963 -0.016079
v -0.071823 -0.074117 -0.013653
v -0.056960 -0.086553 -0.010697
v -0.040004 -0.095794 -0.007324
v -0.021605 -0.101484 -0.003664
v -0.020495 0.094673 -0.007324
v -0.037826 0.088982 -0.014503
v -0.053799 0.079741 -0.021119
v -0.067799 0.067305 -0.026918
v -0.079288 0.052151 -0.031677
v -0.087826 0.034862 -0.035213
v -0.093083 0.016103 -0.037391
v -0.094859 -0.003406 -0.038127
v -0.093083 -0.022915 -0.037391
v -0.087826 -0.041674 -0.035213
v -0.079288 -0.058963 -0.031677
v -0.067799 -0.074117 -0.026918
v -0.053799 -0.086553 -0.021119
v -0.037826 -0.095794 -0.014503
v -0.020495 -0.101484 -0.007324
v -0.018692 0.094673 -0.010697
v -0.034290 0.088982 -0.021119
v -0.048665 0.079741 -0.030724
v -0.061264 0.067305 -0.039143
v -0.071605 0.052151 -0.046052
v -0.079288 0.034862 -0.051186
v -0.084020 0.016103 -0.054348
v -0.085618 -0.003406 -0.055415
v -0.084020 -0.022915 -0.054348
v -0.079288 -0.041674 -0.051186
v -0.071605 -0.058963 -0.046052
v -0.061264 -0.074117 -0.039143
v -0.048665 -0.086553 -0.030724
v -0.034290 -0.095794 -0.021119
v -0.018692 -0.101484 -0.010697
v -0.016266 0.094673 -0.013653
v -0.029530 0.088982 -0.026918
v -0.041755 0.079741 -0.039143
v -0.052471 0.067305 -0.049858
v -0.061264 0.052151 -0.058652
v -0.067799 0.034862 -0.065186
v -0.071823 0.016103 -0.069210
v -0.073181 -0.003406 -0.070569
v -0.071823 -0.022915 -0.069210
v -0.067799 -0.041674 -0.065186
v -0.061264 -0.058963 -0.058652
v -0.052471 -0.074117 -0.049858
v -0.041755 -0.086553 -0.039143
v -0.029530 -0.095794 -0.026918
v -0.016266 -0.101484 -0.013653
v -0.013309 0.094673 -0.016079
v -0.023731 0.088982 -0.031677
v -0.033336 0.079741 -0.046052
v -0.041755 0.067305 -0.058652
v -0.048665 0.052151 -0.068992
v -0.053799 0.034862 -0.076676
v -0.056960 0.016103 -0.081407
v -0.058028 -0.003406 -0.083005
v -0.056960 -0.022915 -0.081407
v -0.053799 -0.041674 -0.076676
v -0.048665 -0.058963 -0.068992
v -0.041755 -0.074117 -0.058652
v -0.033336 -0.086553 -0.046052
v -0.023731 -0.095794 -0.031677
v -0.013309 -0.101484 -0.016079
v -0.009936 0.094673 -0.017882
v -0.017115 0.088982 -0.035214
v -0.023731 0.079741 -0.051186
v -0.029530 0.067305 -0.065186
v -0.034290 0.052151 -0.076676
v -0.037826 0.034862 -0.085214
v -0.040004 0.016103 -0.090471
v -0.040739 -0.003406 -0.092246
v -0.040004 -0.022915 -0.090471
v -0.037826 -0.041674 -0.085214
v -0.034290 -0.058963 -0.076676
v -0.029530 -0.074117 -0.065186
v -0.023731 -0.086553 -0.051186
v -0.017115 -0.095794 -0.035214
v -0.009936 -0.101484 -0.017882
v -0.006277 0.094673 -0.018992
v -0.009936 0.088982 -0.037391
v -0.013309 0.079741 -0.054348
v -0.016266 0.067305 -0.069210
v -0.018692 0.052151 -0.081407
v -0.020495 0.034862 -0.090471
v -0.021605 0.016103 -0.096052
v -0.021980 -0.003406 -0.097937
v -0.021605 -0.022915 -0.096052
v -0.020495 -0.041674 -0.090471
v -0.018692 -0.058963 -0.081407
v -0.016266 -0.074117 -0.069210
v -0.013309 -0.086553 -0.054348
v -0.009936 -0.095794 -0.037391
v -0.006277 -0.101484 -0.018992
v -0.002471 0.094673 -0.019367
v -0.002471 0.088982 -0.038127
v -0.002471 0.067305 -0.070569
v -0.002471 0.034862 -0.092246
v -0.002471 -0.041674 -0.092246
v -0.002471 -0.074117 -0.070569
v -0.002471 -0.086553 -0.055415
v -0.002471 -0.095794 -0.038127
v -0.002471 -0.101484 -0.019367
vn 0.0097 0.9951 -0.0980
vn 0.0097 -0.9951 -0.0980
vn 0.0975 -0.0975 -0.9904
vn 0.0286 0.9565 -0.2902
vn 0.0938 -0.2890 -0.9527
vn 0.0464 0.8810 -0.4709
vn 0.0865 -0.4696 -0.8786
vn 0.0624 0.7715 -0.6332
vn 0.0759 -0.6326 -0.7708
vn 0.0759 0.6326 -0.7708
vn 0.0624 -0.7715 -0.6332
vn 0.0865 0.4696 -0.8786
vn 0.0464 -0.8810 -0.4709
vn 0.0938 0.2890 -0.9527
vn 0.0286 -0.9565 -0.2902
vn 0.0975 0.0975 -0.9904
vn 0.0846 -0.9565 -0.2790
vn 0.2889 0.0976 -0.9524
vn 0.0286 0.9951 -0.0942
vn 0.0286 -0.9951 -0.0942
vn 0.2889 -0.0976 -0.9524
vn 0.0846 0.9565 -0.2790
vn 0.2779 -0.2890 -0.9161
vn 0.1374 0.8810 -0.4528
vn 0.2563 -0.4696 -0.8448
vn 0.1847 0.7715 -0.6088
vn 0.2248 -0.6326 -0.7412
vn 0.2248 0.6326 -0.7412
vn 0.1847 -0.7715 -0.6088
vn 0.2563 0.4696 -0.8448
vn 0.1374 -0.8810 -0.4528
vn 0.2779 0.2890 -0.9161
vn 0.2999 0.7715 -0.5611
vn 0.3651 -0.6326 -0.6831
vn 0.3651 0.6326 -0.6831
vn 0.2999 -0.7715 -0.5611
vn 0.4162 0.4696 -0.7786
vn 0.2230 -0.8810 -0.4173
vn 0.4513 0.2890 -0.8443
vn 0.1374 -0.9565 -0.2571
vn 0.4691 0.0975 -0.8777
vn 0.0464 0.9951 -0.0869
vn 0.0464 -0.9951 -0.0869
vn 0.4691 -0.0975 -0.8777
vn 0.1374 0.9565 -0.2571
vn 0.4513 -0.2890 -0.8443
vn 0.2230 0.8810 -0.4173
vn 0.4162 -0.4696 -0.7786
vn 0.6314 0.0975 -0.7693
vn 0.0625 0.9951 -0.0761
vn 0.0625 -0.9951 -0.0761
vn 0.6314 -0.0975 -0.7693
vn 0.1850 0.9565 -0.2254
vn 0.6073 -0.2890 -0.7400
vn 0.3002 0.8810 -0.3658
vn 0.5601 -0.4696 -0.6825
vn 0.4036 0.7715 -0.4918
vn 0.4913 -0.6326 -0.5987
vn 0.4913 0.6326 -0.5987
vn 0.4036 -0.7715 -0.4918
vn 0.5601 0.4696 -0.6825
vn 0.3002 -0.8810 -0.3658
vn 0.6073 0.2890 -0.7400
vn 0.1850 -0.9565 -0.2254
vn 0.5987 -0.6326 -0.4913
vn 0.5987 0.6326 -0.4913
vn 0.4918 -0.7715 -0.4036
vn 0.6825 0.4696 -0.5601
vn 0.3658 -0.8810 -0.3002
vn 0.7400 0.2890 -0.6073
vn 0.2254 -0.9565 -0.1850
vn 0.7693 0.0975 -0.6314
vn 0.0761 0.9951 -0.0625
vn 0.0761 -0.9951 -0.0625
vn 0.7693 -0.0975 -0.6314
vn 0.2254 0.9565 -0.1850
vn 0.7400 -0.2890 -0.6073
vn 0.3658 0.8810 -0.3002
vn 0.6825 -0.4696 -0.5601
vn 0.4918 0.7715 -0.4036
vn 0.0869 0.9951 -0.0464
vn 0.0869 -0.9951 -0.0464
vn 0.8777 -0.0975 -0.4691
vn 0.2571 0.9565 -0.1374
vn 0.8443 -0.2890 -0.4513
vn 0.4173 0.8810 -0.2231
vn 0.7786 -0.4696 -0.4162
vn 0.5611 0.7715 -0.2999
vn 0.6831 -0.6326 -0.3651
vn 0.6831 0.6326 -0.3651
vn 0.5611 -0.7715 -0.2999
vn 0.7786 0.4696 -0.4162
vn 0.4173 -0.8810 -0.2231
vn 0.8443 0.2890 -0.4513
vn 0.2571 -0.9565 -0.1374
vn 0.8777 0.0975 -0.4691
vn 0.7412 0.6326 -0.2248
vn 0.6088 -0.7715 -0.1847
vn 0.8448 0.4696 -0.2563
vn 0.4528 -0.8810 -0.1374
vn 0.9161 0.2890 -0.2779
vn 0.2790 -0.9565 -0.0846
vn 0.9524 0.0975 -0.2889
vn 0.0942 0.9951 -0.0286
vn 0.0942 -0.9951 -0.0286
vn 0.9524 -0.0975 -0.2889
vn 0.2790 0.9565 -0.0846
vn 0.9161 -0.2890 -0.2779
vn 0.4528 0.8810 -0.1374
vn 0.8448 -0.4696 -0.2563
vn 0.6088 0.7715 -0.1847
vn 0.7412 -0.6326 -0.2248
vn 0.9904 -0.0975 -0.0976
vn 0.2902 0.9565 -0.0286
vn 0.9527 -0.2890 -0.0938
vn 0.4709 0.8810 -0.0464
vn 0.8786 -0.4696 -0.0865
vn 0.6332 0.7715 -0.0624
vn 0.7708 -0.6326 -0.0759
vn 0.7708 0.6326 -0.0759
vn 0.6332 -0.7715 -0.0624
vn 0.8786 0.4696 -0.0865
vn 0.4709 -0.8810 -0.0464
vn 0.9527 0.2890 -0.0938
vn 0.2902 -0.9565 -0.0286
vn 0.9904 0.0975 -0.0976
vn 0.0980 0.9951 -0.0097
vn 0.0980 -0.9951 -0.0097
vn 0.6332 -0.7715 0.0624
vn 0.8786 0.4696 0.0865
vn 0.4709 -0.8810 0.0464
vn 0.9527 0.2890 0.0938
vn 0.2902 -0.9565 0.0286
vn 0.9904 0.0975 0.0975
vn 0.0980 0.9951 0.0097
vn 0.0980 -0.9951 0.0097
vn 0.9904 -0.0975 0.0975
vn 0.2902 0.9565 0.0286
vn 0.9527 -0.2890 0.0938
vn 0.4709 0.8810 0.0464
vn 0.8786 -0.4696 0.0865
vn 0.6332 0.7715 0.0624
vn 0.7708 -0.6326 0.0759
vn 0.7708 0.6326 0.0759
vn 0.9161 -0.2890 0.2779
vn 0.4528 0.8810 0.1374
vn 0.8448 -0.4696 0.2563
vn 0.6088 0.7715 0.1847
vn 0.7412 -0.6326 0.2248
vn 0.7412 0.6326 0.2248
vn 0.6088 -0.7715 0.1847
vn 0.8448 0.4696 0.2563
vn 0.4528 -0.8810 0.1374
vn 0.9161 0.2890 0.2779
vn 0.2790 -0.9565 0.0846
vn 0.9524 0.0975 0.2889
vn 0.0942 0.9951 0.0286
vn 0.0942 -0.9951 0.0286
vn 0.9524 -0.0975 0.2889
vn 0.2790 0.9565 0.0846
vn 0.4173 -0.8810 0.2230
vn 0.8443 0.2890 0.4513
vn 0.2571 -0.9565 0.1374
vn 0.8777 0.0975 0.4691
vn 0.0869 0.9951 0.0464
vn 0.0869 -0.9951 0.0464
vn 0.8777 -0.0975 0.4691
vn 0.2571 0.9565 0.1374
vn 0.8443 -0.2890 0.4513
vn 0.4173 0.8810 0.2230
vn 0.7786 -0.4696 0.4162
vn 0.5611 0.7715 0.2999
vn 0.6831 -0.6326 0.3651
vn 0.6831 0.6326 0.3651
vn 0.5611 -0.7715 0.2999
vn 0.7786 0.4696 0.4162
vn 0.3658 0.8810 0.3002
vn 0.6825 -0.4696 0.5601
vn 0.4918 0.7715 0.4036
vn 0.5987 -0.6326 0.4913
vn 0.5987 0.6326 0.4913
vn 0.4918 -0.7715 0.4036
vn 0.6825 0.4696 0.5601
vn 0.3658 -0.8810 0.3002
vn 0.7400 0.2890 0.6073
vn 0.2254 -0.9565 0.1850
vn 0.7693 0.0975 0.6314
vn 0.0761 0.9951 0.0625
vn 0.0761 -0.9951 0.0625
vn 0.7693 -0.0975 0.6314
vn 0.2254 0.9565 0.1850
vn 0.7400 -0.2890 0.6073
vn 0.6073 0.2890 0.7400
vn 0.1850 -0.9565 0.2254
vn 0.6314 0.0975 0.7693
vn 0.0625 0.9951 0.0761
vn 0.0625 -0.9951 0.0761
vn 0.6314 -0.0975 0.7693
vn 0.1850 0.9565 0.2254
vn 0.6073 -0.2890 0.7400
vn 0.3002 0.8810 0.3658
vn 0.5601 -0.4696 0.6825
vn 0.4036 0.7715 0.4918
vn 0.4913 -0.6326 0.5987
vn 0.4913 0.6326 0.5987
vn 0.4036 -0.7715 0.4918
vn 0.5601 0.4696 0.6825
vn 0.3002 -0.8810 0.3658
vn 0.4162 -0.4696 0.7786
vn 0.2999 0.7715 0.5611
vn 0.3651 -0.6326 0.6831
vn 0.3651 0.6326 0.6831
vn 0.2999 -0.7715 0.5611
vn 0.4162 0.4696 0.7786
vn 0.2230 -0.8810 0.4173
vn 0.4513 0.2890 0.8443
vn 0.1374 -0.9565 0.2571
vn 0.4691 0.0975 0.8777
vn 0.0464 0.9951 0.0869
vn 0.0464 -0.9951 0.0869
vn 0.4691 -0.0975 0.8777
vn 0.1374 0.9565 0.2571
vn 0.4513 -0.2890 0.8443
vn 0.2231 0.8810 0.4173
vn 0.0846 -0.9565 0.2790
vn 0.2889 0.0975 0.9524
vn 0.0286 0.9951 0.0942
vn 0.0286 -0.9951 0.0942
vn 0.2889 -0.0975 0.9524
vn 0.0846 0.9565 0.2790
vn 0.2779 -0.2890 0.9161
vn 0.1374 0.8810 0.4528
vn 0.2563 -0.4696 0.8448
vn 0.1847 0.7715 0.6088
vn 0.2248 -0.6326 0.7412
vn 0.2248 0.6326 0.7412
vn 0.1847 -0.7715 0.6088
vn 0.2563 0.4696 0.8448
vn 0.1374 -0.8810 0.4528
vn 0.2779 0.2890 0.9161
vn 0.0624 0.7715 0.6332
vn 0.0759 -0.6326 0.7708
vn 0.0759 0.6326 0.7708
vn 0.0624 -0.7715 0.6332
vn 0.0865 0.4696 0.8786
vn 0.0464 -0.8810 0.4709
vn 0.0938 0.2890 0.9527
vn 0.0286 -0.9565 0.2902
vn 0.0975 0.0975 0.9904
vn 0.0097 0.9951 0.0980
vn 0.0097 -0.9951 0.0980
vn 0.0975 -0.0975 0.9904
vn 0.0286 0.9565 0.2902
vn 0.0938 -0.2890 0.9527
vn 0.0464 0.8810 0.4709
vn 0.0865 -0.4696 0.8786
vn -0.0975 0.0975 0.9904
vn -0.0097 0.9951 0.0980
vn -0.0097 -0.9951 0.0980
vn -0.0975 -0.0975 0.9904
vn -0.0286 0.9565 0.2902
vn -0.0938 -0.2890 0.9527
vn -0.0464 0.8810 0.4709
vn -0.0865 -0.4696 0.8786
vn -0.0624 0.7715 0.6332
vn -0.0759 -0.6326 0.7708
vn -0.0759 0.6326 0.7708
vn -0.0624 -0.7715 0.6332
vn -0.0865 0.4696 0.8786
vn -0.0464 -0.8810 0.4709
vn -0.0938 0.2890 0.9527
vn -0.0286 -0.9565 0.2902
vn -0.2248 -0.6326 0.7412
vn -0.2248 0.6326 0.7412
vn -0.1847 -0.7715 0.6088
vn -0.2563 0.4696 0.8448
vn -0.1374 -0.8810 0.4528
vn -0.2779 0.2890 0.9161
vn -0.0846 -0.9565 0.2790
vn -0.2889 0.0975 0.9524
vn -0.0286 0.9951 0.0942
vn -0.0286 -0.9951 0.0942
vn -0.2889 -0.0975 0.9524
vn -0.0846 0.9565 0.2790
vn -0.2779 -0.2890 0.9161
vn -0.1374 0.8810 0.4528
vn -0.2563 -0.4696 0.8448
vn -0.1847 0.7715 0.6088
vn -0.0464 -0.9951 0.0869
vn -0.4691 -0.0975 0.8777
vn -0.1374 0.9565 0.2571
vn -0.4513 -0.2890 0.8443
vn -0.2230 0.8810 0.4173
vn -0.4162 -0.4696 0.7786
vn -0.2999 0.7715 0.5611
vn -0.3651 -0.6326 0.6831
vn -0.3651 0.6326 0.6831
vn -0.2999 -0.7715 0.5611
vn -0.4162 0.4696 0.7786
vn -0.2230 -0.8810 0.4173
vn -0.4513 0.2890 0.8443
vn -0.1374 -0.9565 0.2571
vn -0.4691 0.0975 0.8777
vn -0.0464 0.9951 0.0869
vn -0.4036 -0.7715 0.4918
vn -0.5601 0.4696 0.6825
vn -0.3002 -0.8810 0.3658
vn -0.6073 0.2890 0.7400
vn -0.1850 -0.9565 0.2254
vn -0.6314 0.0975 0.7693
vn -0.0625 0.9951 0.0761
vn -0.0625 -0.9951 0.0761
vn -0.6314 -0.0975 0.7693
vn -0.1850 0.9565 0.2254
vn -0.6073 -0.2890 0.7400
vn -0.3002 0.8810 0.3658
vn -0.5601 -0.4696 0.6825
vn -0.4036 0.7715 0.4918
vn -0.4913 -0.6326 0.5987
vn -0.4913 0.6326 0.5987
vn -0.2254 0.9565 0.1850
vn -0.7400 -0.2890 0.6073
vn -0.3658 0.8810 0.3002
vn -0.6825 -0.4696 0.5601
vn -0.4918 0.7715 0.4036
vn -0.5987 -0.6326 0.4913
vn -0.5987 0.6326 0.4913
vn -0.4918 -0.7715 0.4036
vn -0.6825 0.4696 0.5601
vn -0.3658 -0.8810 0.3002
vn -0.7400 0.2890 0.6073
vn -0.2254 -0.9565 0.1850
vn -0.7693 0.0975 0.6314
vn -0.0761 0.9951 0.0625
vn -0.0761 -0.9951 0.0625
vn -0.7693 -0.0975 0.6314
vn -0.7786 0.4696 0.4162
vn -0.4173 -0.8810 0.2230
vn -0.8443 0.2890 0.4513
vn -0.2571 -0.9565 0.1374
vn -0.8777 0.0975 0.4691
vn -0.0869 0.9951 0.0464
vn -0.0869 -0.9951 0.0464
vn -0.8777 -0.0975 0.4691
vn -0.2571 0.9565 0.1374
vn -0.8443 -0.2890 0.4513
vn -0.4173 0.8810 0.2230
vn -0.7786 -0.4696 0.4162
vn -0.5611 0.7715 0.2999
vn -0.6831 -0.6326 0.3651
vn -0.6831 0.6326 0.3651
vn -0.5611 -0.7715 0.2999
vn -0.9161 -0.2890 0.2779
vn -0.4528 0.8810 0.1374
vn -0.8448 -0.4696 0.2563
vn -0.6088 0.7715 0.1847
vn -0.7412 -0.6326 0.2248
vn -0.7412 0.6326 0.2248
vn -0.6088 -0.7715 0.1847
vn -0.8448 0.4696 0.2563
vn -0.4528 -0.8810 0.1374
vn -0.9161 0.2890 0.2779
vn -0.2790 -0.9565 0.0846
vn -0.9524 0.0975 0.2889
vn -0.0942 0.9951 0.0286
vn -0.0942 -0.9951 0.0286
vn -0.9524 -0.0975 0.2889
vn -0.2790 0.9565 0.0846
vn -0.4709 -0.8810 0.0464
vn -0.9527 0.2890 0.0938
vn -0.2902 -0.9565 0.0286
vn -0.9904 0.0975 0.0976
vn -0.0980 0.9951 0.0097
vn -0.0980 -0.9951 0.0097
vn -0.9904 -0.0975 0.0976
vn -0.2902 0.9565 0.0286
vn -0.9527 -0.2890 0.0938
vn -0.4709 0.8810 0.0464
vn -0.8786 -0.4696 0.0865
vn -0.6332 0.7715 0.0624
vn -0.7708 -0.6326 0.0759
vn -0.7708 0.6326 0.0759
vn -0.6332 -0.7715 0.0624
vn -0.8786 0.4696 0.0865
vn -0.4709 0.8810 -0.0464
vn -0.8786 -0.4696 -0.0865
vn -0.6332 0.7715 -0.0624
vn -0.7708 -0.6326 -0.0759
vn -0.7708 0.6326 -0.0759
vn -0.6332 -0.7715 -0.0624
vn -0.8786 0.4696 -0.0865
vn -0.4709 -0.8810 -0.0464
vn -0.9527 0.2890 -0.0938
vn -0.2902 -0.9565 -0.0286
vn -0.9904 0.0975 -0.0975
vn -0.0980 0.9951 -0.0097
vn -0.0980 -0.9951 -0.0097
vn -0.9904 -0.0975 -0.0975
vn -0.2902 0.9565 -0.0286
vn -0.9527 -0.2890 -0.0938
vn -0.9161 0.2890 -0.2779
vn -0.2790 -0.9565 -0.0846
vn -0.9524 0.0975 -0.2889
vn -0.0942 0.9951 -0.0286
vn -0.0942 -0.9951 -0.0286
vn -0.9524 -0.0975 -0.2889
vn -0.2790 0.9565 -0.0846
vn -0.9161 -0.2890 -0.2779
vn -0.4528 0.8810 -0.1374
vn -0.8448 -0.4696 -0.2563
vn -0.6088 0.7715 -0.1847
vn -0.7412 -0.6326 -0.2248
vn -0.7412 0.6326 -0.2248
vn -0.6088 -0.7715 -0.1847
vn -0.8448 0.4696 -0.2563
vn -0.4528 -0.8810 -0.1374
vn -0.7786 -0.4696 -0.4162
vn -0.5611 0.7715 -0.2999
vn -0.6831 -0.6326 -0.3651
vn -0.6831 0.6326 -0.3651
vn -0.5611 -0.7715 -0.2999
vn -0.7786 0.4696 -0.4162
vn -0.4173 -0.8810 -0.2231
vn -0.8443 0.2890 -0.4513
vn -0.2571 -0.9565 -0.1374
vn -0.8777 0.0975 -0.4691
vn -0.0869 0.9951 -0.0464
vn -0.0869 -0.9951 -0.0464
vn -0.8777 -0.0975 -0.4691
vn -0.2571 0.9565 -0.1374
vn -0.8443 -0.2890 -0.4513
vn -0.4173 0.8810 -0.2231
vn -0.2254 -0.9565 -0.1850
vn -0.7693 0.0975 -0.6314
vn -0.0761 0.9951 -0.0625
vn -0.0761 -0.9951 -0.0625
vn -0.7693 -0.0975 -0.6314
vn -0.2254 0.9565 -0.1850
vn -0.7400 -0.2890 -0.6073
vn -0.3658 0.8810 -0.3002
vn -0.6825 -0.4696 -0.5601
vn -0.4918 0.7715 -0.4036
vn -0.5987 -0.6326 -0.4913
vn -0.5987 0.6326 -0.4913
vn -0.4918 -0.7715 -0.4036
vn -0.6825 0.4696 -0.5601
vn -0.3658 -0.8810 -0.3002
vn -0.7400 0.2890 -0.6073
vn -0.4913 -0.6326 -0.5987
vn -0.4913 0.6326 -0.5987
vn -0.4036 -0.7715 -0.4918
vn -0.5601 0.4696 -0.6825
vn -0.3002 -0.8810 -0.3658
vn -0.6073 0.2890 -0.7400
vn -0.1850 -0.9565 -0.2254
vn -0.6314 0.0975 -0.7693
vn -0.0625 0.9951 -0.0761
vn -0.0625 -0.9951 -0.0761
vn -0.6314 -0.0975 -0.7693
vn -0.1850 0.9565 -0.2254
vn -0.6073 -0.2890 -0.7400
vn -0.3002 0.8810 -0.3658
vn -0.5601 -0.4696 -0.6825
vn -0.4036 0.7715 -0.4918
vn -0.0464 0.9951 -0.0869
vn -0.0464 -0.9951 -0.0869
vn -0.4691 -0.0975 -0.8777
vn -0.1374 0.9565 -0.2571
vn -0.4513 -0.2890 -0.8443
vn -0.2230 0.8810 -0.4173
vn -0.4162 -0.4696 -0.7786
vn -0.2999 0.7715 -0.5611
vn -0.3651 -0.6326 -0.6831
vn -0.3651 0.6326 -0.6831
vn -0.2999 -0.7715 -0.5611
vn -0.4162 0.4696 -0.7786
vn -0.2230 -0.8810 -0.4173
vn -0.4513 0.2890 -0.8443
vn -0.1374 -0.9565 -0.2571
vn -0.4691 0.0975 -0.8777
vn -0.2248 0.6326 -0.7412
vn -0.1847 -0.7715 -0.6088
vn -0.2563 0.4696 -0.8448
vn -0.1374 -0.8810 -0.4528
vn -0.2779 0.2890 -0.9161
vn -0.0846 -0.9565 -0.2790
vn -0.2889 0.0975 -0.9524
vn -0.0286 0.9951 -0.0942
vn -0.0286 -0.9951 -0.0942
vn -0.2889 -0.0975 -0.9524
vn -0.0846 0.9565 -0.2790
vn -0.2779 -0.2890 -0.9161
vn -0.1374 0.8810 -0.4528
vn -0.2563 -0.4696 -0.8448
vn -0.1847 0.7715 -0.6088
vn -0.2248 -0.6326 -0.7412
vn -0.0976 -0.0975 -0.9904
vn -0.0286 0.9565 -0.2902
vn -0.0938 -0.2890 -0.9527
vn -0.0464 0.8810 -0.4709
vn -0.0865 -0.4696 -0.8786
vn -0.0624 0.7715 -0.6332
vn -0.0759 -0.6326 -0.7708
vn -0.0759 0.6326 -0.7708
vn -0.0624 -0.7715 -0.6332
vn -0.0865 0.4696 -0.8786
vn -0.0464 -0.8810 -0.4709
vn -0.0938 0.2890 -0.9527
vn -0.0286 -0.9565 -0.2902
vn -0.0976 0.0975 -0.9904
vn -0.0097 0.9951 -0.0980
vn -0.0097 -0.9951 -0.0980
vt 0.750000 0.937500
vt 0.734375 1.000000
vt 0.718750 0.937500
vt 0.734375 0.000000
vt 0.750000 0.062500
vt 0.718750 0.062500
vt 0.750000 0.437500
vt 0.750000 0.500000
vt 0.718750 0.500000
vt 0.718750 0.437500
vt 0.750000 0.875000
vt 0.718750 0.875000
vt 0.750000 0.375000
vt 0.718750 0.375000
vt 0.750000 0.812500
vt 0.718750 0.812500
vt 0.750000 0.312500
vt 0.718750 0.312500
vt 0.750000 0.750000
vt 0.718750 0.750000
vt 0.750000 0.250000
vt 0.718750 0.250000
vt 0.750000 0.687500
vt 0.718750 0.687500
vt 0.750000 0.187500
vt 0.718750 0.187500
vt 0.750000 0.625000
vt 0.718750 0.625000
vt 0.750000 0.125000
vt 0.718750 0.125000
vt 0.750000 0.562500
vt 0.718750 0.562500
vt 0.687500 0.125000
vt 0.687500 0.062500
vt 0.687500 0.562500
vt 0.687500 0.500000
vt 0.703125 1.000000
vt 0.687500 0.937500
vt 0.703125 0.000000
vt 0.687500 0.437500
vt 0.687500 0.875000
vt 0.687500 0.375000
vt 0.687500 0.812500
vt 0.687500 0.312500
vt 0.687500 0.750000
vt 0.687500 0.250000
vt 0.687500 0.687500
vt 0.687500 0.187500
vt 0.687500 0.625000
vt 0.656250 0.812500
vt 0.656250 0.750000
vt 0.656250 0.312500
vt 0.656250 0.250000
vt 0.656250 0.687500
vt 0.656250 0.187500
vt 0.656250 0.625000
vt 0.656250 0.125000
vt 0.656250 0.562500
vt 0.656250 0.062500
vt 0.656250 0.500000
vt 0.671875 1.000000
vt 0.656250 0.937500
vt 0.671875 0.000000
vt 0.656250 0.437500
vt 0.656250 0.875000
vt 0.656250 0.375000
vt 0.625000 0.562500
vt 0.625000 0.500000
vt 0.640625 1.000000
vt 0.625000 0.937500
vt 0.640625 0.000000
vt 0.625000 0.062500
vt 0.625000 0.437500
vt 0.625000 0.875000
vt 0.625000 0.375000
vt 0.625000 0.812500
vt 0.625000 0.312500
vt 0.625000 0.750000
vt 0.625000 0.250000
vt 0.625000 0.687500
vt 0.625000 0.187500
vt 0.625000 0.625000
vt 0.625000 0.125000
vt 0.593750 0.312500
vt 0.593750 0.250000
vt 0.593750 0.750000
vt 0.593750 0.687500
vt 0.593750 0.187500
vt 0.593750 0.625000
vt 0.593750 0.125000
vt 0.593750 0.562500
vt 0.593750 0.062500
vt 0.593750 0.500000
vt 0.609375 1.000000
vt 0.593750 0.937500
vt 0.609375 0.000000
vt 0.593750 0.437500
vt 0.593750 0.875000
vt 0.593750 0.375000
vt 0.593750 0.812500
vt 0.578125 1.000000
vt 0.562500 0.937500
vt 0.578125 0.000000
vt 0.562500 0.062500
vt 0.562500 0.500000
vt 0.562500 0.437500
vt 0.562500 0.875000
vt 0.562500 0.375000
vt 0.562500 0.812500
vt 0.562500 0.312500
vt 0.562500 0.750000
vt 0.562500 0.250000
vt 0.562500 0.687500
vt 0.562500 0.187500
vt 0.562500 0.625000
vt 0.562500 0.125000
vt 0.562500 0.562500
vt 0.531250 0.750000
vt 0.531250 0.687500
vt 0.531250 0.250000
vt 0.531250 0.187500
vt 0.531250 0.625000
vt 0.531250 0.125000
vt 0.531250 0.562500
vt 0.531250 0.062500
vt 0.531250 0.500000
vt 0.546875 1.000000
vt 0.531250 0.937500
vt 0.546875 0.000000
vt 0.531250 0.437500
vt 0.531250 0.875000
vt 0.531250 0.375000
vt 0.531250 0.812500
vt 0.531250 0.312500
vt 0.500000 0.500000
vt 0.500000 0.437500
vt 0.500000 0.937500
vt 0.500000 0.875000
vt 0.500000 0.375000
vt 0.500000 0.812500
vt 0.500000 0.312500
vt 0.500000 0.750000
vt 0.500000 0.250000
vt 0.500000 0.687500
vt 0.500000 0.187500
vt 0.500000 0.625000
vt 0.500000 0.125000
vt 0.500000 0.562500
vt 0.500000 0.062500
vt 0.515625 1.000000
vt 0.515625 0.000000
vt 0.468750 0.250000
vt 0.468750 0.187500
vt 0.468750 0.687500
vt 0.468750 0.625000
vt 0.468750 0.125000
vt 0.468750 0.562500
vt 0.468750 0.062500
vt 0.468750 0.500000
vt 0.484375 1.000000
vt 0.468750 0.937500
vt 0.484375 0.000000
vt 0.468750 0.437500
vt 0.468750 0.875000
vt 0.468750 0.375000
vt 0.468750 0.812500
vt 0.468750 0.312500
vt 0.468750 0.750000
vt 0.437500 0.437500
vt 0.437500 0.375000
vt 0.437500 0.875000
vt 0.437500 0.812500
vt 0.437500 0.312500
vt 0.437500 0.750000
vt 0.437500 0.250000
vt 0.437500 0.687500
vt 0.437500 0.187500
vt 0.437500 0.625000
vt 0.437500 0.125000
vt 0.437500 0.562500
vt 0.437500 0.062500
vt 0.437500 0.500000
vt 0.453125 1.000000
vt 0.437500 0.937500
vt 0.453125 0.000000
vt 0.406250 0.187500
vt 0.406250 0.125000
vt 0.406250 0.625000
vt 0.406250 0.562500
vt 0.406250 0.062500
vt 0.406250 0.500000
vt 0.421875 1.000000
vt 0.406250 0.937500
vt 0.421875 0.000000
vt 0.406250 0.437500
vt 0.406250 0.875000
vt 0.406250 0.375000
vt 0.406250 0.812500
vt 0.406250 0.312500
vt 0.406250 0.750000
vt 0.406250 0.250000
vt 0.406250 0.687500
vt 0.375000 0.875000
vt 0.375000 0.812500
vt 0.375000 0.375000
vt 0.375000 0.312500
vt 0.375000 0.750000
vt 0.375000 0.250000
vt 0.375000 0.687500
vt 0.375000 0.187500
vt 0.375000 0.625000
vt 0.375000 0.125000
vt 0.375000 0.562500
vt 0.375000 0.062500
vt 0.375000 0.500000
vt 0.390625 1.000000
vt 0.375000 0.937500
vt 0.390625 0.000000
vt 0.375000 0.437500
vt 0.343750 0.625000
vt 0.343750 0.562500
vt 0.343750 0.125000
vt 0.343750 0.062500
vt 0.343750 0.500000
vt 0.359375 1.000000
vt 0.343750 0.937500
vt 0.359375 0.000000
vt 0.343750 0.437500
vt 0.343750 0.875000
vt 0.343750 0.375000
vt 0.343750 0.812500
vt 0.343750 0.312500
vt 0.343750 0.750000
vt 0.343750 0.250000
vt 0.343750 0.687500
vt 0.343750 0.187500
vt 0.312500 0.375000
vt 0.312500 0.312500
vt 0.312500 0.812500
vt 0.312500 0.750000
vt 0.312500 0.250000
vt 0.312500 0.687500
vt 0.312500 0.187500
vt 0.312500 0.625000
vt 0.312500 0.125000
vt 0.312500 0.562500
vt 0.312500 0.062500
vt 0.312500 0.500000
vt 0.328125 1.000000
vt 0.312500 0.937500
vt 0.328125 0.000000
vt 0.312500 0.437500
vt 0.312500 0.875000
vt 0.281250 0.125000
vt 0.281250 0.062500
vt 0.281250 0.562500
vt 0.281250 0.500000
vt 0.296875 1.000000
vt 0.281250 0.937500
vt 0.296875 0.000000
vt 0.281250 0.437500
vt 0.281250 0.875000
vt 0.281250 0.375000
vt 0.281250 0.812500
vt 0.281250 0.312500
vt 0.281250 0.750000
vt 0.281250 0.250000
vt 0.281250 0.687500
vt 0.281250 0.187500
vt 0.281250 0.625000
vt 0.250000 0.812500
vt 0.250000 0.750000
vt 0.250000 0.312500
vt 0.250000 0.250000
vt 0.250000 0.687500
vt 0.250000 0.187500
vt 0.250000 0.625000
vt 0.250000 0.125000
vt 0.250000 0.562500
vt 0.250000 0.062500
vt 0.250000 0.500000
vt 0.265625 1.000000
vt 0.250000 0.937500
vt 0.265625 0.000000
vt 0.250000 0.437500
vt 0.250000 0.875000
vt 0.250000 0.375000
vt 0.218750 0.562500
vt 0.218750 0.500000
vt 0.234375 1.000000
vt 0.218750 0.937500
vt 0.234375 0.000000
vt 0.218750 0.062500
vt 0.218750 0.437500
vt 0.218750 0.875000
vt 0.218750 0.375000
vt 0.218750 0.812500
vt 0.218750 0.312500
vt 0.218750 0.750000
vt 0.218750 0.250000
vt 0.218750 0.687500
vt 0.218750 0.187500
vt 0.218750 0.625000
vt 0.218750 0.125000
vt 0.187500 0.312500
vt 0.187500 0.250000
vt 0.187500 0.750000
vt 0.187500 0.687500
vt 0.187500 0.187500
vt 0.187500 0.625000
vt 0.187500 0.125000
vt 0.187500 0.562500
vt 0.187500 0.062500
vt 0.187500 0.500000
vt 0.203125 1.000000
vt 0.187500 0.937500
vt 0.203125 0.000000
vt 0.187500 0.437500
vt 0.187500 0.875000
vt 0.187500 0.375000
vt 0.187500 0.812500
vt 0.171875 0.000000
vt 0.156250 0.062500
vt 0.156250 0.500000
vt 0.156250 0.437500
vt 0.156250 0.937500
vt 0.156250 0.875000
vt 0.156250 0.375000
vt 0.156250 0.812500
vt 0.156250 0.312500
vt 0.156250 0.750000
vt 0.156250 0.250000
vt 0.156250 0.687500
vt 0.156250 0.187500
vt 0.156250 0.625000
vt 0.156250 0.125000
vt 0.156250 0.562500
vt 0.171875 1.000000
vt 0.125000 0.250000
vt 0.125000 0.187500
vt 0.125000 0.687500
vt 0.125000 0.625000
vt 0.125000 0.125000
vt 0.125000 0.562500
vt 0.125000 0.062500
vt 0.125000 0.500000
vt 0.140625 1.000000
vt 0.125000 0.937500
vt 0.140625 0.000000
vt 0.125000 0.437500
vt 0.125000 0.875000
vt 0.125000 0.375000
vt 0.125000 0.812500
vt 0.125000 0.312500
vt 0.125000 0.750000
vt 0.093750 0.937500
vt 0.093750 0.875000
vt 0.093750 0.437500
vt 0.093750 0.375000
vt 0.093750 0.812500
vt 0.093750 0.312500
vt 0.093750 0.750000
vt 0.093750 0.250000
vt 0.093750 0.687500
vt 0.093750 0.187500
vt 0.093750 0.625000
vt 0.093750 0.125000
vt 0.093750 0.562500
vt 0.093750 0.062500
vt 0.093750 0.500000
vt 0.109375 1.000000
vt 0.109375 0.000000
vt 0.062500 0.687500
vt 0.062500 0.625000
vt 0.062500 0.187500
vt 0.062500 0.125000
vt 0.062500 0.562500
vt 0.062500 0.062500
vt 0.062500 0.500000
vt 0.078125 1.000000
vt 0.062500 0.937500
vt 0.078125 0.000000
vt 0.062500 0.437500
vt 0.062500 0.875000
vt 0.062500 0.375000
vt 0.062500 0.812500
vt 0.062500 0.312500
vt 0.062500 0.750000
vt 0.062500 0.250000
vt 0.031250 0.437500
vt 0.031250 0.375000
vt 0.031250 0.875000
vt 0.031250 0.812500
vt 0.031250 0.312500
vt 0.031250 0.750000
vt 0.031250 0.250000
vt 0.031250 0.687500
vt 0.031250 0.187500
vt 0.031250 0.625000
vt 0.031250 0.125000
vt 0.031250 0.562500
vt 0.031250 0.062500
vt 0.031250 0.500000
vt 0.046875 1.000000
vt 0.031250 0.937500
vt 0.046875 0.000000
vt 0.000000 0.187500
vt 0.000000 0.125000
vt 0.000000 0.625000
vt 0.000000 0.562500
vt 0.000000 0.062500
vt 0.000000 0.500000
vt 0.015625 1.000000
vt 0.000000 0.937500
vt 0.015625 0.000000
vt 0.000000 0.437500
vt 0.000000 0.875000
vt 0.000000 0.375000
vt 0.000000 0.812500
vt 0.000000 0.312500
vt 0.000000 0.750000
vt 0.000000 0.250000
vt 0.000000 0.687500
vt 1.000000 0.812500
vt 1.000000 0.875000
vt 0.968750 0.875000
vt 0.968750 0.812500
vt 1.000000 0.312500
vt 1.000000 0.375000
vt 0.968750 0.375000
vt 0.968750 0.312500
vt 1.000000 0.750000
vt 0.968750 0.750000
vt 1.000000 0.250000
vt 0.968750 0.250000
vt 1.000000 0.687500
vt 0.968750 0.687500
vt 1.000000 0.187500
vt 0.968750 0.187500
vt 1.000000 0.625000
vt 0.968750 0.625000
vt 1.000000 0.125000
vt 0.968750 0.125000
vt 1.000000 0.562500
vt 0.968750 0.562500
vt 1.000000 0.062500
vt 0.968750 0.062500
vt 1.000000 0.500000
vt 0.968750 0.500000
vt 1.000000 0.937500
vt 0.984375 1.000000
vt 0.968750 0.937500
vt 0.984375 0.000000
vt 1.000000 0.437500
vt 0.968750 0.437500
vt 0.937500 0.625000
vt 0.937500 0.562500
vt 0.937500 0.125000
vt 0.937500 0.062500
vt 0.937500 0.500000
vt 0.953125 1.000000
vt 0.937500 0.937500
vt 0.953125 0.000000
vt 0.937500 0.437500
vt 0.937500 0.875000
vt 0.937500 0.375000
vt 0.937500 0.812500
vt 0.937500 0.312500
vt 0.937500 0.750000
vt 0.937500 0.250000
vt 0.937500 0.687500
vt 0.937500 0.187500
vt 0.906250 0.375000
vt 0.906250 0.312500
vt 0.906250 0.812500
vt 0.906250 0.750000
vt 0.906250 0.250000
vt 0.906250 0.687500
vt 0.906250 0.187500
vt 0.906250 0.625000
vt 0.906250 0.125000
vt 0.906250 0.562500
vt 0.906250 0.062500
vt 0.906250 0.500000
vt 0.921875 1.000000
vt 0.906250 0.937500
vt 0.921875 0.000000
vt 0.906250 0.437500
vt 0.906250 0.875000
vt 0.875000 0.125000
vt 0.875000 0.062500
vt 0.875000 0.562500
vt 0.875000 0.500000
vt 0.890625 1.000000
vt 0.875000 0.937500
vt 0.890625 0.000000
vt 0.875000 0.437500
vt 0.875000 0.875000
vt 0.875000 0.375000
vt 0.875000 0.812500
vt 0.875000 0.312500
vt 0.875000 0.750000
vt 0.875000 0.250000
vt 0.875000 0.687500
vt 0.875000 0.187500
vt 0.875000 0.625000
vt 0.843750 0.312500
vt 0.843750 0.250000
vt 0.843750 0.750000
vt 0.843750 0.687500
vt 0.843750 0.187500
vt 0.843750 0.625000
vt 0.843750 0.125000
vt 0.843750 0.562500
vt 0.843750 0.062500
vt 0.843750 0.500000
vt 0.859375 1.000000
vt 0.843750 0.937500
vt 0.859375 0.000000
vt 0.843750 0.437500
vt 0.843750 0.875000
vt 0.843750 0.375000
vt 0.843750 0.812500
vt 0.828125 1.000000
vt 0.812500 0.937500
vt 0.828125 0.000000
vt 0.812500 0.062500
vt 0.812500 0.500000
vt 0.812500 0.437500
vt 0.812500 0.875000
vt 0.812500 0.375000
vt 0.812500 0.812500
vt 0.812500 0.312500
vt 0.812500 0.750000
vt 0.812500 0.250000
vt 0.812500 0.687500
vt 0.812500 0.187500
vt 0.812500 0.625000
vt 0.812500 0.125000
vt 0.812500 0.562500
vt 0.781250 0.750000
vt 0.781250 0.687500
vt 0.781250 0.250000
vt 0.781250 0.187500
vt 0.781250 0.625000
vt 0.781250 0.125000
vt 0.781250 0.562500
vt 0.781250 0.062500
vt 0.781250 0.500000
vt 0.796875 1.000000
vt 0.781250 0.937500
vt 0.796875 0.000000
vt 0.781250 0.437500
vt 0.781250 0.875000
vt 0.781250 0.375000
vt 0.781250 0.812500
vt 0.781250 0.312500
vt 0.765625 1.000000
vt 0.765625 0.000000
s 0
f 666/406/103 274/407/103 199/408/103
f 500/409/104 674/410/104 213/411/104
f 197/412/105 196/413/105 206/414/105 207/415/105
f 667/416/106 666/406/106 199/408/106 200/417/106
f 670/418/107 197/412/107 207/415/107 208/419/107
f 193/420/108 667/416/108 200/417/108 201/421/108
f 198/422/109 670/418/109 208/419/109 209/423/109
f 668/424/110 193/420/110 201/421/110 202/425/110
f 671/426/111 198/422/111 209/423/111 210/427/111
f 194/428/112 668/424/112 202/425/112 203/429/112
f 672/430/113 671/426/113 210/427/113 211/431/113
f 669/432/114 194/428/114 203/429/114 204/433/114
f 673/434/115 672/430/115 211/431/115 212/435/115
f 195/436/116 669/432/116 204/433/116 205/437/116
f 674/410/117 673/434/117 212/435/117 213/411/117
f 196/413/118 195/436/118 205/437/118 206/414/118
f 213/411/119 212/435/119 227/438/119 228/439/119
f 206/414/120 205/437/120 220/440/120 221/441/120
f 199/408/121 274/442/121 214/443/121
f 500/444/122 213/411/122 228/439/122
f 207/415/123 206/414/123 221/441/123 222/445/123
f 200/417/124 199/408/124 214/443/124 215/446/124
f 208/419/125 207/415/125 222/445/125 223/447/125
f 201/421/126 200/417/126 215/446/126 216/448/126
f 209/423/127 208/419/127 223/447/127 224/449/127
f 202/425/128 201/421/128 216/448/128 217/450/128
f 210/427/129 209/423/129 224/449/129 225/451/129
f 203/429/130 202/425/130 217/450/130 218/452/130
f 211/431/131 210/427/131 225/451/131 226/453/131
f 204/433/132 203/429/132 218/452/132 219/454/132
f 212/435/133 211/431/133 226/453/133 227/438/133
f 205/437/134 204/433/134 219/454/134 220/440/134
f 217/450/135 216/448/135 231/455/135 232/456/135
f 225/451/136 224/449/136 239/457/136 240/458/136
f 218/452/137 217/450/137 232/456/137 233/459/137
f 226/453/138 225/451/138 240/458/138 241/460/138
f 219/454/139 218/452/139 233/459/139 234/461/139
f 227/438/140 226/453/140 241/460/140 242/462/140
f 220/440/141 219/454/141 234/461/141 235/463/141
f 228/439/142 227/438/142 242/462/142 243/464/142
f 221/441/143 220/440/143 235/463/143 236/465/143
f 214/443/144 274/466/144 229/467/144
f 500/468/145 228/439/145 243/464/145
f 222/445/146 221/441/146 236/465/146 237/469/146
f 215/446/147 214/443/147 229/467/147 230/470/147
f 223/447/148 222/445/148 237/469/148 238/471/148
f 216/448/149 215/446/149 230/470/149 231/455/149
f 224/449/150 223/447/150 238/471/150 239/457/150
f 236/465/151 235/463/151 250/472/151 251/473/151
f 229/467/152 274/474/152 244/475/152
f 500/476/153 243/464/153 258/477/153
f 237/469/154 236/465/154 251/473/154 252/478/154
f 230/470/155 229/467/155 244/475/155 245/479/155
f 238/471/156 237/469/156 252/478/156 253/480/156
f 231/455/157 230/470/157 245/479/157 246/481/157
f 239/457/158 238/471/158 253/480/158 254/482/158
f 232/456/159 231/455/159 246/481/159 247/483/159
f 240/458/160 239/457/160 254/482/160 255/484/160
f 233/459/161 232/456/161 247/483/161 248/485/161
f 241/460/162 240/458/162 255/484/162 256/486/162
f 234/461/163 233/459/163 248/485/163 249/487/163
f 242/462/164 241/460/164 256/486/164 257/488/164
f 235/463/165 234/461/165 249/487/165 250/472/165
f 243/464/166 242/462/166 257/488/166 258/477/166
f 255/484/167 254/482/167 269/489/167 270/490/167
f 248/485/168 247/483/168 262/491/168 263/492/168
f 256/486/169 255/484/169 270/490/169 271/493/169
f 249/487/170 248/485/170 263/492/170 264/494/170
f 257/488/171 256/486/171 271/493/171 272/495/171
f 250/472/172 249/487/172 264/494/172 265/496/172
f 258/477/173 257/488/173 272/495/173 273/497/173
f 251/473/174 250/472/174 265/496/174 266/498/174
f 244/475/175 274/499/175 259/500/175
f 500/501/176 258/477/176 273/497/176
f 252/478/177 251/473/177 266/498/177 267/502/177
f 245/479/178 244/475/178 259/500/178 260/503/178
f 253/480/179 252/478/179 267/502/179 268/504/179
f 246/481/180 245/479/180 260/503/180 261/505/180
f 254/482/181 253/480/181 268/504/181 269/489/181
f 247/483/182 246/481/182 261/505/182 262/491/182
f 259/500/183 274/506/183 275/507/183
f 500/508/184 273/497/184 289/509/184
f 267/502/185 266/498/185 282/510/185 283/511/185
f 260/503/186 259/500/186 275/507/186 276/512/186
f 268/504/187 267/502/187 283/511/187 284/513/187
f 261/505/188 260/503/188 276/512/188 277/514/188
f 269/489/189 268/504/189 284/513/189 285/515/189
f 262/491/190 261/505/190 277/514/190 278/516/190
f 270/490/191 269/489/191 285/515/191 286/517/191
f 263/492/192 262/491/192 278/516/192 279/518/192
f 271/493/193 270/490/193 286/517/193 287/519/193
f 264/494/194 263/492/194 279/518/194 280/520/194
f 272/495/195 271/493/195 287/519/195 288/521/195
f 265/496/196 264/494/196 280/520/196 281/522/196
f 273/497/197 272/495/197 288/521/197 289/509/197
f 266/498/198 265/496/198 281/522/198 282/510/198
f 279/518/199 278/516/199 293/523/199 294/524/199
f 287/519/200 286/517/200 301/525/200 302/526/200
f 280/520/201 279/518/201 294/524/201 295/527/201
f 288/521/202 287/519/202 302/526/202 303/528/202
f 281/522/203 280/520/203 295/527/203 296/529/203
f 289/509/204 288/521/204 303/528/204 304/530/204
f 282/510/205 281/522/205 296/529/205 297/531/205
f 275/507/206 274/532/206 290/533/206
f 500/534/207 289/509/207 304/530/207
f 283/511/208 282/510/208 297/531/208 298/535/208
f 276/512/209 275/507/209 290/533/209 291/536/209
f 284/513/210 283/511/210 298/535/210 299/537/210
f 277/514/211 276/512/211 291/536/211 292/538/211
f 285/515/212 284/513/212 299/537/212 300/539/212
f 278/516/213 277/514/213 292/538/213 293/523/213
f 286/517/214 285/515/214 300/539/214 301/525/214
f 298/535/215 297/531/215 312/540/215 313/541/215
f 291/536/216 290/533/216 305/542/216 306/543/216
f 299/537/217 298/535/217 313/541/217 314/544/217
f 292/538/218 291/536/218 306/543/218 307/545/218
f 300/539/219 299/537/219 314/544/219 315/546/219
f 293/523/220 292/538/220 307/545/220 308/547/220
f 301/525/221 300/539/221 315/546/221 316/548/221
f 294/524/222 293/523/222 308/547/222 309/549/222
f 302/526/223 301/525/223 316/548/223 317/550/223
f 295/527/224 294/524/224 309/549/224 310/551/224
f 303/528/225 302/526/225 317/550/225 318/552/225
f 296/529/226 295/527/226 310/551/226 311/553/226
f 304/530/227 303/528/227 318/552/227 319/554/227
f 297/531/228 296/529/228 311/553/228 312/540/228
f 290/533/229 274/555/229 305/542/229
f 500/556/230 304/530/230 319/554/230
f 317/550/231 316/548/231 331/557/231 332/558/231
f 310/551/232 309/549/232 324/559/232 325/560/232
f 318/552/233 317/550/233 332/558/233 333/561/233
f 311/553/234 310/551/234 325/560/234 326/562/234
f 319/554/235 318/552/235 333/561/235 334/563/235
f 312/540/236 311/553/236 326/562/236 327/564/236
f 305/542/237 274/565/237 320/566/237
f 500/567/238 319/554/238 334/563/238
f 313/541/239 312/540/239 327/564/239 328/568/239
f 306/543/240 305/542/240 320/566/240 321/569/240
f 314/544/241 313/541/241 328/568/241 329/570/241
f 307/545/242 306/543/242 321/569/242 322/571/242
f 315/546/243 314/544/243 329/570/243 330/572/243
f 308/547/244 307/545/244 322/571/244 323/573/244
f 316/548/245 315/546/245 330/572/245 331/557/245
f 309/549/246 308/547/246 323/573/246 324/559/246
f 329/570/247 328/568/247 343/574/247 344/575/247
f 322/571/248 321/569/248 336/576/248 337/577/248
f 330/572/249 329/570/249 344/575/249 345/578/249
f 323/573/250 322/571/250 337/577/250 338/579/250
f 331/557/251 330/572/251 345/578/251 346/580/251
f 324/559/252 323/573/252 338/579/252 339/581/252
f 332/558/253 331/557/253 346/580/253 347/582/253
f 325/560/254 324/559/254 339/581/254 340/583/254
f 333/561/255 332/558/255 347/582/255 348/584/255
f 326/562/256 325/560/256 340/583/256 341/585/256
f 334/563/257 333/561/257 348/584/257 349/586/257
f 327/564/258 326/562/258 341/585/258 342/587/258
f 320/566/259 274/588/259 335/589/259
f 500/590/260 334/563/260 349/586/260
f 328/568/261 327/564/261 342/587/261 343/574/261
f 321/569/262 320/566/262 335/589/262 336/576/262
f 348/584/263 347/582/263 362/591/263 363/592/263
f 341/585/264 340/583/264 355/593/264 356/594/264
f 349/586/265 348/584/265 363/592/265 364/595/265
f 342/587/266 341/585/266 356/594/266 357/596/266
f 335/589/267 274/597/267 350/598/267
f 500/599/268 349/586/268 364/595/268
f 343/574/269 342/587/269 357/596/269 358/600/269
f 336/576/270 335/589/270 350/598/270 351/601/270
f 344/575/271 343/574/271 358/600/271 359/602/271
f 337/577/272 336/576/272 351/601/272 352/603/272
f 345/578/273 344/575/273 359/602/273 360/604/273
f 338/579/274 337/577/274 352/603/274 353/605/274
f 346/580/275 345/578/275 360/604/275 361/606/275
f 339/581/276 338/579/276 353/605/276 354/607/276
f 347/582/277 346/580/277 361/606/277 362/591/277
f 340/583/278 339/581/278 354/607/278 355/593/278
f 352/603/279 351/601/279 366/608/279 367/609/279
f 360/604/280 359/602/280 374/610/280 375/611/280
f 353/605/281 352/603/281 367/609/281 368/612/281
f 361/606/282 360/604/282 375/611/282 376/613/282
f 354/607/283 353/605/283 368/612/283 369/614/283
f 362/591/284 361/606/284 376/613/284 377/615/284
f 355/593/285 354/607/285 369/614/285 370/616/285
f 363/592/286 362/591/286 377/615/286 378/617/286
f 356/594/287 355/593/287 370/616/287 371/618/287
f 364/595/288 363/592/288 378/617/288 379/619/288
f 357/596/289 356/594/289 371/618/289 372/620/289
f 350/598/290 274/621/290 365/622/290
f 500/623/291 364/595/291 379/619/291
f 358/600/292 357/596/292 372/620/292 373/624/292
f 351/601/293 350/598/293 365/622/293 366/608/293
f 359/602/294 358/600/294 373/624/294 374/610/294
f 371/618/295 370/616/295 385/625/295 386/626/295
f 379/619/296 378/617/296 393/627/296 394/628/296
f 372/620/297 371/618/297 386/626/297 387/629/297
f 365/622/298 274/630/298 380/631/298
f 500/632/299 379/619/299 394/628/299
f 373/624/300 372/620/300 387/629/300 388/633/300
f 366/608/301 365/622/301 380/631/301 381/634/301
f 374/610/302 373/624/302 388/633/302 389/635/302
f 367/609/303 366/608/303 381/634/303 382/636/303
f 375/611/304 374/610/304 389/635/304 390/637/304
f 368/612/305 367/609/305 382/636/305 383/638/305
f 376/613/306 375/611/306 390/637/306 391/639/306
f 369/614/307 368/612/307 383/638/307 384/640/307
f 377/615/308 376/613/308 391/639/308 392/641/308
f 370/616/309 369/614/309 384/640/309 385/625/309
f 378/617/310 377/615/310 392/641/310 393/627/310
f 390/637/311 389/635/311 404/642/311 405/643/311
f 383/638/312 382/636/312 397/644/312 398/645/312
f 391/639/313 390/637/313 405/643/313 406/646/313
f 384/640/314 383/638/314 398/645/314 399/647/314
f 392/641/315 391/639/315 406/646/315 407/648/315
f 385/625/316 384/640/316 399/647/316 400/649/316
f 393/627/317 392/641/317 407/648/317 408/650/317
f 386/626/318 385/625/318 400/649/318 401/651/318
f 394/628/319 393/627/319 408/650/319 409/652/319
f 387/629/320 386/626/320 401/651/320 402/653/320
f 380/631/321 274/654/321 395/655/321
f 500/656/322 394/628/322 409/652/322
f 388/633/323 387/629/323 402/653/323 403/657/323
f 381/634/324 380/631/324 395/655/324 396/658/324
f 389/635/325 388/633/325 403/657/325 404/642/325
f 382/636/326 381/634/326 396/658/326 397/644/326
f 409/652/327 408/650/327 423/659/327 424/660/327
f 402/653/328 401/651/328 416/661/328 417/662/328
f 395/655/329 274/663/329 410/664/329
f 500/665/330 409/652/330 424/660/330
f 403/657/331 402/653/331 417/662/331 418/666/331
f 396/658/332 395/655/332 410/664/332 411/667/332
f 404/642/333 403/657/333 418/666/333 419/668/333
f 397/644/334 396/658/334 411/667/334 412/669/334
f 405/643/335 404/642/335 419/668/335 420/670/335
f 398/645/336 397/644/336 412/669/336 413/671/336
f 406/646/337 405/643/337 420/670/337 421/672/337
f 399/647/338 398/645/338 413/671/338 414/673/338
f 407/648/339 406/646/339 421/672/339 422/674/339
f 400/649/340 399/647/340 414/673/340 415/675/340
f 408/650/341 407/648/341 422/674/341 423/659/341
f 401/651/342 400/649/342 415/675/342 416/661/342
f 413/671/343 412/669/343 427/676/343 428/677/343
f 421/672/344 420/670/344 435/678/344 436/679/344
f 414/673/345 413/671/345 428/677/345 429/680/345
f 422/674/346 421/672/346 436/679/346 437/681/346
f 415/675/347 414/673/347 429/680/347 430/682/347
f 423/659/348 422/674/348 437/681/348 438/683/348
f 416/661/349 415/675/349 430/682/349 431/684/349
f 424/660/350 423/659/350 438/683/350 439/685/350
f 417/662/351 416/661/351 431/684/351 432/686/351
f 410/664/352 274/687/352 425/688/352
f 500/689/353 424/660/353 439/685/353
f 418/666/354 417/662/354 432/686/354 433/690/354
f 411/667/355 410/664/355 425/688/355 426/691/355
f 419/668/356 418/666/356 433/690/356 434/692/356
f 412/669/357 411/667/357 426/691/357 427/676/357
f 420/670/358 419/668/358 434/692/358 435/678/358
f 432/686/359 431/684/359 446/693/359 447/694/359
f 425/688/360 274/695/360 440/696/360
f 500/697/361 439/685/361 454/698/361
f 433/690/362 432/686/362 447/694/362 448/699/362
f 426/691/363 425/688/363 440/696/363 441/700/363
f 434/692/364 433/690/364 448/699/364 449/701/364
f 427/676/365 426/691/365 441/700/365 442/702/365
f 435/678/366 434/692/366 449/701/366 450/703/366
f 428/677/367 427/676/367 442/702/367 443/704/367
f 436/679/368 435/678/368 450/703/368 451/705/368
f 429/680/369 428/677/369 443/704/369 444/706/369
f 437/681/370 436/679/370 451/705/370 452/707/370
f 430/682/371 429/680/371 444/706/371 445/708/371
f 438/683/372 437/681/372 452/707/372 453/709/372
f 431/684/373 430/682/373 445/708/373 446/693/373
f 439/685/374 438/683/374 453/709/374 454/698/374
f 451/705/375 450/703/375 465/710/375 466/711/375
f 444/706/376 443/704/376 458/712/376 459/713/376
f 452/707/377 451/705/377 466/711/377 467/714/377
f 445/708/378 444/706/378 459/713/378 460/715/378
f 453/709/379 452/707/379 467/714/379 468/716/379
f 446/693/380 445/708/380 460/715/380 461/717/380
f 454/698/381 453/709/381 468/716/381 469/718/381
f 447/694/382 446/693/382 461/717/382 462/719/382
f 440/696/383 274/720/383 455/721/383
f 500/722/384 454/698/384 469/718/384
f 448/699/385 447/694/385 462/719/385 463/723/385
f 441/700/386 440/696/386 455/721/386 456/724/386
f 449/701/387 448/699/387 463/723/387 464/725/387
f 442/702/388 441/700/388 456/724/388 457/726/388
f 450/703/389 449/701/389 464/725/389 465/710/389
f 443/704/390 442/702/390 457/726/390 458/712/390
f 500/727/391 469/718/391 484/728/391
f 463/723/392 462/719/392 477/729/392 478/730/392
f 456/724/393 455/721/393 470/731/393 471/732/393
f 464/725/394 463/723/394 478/730/394 479/733/394
f 457/726/395 456/724/395 471/732/395 472/734/395
f 465/710/396 464/725/396 479/733/396 480/735/396
f 458/712/397 457/726/397 472/734/397 473/736/397
f 466/711/398 465/710/398 480/735/398 481/737/398
f 459/713/399 458/712/399 473/736/399 474/738/399
f 467/714/400 466/711/400 481/737/400 482/739/400
f 460/715/401 459/713/401 474/738/401 475/740/401
f 468/716/402 467/714/402 482/739/402 483/741/402
f 461/717/403 460/715/403 475/740/403 476/742/403
f 469/718/404 468/716/404 483/741/404 484/728/404
f 462/719/405 461/717/405 476/742/405 477/729/405
f 455/721/406 274/743/406 470/731/406
f 482/739/407 481/737/407 496/744/407 497/745/407
f 475/740/408 474/738/408 489/746/408 490/747/408
f 483/741/409 482/739/409 497/745/409 498/748/409
f 476/742/410 475/740/410 490/747/410 491/749/410
f 484/728/411 483/741/411 498/748/411 499/750/411
f 477/729/412 476/742/412 491/749/412 492/751/412
f 470/731/413 274/752/413 485/753/413
f 500/754/414 484/728/414 499/750/414
f 478/730/415 477/729/415 492/751/415 493/755/415
f 471/732/416 470/731/416 485/753/416 486/756/416
f 479/733/417 478/730/417 493/755/417 494/757/417
f 472/734/418 471/732/418 486/756/418 487/758/418
f 480/735/419 479/733/419 494/757/419 495/759/419
f 473/736/420 472/734/420 487/758/420 488/760/420
f 481/737/421 480/735/421 495/759/421 496/744/421
f 474/738/422 473/736/422 488/760/422 489/746/422
f 486/756/423 485/753/423 501/761/423 502/762/423
f 494/757/424 493/755/424 509/763/424 510/764/424
f 487/758/425 486/756/425 502/762/425 503/765/425
f 495/759/426 494/757/426 510/764/426 511/766/426
f 488/760/427 487/758/427 503/765/427 504/767/427
f 496/744/428 495/759/428 511/766/428 512/768/428
f 489/746/429 488/760/429 504/767/429 505/769/429
f 497/745/430 496/744/430 512/768/430 513/770/430
f 490/747/431 489/746/431 505/769/431 506/771/431
f 498/748/432 497/745/432 513/770/432 514/772/432
f 491/749/433 490/747/433 506/771/433 507/773/433
f 499/750/434 498/748/434 514/772/434 515/774/434
f 492/751/435 491/749/435 507/773/435 508/775/435
f 485/753/436 274/776/436 501/761/436
f 500/777/437 499/750/437 515/774/437
f 493/755/438 492/751/438 508/775/438 509/763/438
f 506/771/439 505/769/439 520/778/439 521/779/439
f 514/772/440 513/770/440 528/780/440 529/781/440
f 507/773/441 506/771/441 521/779/441 522/782/441
f 515/774/442 514/772/442 529/781/442 530/783/442
f 508/775/443 507/773/443 522/782/443 523/784/443
f 501/761/444 274/785/444 516/786/444
f 500/787/445 515/774/445 530/783/445
f 509/763/446 508/775/446 523/784/446 524/788/446
f 502/762/447 501/761/447 516/786/447 517/789/447
f 510/764/448 509/763/448 524/788/448 525/790/448
f 503/765/449 502/762/449 517/789/449 518/791/449
f 511/766/450 510/764/450 525/790/450 526/792/450
f 504/767/451 503/765/451 518/791/451 519/793/451
f 512/768/452 511/766/452 526/792/452 527/794/452
f 505/769/453 504/767/453 519/793/453 520/778/453
f 513/770/454 512/768/454 527/794/454 528/780/454
f 525/790/455 524/788/455 539/795/455 540/796/455
f 518/791/456 517/789/456 532/797/456 533/798/456
f 526/792/457 525/790/457 540/796/457 541/799/457
f 519/793/458 518/791/458 533/798/458 534/800/458
f 527/794/459 526/792/459 541/799/459 542/801/459
f 520/778/460 519/793/460 534/800/460 535/802/460
f 528/780/461 527/794/461 542/801/461 543/803/461
f 521/779/462 520/778/462 535/802/462 536/804/462
f 529/781/463 528/780/463 543/803/463 544/805/463
f 522/782/464 521/779/464 536/804/464 537/806/464
f 530/783/465 529/781/465 544/805/465 545/807/465
f 523/784/466 522/782/466 537/806/466 538/808/466
f 516/786/467 274/809/467 531/810/467
f 500/811/468 530/783/468 545/807/468
f 524/788/469 523/784/469 538/808/469 539/795/469
f 517/789/470 516/786/470 531/810/470 532/797/470
f 544/805/471 543/803/471 558/812/471 559/813/471
f 537/806/472 536/804/472 551/814/472 552/815/472
f 545/807/473 544/805/473 559/813/473 560/816/473
f 538/808/474 537/806/474 552/815/474 553/817/474
f 531/810/475 274/818/475 546/819/475
f 500/820/476 545/807/476 560/816/476
f 539/795/477 538/808/477 553/817/477 554/821/477
f 532/797/478 531/810/478 546/819/478 547/822/478
f 540/796/479 539/795/479 554/821/479 555/823/479
f 533/798/480 532/797/480 547/822/480 548/824/480
f 541/799/481 540/796/481 555/823/481 556/825/481
f 534/800/482 533/798/482 548/824/482 549/826/482
f 542/801/483 541/799/483 556/825/483 557/827/483
f 535/802/484 534/800/484 549/826/484 550/828/484
f 543/803/485 542/801/485 557/827/485 558/812/485
f 536/804/486 535/802/486 550/828/486 551/814/486
f 548/829/487 547/830/487 562/831/487 563/832/487
f 556/833/488 555/834/488 570/835/488 571/836/488
f 549/837/489 548/829/489 563/832/489 564/838/489
f 557/839/490 556/833/490 571/836/490 572/840/490
f 550/841/491 549/837/491 564/838/491 565/842/491
f 558/843/492 557/839/492 572/840/492 573/844/492
f 551/845/493 550/841/493 565/842/493 566/846/493
f 559/847/494 558/843/494 573/844/494 574/848/494
f 552/849/495 551/845/495 566/846/495 567/850/495
f 560/851/496 559/847/496 574/848/496 575/852/496
f 553/853/497 552/849/497 567/850/497 568/854/497
f 546/855/498 274/856/498 561/857/498
f 500/858/499 560/851/499 575/852/499
f 554/859/500 553/853/500 568/854/500 569/860/500
f 547/830/501 546/855/501 561/857/501 562/831/501
f 555/834/502 554/859/502 569/860/502 570/835/502
f 567/850/503 566/846/503 581/861/503 582/862/503
f 575/852/504 574/848/504 589/863/504 590/864/504
f 568/854/505 567/850/505 582/862/505 583/865/505
f 561/857/506 274/866/506 576/867/506
f 500/868/507 575/852/507 590/864/507
f 569/860/508 568/854/508 583/865/508 584/869/508
f 562/831/509 561/857/509 576/867/509 577/870/509
f 570/835/510 569/860/510 584/869/510 585/871/510
f 563/832/511 562/831/511 577/870/511 578/872/511
f 571/836/512 570/835/512 585/871/512 586/873/512
f 564/838/513 563/832/513 578/872/513 579/874/513
f 572/840/514 571/836/514 586/873/514 587/875/514
f 565/842/515 564/838/515 579/874/515 580/876/515
f 573/844/516 572/840/516 587/875/516 588/877/516
f 566/846/517 565/842/517 580/876/517 581/861/517
f 574/848/518 573/844/518 588/877/518 589/863/518
f 586/873/519 585/871/519 600/878/519 601/879/519
f 579/874/520 578/872/520 593/880/520 594/881/520
f 587/875/521 586/873/521 601/879/521 602/882/521
f 580/876/522 579/874/522 594/881/522 595/883/522
f 588/877/523 587/875/523 602/882/523 603/884/523
f 581/861/524 580/876/524 595/883/524 596/885/524
f 589/863/525 588/877/525 603/884/525 604/886/525
f 582/862/526 581/861/526 596/885/526 597/887/526
f 590/864/527 589/863/527 604/886/527 605/888/527
f 583/865/528 582/862/528 597/887/528 598/889/528
f 576/867/529 274/890/529 591/891/529
f 500/892/530 590/864/530 605/888/530
f 584/869/531 583/865/531 598/889/531 599/893/531
f 577/870/532 576/867/532 591/891/532 592/894/532
f 585/871/533 584/869/533 599/893/533 600/878/533
f 578/872/534 577/870/534 592/894/534 593/880/534
f 605/888/535 604/886/535 619/895/535 620/896/535
f 598/889/536 597/887/536 612/897/536 613/898/536
f 591/891/537 274/899/537 606/900/537
f 500/901/538 605/888/538 620/896/538
f 599/893/539 598/889/539 613/898/539 614/902/539
f 592/894/540 591/891/540 606/900/540 607/903/540
f 600/878/541 599/893/541 614/902/541 615/904/541
f 593/880/542 592/894/542 607/903/542 608/905/542
f 601/879/543 600/878/543 615/904/543 616/906/543
f 594/881/544 593/880/544 608/905/544 609/907/544
f 602/882/545 601/879/545 616/906/545 617/908/545
f 595/883/546 594/881/546 609/907/546 610/909/546
f 603/884/547 602/882/547 617/908/547 618/910/547
f 596/885/548 595/883/548 610/909/548 611/911/548
f 604/886/549 603/884/549 618/910/549 619/895/549
f 597/887/550 596/885/550 611/911/550 612/897/550
f 617/908/551 616/906/551 631/912/551 632/913/551
f 610/909/552 609/907/552 624/914/552 625/915/552
f 618/910/553 617/908/553 632/913/553 633/916/553
f 611/911/554 610/909/554 625/915/554 626/917/554
f 619/895/555 618/910/555 633/916/555 634/918/555
f 612/897/556 611/911/556 626/917/556 627/919/556
f 620/896/557 619/895/557 634/918/557 635/920/557
f 613/898/558 612/897/558 627/919/558 628/921/558
f 606/900/559 274/922/559 621/923/559
f 500/924/560 620/896/560 635/920/560
f 614/902/561 613/898/561 628/921/561 629/925/561
f 607/903/562 606/900/562 621/923/562 622/926/562
f 615/904/563 614/902/563 629/925/563 630/927/563
f 608/905/564 607/903/564 622/926/564 623/928/564
f 616/906/565 615/904/565 630/927/565 631/912/565
f 609/907/566 608/905/566 623/928/566 624/914/566
f 621/923/567 274/929/567 636/930/567
f 500/931/568 635/920/568 650/932/568
f 629/925/569 628/921/569 643/933/569 644/934/569
f 622/926/570 621/923/570 636/930/570 637/935/570
f 630/927/571 629/925/571 644/934/571 645/936/571
f 623/928/572 622/926/572 637/935/572 638/937/572
f 631/912/573 630/927/573 645/936/573 646/938/573
f 624/914/574 623/928/574 638/937/574 639/939/574
f 632/913/575 631/912/575 646/938/575 647/940/575
f 625/915/576 624/914/576 639/939/576 640/941/576
f 633/916/577 632/913/577 647/940/577 648/942/577
f 626/917/578 625/915/578 640/941/578 641/943/578
f 634/918/579 633/916/579 648/942/579 649/944/579
f 627/919/580 626/917/580 641/943/580 642/945/580
f 635/920/581 634/918/581 649/944/581 650/932/581
f 628/921/582 627/919/582 642/945/582 643/933/582
f 640/941/583 639/939/583 654/946/583 655/947/583
f 648/942/584 647/940/584 662/948/584 663/949/584
f 641/943/585 640/941/585 655/947/585 656/950/585
f 649/944/586 648/942/586 663/949/586 664/951/586
f 642/945/587 641/943/587 656/950/587 657/952/587
f 650/932/588 649/944/588 664/951/588 665/953/588
f 643/933/589 642/945/589 657/952/589 658/954/589
f 636/930/590 274/955/590 651/956/590
f 500/957/591 650/932/591 665/953/591
f 644/934/592 643/933/592 658/954/592 659/958/592
f 637/935/593 636/930/593 651/956/593 652/959/593
f 645/936/594 644/934/594 659/958/594 660/960/594
f 638/937/595 637/935/595 652/959/595 653/961/595
f 646/938/596 645/936/596 660/960/596 661/962/596
f 639/939/597 638/937/597 653/961/597 654/946/597
f 647/940/598 646/938/598 661/962/598 662/948/598
f 659/958/599 658/954/599 196/413/599 197/412/599
f 652/959/600 651/956/600 666/406/600 667/416/600
f 660/960/601 659/958/601 197/412/601 670/418/601
f 653/961/602 652/959/602 667/416/602 193/420/602
f 661/962/603 660/960/603 670/418/603 198/422/603
f 654/946/604 653/961/604 193/420/604 668/424/604
f 662/948/605 661/962/605 198/422/605 671/426/605
f 655/947/606 654/946/606 668/424/606 194/428/606
f 663/949/607 662/948/607 671/426/607 672/430/607
f 656/950/608 655/947/608 194/428/608 669/432/608
f 664/951/609 663/949/609 672/430/609 673/434/609
f 657/952/610 656/950/610 669/432/610 195/436/610
f 665/953/611 664/951/611 673/434/611 674/410/611
f 658/954/612 657/952/612 195/436/612 196/413/612
f 651/956/613 274/963/613 666/406/613
f 500/964/614 665/953/614 674/410/614
