# Blender 4.3.2
# www.blender.org
mtllib mystreets_sign_square.mtl
o Cube
v 0.400000 -0.400000 0.496099
v -0.400000 -0.400000 0.496099
v 0.400000 -0.400000 0.456099
v -0.400000 -0.400000 0.456099
v 0.400000 0.400000 0.496099
v -0.400000 0.400000 0.496099
v 0.400000 0.400000 0.456099
v -0.400000 0.400000 0.456099
vn -0.0000 -1.0000 -0.0000
vn -0.0000 -0.0000 -1.0000
vn -0.0000 1.0000 -0.0000
vn -0.0000 -0.0000 1.0000
vn 1.0000 -0.0000 -0.0000
vn -1.0000 -0.0000 -0.0000
vt 0.293789 0.985195
vt 0.023438 0.985195
vt 0.023438 0.714844
vt 0.293789 0.714844
vt 0.007813 0.008633
vt 0.278164 0.008633
vt 0.278164 0.278985
vt 0.007812 0.278985
vt 0.298516 0.985195
vt 0.028164 0.985195
vt 0.028164 0.714844
vt 0.298516 0.714844
vt 0.298516 0.986016
vt 0.028164 0.986016
vt 0.028164 0.715664
vt 0.298516 0.715664
vt 0.297695 0.720391
vt 0.297695 0.990742
vt 0.027344 0.990742
vt 0.027344 0.720391
vt 0.294610 0.716485
vt 0.294610 0.986836
vt 0.024258 0.986836
vt 0.024258 0.716485
s 0
f 1/1/1 2/2/1 4/3/1 3/4/1
f 3/5/2 4/6/2 8/7/2 7/8/2
f 7/9/3 8/10/3 6/11/3 5/12/3
f 5/13/4 6/14/4 2/15/4 1/16/4
f 3/17/5 7/18/5 5/19/5 1/20/5
f 8/21/6 4/22/6 2/23/6 6/24/6
