# Blender 4.3.2
# www.blender.org
mtllib mystreets_pylon2.mtl
o Cube
v 0.300000 -0.460927 -0.241193
v 0.241193 -0.460927 -0.300000
v 0.299107 -0.460927 -0.251405
v 0.296454 -0.460927 -0.261306
v 0.292121 -0.460927 -0.270596
v 0.286242 -0.460927 -0.278993
v 0.278993 -0.460927 -0.286242
v 0.270596 -0.460927 -0.292121
v 0.261306 -0.460927 -0.296454
v 0.251405 -0.460927 -0.299107
v 0.241193 -0.500927 -0.300000
v 0.300000 -0.500927 -0.241193
v 0.251405 -0.500927 -0.299107
v 0.261306 -0.500927 -0.296454
v 0.270596 -0.500927 -0.292121
v 0.278993 -0.500927 -0.286242
v 0.286242 -0.500927 -0.278993
v 0.292121 -0.500927 -0.270596
v 0.296454 -0.500927 -0.261306
v 0.299107 -0.500927 -0.251405
v 0.241193 -0.460927 0.300000
v 0.300000 -0.460927 0.241193
v 0.251405 -0.460927 0.299107
v 0.261306 -0.460927 0.296454
v 0.270596 -0.460927 0.292121
v 0.278993 -0.460927 0.286242
v 0.286242 -0.460927 0.278993
v 0.292121 -0.460927 0.270596
v 0.296454 -0.460927 0.261306
v 0.299107 -0.460927 0.251405
v 0.300000 -0.500927 0.241193
v 0.241193 -0.500927 0.300000
v 0.299107 -0.500927 0.251405
v 0.296454 -0.500927 0.261306
v 0.292121 -0.500927 0.270596
v 0.286242 -0.500927 0.278993
v 0.278993 -0.500927 0.286242
v 0.270596 -0.500927 0.292121
v 0.261306 -0.500927 0.296454
v 0.251405 -0.500927 0.299107
v -0.241193 -0.460927 -0.300000
v -0.300000 -0.460927 -0.241193
v -0.251405 -0.460927 -0.299107
v -0.261306 -0.460927 -0.296454
v -0.270596 -0.460927 -0.292121
v -0.278993 -0.460927 -0.286242
v -0.286242 -0.460927 -0.278993
v -0.292121 -0.460927 -0.270596
v -0.296454 -0.460927 -0.261306
v -0.299107 -0.460927 -0.251405
v -0.300000 -0.500927 -0.241193
v -0.241193 -0.500927 -0.300000
v -0.299107 -0.500927 -0.251405
v -0.296454 -0.500927 -0.261306
v -0.292121 -0.500927 -0.270596
v -0.286242 -0.500927 -0.278993
v -0.278993 -0.500927 -0.286242
v -0.270596 -0.500927 -0.292121
v -0.261306 -0.500927 -0.296454
v -0.251405 -0.500927 -0.299107
v -0.300000 -0.460927 0.241193
v -0.241193 -0.460927 0.300000
v -0.299107 -0.460927 0.251405
v -0.296454 -0.460927 0.261306
v -0.292121 -0.460927 0.270596
v -0.286242 -0.460927 0.278993
v -0.278993 -0.460927 0.286242
v -0.270596 -0.460927 0.292121
v -0.261306 -0.460927 0.296454
v -0.251405 -0.460927 0.299107
v -0.241193 -0.500927 0.300000
v -0.300000 -0.500927 0.241193
v -0.251405 -0.500927 0.299107
v -0.261306 -0.500927 0.296454
v -0.270596 -0.500927 0.292121
v -0.278993 -0.500927 0.286242
v -0.286242 -0.500927 0.278993
v -0.292121 -0.500927 0.270596
v -0.296454 -0.500927 0.261306
v -0.299107 -0.500927 0.251405
vn -0.0000 -1.0000 -0.0000
vn -1.0000 -0.0000 -0.0000
vn -0.0000 -0.0000 1.0000
vn -0.0000 1.0000 -0.0000
vn 1.0000 -0.0000 -0.0000
vn 0.9962 -0.0000 -0.0872
vn 0.9659 -0.0000 -0.2588
vn 0.9063 -0.0000 -0.4226
vn 0.8192 -0.0000 -0.5736
vn 0.7071 -0.0000 -0.7071
vn 0.5736 -0.0000 -0.8192
vn 0.4226 -0.0000 -0.9063
vn 0.2588 -0.0000 -0.9659
vn 0.0872 -0.0000 -0.9962
vn -0.0872 -0.0000 0.9962
vn -0.2588 -0.0000 0.9659
vn -0.4226 -0.0000 0.9063
vn -0.5736 -0.0000 0.8192
vn -0.7071 -0.0000 0.7071
vn -0.8192 -0.0000 0.5736
vn -0.9063 -0.0000 0.4226
vn -0.9659 -0.0000 0.2588
vn -0.9962 -0.0000 0.0872
vn 0.0872 -0.0000 0.9962
vn 0.2588 -0.0000 0.9659
vn 0.4226 -0.0000 0.9063
vn 0.5736 -0.0000 0.8192
vn 0.7071 -0.0000 0.7071
vn 0.8192 -0.0000 0.5736
vn 0.9063 -0.0000 0.4226
vn 0.9659 -0.0000 0.2588
vn 0.9962 -0.0000 0.0872
vn -0.0872 -0.0000 -0.9962
vn -0.2588 -0.0000 -0.9659
vn -0.4226 -0.0000 -0.9063
vn -0.5736 -0.0000 -0.8192
vn -0.7071 -0.0000 -0.7071
vn -0.8192 -0.0000 -0.5736
vn -0.9063 -0.0000 -0.4226
vn -0.9659 -0.0000 -0.2588
vn -0.9962 -0.0000 -0.0872
vn -0.0000 -0.0000 -1.0000
vt 0.561722 0.029529
vt 0.566470 0.029945
vt 0.571075 0.031179
vt 0.575395 0.033193
vt 0.579300 0.035927
vt 0.582670 0.039298
vt 0.585404 0.043203
vt 0.587419 0.047523
vt 0.588652 0.052127
vt 0.589068 0.056876
vt 0.589068 0.281192
vt 0.588652 0.285941
vt 0.587419 0.290545
vt 0.585404 0.294866
vt 0.582670 0.298770
vt 0.579299 0.302141
vt 0.575395 0.304875
vt 0.571075 0.306889
vt 0.566470 0.308123
vt 0.561722 0.308539
vt 0.337405 0.308539
vt 0.332656 0.308123
vt 0.328052 0.306889
vt 0.323732 0.304875
vt 0.319827 0.302141
vt 0.316456 0.298770
vt 0.313722 0.294866
vt 0.311708 0.290545
vt 0.310474 0.285941
vt 0.310059 0.281192
vt 0.310059 0.056876
vt 0.310474 0.052127
vt 0.311708 0.047523
vt 0.313722 0.043203
vt 0.316456 0.039298
vt 0.319827 0.035927
vt 0.323732 0.033193
vt 0.328052 0.031179
vt 0.332656 0.029945
vt 0.337405 0.029529
vt 0.067583 0.310526
vt 0.067583 0.031517
vt 0.291900 0.031517
vt 0.291900 0.310526
vt 0.047516 0.312767
vt 0.047516 0.033758
vt 0.271833 0.033758
vt 0.271833 0.312767
vt 0.573440 0.035101
vt 0.578189 0.035517
vt 0.582793 0.036750
vt 0.587114 0.038765
vt 0.591018 0.041499
vt 0.594389 0.044870
vt 0.597123 0.048774
vt 0.599137 0.053094
vt 0.600371 0.057699
vt 0.600787 0.062447
vt 0.600787 0.286764
vt 0.600371 0.291513
vt 0.599137 0.296117
vt 0.597123 0.300437
vt 0.594389 0.304342
vt 0.591018 0.307713
vt 0.587113 0.310447
vt 0.582793 0.312461
vt 0.578189 0.313695
vt 0.573440 0.314110
vt 0.349124 0.314110
vt 0.344375 0.313695
vt 0.339771 0.312461
vt 0.335451 0.310447
vt 0.331546 0.307713
vt 0.328175 0.304342
vt 0.325441 0.300437
vt 0.323427 0.296117
vt 0.322193 0.291513
vt 0.321777 0.286764
vt 0.321777 0.062447
vt 0.322193 0.057699
vt 0.323427 0.053094
vt 0.325441 0.048774
vt 0.328175 0.044870
vt 0.331546 0.041499
vt 0.335451 0.038765
vt 0.339771 0.036750
vt 0.344375 0.035517
vt 0.349124 0.035101
vt 0.327056 0.310526
vt 0.327056 0.031517
vt 0.551372 0.031517
vt 0.551372 0.310526
vt 0.322307 0.310526
vt 0.322307 0.031517
vt 0.317703 0.310526
vt 0.317703 0.031517
vt 0.313383 0.310526
vt 0.313383 0.031517
vt 0.309478 0.310526
vt 0.309478 0.031517
vt 0.570714 0.033758
vt 0.570714 0.312767
vt 0.567343 0.312767
vt 0.567343 0.033758
vt 0.563439 0.312767
vt 0.563439 0.033758
vt 0.559119 0.312767
vt 0.559119 0.033758
vt 0.554514 0.312767
vt 0.554514 0.033758
vt 0.549766 0.312767
vt 0.549766 0.033758
vt 0.276582 0.033758
vt 0.276582 0.312767
vt 0.281186 0.033758
vt 0.281186 0.312767
vt 0.285506 0.033758
vt 0.285506 0.312767
vt 0.289411 0.033758
vt 0.289411 0.312767
vt 0.292782 0.033758
vt 0.292782 0.312767
vt 0.050005 0.310526
vt 0.050005 0.031517
vt 0.053910 0.031517
vt 0.053910 0.310526
vt 0.058230 0.031517
vt 0.058230 0.310526
vt 0.062835 0.031517
vt 0.062835 0.310526
vt 0.042768 0.312767
vt 0.042768 0.033758
vt 0.038163 0.312767
vt 0.038163 0.033758
vt 0.033843 0.312767
vt 0.033843 0.033758
vt 0.029939 0.312767
vt 0.029939 0.033758
vt 0.026568 0.312767
vt 0.026568 0.033758
vt 0.568950 0.031517
vt 0.568950 0.310526
vt 0.565046 0.310526
vt 0.565046 0.031517
vt 0.560725 0.310526
vt 0.560725 0.031517
vt 0.556121 0.310526
vt 0.556121 0.031517
vt 0.325449 0.033758
vt 0.325449 0.312767
vt 0.320700 0.312767
vt 0.320700 0.033758
vt 0.304377 0.312767
vt 0.304377 0.033758
vt 0.300057 0.312767
vt 0.300057 0.033758
vt 0.296152 0.312767
vt 0.296152 0.033758
vt 0.292782 0.312767
vt 0.292782 0.033758
vt 0.309478 0.031517
vt 0.309478 0.310526
vt 0.305573 0.310526
vt 0.305573 0.031517
vt 0.301253 0.310526
vt 0.301253 0.031517
vt 0.296649 0.310526
vt 0.296649 0.031517
s 0
usemtl Material
f 51/1/1 53/2/1 54/3/1 55/4/1 56/5/1 57/6/1 58/7/1 59/8/1 60/9/1 52/10/1 11/11/1 13/12/1 14/13/1 15/14/1 16/15/1 17/16/1 18/17/1 19/18/1 20/19/1 12/20/1 31/21/1 33/22/1 34/23/1 35/24/1 36/25/1 37/26/1 38/27/1 39/28/1 40/29/1 32/30/1 71/31/1 73/32/1 74/33/1 75/34/1 76/35/1 77/36/1 78/37/1 79/38/1 80/39/1 72/40/1
f 72/41/2 61/42/2 42/43/2 51/44/2
f 32/45/3 21/46/3 62/47/3 71/48/3
f 1/49/4 3/50/4 4/51/4 5/52/4 6/53/4 7/54/4 8/55/4 9/56/4 10/57/4 2/58/4 41/59/4 43/60/4 44/61/4 45/62/4 46/63/4 47/64/4 48/65/4 49/66/4 50/67/4 42/68/4 61/69/4 63/70/4 64/71/4 65/72/4 66/73/4 67/74/4 68/75/4 69/76/4 70/77/4 62/78/4 21/79/4 23/80/4 24/81/4 25/82/4 26/83/4 27/84/4 28/85/4 29/86/4 30/87/4 22/88/4
f 12/89/5 1/90/5 22/91/5 31/92/5
f 1/90/6 12/89/6 20/93/6 3/94/6
f 3/94/7 20/93/7 19/95/7 4/96/7
f 4/96/8 19/95/8 18/97/8 5/98/8
f 5/98/9 18/97/9 17/99/9 6/100/9
f 6/101/10 17/102/10 16/103/10 7/104/10
f 7/104/11 16/103/11 15/105/11 8/106/11
f 8/106/12 15/105/12 14/107/12 9/108/12
f 9/108/13 14/107/13 13/109/13 10/110/13
f 10/110/14 13/109/14 11/111/14 2/112/14
f 71/48/15 62/47/15 70/113/15 73/114/15
f 73/114/16 70/113/16 69/115/16 74/116/16
f 74/116/17 69/115/17 68/117/17 75/118/17
f 75/118/18 68/117/18 67/119/18 76/120/18
f 76/120/19 67/119/19 66/121/19 77/122/19
f 77/123/20 66/124/20 65/125/20 78/126/20
f 78/126/21 65/125/21 64/127/21 79/128/21
f 79/128/22 64/127/22 63/129/22 80/130/22
f 80/130/23 63/129/23 61/42/23 72/41/23
f 21/46/24 32/45/24 40/131/24 23/132/24
f 23/132/25 40/131/25 39/133/25 24/134/25
f 24/134/26 39/133/26 38/135/26 25/136/26
f 25/136/27 38/135/27 37/137/27 26/138/27
f 26/138/28 37/137/28 36/139/28 27/140/28
f 27/141/29 36/142/29 35/143/29 28/144/29
f 28/144/30 35/143/30 34/145/30 29/146/30
f 29/146/31 34/145/31 33/147/31 30/148/31
f 30/148/32 33/147/32 31/92/32 22/91/32
f 41/149/33 52/150/33 60/151/33 43/152/33
f 43/152/34 60/151/34 59/153/34 44/154/34
f 44/154/35 59/153/35 58/155/35 45/156/35
f 45/156/36 58/155/36 57/157/36 46/158/36
f 46/158/37 57/157/37 56/159/37 47/160/37
f 47/161/38 56/162/38 55/163/38 48/164/38
f 48/164/39 55/163/39 54/165/39 49/166/39
f 49/166/40 54/165/40 53/167/40 50/168/40
f 50/168/41 53/167/41 51/44/41 42/43/41
f 52/150/42 41/149/42 2/112/42 11/111/42
o Cylinder
v 0.000000 -0.500000 -0.050000
v 0.009755 -0.500000 -0.049039
v 0.019134 -0.500000 -0.046194
v 0.027779 -0.500000 -0.041573
v 0.035355 -0.500000 -0.035355
v 0.041573 -0.500000 -0.027779
v 0.046194 -0.500000 -0.019134
v 0.049039 -0.500000 -0.009755
v 0.050000 -0.500000 0.000000
v 0.049039 -0.500000 0.009755
v 0.046194 -0.500000 0.019134
v 0.041573 -0.500000 0.027779
v 0.035355 -0.500000 0.035355
v 0.027779 -0.500000 0.041573
v 0.019134 -0.500000 0.046194
v 0.009755 -0.500000 0.049039
v 0.000000 -0.500000 0.050000
v -0.009755 -0.500000 0.049039
v -0.019134 -0.500000 0.046194
v -0.027779 -0.500000 0.041573
v -0.035355 -0.500000 0.035355
v -0.041573 -0.500000 0.027779
v -0.046194 -0.500000 0.019134
v -0.049039 -0.500000 0.009755
v -0.050000 -0.500000 0.000000
v -0.049039 -0.500000 -0.009755
v -0.046194 -0.500000 -0.019134
v -0.041573 -0.500000 -0.027779
v -0.035355 -0.500000 -0.035355
v -0.027779 -0.500000 -0.041573
v -0.019134 -0.500000 -0.046194
v -0.009755 -0.500000 -0.049039
v 0.000000 0.500000 -0.038555
v 0.000000 0.386097 -0.050000
v 0.000000 0.484740 -0.044277
v 0.000000 0.443049 -0.048467
v 0.007522 0.500000 -0.037814
v 0.009755 0.386097 -0.049039
v 0.008638 0.484740 -0.043427
v 0.009455 0.443049 -0.047535
v 0.014754 0.500000 -0.035620
v 0.019134 0.386097 -0.046194
v 0.016944 0.484740 -0.040907
v 0.018547 0.443049 -0.044777
v 0.021420 0.500000 -0.032057
v 0.027779 0.386097 -0.041573
v 0.024599 0.484740 -0.036815
v 0.026927 0.443049 -0.040299
v 0.027262 0.500000 -0.027262
v 0.035355 0.386097 -0.035355
v 0.031309 0.484740 -0.031309
v 0.034271 0.443049 -0.034271
v 0.032057 0.500000 -0.021420
v 0.041573 0.386097 -0.027779
v 0.036815 0.484740 -0.024599
v 0.040299 0.443049 -0.026927
v 0.035620 0.500000 -0.014754
v 0.046194 0.386097 -0.019134
v 0.040907 0.484740 -0.016944
v 0.044777 0.443049 -0.018547
v 0.037814 0.500000 -0.007522
v 0.049039 0.386097 -0.009755
v 0.043427 0.484740 -0.008638
v 0.047535 0.443049 -0.009455
v 0.038555 0.500000 0.000000
v 0.050000 0.386097 0.000000
v 0.044277 0.484740 0.000000
v 0.048467 0.443049 0.000000
v 0.037814 0.500000 0.007522
v 0.049039 0.386097 0.009755
v 0.043427 0.484740 0.008638
v 0.047535 0.443049 0.009455
v 0.035620 0.500000 0.014754
v 0.046194 0.386097 0.019134
v 0.040907 0.484740 0.016944
v 0.044777 0.443049 0.018547
v 0.032057 0.500000 0.021420
v 0.041573 0.386097 0.027779
v 0.036815 0.484740 0.024599
v 0.040299 0.443049 0.026927
v 0.027262 0.500000 0.027262
v 0.035355 0.386097 0.035355
v 0.031309 0.484740 0.031309
v 0.034271 0.443049 0.034271
v 0.021420 0.500000 0.032057
v 0.027779 0.386097 0.041573
v 0.024599 0.484740 0.036815
v 0.026927 0.443049 0.040299
v 0.014754 0.500000 0.035620
v 0.019134 0.386097 0.046194
v 0.016944 0.484740 0.040907
v 0.018547 0.443049 0.044777
v 0.007522 0.500000 0.037814
v 0.009755 0.386097 0.049039
v 0.008638 0.484740 0.043427
v 0.009455 0.443049 0.047535
v -0.000000 0.500000 0.038555
v 0.000000 0.386097 0.050000
v -0.000000 0.484740 0.044277
v -0.000000 0.443049 0.048467
v -0.007522 0.500000 0.037814
v -0.009755 0.386097 0.049039
v -0.008638 0.484740 0.043427
v -0.009455 0.443049 0.047535
v -0.014754 0.500000 0.035620
v -0.019134 0.386097 0.046194
v -0.016944 0.484740 0.040907
v -0.018547 0.443049 0.044777
v -0.021420 0.500000 0.032057
v -0.027779 0.386097 0.041573
v -0.024599 0.484740 0.036815
v -0.026927 0.443049 0.040299
v -0.027262 0.500000 0.027262
v -0.035355 0.386097 0.035355
v -0.031309 0.484740 0.031309
v -0.034271 0.443049 0.034271
v -0.032057 0.500000 0.021420
v -0.041573 0.386097 0.027779
v -0.036815 0.484740 0.024599
v -0.040299 0.443049 0.026927
v -0.035620 0.500000 0.014754
v -0.046194 0.386097 0.019134
v -0.040907 0.484740 0.016944
v -0.044777 0.443049 0.018547
v -0.037814 0.500000 0.007522
v -0.049039 0.386097 0.009755
v -0.043427 0.484740 0.008638
v -0.047535 0.443049 0.009455
v -0.038555 0.500000 -0.000000
v -0.050000 0.386097 0.000000
v -0.044277 0.484740 -0.000000
v -0.048467 0.443049 -0.000000
v -0.037814 0.500000 -0.007522
v -0.049039 0.386097 -0.009755
v -0.043427 0.484740 -0.008638
v -0.047535 0.443049 -0.009455
v -0.035620 0.500000 -0.014754
v -0.046194 0.386097 -0.019134
v -0.040907 0.484740 -0.016944
v -0.044777 0.443049 -0.018547
v -0.032057 0.500000 -0.021420
v -0.041573 0.386097 -0.027779
v -0.036815 0.484740 -0.024599
v -0.040299 0.443049 -0.026927
v -0.027262 0.500000 -0.027262
v -0.035355 0.386097 -0.035355
v -0.031309 0.484740 -0.031309
v -0.034271 0.443049 -0.034271
v -0.021420 0.500000 -0.032057
v -0.027779 0.386097 -0.041573
v -0.024599 0.484740 -0.036815
v -0.026927 0.443049 -0.040299
v -0.014754 0.500000 -0.035620
v -0.019134 0.386097 -0.046194
v -0.016944 0.484740 -0.040907
v -0.018547 0.443049 -0.044777
v -0.007522 0.500000 -0.037814
v -0.009755 0.386097 -0.049039
v -0.008638 0.484740 -0.043427
v -0.009455 0.443049 -0.047535
vn -0.0980 -0.0000 -0.9952
vn 0.4714 -0.0000 -0.8819
vn 0.6344 -0.0000 -0.7730
vn 0.7730 -0.0000 -0.6344
vn 0.8819 -0.0000 -0.4714
vn 0.9569 -0.0000 -0.2903
vn 0.9952 -0.0000 -0.0980
vn 0.9952 -0.0000 0.0980
vn 0.9569 -0.0000 0.2903
vn 0.8819 -0.0000 0.4714
vn 0.7730 -0.0000 0.6344
vn 0.6344 -0.0000 0.7730
vn 0.4714 -0.0000 0.8819
vn 0.2903 -0.0000 0.9569
vn 0.0980 -0.0000 0.9952
vn -0.0980 -0.0000 0.9952
vn -0.2903 -0.0000 0.9569
vn -0.4714 -0.0000 0.8819
vn -0.6344 -0.0000 0.7730
vn -0.7730 -0.0000 0.6344
vn -0.8819 -0.0000 0.4714
vn -0.9569 -0.0000 0.2903
vn -0.9952 -0.0000 0.0980
vn -0.9952 -0.0000 -0.0980
vn -0.9569 -0.0000 -0.2903
vn -0.8819 -0.0000 -0.4714
vn -0.7730 -0.0000 -0.6344
vn -0.6344 -0.0000 -0.7730
vn -0.4714 -0.0000 -0.8819
vn -0.2903 -0.0000 -0.9569
vn 0.0980 -0.0000 -0.9952
vn 0.2903 -0.0000 -0.9569
vn -0.0000 -1.0000 -0.0000
vn 0.0980 0.0268 -0.9948
vn 0.0975 0.0995 -0.9902
vn 0.0918 0.3496 -0.9324
vn 0.2902 0.0268 -0.9566
vn 0.2888 0.0995 -0.9522
vn 0.2720 0.3496 -0.8965
vn 0.4712 0.0268 -0.8816
vn 0.4691 0.0995 -0.8775
vn 0.4416 0.3496 -0.8263
vn 0.6342 0.0268 -0.7727
vn 0.6312 0.0995 -0.7692
vn 0.5943 0.3496 -0.7242
vn 0.7727 0.0268 -0.6342
vn 0.7692 0.0995 -0.6312
vn 0.7242 0.3496 -0.5944
vn 0.8816 0.0268 -0.4712
vn 0.8775 0.0995 -0.4691
vn 0.8263 0.3496 -0.4416
vn 0.9566 0.0268 -0.2902
vn 0.9522 0.0995 -0.2888
vn 0.8965 0.3496 -0.2720
vn 0.9948 0.0268 -0.0980
vn 0.9902 0.0995 -0.0975
vn 0.9324 0.3496 -0.0918
vn 0.9948 0.0268 0.0980
vn 0.9902 0.0995 0.0975
vn 0.9324 0.3496 0.0918
vn 0.9566 0.0268 0.2902
vn 0.9522 0.0995 0.2888
vn 0.8965 0.3496 0.2720
vn 0.8816 0.0268 0.4712
vn 0.8775 0.0995 0.4691
vn 0.8263 0.3496 0.4416
vn 0.7727 0.0268 0.6342
vn 0.7692 0.0995 0.6312
vn 0.7242 0.3496 0.5944
vn 0.6342 0.0268 0.7727
vn 0.6312 0.0995 0.7692
vn 0.5944 0.3496 0.7242
vn 0.4712 0.0268 0.8816
vn 0.4691 0.0995 0.8775
vn 0.4416 0.3496 0.8263
vn 0.2902 0.0268 0.9566
vn 0.2888 0.0995 0.9522
vn 0.2720 0.3496 0.8965
vn 0.0980 0.0268 0.9948
vn 0.0975 0.0995 0.9902
vn 0.0918 0.3496 0.9324
vn -0.0980 0.0268 0.9948
vn -0.0975 0.0995 0.9902
vn -0.0918 0.3496 0.9324
vn -0.2902 0.0268 0.9566
vn -0.2888 0.0995 0.9522
vn -0.2720 0.3496 0.8965
vn -0.4712 0.0268 0.8816
vn -0.4691 0.0995 0.8775
vn -0.4416 0.3496 0.8263
vn -0.6342 0.0268 0.7727
vn -0.6312 0.0995 0.7692
vn -0.5943 0.3496 0.7242
vn -0.7727 0.0268 0.6342
vn -0.7692 0.0995 0.6312
vn -0.7242 0.3496 0.5944
vn -0.8816 0.0268 0.4712
vn -0.8775 0.0995 0.4691
vn -0.8263 0.3496 0.4416
vn -0.9566 0.0268 0.2902
vn -0.9522 0.0995 0.2888
vn -0.8965 0.3496 0.2720
vn -0.9948 0.0268 0.0980
vn -0.9902 0.0995 0.0975
vn -0.9324 0.3496 0.0918
vn -0.9948 0.0268 -0.0980
vn -0.9902 0.0995 -0.0975
vn -0.9324 0.3496 -0.0918
vn -0.9566 0.0268 -0.2902
vn -0.9522 0.0995 -0.2888
vn -0.8965 0.3496 -0.2720
vn -0.8816 0.0268 -0.4712
vn -0.8775 0.0995 -0.4691
vn -0.8263 0.3496 -0.4416
vn -0.7727 0.0268 -0.6342
vn -0.7692 0.0995 -0.6312
vn -0.7242 0.3496 -0.5944
vn -0.6342 0.0268 -0.7727
vn -0.6312 0.0995 -0.7692
vn -0.5944 0.3496 -0.7242
vn -0.4712 0.0268 -0.8816
vn -0.4691 0.0995 -0.8775
vn -0.4416 0.3496 -0.8263
vn -0.2902 0.0268 -0.9566
vn -0.2888 0.0995 -0.9522
vn -0.2720 0.3496 -0.8965
vn -0.0980 0.0268 -0.9948
vn -0.0975 0.0995 -0.9902
vn -0.0918 0.3496 -0.9324
vn -0.0000 1.0000 -0.0000
vt 0.878488 0.276266
vt 0.878488 0.031320
vt 0.905835 0.031320
vt 0.905835 0.276266
vt 0.957924 0.274123
vt 0.957924 0.029178
vt 0.980662 0.027117
vt 0.980662 0.272063
vt 1.000000 0.024495
vt 1.000000 0.269440
vt 0.027344 0.979803
vt 0.027344 0.734857
vt 0.046681 0.737480
vt 0.046681 0.982425
vt 0.069420 0.739540
vt 0.069420 0.984485
vt 0.094686 0.740959
vt 0.094686 0.985905
vt 0.121508 0.741683
vt 0.121508 0.986628
vt 0.148856 0.741683
vt 0.148856 0.986628
vt 0.175678 0.740959
vt 0.175678 0.985905
vt 0.200944 0.739540
vt 0.200944 0.984485
vt 0.223683 0.737480
vt 0.223683 0.982425
vt 0.243021 0.734857
vt 0.243021 0.979803
vt 0.797954 0.828738
vt 0.797954 0.583792
vt 0.820693 0.585853
vt 0.820693 0.830798
vt 0.845959 0.587272
vt 0.845959 0.832217
vt 0.872781 0.587995
vt 0.872781 0.832941
vt 0.900129 0.587995
vt 0.900129 0.832941
vt 0.926951 0.587272
vt 0.926951 0.832217
vt 0.952217 0.585853
vt 0.952217 0.830798
vt 0.974956 0.583792
vt 0.974956 0.828738
vt 0.994293 0.581170
vt 0.994293 0.826115
vt 0.811437 0.549728
vt 0.811437 0.304783
vt 0.834175 0.306843
vt 0.834175 0.551789
vt 0.859441 0.308262
vt 0.859441 0.553208
vt 0.886263 0.308986
vt 0.886263 0.553931
vt 0.913611 0.308986
vt 0.913611 0.553931
vt 0.940433 0.308262
vt 0.940433 0.553208
vt 0.965699 0.306843
vt 0.965699 0.551789
vt 0.988438 0.304783
vt 0.988438 0.549728
vt 0.803661 0.272063
vt 0.803661 0.027117
vt 0.826400 0.029178
vt 0.826400 0.274123
vt 0.851665 0.030597
vt 0.851665 0.275542
vt 0.932658 0.030597
vt 0.932658 0.275542
vt 0.509222 0.934365
vt 0.494029 0.911626
vt 0.483563 0.886360
vt 0.478228 0.859538
vt 0.478228 0.832190
vt 0.483563 0.805368
vt 0.494029 0.780102
vt 0.509222 0.757363
vt 0.528560 0.738026
vt 0.551299 0.722832
vt 0.576565 0.712367
vt 0.603387 0.707031
vt 0.630735 0.707031
vt 0.657557 0.712367
vt 0.682823 0.722832
vt 0.705562 0.738026
vt 0.724899 0.757363
vt 0.740093 0.780102
vt 0.750558 0.805368
vt 0.755894 0.832190
vt 0.755894 0.859538
vt 0.750558 0.886360
vt 0.740093 0.911626
vt 0.724899 0.934365
vt 0.705562 0.953703
vt 0.682823 0.968896
vt 0.657557 0.979362
vt 0.630735 0.984697
vt 0.603387 0.984697
vt 0.576565 0.979362
vt 0.551299 0.968896
vt 0.528560 0.953703
vt 0.905416 0.015000
vt 0.931416 0.014298
vt 0.904270 0.001897
vt 0.928023 0.001257
vt 0.403357 0.792482
vt 0.379201 0.794205
vt 0.379631 0.778244
vt 0.400666 0.776743
vt 0.955907 0.012923
vt 0.950397 0.000000
vt 0.426713 0.786079
vt 0.421003 0.771168
vt 0.977948 0.010926
vt 0.454601 0.785132
vt 0.430894 0.796994
vt 0.448371 0.775242
vt 0.439861 0.761732
vt 0.996693 0.008384
vt 0.475538 0.768874
vt 0.467499 0.760389
vt 0.456517 0.748798
vt 0.030651 0.718746
vt 0.049396 0.721288
vt 0.492901 0.748842
vt 0.483361 0.742089
vt 0.470329 0.732864
vt 0.071437 0.723285
vt 0.506023 0.725809
vt 0.495349 0.721047
vt 0.480767 0.714541
vt 0.095928 0.724661
vt 0.076947 0.710362
vt 0.099321 0.711619
vt 0.503001 0.698070
vt 0.487430 0.694534
vt 0.121928 0.725362
vt 0.123073 0.712260
vt 0.506023 0.674041
vt 0.490062 0.673611
vt 0.148437 0.725362
vt 0.147291 0.712260
vt 0.504300 0.649885
vt 0.488561 0.652577
vt 0.174436 0.724661
vt 0.171043 0.711619
vt 0.497897 0.626529
vt 0.482986 0.632240
vt 0.198927 0.723285
vt 0.193418 0.710362
vt 0.487060 0.604871
vt 0.473550 0.613381
vt 0.220969 0.721288
vt 0.480692 0.577704
vt 0.496951 0.598642
vt 0.472207 0.585743
vt 0.460617 0.596725
vt 0.239714 0.718746
vt 0.460661 0.560341
vt 0.453907 0.569881
vt 0.444682 0.582913
vt 0.800668 0.567600
vt 0.822710 0.569598
vt 0.437627 0.547219
vt 0.432865 0.557894
vt 0.426359 0.572475
vt 0.847201 0.570973
vt 0.828220 0.556675
vt 0.850594 0.557932
vt 0.409888 0.550242
vt 0.406352 0.565812
vt 0.873200 0.571675
vt 0.874346 0.558572
vt 0.385859 0.547219
vt 0.385429 0.563180
vt 0.899709 0.571675
vt 0.898564 0.558572
vt 0.361703 0.548943
vt 0.364395 0.564681
vt 0.925709 0.570973
vt 0.922316 0.557932
vt 0.338347 0.555346
vt 0.344058 0.570256
vt 0.950200 0.569598
vt 0.944690 0.556675
vt 0.316689 0.566182
vt 0.325199 0.579692
vt 0.972242 0.567600
vt 0.289522 0.572551
vt 0.310460 0.556292
vt 0.297562 0.581035
vt 0.308544 0.592626
vt 0.990986 0.565059
vt 0.272159 0.592582
vt 0.281699 0.599335
vt 0.294731 0.608560
vt 0.814151 0.288591
vt 0.836192 0.290588
vt 0.259037 0.615615
vt 0.269712 0.620378
vt 0.284293 0.626883
vt 0.860683 0.291964
vt 0.841702 0.277666
vt 0.864076 0.278922
vt 0.262060 0.643355
vt 0.277630 0.646891
vt 0.886683 0.292665
vt 0.887828 0.279563
vt 0.259037 0.667383
vt 0.274998 0.667813
vt 0.913192 0.292665
vt 0.912046 0.279563
vt 0.260761 0.691539
vt 0.276499 0.688847
vt 0.939191 0.291964
vt 0.935798 0.278922
vt 0.267164 0.714895
vt 0.282074 0.709185
vt 0.963683 0.290588
vt 0.958173 0.277666
vt 0.278000 0.736553
vt 0.291510 0.728043
vt 0.985724 0.288591
vt 0.284369 0.763720
vt 0.268110 0.742783
vt 0.292854 0.755681
vt 0.304444 0.744699
vt 0.806375 0.010926
vt 0.828416 0.012923
vt 0.304400 0.781083
vt 0.311153 0.771543
vt 0.320378 0.758511
vt 0.852907 0.014298
vt 0.833926 0.000000
vt 0.856300 0.001257
vt 0.332196 0.783531
vt 0.338701 0.768949
vt 0.878907 0.015000
vt 0.880053 0.001897
vt 0.355173 0.791183
vt 0.358709 0.775612
s 0
f 112/169/43 238/170/43 114/171/43 81/172/43
f 83/173/44 122/174/44 126/175/44 84/176/44
f 84/176/45 126/175/45 130/177/45 85/178/45
f 85/179/46 130/180/46 134/181/46 86/182/46
f 86/182/47 134/181/47 138/183/47 87/184/47
f 87/184/48 138/183/48 142/185/48 88/186/48
f 88/186/49 142/185/49 146/187/49 89/188/49
f 89/188/50 146/187/50 150/189/50 90/190/50
f 90/190/51 150/189/51 154/191/51 91/192/51
f 91/192/52 154/191/52 158/193/52 92/194/52
f 92/194/53 158/193/53 162/195/53 93/196/53
f 93/196/54 162/195/54 166/197/54 94/198/54
f 94/199/55 166/200/55 170/201/55 95/202/55
f 95/202/56 170/201/56 174/203/56 96/204/56
f 96/204/57 174/203/57 178/205/57 97/206/57
f 97/206/58 178/205/58 182/207/58 98/208/58
f 98/208/59 182/207/59 186/209/59 99/210/59
f 99/210/60 186/209/60 190/211/60 100/212/60
f 100/212/61 190/211/61 194/213/61 101/214/61
f 101/214/62 194/213/62 198/215/62 102/216/62
f 102/217/63 198/218/63 202/219/63 103/220/63
f 103/220/64 202/219/64 206/221/64 104/222/64
f 104/222/65 206/221/65 210/223/65 105/224/65
f 105/224/66 210/223/66 214/225/66 106/226/66
f 106/226/67 214/225/67 218/227/67 107/228/67
f 107/228/68 218/227/68 222/229/68 108/230/68
f 108/230/69 222/229/69 226/231/69 109/232/69
f 109/233/70 226/234/70 230/235/70 110/236/70
f 110/236/71 230/235/71 234/237/71 111/238/71
f 111/238/72 234/237/72 238/170/72 112/169/72
f 81/172/73 114/171/73 118/239/73 82/240/73
f 82/240/74 118/239/74 122/174/74 83/173/74
f 81/241/75 82/242/75 83/243/75 84/244/75 85/245/75 86/246/75 87/247/75 88/248/75 89/249/75 90/250/75 91/251/75 92/252/75 93/253/75 94/254/75 95/255/75 96/256/75 97/257/75 98/258/75 99/259/75 100/260/75 101/261/75 102/262/75 103/263/75 104/264/75 105/265/75 106/266/75 107/267/75 108/268/75 109/269/75 110/270/75 111/271/75 112/272/75
f 118/239/76 114/171/76 116/273/76 120/274/76
f 120/274/77 116/273/77 115/275/77 119/276/77
f 119/277/78 115/278/78 113/279/78 117/280/78
f 122/174/79 118/239/79 120/274/79 124/281/79
f 124/281/80 120/274/80 119/276/80 123/282/80
f 123/283/81 119/277/81 117/280/81 121/284/81
f 126/175/82 122/174/82 124/281/82 128/285/82
f 128/286/83 124/287/83 123/283/83 127/288/83
f 127/288/84 123/283/84 121/284/84 125/289/84
f 130/177/85 126/175/85 128/285/85 132/290/85
f 132/291/86 128/286/86 127/288/86 131/292/86
f 131/292/87 127/288/87 125/289/87 129/293/87
f 134/181/88 130/180/88 132/294/88 136/295/88
f 136/296/89 132/291/89 131/292/89 135/297/89
f 135/297/90 131/292/90 129/293/90 133/298/90
f 138/183/91 134/181/91 136/295/91 140/299/91
f 140/300/92 136/296/92 135/297/92 139/301/92
f 139/301/93 135/297/93 133/298/93 137/302/93
f 142/185/94 138/183/94 140/299/94 144/303/94
f 144/303/95 140/299/95 139/304/95 143/305/95
f 143/306/96 139/301/96 137/302/96 141/307/96
f 146/187/97 142/185/97 144/303/97 148/308/97
f 148/308/98 144/303/98 143/305/98 147/309/98
f 147/310/99 143/306/99 141/307/99 145/311/99
f 150/189/100 146/187/100 148/308/100 152/312/100
f 152/312/101 148/308/101 147/309/101 151/313/101
f 151/314/102 147/310/102 145/311/102 149/315/102
f 154/191/103 150/189/103 152/312/103 156/316/103
f 156/316/104 152/312/104 151/313/104 155/317/104
f 155/318/105 151/314/105 149/315/105 153/319/105
f 158/193/106 154/191/106 156/316/106 160/320/106
f 160/320/107 156/316/107 155/317/107 159/321/107
f 159/322/108 155/318/108 153/319/108 157/323/108
f 162/195/109 158/193/109 160/320/109 164/324/109
f 164/325/110 160/326/110 159/322/110 163/327/110
f 163/327/111 159/322/111 157/323/111 161/328/111
f 166/197/112 162/195/112 164/324/112 168/329/112
f 168/330/113 164/325/113 163/327/113 167/331/113
f 167/331/114 163/327/114 161/328/114 165/332/114
f 170/201/115 166/200/115 168/333/115 172/334/115
f 172/335/116 168/330/116 167/331/116 171/336/116
f 171/336/117 167/331/117 165/332/117 169/337/117
f 174/203/118 170/201/118 172/334/118 176/338/118
f 176/338/119 172/334/119 171/339/119 175/340/119
f 175/341/120 171/336/120 169/337/120 173/342/120
f 178/205/121 174/203/121 176/338/121 180/343/121
f 180/343/122 176/338/122 175/340/122 179/344/122
f 179/345/123 175/341/123 173/342/123 177/346/123
f 182/207/124 178/205/124 180/343/124 184/347/124
f 184/347/125 180/343/125 179/344/125 183/348/125
f 183/349/126 179/345/126 177/346/126 181/350/126
f 186/209/127 182/207/127 184/347/127 188/351/127
f 188/351/128 184/347/128 183/348/128 187/352/128
f 187/353/129 183/349/129 181/350/129 185/354/129
f 190/211/130 186/209/130 188/351/130 192/355/130
f 192/355/131 188/351/131 187/352/131 191/356/131
f 191/357/132 187/353/132 185/354/132 189/358/132
f 194/213/133 190/211/133 192/355/133 196/359/133
f 196/360/134 192/361/134 191/357/134 195/362/134
f 195/362/135 191/357/135 189/358/135 193/363/135
f 198/215/136 194/213/136 196/359/136 200/364/136
f 200/365/137 196/360/137 195/362/137 199/366/137
f 199/366/138 195/362/138 193/363/138 197/367/138
f 202/219/139 198/218/139 200/368/139 204/369/139
f 204/370/140 200/365/140 199/366/140 203/371/140
f 203/371/141 199/366/141 197/367/141 201/372/141
f 206/221/142 202/219/142 204/369/142 208/373/142
f 208/373/143 204/369/143 203/374/143 207/375/143
f 207/376/144 203/371/144 201/372/144 205/377/144
f 210/223/145 206/221/145 208/373/145 212/378/145
f 212/378/146 208/373/146 207/375/146 211/379/146
f 211/380/147 207/376/147 205/377/147 209/381/147
f 214/225/148 210/223/148 212/378/148 216/382/148
f 216/382/149 212/378/149 211/379/149 215/383/149
f 215/384/150 211/380/150 209/381/150 213/385/150
f 218/227/151 214/225/151 216/382/151 220/386/151
f 220/386/152 216/382/152 215/383/152 219/387/152
f 219/388/153 215/384/153 213/385/153 217/389/153
f 222/229/154 218/227/154 220/386/154 224/390/154
f 224/390/155 220/386/155 219/387/155 223/391/155
f 223/392/156 219/388/156 217/389/156 221/393/156
f 226/231/157 222/229/157 224/390/157 228/394/157
f 228/395/158 224/396/158 223/392/158 227/397/158
f 227/397/159 223/392/159 221/393/159 225/398/159
f 230/235/160 226/234/160 228/399/160 232/400/160
f 232/401/161 228/395/161 227/397/161 231/402/161
f 231/402/162 227/397/162 225/398/162 229/403/162
f 234/237/163 230/235/163 232/400/163 236/404/163
f 236/404/164 232/400/164 231/405/164 235/406/164
f 235/407/165 231/402/165 229/403/165 233/408/165
f 238/170/166 234/237/166 236/404/166 240/409/166
f 240/409/167 236/404/167 235/406/167 239/410/167
f 239/411/168 235/407/168 233/408/168 237/412/168
f 114/171/169 238/170/169 240/409/169 116/273/169
f 116/273/170 240/409/170 239/410/170 115/275/170
f 115/278/171 239/411/171 237/412/171 113/279/171
f 117/280/172 113/279/172 237/412/172 233/408/172 229/403/172 225/398/172 221/393/172 217/389/172 213/385/172 209/381/172 205/377/172 201/372/172 197/367/172 193/363/172 189/358/172 185/354/172 181/350/172 177/346/172 173/342/172 169/337/172 165/332/172 161/328/172 157/323/172 153/319/172 149/315/172 145/311/172 141/307/172 137/302/172 133/298/172 129/293/172 125/289/172 121/284/172
