# Blender 4.3.2
# www.blender.org
mtllib mystreets_lightpost_y.mtl
o Cylinder
v -0.100145 0.003362 -0.497666
v -0.100145 0.003362 0.002067
v -0.098223 0.022871 -0.497666
v -0.098223 0.022871 0.002067
v -0.092533 0.041630 -0.497666
v -0.092533 0.041630 0.002067
v -0.083292 0.058919 -0.497666
v -0.083292 0.058919 0.002067
v -0.070855 0.074072 -0.497666
v -0.070855 0.074072 0.002067
v -0.055702 0.086508 -0.497666
v -0.055702 0.086508 0.002067
v -0.038413 0.095749 -0.497666
v -0.038413 0.095749 0.002067
v -0.019654 0.101440 -0.497666
v -0.019654 0.101440 0.002067
v -0.000145 0.103362 -0.497666
v -0.000145 0.103362 0.002067
v 0.019364 0.101440 -0.497666
v 0.019364 0.101440 0.002067
v 0.038124 0.095749 -0.497666
v 0.038124 0.095749 0.002067
v 0.055412 0.086508 -0.497666
v 0.055412 0.086508 0.002067
v 0.070566 0.074072 -0.497666
v 0.070566 0.074072 0.002067
v 0.083002 0.058919 -0.497666
v 0.083002 0.058919 0.002067
v 0.092243 0.041630 -0.497666
v 0.092243 0.041630 0.002067
v 0.097934 0.022871 -0.497666
v 0.097934 0.022871 0.002067
v 0.099855 0.003362 -0.497666
v 0.099855 0.003361 0.002067
v 0.097934 -0.016148 -0.497666
v 0.097934 -0.016148 0.002067
v 0.092243 -0.034907 -0.497666
v 0.092243 -0.034907 0.002067
v 0.083002 -0.052196 -0.497666
v 0.083002 -0.052196 0.002067
v 0.070566 -0.067349 -0.497666
v 0.070566 -0.067349 0.002067
v 0.055412 -0.079785 -0.497666
v 0.055412 -0.079785 0.002067
v 0.038124 -0.089026 -0.497666
v 0.038124 -0.089026 0.002067
v 0.019364 -0.094717 -0.497666
v 0.019364 -0.094717 0.002067
v -0.000145 -0.096638 -0.497666
v -0.000145 -0.096639 0.002067
v -0.019654 -0.094717 -0.497666
v -0.019654 -0.094717 0.002067
v -0.038413 -0.089026 -0.497666
v -0.038413 -0.089026 0.002067
v -0.055702 -0.079785 -0.497666
v -0.055702 -0.079785 0.002067
v -0.070855 -0.067349 -0.497666
v -0.070855 -0.067349 0.002067
v -0.083292 -0.052195 -0.497666
v -0.083292 -0.052196 0.002067
v -0.092533 -0.034907 -0.497666
v -0.092533 -0.034907 0.002067
v -0.098223 -0.016148 -0.497666
v -0.098223 -0.016148 0.002067
vn -0.9952 0.0980 -0.0000
vn -0.9569 0.2903 -0.0000
vn -0.8819 0.4714 -0.0000
vn -0.7730 0.6344 -0.0000
vn -0.6344 0.7730 -0.0000
vn -0.4714 0.8819 -0.0000
vn -0.2903 0.9569 -0.0000
vn -0.0980 0.9952 -0.0000
vn 0.0980 0.9952 -0.0000
vn 0.2903 0.9569 -0.0000
vn 0.4714 0.8819 -0.0000
vn 0.6344 0.7730 -0.0000
vn 0.7730 0.6344 -0.0000
vn 0.8819 0.4714 -0.0000
vn 0.9569 0.2903 -0.0000
vn 0.9952 0.0980 -0.0000
vn 0.9952 -0.0980 -0.0000
vn 0.9569 -0.2903 -0.0000
vn 0.8819 -0.4714 -0.0000
vn 0.7730 -0.6344 -0.0000
vn 0.6344 -0.7730 -0.0000
vn 0.4714 -0.8819 -0.0000
vn 0.2903 -0.9569 -0.0000
vn 0.0980 -0.9952 -0.0000
vn -0.0980 -0.9952 -0.0000
vn -0.2903 -0.9569 -0.0000
vn -0.4714 -0.8819 -0.0000
vn -0.6344 -0.7730 -0.0000
vn -0.7730 -0.6344 -0.0000
vn -0.8819 -0.4714 -0.0000
vn -0.0000 -0.0000 1.0000
vn -0.9569 -0.2903 -0.0000
vn -0.9952 -0.0980 -0.0000
vn -0.0000 -0.0000 -1.0000
vt 0.414214 0.415212
vt 0.414214 -0.000000
vt 0.443061 0.000000
vt 0.443061 0.415212
vt 0.476982 0.000000
vt 0.476982 0.415212
vt 0.514673 0.000000
vt 0.514673 0.415212
vt 0.554686 0.000000
vt 0.554686 0.415212
vt 0.595482 0.000000
vt 0.595482 0.415212
vt 0.635495 0.000000
vt 0.635495 0.415212
vt 0.673186 0.000000
vt 0.673186 0.415212
vt 0.707107 0.000000
vt 0.707107 0.415212
vt 0.735954 0.000000
vt 0.735954 0.415212
vt 0.735954 0.415212
vt 0.735954 0.000000
vt 0.769875 0.000000
vt 0.769875 0.415212
vt 0.807566 0.000000
vt 0.807566 0.415212
vt 0.847579 0.000000
vt 0.847579 0.415212
vt 0.888375 0.000000
vt 0.888375 0.415212
vt 0.928388 0.000000
vt 0.928388 0.415212
vt 0.966079 0.000000
vt 0.966079 0.415212
vt 1.000000 0.000000
vt 1.000000 0.415212
vt 0.707107 0.830424
vt 0.707107 0.415212
vt 0.735954 0.415212
vt 0.735954 0.830424
vt 0.769875 0.415212
vt 0.769875 0.830424
vt 0.807566 0.415212
vt 0.807566 0.830424
vt 0.847579 0.415212
vt 0.847579 0.830424
vt 0.888375 0.415212
vt 0.888375 0.830424
vt 0.928388 0.415212
vt 0.928388 0.830424
vt 0.966079 0.415212
vt 0.966079 0.830424
vt 1.000000 0.415212
vt 1.000000 0.830424
vt 0.414214 0.830424
vt 0.414214 0.415212
vt 0.443061 0.415212
vt 0.443061 0.830424
vt 0.476982 0.415212
vt 0.476982 0.830424
vt 0.514673 0.415212
vt 0.514673 0.830424
vt 0.554686 0.415212
vt 0.554686 0.830424
vt 0.595482 0.415212
vt 0.595482 0.830424
vt 0.635495 0.415212
vt 0.635495 0.830424
vt 0.367977 0.753343
vt 0.339130 0.782191
vt 0.305209 0.804856
vt 0.267518 0.820468
vt 0.227505 0.828427
vt 0.186709 0.828427
vt 0.146696 0.820468
vt 0.109005 0.804856
vt 0.075084 0.782191
vt 0.046236 0.753343
vt 0.023571 0.719422
vt 0.007959 0.681731
vt 0.000000 0.641719
vt -0.000000 0.600922
vt 0.007959 0.560909
vt 0.023571 0.523218
vt 0.046236 0.489297
vt 0.075084 0.460450
vt 0.109005 0.437785
vt 0.146696 0.422172
vt 0.186708 0.414214
vt 0.227505 0.414213
vt 0.267518 0.422172
vt 0.305209 0.437785
vt 0.339130 0.460450
vt 0.367977 0.489297
vt 0.390642 0.523218
vt 0.406254 0.560909
vt 0.414213 0.600922
vt 0.414213 0.641718
vt 0.406255 0.681731
vt 0.390642 0.719422
vt 0.673186 0.415212
vt 0.673186 0.830424
vt 0.707107 0.415212
vt 0.046236 0.339130
vt 0.023571 0.305209
vt 0.007959 0.267518
vt 0.000000 0.227505
vt 0.000000 0.186709
vt 0.007959 0.146696
vt 0.023571 0.109005
vt 0.046236 0.075084
vt 0.075084 0.046236
vt 0.109005 0.023571
vt 0.146696 0.007959
vt 0.186709 0.000000
vt 0.227505 0.000000
vt 0.267518 0.007959
vt 0.305209 0.023571
vt 0.339130 0.046236
vt 0.367977 0.075084
vt 0.390642 0.109005
vt 0.406255 0.146696
vt 0.414214 0.186709
vt 0.414214 0.227505
vt 0.406255 0.267518
vt 0.390642 0.305209
vt 0.367977 0.339130
vt 0.339130 0.367977
vt 0.305209 0.390642
vt 0.267518 0.406255
vt 0.227505 0.414214
vt 0.186709 0.414214
vt 0.146696 0.406255
vt 0.109005 0.390642
vt 0.075084 0.367977
s 0
f 1/1/1 2/2/1 4/3/1 3/4/1
f 3/4/2 4/3/2 6/5/2 5/6/2
f 5/6/3 6/5/3 8/7/3 7/8/3
f 7/8/4 8/7/4 10/9/4 9/10/4
f 9/10/5 10/9/5 12/11/5 11/12/5
f 11/12/6 12/11/6 14/13/6 13/14/6
f 13/14/7 14/13/7 16/15/7 15/16/7
f 15/16/8 16/15/8 18/17/8 17/18/8
f 17/18/9 18/17/9 20/19/9 19/20/9
f 19/21/10 20/22/10 22/23/10 21/24/10
f 21/24/11 22/23/11 24/25/11 23/26/11
f 23/26/12 24/25/12 26/27/12 25/28/12
f 25/28/13 26/27/13 28/29/13 27/30/13
f 27/30/14 28/29/14 30/31/14 29/32/14
f 29/32/15 30/31/15 32/33/15 31/34/15
f 31/34/16 32/33/16 34/35/16 33/36/16
f 33/37/17 34/38/17 36/39/17 35/40/17
f 35/40/18 36/39/18 38/41/18 37/42/18
f 37/42/19 38/41/19 40/43/19 39/44/19
f 39/44/20 40/43/20 42/45/20 41/46/20
f 41/46/21 42/45/21 44/47/21 43/48/21
f 43/48/22 44/47/22 46/49/22 45/50/22
f 45/50/23 46/49/23 48/51/23 47/52/23
f 47/52/24 48/51/24 50/53/24 49/54/24
f 49/55/25 50/56/25 52/57/25 51/58/25
f 51/58/26 52/57/26 54/59/26 53/60/26
f 53/60/27 54/59/27 56/61/27 55/62/27
f 55/62/28 56/61/28 58/63/28 57/64/28
f 57/64/29 58/63/29 60/65/29 59/66/29
f 59/66/30 60/65/30 62/67/30 61/68/30
f 4/69/31 2/70/31 64/71/31 62/72/31 60/73/31 58/74/31 56/75/31 54/76/31 52/77/31 50/78/31 48/79/31 46/80/31 44/81/31 42/82/31 40/83/31 38/84/31 36/85/31 34/86/31 32/87/31 30/88/31 28/89/31 26/90/31 24/91/31 22/92/31 20/93/31 18/94/31 16/95/31 14/96/31 12/97/31 10/98/31 8/99/31 6/100/31
f 61/68/32 62/67/32 64/101/32 63/102/32
f 63/102/33 64/101/33 2/103/33 1/37/33
f 1/104/34 3/105/34 5/106/34 7/107/34 9/108/34 11/109/34 13/110/34 15/111/34 17/112/34 19/113/34 21/114/34 23/115/34 25/116/34 27/117/34 29/118/34 31/119/34 33/120/34 35/121/34 37/122/34 39/123/34 41/124/34 43/125/34 45/126/34 47/127/34 49/128/34 51/129/34 53/130/34 55/131/34 57/132/34 59/133/34 61/134/34 63/135/34
o Cylinder.001
v -0.001093 0.499289 -0.097666
v -0.001093 -0.499055 -0.097666
v -0.020602 0.499289 -0.095744
v -0.020602 -0.499055 -0.095744
v -0.039361 0.499289 -0.090054
v -0.039361 -0.499055 -0.090054
v -0.056650 0.499289 -0.080813
v -0.056650 -0.499055 -0.080813
v -0.071804 0.499289 -0.068376
v -0.071804 -0.499055 -0.068377
v -0.084240 0.499289 -0.053223
v -0.084240 -0.499055 -0.053223
v -0.093481 0.499289 -0.035934
v -0.093481 -0.499055 -0.035934
v -0.099171 0.499289 -0.017175
v -0.099172 -0.499055 -0.017175
v -0.101093 0.499289 0.002334
v -0.101093 -0.499055 0.002334
v -0.099171 0.499289 0.021843
v -0.099172 -0.499055 0.021843
v -0.093481 0.499289 0.040603
v -0.093481 -0.499055 0.040602
v -0.084240 0.499289 0.057891
v -0.084240 -0.499055 0.057891
v -0.071804 0.499289 0.073045
v -0.071804 -0.499055 0.073045
v -0.056650 0.499289 0.085481
v -0.056650 -0.499055 0.085481
v -0.039361 0.499289 0.094722
v -0.039361 -0.499055 0.094722
v -0.020602 0.499289 0.100413
v -0.020602 -0.499055 0.100413
v -0.001093 0.499289 0.102334
v -0.001093 -0.499055 0.102334
v 0.018416 0.499289 0.100413
v 0.018416 -0.499055 0.100413
v 0.037175 0.499289 0.094722
v 0.037175 -0.499055 0.094722
v 0.054464 0.499289 0.085481
v 0.054464 -0.499055 0.085481
v 0.069618 0.499289 0.073045
v 0.069618 -0.499055 0.073045
v 0.082054 0.499289 0.057891
v 0.082054 -0.499055 0.057891
v 0.091295 0.499289 0.040603
v 0.091295 -0.499055 0.040602
v 0.096986 0.499289 0.021843
v 0.096986 -0.499055 0.021843
v 0.098907 0.499289 0.002334
v 0.098907 -0.499055 0.002334
v 0.096986 0.499289 -0.017175
v 0.096986 -0.499055 -0.017175
v 0.091295 0.499289 -0.035934
v 0.091295 -0.499055 -0.035934
v 0.082054 0.499289 -0.053223
v 0.082054 -0.499055 -0.053223
v 0.069618 0.499289 -0.068376
v 0.069618 -0.499055 -0.068377
v 0.054464 0.499289 -0.080813
v 0.054464 -0.499055 -0.080813
v 0.037175 0.499289 -0.090054
v 0.037175 -0.499055 -0.090054
v 0.018416 0.499289 -0.095744
v 0.018416 -0.499055 -0.095744
vn -0.0980 -0.0000 -0.9952
vn -0.2903 -0.0000 -0.9569
vn -0.4714 -0.0000 -0.8819
vn -0.6344 -0.0000 -0.7730
vn -0.7730 -0.0000 -0.6344
vn -0.8819 -0.0000 -0.4714
vn -0.9569 -0.0000 -0.2903
vn -0.9952 -0.0000 -0.0980
vn -0.9952 -0.0000 0.0980
vn -0.9569 -0.0000 0.2903
vn -0.8819 -0.0000 0.4714
vn -0.7730 -0.0000 0.6344
vn -0.6344 -0.0000 0.7730
vn -0.4714 -0.0000 0.8819
vn -0.2903 -0.0000 0.9569
vn -0.0980 -0.0000 0.9952
vn 0.0980 -0.0000 0.9952
vn 0.2903 -0.0000 0.9569
vn 0.4714 -0.0000 0.8819
vn 0.6344 -0.0000 0.7730
vn 0.7730 -0.0000 0.6344
vn 0.8819 -0.0000 0.4714
vn 0.9569 -0.0000 0.2903
vn 0.9952 -0.0000 0.0980
vn 0.9952 -0.0000 -0.0980
vn 0.9569 -0.0000 -0.2903
vn 0.8819 -0.0000 -0.4714
vn 0.7730 -0.0000 -0.6344
vn 0.6344 -0.0000 -0.7730
vn 0.4714 -0.0000 -0.8819
vn -0.0000 -1.0000 -0.0000
vn 0.2903 -0.0000 -0.9569
vn 0.0980 -0.0000 -0.9952
vn -0.0000 1.0000 -0.0000
vt 0.414214 0.415212
vt 0.414214 -0.000000
vt 0.443061 0.000000
vt 0.443061 0.415212
vt 0.476982 0.000000
vt 0.476982 0.415212
vt 0.514673 0.000000
vt 0.514673 0.415212
vt 0.554686 0.000000
vt 0.554686 0.415212
vt 0.595482 0.000000
vt 0.595482 0.415212
vt 0.635495 0.000000
vt 0.635495 0.415212
vt 0.673186 0.000000
vt 0.673186 0.415212
vt 0.707107 0.000000
vt 0.707107 0.415212
vt 0.735954 0.000000
vt 0.735954 0.415212
vt 0.735954 0.415212
vt 0.735954 0.000000
vt 0.769875 0.000000
vt 0.769875 0.415212
vt 0.807566 0.000000
vt 0.807566 0.415212
vt 0.847579 0.000000
vt 0.847579 0.415212
vt 0.888375 0.000000
vt 0.888375 0.415212
vt 0.928388 0.000000
vt 0.928388 0.415212
vt 0.966079 0.000000
vt 0.966079 0.415212
vt 1.000000 0.000000
vt 1.000000 0.415212
vt 0.707107 0.830424
vt 0.707107 0.415212
vt 0.735954 0.415212
vt 0.735954 0.830424
vt 0.769875 0.415212
vt 0.769875 0.830424
vt 0.807566 0.415212
vt 0.807566 0.830424
vt 0.847579 0.415212
vt 0.847579 0.830424
vt 0.888375 0.415212
vt 0.888375 0.830424
vt 0.928388 0.415212
vt 0.928388 0.830424
vt 0.966079 0.415212
vt 0.966079 0.830424
vt 1.000000 0.415212
vt 1.000000 0.830424
vt 0.414214 0.830424
vt 0.414214 0.415212
vt 0.443061 0.415212
vt 0.443061 0.830424
vt 0.476982 0.415212
vt 0.476982 0.830424
vt 0.514673 0.415212
vt 0.514673 0.830424
vt 0.554686 0.415212
vt 0.554686 0.830424
vt 0.595482 0.415212
vt 0.595482 0.830424
vt 0.635495 0.415212
vt 0.635495 0.830424
vt 0.367977 0.753343
vt 0.339130 0.782191
vt 0.305209 0.804856
vt 0.267518 0.820468
vt 0.227505 0.828427
vt 0.186709 0.828427
vt 0.146696 0.820468
vt 0.109005 0.804856
vt 0.075084 0.782191
vt 0.046236 0.753343
vt 0.023571 0.719422
vt 0.007959 0.681731
vt 0.000000 0.641719
vt -0.000000 0.600922
vt 0.007959 0.560909
vt 0.023571 0.523218
vt 0.046236 0.489297
vt 0.075084 0.460450
vt 0.109005 0.437785
vt 0.146696 0.422172
vt 0.186708 0.414214
vt 0.227505 0.414213
vt 0.267518 0.422172
vt 0.305209 0.437785
vt 0.339130 0.460450
vt 0.367977 0.489297
vt 0.390642 0.523218
vt 0.406254 0.560909
vt 0.414213 0.600922
vt 0.414213 0.641718
vt 0.406255 0.681731
vt 0.390642 0.719422
vt 0.673186 0.415212
vt 0.673186 0.830424
vt 0.707107 0.415212
vt 0.046236 0.339130
vt 0.023571 0.305209
vt 0.007959 0.267518
vt 0.000000 0.227505
vt 0.000000 0.186709
vt 0.007959 0.146696
vt 0.023571 0.109005
vt 0.046236 0.075084
vt 0.075084 0.046236
vt 0.109005 0.023571
vt 0.146696 0.007959
vt 0.186709 0.000000
vt 0.227505 0.000000
vt 0.267518 0.007959
vt 0.305209 0.023571
vt 0.339130 0.046236
vt 0.367977 0.075084
vt 0.390642 0.109005
vt 0.406255 0.146696
vt 0.414214 0.186709
vt 0.414214 0.227505
vt 0.406255 0.267518
vt 0.390642 0.305209
vt 0.367977 0.339130
vt 0.339130 0.367977
vt 0.305209 0.390642
vt 0.267518 0.406255
vt 0.227505 0.414214
vt 0.186709 0.414214
vt 0.146696 0.406255
vt 0.109005 0.390642
vt 0.075084 0.367977
s 0
f 65/136/35 66/137/35 68/138/35 67/139/35
f 67/139/36 68/138/36 70/140/36 69/141/36
f 69/141/37 70/140/37 72/142/37 71/143/37
f 71/143/38 72/142/38 74/144/38 73/145/38
f 73/145/39 74/144/39 76/146/39 75/147/39
f 75/147/40 76/146/40 78/148/40 77/149/40
f 77/149/41 78/148/41 80/150/41 79/151/41
f 79/151/42 80/150/42 82/152/42 81/153/42
f 81/153/43 82/152/43 84/154/43 83/155/43
f 83/156/44 84/157/44 86/158/44 85/159/44
f 85/159/45 86/158/45 88/160/45 87/161/45
f 87/161/46 88/160/46 90/162/46 89/163/46
f 89/163/47 90/162/47 92/164/47 91/165/47
f 91/165/48 92/164/48 94/166/48 93/167/48
f 93/167/49 94/166/49 96/168/49 95/169/49
f 95/169/50 96/168/50 98/170/50 97/171/50
f 97/172/51 98/173/51 100/174/51 99/175/51
f 99/175/52 100/174/52 102/176/52 101/177/52
f 101/177/53 102/176/53 104/178/53 103/179/53
f 103/179/54 104/178/54 106/180/54 105/181/54
f 105/181/55 106/180/55 108/182/55 107/183/55
f 107/183/56 108/182/56 110/184/56 109/185/56
f 109/185/57 110/184/57 112/186/57 111/187/57
f 111/187/58 112/186/58 114/188/58 113/189/58
f 113/190/59 114/191/59 116/192/59 115/193/59
f 115/193/60 116/192/60 118/194/60 117/195/60
f 117/195/61 118/194/61 120/196/61 119/197/61
f 119/197/62 120/196/62 122/198/62 121/199/62
f 121/199/63 122/198/63 124/200/63 123/201/63
f 123/201/64 124/200/64 126/202/64 125/203/64
f 68/204/65 66/205/65 128/206/65 126/207/65 124/208/65 122/209/65 120/210/65 118/211/65 116/212/65 114/213/65 112/214/65 110/215/65 108/216/65 106/217/65 104/218/65 102/219/65 100/220/65 98/221/65 96/222/65 94/223/65 92/224/65 90/225/65 88/226/65 86/227/65 84/228/65 82/229/65 80/230/65 78/231/65 76/232/65 74/233/65 72/234/65 70/235/65
f 125/203/66 126/202/66 128/236/66 127/237/66
f 127/237/67 128/236/67 66/238/67 65/172/67
f 65/239/68 67/240/68 69/241/68 71/242/68 73/243/68 75/244/68 77/245/68 79/246/68 81/247/68 83/248/68 85/249/68 87/250/68 89/251/68 91/252/68 93/253/68 95/254/68 97/255/68 99/256/68 101/257/68 103/258/68 105/259/68 107/260/68 109/261/68 111/262/68 113/263/68 115/264/68 117/265/68 119/266/68 121/267/68 123/268/68 125/269/68 127/270/68
