# Blender 4.3.2
# www.blender.org
mtllib mystreets_railroad_light.mtl
o Cube.001
v 0.110244 0.111614 0.288452
v 0.110244 -0.108875 0.288452
v 0.200000 0.201369 0.498424
v 0.200000 -0.198631 0.498424
v -0.110244 0.111614 0.292188
v -0.110244 -0.108875 0.292188
v -0.200000 0.201369 0.498424
v -0.200000 -0.198631 0.498424
v 0.200000 -0.198631 0.337017
v -0.200000 -0.198631 0.337017
v 0.200000 0.201369 0.337017
v -0.200000 0.201369 0.337017
v 0.110244 -0.108875 0.386436
v -0.110244 -0.108875 0.386436
v 0.110244 0.111614 0.386436
v -0.110244 0.111614 0.386436
vn -0.0000 1.0000 -0.0000
vn -0.0000 -0.0000 1.0000
vn -1.0000 -0.0000 -0.0000
vn -0.0000 -1.0000 -0.0000
vn 1.0000 -0.0000 -0.0000
vn -0.0053 -0.4615 -0.8871
vn 0.4759 -0.0000 -0.8795
vn -0.4468 -0.0000 -0.8946
vn -0.0053 0.4615 -0.8871
vn -0.0000 -0.0000 -1.0000
vt 0.228374 0.058594
vt 0.228374 0.238734
vt 0.048234 0.238734
vt 0.048234 0.058594
vt 0.243546 0.238734
vt 0.063406 0.238734
vt 0.063406 0.058594
vt 0.243546 0.058594
vt 0.238734 0.232281
vt 0.058594 0.232281
vt 0.058594 0.052140
vt 0.238734 0.052140
vt 0.220562 0.047328
vt 0.220562 0.227469
vt 0.040421 0.227469
vt 0.040421 0.047328
vt 0.219656 0.236187
vt 0.039515 0.236187
vt 0.039516 0.056047
vt 0.219656 0.056047
vt 0.299920 0.968750
vt 0.299920 0.869453
vt 0.342365 0.869453
vt 0.342365 0.968750
vt 0.259544 0.815953
vt 0.358834 0.815953
vt 0.399343 0.856375
vt 0.219204 0.856375
vt 0.358834 0.716656
vt 0.399343 0.676234
vt 0.259544 0.716656
vt 0.219204 0.676234
vt 0.837195 0.384907
vt 0.837195 0.285609
vt 0.936491 0.285609
vt 0.936491 0.384907
vt 0.079284 0.869453
vt 0.077601 0.968750
vt 0.035156 0.968750
vt 0.035156 0.869453
vt 0.121728 0.869453
vt 0.123411 0.968750
vt 0.079284 0.968750
vt 0.255793 0.869453
vt 0.255793 0.968750
vt 0.211665 0.968750
vt 0.211665 0.869453
s 1
usemtl Material.001
f 11/1/1 12/2/1 7/3/1 3/4/1
f 4/5/2 3/6/2 7/7/2 8/8/2
f 8/9/3 7/10/3 12/11/3 10/12/3
f 10/13/4 9/14/4 4/15/4 8/16/4
f 9/17/5 11/18/5 3/19/5 4/20/5
f 6/21/5 5/22/5 16/23/5 14/24/5
f 6/25/6 2/26/6 9/27/6 10/28/6
f 2/26/7 1/29/7 11/30/7 9/27/7
f 5/31/8 6/25/8 10/28/8 12/32/8
f 1/29/9 5/31/9 12/32/9 11/30/9
f 14/33/10 16/34/10 15/35/10 13/36/10
f 2/37/1 6/38/1 14/39/1 13/40/1
f 5/41/4 1/42/4 15/43/4 16/37/4
f 1/44/3 2/45/3 13/46/3 15/47/3
o Cube.002
v -0.200000 0.180324 0.337589
v -0.200000 0.200324 0.337589
v -0.200000 0.180324 0.182692
v -0.200000 0.200324 0.182692
v 0.200000 0.180324 0.337589
v 0.200000 0.200324 0.337589
v 0.200000 0.180324 0.182692
v 0.200000 0.200324 0.182692
vn -1.0000 -0.0000 -0.0000
vn -0.0000 -0.0000 -1.0000
vn 1.0000 -0.0000 -0.0000
vn -0.0000 -0.0000 1.0000
vn -0.0000 -1.0000 -0.0000
vn -0.0000 1.0000 -0.0000
vt 0.858159 0.943671
vt 0.858159 0.763531
vt 0.927917 0.763531
vt 0.927917 0.943671
vt 0.746094 0.949672
vt 0.746094 0.769531
vt 0.926234 0.769531
vt 0.926234 0.949672
vt 0.845885 0.947578
vt 0.845885 0.767437
vt 0.915643 0.767437
vt 0.915643 0.947578
vt 0.746547 0.937953
vt 0.746547 0.757812
vt 0.926687 0.757812
vt 0.926687 0.937953
vt 0.919226 0.781703
vt 0.919226 0.961844
vt 0.849468 0.961844
vt 0.849468 0.781703
vt 0.926807 0.763531
vt 0.926807 0.943671
vt 0.857049 0.943671
vt 0.857049 0.763531
s 1
usemtl Material.001
f 17/48/11 18/49/11 20/50/11 19/51/11
f 19/52/12 20/53/12 24/54/12 23/55/12
f 23/56/13 24/57/13 22/58/13 21/59/13
f 21/60/14 22/61/14 18/62/14 17/63/14
f 19/64/15 23/65/15 21/66/15 17/67/15
f 24/68/16 20/69/16 18/70/16 22/71/16
o Cube.003
v 0.200636 0.181371 0.342128
v 0.180636 0.181371 0.342128
v 0.200636 0.026475 0.342128
v 0.180636 0.026475 0.342128
v 0.200636 0.181371 0.182909
v 0.180636 0.181371 0.182909
v 0.200636 0.026475 0.301111
v 0.180636 0.026475 0.301111
vn -0.0000 -0.0000 1.0000
vn -0.0000 -1.0000 -0.0000
vn -0.0000 -0.6066 -0.7950
vn -0.0000 1.0000 -0.0000
vn 1.0000 -0.0000 -0.0000
vn -1.0000 -0.0000 -0.0000
vt 0.862643 0.943671
vt 0.862643 0.763531
vt 0.932401 0.763531
vt 0.932401 0.943671
vt 0.884623 0.943218
vt 0.884623 0.763078
vt 0.895829 0.763078
vt 0.895829 0.943218
vt 0.829423 0.947124
vt 0.829423 0.766984
vt 0.917171 0.766984
vt 0.917171 0.947124
vt 0.850767 0.958390
vt 0.850767 0.778250
vt 0.922471 0.778250
vt 0.922471 0.958390
vt 0.906291 0.777344
vt 0.906291 0.795816
vt 0.836533 0.849048
vt 0.836533 0.777344
vt 0.906291 0.808530
vt 0.906291 0.827002
vt 0.836533 0.827002
vt 0.836533 0.755298
s 1
usemtl Material.001
f 25/72/17 26/73/17 28/74/17 27/75/17
f 27/76/18 28/77/18 32/78/18 31/79/18
f 31/80/19 32/81/19 30/82/19 29/83/19
f 29/84/20 30/85/20 26/86/20 25/87/20
f 27/88/21 31/89/21 29/90/21 25/91/21
f 32/92/22 28/93/22 26/94/22 30/95/22
o Cube.004
v -0.180237 0.180656 0.342128
v -0.200237 0.180656 0.342128
v -0.180237 0.025760 0.342128
v -0.200237 0.025760 0.342128
v -0.180237 0.180656 0.182909
v -0.200237 0.180656 0.182909
v -0.180237 0.025760 0.301111
v -0.200237 0.025760 0.301111
vn -0.0000 -0.0000 1.0000
vn -0.0000 -1.0000 -0.0000
vn -0.0000 -0.6066 -0.7950
vn -0.0000 1.0000 -0.0000
vn 1.0000 -0.0000 -0.0000
vn -1.0000 -0.0000 -0.0000
vt 0.862484 0.947578
vt 0.862484 0.767437
vt 0.932242 0.767437
vt 0.932242 0.947578
vt 0.868999 0.934953
vt 0.868999 0.754812
vt 0.880205 0.754812
vt 0.880205 0.934953
vt 0.837237 0.938859
vt 0.837237 0.758719
vt 0.924985 0.758719
vt 0.924985 0.938859
vt 0.854671 0.943218
vt 0.854671 0.763078
vt 0.926375 0.763078
vt 0.926375 0.943218
vt 0.886760 0.793875
vt 0.886760 0.812346
vt 0.817002 0.865579
vt 0.817002 0.793875
vt 0.925821 0.831935
vt 0.925821 0.850407
vt 0.856063 0.850407
vt 0.856063 0.778703
s 1
usemtl Material.001
f 33/96/23 34/97/23 36/98/23 35/99/23
f 35/100/24 36/101/24 40/102/24 39/103/24
f 39/104/25 40/105/25 38/106/25 37/107/25
f 37/108/26 38/109/26 34/110/26 33/111/26
f 35/112/27 39/113/27 37/114/27 33/115/27
f 40/116/28 36/117/28 34/118/28 38/119/28
