# Blender 4.3.2
# www.blender.org
mtllib mystreets_lightpost.mtl
o Cylinder
v -0.100145 0.503362 -0.002499
v -0.100145 -0.500049 -0.002499
v -0.098223 0.503362 0.017010
v -0.098223 -0.500049 0.017010
v -0.092532 0.503362 0.035769
v -0.092533 -0.500049 0.035769
v -0.083291 0.503362 0.053058
v -0.083292 -0.500049 0.053058
v -0.070855 0.503362 0.068212
v -0.070855 -0.500049 0.068211
v -0.055702 0.503362 0.080648
v -0.055702 -0.500049 0.080648
v -0.038413 0.503362 0.089889
v -0.038413 -0.500049 0.089889
v -0.019654 0.503362 0.095579
v -0.019654 -0.500049 0.095579
v -0.000145 0.503362 0.097501
v -0.000145 -0.500049 0.097501
v 0.019365 0.503362 0.095579
v 0.019364 -0.500049 0.095579
v 0.038124 0.503362 0.089889
v 0.038124 -0.500049 0.089889
v 0.055413 0.503362 0.080648
v 0.055412 -0.500049 0.080648
v 0.070566 0.503362 0.068212
v 0.070566 -0.500049 0.068211
v 0.083002 0.503361 0.053058
v 0.083002 -0.500049 0.053058
v 0.092243 0.503361 0.035769
v 0.092243 -0.500049 0.035769
v 0.097934 0.503361 0.017010
v 0.097934 -0.500049 0.017010
v 0.099855 0.503361 -0.002499
v 0.099855 -0.500049 -0.002499
v 0.097934 0.503362 -0.022008
v 0.097934 -0.500049 -0.022008
v 0.092243 0.503362 -0.040768
v 0.092243 -0.500049 -0.040768
v 0.083002 0.503362 -0.058056
v 0.083002 -0.500049 -0.058056
v 0.070566 0.503362 -0.073210
v 0.070566 -0.500049 -0.073210
v 0.055412 0.503362 -0.085646
v 0.055412 -0.500049 -0.085646
v 0.038124 0.503362 -0.094887
v 0.038124 -0.500049 -0.094887
v 0.019365 0.503362 -0.100578
v 0.019364 -0.500049 -0.100578
v -0.000145 0.503362 -0.102499
v -0.000145 -0.500049 -0.102499
v -0.019654 0.503362 -0.100578
v -0.019654 -0.500049 -0.100578
v -0.038413 0.503362 -0.094887
v -0.038413 -0.500049 -0.094887
v -0.055702 0.503362 -0.085646
v -0.055702 -0.500049 -0.085646
v -0.070855 0.503362 -0.073210
v -0.070855 -0.500049 -0.073210
v -0.083291 0.503362 -0.058056
v -0.083292 -0.500049 -0.058056
v -0.092532 0.503362 -0.040768
v -0.092533 -0.500049 -0.040768
v -0.098223 0.503362 -0.022008
v -0.098223 -0.500049 -0.022008
vn -0.9952 -0.0000 0.0980
vn -0.9569 -0.0000 0.2903
vn -0.8819 -0.0000 0.4714
vn -0.7730 -0.0000 0.6344
vn -0.6344 -0.0000 0.7730
vn -0.4714 -0.0000 0.8819
vn -0.2903 -0.0000 0.9569
vn -0.0980 -0.0000 0.9952
vn 0.0980 -0.0000 0.9952
vn 0.2903 -0.0000 0.9569
vn 0.4714 -0.0000 0.8819
vn 0.6344 -0.0000 0.7730
vn 0.7730 -0.0000 0.6344
vn 0.8819 -0.0000 0.4714
vn 0.9569 -0.0000 0.2903
vn 0.9952 -0.0000 0.0980
vn 0.9952 -0.0000 -0.0980
vn 0.9569 -0.0000 -0.2903
vn 0.8819 -0.0000 -0.4714
vn 0.7730 -0.0000 -0.6344
vn 0.6344 -0.0000 -0.7730
vn 0.4714 -0.0000 -0.8819
vn 0.2903 -0.0000 -0.9569
vn 0.0980 -0.0000 -0.9952
vn -0.0980 -0.0000 -0.9952
vn -0.2903 -0.0000 -0.9569
vn -0.4714 -0.0000 -0.8819
vn -0.6344 -0.0000 -0.7730
vn -0.7730 -0.0000 -0.6344
vn -0.8819 -0.0000 -0.4714
vn -0.0000 -1.0000 -0.0000
vn -0.9569 -0.0000 -0.2903
vn -0.9952 -0.0000 -0.0980
vn -0.0000 1.0000 -0.0000
vt 0.492980 0.377737
vt 0.492980 0.000000
vt 0.512921 0.000000
vt 0.512921 0.377737
vt 0.529880 0.000000
vt 0.529880 0.377737
vt 0.185510 0.377737
vt 0.185510 0.000000
vt 0.205451 0.000000
vt 0.205451 0.377737
vt 0.227609 0.000000
vt 0.227609 0.377737
vt 0.251131 0.000000
vt 0.251131 0.377737
vt 0.275114 0.000000
vt 0.275114 0.377737
vt 0.298637 0.000000
vt 0.298637 0.377737
vt 0.320795 0.000000
vt 0.320795 0.377737
vt 0.340736 0.000000
vt 0.340736 0.377737
vt 0.357695 0.000000
vt 0.357695 0.377737
vt -0.000000 0.377737
vt -0.000000 -0.000000
vt 0.013324 0.000000
vt 0.013324 0.377737
vt 0.030283 0.000000
vt 0.030283 0.377737
vt 0.050225 0.000000
vt 0.050225 0.377737
vt 0.072382 0.000000
vt 0.072382 0.377737
vt 0.095905 0.000000
vt 0.095905 0.377737
vt 0.119888 0.000000
vt 0.119888 0.377737
vt 0.143411 0.000000
vt 0.143411 0.377737
vt 0.165568 0.000000
vt 0.165568 0.377737
vt 0.185510 0.000000
vt 0.185510 0.377737
vt 0.549821 0.000000
vt 0.549821 0.377737
vt 0.571979 0.000000
vt 0.571979 0.377737
vt 0.595502 0.000000
vt 0.595502 0.377737
vt 0.619485 0.000000
vt 0.619485 0.377737
vt 0.643007 0.000000
vt 0.643007 0.377737
vt 0.665165 0.000000
vt 0.665165 0.377737
vt 0.685107 0.000000
vt 0.685107 0.377737
vt 0.357695 0.377737
vt 0.377636 0.000000
vt 0.377636 0.377737
vt 0.399794 0.000000
vt 0.399794 0.377737
vt 0.423316 0.000000
vt 0.423316 0.377737
vt 0.447300 0.000000
vt 0.447300 0.377737
vt 0.248186 0.535004
vt 0.243507 0.511482
vt 0.243507 0.487498
vt 0.248186 0.463976
vt 0.257364 0.441818
vt 0.270688 0.421877
vt 0.287647 0.404918
vt 0.307588 0.391594
vt 0.329746 0.382416
vt 0.353268 0.377737
vt 0.377252 0.377737
vt 0.400774 0.382416
vt 0.422932 0.391594
vt 0.442873 0.404918
vt 0.459832 0.421877
vt 0.473156 0.441818
vt 0.482334 0.463976
vt 0.487013 0.487498
vt 0.487013 0.511482
vt 0.482334 0.535004
vt 0.473156 0.557162
vt 0.459832 0.577103
vt 0.442873 0.594062
vt 0.422932 0.607387
vt 0.400774 0.616565
vt 0.377252 0.621243
vt 0.353268 0.621243
vt 0.329746 0.616565
vt 0.307588 0.607386
vt 0.287647 0.594062
vt 0.270688 0.577103
vt 0.257364 0.557162
vt 0.470822 0.000000
vt 0.470822 0.377737
vt 0.027181 0.577103
vt 0.013857 0.557162
vt 0.004679 0.535004
vt 0.000000 0.511482
vt 0.000000 0.487498
vt 0.004679 0.463976
vt 0.013857 0.441818
vt 0.027181 0.421877
vt 0.044140 0.404918
vt 0.064082 0.391594
vt 0.086239 0.382416
vt 0.109762 0.377737
vt 0.133745 0.377737
vt 0.157267 0.382416
vt 0.179425 0.391594
vt 0.199367 0.404918
vt 0.216325 0.421877
vt 0.229650 0.441818
vt 0.238828 0.463976
vt 0.243507 0.487498
vt 0.243507 0.511482
vt 0.238828 0.535004
vt 0.229650 0.557162
vt 0.216325 0.577103
vt 0.199367 0.594062
vt 0.179425 0.607387
vt 0.157267 0.616565
vt 0.133745 0.621243
vt 0.109762 0.621243
vt 0.086239 0.616565
vt 0.064082 0.607387
vt 0.044140 0.594062
s 0
f 1/1/1 2/2/1 4/3/1 3/4/1
f 3/4/2 4/3/2 6/5/2 5/6/2
f 5/7/3 6/8/3 8/9/3 7/10/3
f 7/10/4 8/9/4 10/11/4 9/12/4
f 9/12/5 10/11/5 12/13/5 11/14/5
f 11/14/6 12/13/6 14/15/6 13/16/6
f 13/16/7 14/15/7 16/17/7 15/18/7
f 15/18/8 16/17/8 18/19/8 17/20/8
f 17/20/9 18/19/9 20/21/9 19/22/9
f 19/22/10 20/21/10 22/23/10 21/24/10
f 21/25/11 22/26/11 24/27/11 23/28/11
f 23/28/12 24/27/12 26/29/12 25/30/12
f 25/30/13 26/29/13 28/31/13 27/32/13
f 27/32/14 28/31/14 30/33/14 29/34/14
f 29/34/15 30/33/15 32/35/15 31/36/15
f 31/36/16 32/35/16 34/37/16 33/38/16
f 33/38/17 34/37/17 36/39/17 35/40/17
f 35/40/18 36/39/18 38/41/18 37/42/18
f 37/42/19 38/41/19 40/43/19 39/44/19
f 39/6/20 40/5/20 42/45/20 41/46/20
f 41/46/21 42/45/21 44/47/21 43/48/21
f 43/48/22 44/47/22 46/49/22 45/50/22
f 45/50/23 46/49/23 48/51/23 47/52/23
f 47/52/24 48/51/24 50/53/24 49/54/24
f 49/54/25 50/53/25 52/55/25 51/56/25
f 51/56/26 52/55/26 54/57/26 53/58/26
f 53/59/27 54/23/27 56/60/27 55/61/27
f 55/61/28 56/60/28 58/62/28 57/63/28
f 57/63/29 58/62/29 60/64/29 59/65/29
f 59/65/30 60/64/30 62/66/30 61/67/30
f 4/68/31 2/69/31 64/70/31 62/71/31 60/72/31 58/73/31 56/74/31 54/75/31 52/76/31 50/77/31 48/78/31 46/79/31 44/80/31 42/81/31 40/82/31 38/83/31 36/84/31 34/85/31 32/86/31 30/87/31 28/88/31 26/89/31 24/90/31 22/91/31 20/92/31 18/93/31 16/94/31 14/95/31 12/96/31 10/97/31 8/98/31 6/99/31
f 61/67/32 62/66/32 64/100/32 63/101/32
f 63/101/33 64/100/33 2/2/33 1/1/33
f 1/102/34 3/103/34 5/104/34 7/105/34 9/106/34 11/107/34 13/108/34 15/109/34 17/110/34 19/111/34 21/112/34 23/113/34 25/114/34 27/115/34 29/116/34 31/117/34 33/118/34 35/119/34 37/120/34 39/121/34 41/122/34 43/123/34 45/124/34 47/125/34 49/126/34 51/127/34 53/128/34 55/129/34 57/130/34 59/131/34 61/132/34 63/133/34
