# Blender 4.3.2
# www.blender.org
mtllib mystreets_sign_square_post.mtl
o Cylinder.002
v -0.000145 -0.496638 -0.097666
v -0.000145 0.496111 -0.097666
v 0.019364 -0.496638 -0.095744
v 0.019364 0.496111 -0.095744
v 0.038124 -0.496638 -0.090054
v 0.038124 0.496111 -0.090054
v 0.055412 -0.496638 -0.080813
v 0.055412 0.496111 -0.080813
v 0.070566 -0.496638 -0.068376
v 0.070566 0.496111 -0.068376
v 0.083002 -0.496638 -0.053223
v 0.083002 0.496111 -0.053223
v 0.092243 -0.496638 -0.035934
v 0.092243 0.496111 -0.035934
v 0.097934 -0.496638 -0.017175
v 0.097934 0.496111 -0.017175
v 0.099855 -0.496638 0.002334
v 0.099855 0.496111 0.002334
v 0.097934 -0.496638 0.021843
v 0.097934 0.496111 0.021843
v 0.092243 -0.496638 0.040603
v 0.092243 0.496111 0.040603
v 0.083002 -0.496638 0.057891
v 0.083002 0.496111 0.057891
v 0.070566 -0.496638 0.073045
v 0.070566 0.496111 0.073045
v 0.055412 -0.496638 0.085481
v 0.055412 0.496111 0.085481
v 0.038124 -0.496638 0.094722
v 0.038124 0.496111 0.094722
v 0.019364 -0.496638 0.100413
v 0.019364 0.496111 0.100413
v -0.000145 -0.496638 0.102334
v -0.000145 0.496111 0.102334
v -0.019654 -0.496638 0.100413
v -0.019654 0.496111 0.100413
v -0.038413 -0.496638 0.094722
v -0.038413 0.496111 0.094722
v -0.055702 -0.496638 0.085481
v -0.055702 0.496111 0.085481
v -0.070855 -0.496638 0.073045
v -0.070855 0.496111 0.073045
v -0.083292 -0.496638 0.057891
v -0.083291 0.496111 0.057891
v -0.092533 -0.496638 0.040603
v -0.092532 0.496111 0.040603
v -0.098223 -0.496638 0.021843
v -0.098223 0.496111 0.021843
v -0.100145 -0.496638 0.002334
v -0.100145 0.496111 0.002334
v -0.098223 -0.496638 -0.017175
v -0.098223 0.496111 -0.017175
v -0.092533 -0.496638 -0.035934
v -0.092532 0.496111 -0.035934
v -0.083292 -0.496638 -0.053223
v -0.083291 0.496111 -0.053223
v -0.070855 -0.496638 -0.068376
v -0.070855 0.496111 -0.068376
v -0.055702 -0.496638 -0.080813
v -0.055702 0.496111 -0.080813
v -0.038413 -0.496638 -0.090054
v -0.038413 0.496111 -0.090054
v -0.019654 -0.496638 -0.095744
v -0.019654 0.496111 -0.095744
vn 0.0980 -0.0000 -0.9952
vn 0.2903 -0.0000 -0.9569
vn 0.4714 -0.0000 -0.8819
vn 0.6344 -0.0000 -0.7730
vn 0.7730 -0.0000 -0.6344
vn 0.8819 -0.0000 -0.4714
vn 0.9569 -0.0000 -0.2903
vn 0.9952 -0.0000 -0.0980
vn 0.9952 -0.0000 0.0980
vn 0.9569 -0.0000 0.2903
vn 0.8819 -0.0000 0.4714
vn 0.7730 -0.0000 0.6344
vn 0.6344 -0.0000 0.7730
vn 0.4714 -0.0000 0.8819
vn 0.2903 -0.0000 0.9569
vn 0.0980 -0.0000 0.9952
vn -0.0980 -0.0000 0.9952
vn -0.2903 -0.0000 0.9569
vn -0.4714 -0.0000 0.8819
vn -0.6344 -0.0000 0.7730
vn -0.7730 -0.0000 0.6344
vn -0.8819 -0.0000 0.4714
vn -0.9569 -0.0000 0.2903
vn -0.9952 -0.0000 0.0980
vn -0.9952 -0.0000 -0.0980
vn -0.9569 -0.0000 -0.2903
vn -0.8819 -0.0000 -0.4714
vn -0.7730 -0.0000 -0.6344
vn -0.6344 -0.0000 -0.7730
vn -0.4714 -0.0000 -0.8819
vn -0.0000 1.0000 -0.0000
vn -0.2903 -0.0000 -0.9569
vn -0.0980 -0.0000 -0.9952
vn -0.0000 -1.0000 -0.0000
vt 0.658445 0.806491
vt 0.658445 0.538100
vt 0.684435 0.538100
vt 0.684435 0.806491
vt 0.708917 0.538100
vt 0.708917 0.806491
vt 0.730950 0.538100
vt 0.730950 0.806491
vt 0.809753 0.536783
vt 0.809753 0.268392
vt 0.828491 0.268392
vt 0.828491 0.536783
vt 0.850524 0.268392
vt 0.850524 0.536783
vt 0.875006 0.268392
vt 0.875006 0.536783
vt 0.900996 0.268392
vt 0.900996 0.536783
vt 0.927495 0.268392
vt 0.927495 0.536783
vt 0.953485 0.268392
vt 0.953485 0.536783
vt 0.977967 0.268392
vt 0.977967 0.536783
vt 1.000000 0.268392
vt 1.000000 0.536783
vt 0.809753 0.268392
vt 0.809753 0.000000
vt 0.828491 0.000000
vt 0.828491 0.268392
vt 0.850524 0.000000
vt 0.850524 0.268392
vt 0.875006 0.000000
vt 0.875006 0.268392
vt 0.900996 0.000000
vt 0.900996 0.268392
vt 0.927495 0.000000
vt 0.927495 0.268392
vt 0.953485 0.000000
vt 0.953485 0.268392
vt 0.977967 -0.000000
vt 0.977967 0.268392
vt 1.000000 -0.000000
vt 1.000000 0.268392
vt 0.809753 0.805175
vt 0.809753 0.536783
vt 0.828491 0.536783
vt 0.828491 0.805175
vt 0.850524 0.805175
vt 0.875006 0.536783
vt 0.875006 0.805175
vt 0.900996 0.805175
vt 0.927495 0.805175
vt 0.953485 0.536783
vt 0.953485 0.805175
vt 0.977967 0.805175
vt 1.000000 0.805175
vt 0.540703 0.806491
vt 0.540703 0.538100
vt 0.559441 0.538100
vt 0.559441 0.806491
vt 0.581474 0.538100
vt 0.581474 0.806491
vt 0.605956 0.538100
vt 0.605956 0.806491
vt 0.779720 0.489329
vt 0.760983 0.508067
vt 0.738950 0.522789
vt 0.714468 0.532930
vt 0.688478 0.538100
vt 0.661979 0.538100
vt 0.635989 0.532930
vt 0.611507 0.522789
vt 0.589474 0.508067
vt 0.570736 0.489329
vt 0.556014 0.467296
vt 0.545873 0.442814
vt 0.540703 0.416824
vt 0.540703 0.390325
vt 0.545873 0.364335
vt 0.556014 0.339853
vt 0.570736 0.317820
vt 0.589474 0.299082
vt 0.611507 0.284360
vt 0.635989 0.274220
vt 0.661979 0.269050
vt 0.688478 0.269050
vt 0.714468 0.274220
vt 0.738950 0.284360
vt 0.760983 0.299082
vt 0.779720 0.317820
vt 0.794443 0.339853
vt 0.804583 0.364335
vt 0.809753 0.390325
vt 0.809753 0.416824
vt 0.804583 0.442814
vt 0.794443 0.467296
vt 0.631946 0.538100
vt 0.631946 0.806491
vt 0.570736 0.220280
vt 0.556014 0.198246
vt 0.545873 0.173764
vt 0.540703 0.147774
vt 0.540703 0.121275
vt 0.545873 0.095285
vt 0.556014 0.070803
vt 0.570736 0.048770
vt 0.589474 0.030033
vt 0.611507 0.015310
vt 0.635989 0.005170
vt 0.661979 -0.000000
vt 0.688478 -0.000000
vt 0.714468 0.005170
vt 0.738950 0.015310
vt 0.760983 0.030033
vt 0.779721 0.048770
vt 0.794443 0.070803
vt 0.804583 0.095285
vt 0.809753 0.121275
vt 0.809753 0.147774
vt 0.804583 0.173764
vt 0.794443 0.198246
vt 0.779721 0.220279
vt 0.760983 0.239017
vt 0.738950 0.253739
vt 0.714468 0.263880
vt 0.688478 0.269050
vt 0.661979 0.269050
vt 0.635989 0.263880
vt 0.611507 0.253739
vt 0.589474 0.239017
s 0
f 1/1/1 2/2/1 4/3/1 3/4/1
f 3/4/2 4/3/2 6/5/2 5/6/2
f 5/6/3 6/5/3 8/7/3 7/8/3
f 7/9/4 8/10/4 10/11/4 9/12/4
f 9/12/5 10/11/5 12/13/5 11/14/5
f 11/14/6 12/13/6 14/15/6 13/16/6
f 13/16/7 14/15/7 16/17/7 15/18/7
f 15/18/8 16/17/8 18/19/8 17/20/8
f 17/20/9 18/19/9 20/21/9 19/22/9
f 19/22/10 20/21/10 22/23/10 21/24/10
f 21/24/11 22/23/11 24/25/11 23/26/11
f 23/27/12 24/28/12 26/29/12 25/30/12
f 25/30/13 26/29/13 28/31/13 27/32/13
f 27/32/14 28/31/14 30/33/14 29/34/14
f 29/34/15 30/33/15 32/35/15 31/36/15
f 31/36/16 32/35/16 34/37/16 33/38/16
f 33/38/17 34/37/17 36/39/17 35/40/17
f 35/40/18 36/39/18 38/41/18 37/42/18
f 37/42/19 38/41/19 40/43/19 39/44/19
f 39/45/20 40/46/20 42/47/20 41/48/20
f 41/48/21 42/47/21 44/14/21 43/49/21
f 43/49/22 44/14/22 46/50/22 45/51/22
f 45/51/23 46/50/23 48/18/23 47/52/23
f 47/52/24 48/18/24 50/20/24 49/53/24
f 49/53/25 50/20/25 52/54/25 51/55/25
f 51/55/26 52/54/26 54/24/26 53/56/26
f 53/56/27 54/24/27 56/26/27 55/57/27
f 55/58/28 56/59/28 58/60/28 57/61/28
f 57/61/29 58/60/29 60/62/29 59/63/29
f 59/63/30 60/62/30 62/64/30 61/65/30
f 4/66/31 2/67/31 64/68/31 62/69/31 60/70/31 58/71/31 56/72/31 54/73/31 52/74/31 50/75/31 48/76/31 46/77/31 44/78/31 42/79/31 40/80/31 38/81/31 36/82/31 34/83/31 32/84/31 30/85/31 28/86/31 26/87/31 24/88/31 22/89/31 20/90/31 18/91/31 16/92/31 14/93/31 12/94/31 10/95/31 8/96/31 6/97/31
f 61/65/32 62/64/32 64/98/32 63/99/32
f 63/99/33 64/98/33 2/2/33 1/1/33
f 1/100/34 3/101/34 5/102/34 7/103/34 9/104/34 11/105/34 13/106/34 15/107/34 17/108/34 19/109/34 21/110/34 23/111/34 25/112/34 27/113/34 29/114/34 31/115/34 33/116/34 35/117/34 37/118/34 39/119/34 41/120/34 43/121/34 45/122/34 47/123/34 49/124/34 51/125/34 53/126/34 55/127/34 57/128/34 59/129/34 61/130/34 63/131/34
o Cube
v 0.400000 -0.400000 -0.096004
v -0.400000 -0.400000 -0.096004
v 0.400000 -0.400000 -0.136004
v -0.400000 -0.400000 -0.136004
v 0.400000 0.400000 -0.096004
v -0.400000 0.400000 -0.096004
v 0.400000 0.400000 -0.136004
v -0.400000 0.400000 -0.136004
vn -0.0000 -1.0000 -0.0000
vn -0.0000 -0.0000 -1.0000
vn -0.0000 1.0000 -0.0000
vn -0.0000 -0.0000 1.0000
vn 1.0000 -0.0000 -0.0000
vn -1.0000 -0.0000 -0.0000
vt 0.293789 0.985195
vt 0.023438 0.985195
vt 0.023438 0.714844
vt 0.293789 0.714844
vt 0.007813 0.008633
vt 0.278164 0.008633
vt 0.278164 0.278985
vt 0.007812 0.278985
vt 0.298516 0.985195
vt 0.028164 0.985195
vt 0.028164 0.714844
vt 0.298516 0.714844
vt 0.298516 0.986016
vt 0.028164 0.986016
vt 0.028164 0.715664
vt 0.298516 0.715664
vt 0.297695 0.720391
vt 0.297695 0.990742
vt 0.027344 0.990742
vt 0.027344 0.720391
vt 0.294610 0.716485
vt 0.294610 0.986836
vt 0.024258 0.986836
vt 0.024258 0.716485
s 0
f 65/132/35 66/133/35 68/134/35 67/135/35
f 67/136/36 68/137/36 72/138/36 71/139/36
f 71/140/37 72/141/37 70/142/37 69/143/37
f 69/144/38 70/145/38 66/146/38 65/147/38
f 67/148/39 71/149/39 69/150/39 65/151/39
f 72/152/40 68/153/40 66/154/40 70/155/40
