# Blender 4.3.2
# www.blender.org
mtllib mystreets_sign_yeild_post.mtl
o Cube
v 0.078395 -0.179434 -0.139702
v -0.079019 -0.179384 -0.139702
v 0.066388 -0.196202 -0.139702
v 0.053023 -0.210044 -0.139702
v 0.038573 -0.220679 -0.139702
v 0.023333 -0.227890 -0.139702
v 0.007612 -0.231530 -0.139702
v -0.008269 -0.231525 -0.139702
v -0.023988 -0.227875 -0.139702
v -0.039224 -0.220654 -0.139702
v -0.053666 -0.210010 -0.139702
v -0.067022 -0.196160 -0.139702
v -0.079019 -0.179384 -0.099702
v 0.078395 -0.179434 -0.099702
v -0.067022 -0.196160 -0.099702
v -0.053666 -0.210011 -0.099702
v -0.039224 -0.220654 -0.099702
v -0.023988 -0.227875 -0.099702
v -0.008269 -0.231525 -0.099702
v 0.007612 -0.231530 -0.099702
v 0.023333 -0.227890 -0.099702
v 0.038573 -0.220679 -0.099702
v 0.053023 -0.210044 -0.099702
v 0.066388 -0.196202 -0.099702
v 0.317370 0.500000 -0.139702
v 0.403706 0.344819 -0.139702
v 0.342380 0.498421 -0.139702
v 0.364922 0.493714 -0.139702
v 0.384535 0.485977 -0.139702
v 0.400821 0.475366 -0.139702
v 0.413447 0.462097 -0.139702
v 0.422158 0.446441 -0.139702
v 0.426774 0.428716 -0.139702
v 0.427204 0.409283 -0.139702
v 0.423437 0.388538 -0.139702
v 0.415551 0.366903 -0.139702
v 0.403706 0.344819 -0.099702
v 0.317370 0.500000 -0.099702
v 0.415551 0.366903 -0.099702
v 0.423437 0.388538 -0.099702
v 0.427204 0.409283 -0.099702
v 0.426774 0.428716 -0.099702
v 0.422158 0.446441 -0.099702
v 0.413447 0.462097 -0.099702
v 0.400821 0.475366 -0.099702
v 0.384535 0.485977 -0.099702
v 0.364922 0.493714 -0.099702
v 0.342380 0.498421 -0.099702
v -0.403022 0.343495 -0.139702
v -0.315884 0.500000 -0.139702
v -0.414949 0.365768 -0.139702
v -0.422886 0.387587 -0.139702
v -0.426670 0.408509 -0.139702
v -0.426224 0.428108 -0.139702
v -0.421559 0.445984 -0.139702
v -0.412767 0.461773 -0.139702
v -0.400030 0.475155 -0.139702
v -0.383605 0.485857 -0.139702
v -0.363827 0.493660 -0.139702
v -0.341099 0.498407 -0.139702
v -0.315884 0.500000 -0.099702
v -0.403022 0.343495 -0.099702
v -0.341099 0.498407 -0.099702
v -0.363827 0.493660 -0.099702
v -0.383605 0.485857 -0.099702
v -0.400030 0.475155 -0.099702
v -0.412767 0.461773 -0.099702
v -0.421559 0.445984 -0.099702
v -0.426224 0.428108 -0.099702
v -0.426670 0.408509 -0.099702
v -0.422886 0.387587 -0.099702
v -0.414949 0.365768 -0.099702
vn -0.0000 -0.0000 1.0000
vn 0.8497 -0.5273 -0.0000
vn 0.8130 -0.5822 -0.0000
vn 0.7194 -0.6946 -0.0000
vn 0.5928 -0.8054 -0.0000
vn 0.4277 -0.9039 -0.0000
vn 0.2256 -0.9742 -0.0000
vn -0.0003 -1.0000 -0.0000
vn -0.2262 -0.9741 -0.0000
vn -0.4283 -0.9037 -0.0000
vn -0.5933 -0.8050 -0.0000
vn -0.7199 -0.6941 -0.0000
vn -0.8134 -0.5817 -0.0000
vn -0.0000 -0.0000 -1.0000
vn 0.0630 0.9980 -0.0000
vn 0.2044 0.9789 -0.0000
vn 0.3670 0.9302 -0.0000
vn 0.5459 0.8378 -0.0000
vn 0.7244 0.6894 -0.0000
vn 0.8739 0.4862 -0.0000
vn 0.9677 0.2521 -0.0000
vn 0.9998 0.0221 -0.0000
vn 0.9839 -0.1786 -0.0000
vn 0.9395 -0.3425 -0.0000
vn 0.8812 -0.4727 -0.0000
vn -0.8500 -0.5267 -0.0000
vn -0.0631 0.9980 -0.0000
vn -0.2044 0.9789 -0.0000
vn -0.3670 0.9302 -0.0000
vn -0.5459 0.8378 -0.0000
vn -0.7243 0.6895 -0.0000
vn -0.8737 0.4865 -0.0000
vn -0.9676 0.2525 -0.0000
vn -0.9997 0.0227 -0.0000
vn -0.9840 -0.1780 -0.0000
vn -0.9398 -0.3418 -0.0000
vn -0.8816 -0.4721 -0.0000
vn -0.0000 1.0000 -0.0000
vt 0.369047 0.873388
vt 0.368332 0.884708
vt 0.366202 0.894910
vt 0.362701 0.903786
vt 0.357898 0.911157
vt 0.351893 0.916871
vt 0.344807 0.920813
vt 0.336786 0.922903
vt 0.327991 0.923097
vt 0.318602 0.921392
vt 0.308810 0.917823
vt 0.298815 0.912462
vt 0.055292 0.761351
vt 0.045976 0.754721
vt 0.038368 0.747472
vt 0.032625 0.739752
vt 0.028862 0.731717
vt 0.027157 0.723531
vt 0.027544 0.715361
vt 0.030016 0.707374
vt 0.034521 0.699731
vt 0.040969 0.692588
vt 0.049228 0.686091
vt 0.059129 0.680372
vt 0.308500 0.556610
vt 0.317117 0.553022
vt 0.325558 0.550882
vt 0.333652 0.550236
vt 0.341235 0.551095
vt 0.348150 0.553442
vt 0.354259 0.557230
vt 0.359436 0.562381
vt 0.363576 0.568791
vt 0.366595 0.576329
vt 0.368431 0.584841
vt 0.369047 0.594155
vt 0.287879 0.976017
vt 0.044734 0.976017
vt 0.044734 0.523438
vt 0.287879 0.523438
vt 0.400202 0.531250
vt 0.400202 0.983829
vt 0.388489 0.979923
vt 0.388489 0.527344
vt 0.381980 0.979923
vt 0.381980 0.527344
vt 0.346857 0.976017
vt 0.346857 0.523438
vt 0.353397 0.523438
vt 0.353397 0.976017
vt 0.360294 0.523438
vt 0.360294 0.976017
vt 0.367409 0.523438
vt 0.367409 0.976017
vt 0.374597 0.523438
vt 0.374597 0.976017
vt 0.381711 0.523438
vt 0.381711 0.976017
vt 0.388606 0.523438
vt 0.388606 0.976017
vt 0.395143 0.523438
vt 0.395143 0.976017
vt 0.046875 0.975471
vt 0.046875 0.522892
vt 0.053385 0.522892
vt 0.053385 0.975471
vt 0.061192 0.522892
vt 0.061192 0.975471
vt 0.086844 0.150113
vt 0.081397 0.140059
vt 0.077757 0.130201
vt 0.075999 0.120741
vt 0.076157 0.111870
vt 0.078230 0.103770
vt 0.082174 0.096605
vt 0.087909 0.090520
vt 0.095319 0.085641
vt 0.104253 0.082066
vt 0.114529 0.079868
vt 0.125937 0.079092
vt 0.412531 0.077706
vt 0.423854 0.078366
vt 0.434066 0.080446
vt 0.442960 0.083905
vt 0.450353 0.088672
vt 0.456097 0.094649
vt 0.460073 0.101716
vt 0.462201 0.109727
vt 0.462438 0.118521
vt 0.460779 0.127918
vt 0.457257 0.137727
vt 0.451945 0.147748
vt 0.305865 0.385723
vt 0.300468 0.393338
vt 0.294449 0.399632
vt 0.287933 0.404477
vt 0.281052 0.407773
vt 0.273945 0.409455
vt 0.266757 0.409488
vt 0.259635 0.407870
vt 0.252724 0.404636
vt 0.246165 0.399850
vt 0.240090 0.393611
vt 0.234623 0.386045
vt 0.344211 0.979923
vt 0.344211 0.527344
vt 0.355531 0.527344
vt 0.355531 0.979923
vt 0.365733 0.527344
vt 0.365733 0.979923
vt 0.374609 0.527344
vt 0.374609 0.979923
vt 0.381980 0.527344
vt 0.346857 0.976017
vt 0.341093 0.976017
vt 0.341093 0.523438
vt 0.334177 0.976017
vt 0.334177 0.523438
vt 0.326248 0.976017
vt 0.326248 0.523438
vt 0.317468 0.976017
vt 0.317469 0.523438
vt 0.308017 0.976017
vt 0.308017 0.523438
vt 0.298087 0.976017
vt 0.298087 0.523438
vt 0.303612 0.975471
vt 0.303612 0.522892
vt 0.057614 0.527344
vt 0.057614 0.979923
vt 0.046202 0.979923
vt 0.046202 0.527344
vt 0.035916 0.979923
vt 0.035916 0.527344
vt 0.026965 0.979923
vt 0.026965 0.527344
vt 0.019531 0.979923
vt 0.019531 0.527344
vt 0.363094 0.522892
vt 0.363094 0.975471
vt 0.357278 0.975471
vt 0.357278 0.522892
vt 0.350300 0.975471
vt 0.350300 0.522892
vt 0.342302 0.975471
vt 0.342302 0.522892
vt 0.333448 0.975471
vt 0.333448 0.522892
vt 0.323917 0.975471
vt 0.323917 0.522892
vt 0.313904 0.975471
vt 0.313904 0.522892
s 0
usemtl Material
f 37/1/1 39/2/1 40/3/1 41/4/1 42/5/1 43/6/1 44/7/1 45/8/1 46/9/1 47/10/1 48/11/1 38/12/1 61/13/1 63/14/1 64/15/1 65/16/1 66/17/1 67/18/1 68/19/1 69/20/1 70/21/1 71/22/1 72/23/1 62/24/1 13/25/1 15/26/1 16/27/1 17/28/1 18/29/1 19/30/1 20/31/1 21/32/1 22/33/1 23/34/1 24/35/1 14/36/1
f 37/37/2 14/38/2 1/39/2 26/40/2
f 1/41/3 14/42/3 24/43/3 3/44/3
f 3/44/4 24/43/4 23/45/4 4/46/4
f 4/47/5 23/48/5 22/49/5 5/50/5
f 5/50/6 22/49/6 21/51/6 6/52/6
f 6/52/7 21/51/7 20/53/7 7/54/7
f 7/54/8 20/53/8 19/55/8 8/56/8
f 8/56/9 19/55/9 18/57/9 9/58/9
f 9/58/10 18/57/10 17/59/10 10/60/10
f 10/60/11 17/59/11 16/61/11 11/62/11
f 11/63/12 16/64/12 15/65/12 12/66/12
f 12/66/13 15/65/13 13/67/13 2/68/13
f 49/69/14 51/70/14 52/71/14 53/72/14 54/73/14 55/74/14 56/75/14 57/76/14 58/77/14 59/78/14 60/79/14 50/80/14 25/81/14 27/82/14 28/83/14 29/84/14 30/85/14 31/86/14 32/87/14 33/88/14 34/89/14 35/90/14 36/91/14 26/92/14 1/93/14 3/94/14 4/95/14 5/96/14 6/97/14 7/98/14 8/99/14 9/100/14 10/101/14 11/102/14 12/103/14 2/104/14
f 25/105/15 38/106/15 48/107/15 27/108/15
f 27/108/16 48/107/16 47/109/16 28/110/16
f 28/110/17 47/109/17 46/111/17 29/112/17
f 29/112/18 46/111/18 45/113/18 30/45/18
f 30/48/19 45/114/19 44/115/19 31/116/19
f 31/116/20 44/115/20 43/117/20 32/118/20
f 32/118/21 43/117/21 42/119/21 33/120/21
f 33/120/22 42/119/22 41/121/22 34/122/22
f 34/122/23 41/121/23 40/123/23 35/124/23
f 35/124/24 40/123/24 39/125/24 36/126/24
f 36/126/25 39/125/25 37/37/25 26/40/25
f 49/127/26 2/68/26 13/67/26 62/128/26
f 61/129/27 50/130/27 60/131/27 63/132/27
f 63/132/28 60/131/28 59/133/28 64/134/28
f 64/134/29 59/133/29 58/135/29 65/136/29
f 65/136/30 58/135/30 57/137/30 66/138/30
f 66/139/31 57/140/31 56/141/31 67/142/31
f 67/142/32 56/141/32 55/143/32 68/144/32
f 68/144/33 55/143/33 54/145/33 69/146/33
f 69/146/34 54/145/34 53/147/34 70/148/34
f 70/148/35 53/147/35 52/149/35 71/150/35
f 71/150/36 52/149/36 51/151/36 72/152/36
f 72/152/37 51/151/37 49/127/37 62/128/37
f 25/105/38 50/130/38 61/129/38 38/106/38
o Cylinder
v 0.000000 -0.500000 -0.100000
v 0.000000 0.500000 -0.100000
v 0.019509 -0.500000 -0.098079
v 0.019509 0.500000 -0.098079
v 0.038268 -0.500000 -0.092388
v 0.038268 0.500000 -0.092388
v 0.055557 -0.500000 -0.083147
v 0.055557 0.500000 -0.083147
v 0.070711 -0.500000 -0.070711
v 0.070711 0.500000 -0.070711
v 0.083147 -0.500000 -0.055557
v 0.083147 0.500000 -0.055557
v 0.092388 -0.500000 -0.038268
v 0.092388 0.500000 -0.038268
v 0.098079 -0.500000 -0.019509
v 0.098079 0.500000 -0.019509
v 0.100000 -0.500000 0.000000
v 0.100000 0.500000 0.000000
v 0.098079 -0.500000 0.019509
v 0.098079 0.500000 0.019509
v 0.092388 -0.500000 0.038268
v 0.092388 0.500000 0.038268
v 0.083147 -0.500000 0.055557
v 0.083147 0.500000 0.055557
v 0.070711 -0.500000 0.070711
v 0.070711 0.500000 0.070711
v 0.055557 -0.500000 0.083147
v 0.055557 0.500000 0.083147
v 0.038268 -0.500000 0.092388
v 0.038268 0.500000 0.092388
v 0.019509 -0.500000 0.098079
v 0.019509 0.500000 0.098079
v 0.000000 -0.500000 0.100000
v 0.000000 0.500000 0.100000
v -0.019509 -0.500000 0.098079
v -0.019509 0.500000 0.098079
v -0.038268 -0.500000 0.092388
v -0.038268 0.500000 0.092388
v -0.055557 -0.500000 0.083147
v -0.055557 0.500000 0.083147
v -0.070711 -0.500000 0.070711
v -0.070711 0.500000 0.070711
v -0.083147 -0.500000 0.055557
v -0.083147 0.500000 0.055557
v -0.092388 -0.500000 0.038268
v -0.092388 0.500000 0.038268
v -0.098079 -0.500000 0.019509
v -0.098079 0.500000 0.019509
v -0.100000 -0.500000 0.000000
v -0.100000 0.500000 0.000000
v -0.098079 -0.500000 -0.019509
v -0.098079 0.500000 -0.019509
v -0.092388 -0.500000 -0.038268
v -0.092388 0.500000 -0.038268
v -0.083147 -0.500000 -0.055557
v -0.083147 0.500000 -0.055557
v -0.070711 -0.500000 -0.070711
v -0.070711 0.500000 -0.070711
v -0.055557 -0.500000 -0.083147
v -0.055557 0.500000 -0.083147
v -0.038268 -0.500000 -0.092388
v -0.038268 0.500000 -0.092388
v -0.019509 -0.500000 -0.098079
v -0.019509 0.500000 -0.098079
vn 0.0980 -0.0000 -0.9952
vn 0.2903 -0.0000 -0.9569
vn 0.4714 -0.0000 -0.8819
vn 0.6344 -0.0000 -0.7730
vn 0.7730 -0.0000 -0.6344
vn 0.8819 -0.0000 -0.4714
vn 0.9569 -0.0000 -0.2903
vn 0.9952 -0.0000 -0.0980
vn 0.9952 -0.0000 0.0980
vn 0.9569 -0.0000 0.2903
vn 0.8819 -0.0000 0.4714
vn 0.7730 -0.0000 0.6344
vn 0.6344 -0.0000 0.7730
vn 0.4714 -0.0000 0.8819
vn 0.2903 -0.0000 0.9569
vn 0.0980 -0.0000 0.9952
vn -0.0980 -0.0000 0.9952
vn -0.2903 -0.0000 0.9569
vn -0.4714 -0.0000 0.8819
vn -0.6344 -0.0000 0.7730
vn -0.7730 -0.0000 0.6344
vn -0.8819 -0.0000 0.4714
vn -0.9569 -0.0000 0.2903
vn -0.9952 -0.0000 0.0980
vn -0.9952 -0.0000 -0.0980
vn -0.9569 -0.0000 -0.2903
vn -0.8819 -0.0000 -0.4714
vn -0.7730 -0.0000 -0.6344
vn -0.6344 -0.0000 -0.7730
vn -0.4714 -0.0000 -0.8819
vn -0.0000 1.0000 -0.0000
vn -0.2903 -0.0000 -0.9569
vn -0.0980 -0.0000 -0.9952
vn -0.0000 -1.0000 -0.0000
vt 1.000000 0.500000
vt 1.000000 1.000000
vt 0.968750 1.000000
vt 0.968750 0.500000
vt 0.937500 1.000000
vt 0.937500 0.500000
vt 0.906250 1.000000
vt 0.906250 0.500000
vt 0.875000 1.000000
vt 0.875000 0.500000
vt 0.843750 1.000000
vt 0.843750 0.500000
vt 0.812500 1.000000
vt 0.812500 0.500000
vt 0.781250 1.000000
vt 0.781250 0.500000
vt 0.750000 1.000000
vt 0.750000 0.500000
vt 0.718750 1.000000
vt 0.718750 0.500000
vt 0.687500 1.000000
vt 0.687500 0.500000
vt 0.656250 1.000000
vt 0.656250 0.500000
vt 0.992188 0.492188
vt 0.992188 0.992188
vt 0.960938 0.992188
vt 0.960938 0.492188
vt 0.929688 0.992188
vt 0.929688 0.492188
vt 0.898438 0.992188
vt 0.898438 0.492188
vt 0.867188 0.992188
vt 0.867188 0.492188
vt 0.835938 0.992188
vt 0.835938 0.492188
vt 0.804688 0.992188
vt 0.804688 0.492188
vt 0.773438 0.992188
vt 0.773438 0.492188
vt 0.742188 0.992188
vt 0.742188 0.492188
vt 0.710938 0.992188
vt 0.710938 0.492188
vt 0.679688 0.992188
vt 0.679688 0.492188
vt 0.648438 0.992188
vt 0.648438 0.492188
vt 0.617188 0.992188
vt 0.617188 0.492188
vt 0.996094 0.496094
vt 0.996094 0.996094
vt 0.964844 0.996094
vt 0.964844 0.496094
vt 0.933594 0.996094
vt 0.933594 0.496094
vt 0.902344 0.996094
vt 0.902344 0.496094
vt 0.871094 0.996094
vt 0.871094 0.496094
vt 0.839844 0.996094
vt 0.839844 0.496094
vt 0.808594 0.996094
vt 0.808594 0.496094
vt 0.777344 0.996094
vt 0.777344 0.496094
vt 0.808540 0.985389
vt 0.761719 0.990000
vt 0.714897 0.985389
vt 0.669875 0.971731
vt 0.628382 0.949553
vt 0.592013 0.919706
vt 0.562166 0.883337
vt 0.539988 0.841844
vt 0.526330 0.796822
vt 0.521719 0.750000
vt 0.526330 0.703178
vt 0.539988 0.658156
vt 0.562166 0.616663
vt 0.592013 0.580294
vt 0.628382 0.550447
vt 0.669875 0.528269
vt 0.714897 0.514612
vt 0.761719 0.510000
vt 0.808540 0.514612
vt 0.853563 0.528269
vt 0.895056 0.550447
vt 0.931424 0.580294
vt 0.961271 0.616663
vt 0.983450 0.658156
vt 0.997107 0.703178
vt 1.001719 0.750000
vt 0.997107 0.796822
vt 0.983450 0.841844
vt 0.961271 0.883337
vt 0.931424 0.919706
vt 0.895056 0.949553
vt 0.853563 0.971731
vt 0.746094 0.996094
vt 0.746094 0.496094
vt 0.714844 0.996094
vt 0.714844 0.496094
vt 0.757812 0.997813
vt 0.804634 0.993201
vt 0.849657 0.979544
vt 0.891149 0.957365
vt 0.927518 0.927518
vt 0.957365 0.891149
vt 0.979544 0.849657
vt 0.993201 0.804634
vt 0.997813 0.757812
vt 0.993201 0.710991
vt 0.979544 0.665968
vt 0.957365 0.624476
vt 0.927518 0.588107
vt 0.891149 0.558260
vt 0.849657 0.536081
vt 0.804634 0.522424
vt 0.757812 0.517812
vt 0.710991 0.522424
vt 0.665968 0.536081
vt 0.624476 0.558260
vt 0.588107 0.588107
vt 0.558260 0.624476
vt 0.536081 0.665968
vt 0.522424 0.710991
vt 0.517812 0.757812
vt 0.522424 0.804634
vt 0.536081 0.849657
vt 0.558260 0.891149
vt 0.588107 0.927518
vt 0.624476 0.957365
vt 0.665968 0.979544
vt 0.710991 0.993201
s 0
f 73/153/39 74/154/39 76/155/39 75/156/39
f 75/156/40 76/155/40 78/157/40 77/158/40
f 77/158/41 78/157/41 80/159/41 79/160/41
f 79/160/42 80/159/42 82/161/42 81/162/42
f 81/162/43 82/161/43 84/163/43 83/164/43
f 83/164/44 84/163/44 86/165/44 85/166/44
f 85/166/45 86/165/45 88/167/45 87/168/45
f 87/168/46 88/167/46 90/169/46 89/170/46
f 89/170/47 90/169/47 92/171/47 91/172/47
f 91/172/48 92/171/48 94/173/48 93/174/48
f 93/174/49 94/173/49 96/175/49 95/176/49
f 95/177/50 96/178/50 98/179/50 97/180/50
f 97/180/51 98/179/51 100/181/51 99/182/51
f 99/182/52 100/181/52 102/183/52 101/184/52
f 101/184/53 102/183/53 104/185/53 103/186/53
f 103/186/54 104/185/54 106/187/54 105/188/54
f 105/188/55 106/187/55 108/189/55 107/190/55
f 107/190/56 108/189/56 110/191/56 109/192/56
f 109/192/57 110/191/57 112/193/57 111/194/57
f 111/194/58 112/193/58 114/195/58 113/196/58
f 113/196/59 114/195/59 116/197/59 115/198/59
f 115/198/60 116/197/60 118/199/60 117/200/60
f 117/200/61 118/199/61 120/201/61 119/202/61
f 119/203/62 120/204/62 122/205/62 121/206/62
f 121/206/63 122/205/63 124/207/63 123/208/63
f 123/208/64 124/207/64 126/209/64 125/210/64
f 125/210/65 126/209/65 128/211/65 127/212/65
f 127/212/66 128/211/66 130/213/66 129/214/66
f 129/214/67 130/213/67 132/215/67 131/216/67
f 131/216/68 132/215/68 134/217/68 133/218/68
f 76/219/69 74/220/69 136/221/69 134/222/69 132/223/69 130/224/69 128/225/69 126/226/69 124/227/69 122/228/69 120/229/69 118/230/69 116/231/69 114/232/69 112/233/69 110/234/69 108/235/69 106/236/69 104/237/69 102/238/69 100/239/69 98/240/69 96/241/69 94/242/69 92/243/69 90/244/69 88/245/69 86/246/69 84/247/69 82/248/69 80/249/69 78/250/69
f 133/218/70 134/217/70 136/251/70 135/252/70
f 135/252/71 136/251/71 74/253/71 73/254/71
f 73/255/72 75/256/72 77/257/72 79/258/72 81/259/72 83/260/72 85/261/72 87/262/72 89/263/72 91/264/72 93/265/72 95/266/72 97/267/72 99/268/72 101/269/72 103/270/72 105/271/72 107/272/72 109/273/72 111/274/72 113/275/72 115/276/72 117/277/72 119/278/72 121/279/72 123/280/72 125/281/72 127/282/72 129/283/72 131/284/72 133/285/72 135/286/72
